G04*
G04 #@! TF.GenerationSoftware,Altium Limited,Altium Designer,24.6.1 (21)*
G04*
G04 Layer_Physical_Order=4*
G04 Layer_Color=16711680*
%FSLAX25Y25*%
%MOIN*%
G70*
G04*
G04 #@! TF.SameCoordinates,53350382-22CE-4EB4-8EAE-C997BD2E2089*
G04*
G04*
G04 #@! TF.FilePolarity,Positive*
G04*
G01*
G75*
%ADD14C,0.01000*%
%ADD27R,0.03740X0.05315*%
%ADD28R,0.05315X0.03740*%
%ADD45C,0.06319*%
%ADD46R,0.06201X0.06201*%
%ADD47C,0.06201*%
%ADD48C,0.07087*%
%ADD49R,0.07087X0.07087*%
%ADD50R,0.07087X0.07087*%
%ADD51C,0.02000*%
G36*
X430796Y149704D02*
X176704D01*
Y375796D01*
X430796Y375796D01*
Y149704D01*
D02*
G37*
%LPC*%
G36*
X280013Y366893D02*
X278987D01*
X277997Y366628D01*
X277110Y366115D01*
X276385Y365390D01*
X275872Y364503D01*
X275607Y363513D01*
Y362487D01*
X275872Y361497D01*
X276385Y360610D01*
X277110Y359885D01*
X277997Y359372D01*
X278987Y359107D01*
X280013D01*
X281003Y359372D01*
X281891Y359885D01*
X282615Y360610D01*
X283128Y361497D01*
X283393Y362487D01*
Y363513D01*
X283128Y364503D01*
X282615Y365390D01*
X281891Y366115D01*
X281003Y366628D01*
X280013Y366893D01*
D02*
G37*
G36*
X270013D02*
X268987D01*
X267997Y366628D01*
X267109Y366115D01*
X266385Y365390D01*
X265872Y364503D01*
X265607Y363513D01*
Y362487D01*
X265872Y361497D01*
X266385Y360610D01*
X267109Y359885D01*
X267997Y359372D01*
X268987Y359107D01*
X270013D01*
X271003Y359372D01*
X271890Y359885D01*
X272615Y360610D01*
X273128Y361497D01*
X273393Y362487D01*
Y363513D01*
X273128Y364503D01*
X272615Y365390D01*
X271890Y366115D01*
X271003Y366628D01*
X270013Y366893D01*
D02*
G37*
G36*
X260013D02*
X258987D01*
X257997Y366628D01*
X257109Y366115D01*
X256385Y365390D01*
X255872Y364503D01*
X255607Y363513D01*
Y362487D01*
X255872Y361497D01*
X256385Y360610D01*
X257109Y359885D01*
X257997Y359372D01*
X258987Y359107D01*
X260013D01*
X261003Y359372D01*
X261891Y359885D01*
X262615Y360610D01*
X263128Y361497D01*
X263393Y362487D01*
Y363513D01*
X263128Y364503D01*
X262615Y365390D01*
X261891Y366115D01*
X261003Y366628D01*
X260013Y366893D01*
D02*
G37*
G36*
X250013D02*
X248987D01*
X247997Y366628D01*
X247110Y366115D01*
X246385Y365390D01*
X245872Y364503D01*
X245607Y363513D01*
Y362487D01*
X245872Y361497D01*
X246385Y360610D01*
X247110Y359885D01*
X247997Y359372D01*
X248987Y359107D01*
X250013D01*
X251003Y359372D01*
X251890Y359885D01*
X252615Y360610D01*
X253128Y361497D01*
X253393Y362487D01*
Y363513D01*
X253128Y364503D01*
X252615Y365390D01*
X251890Y366115D01*
X251003Y366628D01*
X250013Y366893D01*
D02*
G37*
G36*
X240013D02*
X238987D01*
X237997Y366628D01*
X237109Y366115D01*
X236385Y365390D01*
X235872Y364503D01*
X235607Y363513D01*
Y362487D01*
X235872Y361497D01*
X236385Y360610D01*
X237109Y359885D01*
X237997Y359372D01*
X238987Y359107D01*
X240013D01*
X241003Y359372D01*
X241891Y359885D01*
X242615Y360610D01*
X243128Y361497D01*
X243393Y362487D01*
Y363513D01*
X243128Y364503D01*
X242615Y365390D01*
X241891Y366115D01*
X241003Y366628D01*
X240013Y366893D01*
D02*
G37*
G36*
X230013D02*
X228987D01*
X227997Y366628D01*
X227110Y366115D01*
X226385Y365390D01*
X225872Y364503D01*
X225607Y363513D01*
Y362487D01*
X225872Y361497D01*
X226385Y360610D01*
X227110Y359885D01*
X227997Y359372D01*
X228987Y359107D01*
X230013D01*
X231003Y359372D01*
X231891Y359885D01*
X232615Y360610D01*
X233128Y361497D01*
X233393Y362487D01*
Y363513D01*
X233128Y364503D01*
X232615Y365390D01*
X231891Y366115D01*
X231003Y366628D01*
X230013Y366893D01*
D02*
G37*
G36*
X210013D02*
X208987D01*
X207997Y366628D01*
X207109Y366115D01*
X206385Y365390D01*
X205872Y364503D01*
X205607Y363513D01*
Y362487D01*
X205872Y361497D01*
X206385Y360610D01*
X207109Y359885D01*
X207997Y359372D01*
X208987Y359107D01*
X210013D01*
X211003Y359372D01*
X211891Y359885D01*
X212615Y360610D01*
X213128Y361497D01*
X213393Y362487D01*
Y363513D01*
X213128Y364503D01*
X212615Y365390D01*
X211891Y366115D01*
X211003Y366628D01*
X210013Y366893D01*
D02*
G37*
G36*
X203393D02*
X195607D01*
Y359107D01*
X203393D01*
Y366893D01*
D02*
G37*
G36*
X399768Y360350D02*
X399232D01*
X398735Y360144D01*
X398356Y359765D01*
X398150Y359268D01*
Y358732D01*
X398356Y358235D01*
X398735Y357856D01*
X399232Y357650D01*
X399768D01*
X400265Y357856D01*
X400644Y358235D01*
X400850Y358732D01*
Y359268D01*
X400644Y359765D01*
X400265Y360144D01*
X399768Y360350D01*
D02*
G37*
G36*
X341500Y360867D02*
X325500D01*
X325168Y360801D01*
X324887Y360613D01*
X293387Y329113D01*
X293199Y328832D01*
X293133Y328500D01*
Y295042D01*
X292856Y294765D01*
X292650Y294268D01*
Y293731D01*
X292856Y293235D01*
X293235Y292856D01*
X293731Y292650D01*
X294268D01*
X294765Y292856D01*
X295145Y293235D01*
X295350Y293731D01*
Y294268D01*
X295145Y294765D01*
X294867Y295042D01*
Y328141D01*
X297791Y331065D01*
X297921Y331040D01*
X298133Y330913D01*
Y294042D01*
X297855Y293765D01*
X297650Y293268D01*
Y292731D01*
X297855Y292235D01*
X298235Y291856D01*
X298731Y291650D01*
X299269D01*
X299765Y291856D01*
X300145Y292235D01*
X300350Y292731D01*
Y293268D01*
X300145Y293765D01*
X299867Y294042D01*
Y330641D01*
X325359Y356133D01*
X368458D01*
X368735Y355855D01*
X369232Y355650D01*
X369769D01*
X370265Y355855D01*
X370644Y356235D01*
X370850Y356732D01*
Y357269D01*
X370644Y357765D01*
X370265Y358144D01*
X369769Y358350D01*
X369232D01*
X368735Y358144D01*
X368458Y357867D01*
X342499D01*
X342429Y358217D01*
X342765Y358355D01*
X343144Y358735D01*
X343350Y359231D01*
Y359769D01*
X343144Y360265D01*
X342765Y360645D01*
X342268Y360850D01*
X341732D01*
X341684Y360830D01*
X341500Y360867D01*
D02*
G37*
G36*
X405268Y356850D02*
X404732D01*
X404235Y356645D01*
X403856Y356265D01*
X403650Y355768D01*
Y355231D01*
X403856Y354735D01*
X404235Y354356D01*
X404732Y354150D01*
X405268D01*
X405765Y354356D01*
X406145Y354735D01*
X406350Y355231D01*
Y355768D01*
X406145Y356265D01*
X405765Y356645D01*
X405268Y356850D01*
D02*
G37*
G36*
X375058Y344561D02*
X374521D01*
X374025Y344355D01*
X373645Y343975D01*
X373440Y343479D01*
Y343201D01*
X372605Y342367D01*
X372126D01*
Y344508D01*
X367685D01*
Y338492D01*
X369039D01*
Y336270D01*
X368735Y336144D01*
X368355Y335765D01*
X368150Y335268D01*
Y334732D01*
X368355Y334235D01*
X368735Y333856D01*
X369232Y333650D01*
X369769D01*
X370265Y333856D01*
X370644Y334235D01*
X370850Y334732D01*
Y335268D01*
X370772Y335456D01*
Y338492D01*
X372126D01*
Y340633D01*
X372965D01*
X373296Y340699D01*
X373577Y340887D01*
X374551Y341861D01*
X375058D01*
X375554Y342066D01*
X375934Y342446D01*
X376139Y342942D01*
Y343479D01*
X375934Y343975D01*
X375554Y344355D01*
X375058Y344561D01*
D02*
G37*
G36*
X402269Y343350D02*
X401731D01*
X401235Y343144D01*
X400855Y342765D01*
X400650Y342268D01*
Y341732D01*
X400855Y341235D01*
X401235Y340856D01*
X401731Y340650D01*
X402269D01*
X402765Y340856D01*
X403145Y341235D01*
X403350Y341732D01*
Y342268D01*
X403145Y342765D01*
X402765Y343144D01*
X402269Y343350D01*
D02*
G37*
G36*
X327768Y345850D02*
X327232D01*
X326735Y345644D01*
X326356Y345265D01*
X326150Y344769D01*
Y344232D01*
X326356Y343735D01*
X326735Y343355D01*
X326825Y343319D01*
Y342690D01*
X326891Y342359D01*
X327079Y342078D01*
X328239Y340917D01*
X328052Y340645D01*
X327556Y340850D01*
X327019D01*
X326523Y340645D01*
X326143Y340265D01*
X325937Y339769D01*
Y339231D01*
X326143Y338735D01*
X326523Y338355D01*
X327019Y338150D01*
X327124D01*
X328387Y336887D01*
X328668Y336699D01*
X329000Y336633D01*
X329874D01*
Y334492D01*
X334315D01*
Y340508D01*
X332867D01*
Y341957D01*
X333144Y342235D01*
X333350Y342731D01*
Y343268D01*
X333144Y343765D01*
X332765Y344145D01*
X332269Y344350D01*
X331732D01*
X331235Y344145D01*
X330855Y343765D01*
X330650Y343268D01*
Y342731D01*
X330855Y342235D01*
X331133Y341957D01*
Y340969D01*
X330783Y340824D01*
X328558Y343050D01*
Y343649D01*
X328644Y343735D01*
X328850Y344232D01*
Y344769D01*
X328644Y345265D01*
X328265Y345644D01*
X327768Y345850D01*
D02*
G37*
G36*
X358000Y346367D02*
X357668Y346301D01*
X357387Y346113D01*
X357199Y345832D01*
X357133Y345500D01*
X357199Y345168D01*
X357387Y344887D01*
X359230Y343045D01*
X359511Y342857D01*
X359842Y342791D01*
X362271D01*
X363133Y341928D01*
Y341072D01*
X362271Y340209D01*
X359892D01*
X359560Y340143D01*
X359279Y339955D01*
X359035Y339711D01*
X358887Y339613D01*
X358699Y339332D01*
X358633Y339000D01*
X358699Y338668D01*
X358887Y338387D01*
X359168Y338199D01*
X359500Y338133D01*
X359549D01*
X359881Y338199D01*
X360162Y338387D01*
X360250Y338476D01*
X362630D01*
X362962Y338542D01*
X363243Y338730D01*
X364613Y340100D01*
X364801Y340381D01*
X364867Y340713D01*
Y342287D01*
X364801Y342619D01*
X364613Y342900D01*
X363243Y344270D01*
X362962Y344458D01*
X362630Y344524D01*
X360202D01*
X358613Y346113D01*
X358332Y346301D01*
X358000Y346367D01*
D02*
G37*
G36*
X398768Y339850D02*
X398232D01*
X397735Y339645D01*
X397356Y339265D01*
X397150Y338769D01*
Y338231D01*
X397356Y337735D01*
X397735Y337355D01*
X398232Y337150D01*
X398768D01*
X399265Y337355D01*
X399644Y337735D01*
X399850Y338231D01*
Y338769D01*
X399644Y339265D01*
X399265Y339645D01*
X398768Y339850D01*
D02*
G37*
G36*
X336000Y345367D02*
X335668Y345301D01*
X335387Y345113D01*
X335199Y344832D01*
X335133Y344500D01*
Y340287D01*
X335199Y339956D01*
X335387Y339675D01*
X337133Y337928D01*
Y337500D01*
X337199Y337168D01*
X337387Y336887D01*
X337668Y336699D01*
X338000Y336633D01*
X346000D01*
X346332Y336699D01*
X346613Y336887D01*
X346801Y337168D01*
X346867Y337500D01*
X346801Y337832D01*
X346613Y338113D01*
X346332Y338301D01*
X346000Y338367D01*
X339762D01*
X339628Y338690D01*
X341507Y340569D01*
X341695Y340850D01*
X341751Y341132D01*
X341886Y341334D01*
X341952Y341666D01*
X341886Y341998D01*
X341698Y342279D01*
X341417Y342467D01*
X341085Y342532D01*
X340754Y342467D01*
X340473Y342279D01*
X340281Y342087D01*
X340093Y341806D01*
X340044Y341557D01*
X338000Y339513D01*
X336867Y340646D01*
Y344500D01*
X336801Y344832D01*
X336613Y345113D01*
X336332Y345301D01*
X336000Y345367D01*
D02*
G37*
G36*
X353269Y338850D02*
X352731D01*
X352235Y338645D01*
X351855Y338265D01*
X351650Y337769D01*
Y337376D01*
X348173Y333899D01*
X347762Y333982D01*
X347644Y334265D01*
X347265Y334645D01*
X346768Y334850D01*
X346232D01*
X345735Y334645D01*
X345356Y334265D01*
X345150Y333769D01*
Y333376D01*
X344387Y332613D01*
X344199Y332332D01*
X344133Y332000D01*
Y328743D01*
X344199Y328412D01*
X344263Y328316D01*
Y327370D01*
X344280Y327286D01*
Y322992D01*
X345633D01*
Y319508D01*
X344636D01*
X344350Y319731D01*
X344350Y319829D01*
Y320269D01*
X344145Y320765D01*
X343765Y321145D01*
X343268Y321350D01*
X342827D01*
X342387Y321790D01*
X342106Y321978D01*
X341774Y322044D01*
X341007D01*
Y324767D01*
X334993D01*
Y323461D01*
X331507D01*
Y324815D01*
X325493D01*
Y320374D01*
X327633D01*
Y319271D01*
X327699Y318939D01*
X327728Y318896D01*
X327668Y318751D01*
Y318214D01*
X327756Y318000D01*
X327460Y317801D01*
X321148Y324113D01*
X320867Y324301D01*
X320535Y324367D01*
X315543D01*
X315265Y324644D01*
X314769Y324850D01*
X314231D01*
X313735Y324644D01*
X313355Y324265D01*
X313150Y323768D01*
Y323232D01*
X313355Y322735D01*
X313735Y322356D01*
X314231Y322150D01*
X314769D01*
X315265Y322356D01*
X315543Y322633D01*
X320177D01*
X326923Y315887D01*
X327204Y315699D01*
X327536Y315633D01*
X344280D01*
Y313492D01*
X344633D01*
Y308542D01*
X344356Y308265D01*
X344150Y307769D01*
Y307231D01*
X344237Y307022D01*
X343963Y306767D01*
X343702Y306767D01*
X337993D01*
Y305367D01*
X334507D01*
Y306720D01*
X328492D01*
Y303997D01*
X326694D01*
X326362Y303931D01*
X326081Y303743D01*
X325474Y303136D01*
X324946D01*
X324449Y302930D01*
X324070Y302551D01*
X323864Y302054D01*
Y301517D01*
X324070Y301021D01*
X324449Y300641D01*
X324946Y300436D01*
X325483D01*
X325979Y300641D01*
X326359Y301021D01*
X326564Y301517D01*
Y301775D01*
X327053Y302263D01*
X329343D01*
X329426Y302280D01*
X330343D01*
X330487Y301930D01*
X330356Y301798D01*
X330150Y301302D01*
Y300765D01*
X330356Y300269D01*
X330735Y299889D01*
X331231Y299683D01*
X331768D01*
X332265Y299889D01*
X332645Y300269D01*
X332741Y300502D01*
X333091Y300432D01*
Y300193D01*
X333296Y299697D01*
X333676Y299317D01*
X334173Y299111D01*
X334710D01*
X335206Y299317D01*
X335585Y299697D01*
X335791Y300193D01*
Y300730D01*
X335585Y301226D01*
X335206Y301606D01*
X335116Y301643D01*
Y302538D01*
X335050Y302869D01*
X334862Y303151D01*
X334730Y303283D01*
X334875Y303633D01*
X337993D01*
Y302327D01*
X338353D01*
X338476Y302177D01*
Y300197D01*
X338235Y300097D01*
X337856Y299717D01*
X337650Y299221D01*
Y298684D01*
X337856Y298188D01*
X338235Y297808D01*
X338732Y297603D01*
X339268D01*
X339765Y297808D01*
X340144Y298188D01*
X340350Y298684D01*
Y299221D01*
X340209Y299561D01*
Y301818D01*
X340718Y302327D01*
X341494D01*
X343960Y299862D01*
X343757Y299659D01*
X343552Y299163D01*
Y298626D01*
X343757Y298130D01*
X344137Y297750D01*
X344633Y297545D01*
X345170D01*
X345666Y297750D01*
X346046Y298130D01*
X346252Y298626D01*
Y299163D01*
X346046Y299659D01*
X345768Y299937D01*
Y300146D01*
X345702Y300477D01*
X345514Y300758D01*
X344203Y302069D01*
X344007Y302327D01*
X344007D01*
X344007Y302327D01*
Y306436D01*
X344007Y306438D01*
X344007Y306439D01*
X344007Y306661D01*
X344346Y306733D01*
X344357Y306733D01*
X344397Y306694D01*
X344735Y306356D01*
X345232Y306150D01*
X345768D01*
X346265Y306356D01*
X346644Y306735D01*
X346850Y307231D01*
Y307769D01*
X346644Y308265D01*
X346367Y308542D01*
Y310950D01*
X346690Y311084D01*
X350650Y307124D01*
Y306732D01*
X350855Y306235D01*
X351235Y305855D01*
X351731Y305650D01*
X352269D01*
X352765Y305855D01*
X353145Y306235D01*
X353350Y306732D01*
Y307269D01*
X353145Y307765D01*
X352765Y308144D01*
X352269Y308350D01*
X351876D01*
X347367Y312859D01*
Y313492D01*
X348720D01*
Y319508D01*
X347367D01*
Y322992D01*
X348720D01*
Y327286D01*
X348737Y327370D01*
Y332011D01*
X352876Y336150D01*
X353269D01*
X353765Y336355D01*
X354145Y336735D01*
X354350Y337231D01*
Y337769D01*
X354145Y338265D01*
X353765Y338645D01*
X353269Y338850D01*
D02*
G37*
G36*
X311497Y336122D02*
X310960D01*
X310464Y335916D01*
X310084Y335537D01*
X309878Y335040D01*
Y334503D01*
X310084Y334007D01*
X310464Y333627D01*
X310960Y333422D01*
X311497D01*
X311993Y333627D01*
X312373Y334007D01*
X312578Y334503D01*
Y335040D01*
X312373Y335537D01*
X311993Y335916D01*
X311497Y336122D01*
D02*
G37*
G36*
X421269Y332850D02*
X420731D01*
X420235Y332645D01*
X419855Y332265D01*
X419650Y331768D01*
Y331231D01*
X419855Y330735D01*
X420235Y330356D01*
X420731Y330150D01*
X421269D01*
X421765Y330356D01*
X422145Y330735D01*
X422350Y331231D01*
Y331768D01*
X422145Y332265D01*
X421765Y332645D01*
X421269Y332850D01*
D02*
G37*
G36*
X414268Y332350D02*
X413731D01*
X413235Y332144D01*
X412855Y331765D01*
X412650Y331269D01*
Y330732D01*
X412855Y330235D01*
X413235Y329855D01*
X413731Y329650D01*
X414268D01*
X414765Y329855D01*
X415144Y330235D01*
X415350Y330732D01*
Y331269D01*
X415144Y331765D01*
X414765Y332144D01*
X414268Y332350D01*
D02*
G37*
G36*
X307269D02*
X306732D01*
X306235Y332144D01*
X305855Y331765D01*
X305650Y331269D01*
Y330732D01*
X305855Y330235D01*
X306235Y329855D01*
X306732Y329650D01*
X307269D01*
X307765Y329855D01*
X308144Y330235D01*
X308350Y330732D01*
Y331269D01*
X308144Y331765D01*
X307765Y332144D01*
X307269Y332350D01*
D02*
G37*
G36*
X342000Y333367D02*
X341668Y333301D01*
X341387Y333113D01*
X341353Y333078D01*
X341165Y332797D01*
X341099Y332465D01*
Y331990D01*
X338428Y329319D01*
X338229D01*
X337367Y330182D01*
Y332500D01*
X337301Y332832D01*
X337113Y333113D01*
X336832Y333301D01*
X336500Y333367D01*
X336168Y333301D01*
X335887Y333113D01*
X335699Y332832D01*
X335633Y332500D01*
Y329823D01*
X335699Y329491D01*
X335887Y329210D01*
X337257Y327840D01*
X337538Y327652D01*
X337870Y327586D01*
X338787D01*
X339119Y327652D01*
X339400Y327840D01*
X342578Y331018D01*
X342766Y331299D01*
X342832Y331631D01*
Y332326D01*
X342867Y332500D01*
X342801Y332832D01*
X342613Y333113D01*
X342332Y333301D01*
X342000Y333367D01*
D02*
G37*
G36*
X359500Y334367D02*
X359168Y334301D01*
X358887Y334113D01*
X358699Y333832D01*
X358633Y333500D01*
X358699Y333168D01*
X358705Y333159D01*
X358734Y333016D01*
X358922Y332734D01*
X362466Y329190D01*
X362332Y328867D01*
X359630D01*
X358383Y330113D01*
X358102Y330301D01*
X357771Y330367D01*
X357500D01*
X357168Y330301D01*
X356887Y330113D01*
X356699Y329832D01*
X356633Y329500D01*
X356699Y329168D01*
X356887Y328887D01*
X357168Y328699D01*
X357390Y328655D01*
X358658Y327387D01*
X358939Y327199D01*
X359271Y327133D01*
X362332D01*
X362466Y326810D01*
X361057Y325401D01*
X360035D01*
X359703Y325335D01*
X359422Y325148D01*
X359387Y325113D01*
X359199Y324832D01*
X359133Y324500D01*
X359199Y324168D01*
X359387Y323887D01*
X359668Y323699D01*
X360000Y323633D01*
X360174Y323668D01*
X361417D01*
X361748Y323734D01*
X362029Y323922D01*
X364707Y326600D01*
X364895Y326881D01*
X364961Y327213D01*
Y328787D01*
X364895Y329119D01*
X364707Y329400D01*
X360342Y333766D01*
X360335Y333797D01*
X360148Y334078D01*
X360113Y334113D01*
X359832Y334301D01*
X359500Y334367D01*
D02*
G37*
G36*
X327287Y336036D02*
X326956Y335970D01*
X326675Y335782D01*
X326487Y335501D01*
X326421Y335170D01*
Y334899D01*
X326487Y334567D01*
X326675Y334286D01*
X327633Y333327D01*
Y328500D01*
X327699Y328168D01*
X327887Y327887D01*
X328168Y327699D01*
X328500Y327633D01*
X329287D01*
X329619Y327699D01*
X329900Y327887D01*
X331270Y329257D01*
X331458Y329538D01*
X331524Y329870D01*
Y331249D01*
X332113Y331838D01*
X332301Y332119D01*
X332367Y332451D01*
Y332500D01*
X332301Y332832D01*
X332113Y333113D01*
X331832Y333301D01*
X331500Y333367D01*
X331168Y333301D01*
X330887Y333113D01*
X330788Y332965D01*
X330045Y332221D01*
X329857Y331940D01*
X329791Y331609D01*
Y330465D01*
X329717Y330416D01*
X329367Y330603D01*
Y333686D01*
X329301Y334018D01*
X329113Y334299D01*
X328132Y335280D01*
X328088Y335501D01*
X327900Y335782D01*
X327619Y335970D01*
X327287Y336036D01*
D02*
G37*
G36*
X355000Y332367D02*
X354668Y332301D01*
X354387Y332113D01*
X352887Y330613D01*
X352699Y330332D01*
X352633Y330000D01*
Y327493D01*
X352358Y327273D01*
X351902Y327729D01*
Y330194D01*
X351836Y330526D01*
X351648Y330807D01*
X351345Y331110D01*
X351301Y331332D01*
X351113Y331613D01*
X350832Y331801D01*
X350500Y331867D01*
X350168Y331801D01*
X349887Y331613D01*
X349699Y331332D01*
X349633Y331000D01*
Y330729D01*
X349699Y330398D01*
X349887Y330117D01*
X350169Y329835D01*
Y327370D01*
X350235Y327038D01*
X350423Y326757D01*
X351793Y325387D01*
X352074Y325199D01*
X352406Y325133D01*
X352737Y325199D01*
X353018Y325387D01*
X353018Y325387D01*
X354113Y326482D01*
X354301Y326763D01*
X354367Y327095D01*
Y329641D01*
X355613Y330887D01*
X355801Y331168D01*
X355867Y331500D01*
X355801Y331832D01*
X355613Y332113D01*
X355332Y332301D01*
X355000Y332367D01*
D02*
G37*
G36*
X374768Y335350D02*
X374232D01*
X373735Y335144D01*
X373356Y334765D01*
X373150Y334268D01*
Y333732D01*
X373317Y333330D01*
X370994Y331008D01*
X367780D01*
Y324992D01*
X372220D01*
Y326097D01*
X372543Y326231D01*
X373650Y325124D01*
Y324731D01*
X373855Y324235D01*
X374235Y323855D01*
X374731Y323650D01*
X375269D01*
X375765Y323855D01*
X376145Y324235D01*
X376350Y324731D01*
Y325269D01*
X376145Y325765D01*
X375765Y326145D01*
X375269Y326350D01*
X374876D01*
X374344Y326882D01*
X374426Y327295D01*
X374564Y327387D01*
X374827Y327650D01*
X375269D01*
X375765Y327855D01*
X376145Y328235D01*
X376350Y328731D01*
Y329269D01*
X376145Y329765D01*
X375765Y330145D01*
X375269Y330350D01*
X374731D01*
X374235Y330145D01*
X373855Y329765D01*
X373650Y329269D01*
Y328925D01*
X373592Y328867D01*
X372220D01*
Y329782D01*
X375078Y332640D01*
X375206Y332831D01*
X375265Y332856D01*
X375644Y333235D01*
X375850Y333732D01*
Y334268D01*
X375644Y334765D01*
X375265Y335144D01*
X374768Y335350D01*
D02*
G37*
G36*
X357953Y323367D02*
X357621Y323301D01*
X357340Y323113D01*
X357152Y322832D01*
X357086Y322500D01*
X357152Y322168D01*
X357340Y321887D01*
X357375Y321852D01*
X357656Y321665D01*
X357987Y321599D01*
X359010D01*
X361419Y319190D01*
X361285Y318867D01*
X357002D01*
X356670Y318801D01*
X356389Y318613D01*
X355488Y317711D01*
X355340Y317613D01*
X355152Y317332D01*
X355086Y317000D01*
X355152Y316668D01*
X355340Y316387D01*
X355621Y316199D01*
X355953Y316133D01*
X356002D01*
X356333Y316199D01*
X356615Y316387D01*
X357361Y317133D01*
X361285D01*
X361419Y316810D01*
X359285Y314676D01*
X357140D01*
X356808Y314610D01*
X356527Y314422D01*
X354303Y312197D01*
X354115Y311916D01*
X354049Y311584D01*
X354115Y311253D01*
X354303Y310972D01*
X354584Y310784D01*
X354915Y310718D01*
X355247Y310784D01*
X355528Y310972D01*
X357499Y312943D01*
X358712D01*
X358755Y312884D01*
X358701Y312427D01*
X356942Y310668D01*
X356754Y310387D01*
X356688Y310055D01*
Y307914D01*
X344450Y295675D01*
X342682D01*
X342645Y295765D01*
X342265Y296145D01*
X341769Y296350D01*
X341231D01*
X340735Y296145D01*
X340355Y295765D01*
X340150Y295269D01*
Y294731D01*
X340355Y294235D01*
X340735Y293856D01*
X341231Y293650D01*
X341769D01*
X342265Y293856D01*
X342351Y293942D01*
X344809D01*
X345140Y294008D01*
X345422Y294196D01*
X358168Y306942D01*
X358356Y307224D01*
X358422Y307555D01*
Y309696D01*
X359673Y310948D01*
X363210D01*
X363541Y311014D01*
X363823Y311202D01*
X366817Y314196D01*
X367005Y314478D01*
X367071Y314809D01*
Y314893D01*
X367154Y314976D01*
X367583D01*
X367666Y314992D01*
X371173D01*
Y315633D01*
X371910D01*
X372188Y315355D01*
X372684Y315150D01*
X373221D01*
X373717Y315355D01*
X374097Y315735D01*
X374303Y316231D01*
Y316769D01*
X374097Y317265D01*
X373717Y317645D01*
X373221Y317850D01*
X372684D01*
X372188Y317645D01*
X371910Y317367D01*
X371173D01*
Y319286D01*
X371174Y319291D01*
X372887D01*
X373218Y319357D01*
X373500Y319545D01*
X373642Y319687D01*
X373731Y319650D01*
X374269D01*
X374765Y319855D01*
X375145Y320235D01*
X375350Y320731D01*
Y321269D01*
X375145Y321765D01*
X374765Y322145D01*
X374269Y322350D01*
X373731D01*
X373235Y322145D01*
X372855Y321765D01*
X372650Y321269D01*
Y321146D01*
X372528Y321024D01*
X370323D01*
X370239Y321007D01*
X366733D01*
Y316697D01*
X366464Y316643D01*
X366182Y316455D01*
X365592Y315865D01*
X365404Y315584D01*
X365338Y315252D01*
Y315168D01*
X362851Y312681D01*
X360246D01*
X360203Y312740D01*
X360257Y313196D01*
X363660Y316600D01*
X363848Y316881D01*
X363914Y317213D01*
Y318787D01*
X363848Y319119D01*
X363660Y319400D01*
X359982Y323078D01*
X359701Y323266D01*
X359369Y323332D01*
X358127D01*
X357953Y323367D01*
D02*
G37*
G36*
X353300Y322026D02*
X352968Y321960D01*
X352687Y321773D01*
X352499Y321491D01*
X352433Y321160D01*
Y319250D01*
X352110Y319116D01*
X350113Y321113D01*
X349832Y321301D01*
X349500Y321367D01*
X349168Y321301D01*
X348887Y321113D01*
X348699Y320832D01*
X348633Y320500D01*
X348699Y320168D01*
X348887Y319887D01*
X351539Y317235D01*
Y316500D01*
X351605Y316168D01*
X351793Y315887D01*
X352074Y315699D01*
X352406Y315633D01*
X352737Y315699D01*
X353018Y315887D01*
X353913Y316781D01*
X354100Y317063D01*
X354166Y317394D01*
Y321160D01*
X354100Y321491D01*
X353913Y321773D01*
X353631Y321960D01*
X353300Y322026D01*
D02*
G37*
G36*
X342500Y314867D02*
X342168Y314801D01*
X341887Y314613D01*
X341699Y314332D01*
X341633Y314000D01*
Y312182D01*
X340878Y311426D01*
X340465D01*
X337895Y313996D01*
X337835Y314297D01*
X337648Y314578D01*
X337613Y314613D01*
X337332Y314801D01*
X337000Y314867D01*
X336668Y314801D01*
X336387Y314613D01*
X336199Y314332D01*
X336133Y314000D01*
X336168Y313826D01*
Y313631D01*
X336234Y313299D01*
X336422Y313018D01*
X339600Y309840D01*
X339881Y309652D01*
X340213Y309586D01*
X341130D01*
X341462Y309652D01*
X341743Y309840D01*
X343113Y311210D01*
X343301Y311491D01*
X343367Y311823D01*
Y314000D01*
X343301Y314332D01*
X343113Y314613D01*
X342832Y314801D01*
X342500Y314867D01*
D02*
G37*
G36*
X326000Y315367D02*
X325668Y315301D01*
X325387Y315113D01*
X325199Y314832D01*
X325133Y314500D01*
X325199Y314168D01*
X325387Y313887D01*
X325422Y313853D01*
X325703Y313665D01*
X326035Y313599D01*
X326294D01*
X330100Y309793D01*
X330381Y309605D01*
X330713Y309539D01*
X331630D01*
X331962Y309605D01*
X332243Y309793D01*
X333613Y311163D01*
X333801Y311444D01*
X333867Y311776D01*
Y314000D01*
X333801Y314332D01*
X333613Y314613D01*
X333332Y314801D01*
X333000Y314867D01*
X332668Y314801D01*
X332387Y314613D01*
X332199Y314332D01*
X332133Y314000D01*
Y312135D01*
X331378Y311379D01*
X330965D01*
X327266Y315078D01*
X326984Y315266D01*
X326653Y315332D01*
X326174D01*
X326000Y315367D01*
D02*
G37*
G36*
X365500Y310867D02*
X365168Y310801D01*
X364887Y310613D01*
X362190Y307916D01*
X361867Y308050D01*
Y309000D01*
X361801Y309332D01*
X361613Y309613D01*
X361332Y309801D01*
X361000Y309867D01*
X360668Y309801D01*
X360387Y309613D01*
X360199Y309332D01*
X360133Y309000D01*
Y305906D01*
X360199Y305574D01*
X360387Y305293D01*
X360887Y304793D01*
X361168Y304605D01*
X361500Y304539D01*
X361832Y304605D01*
X362113Y304793D01*
X362301Y305074D01*
X362367Y305405D01*
Y305641D01*
X366113Y309387D01*
X366301Y309668D01*
X366367Y310000D01*
X366301Y310332D01*
X366113Y310613D01*
X365832Y310801D01*
X365500Y310867D01*
D02*
G37*
G36*
X370500Y312867D02*
X370168Y312801D01*
X369887Y312613D01*
X369699Y312332D01*
X369633Y312000D01*
Y311951D01*
X369699Y311619D01*
X369887Y311338D01*
X370133Y311092D01*
Y305453D01*
X370199Y305121D01*
X370387Y304840D01*
X370668Y304652D01*
X371000Y304586D01*
X371332Y304652D01*
X371613Y304840D01*
X375648Y308875D01*
X375836Y309156D01*
X375902Y309488D01*
Y309508D01*
X375836Y309839D01*
X375648Y310120D01*
X375367Y310308D01*
X375035Y310374D01*
X374704Y310308D01*
X374422Y310120D01*
X374383Y310061D01*
X372190Y307868D01*
X371867Y308002D01*
Y311451D01*
X371801Y311783D01*
X371613Y312064D01*
X371212Y312465D01*
X371113Y312613D01*
X370832Y312801D01*
X370500Y312867D01*
D02*
G37*
G36*
X376269Y302850D02*
X375731D01*
X375235Y302644D01*
X374855Y302265D01*
X374656Y301784D01*
X373158D01*
X373074Y301767D01*
X367992D01*
Y300374D01*
X367860Y300348D01*
X367579Y300160D01*
X365907Y298488D01*
X365514D01*
X365018Y298283D01*
X364858Y298123D01*
X364508Y298268D01*
Y301720D01*
X358492D01*
Y297280D01*
X360633D01*
Y295549D01*
X360699Y295217D01*
X360887Y294936D01*
X361150Y294673D01*
Y294232D01*
X361355Y293735D01*
X361735Y293355D01*
X362231Y293150D01*
X362769D01*
X363265Y293355D01*
X363645Y293735D01*
X363850Y294232D01*
Y294769D01*
X363645Y295265D01*
X363265Y295644D01*
X362769Y295850D01*
X362425D01*
X362367Y295908D01*
Y297280D01*
X364358D01*
Y297280D01*
X364432Y296951D01*
Y296870D01*
X364638Y296374D01*
X365018Y295994D01*
X365514Y295788D01*
X366051D01*
X366547Y295994D01*
X366927Y296374D01*
X367132Y296870D01*
Y297263D01*
X367669Y297799D01*
X367992Y297666D01*
Y297327D01*
X372782D01*
X373352Y296757D01*
X373150Y296269D01*
Y295731D01*
X373356Y295235D01*
X373735Y294855D01*
X374232Y294650D01*
X374768D01*
X375265Y294855D01*
X375644Y295235D01*
X375850Y295731D01*
Y296269D01*
X375644Y296765D01*
X375265Y297145D01*
X375142Y297196D01*
X375109Y297358D01*
X374921Y297639D01*
X374008Y298553D01*
Y300051D01*
X375147D01*
X375478Y300117D01*
X375606Y300202D01*
X375731Y300150D01*
X376269D01*
X376765Y300356D01*
X377145Y300735D01*
X377350Y301232D01*
Y301768D01*
X377145Y302265D01*
X376765Y302644D01*
X376269Y302850D01*
D02*
G37*
G36*
X310268Y317850D02*
X309732D01*
X309235Y317645D01*
X308856Y317265D01*
X308650Y316769D01*
Y316376D01*
X303387Y311113D01*
X303199Y310832D01*
X303133Y310500D01*
Y294042D01*
X302855Y293765D01*
X302650Y293268D01*
Y292731D01*
X302855Y292235D01*
X303235Y291856D01*
X303731Y291650D01*
X304269D01*
X304765Y291856D01*
X305145Y292235D01*
X305350Y292731D01*
Y293268D01*
X305145Y293765D01*
X304867Y294042D01*
Y310141D01*
X309876Y315150D01*
X310268D01*
X310765Y315355D01*
X311144Y315735D01*
X311350Y316231D01*
Y316769D01*
X311144Y317265D01*
X310765Y317645D01*
X310268Y317850D01*
D02*
G37*
G36*
X221962Y291009D02*
X221038D01*
X220145Y290770D01*
X219345Y290308D01*
X218692Y289655D01*
X218230Y288855D01*
X217990Y287962D01*
Y287038D01*
X218230Y286145D01*
X218692Y285345D01*
X219345Y284692D01*
X220145Y284230D01*
X221038Y283991D01*
X221962D01*
X222855Y284230D01*
X223655Y284692D01*
X224308Y285345D01*
X224770Y286145D01*
X225009Y287038D01*
Y287962D01*
X224770Y288855D01*
X224308Y289655D01*
X223655Y290308D01*
X222855Y290770D01*
X221962Y291009D01*
D02*
G37*
G36*
X220013Y366893D02*
X218987D01*
X217997Y366628D01*
X217109Y366115D01*
X216385Y365390D01*
X215872Y364503D01*
X215607Y363513D01*
Y362487D01*
X215872Y361497D01*
X216385Y360610D01*
X217109Y359885D01*
X217997Y359372D01*
X218633Y359202D01*
Y355000D01*
X218699Y354668D01*
X218887Y354387D01*
X295887Y277387D01*
X296168Y277199D01*
X296500Y277133D01*
X364500D01*
X364832Y277199D01*
X365113Y277387D01*
X365876Y278150D01*
X366268D01*
X366765Y278356D01*
X367144Y278735D01*
X367350Y279232D01*
Y279768D01*
X367144Y280265D01*
X366765Y280644D01*
X366429Y280783D01*
X366499Y281133D01*
X368500D01*
X368832Y281199D01*
X369113Y281387D01*
X392613Y304887D01*
X392801Y305168D01*
X392867Y305500D01*
Y330958D01*
X393144Y331235D01*
X393350Y331732D01*
Y332269D01*
X393144Y332765D01*
X392765Y333144D01*
X392268Y333350D01*
X391732D01*
X391235Y333144D01*
X390856Y332765D01*
X390650Y332269D01*
Y331732D01*
X390856Y331235D01*
X391133Y330958D01*
Y305859D01*
X368141Y282867D01*
X307043D01*
X306765Y283144D01*
X306269Y283350D01*
X305732D01*
X305235Y283144D01*
X304855Y282765D01*
X304650Y282269D01*
Y281732D01*
X304855Y281235D01*
X305235Y280855D01*
X305732Y280650D01*
X306269D01*
X306765Y280855D01*
X307043Y281133D01*
X365501D01*
X365571Y280783D01*
X365235Y280644D01*
X364856Y280265D01*
X364650Y279768D01*
Y279376D01*
X364141Y278867D01*
X296859D01*
X220367Y355359D01*
Y359202D01*
X221003Y359372D01*
X221890Y359885D01*
X222615Y360610D01*
X223128Y361497D01*
X223393Y362487D01*
Y363513D01*
X223128Y364503D01*
X222615Y365390D01*
X221890Y366115D01*
X221003Y366628D01*
X220013Y366893D01*
D02*
G37*
G36*
X221962Y281010D02*
X221038D01*
X220145Y280770D01*
X219345Y280308D01*
X218692Y279655D01*
X218230Y278855D01*
X217990Y277962D01*
Y277038D01*
X218230Y276145D01*
X218692Y275345D01*
X219345Y274692D01*
X220145Y274230D01*
X221038Y273991D01*
X221962D01*
X222855Y274230D01*
X223655Y274692D01*
X224308Y275345D01*
X224770Y276145D01*
X225009Y277038D01*
Y277962D01*
X224770Y278855D01*
X224308Y279655D01*
X223655Y280308D01*
X222855Y280770D01*
X221962Y281010D01*
D02*
G37*
G36*
Y271009D02*
X221038D01*
X220145Y270770D01*
X219345Y270308D01*
X218692Y269655D01*
X218230Y268855D01*
X217990Y267962D01*
Y267038D01*
X218230Y266145D01*
X218692Y265345D01*
X219345Y264692D01*
X220145Y264230D01*
X221038Y263990D01*
X221962D01*
X222855Y264230D01*
X223655Y264692D01*
X224308Y265345D01*
X224770Y266145D01*
X225009Y267038D01*
Y267962D01*
X224770Y268855D01*
X224308Y269655D01*
X223655Y270308D01*
X222855Y270770D01*
X221962Y271009D01*
D02*
G37*
G36*
X369450Y266450D02*
X362550D01*
Y259550D01*
X369450D01*
Y266450D01*
D02*
G37*
G36*
X299269Y258350D02*
X298731D01*
X298235Y258144D01*
X297855Y257765D01*
X297650Y257269D01*
Y256732D01*
X297855Y256235D01*
X298235Y255855D01*
X298731Y255650D01*
X299269D01*
X299765Y255855D01*
X300145Y256235D01*
X300350Y256732D01*
Y257269D01*
X300145Y257765D01*
X299765Y258144D01*
X299269Y258350D01*
D02*
G37*
G36*
X221962Y261010D02*
X221038D01*
X220145Y260770D01*
X219345Y260308D01*
X218692Y259655D01*
X218230Y258855D01*
X217990Y257962D01*
Y257038D01*
X218230Y256145D01*
X218692Y255345D01*
X219345Y254692D01*
X220145Y254230D01*
X221038Y253991D01*
X221962D01*
X222855Y254230D01*
X223655Y254692D01*
X224308Y255345D01*
X224770Y256145D01*
X225009Y257038D01*
Y257962D01*
X224770Y258855D01*
X224308Y259655D01*
X223655Y260308D01*
X222855Y260770D01*
X221962Y261010D01*
D02*
G37*
G36*
X366454Y256450D02*
X365546D01*
X364668Y256215D01*
X363881Y255761D01*
X363239Y255119D01*
X362785Y254332D01*
X362550Y253454D01*
Y252546D01*
X362785Y251668D01*
X363239Y250881D01*
X363881Y250239D01*
X364668Y249785D01*
X365546Y249550D01*
X366454D01*
X367332Y249785D01*
X368119Y250239D01*
X368761Y250881D01*
X369215Y251668D01*
X369450Y252546D01*
Y253454D01*
X369215Y254332D01*
X368761Y255119D01*
X368119Y255761D01*
X367332Y256215D01*
X366454Y256450D01*
D02*
G37*
G36*
X299054Y248791D02*
X298517D01*
X298021Y248585D01*
X297641Y248205D01*
X297436Y247709D01*
Y247172D01*
X297641Y246676D01*
X298021Y246296D01*
X298517Y246091D01*
X299054D01*
X299551Y246296D01*
X299930Y246676D01*
X300136Y247172D01*
Y247709D01*
X299930Y248205D01*
X299551Y248585D01*
X299054Y248791D01*
D02*
G37*
G36*
X423013Y251893D02*
X421987D01*
X420997Y251628D01*
X420110Y251115D01*
X419385Y250391D01*
X418872Y249503D01*
X418607Y248513D01*
Y247487D01*
X418872Y246497D01*
X419385Y245609D01*
X420110Y244885D01*
X420997Y244372D01*
X421987Y244107D01*
X423013D01*
X424003Y244372D01*
X424891Y244885D01*
X425615Y245609D01*
X426128Y246497D01*
X426393Y247487D01*
Y248513D01*
X426128Y249503D01*
X425615Y250391D01*
X424891Y251115D01*
X424003Y251628D01*
X423013Y251893D01*
D02*
G37*
G36*
X221962Y251009D02*
X221038D01*
X220145Y250770D01*
X219345Y250308D01*
X218692Y249655D01*
X218230Y248855D01*
X217990Y247962D01*
Y247038D01*
X218230Y246145D01*
X218692Y245345D01*
X219345Y244692D01*
X220145Y244230D01*
X221038Y243990D01*
X221962D01*
X222855Y244230D01*
X223655Y244692D01*
X224308Y245345D01*
X224770Y246145D01*
X225009Y247038D01*
Y247962D01*
X224770Y248855D01*
X224308Y249655D01*
X223655Y250308D01*
X222855Y250770D01*
X221962Y251009D01*
D02*
G37*
G36*
X366454Y246450D02*
X365546D01*
X364668Y246215D01*
X363881Y245761D01*
X363239Y245119D01*
X362785Y244332D01*
X362550Y243454D01*
Y242546D01*
X362785Y241668D01*
X363239Y240881D01*
X363881Y240239D01*
X364668Y239785D01*
X365546Y239550D01*
X366454D01*
X367332Y239785D01*
X368119Y240239D01*
X368761Y240881D01*
X369215Y241668D01*
X369450Y242546D01*
Y243454D01*
X369215Y244332D01*
X368761Y245119D01*
X368119Y245761D01*
X367332Y246215D01*
X366454Y246450D01*
D02*
G37*
G36*
X299269Y240850D02*
X298731D01*
X298235Y240645D01*
X297855Y240265D01*
X297650Y239769D01*
Y239231D01*
X297855Y238735D01*
X298235Y238355D01*
X298731Y238150D01*
X299269D01*
X299765Y238355D01*
X300145Y238735D01*
X300350Y239231D01*
Y239769D01*
X300145Y240265D01*
X299765Y240645D01*
X299269Y240850D01*
D02*
G37*
G36*
X423013Y241893D02*
X421987D01*
X420997Y241628D01*
X420110Y241115D01*
X419385Y240390D01*
X418872Y239503D01*
X418607Y238513D01*
Y237487D01*
X418872Y236497D01*
X419385Y235610D01*
X420110Y234885D01*
X420997Y234372D01*
X421987Y234107D01*
X423013D01*
X424003Y234372D01*
X424891Y234885D01*
X425615Y235610D01*
X426128Y236497D01*
X426393Y237487D01*
Y238513D01*
X426128Y239503D01*
X425615Y240390D01*
X424891Y241115D01*
X424003Y241628D01*
X423013Y241893D01*
D02*
G37*
G36*
Y231893D02*
X421987D01*
X420997Y231628D01*
X420110Y231115D01*
X419385Y230391D01*
X418872Y229503D01*
X418607Y228513D01*
Y227487D01*
X418872Y226497D01*
X419385Y225609D01*
X420110Y224885D01*
X420997Y224372D01*
X421987Y224107D01*
X423013D01*
X424003Y224372D01*
X424891Y224885D01*
X425615Y225609D01*
X426128Y226497D01*
X426393Y227487D01*
Y228513D01*
X426128Y229503D01*
X425615Y230391D01*
X424891Y231115D01*
X424003Y231628D01*
X423013Y231893D01*
D02*
G37*
G36*
X282769Y222850D02*
X282231D01*
X281735Y222644D01*
X281356Y222265D01*
X281150Y221768D01*
Y221232D01*
X281356Y220735D01*
X281735Y220356D01*
X282231Y220150D01*
X282769D01*
X283265Y220356D01*
X283645Y220735D01*
X283850Y221232D01*
Y221768D01*
X283645Y222265D01*
X283265Y222644D01*
X282769Y222850D01*
D02*
G37*
G36*
X275269D02*
X274731D01*
X274235Y222644D01*
X273855Y222265D01*
X273650Y221768D01*
Y221232D01*
X273855Y220735D01*
X274235Y220356D01*
X274731Y220150D01*
X275269D01*
X275765Y220356D01*
X276145Y220735D01*
X276350Y221232D01*
Y221768D01*
X276145Y222265D01*
X275765Y222644D01*
X275269Y222850D01*
D02*
G37*
G36*
X265769D02*
X265231D01*
X264735Y222644D01*
X264355Y222265D01*
X264150Y221768D01*
Y221232D01*
X264355Y220735D01*
X264735Y220356D01*
X265231Y220150D01*
X265769D01*
X266265Y220356D01*
X266645Y220735D01*
X266850Y221232D01*
Y221768D01*
X266645Y222265D01*
X266265Y222644D01*
X265769Y222850D01*
D02*
G37*
G36*
X256768Y220850D02*
X256231D01*
X255735Y220644D01*
X255356Y220265D01*
X255150Y219769D01*
Y219232D01*
X255356Y218735D01*
X255735Y218355D01*
X256231Y218150D01*
X256768D01*
X257265Y218355D01*
X257645Y218735D01*
X257850Y219232D01*
Y219769D01*
X257645Y220265D01*
X257265Y220644D01*
X256768Y220850D01*
D02*
G37*
G36*
X246768D02*
X246232D01*
X245735Y220644D01*
X245356Y220265D01*
X245150Y219769D01*
Y219232D01*
X245356Y218735D01*
X245735Y218355D01*
X246232Y218150D01*
X246768D01*
X247265Y218355D01*
X247644Y218735D01*
X247850Y219232D01*
Y219769D01*
X247644Y220265D01*
X247265Y220644D01*
X246768Y220850D01*
D02*
G37*
G36*
X236769Y220350D02*
X236231D01*
X235735Y220145D01*
X235355Y219765D01*
X235150Y219268D01*
Y218731D01*
X235355Y218235D01*
X235735Y217856D01*
X236231Y217650D01*
X236769D01*
X237265Y217856D01*
X237645Y218235D01*
X237850Y218731D01*
Y219268D01*
X237645Y219765D01*
X237265Y220145D01*
X236769Y220350D01*
D02*
G37*
G36*
X350768Y218850D02*
X350232D01*
X349735Y218644D01*
X349356Y218265D01*
X349150Y217769D01*
Y217231D01*
X349356Y216735D01*
X349735Y216355D01*
X350232Y216150D01*
X350768D01*
X351265Y216355D01*
X351644Y216735D01*
X351850Y217231D01*
Y217769D01*
X351644Y218265D01*
X351265Y218644D01*
X350768Y218850D01*
D02*
G37*
G36*
X341268D02*
X340732D01*
X340235Y218644D01*
X339856Y218265D01*
X339650Y217769D01*
Y217231D01*
X339856Y216735D01*
X340235Y216355D01*
X340732Y216150D01*
X341268D01*
X341765Y216355D01*
X342144Y216735D01*
X342350Y217231D01*
Y217769D01*
X342144Y218265D01*
X341765Y218644D01*
X341268Y218850D01*
D02*
G37*
G36*
X332269Y218350D02*
X331732D01*
X331235Y218144D01*
X330855Y217765D01*
X330650Y217268D01*
Y216732D01*
X330855Y216235D01*
X331235Y215856D01*
X331732Y215650D01*
X332269D01*
X332765Y215856D01*
X333144Y216235D01*
X333350Y216732D01*
Y217268D01*
X333144Y217765D01*
X332765Y218144D01*
X332269Y218350D01*
D02*
G37*
G36*
X302768Y217350D02*
X302232D01*
X301735Y217144D01*
X301356Y216765D01*
X301150Y216268D01*
Y215732D01*
X301356Y215235D01*
X301735Y214856D01*
X302232Y214650D01*
X302768D01*
X303265Y214856D01*
X303644Y215235D01*
X303850Y215732D01*
Y216268D01*
X303644Y216765D01*
X303265Y217144D01*
X302768Y217350D01*
D02*
G37*
G36*
X318769Y216850D02*
X318232D01*
X317735Y216645D01*
X317355Y216265D01*
X317150Y215769D01*
Y215231D01*
X317355Y214735D01*
X317735Y214355D01*
X318232Y214150D01*
X318769D01*
X319265Y214355D01*
X319644Y214735D01*
X319850Y215231D01*
Y215769D01*
X319644Y216265D01*
X319265Y216645D01*
X318769Y216850D01*
D02*
G37*
G36*
X310268D02*
X309732D01*
X309235Y216645D01*
X308856Y216265D01*
X308650Y215769D01*
Y215231D01*
X308856Y214735D01*
X309235Y214355D01*
X309732Y214150D01*
X310268D01*
X310765Y214355D01*
X311144Y214735D01*
X311350Y215231D01*
Y215769D01*
X311144Y216265D01*
X310765Y216645D01*
X310268Y216850D01*
D02*
G37*
G36*
X423013Y221893D02*
X421987D01*
X420997Y221628D01*
X420110Y221115D01*
X419385Y220391D01*
X418872Y219503D01*
X418607Y218513D01*
Y217487D01*
X418872Y216497D01*
X419385Y215610D01*
X420110Y214885D01*
X420997Y214372D01*
X421987Y214107D01*
X423013D01*
X424003Y214372D01*
X424891Y214885D01*
X425615Y215610D01*
X426128Y216497D01*
X426393Y217487D01*
Y218513D01*
X426128Y219503D01*
X425615Y220391D01*
X424891Y221115D01*
X424003Y221628D01*
X423013Y221893D01*
D02*
G37*
G36*
X374768Y214350D02*
X374232D01*
X373735Y214144D01*
X373356Y213765D01*
X373150Y213268D01*
Y212732D01*
X373356Y212235D01*
X373735Y211856D01*
X374232Y211650D01*
X374768D01*
X375265Y211856D01*
X375644Y212235D01*
X375850Y212732D01*
Y213268D01*
X375644Y213765D01*
X375265Y214144D01*
X374768Y214350D01*
D02*
G37*
G36*
X363769Y213850D02*
X363231D01*
X362735Y213645D01*
X362355Y213265D01*
X362150Y212769D01*
Y212231D01*
X362355Y211735D01*
X362735Y211355D01*
X363231Y211150D01*
X363769D01*
X364265Y211355D01*
X364645Y211735D01*
X364850Y212231D01*
Y212769D01*
X364645Y213265D01*
X364265Y213645D01*
X363769Y213850D01*
D02*
G37*
G36*
X385769Y278850D02*
X385231D01*
X384735Y278644D01*
X384355Y278265D01*
X384150Y277768D01*
Y277232D01*
X384355Y276735D01*
X384735Y276356D01*
X385133Y276191D01*
Y211042D01*
X384856Y210765D01*
X384650Y210268D01*
Y209732D01*
X384856Y209235D01*
X385235Y208856D01*
X385732Y208650D01*
X386268D01*
X386765Y208856D01*
X387144Y209235D01*
X387350Y209732D01*
Y210268D01*
X387144Y210765D01*
X386867Y211042D01*
Y276951D01*
X386824Y277168D01*
X386850Y277232D01*
Y277768D01*
X386645Y278265D01*
X386265Y278644D01*
X385769Y278850D01*
D02*
G37*
G36*
X245768Y210850D02*
X245232D01*
X244735Y210645D01*
X244356Y210265D01*
X244150Y209769D01*
Y209231D01*
X244356Y208735D01*
X244735Y208355D01*
X245232Y208150D01*
X245768D01*
X246265Y208355D01*
X246644Y208735D01*
X246850Y209231D01*
Y209769D01*
X246644Y210265D01*
X246265Y210645D01*
X245768Y210850D01*
D02*
G37*
G36*
X236769D02*
X236231D01*
X235735Y210645D01*
X235355Y210265D01*
X235150Y209769D01*
Y209231D01*
X235355Y208735D01*
X235735Y208355D01*
X236231Y208150D01*
X236769D01*
X237265Y208355D01*
X237645Y208735D01*
X237850Y209231D01*
Y209769D01*
X237645Y210265D01*
X237265Y210645D01*
X236769Y210850D01*
D02*
G37*
G36*
X254269Y210350D02*
X253731D01*
X253235Y210144D01*
X252855Y209765D01*
X252650Y209268D01*
Y208732D01*
X252855Y208235D01*
X253235Y207856D01*
X253731Y207650D01*
X254269D01*
X254765Y207856D01*
X255145Y208235D01*
X255350Y208732D01*
Y209268D01*
X255145Y209765D01*
X254765Y210144D01*
X254269Y210350D01*
D02*
G37*
G36*
X224950Y214450D02*
X218050D01*
Y207550D01*
X224950D01*
Y214450D01*
D02*
G37*
G36*
X390268Y282350D02*
X389732D01*
X389235Y282144D01*
X388856Y281765D01*
X388650Y281269D01*
Y280732D01*
X388856Y280235D01*
X389133Y279958D01*
Y211500D01*
X389199Y211168D01*
X389387Y210887D01*
X392650Y207624D01*
Y207231D01*
X392856Y206735D01*
X393235Y206356D01*
X393731Y206150D01*
X394268D01*
X394765Y206356D01*
X395145Y206735D01*
X395350Y207231D01*
Y207769D01*
X395145Y208265D01*
X394765Y208645D01*
X394268Y208850D01*
X393876D01*
X390867Y211859D01*
Y279958D01*
X391144Y280235D01*
X391350Y280732D01*
Y281269D01*
X391144Y281765D01*
X390765Y282144D01*
X390268Y282350D01*
D02*
G37*
G36*
X318268Y207350D02*
X317731D01*
X317235Y207144D01*
X316856Y206765D01*
X316650Y206269D01*
Y205732D01*
X316856Y205235D01*
X317235Y204855D01*
X317731Y204650D01*
X318268D01*
X318765Y204855D01*
X319145Y205235D01*
X319350Y205732D01*
Y206269D01*
X319145Y206765D01*
X318765Y207144D01*
X318268Y207350D01*
D02*
G37*
G36*
X309769D02*
X309231D01*
X308735Y207144D01*
X308355Y206765D01*
X308150Y206269D01*
Y205732D01*
X308355Y205235D01*
X308735Y204855D01*
X309231Y204650D01*
X309769D01*
X310265Y204855D01*
X310645Y205235D01*
X310850Y205732D01*
Y206269D01*
X310645Y206765D01*
X310265Y207144D01*
X309769Y207350D01*
D02*
G37*
G36*
X301768D02*
X301232D01*
X300735Y207144D01*
X300356Y206765D01*
X300150Y206269D01*
Y205732D01*
X300356Y205235D01*
X300735Y204855D01*
X301232Y204650D01*
X301768D01*
X302265Y204855D01*
X302644Y205235D01*
X302850Y205732D01*
Y206269D01*
X302644Y206765D01*
X302265Y207144D01*
X301768Y207350D01*
D02*
G37*
G36*
X423013Y211893D02*
X421987D01*
X420997Y211628D01*
X420110Y211115D01*
X419385Y210390D01*
X418872Y209503D01*
X418607Y208513D01*
Y207487D01*
X418872Y206497D01*
X419385Y205609D01*
X420110Y204885D01*
X420997Y204372D01*
X421987Y204107D01*
X423013D01*
X424003Y204372D01*
X424891Y204885D01*
X425615Y205609D01*
X426128Y206497D01*
X426393Y207487D01*
Y208513D01*
X426128Y209503D01*
X425615Y210390D01*
X424891Y211115D01*
X424003Y211628D01*
X423013Y211893D01*
D02*
G37*
G36*
X244268Y201350D02*
X243731D01*
X243235Y201145D01*
X242856Y200765D01*
X242650Y200269D01*
Y199732D01*
X242856Y199235D01*
X243235Y198855D01*
X243731Y198650D01*
X244268D01*
X244765Y198855D01*
X245145Y199235D01*
X245350Y199732D01*
Y200269D01*
X245145Y200765D01*
X244765Y201145D01*
X244268Y201350D01*
D02*
G37*
G36*
X236769D02*
X236231D01*
X235735Y201145D01*
X235355Y200765D01*
X235150Y200269D01*
Y199732D01*
X235355Y199235D01*
X235735Y198855D01*
X236231Y198650D01*
X236769D01*
X237265Y198855D01*
X237645Y199235D01*
X237850Y199732D01*
Y200269D01*
X237645Y200765D01*
X237265Y201145D01*
X236769Y201350D01*
D02*
G37*
G36*
X371269Y200850D02*
X370731D01*
X370235Y200644D01*
X369855Y200265D01*
X369650Y199768D01*
Y199232D01*
X369855Y198735D01*
X370235Y198355D01*
X370731Y198150D01*
X371269D01*
X371765Y198355D01*
X372145Y198735D01*
X372350Y199232D01*
Y199768D01*
X372145Y200265D01*
X371765Y200644D01*
X371269Y200850D01*
D02*
G37*
G36*
X252768D02*
X252232D01*
X251735Y200644D01*
X251356Y200265D01*
X251150Y199768D01*
Y199232D01*
X251356Y198735D01*
X251735Y198355D01*
X252232Y198150D01*
X252768D01*
X253265Y198355D01*
X253644Y198735D01*
X253850Y199232D01*
Y199768D01*
X253644Y200265D01*
X253265Y200644D01*
X252768Y200850D01*
D02*
G37*
G36*
X318268Y199850D02*
X317731D01*
X317235Y199644D01*
X316856Y199265D01*
X316650Y198768D01*
Y198231D01*
X316856Y197735D01*
X317235Y197355D01*
X317731Y197150D01*
X318268D01*
X318765Y197355D01*
X319145Y197735D01*
X319350Y198231D01*
Y198768D01*
X319145Y199265D01*
X318765Y199644D01*
X318268Y199850D01*
D02*
G37*
G36*
X309769D02*
X309231D01*
X308735Y199644D01*
X308355Y199265D01*
X308150Y198768D01*
Y198231D01*
X308355Y197735D01*
X308735Y197355D01*
X309231Y197150D01*
X309769D01*
X310265Y197355D01*
X310645Y197735D01*
X310850Y198231D01*
Y198768D01*
X310645Y199265D01*
X310265Y199644D01*
X309769Y199850D01*
D02*
G37*
G36*
X301768D02*
X301232D01*
X300735Y199644D01*
X300356Y199265D01*
X300150Y198768D01*
Y198231D01*
X300356Y197735D01*
X300735Y197355D01*
X301232Y197150D01*
X301768D01*
X302265Y197355D01*
X302644Y197735D01*
X302850Y198231D01*
Y198768D01*
X302644Y199265D01*
X302265Y199644D01*
X301768Y199850D01*
D02*
G37*
G36*
X423013Y201893D02*
X421987D01*
X420997Y201628D01*
X420110Y201115D01*
X419385Y200391D01*
X418872Y199503D01*
X418607Y198513D01*
Y197487D01*
X418872Y196497D01*
X419385Y195609D01*
X420110Y194885D01*
X420997Y194372D01*
X421987Y194107D01*
X423013D01*
X424003Y194372D01*
X424891Y194885D01*
X425615Y195609D01*
X426128Y196497D01*
X426393Y197487D01*
Y198513D01*
X426128Y199503D01*
X425615Y200391D01*
X424891Y201115D01*
X424003Y201628D01*
X423013Y201893D01*
D02*
G37*
G36*
Y191893D02*
X421987D01*
X420997Y191628D01*
X420110Y191115D01*
X419385Y190391D01*
X418872Y189503D01*
X418607Y188513D01*
Y187487D01*
X418872Y186497D01*
X419385Y185609D01*
X420110Y184885D01*
X420997Y184372D01*
X421987Y184107D01*
X423013D01*
X424003Y184372D01*
X424891Y184885D01*
X425615Y185609D01*
X426128Y186497D01*
X426393Y187487D01*
Y188513D01*
X426128Y189503D01*
X425615Y190391D01*
X424891Y191115D01*
X424003Y191628D01*
X423013Y191893D01*
D02*
G37*
G36*
X224950Y188450D02*
X218050D01*
Y181550D01*
X224950D01*
Y188450D01*
D02*
G37*
G36*
X387769Y177350D02*
X387231D01*
X386735Y177145D01*
X386355Y176765D01*
X386150Y176268D01*
Y175732D01*
X386355Y175235D01*
X386735Y174855D01*
X387231Y174650D01*
X387769D01*
X388265Y174855D01*
X388645Y175235D01*
X388850Y175732D01*
Y176268D01*
X388645Y176765D01*
X388265Y177145D01*
X387769Y177350D01*
D02*
G37*
G36*
X423013Y181893D02*
X421987D01*
X420997Y181628D01*
X420110Y181115D01*
X419385Y180391D01*
X418872Y179503D01*
X418607Y178513D01*
Y177487D01*
X418872Y176497D01*
X419385Y175609D01*
X420110Y174885D01*
X420997Y174372D01*
X421987Y174107D01*
X423013D01*
X424003Y174372D01*
X424891Y174885D01*
X425615Y175609D01*
X426128Y176497D01*
X426393Y177487D01*
Y178513D01*
X426128Y179503D01*
X425615Y180391D01*
X424891Y181115D01*
X424003Y181628D01*
X423013Y181893D01*
D02*
G37*
G36*
X280768Y176350D02*
X280231D01*
X279735Y176145D01*
X279356Y175765D01*
X279150Y175268D01*
Y174732D01*
X279356Y174235D01*
X279735Y173855D01*
X280231Y173650D01*
X280768D01*
X281265Y173855D01*
X281645Y174235D01*
X281850Y174732D01*
Y175268D01*
X281645Y175765D01*
X281265Y176145D01*
X280768Y176350D01*
D02*
G37*
G36*
X274269D02*
X273731D01*
X273235Y176145D01*
X272855Y175765D01*
X272650Y175268D01*
Y174732D01*
X272855Y174235D01*
X273235Y173855D01*
X273731Y173650D01*
X274269D01*
X274765Y173855D01*
X275145Y174235D01*
X275350Y174732D01*
Y175268D01*
X275145Y175765D01*
X274765Y176145D01*
X274269Y176350D01*
D02*
G37*
G36*
X352269Y175850D02*
X351731D01*
X351235Y175645D01*
X350855Y175265D01*
X350650Y174768D01*
Y174232D01*
X350855Y173735D01*
X351235Y173355D01*
X351731Y173150D01*
X352269D01*
X352765Y173355D01*
X353145Y173735D01*
X353350Y174232D01*
Y174768D01*
X353145Y175265D01*
X352765Y175645D01*
X352269Y175850D01*
D02*
G37*
G36*
X347269D02*
X346731D01*
X346235Y175645D01*
X345855Y175265D01*
X345650Y174768D01*
Y174232D01*
X345855Y173735D01*
X346235Y173355D01*
X346731Y173150D01*
X347269D01*
X347765Y173355D01*
X348145Y173735D01*
X348350Y174232D01*
Y174768D01*
X348145Y175265D01*
X347765Y175645D01*
X347269Y175850D01*
D02*
G37*
G36*
X342769Y175350D02*
X342231D01*
X341735Y175145D01*
X341355Y174765D01*
X341150Y174268D01*
Y173732D01*
X341355Y173235D01*
X341735Y172855D01*
X342231Y172650D01*
X342769D01*
X343265Y172855D01*
X343644Y173235D01*
X343850Y173732D01*
Y174268D01*
X343644Y174765D01*
X343265Y175145D01*
X342769Y175350D01*
D02*
G37*
G36*
X389268Y171850D02*
X388732D01*
X388235Y171644D01*
X387856Y171265D01*
X387650Y170768D01*
Y170231D01*
X387856Y169735D01*
X388235Y169355D01*
X388732Y169150D01*
X389268D01*
X389765Y169355D01*
X390144Y169735D01*
X390350Y170231D01*
Y170768D01*
X390144Y171265D01*
X389765Y171644D01*
X389268Y171850D01*
D02*
G37*
G36*
X224950Y162450D02*
X218050D01*
Y155550D01*
X224950D01*
Y162450D01*
D02*
G37*
G36*
X426393Y161893D02*
X418607D01*
Y154107D01*
X426393D01*
Y161893D01*
D02*
G37*
%LPD*%
D14*
X390000Y211500D02*
X394000Y207500D01*
X329287Y328500D02*
X330658Y329870D01*
X327287Y334899D02*
X328500Y333686D01*
X330658Y331609D02*
X331500Y332451D01*
X330658Y329870D02*
Y331609D01*
X328500Y328500D02*
X329287D01*
X327287Y334899D02*
Y335170D01*
X328500Y328500D02*
Y333686D01*
X331500Y332451D02*
Y332500D01*
X350500Y330729D02*
Y331000D01*
X351035Y327370D02*
Y330194D01*
X350500Y330729D02*
X351035Y330194D01*
X338000Y328453D02*
X338787D01*
X341965Y331631D02*
Y332465D01*
X342000Y332500D01*
X338787Y328453D02*
X341965Y331631D01*
X337870Y328453D02*
X338000D01*
X349500Y320500D02*
X352406Y317595D01*
Y316500D02*
Y317595D01*
X353300Y317394D02*
Y321160D01*
X352406Y316500D02*
X353300Y317394D01*
X351035Y327370D02*
X352406Y326000D01*
X353500Y327095D01*
Y330000D02*
X355000Y331500D01*
X353500Y327095D02*
Y330000D01*
X359271Y328000D02*
X364094D01*
X357771Y329500D02*
X359271Y328000D01*
X357500Y329500D02*
X357771D01*
X333000Y311776D02*
Y314000D01*
X331630Y310405D02*
X333000Y311776D01*
X330713Y310405D02*
X331630D01*
X336000Y340287D02*
Y344500D01*
Y340287D02*
X338000Y338287D01*
X340894Y341475D02*
X341085Y341666D01*
X340894Y341181D02*
Y341475D01*
X338000Y338287D02*
X340894Y341181D01*
X354915Y311584D02*
X357140Y313809D01*
X359644D01*
X363047Y317213D01*
X361000Y305906D02*
X361500Y305405D01*
X361000Y305906D02*
Y309000D01*
X358000Y345500D02*
X359842Y343657D01*
X362630D01*
X364000Y342287D01*
Y340713D02*
Y342287D01*
X326000Y314500D02*
X326035Y314465D01*
X326653D02*
X330713Y310405D01*
X326035Y314465D02*
X326653D01*
X337035Y313631D02*
Y313965D01*
X337000Y314000D02*
X337035Y313965D01*
X340213Y310453D02*
X341000D01*
X337035Y313631D02*
X340213Y310453D01*
X341130D02*
X342500Y311823D01*
X341000Y310453D02*
X341130D01*
X342500Y311823D02*
Y314000D01*
X338000Y337500D02*
Y338287D01*
Y337500D02*
X346000D01*
X336500Y329823D02*
X337870Y328453D01*
X336500Y329823D02*
Y332500D01*
X362630Y339342D02*
X364000Y340713D01*
X359892Y339342D02*
X362630D01*
X359549Y339000D02*
X359892Y339342D01*
X359500Y339000D02*
X359549D01*
X361417Y324535D02*
X364094Y327213D01*
X360000Y324500D02*
X360035Y324535D01*
X364094Y327213D02*
Y328000D01*
X360035Y324535D02*
X361417D01*
X359535Y333347D02*
X364094Y328787D01*
X359535Y333347D02*
Y333465D01*
X359500Y333500D02*
X359535Y333465D01*
X364094Y328000D02*
Y328787D01*
X356002Y317000D02*
X357002Y318000D01*
X363047D01*
X355953Y317000D02*
X356002D01*
X357987Y322465D02*
X359369D01*
X357953Y322500D02*
X357987Y322465D01*
X363047Y318000D02*
Y318787D01*
X359369Y322465D02*
X363047Y318787D01*
Y317213D02*
Y318000D01*
X361500Y306000D02*
X365500Y310000D01*
X361500Y305405D02*
Y306000D01*
X370500Y311951D02*
Y312000D01*
X371000Y305453D02*
Y311451D01*
X370500Y311951D02*
X371000Y311451D01*
X375035Y309488D02*
Y309508D01*
X371000Y305453D02*
X375035Y309488D01*
X294000Y294000D02*
Y328500D01*
X344809Y294809D02*
X357555Y307555D01*
X341691Y294809D02*
X344809D01*
X357555Y307555D02*
Y310055D01*
X341500Y295000D02*
X341691Y294809D01*
X331500Y301033D02*
Y303547D01*
X327536Y316500D02*
X346500D01*
X320535Y323500D02*
X327536Y316500D01*
X314500Y323500D02*
X320535D01*
X328500Y319271D02*
Y322594D01*
X331086Y318500D02*
X333500D01*
X330500Y319086D02*
X331086Y318500D01*
X329018Y318482D02*
Y318753D01*
X328500Y319271D02*
X329018Y318753D01*
X328500Y322594D02*
X330405D01*
X330500Y322500D01*
Y319086D02*
Y322500D01*
Y322594D02*
X337449D01*
X345130Y327370D02*
X346500Y326000D01*
X345130Y327370D02*
Y328613D01*
X345000Y332000D02*
X346500Y333500D01*
X345000Y328743D02*
X345130Y328613D01*
X345000Y328743D02*
Y332000D01*
X347870Y332370D02*
X353000Y337500D01*
X347870Y327370D02*
Y332370D01*
X346500Y326000D02*
X347870Y327370D01*
X332000Y338382D02*
Y343000D01*
Y338382D02*
X332002Y338380D01*
X371787Y299547D02*
X374309Y297026D01*
Y296191D02*
X374500Y296000D01*
X374309Y296191D02*
Y297026D01*
X371787Y299547D02*
X373158Y300917D01*
X375147D02*
X375729Y301500D01*
X373158Y300917D02*
X375147D01*
X375729Y301500D02*
X376000D01*
X370323Y319370D02*
Y320158D01*
X373729Y321000D02*
X374000D01*
X370323Y320158D02*
X372887D01*
X373729Y321000D01*
X370000Y328000D02*
X372000D01*
X375000Y325000D01*
X372000Y328000D02*
X373951D01*
X327479Y339021D02*
Y339309D01*
X327691Y342690D02*
X332002Y338380D01*
X327500Y344500D02*
X327691Y344309D01*
X327287Y339500D02*
X327479Y339309D01*
X327691Y342690D02*
Y344309D01*
X327479Y339021D02*
X329000Y337500D01*
X332002Y338380D02*
X332095Y338287D01*
X369905Y341500D02*
X372965D01*
X374675Y343211D02*
X374790D01*
X372965Y341500D02*
X374675Y343211D01*
X357555Y310055D02*
X359314Y311814D01*
X363210D01*
X334250Y300653D02*
Y302538D01*
X332287Y304500D02*
X334250Y302538D01*
Y300653D02*
X334441Y300461D01*
X368191Y299547D02*
X371787D01*
X304000Y293000D02*
Y310500D01*
X299000Y293000D02*
Y331000D01*
X306000Y282000D02*
X368500D01*
X392000Y305500D02*
Y332000D01*
X368500Y282000D02*
X392000Y305500D01*
X304000Y310500D02*
X310000Y316500D01*
X294000Y328500D02*
X325500Y360000D01*
X368953Y317870D02*
X370323Y316500D01*
X368953Y317213D02*
Y318000D01*
X325000Y357000D02*
X369500D01*
X299000Y331000D02*
X325000Y357000D01*
X341500Y360000D02*
X342000Y359500D01*
X296500Y278000D02*
X364500D01*
X366000Y279500D01*
X219500Y355000D02*
X296500Y278000D01*
X219500Y355000D02*
Y363000D01*
X325500Y360000D02*
X341500D01*
X390000Y211500D02*
Y281000D01*
X386000Y210000D02*
Y276951D01*
X385500Y277451D02*
X386000Y276951D01*
X385500Y277451D02*
Y277500D01*
X342951Y320000D02*
X343000D01*
X338000Y322547D02*
X339370Y321177D01*
X341774D01*
X342951Y320000D01*
X338000Y319000D02*
Y322547D01*
X345500Y315500D02*
X346500Y316500D01*
X345500Y307500D02*
Y315500D01*
X346500Y312500D02*
X352000Y307000D01*
X346500Y312500D02*
Y316500D01*
Y326000D01*
X329000Y337500D02*
X332095D01*
X363210Y311814D02*
X366205Y314809D01*
Y315252D02*
X366795Y315843D01*
X366205Y314809D02*
Y315252D01*
X366795Y315843D02*
X367583D01*
X368953Y317213D01*
X340713Y303547D02*
X341500D01*
X329760D02*
X331500D01*
X332095Y337500D02*
Y338287D01*
X369905Y335455D02*
Y341500D01*
X369500Y335049D02*
X369905Y335455D01*
X369500Y335000D02*
Y335049D01*
X373951Y328000D02*
X374951Y329000D01*
X375000D01*
X374465Y333253D02*
Y333965D01*
X370000Y328000D02*
Y328787D01*
X374465Y333253D01*
Y333965D02*
X374500Y334000D01*
X370323Y316500D02*
X372953D01*
X365782Y297138D02*
X368191Y299547D01*
X361500Y295549D02*
Y299500D01*
Y295549D02*
X362500Y294549D01*
Y294500D02*
Y294549D01*
X325214Y301786D02*
X325349D01*
X326694Y303130D01*
X329343D01*
X329760Y303547D01*
X344902Y298895D02*
Y300146D01*
X341500Y303547D02*
X344902Y300146D01*
X339000Y298953D02*
X339342Y299295D01*
Y302177D02*
X340713Y303547D01*
X339342Y299295D02*
Y302177D01*
X337496Y322547D02*
X338000D01*
X337449Y322594D02*
X337496Y322547D01*
X332287Y304500D02*
X340953D01*
X331500D02*
X332287D01*
X331500Y303547D02*
Y304500D01*
X340953D02*
X341000Y304547D01*
X368953Y318000D02*
X370323Y319370D01*
D27*
X352406Y316500D02*
D03*
X346500D02*
D03*
X352406Y326000D02*
D03*
X346500D02*
D03*
X363047Y318000D02*
D03*
X368953D02*
D03*
X364000Y341500D02*
D03*
X369905D02*
D03*
X338000Y337500D02*
D03*
X332095D02*
D03*
X364094Y328000D02*
D03*
X370000D02*
D03*
D28*
X371000Y305453D02*
D03*
Y299547D02*
D03*
X361500Y305405D02*
D03*
Y299500D02*
D03*
X331500Y304500D02*
D03*
Y310405D02*
D03*
X341000Y304547D02*
D03*
Y310453D02*
D03*
X328500Y328500D02*
D03*
Y322594D02*
D03*
X338000Y328453D02*
D03*
Y322547D02*
D03*
D45*
X221500Y237500D02*
D03*
Y247500D02*
D03*
Y257500D02*
D03*
Y267500D02*
D03*
Y277500D02*
D03*
Y287500D02*
D03*
D46*
Y159000D02*
D03*
Y211000D02*
D03*
Y185000D02*
D03*
X366000Y263000D02*
D03*
D47*
X221500Y169000D02*
D03*
Y221000D02*
D03*
Y195000D02*
D03*
X366000Y253000D02*
D03*
Y243000D02*
D03*
Y233000D02*
D03*
D48*
X422500Y248000D02*
D03*
Y238000D02*
D03*
Y228000D02*
D03*
Y218000D02*
D03*
Y208000D02*
D03*
Y198000D02*
D03*
Y188000D02*
D03*
Y178000D02*
D03*
Y168000D02*
D03*
X289500Y363000D02*
D03*
X279500D02*
D03*
X269500D02*
D03*
X259500D02*
D03*
X249500D02*
D03*
X239500D02*
D03*
X229500D02*
D03*
X219500D02*
D03*
X209500D02*
D03*
D49*
X422500Y158000D02*
D03*
D50*
X199500Y363000D02*
D03*
D51*
X346500Y159500D02*
D03*
X287000Y174500D02*
D03*
X287150Y160494D02*
D03*
X249000Y175500D02*
D03*
X267000Y324500D02*
D03*
X306000Y325500D02*
D03*
X394000Y207500D02*
D03*
X387500Y176000D02*
D03*
X370538Y186064D02*
D03*
X376000Y179500D02*
D03*
X382000Y179000D02*
D03*
X312035Y300847D02*
D03*
X375500Y189000D02*
D03*
X332282Y297131D02*
D03*
X331500Y332500D02*
D03*
X327287Y335170D02*
D03*
X350500Y331000D02*
D03*
X342000Y332500D02*
D03*
X349500Y320500D02*
D03*
X353300Y321160D02*
D03*
X355000Y331500D02*
D03*
X357500Y329500D02*
D03*
X333000Y314000D02*
D03*
X336000Y344500D02*
D03*
X341085Y341666D02*
D03*
X311500Y328000D02*
D03*
X307000Y302500D02*
D03*
X309000Y307000D02*
D03*
X313000Y309500D02*
D03*
X273500Y321500D02*
D03*
X269500Y316500D02*
D03*
X361000Y309000D02*
D03*
X358000Y345500D02*
D03*
X389500Y337500D02*
D03*
X392500Y341000D02*
D03*
X371000Y280000D02*
D03*
X424500Y341500D02*
D03*
Y335500D02*
D03*
X399000Y367000D02*
D03*
X392500Y360000D02*
D03*
X416500Y361500D02*
D03*
X414500Y368000D02*
D03*
X376000Y282000D02*
D03*
X424000D02*
D03*
X416500D02*
D03*
X409000Y276000D02*
D03*
X404918Y271959D02*
D03*
X319000Y174500D02*
D03*
X313000D02*
D03*
X305500Y172000D02*
D03*
X300000D02*
D03*
X305000Y182500D02*
D03*
X299500D02*
D03*
X239000D02*
D03*
X233500D02*
D03*
Y173000D02*
D03*
X239000D02*
D03*
X254500Y175500D02*
D03*
X239000Y159000D02*
D03*
X247500D02*
D03*
X257000Y159500D02*
D03*
Y165000D02*
D03*
X265500D02*
D03*
Y159500D02*
D03*
X273500Y160500D02*
D03*
X280500D02*
D03*
X323500Y164500D02*
D03*
X331000D02*
D03*
X353000Y159500D02*
D03*
X340000D02*
D03*
X331000Y159000D02*
D03*
X324000D02*
D03*
X313000Y158000D02*
D03*
X304000D02*
D03*
X326000Y314500D02*
D03*
X337000Y314000D02*
D03*
X342500D02*
D03*
X354915Y311584D02*
D03*
X346000Y337500D02*
D03*
X336500Y332500D02*
D03*
X359500Y339000D02*
D03*
X360000Y324500D02*
D03*
X359500Y333500D02*
D03*
X355953Y317000D02*
D03*
X357953Y322500D02*
D03*
X365500Y310000D02*
D03*
X370500Y312000D02*
D03*
X375035Y309508D02*
D03*
X326500Y295000D02*
D03*
X294000Y294000D02*
D03*
X275000Y174500D02*
D03*
X318000Y206000D02*
D03*
X309500D02*
D03*
X301500D02*
D03*
X318000Y198500D02*
D03*
X309500D02*
D03*
X301500D02*
D03*
X318500Y215500D02*
D03*
X310000D02*
D03*
X302500Y216000D02*
D03*
X350500Y217500D02*
D03*
X341000D02*
D03*
X332000Y217000D02*
D03*
X371000Y199500D02*
D03*
X282500Y221500D02*
D03*
X275000D02*
D03*
X265500D02*
D03*
X244000Y200000D02*
D03*
X254000Y209000D02*
D03*
X245500Y209500D02*
D03*
X236500D02*
D03*
X252500Y199500D02*
D03*
X341500Y295000D02*
D03*
X331500Y301033D02*
D03*
X314500Y323500D02*
D03*
X333500Y318500D02*
D03*
X329018Y318482D02*
D03*
X346500Y333500D02*
D03*
X353000Y337500D02*
D03*
X332000Y343000D02*
D03*
X374500Y296000D02*
D03*
X376000Y301500D02*
D03*
X374000Y321000D02*
D03*
X375000Y325000D02*
D03*
X327287Y339500D02*
D03*
X374790Y343211D02*
D03*
X334441Y300461D02*
D03*
X299000Y239500D02*
D03*
X304000Y293000D02*
D03*
X299000D02*
D03*
X310000Y316500D02*
D03*
X342000Y359500D02*
D03*
X298786Y247441D02*
D03*
X299000Y257000D02*
D03*
X392000Y332000D02*
D03*
X306000Y282000D02*
D03*
X369500Y357000D02*
D03*
X311228Y334772D02*
D03*
X414000Y331000D02*
D03*
X398500Y338500D02*
D03*
X399500Y359000D02*
D03*
X405000Y355500D02*
D03*
X402000Y342000D02*
D03*
X421000Y331500D02*
D03*
X390000Y281000D02*
D03*
X386000Y210000D02*
D03*
X385500Y277500D02*
D03*
X366000Y279500D02*
D03*
X389000Y170500D02*
D03*
X363500Y212500D02*
D03*
X374500Y213000D02*
D03*
X343000Y320000D02*
D03*
X338000Y319000D02*
D03*
X345500Y307500D02*
D03*
X352000Y307000D02*
D03*
X307000Y331000D02*
D03*
X327500Y344500D02*
D03*
X347000Y174500D02*
D03*
X342500Y174000D02*
D03*
X352000Y174500D02*
D03*
X369500Y335000D02*
D03*
X375000Y329000D02*
D03*
X374500Y334000D02*
D03*
X372953Y316500D02*
D03*
X365782Y297138D02*
D03*
X362500Y294500D02*
D03*
X325214Y301786D02*
D03*
X339000Y298953D02*
D03*
X344902Y298895D02*
D03*
X281000Y174500D02*
D03*
X236500Y200000D02*
D03*
Y219000D02*
D03*
X256500Y219500D02*
D03*
X246500D02*
D03*
M02*
