G04*
G04 #@! TF.GenerationSoftware,Altium Limited,Altium Designer,24.6.1 (21)*
G04*
G04 Layer_Color=32768*
%FSLAX25Y25*%
%MOIN*%
G70*
G04*
G04 #@! TF.SameCoordinates,53350382-22CE-4EB4-8EAE-C997BD2E2089*
G04*
G04*
G04 #@! TF.FilePolarity,Positive*
G04*
G01*
G75*
%ADD10C,0.00787*%
%ADD12C,0.00394*%
D10*
X345122Y313646D02*
Y319354D01*
X353783D01*
Y313646D02*
Y319354D01*
X345122Y313646D02*
X353783D01*
X345122Y323146D02*
Y328854D01*
X353783D01*
Y323146D02*
Y328854D01*
X345122Y323146D02*
X353783D01*
X370331Y315146D02*
Y320854D01*
X361669Y315146D02*
X370331D01*
X361669D02*
Y320854D01*
X370331D01*
X368146Y298169D02*
X373854D01*
X368146D02*
Y306831D01*
X373854D01*
Y298169D02*
Y306831D01*
X371284Y338646D02*
Y344354D01*
X362622Y338646D02*
X371284D01*
X362622D02*
Y344354D01*
X371284D01*
X330716Y334646D02*
Y340354D01*
X339378D01*
Y334646D02*
Y340354D01*
X330716Y334646D02*
X339378D01*
X371378Y325146D02*
Y330854D01*
X362717Y325146D02*
X371378D01*
X362717D02*
Y330854D01*
X371378D01*
X358646Y298122D02*
X364354D01*
X358646D02*
Y306784D01*
X364354D01*
Y298122D02*
Y306784D01*
X328646Y311784D02*
X334354D01*
Y303122D02*
Y311784D01*
X328646Y303122D02*
X334354D01*
X328646D02*
Y311784D01*
X343854Y303169D02*
Y311831D01*
X338146D02*
X343854D01*
X338146Y303169D02*
Y311831D01*
Y303169D02*
X343854D01*
X325646Y321217D02*
X331354D01*
X325646D02*
Y329878D01*
X331354D01*
Y321217D02*
Y329878D01*
X335146Y321169D02*
X340854D01*
X335146D02*
Y329831D01*
X340854D01*
Y321169D02*
Y329831D01*
D12*
X324858Y268984D02*
X358913D01*
X324858Y225638D02*
Y268984D01*
Y225638D02*
X358913D01*
Y268984D01*
M02*
