G04*
G04 #@! TF.GenerationSoftware,Altium Limited,Altium Designer,24.6.1 (21)*
G04*
G04 Layer_Physical_Order=1*
G04 Layer_Color=255*
%FSLAX25Y25*%
%MOIN*%
G70*
G04*
G04 #@! TF.SameCoordinates,53350382-22CE-4EB4-8EAE-C997BD2E2089*
G04*
G04*
G04 #@! TF.FilePolarity,Positive*
G04*
G01*
G75*
%ADD14C,0.01000*%
%ADD16R,0.08661X0.06299*%
%ADD17R,0.03150X0.03937*%
%ADD18R,0.03937X0.03150*%
%ADD19R,0.05800X0.01100*%
%ADD20R,0.01100X0.05800*%
%ADD21R,0.02756X0.05118*%
%ADD22R,0.03850X0.02200*%
%ADD23R,0.06102X0.05118*%
%ADD24R,0.21654X0.07874*%
%ADD25R,0.02441X0.02362*%
%ADD26R,0.04449X0.09606*%
%ADD27R,0.03740X0.05315*%
%ADD28R,0.05315X0.03740*%
%ADD44C,0.01000*%
%ADD45C,0.06319*%
%ADD46R,0.06201X0.06201*%
%ADD47C,0.06201*%
%ADD48C,0.07087*%
%ADD49R,0.07087X0.07087*%
%ADD50R,0.07087X0.07087*%
%ADD51C,0.02000*%
G36*
X430796Y149704D02*
X176704D01*
Y309203D01*
X176997Y375796D01*
X430796Y375796D01*
Y149704D01*
D02*
G37*
%LPC*%
G36*
X397593Y369225D02*
X390850D01*
X390519Y369159D01*
X390238Y368971D01*
X390050Y368690D01*
X389984Y368358D01*
Y361650D01*
X390050Y361318D01*
X390238Y361037D01*
X391887Y359387D01*
X392168Y359199D01*
X392500Y359133D01*
X392832Y359199D01*
X393113Y359387D01*
X393301Y359668D01*
X393367Y360000D01*
X393301Y360332D01*
X393113Y360613D01*
X391717Y362009D01*
Y367492D01*
X397234D01*
X398338Y366387D01*
X398619Y366199D01*
X398951Y366133D01*
X399000D01*
X399332Y366199D01*
X399613Y366387D01*
X399801Y366668D01*
X399867Y367000D01*
X399801Y367332D01*
X399613Y367613D01*
X399465Y367711D01*
X398205Y368971D01*
X397924Y369159D01*
X397593Y369225D01*
D02*
G37*
G36*
X422150D02*
X414907D01*
X414576Y369159D01*
X414294Y368971D01*
X414035Y368711D01*
X413887Y368613D01*
X413699Y368332D01*
X413633Y368000D01*
X413699Y367668D01*
X413887Y367387D01*
X414168Y367199D01*
X414500Y367133D01*
X414549D01*
X414881Y367199D01*
X415162Y367387D01*
X415266Y367492D01*
X419108D01*
X419242Y367168D01*
X415922Y363848D01*
X415734Y363567D01*
X415668Y363235D01*
Y361674D01*
X415633Y361500D01*
X415699Y361168D01*
X415887Y360887D01*
X416168Y360699D01*
X416500Y360633D01*
X416832Y360699D01*
X417113Y360887D01*
X417147Y360922D01*
X417335Y361203D01*
X417401Y361535D01*
Y362877D01*
X422016Y367492D01*
X422150D01*
X422481Y367558D01*
X422762Y367745D01*
X422950Y368027D01*
X423016Y368358D01*
X422950Y368690D01*
X422762Y368971D01*
X422481Y369159D01*
X422150Y369225D01*
D02*
G37*
G36*
X280013Y366893D02*
X278987D01*
X277997Y366628D01*
X277110Y366115D01*
X276385Y365390D01*
X275872Y364503D01*
X275607Y363513D01*
Y362487D01*
X275872Y361497D01*
X276385Y360610D01*
X277110Y359885D01*
X277997Y359372D01*
X278987Y359107D01*
X280013D01*
X281003Y359372D01*
X281891Y359885D01*
X282615Y360610D01*
X283128Y361497D01*
X283393Y362487D01*
Y363513D01*
X283128Y364503D01*
X282615Y365390D01*
X281891Y366115D01*
X281003Y366628D01*
X280013Y366893D01*
D02*
G37*
G36*
X220013D02*
X218987D01*
X217997Y366628D01*
X217109Y366115D01*
X216385Y365390D01*
X215872Y364503D01*
X215607Y363513D01*
Y362487D01*
X215872Y361497D01*
X216385Y360610D01*
X217109Y359885D01*
X217997Y359372D01*
X218987Y359107D01*
X220013D01*
X221003Y359372D01*
X221890Y359885D01*
X222615Y360610D01*
X223128Y361497D01*
X223393Y362487D01*
Y363513D01*
X223128Y364503D01*
X222615Y365390D01*
X221890Y366115D01*
X221003Y366628D01*
X220013Y366893D01*
D02*
G37*
G36*
X270013D02*
X268987D01*
X267997Y366628D01*
X267109Y366115D01*
X266385Y365390D01*
X265872Y364503D01*
X265607Y363513D01*
Y362487D01*
X265872Y361497D01*
X266385Y360610D01*
X267109Y359885D01*
X267997Y359372D01*
X268987Y359107D01*
X270013D01*
X271003Y359372D01*
X271573Y359701D01*
X288265Y343009D01*
X288473Y342870D01*
X288403Y342520D01*
X281205D01*
X262799Y360927D01*
X263128Y361497D01*
X263393Y362487D01*
Y363513D01*
X263128Y364503D01*
X262615Y365390D01*
X261891Y366115D01*
X261003Y366628D01*
X260013Y366893D01*
X258987D01*
X257997Y366628D01*
X257109Y366115D01*
X256385Y365390D01*
X255872Y364503D01*
X255607Y363513D01*
Y362487D01*
X255872Y361497D01*
X256385Y360610D01*
X257109Y359885D01*
X257997Y359372D01*
X258987Y359107D01*
X260013D01*
X261003Y359372D01*
X261573Y359701D01*
X280234Y341041D01*
X280442Y340902D01*
X280371Y340552D01*
X273174D01*
X252799Y360927D01*
X253128Y361497D01*
X253393Y362487D01*
Y363513D01*
X253128Y364503D01*
X252615Y365390D01*
X251890Y366115D01*
X251003Y366628D01*
X250013Y366893D01*
X248987D01*
X247997Y366628D01*
X247110Y366115D01*
X246385Y365390D01*
X245872Y364503D01*
X245607Y363513D01*
Y362487D01*
X245872Y361497D01*
X246385Y360610D01*
X247110Y359885D01*
X247997Y359372D01*
X248987Y359107D01*
X250013D01*
X251003Y359372D01*
X251573Y359701D01*
X272202Y339072D01*
X272410Y338933D01*
X272340Y338583D01*
X267642D01*
X246975Y359251D01*
X246761Y359502D01*
X246761Y359502D01*
X246761Y359502D01*
X246332Y359832D01*
X246002Y360262D01*
X246002D01*
X245751Y360475D01*
X243393Y362832D01*
Y363513D01*
X243128Y364503D01*
X242615Y365390D01*
X241891Y366115D01*
X241003Y366628D01*
X240013Y366893D01*
X238987D01*
X237997Y366628D01*
X237109Y366115D01*
X236385Y365390D01*
X235872Y364503D01*
X235607Y363513D01*
Y362487D01*
X235872Y361497D01*
X236385Y360610D01*
X237109Y359885D01*
X237997Y359372D01*
X238987Y359107D01*
X240013D01*
X241003Y359372D01*
X241891Y359885D01*
X242615Y360610D01*
X242673Y360709D01*
X243020Y360754D01*
X244680Y359094D01*
X244712Y359073D01*
X245100Y358600D01*
X245573Y358212D01*
X245594Y358180D01*
X266671Y337104D01*
X266952Y336916D01*
X267284Y336850D01*
X317084D01*
X317350Y336648D01*
X317350Y336467D01*
Y335030D01*
X317350Y334848D01*
X317084Y334646D01*
X312579D01*
X312578Y334647D01*
Y335040D01*
X312373Y335537D01*
X311993Y335916D01*
X311497Y336122D01*
X310960D01*
X310464Y335916D01*
X310084Y335537D01*
X309878Y335040D01*
Y334503D01*
X310084Y334007D01*
X310464Y333627D01*
X310960Y333422D01*
X311353D01*
X311608Y333167D01*
X311889Y332979D01*
X312221Y332913D01*
X314748D01*
X314882Y332590D01*
X314159Y331867D01*
X308043D01*
X307765Y332144D01*
X307269Y332350D01*
X306732D01*
X306235Y332144D01*
X305855Y331765D01*
X305650Y331269D01*
Y330732D01*
X305855Y330235D01*
X306235Y329855D01*
X306732Y329650D01*
X307269D01*
X307765Y329855D01*
X308043Y330133D01*
X314518D01*
X314850Y330199D01*
X315131Y330387D01*
X317027Y332283D01*
X317350Y332149D01*
Y331093D01*
X317350Y330911D01*
X317350Y330561D01*
Y329124D01*
X317350Y328942D01*
X317350Y328592D01*
Y327122D01*
X317350Y326974D01*
X317084Y326772D01*
X316159D01*
X316117Y326801D01*
X315785Y326867D01*
X313859D01*
X312113Y328613D01*
X311832Y328801D01*
X311500Y328867D01*
X311168Y328801D01*
X310887Y328613D01*
X310699Y328332D01*
X310633Y328000D01*
X310699Y327668D01*
X310887Y327387D01*
X311584Y326690D01*
X311450Y326367D01*
X306000D01*
X305668Y326301D01*
X305387Y326113D01*
X305199Y325832D01*
X305133Y325500D01*
X305199Y325168D01*
X305387Y324887D01*
X305668Y324699D01*
X306000Y324633D01*
X312965D01*
X313296Y324699D01*
X313516Y324426D01*
X313355Y324265D01*
X313150Y323768D01*
Y323232D01*
X313355Y322735D01*
X313735Y322356D01*
X314071Y322217D01*
X314001Y321867D01*
X304859D01*
X293613Y333113D01*
X293332Y333301D01*
X293000Y333367D01*
X269703D01*
X262233Y340837D01*
X261951Y341025D01*
X261620Y341091D01*
X195439D01*
X195107Y341025D01*
X194826Y340837D01*
X193522Y339533D01*
X193334Y339252D01*
X193307Y339115D01*
X192345Y338153D01*
X190429D01*
Y335091D01*
X193570D01*
Y336928D01*
X194747Y338105D01*
X194935Y338386D01*
X194963Y338522D01*
X195299Y338859D01*
X195622Y338725D01*
Y333867D01*
X193570D01*
Y334531D01*
X190429D01*
Y331469D01*
X193570D01*
Y332133D01*
X195622D01*
Y330713D01*
X217976D01*
Y339287D01*
X218297Y339358D01*
X232703D01*
X233024Y339287D01*
X233024Y339008D01*
Y330713D01*
X255378D01*
Y335755D01*
X260519D01*
X261413Y334861D01*
Y332923D01*
X259859D01*
Y329861D01*
X263000D01*
Y330940D01*
X263080Y331060D01*
X263146Y331392D01*
Y333662D01*
X263332Y333699D01*
X263613Y333887D01*
X263801Y334168D01*
X263867Y334500D01*
X263801Y334832D01*
X263613Y335113D01*
X263332Y335301D01*
X263122Y335342D01*
X263080Y335552D01*
X262892Y335833D01*
X261491Y337235D01*
X261210Y337423D01*
X260878Y337489D01*
X255378D01*
X255378Y339287D01*
X255698Y339358D01*
X261261D01*
X268731Y331887D01*
X269013Y331699D01*
X269344Y331633D01*
X292641D01*
X303434Y320840D01*
X303300Y320517D01*
X300209D01*
X292343Y328383D01*
X292062Y328571D01*
X291730Y328637D01*
X263000D01*
Y329301D01*
X259859D01*
Y327455D01*
X259690Y327202D01*
X259624Y326870D01*
X259690Y326539D01*
X259859Y326286D01*
Y326239D01*
X259906D01*
X260159Y326070D01*
X260490Y326004D01*
X261189D01*
X261521Y326070D01*
X261774Y326239D01*
X263000D01*
Y326903D01*
X291371D01*
X299237Y319037D01*
X299518Y318849D01*
X299850Y318783D01*
X310563D01*
X310708Y318433D01*
X310124Y317850D01*
X309732D01*
X309235Y317645D01*
X308958Y317367D01*
X294489D01*
X291243Y320613D01*
X290962Y320801D01*
X290630Y320867D01*
X288173D01*
Y323007D01*
X283733D01*
Y316992D01*
X288173D01*
Y319133D01*
X290271D01*
X293517Y315887D01*
X293798Y315699D01*
X294130Y315633D01*
X308958D01*
X309235Y315355D01*
X309659Y315180D01*
X309589Y314830D01*
X186445D01*
X186367Y314908D01*
Y335141D01*
X207934Y356709D01*
X208205Y356899D01*
X208544Y356872D01*
X209500Y356778D01*
X210714Y356897D01*
X211881Y357251D01*
X212957Y357826D01*
X213900Y358600D01*
X214256Y359034D01*
X214433Y359103D01*
X214569Y359103D01*
X214744Y359034D01*
X215100Y358600D01*
X216043Y357826D01*
X217119Y357251D01*
X218286Y356897D01*
X219500Y356778D01*
X220714Y356897D01*
X221881Y357251D01*
X222957Y357826D01*
X223900Y358600D01*
X224674Y359543D01*
X225249Y360619D01*
X225512Y361487D01*
X225838Y361496D01*
X225878Y361487D01*
X226385Y360610D01*
X227110Y359885D01*
X227997Y359372D01*
X228987Y359107D01*
X230013D01*
X231003Y359372D01*
X231891Y359885D01*
X232615Y360610D01*
X233128Y361497D01*
X233393Y362487D01*
Y363513D01*
X233128Y364503D01*
X232615Y365390D01*
X231891Y366115D01*
X231003Y366628D01*
X230013Y366893D01*
X228987D01*
X227997Y366628D01*
X227110Y366115D01*
X226385Y365390D01*
X225872Y364503D01*
X225702Y363867D01*
X225349D01*
X225017Y363801D01*
X224736Y363613D01*
X224443Y363320D01*
X224429Y363334D01*
X224429Y363334D01*
X224429Y363334D01*
X224443Y363320D01*
X224203Y363080D01*
X224015Y362799D01*
X223966Y362552D01*
X223922Y362557D01*
X223828Y361840D01*
X223380Y360760D01*
X222668Y359832D01*
X221740Y359120D01*
X220660Y358672D01*
X219500Y358519D01*
X218340Y358672D01*
X217260Y359120D01*
X216332Y359832D01*
X215996Y360268D01*
X215996Y360268D01*
X215834Y360432D01*
X215834Y360432D01*
X215732Y360500D01*
X215222Y360841D01*
X214500Y360984D01*
X213778Y360841D01*
X213271Y360502D01*
X213166Y360432D01*
X213166Y360432D01*
X213005Y360270D01*
X213005Y360270D01*
X212668Y359832D01*
X211740Y359120D01*
X210660Y358672D01*
X209500Y358519D01*
X208550Y358644D01*
X208509Y358650D01*
X208382Y358661D01*
X208205Y358677D01*
X208205Y358677D01*
X208205Y358677D01*
X207855Y358658D01*
X207791D01*
X207459Y358592D01*
X207178Y358404D01*
X184887Y336113D01*
X184717Y335858D01*
X184691Y335855D01*
X184367Y336069D01*
Y336641D01*
X207427Y359701D01*
X207997Y359372D01*
X208987Y359107D01*
X210013D01*
X211003Y359372D01*
X211891Y359885D01*
X212615Y360610D01*
X213128Y361497D01*
X213393Y362487D01*
Y363513D01*
X213128Y364503D01*
X212615Y365390D01*
X211891Y366115D01*
X211003Y366628D01*
X210013Y366893D01*
X208987D01*
X207997Y366628D01*
X207109Y366115D01*
X206385Y365390D01*
X205872Y364503D01*
X205607Y363513D01*
Y362487D01*
X205872Y361497D01*
X206201Y360927D01*
X182887Y337613D01*
X182717Y337358D01*
X182691Y337355D01*
X182367Y337569D01*
Y344641D01*
X196832Y359107D01*
X203393D01*
Y366893D01*
X195607D01*
Y360332D01*
X180887Y345613D01*
X180699Y345332D01*
X180633Y345000D01*
Y298932D01*
X180699Y298601D01*
X180887Y298319D01*
X181473Y297734D01*
X181754Y297546D01*
X182086Y297480D01*
X317084D01*
X317350Y297278D01*
X317350Y297096D01*
Y295478D01*
X323850D01*
Y297096D01*
X323850Y297278D01*
X323850Y297628D01*
Y299065D01*
X323850Y299247D01*
X323850Y299597D01*
Y300746D01*
X324200Y300891D01*
X324449Y300641D01*
X324946Y300436D01*
X325483D01*
X325979Y300641D01*
X326359Y301021D01*
X326564Y301517D01*
Y302054D01*
X326359Y302551D01*
X325979Y302930D01*
X325483Y303136D01*
X324946D01*
X324895Y303115D01*
X324716Y303150D01*
X324312D01*
X324278Y303500D01*
X324284Y303501D01*
X324565Y303689D01*
X329631Y308755D01*
X329818Y309036D01*
X329884Y309368D01*
Y317440D01*
X330162Y317718D01*
X330368Y318214D01*
Y318751D01*
X330162Y319247D01*
X329783Y319627D01*
X329286Y319832D01*
X328749D01*
X328390Y319683D01*
X328169Y319970D01*
X328301Y320168D01*
X328367Y320500D01*
Y331421D01*
X328301Y331753D01*
X328113Y332034D01*
X325654Y334493D01*
Y339001D01*
X326004Y339071D01*
X326143Y338735D01*
X326523Y338355D01*
X327019Y338150D01*
X327556D01*
X328052Y338355D01*
X328432Y338735D01*
X328637Y339231D01*
Y339769D01*
X328432Y340265D01*
X328052Y340645D01*
X327556Y340850D01*
X327019D01*
X326523Y340645D01*
X326143Y340265D01*
X326004Y339929D01*
X325654Y339999D01*
Y344705D01*
X325588Y345037D01*
X325400Y345318D01*
X325367Y345352D01*
Y355641D01*
X331859Y362133D01*
X370702D01*
X385146Y347690D01*
X385012Y347367D01*
X375993D01*
X375872Y347343D01*
X375526Y347594D01*
X375522Y347603D01*
Y353650D01*
X375439D01*
Y353752D01*
X375373Y354084D01*
X375185Y354365D01*
X371972Y357578D01*
X371691Y357766D01*
X371359Y357832D01*
X370577D01*
X370265Y358144D01*
X369769Y358350D01*
X369232D01*
X368735Y358144D01*
X368355Y357765D01*
X368150Y357269D01*
Y356732D01*
X368355Y356235D01*
X368735Y355855D01*
X369232Y355650D01*
X369769D01*
X370265Y355855D01*
X370508Y356099D01*
X371000D01*
X373125Y353973D01*
X372991Y353650D01*
X371935D01*
X371754Y353650D01*
X371404Y353650D01*
X369967D01*
X369785Y353650D01*
X369435Y353650D01*
X367998D01*
X367816Y353650D01*
X367466Y353650D01*
X366030D01*
X365848Y353650D01*
X365498Y353650D01*
X364061D01*
X363879Y353650D01*
X363529Y353650D01*
X362092D01*
X361911Y353650D01*
X361561Y353650D01*
X360124D01*
X359943Y353650D01*
X359593Y353650D01*
X358155D01*
X357974Y353650D01*
X357624Y353650D01*
X356187D01*
X356006Y353650D01*
X355656Y353650D01*
X354219D01*
X354037Y353650D01*
X353687Y353650D01*
X352250D01*
X352068Y353650D01*
X351718Y353650D01*
X350157Y353650D01*
X350051Y353685D01*
X349830Y353843D01*
X349782Y354084D01*
X349594Y354365D01*
X343881Y360078D01*
X343600Y360266D01*
X343268Y360332D01*
X343077D01*
X342765Y360645D01*
X342268Y360850D01*
X341732D01*
X341235Y360645D01*
X340856Y360265D01*
X340650Y359769D01*
Y359231D01*
X340856Y358735D01*
X341235Y358355D01*
X341732Y358150D01*
X342268D01*
X342765Y358355D01*
X342959Y358549D01*
X347535Y353973D01*
X347401Y353650D01*
X346344D01*
X346163Y353650D01*
X345813Y353650D01*
X344376D01*
X344195Y353650D01*
X343845Y353650D01*
X342407D01*
X342226Y353650D01*
X341876Y353650D01*
X340258D01*
Y353650D01*
X340089D01*
Y353650D01*
X338471D01*
X338289Y353650D01*
X337939Y353650D01*
X336502D01*
X336320Y353650D01*
X335970Y353650D01*
X334534D01*
X334352Y353650D01*
X334002Y353650D01*
X332565D01*
X332383Y353650D01*
X332033Y353650D01*
X330415D01*
Y350986D01*
X330065Y350880D01*
X330009Y350963D01*
X329959Y351013D01*
X329678Y351201D01*
X329346Y351267D01*
X329015Y351201D01*
X328734Y351013D01*
X328628Y350855D01*
X328278Y350961D01*
Y353650D01*
X326478D01*
Y347150D01*
X326511D01*
Y345421D01*
X326356Y345265D01*
X326150Y344769D01*
Y344232D01*
X326356Y343735D01*
X326735Y343355D01*
X327232Y343150D01*
X327768D01*
X328265Y343355D01*
X328644Y343735D01*
X328850Y344232D01*
Y344769D01*
X328644Y345265D01*
X328265Y345644D01*
X328245Y345653D01*
Y346688D01*
X328595Y346722D01*
X328596Y346716D01*
X328784Y346435D01*
X330331Y344887D01*
X330613Y344699D01*
X330944Y344633D01*
X331501D01*
X331571Y344283D01*
X331235Y344145D01*
X330855Y343765D01*
X330650Y343268D01*
Y342731D01*
X330855Y342235D01*
X331235Y341856D01*
X331732Y341650D01*
X332269D01*
X332765Y341856D01*
X333144Y342235D01*
X333350Y342731D01*
Y343268D01*
X333173Y343697D01*
X333362Y343918D01*
X333415Y343955D01*
X333512Y343891D01*
X333844Y343825D01*
X335481D01*
X335668Y343699D01*
X336000Y343633D01*
X336332Y343699D01*
X336613Y343887D01*
X336801Y344168D01*
X336867Y344500D01*
X336801Y344832D01*
X336613Y345113D01*
X336421Y345304D01*
X336140Y345492D01*
X335809Y345558D01*
X334203D01*
X333648Y346113D01*
X333367Y346301D01*
X333035Y346367D01*
X331303D01*
X330843Y346827D01*
X330977Y347150D01*
X332033D01*
X332215Y347150D01*
X332565Y347150D01*
X334002D01*
X334184Y347150D01*
X334534Y347150D01*
X335970D01*
X336152Y347150D01*
X336502Y347150D01*
X338063Y347150D01*
X338170Y347115D01*
X338390Y346957D01*
X338438Y346716D01*
X338626Y346435D01*
X343174Y341887D01*
X343455Y341699D01*
X343787Y341633D01*
X370544D01*
X370875Y341699D01*
X371156Y341887D01*
X373282Y344012D01*
X373578Y343814D01*
X373440Y343479D01*
Y342942D01*
X373645Y342446D01*
X374025Y342066D01*
X374521Y341861D01*
X375058D01*
X375554Y342066D01*
X375934Y342446D01*
X376062Y342755D01*
X378150D01*
Y342722D01*
X380839D01*
X380945Y342372D01*
X380787Y342266D01*
X380599Y341985D01*
X380533Y341653D01*
X380599Y341322D01*
X380787Y341041D01*
X380945Y340935D01*
X380839Y340585D01*
X378150D01*
Y340502D01*
X377635D01*
X377303Y340436D01*
X377022Y340248D01*
X373887Y337113D01*
X373699Y336832D01*
X373633Y336500D01*
Y335043D01*
X373356Y334765D01*
X373150Y334268D01*
Y333732D01*
X373356Y333235D01*
X373735Y332856D01*
X374232Y332650D01*
X374768D01*
X375265Y332856D01*
X375644Y333235D01*
X375850Y333732D01*
Y334268D01*
X375644Y334765D01*
X375367Y335043D01*
Y336141D01*
X377800Y338574D01*
X378150Y338429D01*
Y336817D01*
X378150D01*
Y336648D01*
X378150D01*
Y335030D01*
X378150Y334848D01*
X378150Y334498D01*
Y333061D01*
X378150Y332879D01*
X378150Y332529D01*
Y331093D01*
X378150Y330911D01*
X378150D01*
Y330743D01*
X378150D01*
Y329124D01*
X378150Y328942D01*
X378150D01*
Y328774D01*
X378150D01*
Y327155D01*
X378150Y326974D01*
X378150Y326624D01*
Y325187D01*
X378150Y325006D01*
X378150Y324656D01*
Y323218D01*
X378150Y323037D01*
X378150Y322687D01*
Y321250D01*
X378150Y321069D01*
X378150Y320719D01*
Y319282D01*
X378150Y319100D01*
X378150Y318750D01*
Y317313D01*
X378150Y317131D01*
X378150Y316781D01*
Y315345D01*
X378150Y315163D01*
X378150Y314813D01*
Y313376D01*
X378150Y313194D01*
X378150Y312844D01*
Y311407D01*
X378150Y311226D01*
X378150Y310876D01*
Y309439D01*
X378150Y309258D01*
X378150Y308908D01*
Y307470D01*
X378150Y307289D01*
X378150Y306939D01*
Y305502D01*
X378150Y305321D01*
X378150Y304971D01*
Y303534D01*
X378150Y303352D01*
X378150Y303002D01*
Y301565D01*
X378150Y301383D01*
X378150Y301033D01*
Y299597D01*
X378150Y299415D01*
X378150D01*
Y299246D01*
X378150D01*
Y297628D01*
X378150Y297446D01*
X378150D01*
Y297278D01*
X378150D01*
Y295478D01*
X384650D01*
X384721Y295157D01*
Y278630D01*
X384355Y278265D01*
X384150Y277768D01*
Y277232D01*
X384355Y276735D01*
X384735Y276356D01*
X385231Y276150D01*
X385769D01*
X386265Y276356D01*
X386645Y276735D01*
X386850Y277232D01*
Y277768D01*
X386645Y278265D01*
X386454Y278455D01*
Y282863D01*
X386777Y282997D01*
X388650Y281124D01*
Y280732D01*
X388856Y280235D01*
X389235Y279855D01*
X389732Y279650D01*
X390268D01*
X390765Y279855D01*
X391144Y280235D01*
X391350Y280732D01*
Y281269D01*
X391144Y281765D01*
X390765Y282144D01*
X390268Y282350D01*
X389876D01*
X387867Y284359D01*
Y298017D01*
X387801Y298349D01*
X387613Y298630D01*
X385365Y300878D01*
X385084Y301066D01*
X384843Y301114D01*
X384685Y301334D01*
X384650Y301441D01*
X384650Y301565D01*
Y303002D01*
X384650Y303184D01*
X384650Y303534D01*
Y304971D01*
X384650Y305152D01*
X384650Y305502D01*
Y306939D01*
X384650Y307120D01*
X384650Y307470D01*
Y308908D01*
X384650Y309089D01*
X384650Y309439D01*
Y310876D01*
X384650Y311057D01*
X384650Y311407D01*
Y312844D01*
X384650Y313026D01*
X384650Y313376D01*
Y314813D01*
X384650Y314995D01*
X384650Y315345D01*
Y316781D01*
X384650Y316963D01*
X384650Y317313D01*
Y318750D01*
X384650Y318932D01*
X384650Y319282D01*
Y320719D01*
X384650Y320900D01*
X384916Y321102D01*
X387173D01*
X392133Y316141D01*
Y237500D01*
X392199Y237168D01*
X392387Y236887D01*
X419201Y210073D01*
X418872Y209503D01*
X418607Y208513D01*
Y207487D01*
X418872Y206497D01*
X419385Y205609D01*
X420110Y204885D01*
X420997Y204372D01*
X421987Y204107D01*
X423013D01*
X424003Y204372D01*
X424891Y204885D01*
X425615Y205609D01*
X426128Y206497D01*
X426393Y207487D01*
Y208513D01*
X426128Y209503D01*
X425615Y210390D01*
X424891Y211115D01*
X424003Y211628D01*
X423013Y211893D01*
X421987D01*
X420997Y211628D01*
X420427Y211299D01*
X393867Y237859D01*
Y244931D01*
X394191Y245145D01*
X394217Y245142D01*
X394387Y244887D01*
X419201Y220073D01*
X418872Y219503D01*
X418607Y218513D01*
Y217487D01*
X418872Y216497D01*
X419385Y215610D01*
X420110Y214885D01*
X420997Y214372D01*
X421987Y214107D01*
X423013D01*
X424003Y214372D01*
X424891Y214885D01*
X425615Y215610D01*
X426128Y216497D01*
X426393Y217487D01*
Y218513D01*
X426128Y219503D01*
X425615Y220391D01*
X424891Y221115D01*
X424003Y221628D01*
X423013Y221893D01*
X421987D01*
X420997Y221628D01*
X420427Y221299D01*
X395867Y245859D01*
Y252931D01*
X396191Y253145D01*
X396217Y253142D01*
X396387Y252887D01*
X419201Y230073D01*
X418872Y229503D01*
X418607Y228513D01*
Y227487D01*
X418872Y226497D01*
X419385Y225609D01*
X420110Y224885D01*
X420997Y224372D01*
X421987Y224107D01*
X423013D01*
X424003Y224372D01*
X424891Y224885D01*
X425615Y225609D01*
X426128Y226497D01*
X426393Y227487D01*
Y228513D01*
X426128Y229503D01*
X425615Y230391D01*
X424891Y231115D01*
X424003Y231628D01*
X423013Y231893D01*
X421987D01*
X420997Y231628D01*
X420427Y231299D01*
X397867Y253859D01*
Y316964D01*
X398190Y317097D01*
X398633Y316654D01*
Y261000D01*
X398699Y260668D01*
X398887Y260387D01*
X419201Y240073D01*
X418872Y239503D01*
X418607Y238513D01*
Y237487D01*
X418872Y236497D01*
X419385Y235610D01*
X420110Y234885D01*
X420997Y234372D01*
X421987Y234107D01*
X423013D01*
X424003Y234372D01*
X424891Y234885D01*
X425615Y235610D01*
X426128Y236497D01*
X426393Y237487D01*
Y238513D01*
X426128Y239503D01*
X425615Y240390D01*
X424891Y241115D01*
X424003Y241628D01*
X423013Y241893D01*
X421987D01*
X420997Y241628D01*
X420427Y241299D01*
X400367Y261359D01*
Y317013D01*
X400301Y317345D01*
X400113Y317626D01*
X386647Y331092D01*
X386770Y331464D01*
X386805Y331469D01*
X401133Y317141D01*
Y268500D01*
X401199Y268168D01*
X401387Y267887D01*
X419201Y250073D01*
X418872Y249503D01*
X418607Y248513D01*
Y247487D01*
X418872Y246497D01*
X419385Y245609D01*
X420110Y244885D01*
X420997Y244372D01*
X421987Y244107D01*
X423013D01*
X424003Y244372D01*
X424891Y244885D01*
X425615Y245609D01*
X426128Y246497D01*
X426393Y247487D01*
Y248513D01*
X426128Y249503D01*
X425615Y250391D01*
X424891Y251115D01*
X424003Y251628D01*
X423013Y251893D01*
X421987D01*
X420997Y251628D01*
X420427Y251299D01*
X402867Y268859D01*
Y317500D01*
X402801Y317832D01*
X402613Y318113D01*
X387756Y332969D01*
X387980Y333241D01*
X388178Y333109D01*
X388509Y333043D01*
X389732D01*
X390650Y332124D01*
Y331732D01*
X390856Y331235D01*
X391235Y330855D01*
X391732Y330650D01*
X392268D01*
X392765Y330855D01*
X393144Y331235D01*
X393350Y331732D01*
Y332269D01*
X393144Y332765D01*
X392765Y333144D01*
X392268Y333350D01*
X391876D01*
X390703Y334522D01*
X390422Y334710D01*
X390090Y334776D01*
X388868D01*
X385365Y338279D01*
X385084Y338467D01*
X384843Y338515D01*
X384685Y338736D01*
X384650Y338843D01*
X384650Y338967D01*
Y340023D01*
X384973Y340157D01*
X388052Y337078D01*
X388333Y336891D01*
X388664Y336825D01*
X388981D01*
X389168Y336699D01*
X389500Y336633D01*
X389832Y336699D01*
X390113Y336887D01*
X390301Y337168D01*
X390367Y337500D01*
X390301Y337832D01*
X390113Y338113D01*
X389921Y338304D01*
X389640Y338492D01*
X389309Y338558D01*
X389023D01*
X387118Y340463D01*
X387252Y340787D01*
X389987D01*
X390659Y340115D01*
X390940Y339928D01*
X391272Y339862D01*
X392179D01*
X392511Y339928D01*
X392792Y340115D01*
X392965Y340288D01*
X393113Y340387D01*
X393301Y340668D01*
X393367Y341000D01*
X393301Y341332D01*
X393113Y341613D01*
X392832Y341801D01*
X392500Y341867D01*
X392451D01*
X392119Y341801D01*
X391838Y341613D01*
X391517Y341708D01*
X390959Y342266D01*
X390751Y342405D01*
X390822Y342755D01*
X394133D01*
Y342000D01*
X394199Y341668D01*
X394387Y341387D01*
X397150Y338624D01*
Y338231D01*
X397356Y337735D01*
X397735Y337355D01*
X398232Y337150D01*
X398768D01*
X399265Y337355D01*
X399644Y337735D01*
X399850Y338231D01*
Y338769D01*
X399644Y339265D01*
X399265Y339645D01*
X398768Y339850D01*
X398376D01*
X395867Y342359D01*
Y342755D01*
X400019D01*
X400650Y342124D01*
Y341732D01*
X400855Y341235D01*
X401235Y340856D01*
X401731Y340650D01*
X402269D01*
X402765Y340856D01*
X403145Y341235D01*
X403350Y341732D01*
Y342268D01*
X403145Y342765D01*
X402765Y343144D01*
X402269Y343350D01*
X401876D01*
X400997Y344229D01*
X400998Y344255D01*
X401106Y344579D01*
X405790D01*
X411374Y338995D01*
Y336714D01*
X411358Y336630D01*
Y335083D01*
X407034Y330759D01*
X406846Y330478D01*
X406780Y330147D01*
Y329582D01*
X403926D01*
Y319276D01*
X409074D01*
Y329582D01*
X408803D01*
X408658Y329932D01*
X412837Y334112D01*
X413025Y334393D01*
X413091Y334724D01*
Y334993D01*
X415815D01*
Y341007D01*
X411813D01*
X406762Y346058D01*
X406481Y346246D01*
X406149Y346312D01*
X402708D01*
X402575Y346635D01*
X405714Y349775D01*
X418748D01*
Y347733D01*
X425551D01*
Y353551D01*
X418748D01*
Y351508D01*
X405355D01*
X405024Y351442D01*
X404743Y351255D01*
X401150Y347662D01*
X394572D01*
X394252Y347733D01*
Y349775D01*
X400142D01*
X400473Y349841D01*
X400754Y350029D01*
X404876Y354150D01*
X405268D01*
X405765Y354356D01*
X406145Y354735D01*
X406350Y355231D01*
Y355768D01*
X406145Y356265D01*
X405765Y356645D01*
X405268Y356850D01*
X404732D01*
X404235Y356645D01*
X403856Y356265D01*
X403650Y355768D01*
Y355376D01*
X399783Y351508D01*
X394252D01*
Y352325D01*
X399576Y357650D01*
X399768D01*
X400265Y357856D01*
X400644Y358235D01*
X400850Y358732D01*
Y359268D01*
X400644Y359765D01*
X400265Y360144D01*
X399768Y360350D01*
X399232D01*
X398735Y360144D01*
X398356Y359765D01*
X398150Y359268D01*
Y358732D01*
X398167Y358691D01*
X393026Y353551D01*
X387449D01*
Y348295D01*
X387126Y348161D01*
X371674Y363613D01*
X371393Y363801D01*
X371061Y363867D01*
X331500D01*
X331168Y363801D01*
X330887Y363613D01*
X323887Y356613D01*
X323699Y356332D01*
X323633Y356000D01*
Y344993D01*
X323657Y344872D01*
X323403Y344522D01*
X317350D01*
Y344489D01*
X289237D01*
X272799Y360927D01*
X273128Y361497D01*
X273393Y362487D01*
Y363513D01*
X273128Y364503D01*
X272615Y365390D01*
X271890Y366115D01*
X271003Y366628D01*
X270013Y366893D01*
D02*
G37*
G36*
X353269Y338850D02*
X352731D01*
X352235Y338645D01*
X351855Y338265D01*
X351650Y337769D01*
Y337231D01*
X351855Y336735D01*
X352235Y336355D01*
X352731Y336150D01*
X353269D01*
X353765Y336355D01*
X354145Y336735D01*
X354350Y337231D01*
Y337769D01*
X354145Y338265D01*
X353765Y338645D01*
X353269Y338850D01*
D02*
G37*
G36*
X424500Y342367D02*
X424451D01*
X424119Y342301D01*
X423838Y342113D01*
X422750Y341024D01*
X420870D01*
X420538Y340958D01*
X420257Y340770D01*
X418887Y339400D01*
X418699Y339119D01*
X418633Y338787D01*
Y337213D01*
X418699Y336881D01*
X418887Y336600D01*
X420257Y335230D01*
X420538Y335042D01*
X420870Y334976D01*
X423749D01*
X423838Y334887D01*
X424119Y334699D01*
X424451Y334633D01*
X424500D01*
X424832Y334699D01*
X425113Y334887D01*
X425301Y335168D01*
X425367Y335500D01*
X425301Y335832D01*
X425113Y336113D01*
X424965Y336211D01*
X424721Y336455D01*
X424440Y336643D01*
X424109Y336709D01*
X421229D01*
X420367Y337572D01*
Y338428D01*
X421229Y339291D01*
X423108D01*
X423440Y339357D01*
X423721Y339545D01*
X424965Y340789D01*
X425113Y340887D01*
X425301Y341168D01*
X425367Y341500D01*
X425301Y341832D01*
X425113Y342113D01*
X424832Y342301D01*
X424500Y342367D01*
D02*
G37*
G36*
X369769Y336350D02*
X369232D01*
X368735Y336144D01*
X368355Y335765D01*
X368150Y335268D01*
Y334732D01*
X368355Y334235D01*
X368735Y333856D01*
X369232Y333650D01*
X369769D01*
X370265Y333856D01*
X370644Y334235D01*
X370850Y334732D01*
Y335268D01*
X370644Y335765D01*
X370265Y336144D01*
X369769Y336350D01*
D02*
G37*
G36*
X346768Y334850D02*
X346232D01*
X345735Y334645D01*
X345356Y334265D01*
X345150Y333769D01*
Y333231D01*
X345356Y332735D01*
X345735Y332355D01*
X346232Y332150D01*
X346768D01*
X347265Y332355D01*
X347644Y332735D01*
X347850Y333231D01*
Y333769D01*
X347644Y334265D01*
X347265Y334645D01*
X346768Y334850D01*
D02*
G37*
G36*
X421269Y332850D02*
X420731D01*
X420235Y332645D01*
X419855Y332265D01*
X419650Y331768D01*
Y331383D01*
X417849Y329582D01*
X415642D01*
Y330175D01*
X415576Y330507D01*
X415388Y330788D01*
X415350Y330827D01*
Y331269D01*
X415144Y331765D01*
X414765Y332144D01*
X414268Y332350D01*
X413731D01*
X413235Y332144D01*
X412855Y331765D01*
X412650Y331269D01*
Y330732D01*
X412855Y330235D01*
X413235Y329855D01*
X413731Y329650D01*
X413909D01*
Y326153D01*
X413926Y326070D01*
Y319276D01*
X419074D01*
Y328357D01*
X420868Y330150D01*
X421269D01*
X421765Y330356D01*
X422145Y330735D01*
X422350Y331231D01*
Y331768D01*
X422145Y332265D01*
X421765Y332645D01*
X421269Y332850D01*
D02*
G37*
G36*
X375269Y330350D02*
X374731D01*
X374235Y330145D01*
X373855Y329765D01*
X373650Y329269D01*
Y328731D01*
X373855Y328235D01*
X374235Y327855D01*
X374731Y327650D01*
X375269D01*
X375765Y327855D01*
X376145Y328235D01*
X376350Y328731D01*
Y329269D01*
X376145Y329765D01*
X375765Y330145D01*
X375269Y330350D01*
D02*
G37*
G36*
Y326350D02*
X374731D01*
X374235Y326145D01*
X373855Y325765D01*
X373650Y325269D01*
Y324731D01*
X373855Y324235D01*
X374235Y323855D01*
X374731Y323650D01*
X375269D01*
X375765Y323855D01*
X376145Y324235D01*
X376350Y324731D01*
Y325269D01*
X376145Y325765D01*
X375765Y326145D01*
X375269Y326350D01*
D02*
G37*
G36*
X275547Y325367D02*
X267000D01*
X266668Y325301D01*
X266387Y325113D01*
X266199Y324832D01*
X266133Y324500D01*
X266199Y324168D01*
X266387Y323887D01*
X266668Y323699D01*
X267000Y323633D01*
X275188D01*
X277632Y321190D01*
X277498Y320867D01*
X275521D01*
X274275Y322113D01*
X273994Y322301D01*
X273662Y322367D01*
X273500D01*
X273168Y322301D01*
X272887Y322113D01*
X272699Y321832D01*
X272633Y321500D01*
X272699Y321168D01*
X272887Y320887D01*
X273168Y320699D01*
X273255Y320682D01*
X274550Y319387D01*
X274831Y319199D01*
X275162Y319133D01*
X277944D01*
X278132Y318783D01*
X278082Y318709D01*
X277890D01*
X277558Y318643D01*
X277277Y318455D01*
X276188Y317367D01*
X269500D01*
X269168Y317301D01*
X268887Y317113D01*
X268699Y316832D01*
X268633Y316500D01*
X268699Y316168D01*
X268887Y315887D01*
X269168Y315699D01*
X269500Y315633D01*
X276547D01*
X276879Y315699D01*
X277160Y315887D01*
X278249Y316976D01*
X278677D01*
X279009Y317042D01*
X279290Y317230D01*
X280660Y318600D01*
X280848Y318881D01*
X280914Y319213D01*
Y320000D01*
X280848Y320332D01*
X280660Y320613D01*
X276160Y325113D01*
X275879Y325301D01*
X275547Y325367D01*
D02*
G37*
G36*
X374269Y322350D02*
X373731D01*
X373235Y322145D01*
X372855Y321765D01*
X372650Y321269D01*
Y320731D01*
X372855Y320235D01*
X373235Y319855D01*
X373731Y319650D01*
X374269D01*
X374765Y319855D01*
X375145Y320235D01*
X375350Y320731D01*
Y321269D01*
X375145Y321765D01*
X374765Y322145D01*
X374269Y322350D01*
D02*
G37*
G36*
X343268Y321350D02*
X342731D01*
X342235Y321145D01*
X341856Y320765D01*
X341650Y320269D01*
Y319731D01*
X341856Y319235D01*
X342235Y318856D01*
X342731Y318650D01*
X343268D01*
X343765Y318856D01*
X344145Y319235D01*
X344350Y319731D01*
Y320269D01*
X344145Y320765D01*
X343765Y321145D01*
X343268Y321350D01*
D02*
G37*
G36*
X338268Y320350D02*
X337732D01*
X337235Y320145D01*
X336856Y319765D01*
X336650Y319268D01*
Y318731D01*
X336856Y318235D01*
X337235Y317856D01*
X337732Y317650D01*
X338268D01*
X338765Y317856D01*
X339144Y318235D01*
X339350Y318731D01*
Y319268D01*
X339144Y319765D01*
X338765Y320145D01*
X338268Y320350D01*
D02*
G37*
G36*
X333769Y319850D02*
X333231D01*
X332735Y319644D01*
X332355Y319265D01*
X332150Y318769D01*
Y318232D01*
X332355Y317735D01*
X332735Y317355D01*
X333231Y317150D01*
X333769D01*
X334265Y317355D01*
X334645Y317735D01*
X334850Y318232D01*
Y318769D01*
X334645Y319265D01*
X334265Y319644D01*
X333769Y319850D01*
D02*
G37*
G36*
X373221Y317850D02*
X372684D01*
X372188Y317645D01*
X371808Y317265D01*
X371603Y316769D01*
Y316231D01*
X371808Y315735D01*
X372188Y315355D01*
X372684Y315150D01*
X373221D01*
X373717Y315355D01*
X374097Y315735D01*
X374303Y316231D01*
Y316769D01*
X374097Y317265D01*
X373717Y317645D01*
X373221Y317850D01*
D02*
G37*
G36*
X345768Y308850D02*
X345232D01*
X344735Y308645D01*
X344356Y308265D01*
X344150Y307769D01*
Y307231D01*
X344356Y306735D01*
X344735Y306356D01*
X345232Y306150D01*
X345768D01*
X346265Y306356D01*
X346644Y306735D01*
X346850Y307231D01*
Y307769D01*
X346644Y308265D01*
X346265Y308645D01*
X345768Y308850D01*
D02*
G37*
G36*
X352269Y308350D02*
X351731D01*
X351235Y308144D01*
X350855Y307765D01*
X350650Y307269D01*
Y306732D01*
X350855Y306235D01*
X351235Y305855D01*
X351731Y305650D01*
X352269D01*
X352765Y305855D01*
X353145Y306235D01*
X353350Y306732D01*
Y307269D01*
X353145Y307765D01*
X352765Y308144D01*
X352269Y308350D01*
D02*
G37*
G36*
X376269Y302850D02*
X375731D01*
X375235Y302644D01*
X374855Y302265D01*
X374650Y301768D01*
Y301232D01*
X374855Y300735D01*
X375235Y300356D01*
X375731Y300150D01*
X376269D01*
X376765Y300356D01*
X377145Y300735D01*
X377350Y301232D01*
Y301768D01*
X377145Y302265D01*
X376765Y302644D01*
X376269Y302850D01*
D02*
G37*
G36*
X331768Y302383D02*
X331231D01*
X330735Y302178D01*
X330356Y301798D01*
X330150Y301302D01*
Y300765D01*
X330356Y300269D01*
X330735Y299889D01*
X331231Y299683D01*
X331768D01*
X332265Y299889D01*
X332645Y300269D01*
X332741Y300502D01*
X333091Y300432D01*
Y300193D01*
X333296Y299697D01*
X333676Y299317D01*
X334173Y299111D01*
X334710D01*
X335206Y299317D01*
X335585Y299697D01*
X335791Y300193D01*
Y300730D01*
X335585Y301226D01*
X335206Y301606D01*
X334710Y301811D01*
X334173D01*
X333676Y301606D01*
X333296Y301226D01*
X333200Y300993D01*
X332850Y301063D01*
Y301302D01*
X332645Y301798D01*
X332265Y302178D01*
X331768Y302383D01*
D02*
G37*
G36*
X339268Y300303D02*
X338732D01*
X338235Y300097D01*
X337856Y299717D01*
X337650Y299221D01*
Y298684D01*
X337856Y298188D01*
X338235Y297808D01*
X338732Y297603D01*
X339268D01*
X339765Y297808D01*
X340144Y298188D01*
X340350Y298684D01*
Y299221D01*
X340144Y299717D01*
X339765Y300097D01*
X339268Y300303D01*
D02*
G37*
G36*
X345170Y300244D02*
X344633D01*
X344137Y300039D01*
X343757Y299659D01*
X343552Y299163D01*
Y298626D01*
X343757Y298130D01*
X344137Y297750D01*
X344633Y297545D01*
X345170D01*
X345666Y297750D01*
X346046Y298130D01*
X346252Y298626D01*
Y299163D01*
X346046Y299659D01*
X345666Y300039D01*
X345170Y300244D01*
D02*
G37*
G36*
X366051Y298488D02*
X365514D01*
X365018Y298283D01*
X364638Y297903D01*
X364432Y297407D01*
Y296870D01*
X364638Y296374D01*
X365018Y295994D01*
X365514Y295788D01*
X366051D01*
X366547Y295994D01*
X366927Y296374D01*
X367132Y296870D01*
Y297407D01*
X366927Y297903D01*
X366547Y298283D01*
X366051Y298488D01*
D02*
G37*
G36*
X332282Y297998D02*
X331950Y297932D01*
X331669Y297744D01*
X329858Y295933D01*
X329670Y295652D01*
X329604Y295320D01*
Y294436D01*
X329322Y294153D01*
X327957Y295517D01*
X327676Y295705D01*
X327344Y295771D01*
X326876D01*
X326832Y295801D01*
X326500Y295867D01*
X326168Y295801D01*
X325887Y295613D01*
X325699Y295332D01*
X325633Y295000D01*
X325699Y294668D01*
X325887Y294387D01*
X325983Y294291D01*
X326264Y294104D01*
X326596Y294038D01*
X326985D01*
X327850Y293173D01*
X327716Y292850D01*
X326478D01*
Y286350D01*
X328278D01*
Y289039D01*
X328628Y289145D01*
X328734Y288987D01*
X329015Y288799D01*
X329346Y288733D01*
X329678Y288799D01*
X329959Y288987D01*
X330065Y289145D01*
X330415Y289039D01*
Y286350D01*
X332033D01*
X332215Y286350D01*
Y286350D01*
X332383D01*
Y286350D01*
X334002D01*
X334184Y286350D01*
X334385Y286084D01*
Y238248D01*
X334451Y237916D01*
X334639Y237635D01*
X350887Y221387D01*
X351168Y221199D01*
X351500Y221133D01*
X387641D01*
X416541Y192233D01*
Y192123D01*
X416228Y191809D01*
X416040Y191528D01*
X415974Y191197D01*
Y188765D01*
Y186104D01*
X416040Y185772D01*
X416228Y185491D01*
X418109Y183609D01*
X418109Y183609D01*
X418100Y183600D01*
X419043Y182826D01*
X420119Y182251D01*
X420987Y181988D01*
X420996Y181662D01*
X420987Y181622D01*
X420110Y181115D01*
X419385Y180391D01*
X418872Y179503D01*
X418607Y178513D01*
Y177487D01*
X418872Y176497D01*
X419385Y175609D01*
X420110Y174885D01*
X420997Y174372D01*
X421987Y174107D01*
X423013D01*
X424003Y174372D01*
X424891Y174885D01*
X425615Y175609D01*
X426128Y176497D01*
X426393Y177487D01*
Y178513D01*
X426128Y179503D01*
X425615Y180391D01*
X424891Y181115D01*
X424003Y181628D01*
X423367Y181798D01*
Y182151D01*
X423301Y182483D01*
X423113Y182764D01*
X422820Y183057D01*
X422821Y183058D01*
X422834Y183071D01*
X422834Y183071D01*
X422834Y183071D01*
X422821Y183058D01*
X422580Y183297D01*
X422298Y183485D01*
X422052Y183534D01*
X422056Y183578D01*
X421340Y183672D01*
X420260Y184119D01*
X419599Y184627D01*
X419335Y184835D01*
X419088Y185083D01*
X417707Y186463D01*
Y190838D01*
X418020Y191151D01*
X418208Y191432D01*
X418274Y191764D01*
Y192505D01*
X418487Y192633D01*
X418617Y192657D01*
X420069Y191206D01*
X420090Y191096D01*
X419385Y190391D01*
X418872Y189503D01*
X418607Y188513D01*
Y187487D01*
X418872Y186497D01*
X419385Y185609D01*
X420110Y184885D01*
X420997Y184372D01*
X421987Y184107D01*
X423013D01*
X424003Y184372D01*
X424891Y184885D01*
X425615Y185609D01*
X426128Y186497D01*
X426393Y187487D01*
Y188513D01*
X426128Y189503D01*
X425615Y190391D01*
X424891Y191115D01*
X424003Y191628D01*
X423013Y191893D01*
X421987D01*
X421735Y191898D01*
X421547Y192179D01*
X416477Y197248D01*
X416502Y197379D01*
X416630Y197591D01*
X418607D01*
Y197487D01*
X418872Y196497D01*
X419385Y195609D01*
X420110Y194885D01*
X420997Y194372D01*
X421987Y194107D01*
X423013D01*
X424003Y194372D01*
X424891Y194885D01*
X425615Y195609D01*
X426128Y196497D01*
X426393Y197487D01*
Y198513D01*
X426128Y199503D01*
X425615Y200391D01*
X424891Y201115D01*
X424003Y201628D01*
X423013Y201893D01*
X421987D01*
X420997Y201628D01*
X420110Y201115D01*
X419385Y200391D01*
X418872Y199503D01*
X418824Y199324D01*
X416901D01*
X390613Y225613D01*
X390332Y225801D01*
X390000Y225867D01*
X354359D01*
X340056Y240170D01*
Y286084D01*
X340258Y286350D01*
X340439Y286350D01*
X341876D01*
X342057Y286350D01*
X342407Y286350D01*
X343845D01*
X344026Y286350D01*
X344376Y286350D01*
X345813D01*
X345994Y286350D01*
X346344Y286350D01*
X347781D01*
X347963Y286350D01*
X348313Y286350D01*
X349750D01*
X349932Y286350D01*
X350282Y286350D01*
X351718D01*
X351900Y286350D01*
X352250Y286350D01*
X353687D01*
X353869Y286350D01*
X354070Y286084D01*
Y254063D01*
X354136Y253731D01*
X354324Y253450D01*
X363025Y244749D01*
X362785Y244332D01*
X362550Y243454D01*
Y242546D01*
X362785Y241668D01*
X363239Y240881D01*
X363881Y240239D01*
X364668Y239785D01*
X365546Y239550D01*
X366454D01*
X367332Y239785D01*
X368119Y240239D01*
X368761Y240881D01*
X369215Y241668D01*
X369450Y242546D01*
Y243454D01*
X369215Y244332D01*
X368761Y245119D01*
X368119Y245761D01*
X367332Y246215D01*
X366454Y246450D01*
X365546D01*
X364668Y246215D01*
X364251Y245974D01*
X355804Y254422D01*
Y261619D01*
X356154Y261690D01*
X356293Y261482D01*
X363025Y254749D01*
X362785Y254332D01*
X362550Y253454D01*
Y252546D01*
X362785Y251668D01*
X363239Y250881D01*
X363881Y250239D01*
X364668Y249785D01*
X365546Y249550D01*
X366454D01*
X367332Y249785D01*
X368119Y250239D01*
X368761Y250881D01*
X369215Y251668D01*
X369450Y252546D01*
Y253454D01*
X369215Y254332D01*
X368761Y255119D01*
X368119Y255761D01*
X367332Y256215D01*
X366454Y256450D01*
X365546D01*
X364668Y256215D01*
X364251Y255975D01*
X357772Y262454D01*
Y286084D01*
X357974Y286350D01*
X358155Y286350D01*
X359593D01*
X359774Y286350D01*
X360124Y286350D01*
X361561D01*
X361742Y286350D01*
X362092Y286350D01*
X363529D01*
X363711Y286350D01*
X364061Y286350D01*
X365498D01*
X365680Y286350D01*
X366030Y286350D01*
X367466D01*
X367648Y286350D01*
X367850Y286084D01*
Y282575D01*
X366124Y280850D01*
X365732D01*
X365235Y280644D01*
X364856Y280265D01*
X364650Y279768D01*
Y279232D01*
X364856Y278735D01*
X365235Y278356D01*
X365732Y278150D01*
X366268D01*
X366765Y278356D01*
X367144Y278735D01*
X367350Y279232D01*
Y279624D01*
X369329Y281604D01*
X369517Y281885D01*
X369583Y282217D01*
Y286084D01*
X369785Y286350D01*
X371023D01*
X371157Y286027D01*
X370387Y285257D01*
X370199Y284976D01*
X370133Y284644D01*
Y280000D01*
X370199Y279668D01*
X370387Y279387D01*
X370668Y279199D01*
X371000Y279133D01*
X371332Y279199D01*
X371613Y279387D01*
X371801Y279668D01*
X371867Y280000D01*
Y284285D01*
X372628Y285047D01*
X373443Y284233D01*
Y283691D01*
X373509Y283359D01*
X373697Y283078D01*
X375387Y281387D01*
X375668Y281199D01*
X376000Y281133D01*
X376332Y281199D01*
X376613Y281387D01*
X376801Y281668D01*
X376867Y282000D01*
X376801Y282332D01*
X376613Y282613D01*
X375176Y284050D01*
Y284592D01*
X375110Y284924D01*
X374922Y285205D01*
X374100Y286027D01*
X374234Y286350D01*
X375522D01*
Y292850D01*
X375439D01*
Y295029D01*
X375644Y295235D01*
X375850Y295731D01*
Y296269D01*
X375644Y296765D01*
X375265Y297145D01*
X374768Y297350D01*
X374232D01*
X373735Y297145D01*
X373356Y296765D01*
X373150Y296269D01*
Y295731D01*
X373356Y295235D01*
X373705Y294885D01*
Y290186D01*
X373355Y290080D01*
X373266Y290213D01*
X372985Y290401D01*
X372654Y290467D01*
X372322Y290401D01*
X372041Y290213D01*
X371935Y290055D01*
X371585Y290161D01*
Y292850D01*
X371502D01*
Y292952D01*
X371436Y293284D01*
X371248Y293565D01*
X370413Y294400D01*
X370131Y294588D01*
X369800Y294654D01*
X369402D01*
X369402Y294654D01*
X363850D01*
Y294769D01*
X363645Y295265D01*
X363265Y295644D01*
X362769Y295850D01*
X362231D01*
X361735Y295644D01*
X361355Y295265D01*
X361150Y294769D01*
Y294232D01*
X361355Y293735D01*
X361735Y293355D01*
X362111Y293200D01*
X362041Y292850D01*
X361911D01*
X361561Y292850D01*
X360124D01*
X359943Y292850D01*
X359593Y292850D01*
X358155D01*
X357974Y292850D01*
X357624Y292850D01*
X356187D01*
X356006Y292850D01*
X355656Y292850D01*
X354219D01*
X354037Y292850D01*
X353687Y292850D01*
X352250D01*
X352068Y292850D01*
X351718Y292850D01*
X350282D01*
X350100Y292850D01*
X349750Y292850D01*
X348313D01*
X348131Y292850D01*
X347781Y292850D01*
X346344D01*
X346163Y292850D01*
X345813Y292850D01*
X344376D01*
X344195Y292850D01*
X343845Y292850D01*
X342407D01*
X342226Y292850D01*
X341876Y292850D01*
X340439D01*
X340258Y292850D01*
X339908Y292850D01*
X338289D01*
Y292850D01*
X338120D01*
Y292850D01*
X336320D01*
Y292850D01*
X336152D01*
Y292850D01*
X334534D01*
X334352Y292850D01*
X334002Y292850D01*
X332946D01*
X332812Y293173D01*
X333580Y293942D01*
X340649D01*
X340735Y293856D01*
X341231Y293650D01*
X341769D01*
X342265Y293856D01*
X342645Y294235D01*
X342850Y294731D01*
Y295269D01*
X342645Y295765D01*
X342265Y296145D01*
X341769Y296350D01*
X341231D01*
X340735Y296145D01*
X340355Y295765D01*
X340318Y295675D01*
X333222D01*
X332890Y295609D01*
X332609Y295422D01*
X331661Y294474D01*
X331338Y294608D01*
Y294961D01*
X332895Y296519D01*
X333083Y296800D01*
X333149Y297131D01*
X333083Y297463D01*
X332895Y297744D01*
X332614Y297932D01*
X332282Y297998D01*
D02*
G37*
G36*
X294268Y295350D02*
X293731D01*
X293235Y295145D01*
X292856Y294765D01*
X292650Y294268D01*
Y293876D01*
X287141Y288367D01*
X224901D01*
X224770Y288855D01*
X224308Y289655D01*
X223655Y290308D01*
X222855Y290770D01*
X221962Y291009D01*
X221038D01*
X220145Y290770D01*
X219345Y290308D01*
X218692Y289655D01*
X218230Y288855D01*
X217990Y287962D01*
Y287038D01*
X218230Y286145D01*
X218692Y285345D01*
X219345Y284692D01*
X220145Y284230D01*
X221038Y283991D01*
X221962D01*
X222855Y284230D01*
X223655Y284692D01*
X224308Y285345D01*
X224770Y286145D01*
X224901Y286633D01*
X287500D01*
X287832Y286699D01*
X288113Y286887D01*
X293876Y292650D01*
X294268D01*
X294765Y292856D01*
X295145Y293235D01*
X295350Y293731D01*
Y294268D01*
X295145Y294765D01*
X294765Y295145D01*
X294268Y295350D01*
D02*
G37*
G36*
X416500Y291438D02*
X416168Y291371D01*
X415887Y291184D01*
X415699Y290902D01*
X415633Y290571D01*
Y287992D01*
Y282000D01*
X415699Y281668D01*
X415887Y281387D01*
X416168Y281199D01*
X416500Y281133D01*
X416832Y281199D01*
X417113Y281387D01*
X417301Y281668D01*
X417367Y282000D01*
Y285442D01*
X417690Y285577D01*
X421845Y281422D01*
X422126Y281234D01*
X422458Y281168D01*
X423826D01*
X424000Y281133D01*
X424332Y281199D01*
X424613Y281387D01*
X424801Y281668D01*
X424867Y282000D01*
X424801Y282332D01*
X424613Y282613D01*
X424578Y282647D01*
X424297Y282835D01*
X423965Y282901D01*
X422817D01*
X417367Y288351D01*
Y290571D01*
X417301Y290902D01*
X417113Y291184D01*
X416832Y291371D01*
X416500Y291438D01*
D02*
G37*
G36*
X299269Y294350D02*
X298731D01*
X298235Y294145D01*
X297855Y293765D01*
X297650Y293268D01*
Y292876D01*
X281641Y276867D01*
X225141D01*
X225009Y277038D01*
Y277962D01*
X224770Y278855D01*
X224308Y279655D01*
X223655Y280308D01*
X222855Y280770D01*
X221962Y281010D01*
X221038D01*
X220145Y280770D01*
X219345Y280308D01*
X218692Y279655D01*
X218230Y278855D01*
X217990Y277962D01*
Y277038D01*
X218230Y276145D01*
X218692Y275345D01*
X219345Y274692D01*
X220145Y274230D01*
X221038Y273991D01*
X221962D01*
X222855Y274230D01*
X223655Y274692D01*
X224153Y275190D01*
X224439Y275133D01*
X282000D01*
X282332Y275199D01*
X282613Y275387D01*
X298876Y291650D01*
X299269D01*
X299765Y291856D01*
X300145Y292235D01*
X300350Y292731D01*
Y293268D01*
X300145Y293765D01*
X299765Y294145D01*
X299269Y294350D01*
D02*
G37*
G36*
X406500Y291438D02*
X406168Y291371D01*
X405887Y291184D01*
X404305Y289601D01*
X404117Y289320D01*
X404051Y288989D01*
Y271959D01*
X404117Y271627D01*
X404305Y271346D01*
X404586Y271158D01*
X404918Y271092D01*
X405249Y271158D01*
X405531Y271346D01*
X405719Y271627D01*
X405785Y271959D01*
Y288630D01*
X406077Y288922D01*
X407358Y287641D01*
Y276825D01*
X407424Y276493D01*
X407612Y276212D01*
X408288Y275535D01*
X408387Y275387D01*
X408668Y275199D01*
X409000Y275133D01*
X409332Y275199D01*
X409613Y275387D01*
X409801Y275668D01*
X409867Y276000D01*
Y276049D01*
X409801Y276381D01*
X409613Y276662D01*
X409091Y277184D01*
Y288000D01*
X409025Y288332D01*
X408837Y288613D01*
X407367Y290083D01*
Y290571D01*
X407301Y290902D01*
X407113Y291184D01*
X406832Y291371D01*
X406500Y291438D01*
D02*
G37*
G36*
X304269Y294350D02*
X303731D01*
X303235Y294145D01*
X302855Y293765D01*
X302650Y293268D01*
Y292876D01*
X278141Y268367D01*
X224901D01*
X224770Y268855D01*
X224308Y269655D01*
X223655Y270308D01*
X222855Y270770D01*
X221962Y271009D01*
X221038D01*
X220145Y270770D01*
X219345Y270308D01*
X218692Y269655D01*
X218230Y268855D01*
X217990Y267962D01*
Y267038D01*
X218230Y266145D01*
X218692Y265345D01*
X219345Y264692D01*
X220145Y264230D01*
X221038Y263990D01*
X221962D01*
X222855Y264230D01*
X223655Y264692D01*
X224308Y265345D01*
X224770Y266145D01*
X224901Y266633D01*
X278500D01*
X278832Y266699D01*
X279113Y266887D01*
X303876Y291650D01*
X304269D01*
X304765Y291856D01*
X305145Y292235D01*
X305350Y292731D01*
Y293268D01*
X305145Y293765D01*
X304765Y294145D01*
X304269Y294350D01*
D02*
G37*
G36*
X369450Y266450D02*
X362550D01*
Y259550D01*
X369450D01*
Y266450D01*
D02*
G37*
G36*
X306269Y283350D02*
X305732D01*
X305235Y283144D01*
X304855Y282765D01*
X304650Y282269D01*
Y281876D01*
X282141Y259367D01*
X224475D01*
X224308Y259655D01*
X223655Y260308D01*
X222855Y260770D01*
X221962Y261010D01*
X221038D01*
X220145Y260770D01*
X219345Y260308D01*
X218692Y259655D01*
X218230Y258855D01*
X217990Y257962D01*
Y257038D01*
X218230Y256145D01*
X218692Y255345D01*
X219345Y254692D01*
X220145Y254230D01*
X221038Y253991D01*
X221962D01*
X222855Y254230D01*
X223655Y254692D01*
X224308Y255345D01*
X224770Y256145D01*
X225009Y257038D01*
Y257633D01*
X282500D01*
X282832Y257699D01*
X283113Y257887D01*
X305876Y280650D01*
X306269D01*
X306765Y280855D01*
X307144Y281235D01*
X307350Y281732D01*
Y282269D01*
X307144Y282765D01*
X306765Y283144D01*
X306269Y283350D01*
D02*
G37*
G36*
X299269Y258350D02*
X298731D01*
X298235Y258144D01*
X297855Y257765D01*
X297650Y257269D01*
Y256732D01*
X297855Y256235D01*
X298133Y255958D01*
Y255359D01*
X291141Y248367D01*
X224901D01*
X224770Y248855D01*
X224308Y249655D01*
X223655Y250308D01*
X222855Y250770D01*
X221962Y251009D01*
X221038D01*
X220145Y250770D01*
X219345Y250308D01*
X218692Y249655D01*
X218230Y248855D01*
X217990Y247962D01*
Y247038D01*
X218230Y246145D01*
X218692Y245345D01*
X219345Y244692D01*
X220145Y244230D01*
X221038Y243990D01*
X221962D01*
X222855Y244230D01*
X223655Y244692D01*
X224308Y245345D01*
X224770Y246145D01*
X224901Y246633D01*
X291223D01*
X291387Y246387D01*
X294306Y243468D01*
Y243327D01*
X294372Y242996D01*
X294560Y242715D01*
X297650Y239624D01*
Y239231D01*
X297855Y238735D01*
X298235Y238355D01*
X298731Y238150D01*
X299269D01*
X299765Y238355D01*
X300145Y238735D01*
X300350Y239231D01*
Y239769D01*
X300145Y240265D01*
X299765Y240645D01*
X299269Y240850D01*
X298876D01*
X296148Y243577D01*
X298661Y246091D01*
X299054D01*
X299551Y246296D01*
X299930Y246676D01*
X300136Y247172D01*
Y247709D01*
X299930Y248205D01*
X299551Y248585D01*
X299054Y248791D01*
X298517D01*
X298021Y248585D01*
X297641Y248205D01*
X297436Y247709D01*
Y247316D01*
X295173Y245053D01*
X292726Y247500D01*
X299613Y254387D01*
X299801Y254668D01*
X299867Y255000D01*
Y255958D01*
X300145Y256235D01*
X300350Y256732D01*
Y257269D01*
X300145Y257765D01*
X299765Y258144D01*
X299269Y258350D01*
D02*
G37*
G36*
X394268Y208850D02*
X393731D01*
X393235Y208645D01*
X392856Y208265D01*
X392650Y207769D01*
Y207231D01*
X392856Y206735D01*
X393235Y206356D01*
X393731Y206150D01*
X393874D01*
Y204633D01*
X393012D01*
Y198815D01*
X396468D01*
Y204633D01*
X395607D01*
Y206711D01*
X395541Y207043D01*
X395353Y207324D01*
X395350Y207327D01*
Y207769D01*
X395145Y208265D01*
X394765Y208645D01*
X394268Y208850D01*
D02*
G37*
G36*
X386268Y211350D02*
X385732D01*
X385235Y211144D01*
X384856Y210765D01*
X384650Y210268D01*
Y209732D01*
X384856Y209235D01*
X385235Y208856D01*
X385732Y208650D01*
X386075D01*
X386393Y208332D01*
Y204633D01*
X385532D01*
Y198815D01*
X388988D01*
Y204633D01*
X388126D01*
Y208691D01*
X388060Y209023D01*
X387873Y209304D01*
X387350Y209827D01*
Y210268D01*
X387144Y210765D01*
X386765Y211144D01*
X386268Y211350D01*
D02*
G37*
G36*
X374768Y214350D02*
X374232D01*
X373735Y214144D01*
X373356Y213765D01*
X373150Y213268D01*
Y212732D01*
X373356Y212235D01*
X373633Y211958D01*
Y206217D01*
X373699Y205885D01*
X373887Y205604D01*
X385532Y193959D01*
Y193142D01*
X384083D01*
X364850Y212376D01*
Y212769D01*
X364645Y213265D01*
X364265Y213645D01*
X363769Y213850D01*
X363231D01*
X362735Y213645D01*
X362355Y213265D01*
X362150Y212769D01*
Y212231D01*
X362355Y211735D01*
X362735Y211355D01*
X363231Y211150D01*
X363624D01*
X383112Y191663D01*
X383367Y191492D01*
X383370Y191467D01*
X383156Y191142D01*
X380583D01*
X372350Y199376D01*
Y199768D01*
X372145Y200265D01*
X371765Y200644D01*
X371269Y200850D01*
X370731D01*
X370235Y200644D01*
X369855Y200265D01*
X369650Y199768D01*
Y199232D01*
X369855Y198735D01*
X370235Y198355D01*
X370731Y198150D01*
X371124D01*
X379159Y190116D01*
X379025Y189792D01*
X375844D01*
X375832Y189801D01*
X375500Y189867D01*
X375168Y189801D01*
X374887Y189613D01*
X374699Y189332D01*
X374633Y189000D01*
X374699Y188668D01*
X374887Y188387D01*
X374962Y188313D01*
X375243Y188125D01*
X375574Y188059D01*
X379806D01*
X380478Y187387D01*
X380733Y187217D01*
X380736Y187191D01*
X380522Y186867D01*
X370538D01*
X370207Y186801D01*
X369926Y186613D01*
X369738Y186332D01*
X369672Y186000D01*
X369738Y185668D01*
X369926Y185387D01*
X370207Y185199D01*
X370538Y185133D01*
X380057D01*
X380127Y184783D01*
X379919Y184644D01*
X375387Y180113D01*
X375199Y179832D01*
X375133Y179500D01*
X375199Y179168D01*
X375387Y178887D01*
X375668Y178699D01*
X376000Y178633D01*
X376332Y178699D01*
X376613Y178887D01*
X380890Y183165D01*
X384463D01*
X384677Y182840D01*
X384674Y182815D01*
X384419Y182644D01*
X381387Y179613D01*
X381199Y179332D01*
X381133Y179000D01*
X381199Y178668D01*
X381387Y178387D01*
X381668Y178199D01*
X382000Y178133D01*
X382332Y178199D01*
X382613Y178387D01*
X385390Y181165D01*
X397020D01*
X397351Y181231D01*
X397633Y181419D01*
X398707Y182493D01*
X398895Y182775D01*
X398961Y183106D01*
Y186906D01*
X398895Y187237D01*
X398813Y187360D01*
X399085Y187583D01*
X402075Y184593D01*
Y181182D01*
X403133D01*
Y177819D01*
X402075D01*
Y173181D01*
X405925D01*
Y177819D01*
X404867D01*
Y181182D01*
X405925D01*
Y185819D01*
X403301D01*
X398290Y190829D01*
X398009Y191017D01*
X397677Y191083D01*
X396468D01*
Y195185D01*
X393012D01*
Y191961D01*
X392688Y191751D01*
X392662Y191754D01*
X392491Y192010D01*
X391613Y192888D01*
X391332Y193076D01*
X391000Y193142D01*
X390668Y193076D01*
X390387Y192888D01*
X389509Y192010D01*
X389338Y191754D01*
X389312Y191751D01*
X388988Y191961D01*
Y195185D01*
X386757D01*
X375367Y206575D01*
Y211958D01*
X375644Y212235D01*
X375850Y212732D01*
Y213268D01*
X375644Y213765D01*
X375265Y214144D01*
X374768Y214350D01*
D02*
G37*
G36*
X291500Y224879D02*
X232000D01*
X231732Y224768D01*
X231621Y224500D01*
Y194183D01*
X231648Y194118D01*
X231646Y194048D01*
X231701Y193989D01*
X231732Y193915D01*
X231806Y193671D01*
X231764Y193490D01*
X228387Y190113D01*
X228387Y190113D01*
X225300Y187026D01*
X224950Y187171D01*
Y188450D01*
X218050D01*
Y181550D01*
X224950D01*
Y185148D01*
X225515D01*
X225846Y185214D01*
X226127Y185402D01*
X227810Y187084D01*
X228133Y186950D01*
Y166086D01*
X228199Y165754D01*
X228387Y165473D01*
X228973Y164887D01*
X229254Y164699D01*
X229586Y164633D01*
X230670D01*
Y162681D01*
X234519D01*
Y167318D01*
X230670D01*
Y166367D01*
X229945D01*
X229867Y166445D01*
Y189141D01*
X233142Y192417D01*
X233492Y192272D01*
Y192233D01*
X239508D01*
Y193621D01*
X291500D01*
X291768Y193732D01*
X291879Y194000D01*
Y224500D01*
X291768Y224768D01*
X291500Y224879D01*
D02*
G37*
G36*
Y227867D02*
X229500Y227867D01*
X229168Y227801D01*
X228887Y227613D01*
X228699Y227332D01*
X228633Y227000D01*
Y219359D01*
X223725Y214450D01*
X218050D01*
Y207550D01*
X224950D01*
Y213225D01*
X230113Y218387D01*
X230301Y218668D01*
X230367Y219000D01*
Y226133D01*
X291141Y226133D01*
X293633Y223641D01*
Y200068D01*
X293699Y199736D01*
X293887Y199455D01*
X298942Y194400D01*
Y193800D01*
X294950D01*
X294618Y193734D01*
X294337Y193546D01*
X294149Y193265D01*
X294083Y192933D01*
Y164586D01*
X294149Y164254D01*
X294337Y163973D01*
X294923Y163387D01*
X295204Y163199D01*
X295536Y163133D01*
X296620D01*
Y161681D01*
X300469D01*
Y166319D01*
X296620D01*
Y164867D01*
X295895D01*
X295817Y164945D01*
Y192066D01*
X298942D01*
Y191185D01*
X304958D01*
Y192621D01*
X357500D01*
X357768Y192732D01*
X357879Y193000D01*
Y220000D01*
X357768Y220268D01*
X357500Y220379D01*
X296909D01*
X296641Y220268D01*
X296531Y220000D01*
Y199721D01*
X296207Y199587D01*
X295367Y200427D01*
Y224000D01*
X295301Y224332D01*
X295113Y224613D01*
X292113Y227613D01*
X291832Y227801D01*
X291500Y227867D01*
D02*
G37*
G36*
X279681Y190401D02*
X270319D01*
Y188879D01*
X264500D01*
X264232Y188768D01*
X264121Y188500D01*
Y185147D01*
X260647D01*
Y185414D01*
X260581Y185746D01*
X260393Y186027D01*
X259807Y186613D01*
X259526Y186801D01*
X259194Y186867D01*
X250507D01*
Y188220D01*
X244493D01*
Y183780D01*
X250507D01*
Y185133D01*
X258835D01*
X258913Y185055D01*
Y184778D01*
X258979Y184446D01*
X259167Y184165D01*
X259665Y183667D01*
X259946Y183479D01*
X260278Y183413D01*
X264121D01*
Y178000D01*
X264225Y177749D01*
Y177550D01*
X268775D01*
Y177621D01*
X279500D01*
X279768Y177732D01*
X279879Y178000D01*
Y188500D01*
X279768Y188768D01*
X279681Y188804D01*
Y190401D01*
D02*
G37*
G36*
X345681Y189901D02*
X336319D01*
Y187879D01*
X330450D01*
X330182Y187768D01*
X330071Y187500D01*
Y184013D01*
X330042Y183990D01*
X327294D01*
X325265Y186018D01*
X324984Y186206D01*
X324652Y186272D01*
X316007D01*
Y187626D01*
X309993D01*
Y183185D01*
X316007D01*
Y184539D01*
X324293D01*
X326322Y182510D01*
X326603Y182322D01*
X326935Y182256D01*
X329683D01*
X330287Y181652D01*
X330182Y181300D01*
X330153Y181230D01*
X330100Y181177D01*
Y181102D01*
X330071Y181032D01*
Y179690D01*
X330050D01*
Y176790D01*
X330050D01*
X330145Y176646D01*
X330248Y176321D01*
X330194Y176190D01*
X330137Y176061D01*
X330135Y175950D01*
X330050D01*
Y173050D01*
X330158D01*
X330182Y172988D01*
X330184Y172987D01*
X330185Y172985D01*
X330429Y172735D01*
X330432Y172734D01*
X330432Y172732D01*
X330564Y172677D01*
X330696Y172621D01*
X330698Y172622D01*
X330700Y172621D01*
X336293D01*
X336964Y171950D01*
X336830Y171626D01*
X334600D01*
Y172210D01*
X330050D01*
Y169310D01*
X334600D01*
Y169893D01*
X340442D01*
Y167780D01*
X346458D01*
Y169621D01*
X349942D01*
Y167780D01*
X355958D01*
Y169621D01*
X357950D01*
X358218Y169732D01*
X358329Y170000D01*
Y176000D01*
X358218Y176268D01*
X358165Y176321D01*
X357897Y176432D01*
X345875D01*
X345738Y176782D01*
X345829Y177000D01*
Y187500D01*
X345718Y187768D01*
X345681Y187783D01*
Y189901D01*
D02*
G37*
G36*
X250507Y182315D02*
X244493D01*
Y177874D01*
X250507D01*
Y178133D01*
X253475D01*
Y177550D01*
X258025D01*
Y180450D01*
X253475D01*
Y179867D01*
X250507D01*
Y182315D01*
D02*
G37*
G36*
X400019Y177819D02*
X396170D01*
Y176867D01*
X388543D01*
X388265Y177145D01*
X387769Y177350D01*
X387231D01*
X386735Y177145D01*
X386355Y176765D01*
X386150Y176268D01*
Y175732D01*
X386355Y175235D01*
X386735Y174855D01*
X387231Y174650D01*
X387769D01*
X388265Y174855D01*
X388543Y175133D01*
X396170D01*
Y174749D01*
X396013Y174644D01*
X392736Y171367D01*
X390042D01*
X389765Y171644D01*
X389268Y171850D01*
X388732D01*
X388235Y171644D01*
X387856Y171265D01*
X387650Y170768D01*
Y170231D01*
X387856Y169735D01*
X388235Y169355D01*
X388732Y169150D01*
X389268D01*
X389765Y169355D01*
X390042Y169633D01*
X393094D01*
X393426Y169699D01*
X393707Y169887D01*
X396985Y173165D01*
X397020D01*
X397103Y173181D01*
X400019D01*
Y177819D01*
D02*
G37*
G36*
X316007Y181720D02*
X309993D01*
Y177280D01*
X316007D01*
Y178228D01*
X319300D01*
Y176790D01*
X323850D01*
Y179690D01*
X320526D01*
X320509Y179707D01*
X320227Y179895D01*
X319896Y179961D01*
X316007D01*
Y181720D01*
D02*
G37*
G36*
X291947Y176932D02*
X264566D01*
X264436Y176878D01*
X264304Y176826D01*
X264302Y176822D01*
X264298Y176821D01*
X264252Y176710D01*
X264225D01*
Y176646D01*
X264187Y176561D01*
X264127Y173758D01*
X264127Y173756D01*
X264127Y173754D01*
X264180Y173621D01*
X264232Y173488D01*
X264234Y173487D01*
X264235Y173485D01*
X264397Y173320D01*
X264278Y172970D01*
X264225D01*
Y170070D01*
X268775D01*
Y170653D01*
X274493D01*
Y168733D01*
X280507D01*
Y170121D01*
X283993D01*
Y168685D01*
X290007D01*
Y170121D01*
X292000D01*
X292268Y170232D01*
X292379Y170500D01*
Y176500D01*
X292268Y176768D01*
X292215Y176821D01*
X291947Y176932D01*
D02*
G37*
G36*
X258025Y172970D02*
X253475D01*
Y171295D01*
X249046Y166867D01*
X248319D01*
Y167425D01*
X243682D01*
Y165867D01*
X240425D01*
Y167318D01*
X236575D01*
Y162681D01*
X240425D01*
Y164133D01*
X243682D01*
Y163575D01*
X248319D01*
Y165133D01*
X249405D01*
X249737Y165199D01*
X250018Y165387D01*
X254701Y170070D01*
X258025D01*
Y172970D01*
D02*
G37*
G36*
X323850Y172210D02*
X319300D01*
Y170536D01*
X315950Y167185D01*
D01*
X315764Y167000D01*
X314706Y165942D01*
X313025D01*
X312941Y165925D01*
X309631D01*
Y164867D01*
X306375D01*
Y166319D01*
X302525D01*
Y161681D01*
X306375D01*
Y163133D01*
X309631D01*
Y162075D01*
X314268D01*
Y164208D01*
X315065D01*
X315397Y164274D01*
X315678Y164462D01*
X320526Y169310D01*
X323850D01*
Y172210D01*
D02*
G37*
G36*
X224950Y162450D02*
X218050D01*
Y155550D01*
X224950D01*
Y162450D01*
D02*
G37*
G36*
X426393Y161893D02*
X418607D01*
Y154107D01*
X426393D01*
Y161893D01*
D02*
G37*
%LPD*%
G36*
X373468Y347123D02*
X373643Y346825D01*
X370184Y343367D01*
X344146D01*
X340686Y346827D01*
X340820Y347150D01*
X341876D01*
X342057Y347150D01*
X342407Y347150D01*
X343845D01*
X344026Y347150D01*
X344376Y347150D01*
X345813D01*
X345994Y347150D01*
X346344Y347150D01*
X347963D01*
Y347150D01*
X348131D01*
Y347150D01*
X349750D01*
X349932Y347150D01*
X350282Y347150D01*
X351718D01*
X351900Y347150D01*
X352250Y347150D01*
X353687D01*
X353869Y347150D01*
X354219Y347150D01*
X355656D01*
X355837Y347150D01*
X356187Y347150D01*
X357624D01*
X357805Y347150D01*
X358155Y347150D01*
X359593D01*
X359774Y347150D01*
X360124Y347150D01*
X361561D01*
X361742Y347150D01*
X362092Y347150D01*
X363529D01*
X363711Y347150D01*
X364061Y347150D01*
X365498D01*
X365680Y347150D01*
X366030Y347150D01*
X367466D01*
X367648Y347150D01*
X367998Y347150D01*
X369435D01*
X369617Y347150D01*
X369967Y347150D01*
X371404D01*
X371585Y347150D01*
X371935Y347150D01*
X373449D01*
X373468Y347123D01*
D02*
G37*
G36*
X326633Y331063D02*
Y320859D01*
X324723Y318948D01*
X324137D01*
X323850Y319100D01*
Y320900D01*
X323850D01*
Y321069D01*
X323850D01*
Y322687D01*
X323850Y322868D01*
X323850Y323218D01*
Y324837D01*
X321161D01*
X321055Y325187D01*
X321213Y325293D01*
X321401Y325574D01*
X321467Y325905D01*
X321401Y326237D01*
X321213Y326518D01*
X321055Y326624D01*
X321161Y326974D01*
X323850D01*
Y328592D01*
X323850Y328774D01*
X323850Y329124D01*
Y330561D01*
X323850Y330743D01*
X323850Y331093D01*
Y332711D01*
X323850Y332711D01*
Y332880D01*
X323850D01*
X323850Y333061D01*
Y333377D01*
X324093Y333485D01*
X324200Y333496D01*
X326633Y331063D01*
D02*
G37*
G36*
X182717Y312354D02*
X182887Y312099D01*
X183473Y311513D01*
X183754Y311325D01*
X184086Y311259D01*
X317084D01*
X317350Y311057D01*
X317350Y310876D01*
Y309406D01*
X317350Y309258D01*
X317084Y309056D01*
X314719D01*
X313662Y310113D01*
X313381Y310301D01*
X313049Y310367D01*
X313000D01*
X312668Y310301D01*
X312387Y310113D01*
X312199Y309832D01*
X312133Y309500D01*
X312199Y309168D01*
X312387Y308887D01*
X312535Y308788D01*
X313133Y308190D01*
X312999Y307867D01*
X309000D01*
X308668Y307801D01*
X308387Y307613D01*
X308199Y307332D01*
X308133Y307000D01*
X308199Y306668D01*
X308387Y306387D01*
X308668Y306199D01*
X309000Y306133D01*
X314311D01*
X314612Y306193D01*
X314632Y306177D01*
X314710Y305796D01*
X312281Y303367D01*
X307000D01*
X306668Y303301D01*
X306387Y303113D01*
X306199Y302832D01*
X306133Y302500D01*
X306199Y302168D01*
X306387Y301887D01*
X306668Y301699D01*
X307000Y301633D01*
X311178D01*
X311304Y301283D01*
X311234Y301178D01*
X311168Y300847D01*
X311234Y300515D01*
X311422Y300234D01*
X311703Y300046D01*
X312035Y299980D01*
X312366Y300046D01*
X312647Y300234D01*
X312839Y300425D01*
X313027Y300706D01*
X313093Y301038D01*
Y301728D01*
X313252Y301887D01*
X313252Y301887D01*
X316669Y305304D01*
X317063D01*
X317350Y305152D01*
X317350Y304954D01*
Y303534D01*
X317350Y303352D01*
X317350Y303002D01*
Y301565D01*
X317350Y301383D01*
X317350Y301033D01*
Y299597D01*
X317350Y299415D01*
X317084Y299213D01*
X182445D01*
X182367Y299291D01*
Y312143D01*
X182691Y312357D01*
X182717Y312354D01*
D02*
G37*
G36*
X327807Y319086D02*
X327668Y318751D01*
Y318214D01*
X327873Y317718D01*
X328151Y317440D01*
Y309727D01*
X323593Y305169D01*
X321211D01*
X321104Y305519D01*
X321163Y305558D01*
X321213Y305608D01*
X321401Y305889D01*
X321467Y306221D01*
X321401Y306552D01*
X321213Y306833D01*
X320932Y307021D01*
X320906Y307026D01*
Y307383D01*
X320932Y307388D01*
X321213Y307576D01*
X321401Y307857D01*
X321467Y308189D01*
X321401Y308521D01*
X321213Y308802D01*
X321055Y308908D01*
X321161Y309258D01*
X323850D01*
Y310876D01*
X323850Y311057D01*
X323850Y311407D01*
Y312844D01*
X323850Y313026D01*
X323850Y313376D01*
Y314813D01*
X323850Y314995D01*
X323850Y315345D01*
Y316781D01*
X323850Y316963D01*
X324087Y317215D01*
X325081D01*
X325413Y317281D01*
X325694Y317469D01*
X327510Y319284D01*
X327807Y319086D01*
D02*
G37*
G36*
X291500Y194000D02*
X237156D01*
X236893Y194350D01*
X236914Y194453D01*
X236848Y194784D01*
X236660Y195066D01*
X236379Y195253D01*
X236047Y195319D01*
X235716Y195253D01*
X235434Y195066D01*
X234664Y194295D01*
X232928D01*
X232597Y194229D01*
X232350Y194064D01*
X232158Y194112D01*
X232000Y194183D01*
Y224500D01*
X291500D01*
Y194000D01*
D02*
G37*
G36*
X357500Y193000D02*
X302344D01*
Y193091D01*
X302278Y193422D01*
X302090Y193703D01*
X296909Y198884D01*
Y220000D01*
X357500D01*
Y193000D01*
D02*
G37*
G36*
X279500Y178000D02*
X264500D01*
Y183413D01*
X272378D01*
X272710Y183479D01*
X272991Y183667D01*
X275613Y186289D01*
X275801Y186570D01*
X275867Y186902D01*
X275801Y187233D01*
X275613Y187514D01*
X275332Y187702D01*
X275000Y187768D01*
X274668Y187702D01*
X274387Y187514D01*
X272019Y185147D01*
X264500D01*
Y188500D01*
X279500D01*
Y178000D01*
D02*
G37*
G36*
X345450Y177000D02*
X330450D01*
Y181032D01*
X330773Y181166D01*
X331458Y180481D01*
Y178240D01*
X331524Y177909D01*
X331712Y177627D01*
X331993Y177439D01*
X332325Y177374D01*
X332657Y177439D01*
X332938Y177627D01*
X333126Y177909D01*
X333192Y178240D01*
Y180840D01*
X333126Y181172D01*
X332938Y181453D01*
X330655Y183736D01*
X330450Y183873D01*
Y187500D01*
X345450D01*
Y177000D01*
D02*
G37*
G36*
X357950Y176000D02*
Y170000D01*
X344317D01*
X344251Y170332D01*
X344063Y170613D01*
X343303Y171373D01*
X343022Y171561D01*
X342690Y171626D01*
X337824D01*
X336450Y173000D01*
X330700D01*
X330455Y173250D01*
X330516Y176053D01*
X357897D01*
X357950Y176000D01*
D02*
G37*
G36*
X292000Y176500D02*
Y170500D01*
X278609D01*
X278346Y170850D01*
X278367Y170953D01*
X278301Y171284D01*
X278113Y171566D01*
X277546Y172133D01*
X277265Y172320D01*
X276933Y172386D01*
X271614D01*
X270500Y173500D01*
X264750D01*
X264505Y173750D01*
X264566Y176553D01*
X291947D01*
X292000Y176500D01*
D02*
G37*
D14*
X418722Y184222D02*
G03*
X421967Y182684I3778J3778D01*
G01*
X215287Y359715D02*
G03*
X213715Y359717I-787J-618D01*
G01*
X215287Y359715D02*
G03*
X224816Y362467I4213J3285D01*
G01*
X208313Y357791D02*
G03*
X213715Y359717I1187J5209D01*
G01*
X245293Y359707D02*
G03*
X246207Y358793I4207J3293D01*
G01*
X331500Y363000D02*
X371061D01*
X387266Y346795D01*
X374256Y346213D02*
X375705D01*
X387266Y346795D02*
X401509D01*
X375993Y346500D02*
X385652D01*
X386707Y345445D01*
X375705Y346213D02*
X375993Y346500D01*
X386707Y345445D02*
X406149D01*
X186086Y313963D02*
X317726D01*
X185500Y314549D02*
Y335500D01*
X207791Y357791D01*
X185500Y314549D02*
X186086Y313963D01*
X183500Y312712D02*
X184086Y312126D01*
X183500Y337000D02*
X209500Y363000D01*
X183500Y312712D02*
Y337000D01*
X269344Y332500D02*
X293000D01*
X261620Y340224D02*
X269344Y332500D01*
X293000D02*
X304500Y321000D01*
X291730Y327770D02*
X299850Y319650D01*
X261430Y327770D02*
X291730D01*
X267000Y324500D02*
X275547D01*
X260490Y326870D02*
X261189D01*
X262280Y331392D02*
Y335221D01*
X299850Y319650D02*
X316095D01*
X304500Y321000D02*
X315535D01*
X306000Y325500D02*
X312965D01*
X388742Y188000D02*
X390122Y189380D01*
X380165Y188926D02*
X381091Y188000D01*
X388742D01*
X375574Y188926D02*
X380165D01*
X375500Y189000D02*
X375574Y188926D01*
X390122Y189380D02*
Y191398D01*
X384752Y341653D02*
X390347D01*
X388664Y337691D02*
X389309D01*
X389500Y337500D01*
X381400Y341653D02*
X384752D01*
Y341603D02*
X388664Y337691D01*
X388063Y323937D02*
X395000Y317000D01*
X381400Y323937D02*
X388063D01*
X395000Y245500D02*
Y317000D01*
X339189Y239811D02*
X354000Y225000D01*
X390000D02*
X416542Y198458D01*
X354000Y225000D02*
X390000D01*
X416542Y198458D02*
X422043D01*
X417408Y191764D02*
Y192592D01*
X351500Y222000D02*
X388000D01*
X416841Y186104D02*
X418722Y184222D01*
X416841Y186104D02*
Y188765D01*
Y191197D02*
X417408Y191764D01*
X388000Y222000D02*
X417408Y192592D01*
X416841Y188765D02*
Y191197D01*
X394000Y207451D02*
Y207500D01*
Y207451D02*
X394740Y206711D01*
X181500Y298932D02*
Y345000D01*
Y298932D02*
X182086Y298346D01*
X320600D01*
X295173Y243327D02*
X299000Y239500D01*
X295173Y243327D02*
Y243827D01*
X298786Y247441D01*
X299000Y255000D02*
Y257000D01*
X221500Y247500D02*
X291500D01*
X299000Y255000D01*
X221500Y287500D02*
X221500Y287500D01*
X287500D02*
X294000Y294000D01*
X221500Y287500D02*
X287500D01*
X221500Y277500D02*
X222939D01*
X224439Y276000D02*
X282000D01*
X299000Y293000D01*
X222939Y277500D02*
X224439Y276000D01*
X221500Y267500D02*
X221500Y267500D01*
X278500D02*
X304000Y293000D01*
X221500Y267500D02*
X278500D01*
X221500Y257500D02*
X222500Y258500D01*
X282500D02*
X306000Y282000D01*
X222500Y258500D02*
X282500D01*
X221500Y211000D02*
X229500Y219000D01*
Y227000D01*
X229000Y189500D02*
X232928Y193428D01*
X235023D01*
X222515Y186015D02*
X225515D01*
X229000Y189500D01*
Y166086D02*
X229586Y165500D01*
X235023Y193428D02*
X236047Y194453D01*
X229000Y166086D02*
Y189500D01*
X221500Y185000D02*
X222515Y186015D01*
X229586Y165500D02*
X232095D01*
X387500Y176000D02*
X397201D01*
X398095Y175106D01*
X370538Y186000D02*
X390414D01*
X391000Y186586D01*
X380532Y184031D02*
X397563D01*
X376000Y179500D02*
X380532Y184031D01*
X385032Y182032D02*
X397020D01*
X382000Y179000D02*
X385032Y182032D01*
X397563Y184031D02*
X398095Y183500D01*
X397020Y182032D02*
X398095Y183106D01*
Y183500D01*
X312226Y301038D02*
Y302086D01*
X312639Y302500D01*
X312035Y300847D02*
X312226Y301038D01*
X307000Y302500D02*
X312639D01*
X330471Y294077D02*
Y295320D01*
X332282Y297131D01*
X315785Y326000D02*
X315880Y325905D01*
X312965Y325500D02*
X313464Y326000D01*
X311500Y328000D02*
X313500Y326000D01*
X315880Y325905D02*
X320600D01*
X313464Y326000D02*
X315785D01*
X330944Y345500D02*
X333035D01*
X333844Y344691D02*
X335809D01*
X333035Y345500D02*
X333844Y344691D01*
X329397Y347048D02*
X330944Y345500D01*
X335809Y344691D02*
X336000Y344500D01*
X320550Y306171D02*
X320600Y306221D01*
X316310Y306171D02*
X320550D01*
X312639Y302500D02*
X316310Y306171D01*
X315500Y308189D02*
X320600D01*
X314360D02*
X315500D01*
X314311Y307000D02*
X315500Y308189D01*
X309000Y307000D02*
X314311D01*
X313049Y309500D02*
X314360Y308189D01*
X313000Y309500D02*
X313049D01*
X275162Y320000D02*
X280047D01*
X273662Y321500D02*
X275162Y320000D01*
X273500Y321500D02*
X273662D01*
X269500Y316500D02*
X276547D01*
X275547Y324500D02*
X280047Y320000D01*
X276547Y316500D02*
X277890Y317843D01*
X278677D01*
X280047Y319213D01*
Y320000D01*
X329346Y292952D02*
X330471Y294077D01*
X329346Y289600D02*
Y292952D01*
X392179Y340728D02*
X392451Y341000D01*
X391272Y340728D02*
X392179D01*
X392451Y341000D02*
X392500D01*
X390347Y341653D02*
X391272Y340728D01*
X371000Y280000D02*
Y284644D01*
X424451Y341500D02*
X424500D01*
X423108Y340158D02*
X424451Y341500D01*
X424109Y335842D02*
X424451Y335500D01*
X424500D01*
X420870Y335842D02*
X424109D01*
X420870Y340158D02*
X423108D01*
X419500Y338000D02*
Y338787D01*
Y337213D02*
Y338000D01*
X390850Y368358D02*
X397593D01*
X398951Y367000D01*
X399000D01*
X390850Y361650D02*
X392500Y360000D01*
X390850Y361650D02*
Y368358D01*
X421658D02*
X422150D01*
X416500Y361500D02*
X416535Y361535D01*
Y363235D02*
X421658Y368358D01*
X416535Y361535D02*
Y363235D01*
X414907Y368358D02*
X422150D01*
X414549Y368000D02*
X414907Y368358D01*
X414500Y368000D02*
X414549D01*
X371000Y284644D02*
X372604Y286248D01*
X374309Y283691D02*
X376000Y282000D01*
X372654Y286248D02*
X374309Y284592D01*
Y283691D02*
Y284592D01*
X372654Y286248D02*
Y289600D01*
X416500Y287992D02*
X422458Y282035D01*
X423965D02*
X424000Y282000D01*
X422458Y282035D02*
X423965D01*
X416500Y282000D02*
Y287992D01*
Y290571D01*
X408224Y276825D02*
Y288000D01*
Y276825D02*
X409000Y276049D01*
Y276000D02*
Y276049D01*
X406500Y289724D02*
X408224Y288000D01*
X406500Y289724D02*
Y290571D01*
X404918Y288989D02*
X406500Y290571D01*
X404918Y271959D02*
Y288989D01*
X419500Y338787D02*
X420870Y340158D01*
X419500Y337213D02*
X420870Y335842D01*
X391878Y189380D02*
Y191398D01*
Y189380D02*
X393258Y188000D01*
X397000D01*
X391000Y192276D02*
X391878Y191398D01*
X397000Y188000D02*
X398095Y186906D01*
Y183500D02*
Y186906D01*
X391000Y186586D02*
Y192276D01*
X390122Y191398D02*
X391000Y192276D01*
X329346Y350400D02*
X329397Y350350D01*
Y347048D02*
Y350350D01*
X326596Y294904D02*
X327344D01*
X329296Y292952D01*
X326500Y295000D02*
X326596Y294904D01*
X224816Y362467D02*
X225056Y362707D01*
X208205Y357791D02*
X208313D01*
X225349Y363000D02*
X229500D01*
X225056Y362707D02*
X225349Y363000D01*
X207791Y357791D02*
X208205D01*
X294500Y200068D02*
X301478Y193091D01*
Y192933D02*
Y193091D01*
X291500Y227000D02*
X294500Y224000D01*
Y200068D02*
Y224000D01*
X229500Y227000D02*
X291500Y227000D01*
X292000Y247000D02*
X295173Y243827D01*
X294950Y192933D02*
X301478D01*
X326935Y183123D02*
X330042D01*
X313000Y185406D02*
X324652D01*
X326935Y183123D01*
X330042D02*
X332325Y180840D01*
Y178240D02*
Y180840D01*
X335252Y238248D02*
X351500Y222000D01*
X389000Y223500D02*
X420934Y191566D01*
X337221Y239280D02*
X353000Y223500D01*
X389000D01*
X386382Y190276D02*
X387260Y191154D01*
X371000Y199500D02*
X380224Y190276D01*
X386382D01*
X387260Y191154D02*
Y192276D01*
X259194Y186000D02*
X259780Y185414D01*
Y184778D02*
Y185414D01*
X260278Y184280D02*
X272378D01*
X275000Y186902D01*
X259780Y184778D02*
X260278Y184280D01*
X247500Y186000D02*
X259194D01*
X333222Y294809D02*
X341309D01*
X341500Y295000D01*
X331365Y292952D02*
X333222Y294809D01*
X262961Y334500D02*
X263000D01*
X245823Y336622D02*
X260878D01*
X262280Y335221D01*
X195439Y340224D02*
X261620D01*
X239500Y363000D02*
X242000D01*
X267284Y337717D02*
X320600D01*
X242000Y363000D02*
X245293Y359707D01*
X246207Y358793D02*
X267284Y337717D01*
X316095Y319650D02*
X316445Y320000D01*
X316504Y321969D02*
X320600D01*
X315535Y321000D02*
X316504Y321969D01*
X316445Y320000D02*
X320600D01*
X314500Y323500D02*
X314771D01*
X315208Y323937D02*
X320600D01*
X314771Y323500D02*
X315208Y323937D01*
X374572Y289650D02*
X374622Y289600D01*
X374500Y296000D02*
X374572Y295928D01*
Y289650D02*
Y295928D01*
X325081Y318081D02*
X327500Y320500D01*
Y331421D01*
X320650Y318081D02*
X325081D01*
X323952Y304302D02*
X329018Y309368D01*
Y318482D01*
X343787Y342500D02*
X370544D01*
X339239Y347048D02*
X343787Y342500D01*
X375060Y343211D02*
X375472Y343622D01*
X395000D01*
X370544Y342500D02*
X374256Y346213D01*
X374790Y343211D02*
X375060D01*
X362771Y294500D02*
X363483Y293787D01*
X369402D01*
X369402Y293787D02*
X369800D01*
X370635Y292952D01*
Y289650D02*
Y292952D01*
X369402Y293787D02*
X369402Y293787D01*
X362500Y294500D02*
X362771D01*
X184086Y312126D02*
X320600D01*
X181500Y345000D02*
X199500Y363000D01*
X285953Y320000D02*
X290630D01*
X294130Y316500D01*
X310000D01*
X311531Y318032D01*
X320600D01*
X204677Y337122D02*
X206799Y335000D01*
X324787Y334134D02*
X327500Y331421D01*
X324500Y344993D02*
X324787Y344705D01*
X324500Y344993D02*
Y356000D01*
X324787Y334134D02*
Y344705D01*
X407647Y325576D02*
Y330147D01*
X406500Y324429D02*
X407647Y325576D01*
X412224Y336630D02*
X413594Y338000D01*
X412224Y334724D02*
Y336630D01*
X407647Y330147D02*
X412224Y334724D01*
X324500Y356000D02*
X331500Y363000D01*
X401509Y346795D02*
X405355Y350642D01*
X422150D01*
X342000Y359500D02*
X342035Y359465D01*
X343268D01*
X320600Y318032D02*
X320650Y318081D01*
X388509Y333910D02*
X390090D01*
X384752Y337667D02*
X388509Y333910D01*
X390090D02*
X392000Y332000D01*
X381450Y337667D02*
X384752D01*
X381400Y337717D02*
X381450Y337667D01*
X385405Y333730D02*
X386575Y332559D01*
X386941D01*
X381450Y333730D02*
X385405D01*
X386941Y332559D02*
X402000Y317500D01*
X374572Y350450D02*
Y353752D01*
X371359Y356965D02*
X374572Y353752D01*
X369500Y357000D02*
X369535Y356965D01*
X374572Y350450D02*
X374622Y350400D01*
X369535Y356965D02*
X371359D01*
X343268Y359465D02*
X348981Y353752D01*
X311228Y334772D02*
X312221Y333780D01*
X348981Y350450D02*
X349031Y350400D01*
X348981Y350450D02*
Y353752D01*
X414000Y330951D02*
Y331000D01*
Y330951D02*
X414776Y330175D01*
Y326153D02*
Y330175D01*
X395000Y342000D02*
Y343622D01*
Y342000D02*
X398500Y338500D01*
X395000Y343622D02*
X400378D01*
X406149Y345445D02*
X413594Y338000D01*
X354937Y254063D02*
Y289600D01*
Y254063D02*
X366000Y243000D01*
X356906Y262094D02*
X366000Y253000D01*
X356906Y262094D02*
Y289600D01*
X399465Y358765D02*
Y358965D01*
X399500Y359000D01*
X390850Y350642D02*
X391342D01*
X399465Y358765D01*
X390850Y350642D02*
X400142D01*
X405000Y355500D01*
X400378Y343622D02*
X402000Y342000D01*
X368717Y282217D02*
Y289600D01*
X370635Y289650D02*
X370685Y289600D01*
X416500Y327008D02*
X420992Y331500D01*
X416500Y324429D02*
Y327008D01*
X420992Y331500D02*
X421000D01*
X414776Y326153D02*
X416500Y324429D01*
X339239Y347048D02*
Y350350D01*
X339189Y350400D02*
X339239Y350350D01*
X402000Y268500D02*
X422500Y248000D01*
X402000Y268500D02*
Y317500D01*
X397000Y253500D02*
Y317545D01*
X384752Y329792D02*
X397000Y317545D01*
Y253500D02*
X422500Y228000D01*
X399500Y261000D02*
X422500Y238000D01*
X399500Y261000D02*
Y317013D01*
X384752Y331761D02*
X399500Y317013D01*
X395000Y245500D02*
X422500Y218000D01*
X387531Y321969D02*
X393000Y316500D01*
Y237500D02*
X422500Y208000D01*
X393000Y237500D02*
Y316500D01*
X387000Y284000D02*
X390000Y281000D01*
X394740Y201724D02*
Y206711D01*
X387000Y284000D02*
Y298017D01*
X386000Y209951D02*
X387260Y208691D01*
Y201724D02*
Y208691D01*
X386000Y209951D02*
Y210000D01*
X385500Y277500D02*
Y277549D01*
X385587Y277636D02*
Y297461D01*
X385500Y277549D02*
X385587Y277636D01*
X337221Y239280D02*
Y289600D01*
X335252Y238248D02*
Y289600D01*
X381400Y321969D02*
X387531D01*
X381450Y329792D02*
X384752D01*
X381450Y331761D02*
X384752D01*
X381400Y333780D02*
X381450Y333730D01*
X381400Y331811D02*
X381450Y331761D01*
X381400Y329842D02*
X381450Y329792D01*
X384752Y300265D02*
X387000Y298017D01*
X381400Y300315D02*
X381450Y300265D01*
X384752Y298296D02*
X385587Y297461D01*
X381450Y300265D02*
X384752D01*
X381450Y298296D02*
X384752D01*
X381400Y298346D02*
X381450Y298296D01*
X194135Y338920D02*
X195439Y340224D01*
X194135Y338717D02*
Y338920D01*
X192039Y336622D02*
X194135Y338717D01*
X192000Y336622D02*
X192039D01*
X204799Y333000D02*
X206799Y335000D01*
X192000Y333000D02*
X204799D01*
X244201Y335000D02*
X245823Y336622D01*
X317726Y313963D02*
X317807Y314044D01*
X320550D01*
X320600Y314094D01*
X366000Y279500D02*
X368717Y282217D01*
X397020Y174031D02*
X398095Y175106D01*
X396626Y174031D02*
X397020D01*
X393094Y170500D02*
X396626Y174031D01*
X389000Y170500D02*
X393094D01*
X404000Y175500D02*
Y183500D01*
X395618Y190217D02*
X397677D01*
X404000Y183500D02*
Y183894D01*
X394740Y191095D02*
Y192276D01*
Y191095D02*
X395618Y190217D01*
X397677D02*
X404000Y183894D01*
X363500Y212500D02*
X383724Y192276D01*
X387260D01*
Y193457D01*
X374500Y206217D02*
X387260Y193457D01*
X374500Y206217D02*
Y213000D01*
X422207Y182444D02*
X422500Y182151D01*
Y178000D02*
Y182151D01*
X421967Y182684D02*
X422207Y182444D01*
X420934Y191213D02*
X422500Y189647D01*
X420934Y191213D02*
Y191566D01*
X422500Y188000D02*
Y189647D01*
X422043Y198458D02*
X422500Y198000D01*
X339189Y239811D02*
Y289600D01*
X312221Y333780D02*
X320600D01*
X314518Y331000D02*
X317248Y333730D01*
X307000Y331000D02*
X314518D01*
X327378Y344671D02*
Y350400D01*
X327500Y344500D02*
Y344549D01*
X327378Y344671D02*
X327500Y344549D01*
X294950Y164586D02*
Y192933D01*
X311950Y164000D02*
X313025Y165075D01*
X315065D02*
X320750Y170760D01*
X313025Y165075D02*
X315065D01*
X320750Y170760D02*
X321575D01*
X342690D02*
X343450Y170000D01*
X332325Y170760D02*
X342690D01*
X295536Y164000D02*
X298545D01*
X294950Y164586D02*
X295536Y164000D01*
X304450D02*
X311950D01*
X320750Y178240D02*
X321575D01*
X319896Y179095D02*
X320750Y178240D01*
X313950Y179095D02*
X319896D01*
X374500Y334000D02*
Y336500D01*
X377635Y339635D02*
X381350D01*
X381400Y339685D01*
X374500Y336500D02*
X377635Y339635D01*
X331365Y289650D02*
Y292952D01*
X331315Y289600D02*
X331365Y289650D01*
X324716Y302284D02*
X325214Y301786D01*
X320650Y304302D02*
X323952D01*
X320600Y304252D02*
X320650Y304302D01*
X320600Y302284D02*
X324716D01*
X272815Y339685D02*
X320600D01*
X249500Y363000D02*
X272815Y339685D01*
X259500Y363000D02*
X280847Y341653D01*
X320600D01*
X288878Y343622D02*
X320600D01*
X269500Y363000D02*
X288878Y343622D01*
X232095Y165500D02*
X232594Y165000D01*
X245500D02*
X246000Y165500D01*
X238500Y165000D02*
X245500D01*
X246000Y165500D02*
X246500Y166000D01*
X249405D02*
X254925Y171520D01*
X246500Y166000D02*
X249405D01*
X254925Y171520D02*
X255750D01*
X248594Y179000D02*
X255750D01*
X247500Y180095D02*
X248594Y179000D01*
X276933Y171520D02*
X277500Y170953D01*
X266500Y171520D02*
X276933D01*
D16*
X341000Y186402D02*
D03*
Y211598D02*
D03*
X275000Y186902D02*
D03*
Y212098D02*
D03*
D17*
X398095Y175500D02*
D03*
X404000D02*
D03*
X398095Y183500D02*
D03*
X404000D02*
D03*
X232594Y165000D02*
D03*
X238500D02*
D03*
X298545Y164000D02*
D03*
X304450D02*
D03*
D18*
X246000Y165500D02*
D03*
Y171405D02*
D03*
X311950Y164000D02*
D03*
Y169905D02*
D03*
D19*
X320600Y343622D02*
D03*
Y341653D02*
D03*
Y339685D02*
D03*
Y337717D02*
D03*
Y335748D02*
D03*
Y333780D02*
D03*
Y331811D02*
D03*
Y329842D02*
D03*
Y327874D02*
D03*
Y325905D02*
D03*
Y323937D02*
D03*
Y321969D02*
D03*
Y320000D02*
D03*
Y318032D02*
D03*
Y316063D02*
D03*
Y314094D02*
D03*
Y312126D02*
D03*
Y310157D02*
D03*
Y308189D02*
D03*
Y306221D02*
D03*
Y304252D02*
D03*
Y302284D02*
D03*
Y300315D02*
D03*
Y298346D02*
D03*
Y296378D02*
D03*
X381400D02*
D03*
Y298346D02*
D03*
Y300315D02*
D03*
Y302284D02*
D03*
Y304252D02*
D03*
Y306221D02*
D03*
Y308189D02*
D03*
Y310157D02*
D03*
Y312126D02*
D03*
Y314094D02*
D03*
Y316063D02*
D03*
Y318032D02*
D03*
Y320000D02*
D03*
Y321969D02*
D03*
Y323937D02*
D03*
Y325905D02*
D03*
Y327874D02*
D03*
Y329842D02*
D03*
Y331811D02*
D03*
Y333780D02*
D03*
Y335748D02*
D03*
Y337717D02*
D03*
Y339685D02*
D03*
Y341653D02*
D03*
Y343622D02*
D03*
D20*
X327378Y289600D02*
D03*
X329346D02*
D03*
X331315D02*
D03*
X333283D02*
D03*
X335252D02*
D03*
X337221D02*
D03*
X339189D02*
D03*
X341158D02*
D03*
X343126D02*
D03*
X345094D02*
D03*
X347063D02*
D03*
X349031D02*
D03*
X351000D02*
D03*
X352969D02*
D03*
X354937D02*
D03*
X356906D02*
D03*
X358874D02*
D03*
X360842D02*
D03*
X362811D02*
D03*
X364779D02*
D03*
X366748D02*
D03*
X368717D02*
D03*
X370685D02*
D03*
X372654D02*
D03*
X374622D02*
D03*
Y350400D02*
D03*
X372654D02*
D03*
X370685D02*
D03*
X368717D02*
D03*
X366748D02*
D03*
X364779D02*
D03*
X362811D02*
D03*
X360842D02*
D03*
X358874D02*
D03*
X356906D02*
D03*
X354937D02*
D03*
X352969D02*
D03*
X351000D02*
D03*
X349031D02*
D03*
X347063D02*
D03*
X345094D02*
D03*
X343126D02*
D03*
X341158D02*
D03*
X339189D02*
D03*
X337221D02*
D03*
X335252D02*
D03*
X333283D02*
D03*
X331315D02*
D03*
X329346D02*
D03*
X327378D02*
D03*
D21*
X387260Y201724D02*
D03*
X394740D02*
D03*
Y192276D02*
D03*
X391000D02*
D03*
X387260D02*
D03*
D22*
X255750Y179000D02*
D03*
Y175260D02*
D03*
Y171520D02*
D03*
X266500D02*
D03*
Y175260D02*
D03*
Y179000D02*
D03*
X321575Y178240D02*
D03*
Y174500D02*
D03*
Y170760D02*
D03*
X332325D02*
D03*
Y174500D02*
D03*
Y178240D02*
D03*
D23*
X390850Y368358D02*
D03*
X422150D02*
D03*
X390850Y350642D02*
D03*
X422150D02*
D03*
D24*
X206799Y335000D02*
D03*
X244201D02*
D03*
D25*
X192000Y336622D02*
D03*
Y333000D02*
D03*
X261430Y327770D02*
D03*
Y331392D02*
D03*
D26*
X406500Y290571D02*
D03*
X416500D02*
D03*
X406500Y324429D02*
D03*
X416500D02*
D03*
D27*
X280047Y320000D02*
D03*
X285953D02*
D03*
X413594Y338000D02*
D03*
X419500D02*
D03*
D28*
X247500Y180095D02*
D03*
Y186000D02*
D03*
X287000Y170905D02*
D03*
Y165000D02*
D03*
X277500Y170953D02*
D03*
Y165047D02*
D03*
X236500Y194453D02*
D03*
Y188547D02*
D03*
X313000Y179500D02*
D03*
Y185406D02*
D03*
X352950Y170000D02*
D03*
Y164094D02*
D03*
X343450Y170000D02*
D03*
Y164094D02*
D03*
X301950Y193405D02*
D03*
Y187500D02*
D03*
D44*
X225056Y362707D02*
D03*
X208205Y357791D02*
D03*
X422207Y182444D02*
D03*
D45*
X221500Y237500D02*
D03*
Y247500D02*
D03*
Y257500D02*
D03*
Y267500D02*
D03*
Y277500D02*
D03*
Y287500D02*
D03*
D46*
Y159000D02*
D03*
Y211000D02*
D03*
Y185000D02*
D03*
X366000Y263000D02*
D03*
D47*
X221500Y169000D02*
D03*
Y221000D02*
D03*
Y195000D02*
D03*
X366000Y253000D02*
D03*
Y243000D02*
D03*
Y233000D02*
D03*
D48*
X422500Y248000D02*
D03*
Y238000D02*
D03*
Y228000D02*
D03*
Y218000D02*
D03*
Y208000D02*
D03*
Y198000D02*
D03*
Y188000D02*
D03*
Y178000D02*
D03*
Y168000D02*
D03*
X289500Y363000D02*
D03*
X279500D02*
D03*
X269500D02*
D03*
X259500D02*
D03*
X249500D02*
D03*
X239500D02*
D03*
X229500D02*
D03*
X219500D02*
D03*
X209500D02*
D03*
D49*
X422500Y158000D02*
D03*
D50*
X199500Y363000D02*
D03*
D51*
X346500Y159500D02*
D03*
X287000Y174500D02*
D03*
X287150Y160494D02*
D03*
X249000Y175500D02*
D03*
X267000Y324500D02*
D03*
X306000Y325500D02*
D03*
X394000Y207500D02*
D03*
X387500Y176000D02*
D03*
X370538Y186064D02*
D03*
X376000Y179500D02*
D03*
X382000Y179000D02*
D03*
X312035Y300847D02*
D03*
X375500Y189000D02*
D03*
X332282Y297131D02*
D03*
X331500Y332500D02*
D03*
X327287Y335170D02*
D03*
X350500Y331000D02*
D03*
X342000Y332500D02*
D03*
X349500Y320500D02*
D03*
X353300Y321160D02*
D03*
X355000Y331500D02*
D03*
X357500Y329500D02*
D03*
X333000Y314000D02*
D03*
X336000Y344500D02*
D03*
X341085Y341666D02*
D03*
X311500Y328000D02*
D03*
X307000Y302500D02*
D03*
X309000Y307000D02*
D03*
X313000Y309500D02*
D03*
X273500Y321500D02*
D03*
X269500Y316500D02*
D03*
X361000Y309000D02*
D03*
X358000Y345500D02*
D03*
X389500Y337500D02*
D03*
X392500Y341000D02*
D03*
X371000Y280000D02*
D03*
X424500Y341500D02*
D03*
Y335500D02*
D03*
X399000Y367000D02*
D03*
X392500Y360000D02*
D03*
X416500Y361500D02*
D03*
X414500Y368000D02*
D03*
X376000Y282000D02*
D03*
X424000D02*
D03*
X416500D02*
D03*
X409000Y276000D02*
D03*
X404918Y271959D02*
D03*
X319000Y174500D02*
D03*
X313000D02*
D03*
X305500Y172000D02*
D03*
X300000D02*
D03*
X305000Y182500D02*
D03*
X299500D02*
D03*
X239000D02*
D03*
X233500D02*
D03*
Y173000D02*
D03*
X239000D02*
D03*
X254500Y175500D02*
D03*
X239000Y159000D02*
D03*
X247500D02*
D03*
X257000Y159500D02*
D03*
Y165000D02*
D03*
X265500D02*
D03*
Y159500D02*
D03*
X273500Y160500D02*
D03*
X280500D02*
D03*
X323500Y164500D02*
D03*
X331000D02*
D03*
X353000Y159500D02*
D03*
X340000D02*
D03*
X331000Y159000D02*
D03*
X324000D02*
D03*
X313000Y158000D02*
D03*
X304000D02*
D03*
X326000Y314500D02*
D03*
X337000Y314000D02*
D03*
X342500D02*
D03*
X354915Y311584D02*
D03*
X346000Y337500D02*
D03*
X336500Y332500D02*
D03*
X359500Y339000D02*
D03*
X360000Y324500D02*
D03*
X359500Y333500D02*
D03*
X355953Y317000D02*
D03*
X357953Y322500D02*
D03*
X365500Y310000D02*
D03*
X370500Y312000D02*
D03*
X375035Y309508D02*
D03*
X326500Y295000D02*
D03*
X294000Y294000D02*
D03*
X275000Y174500D02*
D03*
X318000Y206000D02*
D03*
X309500D02*
D03*
X301500D02*
D03*
X318000Y198500D02*
D03*
X309500D02*
D03*
X301500D02*
D03*
X318500Y215500D02*
D03*
X310000D02*
D03*
X302500Y216000D02*
D03*
X350500Y217500D02*
D03*
X341000D02*
D03*
X332000Y217000D02*
D03*
X371000Y199500D02*
D03*
X282500Y221500D02*
D03*
X275000D02*
D03*
X265500D02*
D03*
X244000Y200000D02*
D03*
X254000Y209000D02*
D03*
X245500Y209500D02*
D03*
X236500D02*
D03*
X252500Y199500D02*
D03*
X341500Y295000D02*
D03*
X331500Y301033D02*
D03*
X314500Y323500D02*
D03*
X333500Y318500D02*
D03*
X329018Y318482D02*
D03*
X346500Y333500D02*
D03*
X353000Y337500D02*
D03*
X332000Y343000D02*
D03*
X374500Y296000D02*
D03*
X376000Y301500D02*
D03*
X374000Y321000D02*
D03*
X375000Y325000D02*
D03*
X327287Y339500D02*
D03*
X374790Y343211D02*
D03*
X334441Y300461D02*
D03*
X299000Y239500D02*
D03*
X304000Y293000D02*
D03*
X299000D02*
D03*
X310000Y316500D02*
D03*
X342000Y359500D02*
D03*
X298786Y247441D02*
D03*
X299000Y257000D02*
D03*
X392000Y332000D02*
D03*
X306000Y282000D02*
D03*
X369500Y357000D02*
D03*
X311228Y334772D02*
D03*
X414000Y331000D02*
D03*
X398500Y338500D02*
D03*
X399500Y359000D02*
D03*
X405000Y355500D02*
D03*
X402000Y342000D02*
D03*
X421000Y331500D02*
D03*
X390000Y281000D02*
D03*
X386000Y210000D02*
D03*
X385500Y277500D02*
D03*
X366000Y279500D02*
D03*
X389000Y170500D02*
D03*
X363500Y212500D02*
D03*
X374500Y213000D02*
D03*
X343000Y320000D02*
D03*
X338000Y319000D02*
D03*
X345500Y307500D02*
D03*
X352000Y307000D02*
D03*
X307000Y331000D02*
D03*
X327500Y344500D02*
D03*
X347000Y174500D02*
D03*
X342500Y174000D02*
D03*
X352000Y174500D02*
D03*
X369500Y335000D02*
D03*
X375000Y329000D02*
D03*
X374500Y334000D02*
D03*
X372953Y316500D02*
D03*
X365782Y297138D02*
D03*
X362500Y294500D02*
D03*
X325214Y301786D02*
D03*
X339000Y298953D02*
D03*
X344902Y298895D02*
D03*
X281000Y174500D02*
D03*
X236500Y200000D02*
D03*
Y219000D02*
D03*
X256500Y219500D02*
D03*
X246500D02*
D03*
M02*
