G04*
G04 #@! TF.GenerationSoftware,Altium Limited,Altium Designer,24.7.2 (38)*
G04*
G04 Layer_Color=16711935*
%FSLAX25Y25*%
%MOIN*%
G70*
G04*
G04 #@! TF.SameCoordinates,17647D21-3567-4D15-9BF9-88849ECC23B8*
G04*
G04*
G04 #@! TF.FilePolarity,Positive*
G04*
G01*
G75*
%ADD11C,0.00787*%
%ADD12C,0.00394*%
%ADD13C,0.00600*%
%ADD66C,0.00000*%
%ADD67C,0.00100*%
D11*
X203059Y325551D02*
X247941D01*
X203059D02*
Y344449D01*
X247941D01*
Y325551D02*
Y344449D01*
X181736Y231516D02*
Y293484D01*
X215201D01*
Y231516D02*
Y293484D01*
X181736Y231516D02*
X215201D01*
D12*
X265748Y188673D02*
G03*
X265748Y188673I-1575J0D01*
G01*
X260630Y189067D02*
G03*
X264567Y185130I3937J0D01*
G01*
X285433D02*
G03*
X289370Y189067I0J3937D01*
G01*
Y209933D02*
G03*
X285433Y213870I-3937J0D01*
G01*
X264567D02*
G03*
X260630Y209933I0J-3937D01*
G01*
X330567Y213370D02*
G03*
X326630Y209433I0J-3937D01*
G01*
X355370D02*
G03*
X351433Y213370I-3937J0D01*
G01*
Y184630D02*
G03*
X355370Y188567I0J3937D01*
G01*
X326630D02*
G03*
X330567Y184630I3937J0D01*
G01*
X331748Y188173D02*
G03*
X331748Y188173I-1575J0D01*
G01*
X264567Y213870D02*
X285433D01*
X289370Y189067D02*
Y209933D01*
X260630Y189067D02*
Y209933D01*
X264567Y185130D02*
X285433D01*
X418311Y347689D02*
Y371311D01*
X394689Y347689D02*
X418311D01*
X394689D02*
Y371311D01*
X418311D01*
X356157Y162126D02*
Y170394D01*
X350842Y162126D02*
Y170394D01*
X356157D01*
X350842Y162126D02*
X356157D01*
X304844Y162228D02*
Y165772D01*
X298151Y162228D02*
Y165772D01*
Y162228D02*
X304844D01*
X298151Y165772D02*
X304844D01*
X239158Y186626D02*
Y194894D01*
X233842Y186626D02*
Y194894D01*
X239158D01*
X233842Y186626D02*
X239158D01*
X397209Y288248D02*
Y326752D01*
Y288248D02*
X425791D01*
Y326752D01*
X397209D02*
X425791D01*
X299342Y186126D02*
X304658D01*
X299342Y194394D02*
X304658D01*
X299342Y186126D02*
Y194394D01*
X304658Y186126D02*
Y194394D01*
X419874Y330842D02*
Y336157D01*
X411606Y330842D02*
Y336157D01*
Y330842D02*
X419874D01*
X411606Y336157D02*
X419874D01*
X214413Y153016D02*
Y176362D01*
X180358D02*
X214413D01*
X180358Y153016D02*
Y176362D01*
Y153016D02*
X214413D01*
X379228Y210799D02*
X382772D01*
X379228Y204106D02*
X382772D01*
Y210799D01*
X379228Y204106D02*
Y210799D01*
X397728Y210394D02*
X401272D01*
X397728Y203701D02*
X401272D01*
Y210394D01*
X397728Y203701D02*
Y210394D01*
X340843Y162126D02*
X346158D01*
X340843Y170394D02*
X346158D01*
X340843Y162126D02*
Y170394D01*
X346158Y162126D02*
Y170394D01*
X282842Y162366D02*
X288158D01*
X282842Y170634D02*
X288158D01*
X282842Y162366D02*
Y170634D01*
X288158Y162366D02*
Y170634D01*
X273342Y162366D02*
X278658D01*
X273342Y170634D02*
X278658D01*
X273342Y162366D02*
Y170634D01*
X278658Y162366D02*
Y170634D01*
X238894Y163228D02*
Y166772D01*
X232201Y163228D02*
Y166772D01*
Y163228D02*
X238894D01*
X232201Y166772D02*
X238894D01*
X309343Y187874D02*
X314657D01*
X309343Y179606D02*
X314657D01*
Y187874D01*
X309343Y179606D02*
Y187874D01*
X244342Y188894D02*
X249658D01*
X244342Y180626D02*
X249658D01*
Y188894D01*
X244342Y180626D02*
Y188894D01*
X403606Y338342D02*
Y343657D01*
X411874Y338342D02*
Y343657D01*
X403606D02*
X411874D01*
X403606Y338342D02*
X411874D01*
X180358Y205016D02*
X214413D01*
X180358D02*
Y228362D01*
X214413D01*
Y205016D02*
Y228362D01*
X180358Y179016D02*
X214413D01*
X180358D02*
Y202362D01*
X214413D01*
Y179016D02*
Y202362D01*
X427421Y152213D02*
Y255165D01*
X417579D02*
X427421D01*
X417579Y152213D02*
Y255165D01*
Y152213D02*
X427421D01*
X193713Y358079D02*
X296665D01*
Y367921D01*
X193713D02*
X296665D01*
X193713Y358079D02*
Y367921D01*
X330567Y184630D02*
X351433D01*
X326630Y188567D02*
Y209433D01*
X355370Y188567D02*
Y209433D01*
X330567Y213370D02*
X351433D01*
X394701Y174772D02*
X401394D01*
X394701Y171228D02*
X401394D01*
X394701D02*
Y174772D01*
X401394Y171228D02*
Y174772D01*
X397701Y185272D02*
X404394D01*
X397701Y181728D02*
X404394D01*
X397701D02*
Y185272D01*
X404394Y181728D02*
Y185272D01*
X244228Y165106D02*
Y171799D01*
X247772Y165106D02*
Y171799D01*
X244228Y165106D02*
X247772D01*
X244228Y171799D02*
X247772D01*
X310178Y163606D02*
Y170299D01*
X313722Y163606D02*
Y170299D01*
X310178Y163606D02*
X313722D01*
X310178Y170299D02*
X313722D01*
X397102Y193457D02*
Y200543D01*
X384898Y193457D02*
Y200543D01*
X397102D01*
X384898Y193457D02*
X397102D01*
X192984Y332842D02*
Y336779D01*
X191016Y332842D02*
X192984D01*
X191016D02*
Y336779D01*
X192984D01*
X260445Y330221D02*
Y334157D01*
X262414D01*
Y330221D02*
Y334157D01*
X260445Y330221D02*
X262414D01*
D13*
X313950Y346939D02*
X316616Y344273D01*
X313950D02*
X316616Y346939D01*
X313950Y345606D02*
X316616D01*
X315283Y344273D02*
Y346939D01*
X257925Y179292D02*
X260591Y176626D01*
X257925D02*
X260591Y179292D01*
X257925Y177959D02*
X260591D01*
X259258Y176626D02*
Y179292D01*
X323750Y178532D02*
X326416Y175866D01*
X323750D02*
X326416Y178532D01*
X323750Y177199D02*
X326416D01*
X325083Y175866D02*
Y178532D01*
D66*
X259925Y181260D02*
G03*
X262325Y181260I1200J0D01*
G01*
X325750Y180500D02*
G03*
X328150Y180500I1200J0D01*
G01*
D67*
X374072Y347950D02*
X375172D01*
Y351900D01*
X374072D02*
X375172D01*
X374072Y347950D02*
Y351900D01*
X372104Y347950D02*
X373203D01*
Y351900D01*
X372104D02*
X373203D01*
X372104Y347950D02*
Y351900D01*
X370135Y347950D02*
X371235D01*
Y351900D01*
X370135D02*
X371235D01*
X370135Y347950D02*
Y351900D01*
X368166Y347950D02*
X369267D01*
Y351900D01*
X368166D02*
X369267D01*
X368166Y347950D02*
Y351900D01*
X366198Y347950D02*
X367298D01*
Y351900D01*
X366198D02*
X367298D01*
X366198Y347950D02*
Y351900D01*
X364229Y347950D02*
X365330D01*
Y351900D01*
X364229D02*
X365330D01*
X364229Y347950D02*
Y351900D01*
X362261Y347950D02*
X363361D01*
Y351900D01*
X362261D02*
X363361D01*
X362261Y347950D02*
Y351900D01*
X360293Y347950D02*
X361392D01*
Y351900D01*
X360293D02*
X361392D01*
X360293Y347950D02*
Y351900D01*
X358324Y347950D02*
X359424D01*
Y351900D01*
X358324D02*
X359424D01*
X358324Y347950D02*
Y351900D01*
X356356Y347950D02*
X357455D01*
Y351900D01*
X356356D02*
X357455D01*
X356356Y347950D02*
Y351900D01*
X354387Y347950D02*
X355487D01*
Y351900D01*
X354387D02*
X355487D01*
X354387Y347950D02*
Y351900D01*
X352418Y347950D02*
X353519D01*
Y351900D01*
X352418D02*
X353519D01*
X352418Y347950D02*
Y351900D01*
X350450Y347950D02*
X351550D01*
Y351900D01*
X350450D02*
X351550D01*
X350450Y347950D02*
Y351900D01*
X348481Y347950D02*
X349582D01*
Y351900D01*
X348481D02*
X349582D01*
X348481Y347950D02*
Y351900D01*
X346513Y347950D02*
X347613D01*
Y351900D01*
X346513D02*
X347613D01*
X346513Y347950D02*
Y351900D01*
X344545Y347950D02*
X345644D01*
Y351900D01*
X344545D02*
X345644D01*
X344545Y347950D02*
Y351900D01*
X342576Y347950D02*
X343676D01*
Y351900D01*
X342576D02*
X343676D01*
X342576Y347950D02*
Y351900D01*
X340608Y347950D02*
X341707D01*
Y351900D01*
X340608D02*
X341707D01*
X340608Y347950D02*
Y351900D01*
X338639Y347950D02*
X339739D01*
Y351900D01*
X338639D02*
X339739D01*
X338639Y347950D02*
Y351900D01*
X336670Y347950D02*
X337771D01*
Y351900D01*
X336670D02*
X337771D01*
X336670Y347950D02*
Y351900D01*
X334702Y347950D02*
X335802D01*
Y351900D01*
X334702D02*
X335802D01*
X334702Y347950D02*
Y351900D01*
X332733Y347950D02*
X333834D01*
Y351900D01*
X332733D02*
X333834D01*
X332733Y347950D02*
Y351900D01*
X330765Y347950D02*
X331865D01*
Y351900D01*
X330765D02*
X331865D01*
X330765Y347950D02*
Y351900D01*
X328797Y347950D02*
X329896D01*
Y351900D01*
X328797D02*
X329896D01*
X328797Y347950D02*
Y351900D01*
X326828Y347950D02*
X327928D01*
Y351900D01*
X326828D02*
X327928D01*
X326828Y347950D02*
Y351900D01*
X323050Y343072D02*
Y344172D01*
X319100D02*
X323050D01*
X319100Y343072D02*
Y344172D01*
Y343072D02*
X323050D01*
Y341104D02*
Y342203D01*
X319100D02*
X323050D01*
X319100Y341104D02*
Y342203D01*
Y341104D02*
X323050D01*
Y339135D02*
Y340235D01*
X319100D02*
X323050D01*
X319100Y339135D02*
Y340235D01*
Y339135D02*
X323050D01*
Y337167D02*
Y338266D01*
X319100D02*
X323050D01*
X319100Y337167D02*
Y338266D01*
Y337167D02*
X323050D01*
Y335198D02*
Y336298D01*
X319100D02*
X323050D01*
X319100Y335198D02*
Y336298D01*
Y335198D02*
X323050D01*
Y333229D02*
Y334330D01*
X319100D02*
X323050D01*
X319100Y333229D02*
Y334330D01*
Y333229D02*
X323050D01*
Y331261D02*
Y332361D01*
X319100D02*
X323050D01*
X319100Y331261D02*
Y332361D01*
Y331261D02*
X323050D01*
Y329292D02*
Y330393D01*
X319100D02*
X323050D01*
X319100Y329292D02*
Y330393D01*
Y329292D02*
X323050D01*
Y327324D02*
Y328424D01*
X319100D02*
X323050D01*
X319100Y327324D02*
Y328424D01*
Y327324D02*
X323050D01*
Y325356D02*
Y326455D01*
X319100D02*
X323050D01*
X319100Y325356D02*
Y326455D01*
Y325356D02*
X323050D01*
Y323387D02*
Y324487D01*
X319100D02*
X323050D01*
X319100Y323387D02*
Y324487D01*
Y323387D02*
X323050D01*
Y321418D02*
Y322518D01*
X319100D02*
X323050D01*
X319100Y321418D02*
Y322518D01*
Y321418D02*
X323050D01*
Y319450D02*
Y320550D01*
X319100D02*
X323050D01*
X319100Y319450D02*
Y320550D01*
Y319450D02*
X323050D01*
Y317481D02*
Y318582D01*
X319100D02*
X323050D01*
X319100Y317481D02*
Y318582D01*
Y317481D02*
X323050D01*
Y315513D02*
Y316613D01*
X319100D02*
X323050D01*
X319100Y315513D02*
Y316613D01*
Y315513D02*
X323050D01*
Y313545D02*
Y314645D01*
X319100D02*
X323050D01*
X319100Y313545D02*
Y314645D01*
Y313545D02*
X323050D01*
Y311576D02*
Y312676D01*
X319100D02*
X323050D01*
X319100Y311576D02*
Y312676D01*
Y311576D02*
X323050D01*
Y309608D02*
Y310707D01*
X319100D02*
X323050D01*
X319100Y309608D02*
Y310707D01*
Y309608D02*
X323050D01*
Y307639D02*
Y308739D01*
X319100D02*
X323050D01*
X319100Y307639D02*
Y308739D01*
Y307639D02*
X323050D01*
Y305670D02*
Y306770D01*
X319100D02*
X323050D01*
X319100Y305670D02*
Y306770D01*
Y305670D02*
X323050D01*
Y303702D02*
Y304802D01*
X319100D02*
X323050D01*
X319100Y303702D02*
Y304802D01*
Y303702D02*
X323050D01*
Y301733D02*
Y302834D01*
X319100D02*
X323050D01*
X319100Y301733D02*
Y302834D01*
Y301733D02*
X323050D01*
Y299765D02*
Y300865D01*
X319100D02*
X323050D01*
X319100Y299765D02*
Y300865D01*
Y299765D02*
X323050D01*
Y297797D02*
Y298897D01*
X319100D02*
X323050D01*
X319100Y297797D02*
Y298897D01*
Y297797D02*
X323050D01*
Y295828D02*
Y296928D01*
X319100D02*
X323050D01*
X319100Y295828D02*
Y296928D01*
Y295828D02*
X323050D01*
X326828Y292050D02*
X327928D01*
X326828Y288100D02*
Y292050D01*
Y288100D02*
X327928D01*
Y292050D01*
X328797D02*
X329896D01*
X328797Y288100D02*
Y292050D01*
Y288100D02*
X329896D01*
Y292050D01*
X330765D02*
X331865D01*
X330765Y288100D02*
Y292050D01*
Y288100D02*
X331865D01*
Y292050D01*
X332733D02*
X333834D01*
X332733Y288100D02*
Y292050D01*
Y288100D02*
X333834D01*
Y292050D01*
X334702D02*
X335802D01*
X334702Y288100D02*
Y292050D01*
Y288100D02*
X335802D01*
Y292050D01*
X336670D02*
X337771D01*
X336670Y288100D02*
Y292050D01*
Y288100D02*
X337771D01*
Y292050D01*
X338639D02*
X339739D01*
X338639Y288100D02*
Y292050D01*
Y288100D02*
X339739D01*
Y292050D01*
X340608D02*
X341707D01*
X340608Y288100D02*
Y292050D01*
Y288100D02*
X341707D01*
Y292050D01*
X342576D02*
X343676D01*
X342576Y288100D02*
Y292050D01*
Y288100D02*
X343676D01*
Y292050D01*
X344545D02*
X345644D01*
X344545Y288100D02*
Y292050D01*
Y288100D02*
X345644D01*
Y292050D01*
X346513D02*
X347613D01*
X346513Y288100D02*
Y292050D01*
Y288100D02*
X347613D01*
Y292050D01*
X348481D02*
X349582D01*
X348481Y288100D02*
Y292050D01*
Y288100D02*
X349582D01*
Y292050D01*
X350450D02*
X351550D01*
X350450Y288100D02*
Y292050D01*
Y288100D02*
X351550D01*
Y292050D01*
X352418D02*
X353519D01*
X352418Y288100D02*
Y292050D01*
Y288100D02*
X353519D01*
Y292050D01*
X354387D02*
X355487D01*
X354387Y288100D02*
Y292050D01*
Y288100D02*
X355487D01*
Y292050D01*
X356356D02*
X357455D01*
X356356Y288100D02*
Y292050D01*
Y288100D02*
X357455D01*
Y292050D01*
X358324D02*
X359424D01*
X358324Y288100D02*
Y292050D01*
Y288100D02*
X359424D01*
Y292050D01*
X360293D02*
X361392D01*
X360293Y288100D02*
Y292050D01*
Y288100D02*
X361392D01*
Y292050D01*
X362261D02*
X363361D01*
X362261Y288100D02*
Y292050D01*
Y288100D02*
X363361D01*
Y292050D01*
X364229D02*
X365330D01*
X364229Y288100D02*
Y292050D01*
Y288100D02*
X365330D01*
Y292050D01*
X366198D02*
X367298D01*
X366198Y288100D02*
Y292050D01*
Y288100D02*
X367298D01*
Y292050D01*
X368166D02*
X369267D01*
X368166Y288100D02*
Y292050D01*
Y288100D02*
X369267D01*
Y292050D01*
X370135D02*
X371235D01*
X370135Y288100D02*
Y292050D01*
Y288100D02*
X371235D01*
Y292050D01*
X372104D02*
X373203D01*
X372104Y288100D02*
Y292050D01*
Y288100D02*
X373203D01*
Y292050D01*
X374072D02*
X375172D01*
X374072Y288100D02*
Y292050D01*
Y288100D02*
X375172D01*
Y292050D01*
X378950Y295828D02*
Y296928D01*
Y295828D02*
X382900D01*
Y296928D01*
X378950D02*
X382900D01*
X378950Y297797D02*
Y298897D01*
Y297797D02*
X382900D01*
Y298897D01*
X378950D02*
X382900D01*
X378950Y299765D02*
Y300865D01*
Y299765D02*
X382900D01*
Y300865D01*
X378950D02*
X382900D01*
X378950Y301733D02*
Y302834D01*
Y301733D02*
X382900D01*
Y302834D01*
X378950D02*
X382900D01*
X378950Y303702D02*
Y304802D01*
Y303702D02*
X382900D01*
Y304802D01*
X378950D02*
X382900D01*
X378950Y305670D02*
Y306770D01*
Y305670D02*
X382900D01*
Y306770D01*
X378950D02*
X382900D01*
X378950Y307639D02*
Y308739D01*
Y307639D02*
X382900D01*
Y308739D01*
X378950D02*
X382900D01*
X378950Y309608D02*
Y310707D01*
Y309608D02*
X382900D01*
Y310707D01*
X378950D02*
X382900D01*
X378950Y311576D02*
Y312676D01*
Y311576D02*
X382900D01*
Y312676D01*
X378950D02*
X382900D01*
X378950Y313545D02*
Y314645D01*
Y313545D02*
X382900D01*
Y314645D01*
X378950D02*
X382900D01*
X378950Y315513D02*
Y316613D01*
Y315513D02*
X382900D01*
Y316613D01*
X378950D02*
X382900D01*
X378950Y317481D02*
Y318582D01*
Y317481D02*
X382900D01*
Y318582D01*
X378950D02*
X382900D01*
X378950Y319450D02*
Y320550D01*
Y319450D02*
X382900D01*
Y320550D01*
X378950D02*
X382900D01*
X378950Y321418D02*
Y322518D01*
Y321418D02*
X382900D01*
Y322518D01*
X378950D02*
X382900D01*
X378950Y323387D02*
Y324487D01*
Y323387D02*
X382900D01*
Y324487D01*
X378950D02*
X382900D01*
X378950Y325356D02*
Y326455D01*
Y325356D02*
X382900D01*
Y326455D01*
X378950D02*
X382900D01*
X378950Y327324D02*
Y328424D01*
Y327324D02*
X382900D01*
Y328424D01*
X378950D02*
X382900D01*
X378950Y329292D02*
Y330393D01*
Y329292D02*
X382900D01*
Y330393D01*
X378950D02*
X382900D01*
X378950Y331261D02*
Y332361D01*
Y331261D02*
X382900D01*
Y332361D01*
X378950D02*
X382900D01*
X378950Y333229D02*
Y334330D01*
Y333229D02*
X382900D01*
Y334330D01*
X378950D02*
X382900D01*
X378950Y335198D02*
Y336298D01*
Y335198D02*
X382900D01*
Y336298D01*
X378950D02*
X382900D01*
X378950Y337167D02*
Y338266D01*
Y337167D02*
X382900D01*
Y338266D01*
X378950D02*
X382900D01*
X378950Y339135D02*
Y340235D01*
Y339135D02*
X382900D01*
Y340235D01*
X378950D02*
X382900D01*
X378950Y341104D02*
Y342203D01*
Y341104D02*
X382900D01*
Y342203D01*
X378950D02*
X382900D01*
X378950Y343072D02*
Y344172D01*
Y343072D02*
X382900D01*
Y344172D01*
X378950D02*
X382900D01*
X323050Y342950D02*
X328050Y347950D01*
X323050Y292050D02*
X378950D01*
Y347950D01*
X323050D02*
X378950D01*
X323050Y292050D02*
Y347950D01*
X257675Y178000D02*
Y180000D01*
X255225D02*
X257675D01*
X255225Y178000D02*
Y180000D01*
Y178000D02*
X257675D01*
Y174260D02*
Y176260D01*
X255225D02*
X257675D01*
X255225Y174260D02*
Y176260D01*
Y174260D02*
X257675D01*
Y170520D02*
Y172520D01*
X255225D02*
X257675D01*
X255225Y170520D02*
Y172520D01*
Y170520D02*
X257675D01*
X264575D02*
Y172520D01*
Y170520D02*
X267025D01*
Y172520D01*
X264575D02*
X267025D01*
X264575Y174260D02*
Y176260D01*
Y174260D02*
X267025D01*
Y176260D01*
X264575D02*
X267025D01*
X264575Y178000D02*
Y180000D01*
Y178000D02*
X267025D01*
Y180000D01*
X264575D02*
X267025D01*
X257675Y169260D02*
X264575D01*
Y181260D01*
X257675D02*
X264575D01*
X257675Y169260D02*
Y181260D01*
X323500Y177240D02*
Y179240D01*
X321050D02*
X323500D01*
X321050Y177240D02*
Y179240D01*
Y177240D02*
X323500D01*
Y173500D02*
Y175500D01*
X321050D02*
X323500D01*
X321050Y173500D02*
Y175500D01*
Y173500D02*
X323500D01*
Y169760D02*
Y171760D01*
X321050D02*
X323500D01*
X321050Y169760D02*
Y171760D01*
Y169760D02*
X323500D01*
X330400D02*
Y171760D01*
Y169760D02*
X332850D01*
Y171760D01*
X330400D02*
X332850D01*
X330400Y173500D02*
Y175500D01*
Y173500D02*
X332850D01*
Y175500D01*
X330400D02*
X332850D01*
X330400Y177240D02*
Y179240D01*
Y177240D02*
X332850D01*
Y179240D01*
X330400D02*
X332850D01*
X323500Y168500D02*
X330400D01*
Y180500D01*
X323500D02*
X330400D01*
X323500Y168500D02*
Y180500D01*
M02*
