G04*
G04 #@! TF.GenerationSoftware,Altium Limited,Altium Designer,24.7.2 (38)*
G04*
G04 Layer_Color=8388736*
%FSLAX25Y25*%
%MOIN*%
G70*
G04*
G04 #@! TF.SameCoordinates,17647D21-3567-4D15-9BF9-88849ECC23B8*
G04*
G04*
G04 #@! TF.FilePolarity,Negative*
G04*
G01*
G75*
%ADD15R,0.05800X0.01100*%
%ADD16R,0.01100X0.05800*%
%ADD26R,0.03850X0.02200*%
%ADD28R,0.08961X0.06598*%
%ADD29R,0.06402X0.05417*%
%ADD30R,0.06205X0.05811*%
%ADD31R,0.03449X0.04236*%
%ADD32R,0.04748X0.09906*%
%ADD33R,0.05811X0.06205*%
%ADD34R,0.04236X0.03449*%
%ADD35R,0.21953X0.08173*%
%ADD36R,0.03055X0.05417*%
%ADD37R,0.02740X0.02661*%
%ADD38C,0.06500*%
%ADD39R,0.06500X0.06500*%
%ADD40C,0.06618*%
%ADD41C,0.07386*%
%ADD42R,0.07386X0.07386*%
%ADD43R,0.07386X0.07386*%
%ADD44C,0.03299*%
%ADD45C,0.02299*%
D15*
X320600Y343622D02*
D03*
Y341653D02*
D03*
Y339685D02*
D03*
Y337717D02*
D03*
Y335748D02*
D03*
Y333780D02*
D03*
Y331811D02*
D03*
Y329842D02*
D03*
Y327874D02*
D03*
Y325905D02*
D03*
Y323937D02*
D03*
Y321969D02*
D03*
Y320000D02*
D03*
Y318032D02*
D03*
Y316063D02*
D03*
Y314094D02*
D03*
Y312126D02*
D03*
Y310157D02*
D03*
Y308189D02*
D03*
Y306221D02*
D03*
Y304252D02*
D03*
Y302284D02*
D03*
Y300315D02*
D03*
Y298346D02*
D03*
Y296378D02*
D03*
X381400D02*
D03*
Y298346D02*
D03*
Y300315D02*
D03*
Y302284D02*
D03*
Y304252D02*
D03*
Y306221D02*
D03*
Y308189D02*
D03*
Y310157D02*
D03*
Y312126D02*
D03*
Y314094D02*
D03*
Y316063D02*
D03*
Y318032D02*
D03*
Y320000D02*
D03*
Y321969D02*
D03*
Y323937D02*
D03*
Y325905D02*
D03*
Y327874D02*
D03*
Y329842D02*
D03*
Y331811D02*
D03*
Y333780D02*
D03*
Y335748D02*
D03*
Y337717D02*
D03*
Y339685D02*
D03*
Y341653D02*
D03*
Y343622D02*
D03*
D16*
X327378Y289600D02*
D03*
X329346D02*
D03*
X331315D02*
D03*
X333283D02*
D03*
X335252D02*
D03*
X337221D02*
D03*
X339189D02*
D03*
X341158D02*
D03*
X343126D02*
D03*
X345094D02*
D03*
X347063D02*
D03*
X349031D02*
D03*
X351000D02*
D03*
X352969D02*
D03*
X354937D02*
D03*
X356906D02*
D03*
X358874D02*
D03*
X360842D02*
D03*
X362811D02*
D03*
X364779D02*
D03*
X366748D02*
D03*
X368717D02*
D03*
X370685D02*
D03*
X372654D02*
D03*
X374622D02*
D03*
Y350400D02*
D03*
X372654D02*
D03*
X370685D02*
D03*
X368717D02*
D03*
X366748D02*
D03*
X364779D02*
D03*
X362811D02*
D03*
X360842D02*
D03*
X358874D02*
D03*
X356906D02*
D03*
X354937D02*
D03*
X352969D02*
D03*
X351000D02*
D03*
X349031D02*
D03*
X347063D02*
D03*
X345094D02*
D03*
X343126D02*
D03*
X341158D02*
D03*
X339189D02*
D03*
X337221D02*
D03*
X335252D02*
D03*
X333283D02*
D03*
X331315D02*
D03*
X329346D02*
D03*
X327378D02*
D03*
D26*
X255750Y179000D02*
D03*
Y175260D02*
D03*
Y171520D02*
D03*
X266500D02*
D03*
Y175260D02*
D03*
Y179000D02*
D03*
X321575Y178240D02*
D03*
Y174500D02*
D03*
Y170760D02*
D03*
X332325D02*
D03*
Y174500D02*
D03*
Y178240D02*
D03*
D28*
X275000Y212098D02*
D03*
Y186902D02*
D03*
X341000Y186402D02*
D03*
Y211598D02*
D03*
D29*
X390850Y368358D02*
D03*
X422150D02*
D03*
X390850Y350642D02*
D03*
X422150D02*
D03*
D30*
X353500Y170000D02*
D03*
Y162520D02*
D03*
X236500Y194500D02*
D03*
Y187020D02*
D03*
X247000Y188500D02*
D03*
Y181020D02*
D03*
X302000Y186520D02*
D03*
Y194000D02*
D03*
X343500Y162520D02*
D03*
Y170000D02*
D03*
X285500Y162760D02*
D03*
Y170240D02*
D03*
X276000Y162760D02*
D03*
Y170240D02*
D03*
X312000Y187480D02*
D03*
Y180000D02*
D03*
D31*
X304450Y164000D02*
D03*
X298545D02*
D03*
X238500Y165000D02*
D03*
X232594D02*
D03*
X395094Y173000D02*
D03*
X401000D02*
D03*
X398095Y183500D02*
D03*
X404000D02*
D03*
D32*
X416500Y324429D02*
D03*
X406500D02*
D03*
X416500Y290571D02*
D03*
X406500D02*
D03*
D33*
X419480Y333500D02*
D03*
X412000D02*
D03*
X404000Y341000D02*
D03*
X411480D02*
D03*
D34*
X381000Y210405D02*
D03*
Y204500D02*
D03*
X399500Y210000D02*
D03*
Y204095D02*
D03*
X246000Y165500D02*
D03*
Y171405D02*
D03*
X311950Y164000D02*
D03*
Y169905D02*
D03*
D35*
X244201Y335000D02*
D03*
X206799D02*
D03*
D36*
X387260Y201724D02*
D03*
X394740D02*
D03*
Y192276D02*
D03*
X391000D02*
D03*
X387260D02*
D03*
D37*
X192000Y336622D02*
D03*
Y333000D02*
D03*
X261430Y330378D02*
D03*
Y334000D02*
D03*
D38*
X366000Y233000D02*
D03*
Y243000D02*
D03*
Y253000D02*
D03*
X221500Y169000D02*
D03*
Y221000D02*
D03*
Y195000D02*
D03*
D39*
X366000Y263000D02*
D03*
X221500Y159000D02*
D03*
Y211000D02*
D03*
Y185000D02*
D03*
D40*
Y237500D02*
D03*
Y247500D02*
D03*
Y257500D02*
D03*
Y267500D02*
D03*
Y277500D02*
D03*
Y287500D02*
D03*
D41*
X422500Y248000D02*
D03*
Y238000D02*
D03*
Y228000D02*
D03*
Y218000D02*
D03*
Y208000D02*
D03*
Y198000D02*
D03*
Y188000D02*
D03*
Y178000D02*
D03*
Y168000D02*
D03*
X289500Y363000D02*
D03*
X279500D02*
D03*
X269500D02*
D03*
X259500D02*
D03*
X249500D02*
D03*
X239500D02*
D03*
X229500D02*
D03*
X219500D02*
D03*
X209500D02*
D03*
D42*
X422500Y158000D02*
D03*
D43*
X199500Y363000D02*
D03*
D44*
X334500Y297000D02*
D03*
X328000Y296500D02*
D03*
X327500Y308000D02*
D03*
X367828Y297745D02*
D03*
X313500Y322500D02*
D03*
X373500Y343213D02*
D03*
X329000Y344000D02*
D03*
X335000Y344500D02*
D03*
X328500Y320500D02*
D03*
X397500Y352000D02*
D03*
X300000Y227000D02*
D03*
X355500Y175000D02*
D03*
X338000Y174500D02*
D03*
X381000Y192000D02*
D03*
X390094Y167000D02*
D03*
Y173000D02*
D03*
X354500Y300500D02*
D03*
X369000Y303000D02*
D03*
X335500Y318500D02*
D03*
X313500Y333500D02*
D03*
X372020Y329500D02*
D03*
X375020Y337000D02*
D03*
X271000Y175500D02*
D03*
X286500D02*
D03*
X348500Y174500D02*
D03*
X416500Y316500D02*
D03*
X374500Y296500D02*
D03*
X381000Y215000D02*
D03*
X394500Y211500D02*
D03*
X280500Y175500D02*
D03*
X318000Y206000D02*
D03*
X309500D02*
D03*
X301500D02*
D03*
X318000Y198500D02*
D03*
X309500D02*
D03*
X301500D02*
D03*
X318500Y215500D02*
D03*
X309500D02*
D03*
X301500D02*
D03*
X351000Y218500D02*
D03*
X341000D02*
D03*
X331500D02*
D03*
X285000Y220000D02*
D03*
X274500D02*
D03*
X264500D02*
D03*
X245500Y200000D02*
D03*
X254000Y209000D02*
D03*
X245500Y209500D02*
D03*
X236500D02*
D03*
X254000Y200000D02*
D03*
X236500D02*
D03*
Y219000D02*
D03*
X254000D02*
D03*
X245500D02*
D03*
D45*
X348000Y295000D02*
D03*
X341500Y297500D02*
D03*
X357000Y336500D02*
D03*
X360500Y295000D02*
D03*
X291500Y315500D02*
D03*
X328500Y339000D02*
D03*
X425500Y333500D02*
D03*
X422500Y326000D02*
D03*
X421000Y340000D02*
D03*
X250500Y156000D02*
D03*
X243000D02*
D03*
X365500Y343000D02*
D03*
X356000D02*
D03*
X371000Y359500D02*
D03*
X341500Y362000D02*
D03*
X329500Y356500D02*
D03*
X311000Y328000D02*
D03*
X341000Y343500D02*
D03*
X348500Y342000D02*
D03*
X351000Y336500D02*
D03*
X391000Y362500D02*
D03*
X397500Y368000D02*
D03*
X416000Y368500D02*
D03*
X422000Y363000D02*
D03*
X405000Y347500D02*
D03*
X423500Y280500D02*
D03*
X416500D02*
D03*
X402500D02*
D03*
X409500D02*
D03*
X249500Y175500D02*
D03*
X316500Y174500D02*
D03*
X391000Y185000D02*
D03*
X382000Y185500D02*
D03*
X393000Y179500D02*
D03*
X400000Y178500D02*
D03*
X359500Y313500D02*
D03*
X354000Y308000D02*
D03*
X346000Y332500D02*
D03*
X335000D02*
D03*
X341500Y328500D02*
D03*
X343000Y321500D02*
D03*
X346500Y315500D02*
D03*
X336000Y325000D02*
D03*
X309000Y309000D02*
D03*
X313500Y304000D02*
D03*
X345000Y308500D02*
D03*
X348500Y302500D02*
D03*
X368500Y316500D02*
D03*
X367000Y309500D02*
D03*
X322000Y289500D02*
D03*
X368500Y281000D02*
D03*
X377000Y283500D02*
D03*
X361020Y330000D02*
D03*
X388000Y341500D02*
D03*
X380000Y291000D02*
D03*
X287500Y286000D02*
D03*
X291500Y295000D02*
D03*
X398500Y345000D02*
D03*
X391435Y331435D02*
D03*
X375500Y316500D02*
D03*
X282000Y293500D02*
D03*
X277500Y272000D02*
D03*
X390018Y275982D02*
D03*
X387000Y271500D02*
D03*
X363000Y283500D02*
D03*
X387000Y214000D02*
D03*
X390000Y218500D02*
D03*
X316500Y155500D02*
D03*
X338500D02*
D03*
X346500D02*
D03*
X353500D02*
D03*
X281000Y156000D02*
D03*
X288000D02*
D03*
X244000Y175500D02*
D03*
X310500Y174500D02*
D03*
X305000Y172000D02*
D03*
X299500D02*
D03*
X305000Y179500D02*
D03*
X299500D02*
D03*
X239000Y180500D02*
D03*
X233500D02*
D03*
Y173000D02*
D03*
X239000D02*
D03*
X236000Y156000D02*
D03*
X258000D02*
D03*
Y163000D02*
D03*
X265000D02*
D03*
Y156000D02*
D03*
X273000D02*
D03*
X324000Y163000D02*
D03*
X331500D02*
D03*
Y155500D02*
D03*
X324000D02*
D03*
X308500D02*
D03*
X301000D02*
D03*
M02*
