G04*
G04 #@! TF.GenerationSoftware,Altium Limited,Altium Designer,24.6.1 (21)*
G04*
G04 Layer_Color=32896*
%FSLAX25Y25*%
%MOIN*%
G70*
G04*
G04 #@! TF.SameCoordinates,53350382-22CE-4EB4-8EAE-C997BD2E2089*
G04*
G04*
G04 #@! TF.FilePolarity,Positive*
G04*
G01*
G75*
%ADD12C,0.00394*%
D12*
X349453Y314531D02*
Y318468D01*
X347484Y316500D02*
X351421D01*
X349453Y324031D02*
Y327969D01*
X347484Y326000D02*
X351421D01*
X366000Y316032D02*
Y319969D01*
X364032Y318000D02*
X367969D01*
X369032Y302500D02*
X372969D01*
X371000Y300532D02*
Y304468D01*
X366953Y339531D02*
Y343468D01*
X364984Y341500D02*
X368921D01*
X335047Y335531D02*
Y339469D01*
X333079Y337500D02*
X337016D01*
X367047Y326031D02*
Y329969D01*
X365079Y328000D02*
X369016D01*
X359531Y302453D02*
X363469D01*
X361500Y300484D02*
Y304421D01*
X329532Y307453D02*
X333469D01*
X331500Y305484D02*
Y309421D01*
X341000Y305532D02*
Y309469D01*
X339032Y307500D02*
X342969D01*
X326532Y325547D02*
X330469D01*
X328500Y323579D02*
Y327516D01*
X336032Y325500D02*
X339968D01*
X338000Y323532D02*
Y327468D01*
M02*
