G04*
G04 #@! TF.GenerationSoftware,Altium Limited,Altium Designer,24.7.2 (38)*
G04*
G04 Layer_Color=16711935*
%FSLAX25Y25*%
%MOIN*%
G70*
G04*
G04 #@! TF.SameCoordinates,17647D21-3567-4D15-9BF9-88849ECC23B8*
G04*
G04*
G04 #@! TF.FilePolarity,Negative*
G04*
G01*
G75*
%ADD30R,0.06205X0.05811*%
%ADD33R,0.05811X0.06205*%
%ADD38C,0.06500*%
%ADD39R,0.06500X0.06500*%
%ADD40C,0.06618*%
%ADD41C,0.07386*%
%ADD42R,0.07386X0.07386*%
%ADD43R,0.07386X0.07386*%
%ADD44C,0.03299*%
%ADD45C,0.02299*%
D30*
X361000Y307000D02*
D03*
Y299520D02*
D03*
X373500Y302000D02*
D03*
Y309480D02*
D03*
D33*
X343480Y338500D02*
D03*
X336000D02*
D03*
X341500Y290000D02*
D03*
X334020D02*
D03*
X340980Y350500D02*
D03*
X333500D02*
D03*
X362020Y335500D02*
D03*
X369500D02*
D03*
X329240Y333500D02*
D03*
X321760D02*
D03*
X329000Y326500D02*
D03*
X321520D02*
D03*
X338980Y304000D02*
D03*
X331500D02*
D03*
X338980Y312000D02*
D03*
X331500D02*
D03*
X370500Y350500D02*
D03*
X363020D02*
D03*
D38*
X366000Y233000D02*
D03*
Y243000D02*
D03*
Y253000D02*
D03*
X221500Y169000D02*
D03*
Y221000D02*
D03*
Y195000D02*
D03*
D39*
X366000Y263000D02*
D03*
X221500Y159000D02*
D03*
Y211000D02*
D03*
Y185000D02*
D03*
D40*
Y237500D02*
D03*
Y247500D02*
D03*
Y257500D02*
D03*
Y267500D02*
D03*
Y277500D02*
D03*
Y287500D02*
D03*
D41*
X422500Y248000D02*
D03*
Y238000D02*
D03*
Y228000D02*
D03*
Y218000D02*
D03*
Y208000D02*
D03*
Y198000D02*
D03*
Y188000D02*
D03*
Y178000D02*
D03*
Y168000D02*
D03*
X289500Y363000D02*
D03*
X279500D02*
D03*
X269500D02*
D03*
X259500D02*
D03*
X249500D02*
D03*
X239500D02*
D03*
X229500D02*
D03*
X219500D02*
D03*
X209500D02*
D03*
D42*
X422500Y158000D02*
D03*
D43*
X199500Y363000D02*
D03*
D44*
X334500Y297000D02*
D03*
X328000Y296500D02*
D03*
X327500Y308000D02*
D03*
X367828Y297745D02*
D03*
X313500Y322500D02*
D03*
X373500Y343213D02*
D03*
X329000Y344000D02*
D03*
X335000Y344500D02*
D03*
X328500Y320500D02*
D03*
X397500Y352000D02*
D03*
X300000Y227000D02*
D03*
X355500Y175000D02*
D03*
X338000Y174500D02*
D03*
X381000Y192000D02*
D03*
X390094Y167000D02*
D03*
Y173000D02*
D03*
X354500Y300500D02*
D03*
X369000Y303000D02*
D03*
X335500Y318500D02*
D03*
X313500Y333500D02*
D03*
X372020Y329500D02*
D03*
X375020Y337000D02*
D03*
X271000Y175500D02*
D03*
X286500D02*
D03*
X348500Y174500D02*
D03*
X416500Y316500D02*
D03*
X374500Y296500D02*
D03*
X381000Y215000D02*
D03*
X394500Y211500D02*
D03*
X280500Y175500D02*
D03*
X318000Y206000D02*
D03*
X309500D02*
D03*
X301500D02*
D03*
X318000Y198500D02*
D03*
X309500D02*
D03*
X301500D02*
D03*
X318500Y215500D02*
D03*
X309500D02*
D03*
X301500D02*
D03*
X351000Y218500D02*
D03*
X341000D02*
D03*
X331500D02*
D03*
X285000Y220000D02*
D03*
X274500D02*
D03*
X264500D02*
D03*
X245500Y200000D02*
D03*
X254000Y209000D02*
D03*
X245500Y209500D02*
D03*
X236500D02*
D03*
X254000Y200000D02*
D03*
X236500D02*
D03*
Y219000D02*
D03*
X254000D02*
D03*
X245500D02*
D03*
D45*
X348000Y295000D02*
D03*
X341500Y297500D02*
D03*
X357000Y336500D02*
D03*
X360500Y295000D02*
D03*
X291500Y315500D02*
D03*
X328500Y339000D02*
D03*
X425500Y333500D02*
D03*
X422500Y326000D02*
D03*
X421000Y340000D02*
D03*
X250500Y156000D02*
D03*
X243000D02*
D03*
X365500Y343000D02*
D03*
X356000D02*
D03*
X371000Y359500D02*
D03*
X341500Y362000D02*
D03*
X329500Y356500D02*
D03*
X311000Y328000D02*
D03*
X341000Y343500D02*
D03*
X348500Y342000D02*
D03*
X351000Y336500D02*
D03*
X391000Y362500D02*
D03*
X397500Y368000D02*
D03*
X416000Y368500D02*
D03*
X422000Y363000D02*
D03*
X405000Y347500D02*
D03*
X423500Y280500D02*
D03*
X416500D02*
D03*
X402500D02*
D03*
X409500D02*
D03*
X249500Y175500D02*
D03*
X316500Y174500D02*
D03*
X391000Y185000D02*
D03*
X382000Y185500D02*
D03*
X393000Y179500D02*
D03*
X400000Y178500D02*
D03*
X359500Y313500D02*
D03*
X354000Y308000D02*
D03*
X346000Y332500D02*
D03*
X335000D02*
D03*
X341500Y328500D02*
D03*
X343000Y321500D02*
D03*
X346500Y315500D02*
D03*
X336000Y325000D02*
D03*
X309000Y309000D02*
D03*
X313500Y304000D02*
D03*
X345000Y308500D02*
D03*
X348500Y302500D02*
D03*
X368500Y316500D02*
D03*
X367000Y309500D02*
D03*
X322000Y289500D02*
D03*
X368500Y281000D02*
D03*
X377000Y283500D02*
D03*
X361020Y330000D02*
D03*
X388000Y341500D02*
D03*
X380000Y291000D02*
D03*
X287500Y286000D02*
D03*
X291500Y295000D02*
D03*
X398500Y345000D02*
D03*
X391435Y331435D02*
D03*
X375500Y316500D02*
D03*
X282000Y293500D02*
D03*
X277500Y272000D02*
D03*
X390018Y275982D02*
D03*
X387000Y271500D02*
D03*
X363000Y283500D02*
D03*
X387000Y214000D02*
D03*
X390000Y218500D02*
D03*
X316500Y155500D02*
D03*
X338500D02*
D03*
X346500D02*
D03*
X353500D02*
D03*
X281000Y156000D02*
D03*
X288000D02*
D03*
X244000Y175500D02*
D03*
X310500Y174500D02*
D03*
X305000Y172000D02*
D03*
X299500D02*
D03*
X305000Y179500D02*
D03*
X299500D02*
D03*
X239000Y180500D02*
D03*
X233500D02*
D03*
Y173000D02*
D03*
X239000D02*
D03*
X236000Y156000D02*
D03*
X258000D02*
D03*
Y163000D02*
D03*
X265000D02*
D03*
Y156000D02*
D03*
X273000D02*
D03*
X324000Y163000D02*
D03*
X331500D02*
D03*
Y155500D02*
D03*
X324000D02*
D03*
X308500D02*
D03*
X301000D02*
D03*
M02*
