M48
;Layer_Color=9474304
;FILE_FORMAT=2:4
INCH,TZ
;TYPE=PLATED
T01F00S00C0.0080
T02F00S00C0.0160
T03F00S00C0.0413
T04F00S00C0.0421
T05F00S00C0.0472
%
T01
X23600Y15600
X24300
X25050
X25800
X26500
X27300
X28100
X28800
X30100Y15550
X30850
X31650
X32400
X33150
X33850
X34650
X35350
X33150Y16300
X32400
X31650Y17450
X38200Y18550
X39100Y18500
X39300Y17950
X40000Y17850
X38700Y21400
X39000Y21850
X38700Y27150
X39002Y27598
X40250Y28050
X40950
X41650
X42350
X37700Y28350
X38000Y29100
X36850Y28100
X36300Y28350
X36050Y29500
X34800
X34850Y30250
X34500Y30850
X35400Y30800
X36700Y30950
X34150Y29750
X32200Y28950
X31350Y30400
X30900Y30900
X29150Y29500
X28200Y29350
X28750Y28600
X27750Y27200
X29950Y17950
X30500
Y17200
X29950
X31050Y17450
X26500Y16300
X25800
X24950Y17550
X24400
X23900Y17300
X23350
Y18050
X23900
X29150Y31550
X31100Y32800
X33600Y32500
X33500Y33250
X34150Y32850
X34600Y33250
X35100Y33650
X35700
X35600Y34300
X34850Y34200
X34100Y34350
X32850Y33900
X32950Y35650
X34150Y36200
X37100Y35950
X36550Y34300
X36102Y33000
X35950Y31350
X36850Y31650
X37550
X34650Y31550
X34300Y32150
X39144Y33144
X38800Y34150
X39850Y34500
X40500Y34750
X42100Y34000
X42550Y33350
X42250Y32600
X42200Y36300
X41600Y36850
X39750Y36800
X39100Y36250
T02
X33800Y17450
X34850
X35550Y17500
X39009Y17300
Y16700
X38100Y19200
Y21500
X39450Y21150
X35100Y21850
X34100
X33150
X31850Y21550
X31800Y20600
Y19850
X32800Y29650
X33450Y29700
X32750Y30800
X35450Y30050
X36783Y29775
X36900Y30300
X37450Y29650
X30000Y22700
X30150Y21550
X30950
Y20600
Y19850
X30150
Y20600
X28500Y22000
X27450
X26450
X25400Y21900
X24550
X23650
Y20950
X24550
X25400Y20900
Y20000
X24550
X23650
X27100Y17550
X28050
X28650
X31350Y32250
Y33350
X32900Y34400
X33500Y34450
X33550Y31850
X32850Y32050
X37202Y32950
X37502Y33700
X37350Y34321
X39750Y35200
X41650Y31650
T03
X36600Y23300
Y24300
Y25300
Y26300
X22150Y22100
Y21100
Y19500
Y18500
Y16900
Y15900
T04
X22150Y23750
Y24750
Y25750
Y26750
Y27750
Y28750
T05
X42250Y15800
Y16800
Y17800
Y18800
Y19800
Y20800
Y21800
Y22800
Y23800
Y24800
X28950Y36300
X27950
X26950
X25950
X24950
X23950
X22950
X21950
X20950
X19950
M30
