G04*
G04 #@! TF.GenerationSoftware,Altium Limited,Altium Designer,24.6.1 (21)*
G04*
G04 Layer_Physical_Order=4*
G04 Layer_Color=16711680*
%FSLAX44Y44*%
%MOMM*%
G71*
G04*
G04 #@! TF.SameCoordinates,687BAC2B-120B-4896-92E6-0E63200D37F7*
G04*
G04*
G04 #@! TF.FilePolarity,Positive*
G04*
G01*
G75*
%ADD14C,0.2540*%
%ADD27R,0.9500X1.3500*%
%ADD28R,1.3500X0.9500*%
%ADD45C,1.6050*%
%ADD46R,1.5750X1.5750*%
%ADD47C,1.5750*%
%ADD48C,1.8000*%
%ADD49R,1.8000X1.8000*%
%ADD50R,1.8000X1.8000*%
%ADD51C,0.5080*%
G36*
X1094221Y380249D02*
X448829D01*
Y954521D01*
X1094221Y954521D01*
Y380249D01*
D02*
G37*
%LPC*%
G36*
X711232Y931909D02*
X708628D01*
X706113Y931235D01*
X703858Y929933D01*
X702017Y928092D01*
X700715Y925837D01*
X700041Y923322D01*
Y920718D01*
X700715Y918203D01*
X702017Y915948D01*
X703858Y914107D01*
X706113Y912805D01*
X708628Y912131D01*
X711232D01*
X713747Y912805D01*
X716002Y914107D01*
X717843Y915948D01*
X719145Y918203D01*
X719819Y920718D01*
Y923322D01*
X719145Y925837D01*
X717843Y928092D01*
X716002Y929933D01*
X713747Y931235D01*
X711232Y931909D01*
D02*
G37*
G36*
X685832D02*
X683228D01*
X680713Y931235D01*
X678458Y929933D01*
X676617Y928092D01*
X675315Y925837D01*
X674641Y923322D01*
Y920718D01*
X675315Y918203D01*
X676617Y915948D01*
X678458Y914107D01*
X680713Y912805D01*
X683228Y912131D01*
X685832D01*
X688347Y912805D01*
X690602Y914107D01*
X692443Y915948D01*
X693745Y918203D01*
X694419Y920718D01*
Y923322D01*
X693745Y925837D01*
X692443Y928092D01*
X690602Y929933D01*
X688347Y931235D01*
X685832Y931909D01*
D02*
G37*
G36*
X660432D02*
X657828D01*
X655313Y931235D01*
X653058Y929933D01*
X651217Y928092D01*
X649915Y925837D01*
X649241Y923322D01*
Y920718D01*
X649915Y918203D01*
X651217Y915948D01*
X653058Y914107D01*
X655313Y912805D01*
X657828Y912131D01*
X660432D01*
X662947Y912805D01*
X665202Y914107D01*
X667043Y915948D01*
X668345Y918203D01*
X669019Y920718D01*
Y923322D01*
X668345Y925837D01*
X667043Y928092D01*
X665202Y929933D01*
X662947Y931235D01*
X660432Y931909D01*
D02*
G37*
G36*
X635032D02*
X632428D01*
X629913Y931235D01*
X627658Y929933D01*
X625817Y928092D01*
X624515Y925837D01*
X623841Y923322D01*
Y920718D01*
X624515Y918203D01*
X625817Y915948D01*
X627658Y914107D01*
X629913Y912805D01*
X632428Y912131D01*
X635032D01*
X637547Y912805D01*
X639802Y914107D01*
X641643Y915948D01*
X642945Y918203D01*
X643619Y920718D01*
Y923322D01*
X642945Y925837D01*
X641643Y928092D01*
X639802Y929933D01*
X637547Y931235D01*
X635032Y931909D01*
D02*
G37*
G36*
X609632D02*
X607028D01*
X604513Y931235D01*
X602258Y929933D01*
X600417Y928092D01*
X599115Y925837D01*
X598441Y923322D01*
Y920718D01*
X599115Y918203D01*
X600417Y915948D01*
X602258Y914107D01*
X604513Y912805D01*
X607028Y912131D01*
X609632D01*
X612147Y912805D01*
X614402Y914107D01*
X616243Y915948D01*
X617545Y918203D01*
X618219Y920718D01*
Y923322D01*
X617545Y925837D01*
X616243Y928092D01*
X614402Y929933D01*
X612147Y931235D01*
X609632Y931909D01*
D02*
G37*
G36*
X584232D02*
X581628D01*
X579113Y931235D01*
X576858Y929933D01*
X575017Y928092D01*
X573715Y925837D01*
X573041Y923322D01*
Y920718D01*
X573715Y918203D01*
X575017Y915948D01*
X576858Y914107D01*
X579113Y912805D01*
X581628Y912131D01*
X584232D01*
X586747Y912805D01*
X589002Y914107D01*
X590843Y915948D01*
X592145Y918203D01*
X592819Y920718D01*
Y923322D01*
X592145Y925837D01*
X590843Y928092D01*
X589002Y929933D01*
X586747Y931235D01*
X584232Y931909D01*
D02*
G37*
G36*
X533432D02*
X530828D01*
X528313Y931235D01*
X526058Y929933D01*
X524217Y928092D01*
X522915Y925837D01*
X522241Y923322D01*
Y920718D01*
X522915Y918203D01*
X524217Y915948D01*
X526058Y914107D01*
X528313Y912805D01*
X530828Y912131D01*
X533432D01*
X535947Y912805D01*
X538202Y914107D01*
X540043Y915948D01*
X541345Y918203D01*
X542019Y920718D01*
Y923322D01*
X541345Y925837D01*
X540043Y928092D01*
X538202Y929933D01*
X535947Y931235D01*
X533432Y931909D01*
D02*
G37*
G36*
X516619D02*
X496841D01*
Y912131D01*
X516619D01*
Y931909D01*
D02*
G37*
G36*
X1015412Y915289D02*
X1014048D01*
X1012788Y914767D01*
X1011823Y913802D01*
X1011301Y912542D01*
Y911178D01*
X1011823Y909918D01*
X1012788Y908953D01*
X1014048Y908431D01*
X1015412D01*
X1016672Y908953D01*
X1017637Y909918D01*
X1018159Y911178D01*
Y912542D01*
X1017637Y913802D01*
X1016672Y914767D01*
X1015412Y915289D01*
D02*
G37*
G36*
X867410Y916601D02*
X826770D01*
X825928Y916434D01*
X825213Y915957D01*
X745203Y835947D01*
X744726Y835232D01*
X744559Y834390D01*
Y749408D01*
X743853Y748702D01*
X743331Y747442D01*
Y746078D01*
X743853Y744818D01*
X744818Y743853D01*
X746078Y743331D01*
X747442D01*
X748702Y743853D01*
X749667Y744818D01*
X750189Y746078D01*
Y747442D01*
X749667Y748702D01*
X748961Y749408D01*
Y833478D01*
X756388Y840905D01*
X756720Y840842D01*
X757259Y840518D01*
Y746868D01*
X756553Y746162D01*
X756031Y744902D01*
Y743538D01*
X756553Y742278D01*
X757518Y741313D01*
X758778Y740791D01*
X760142D01*
X761402Y741313D01*
X762367Y742278D01*
X762889Y743538D01*
Y744902D01*
X762367Y746162D01*
X761661Y746868D01*
Y839828D01*
X826412Y904579D01*
X935882D01*
X936588Y903873D01*
X937848Y903351D01*
X939212D01*
X940472Y903873D01*
X941437Y904838D01*
X941959Y906098D01*
Y907462D01*
X941437Y908722D01*
X940472Y909687D01*
X939212Y910209D01*
X937848D01*
X936588Y909687D01*
X935882Y908981D01*
X869948D01*
X869771Y909870D01*
X870622Y910223D01*
X871587Y911188D01*
X872109Y912448D01*
Y913812D01*
X871587Y915072D01*
X870622Y916037D01*
X869362Y916559D01*
X867998D01*
X867876Y916509D01*
X867410Y916601D01*
D02*
G37*
G36*
X1029382Y906399D02*
X1028018D01*
X1026758Y905877D01*
X1025793Y904912D01*
X1025271Y903652D01*
Y902288D01*
X1025793Y901028D01*
X1026758Y900063D01*
X1028018Y899541D01*
X1029382D01*
X1030642Y900063D01*
X1031607Y901028D01*
X1032129Y902288D01*
Y903652D01*
X1031607Y904912D01*
X1030642Y905877D01*
X1029382Y906399D01*
D02*
G37*
G36*
X952647Y875184D02*
X951283D01*
X950023Y874662D01*
X949058Y873697D01*
X948536Y872437D01*
Y871730D01*
X946418Y869611D01*
X945199D01*
Y875049D01*
X933921D01*
Y859771D01*
X937359D01*
Y854126D01*
X936588Y853807D01*
X935623Y852842D01*
X935101Y851582D01*
Y850218D01*
X935623Y848958D01*
X936588Y847993D01*
X937848Y847471D01*
X939212D01*
X940472Y847993D01*
X941437Y848958D01*
X941959Y850218D01*
Y851582D01*
X941761Y852059D01*
Y859771D01*
X945199D01*
Y865209D01*
X947330D01*
X948172Y865376D01*
X948886Y865854D01*
X951358Y868326D01*
X952647D01*
X953908Y868848D01*
X954872Y869812D01*
X955394Y871072D01*
Y872437D01*
X954872Y873697D01*
X953908Y874662D01*
X952647Y875184D01*
D02*
G37*
G36*
X1021762Y872109D02*
X1020398D01*
X1019138Y871587D01*
X1018173Y870622D01*
X1017651Y869362D01*
Y867998D01*
X1018173Y866738D01*
X1019138Y865773D01*
X1020398Y865251D01*
X1021762D01*
X1023022Y865773D01*
X1023987Y866738D01*
X1024509Y867998D01*
Y869362D01*
X1023987Y870622D01*
X1023022Y871587D01*
X1021762Y872109D01*
D02*
G37*
G36*
X832532Y878459D02*
X831168D01*
X829908Y877937D01*
X828943Y876972D01*
X828421Y875712D01*
Y874348D01*
X828943Y873088D01*
X829908Y872123D01*
X830135Y872029D01*
Y870434D01*
X830302Y869592D01*
X830779Y868877D01*
X833728Y865929D01*
X833252Y865237D01*
X831992Y865759D01*
X830628D01*
X829368Y865237D01*
X828403Y864272D01*
X827881Y863012D01*
Y861648D01*
X828403Y860388D01*
X829368Y859423D01*
X830628Y858901D01*
X830896D01*
X834103Y855694D01*
X834818Y855216D01*
X835660Y855049D01*
X837881D01*
Y849611D01*
X849159D01*
Y864889D01*
X845481D01*
Y868572D01*
X846187Y869278D01*
X846709Y870538D01*
Y871902D01*
X846187Y873162D01*
X845222Y874127D01*
X843962Y874649D01*
X842598D01*
X841338Y874127D01*
X840373Y873162D01*
X839851Y871902D01*
Y870538D01*
X840373Y869278D01*
X841079Y868572D01*
Y866062D01*
X840190Y865693D01*
X834537Y871346D01*
Y872868D01*
X834757Y873088D01*
X835279Y874348D01*
Y875712D01*
X834757Y876972D01*
X833792Y877937D01*
X832532Y878459D01*
D02*
G37*
G36*
X909320Y879771D02*
X908478Y879604D01*
X907764Y879127D01*
X907286Y878412D01*
X907119Y877570D01*
X907286Y876728D01*
X907764Y876013D01*
X912443Y871333D01*
X913158Y870856D01*
X914000Y870689D01*
X920168D01*
X922359Y868498D01*
Y866322D01*
X920168Y864131D01*
X914125D01*
X913282Y863964D01*
X912568Y863487D01*
X911949Y862867D01*
X911573Y862617D01*
X911096Y861902D01*
X910929Y861060D01*
X911096Y860218D01*
X911573Y859503D01*
X912288Y859026D01*
X913130Y858859D01*
X913254D01*
X914097Y859026D01*
X914811Y859503D01*
X915036Y859729D01*
X921080D01*
X921922Y859896D01*
X922636Y860374D01*
X926117Y863854D01*
X926594Y864568D01*
X926761Y865410D01*
Y869410D01*
X926594Y870252D01*
X926117Y870966D01*
X922636Y874446D01*
X921922Y874924D01*
X921080Y875091D01*
X914912D01*
X910876Y879127D01*
X910162Y879604D01*
X909320Y879771D01*
D02*
G37*
G36*
X1012872Y863219D02*
X1011508D01*
X1010248Y862697D01*
X1009283Y861732D01*
X1008761Y860472D01*
Y859108D01*
X1009283Y857848D01*
X1010248Y856883D01*
X1011508Y856361D01*
X1012872D01*
X1014132Y856883D01*
X1015097Y857848D01*
X1015619Y859108D01*
Y860472D01*
X1015097Y861732D01*
X1014132Y862697D01*
X1012872Y863219D01*
D02*
G37*
G36*
X853440Y877231D02*
X852598Y877064D01*
X851883Y876587D01*
X851406Y875872D01*
X851239Y875030D01*
Y864330D01*
X851406Y863488D01*
X851883Y862774D01*
X856319Y858338D01*
Y857250D01*
X856486Y856408D01*
X856964Y855694D01*
X857678Y855216D01*
X858520Y855049D01*
X878840D01*
X879682Y855216D01*
X880396Y855694D01*
X880874Y856408D01*
X881041Y857250D01*
X880874Y858092D01*
X880396Y858807D01*
X879682Y859284D01*
X878840Y859451D01*
X862996D01*
X862656Y860273D01*
X867428Y865044D01*
X867905Y865759D01*
X868047Y866475D01*
X868391Y866989D01*
X868558Y867831D01*
X868391Y868674D01*
X867914Y869388D01*
X867199Y869865D01*
X866357Y870033D01*
X865515Y869865D01*
X864800Y869388D01*
X864314Y868902D01*
X863837Y868188D01*
X863711Y867554D01*
X858520Y862363D01*
X855641Y865242D01*
Y875030D01*
X855474Y875872D01*
X854996Y876587D01*
X854282Y877064D01*
X853440Y877231D01*
D02*
G37*
G36*
X897302Y860679D02*
X895938D01*
X894678Y860157D01*
X893713Y859192D01*
X893191Y857932D01*
Y856934D01*
X884360Y848103D01*
X883314Y848315D01*
X883017Y849032D01*
X882052Y849997D01*
X880792Y850519D01*
X879428D01*
X878168Y849997D01*
X877203Y849032D01*
X876681Y847772D01*
Y846774D01*
X874743Y844837D01*
X874266Y844122D01*
X874099Y843280D01*
Y835008D01*
X874266Y834165D01*
X874429Y833922D01*
Y831520D01*
X874471Y831307D01*
Y820401D01*
X877909D01*
Y811549D01*
X875376D01*
X874649Y812118D01*
X874649Y812364D01*
Y813482D01*
X874127Y814742D01*
X873162Y815707D01*
X871902Y816229D01*
X870780D01*
X869662Y817346D01*
X868948Y817824D01*
X868105Y817991D01*
X866159D01*
Y824909D01*
X850881D01*
Y821591D01*
X842029D01*
Y825029D01*
X826751D01*
Y813751D01*
X832189D01*
Y810947D01*
X832356Y810105D01*
X832429Y809996D01*
X832276Y809627D01*
Y808263D01*
X832501Y807719D01*
X831748Y807216D01*
X815717Y823247D01*
X815003Y823724D01*
X814160Y823891D01*
X801478D01*
X800772Y824597D01*
X799512Y825119D01*
X798148D01*
X796888Y824597D01*
X795923Y823632D01*
X795401Y822372D01*
Y821008D01*
X795923Y819748D01*
X796888Y818783D01*
X798148Y818261D01*
X799512D01*
X800772Y818783D01*
X801478Y819489D01*
X813249D01*
X830384Y802354D01*
X831098Y801876D01*
X831940Y801709D01*
X874471D01*
Y796271D01*
X875369D01*
Y783698D01*
X874663Y782992D01*
X874141Y781732D01*
Y780368D01*
X874361Y779837D01*
X873667Y779189D01*
X873002Y779189D01*
X858501D01*
Y775631D01*
X849649D01*
Y779069D01*
X834371D01*
Y772151D01*
X829802D01*
X828959Y771984D01*
X828245Y771507D01*
X826704Y769965D01*
X825362D01*
X824102Y769443D01*
X823137Y768478D01*
X822615Y767218D01*
Y765854D01*
X823137Y764594D01*
X824102Y763629D01*
X825362Y763107D01*
X826726D01*
X827986Y763629D01*
X828951Y764594D01*
X829473Y765854D01*
Y766508D01*
X830714Y767749D01*
X836530D01*
X836743Y767791D01*
X839070D01*
X839438Y766902D01*
X839103Y766567D01*
X838581Y765307D01*
Y763942D01*
X839103Y762682D01*
X840068Y761718D01*
X841328Y761196D01*
X842692D01*
X843952Y761718D01*
X844917Y762682D01*
X845162Y763274D01*
X846051Y763097D01*
Y762490D01*
X846573Y761230D01*
X847538Y760265D01*
X848798Y759743D01*
X850162D01*
X851423Y760265D01*
X852387Y761230D01*
X852909Y762490D01*
Y763854D01*
X852387Y765114D01*
X851423Y766079D01*
X851196Y766173D01*
Y768446D01*
X851028Y769288D01*
X850551Y770002D01*
X850213Y770340D01*
X850582Y771229D01*
X858501D01*
Y767911D01*
X859416D01*
X859729Y767530D01*
Y762500D01*
X859118Y762247D01*
X858153Y761282D01*
X857631Y760022D01*
Y758658D01*
X858153Y757398D01*
X859118Y756433D01*
X860378Y755911D01*
X861742D01*
X863002Y756433D01*
X863967Y757398D01*
X864489Y758658D01*
Y760022D01*
X864131Y760886D01*
Y766618D01*
X865424Y767911D01*
X867396D01*
X873658Y761649D01*
X873143Y761134D01*
X872621Y759874D01*
Y758510D01*
X873143Y757250D01*
X874108Y756285D01*
X875368Y755763D01*
X876732D01*
X877993Y756285D01*
X878957Y757250D01*
X879479Y758510D01*
Y759874D01*
X878957Y761134D01*
X878252Y761840D01*
Y762370D01*
X878084Y763212D01*
X877607Y763926D01*
X874277Y767256D01*
X873779Y767911D01*
X873779D01*
X873779Y767911D01*
Y778346D01*
X873779Y778354D01*
X873779Y778354D01*
X873779Y778919D01*
X874639Y779102D01*
X874668Y779103D01*
X874769Y779002D01*
X875628Y778143D01*
X876888Y777621D01*
X878252D01*
X879512Y778143D01*
X880477Y779108D01*
X880999Y780368D01*
Y781732D01*
X880477Y782992D01*
X879771Y783698D01*
Y789814D01*
X880593Y790154D01*
X890651Y780096D01*
Y779098D01*
X891173Y777838D01*
X892138Y776873D01*
X893398Y776351D01*
X894762D01*
X896022Y776873D01*
X896987Y777838D01*
X897509Y779098D01*
Y780462D01*
X896987Y781722D01*
X896022Y782687D01*
X894762Y783209D01*
X893764D01*
X882311Y794662D01*
Y796271D01*
X885749D01*
Y811549D01*
X882311D01*
Y820401D01*
X885749D01*
Y831307D01*
X885791Y831520D01*
Y843308D01*
X896304Y853821D01*
X897302D01*
X898562Y854343D01*
X899527Y855308D01*
X900049Y856568D01*
Y857932D01*
X899527Y859192D01*
X898562Y860157D01*
X897302Y860679D01*
D02*
G37*
G36*
X791202Y853749D02*
X789838D01*
X788577Y853227D01*
X787613Y852263D01*
X787091Y851002D01*
Y849638D01*
X787613Y848378D01*
X788577Y847413D01*
X789838Y846891D01*
X791202D01*
X792462Y847413D01*
X793427Y848378D01*
X793949Y849638D01*
Y851002D01*
X793427Y852263D01*
X792462Y853227D01*
X791202Y853749D01*
D02*
G37*
G36*
X1070022Y845439D02*
X1068658D01*
X1067398Y844917D01*
X1066433Y843952D01*
X1065911Y842692D01*
Y841328D01*
X1066433Y840068D01*
X1067398Y839103D01*
X1068658Y838581D01*
X1070022D01*
X1071282Y839103D01*
X1072247Y840068D01*
X1072769Y841328D01*
Y842692D01*
X1072247Y843952D01*
X1071282Y844917D01*
X1070022Y845439D01*
D02*
G37*
G36*
X1052242Y844169D02*
X1050878D01*
X1049618Y843647D01*
X1048653Y842682D01*
X1048131Y841422D01*
Y840058D01*
X1048653Y838798D01*
X1049618Y837833D01*
X1050878Y837311D01*
X1052242D01*
X1053502Y837833D01*
X1054467Y838798D01*
X1054989Y840058D01*
Y841422D01*
X1054467Y842682D01*
X1053502Y843647D01*
X1052242Y844169D01*
D02*
G37*
G36*
X780462D02*
X779098D01*
X777838Y843647D01*
X776873Y842682D01*
X776351Y841422D01*
Y840058D01*
X776873Y838798D01*
X777838Y837833D01*
X779098Y837311D01*
X780462D01*
X781722Y837833D01*
X782687Y838798D01*
X783209Y840058D01*
Y841422D01*
X782687Y842682D01*
X781722Y843647D01*
X780462Y844169D01*
D02*
G37*
G36*
X868680Y846751D02*
X867838Y846584D01*
X867123Y846107D01*
X867036Y846019D01*
X866558Y845304D01*
X866391Y844462D01*
Y843254D01*
X859608Y836471D01*
X859102D01*
X856911Y838662D01*
Y844550D01*
X856744Y845392D01*
X856266Y846106D01*
X855552Y846584D01*
X854710Y846751D01*
X853868Y846584D01*
X853154Y846106D01*
X852676Y845392D01*
X852509Y844550D01*
Y837750D01*
X852676Y836908D01*
X853154Y836193D01*
X856634Y832713D01*
X857348Y832236D01*
X858190Y832069D01*
X860520D01*
X861362Y832236D01*
X862076Y832713D01*
X870149Y840786D01*
X870626Y841500D01*
X870793Y842342D01*
Y844108D01*
X870881Y844550D01*
X870714Y845392D01*
X870237Y846107D01*
X869522Y846584D01*
X868680Y846751D01*
D02*
G37*
G36*
X913130Y849291D02*
X912288Y849124D01*
X911573Y848646D01*
X911096Y847932D01*
X910929Y847090D01*
X911096Y846248D01*
X911112Y846225D01*
X911184Y845860D01*
X911661Y845145D01*
X920664Y836143D01*
X920324Y835321D01*
X913459D01*
X910294Y838486D01*
X909580Y838964D01*
X908737Y839131D01*
X908050D01*
X907208Y838964D01*
X906494Y838486D01*
X906016Y837772D01*
X905849Y836930D01*
X906016Y836088D01*
X906494Y835374D01*
X907208Y834896D01*
X907770Y834784D01*
X910991Y831563D01*
X911705Y831086D01*
X912547Y830919D01*
X920324D01*
X920664Y830097D01*
X917086Y826519D01*
X914488D01*
X913646Y826352D01*
X912931Y825874D01*
X912843Y825787D01*
X912366Y825072D01*
X912199Y824230D01*
X912366Y823388D01*
X912843Y822673D01*
X913558Y822196D01*
X914400Y822029D01*
X914842Y822117D01*
X917998D01*
X918840Y822284D01*
X919555Y822761D01*
X926357Y829564D01*
X926834Y830278D01*
X927001Y831120D01*
Y835120D01*
X926834Y835962D01*
X926357Y836676D01*
X915267Y847766D01*
X915252Y847844D01*
X914774Y848559D01*
X914687Y848646D01*
X913972Y849124D01*
X913130Y849291D01*
D02*
G37*
G36*
X831310Y853532D02*
X830468Y853364D01*
X829753Y852887D01*
X829276Y852173D01*
X829109Y851331D01*
Y850643D01*
X829276Y849801D01*
X829753Y849087D01*
X832189Y846652D01*
Y834390D01*
X832356Y833548D01*
X832833Y832833D01*
X833548Y832356D01*
X834390Y832189D01*
X836390D01*
X837232Y832356D01*
X837946Y832833D01*
X841427Y836313D01*
X841904Y837028D01*
X842071Y837870D01*
Y841374D01*
X843567Y842869D01*
X844044Y843583D01*
X844211Y844426D01*
Y844550D01*
X844044Y845392D01*
X843567Y846106D01*
X842852Y846584D01*
X842010Y846751D01*
X841168Y846584D01*
X840453Y846106D01*
X840203Y845731D01*
X838314Y843842D01*
X837836Y843128D01*
X837669Y842286D01*
Y839382D01*
X837480Y839256D01*
X836591Y839731D01*
Y847563D01*
X836424Y848406D01*
X835947Y849120D01*
X833456Y851611D01*
X833344Y852173D01*
X832867Y852887D01*
X832152Y853364D01*
X831310Y853532D01*
D02*
G37*
G36*
X901700Y844211D02*
X900858Y844044D01*
X900144Y843567D01*
X896333Y839756D01*
X895856Y839042D01*
X895689Y838200D01*
Y831832D01*
X894989Y831274D01*
X893831Y832432D01*
Y838693D01*
X893664Y839535D01*
X893187Y840249D01*
X892416Y841020D01*
X892304Y841582D01*
X891826Y842297D01*
X891112Y842774D01*
X890270Y842941D01*
X889428Y842774D01*
X888714Y842297D01*
X888236Y841582D01*
X888069Y840740D01*
Y840053D01*
X888236Y839210D01*
X888714Y838496D01*
X889429Y837781D01*
Y831520D01*
X889596Y830678D01*
X890073Y829964D01*
X893553Y826483D01*
X894268Y826006D01*
X895110Y825839D01*
X895952Y826006D01*
X896667Y826483D01*
X896667Y826484D01*
X899447Y829263D01*
X899924Y829978D01*
X900091Y830820D01*
Y837288D01*
X903257Y840453D01*
X903734Y841168D01*
X903901Y842010D01*
X903734Y842852D01*
X903257Y843567D01*
X902542Y844044D01*
X901700Y844211D01*
D02*
G37*
G36*
X951912Y851789D02*
X950548D01*
X949288Y851267D01*
X948323Y850302D01*
X947801Y849042D01*
Y847678D01*
X948224Y846657D01*
X942326Y840759D01*
X934161D01*
Y825481D01*
X945439D01*
Y828286D01*
X946260Y828627D01*
X949071Y825816D01*
Y824818D01*
X949593Y823558D01*
X950558Y822593D01*
X951818Y822071D01*
X953182D01*
X954442Y822593D01*
X955407Y823558D01*
X955929Y824818D01*
Y826182D01*
X955407Y827442D01*
X954442Y828407D01*
X953182Y828929D01*
X952184D01*
X950833Y830280D01*
X951041Y831329D01*
X951392Y831563D01*
X952060Y832231D01*
X953182D01*
X954442Y832753D01*
X955407Y833718D01*
X955929Y834978D01*
Y836342D01*
X955407Y837602D01*
X954442Y838567D01*
X953182Y839089D01*
X951818D01*
X950558Y838567D01*
X949593Y837602D01*
X949071Y836342D01*
Y835469D01*
X948924Y835321D01*
X945439D01*
Y837646D01*
X952699Y844905D01*
X953023Y845391D01*
X953172Y845453D01*
X954137Y846418D01*
X954659Y847678D01*
Y849042D01*
X954137Y850302D01*
X953172Y851267D01*
X951912Y851789D01*
D02*
G37*
G36*
X909200Y821351D02*
X908358Y821184D01*
X907644Y820706D01*
X907166Y819992D01*
X906999Y819150D01*
X907166Y818308D01*
X907644Y817594D01*
X907731Y817505D01*
X908446Y817028D01*
X909288Y816861D01*
X911886D01*
X918004Y810743D01*
X917664Y809921D01*
X906785D01*
X905942Y809754D01*
X905228Y809277D01*
X902939Y806987D01*
X902563Y806737D01*
X902086Y806022D01*
X901919Y805180D01*
X902086Y804338D01*
X902563Y803624D01*
X903278Y803146D01*
X904120Y802979D01*
X904245D01*
X905087Y803146D01*
X905801Y803624D01*
X907696Y805519D01*
X917664D01*
X918004Y804697D01*
X912583Y799277D01*
X907136D01*
X906293Y799109D01*
X905579Y798632D01*
X899929Y792981D01*
X899452Y792267D01*
X899284Y791425D01*
X899452Y790582D01*
X899929Y789868D01*
X900643Y789391D01*
X901485Y789223D01*
X902328Y789391D01*
X903042Y789868D01*
X908048Y794874D01*
X911128D01*
X911238Y794725D01*
X911102Y793565D01*
X906634Y789097D01*
X906156Y788382D01*
X905989Y787540D01*
Y782102D01*
X874902Y751015D01*
X870411D01*
X870317Y751242D01*
X869352Y752207D01*
X868092Y752729D01*
X866728D01*
X865468Y752207D01*
X864503Y751242D01*
X863981Y749982D01*
Y748618D01*
X864503Y747358D01*
X865468Y746393D01*
X866728Y745871D01*
X868092D01*
X869352Y746393D01*
X869572Y746613D01*
X875814D01*
X876656Y746780D01*
X877371Y747258D01*
X909746Y779633D01*
X910224Y780348D01*
X910391Y781190D01*
Y786628D01*
X913570Y789807D01*
X922553D01*
X923395Y789975D01*
X924109Y790452D01*
X931717Y798059D01*
X932194Y798773D01*
X932361Y799615D01*
Y799828D01*
X932572Y800039D01*
X933660D01*
X933873Y800081D01*
X942779D01*
Y801709D01*
X944652D01*
X945358Y801003D01*
X946618Y800481D01*
X947982D01*
X949242Y801003D01*
X950207Y801968D01*
X950729Y803228D01*
Y804592D01*
X950207Y805852D01*
X949242Y806817D01*
X947982Y807339D01*
X946618D01*
X945358Y806817D01*
X944652Y806111D01*
X942779D01*
Y810987D01*
X942781Y810999D01*
X947133D01*
X947975Y811166D01*
X948689Y811644D01*
X949051Y812005D01*
X949278Y811911D01*
X950642D01*
X951902Y812433D01*
X952867Y813398D01*
X953389Y814658D01*
Y816022D01*
X952867Y817282D01*
X951902Y818247D01*
X950642Y818769D01*
X949278D01*
X948018Y818247D01*
X947053Y817282D01*
X946531Y816022D01*
Y815711D01*
X946221Y815401D01*
X940620D01*
X940407Y815359D01*
X931501D01*
Y804410D01*
X930818Y804274D01*
X930104Y803797D01*
X928604Y802297D01*
X928126Y801582D01*
X927959Y800740D01*
Y800527D01*
X921641Y794210D01*
X915025D01*
X914915Y794359D01*
X915052Y795519D01*
X923697Y804164D01*
X924174Y804878D01*
X924341Y805720D01*
Y809720D01*
X924174Y810562D01*
X923697Y811276D01*
X914354Y820619D01*
X913640Y821096D01*
X912798Y821263D01*
X909642D01*
X909200Y821351D01*
D02*
G37*
G36*
X897382Y817947D02*
X896539Y817780D01*
X895825Y817302D01*
X895348Y816588D01*
X895180Y815746D01*
Y810894D01*
X894359Y810554D01*
X889286Y815627D01*
X888572Y816104D01*
X887730Y816271D01*
X886888Y816104D01*
X886173Y815627D01*
X885696Y814912D01*
X885529Y814070D01*
X885696Y813228D01*
X886173Y812514D01*
X892909Y805778D01*
Y803910D01*
X893076Y803068D01*
X893553Y802354D01*
X894268Y801876D01*
X895110Y801709D01*
X895952Y801876D01*
X896667Y802354D01*
X898938Y804625D01*
X899415Y805339D01*
X899583Y806181D01*
Y815746D01*
X899415Y816588D01*
X898938Y817302D01*
X898224Y817780D01*
X897382Y817947D01*
D02*
G37*
G36*
X869950Y799761D02*
X869108Y799594D01*
X868393Y799117D01*
X867916Y798402D01*
X867749Y797560D01*
Y792942D01*
X865829Y791022D01*
X864781D01*
X858254Y797549D01*
X858102Y798314D01*
X857625Y799029D01*
X857536Y799117D01*
X856822Y799594D01*
X855980Y799761D01*
X855138Y799594D01*
X854424Y799117D01*
X853946Y798402D01*
X853779Y797560D01*
X853867Y797118D01*
Y796622D01*
X854034Y795780D01*
X854511Y795066D01*
X862583Y786993D01*
X863298Y786516D01*
X864140Y786349D01*
X866470D01*
X867312Y786516D01*
X868027Y786993D01*
X871507Y790473D01*
X871984Y791188D01*
X872151Y792030D01*
Y797560D01*
X871984Y798402D01*
X871507Y799117D01*
X870792Y799594D01*
X869950Y799761D01*
D02*
G37*
G36*
X828040Y801031D02*
X827198Y800864D01*
X826484Y800387D01*
X826006Y799672D01*
X825839Y798830D01*
X826006Y797988D01*
X826484Y797273D01*
X826571Y797186D01*
X827286Y796708D01*
X828128Y796541D01*
X828786D01*
X838454Y786873D01*
X839168Y786396D01*
X840010Y786229D01*
X842340D01*
X843182Y786396D01*
X843896Y786873D01*
X847377Y790353D01*
X847854Y791068D01*
X848021Y791910D01*
Y797560D01*
X847854Y798402D01*
X847376Y799117D01*
X846662Y799594D01*
X845820Y799761D01*
X844978Y799594D01*
X844264Y799117D01*
X843786Y798402D01*
X843619Y797560D01*
Y792822D01*
X841699Y790902D01*
X840651D01*
X831255Y800299D01*
X830540Y800776D01*
X829698Y800943D01*
X828482D01*
X828040Y801031D01*
D02*
G37*
G36*
X928370Y789601D02*
X927528Y789434D01*
X926813Y788957D01*
X919963Y782106D01*
X919141Y782446D01*
Y784860D01*
X918974Y785702D01*
X918496Y786416D01*
X917782Y786894D01*
X916940Y787061D01*
X916098Y786894D01*
X915384Y786416D01*
X914906Y785702D01*
X914739Y784860D01*
Y777000D01*
X914906Y776158D01*
X915384Y775443D01*
X916654Y774174D01*
X917368Y773696D01*
X918210Y773529D01*
X919052Y773696D01*
X919767Y774174D01*
X920244Y774888D01*
X920411Y775730D01*
Y776328D01*
X929927Y785843D01*
X930404Y786558D01*
X930571Y787400D01*
X930404Y788242D01*
X929927Y788957D01*
X929212Y789434D01*
X928370Y789601D01*
D02*
G37*
G36*
X941070Y794681D02*
X940228Y794514D01*
X939513Y794036D01*
X939036Y793322D01*
X938869Y792480D01*
Y792355D01*
X939036Y791513D01*
X939513Y790799D01*
X940139Y790174D01*
Y775850D01*
X940306Y775008D01*
X940783Y774294D01*
X941498Y773816D01*
X942340Y773649D01*
X943182Y773816D01*
X943896Y774294D01*
X954146Y784543D01*
X954623Y785257D01*
X954791Y786099D01*
Y786149D01*
X954623Y786992D01*
X954146Y787706D01*
X953432Y788183D01*
X952589Y788351D01*
X951747Y788183D01*
X951033Y787706D01*
X950932Y787556D01*
X945363Y781986D01*
X944541Y782326D01*
Y791086D01*
X944374Y791928D01*
X943897Y792642D01*
X942877Y793661D01*
X942626Y794036D01*
X941912Y794514D01*
X941070Y794681D01*
D02*
G37*
G36*
X955722Y769239D02*
X954358D01*
X953098Y768717D01*
X952133Y767752D01*
X951627Y766531D01*
X947820D01*
X947607Y766489D01*
X934701D01*
Y762951D01*
X934364Y762884D01*
X933649Y762406D01*
X929403Y758160D01*
X928405D01*
X927145Y757638D01*
X926738Y757231D01*
X925849Y757600D01*
Y766369D01*
X910571D01*
Y755091D01*
X916009D01*
Y750695D01*
X916176Y749852D01*
X916654Y749138D01*
X917321Y748470D01*
Y747348D01*
X917843Y746088D01*
X918808Y745123D01*
X920068Y744601D01*
X921432D01*
X922692Y745123D01*
X923657Y746088D01*
X924179Y747348D01*
Y748712D01*
X923657Y749972D01*
X922692Y750937D01*
X921432Y751459D01*
X920559D01*
X920411Y751606D01*
Y755091D01*
X925470D01*
Y755091D01*
X925658Y754256D01*
Y754049D01*
X926180Y752789D01*
X927145Y751824D01*
X928405Y751302D01*
X929770D01*
X931030Y751824D01*
X931994Y752789D01*
X932516Y754049D01*
Y755047D01*
X933880Y756411D01*
X934701Y756070D01*
Y755211D01*
X946866D01*
X948315Y753762D01*
X947801Y752522D01*
Y751158D01*
X948323Y749898D01*
X949288Y748933D01*
X950548Y748411D01*
X951912D01*
X953172Y748933D01*
X954137Y749898D01*
X954659Y751158D01*
Y752522D01*
X954137Y753782D01*
X953172Y754747D01*
X952860Y754876D01*
X952778Y755288D01*
X952301Y756003D01*
X949979Y758324D01*
Y762129D01*
X952873D01*
X953715Y762296D01*
X954039Y762513D01*
X954358Y762381D01*
X955722D01*
X956982Y762903D01*
X957947Y763868D01*
X958469Y765128D01*
Y766492D01*
X957947Y767752D01*
X956982Y768717D01*
X955722Y769239D01*
D02*
G37*
G36*
X788082Y807339D02*
X786718D01*
X785458Y806817D01*
X784493Y805852D01*
X783971Y804592D01*
Y803594D01*
X770603Y790227D01*
X770126Y789512D01*
X769959Y788670D01*
Y746868D01*
X769253Y746162D01*
X768731Y744902D01*
Y743538D01*
X769253Y742278D01*
X770218Y741313D01*
X771478Y740791D01*
X772842D01*
X774102Y741313D01*
X775067Y742278D01*
X775589Y743538D01*
Y744902D01*
X775067Y746162D01*
X774361Y746868D01*
Y787758D01*
X787084Y800481D01*
X788082D01*
X789342Y801003D01*
X790307Y801968D01*
X790829Y803228D01*
Y804592D01*
X790307Y805852D01*
X789342Y806817D01*
X788082Y807339D01*
D02*
G37*
G36*
X563784Y739164D02*
X561436D01*
X559169Y738557D01*
X557137Y737383D01*
X555477Y735723D01*
X554304Y733691D01*
X553696Y731424D01*
Y729076D01*
X554304Y726809D01*
X555477Y724777D01*
X557137Y723117D01*
X559169Y721944D01*
X561436Y721336D01*
X563784D01*
X566051Y721944D01*
X568083Y723117D01*
X569743Y724777D01*
X570916Y726809D01*
X571524Y729076D01*
Y731424D01*
X570916Y733691D01*
X569743Y735723D01*
X568083Y737383D01*
X566051Y738557D01*
X563784Y739164D01*
D02*
G37*
G36*
X558832Y931909D02*
X556228D01*
X553713Y931235D01*
X551458Y929933D01*
X549617Y928092D01*
X548315Y925837D01*
X547641Y923322D01*
Y920718D01*
X548315Y918203D01*
X549617Y915948D01*
X551458Y914107D01*
X553713Y912805D01*
X555329Y912372D01*
Y901700D01*
X555496Y900858D01*
X555974Y900144D01*
X751553Y704564D01*
X752268Y704086D01*
X753110Y703919D01*
X925830D01*
X926672Y704086D01*
X927386Y704564D01*
X929324Y706501D01*
X930322D01*
X931582Y707023D01*
X932547Y707988D01*
X933069Y709248D01*
Y710612D01*
X932547Y711872D01*
X931582Y712837D01*
X930731Y713190D01*
X930908Y714079D01*
X935990D01*
X936832Y714246D01*
X937546Y714724D01*
X997237Y774414D01*
X997714Y775128D01*
X997881Y775970D01*
Y840632D01*
X998587Y841338D01*
X999109Y842598D01*
Y843962D01*
X998587Y845222D01*
X997622Y846187D01*
X996362Y846709D01*
X994998D01*
X993738Y846187D01*
X992773Y845222D01*
X992251Y843962D01*
Y842598D01*
X992773Y841338D01*
X993479Y840632D01*
Y776882D01*
X935078Y718481D01*
X779888D01*
X779182Y719187D01*
X777922Y719709D01*
X776558D01*
X775298Y719187D01*
X774333Y718222D01*
X773811Y716962D01*
Y715598D01*
X774333Y714338D01*
X775298Y713373D01*
X776558Y712851D01*
X777922D01*
X779182Y713373D01*
X779888Y714079D01*
X928372D01*
X928549Y713190D01*
X927698Y712837D01*
X926733Y711872D01*
X926211Y710612D01*
Y709614D01*
X924918Y708321D01*
X754022D01*
X559731Y902612D01*
Y912372D01*
X561347Y912805D01*
X563602Y914107D01*
X565443Y915948D01*
X566745Y918203D01*
X567419Y920718D01*
Y923322D01*
X566745Y925837D01*
X565443Y928092D01*
X563602Y929933D01*
X561347Y931235D01*
X558832Y931909D01*
D02*
G37*
G36*
X563784Y713764D02*
X561436D01*
X559169Y713157D01*
X557137Y711983D01*
X555477Y710323D01*
X554304Y708291D01*
X553696Y706024D01*
Y703676D01*
X554304Y701409D01*
X555477Y699377D01*
X557137Y697717D01*
X559169Y696544D01*
X561436Y695936D01*
X563784D01*
X566051Y696544D01*
X568083Y697717D01*
X569743Y699377D01*
X570916Y701409D01*
X571524Y703676D01*
Y706024D01*
X570916Y708291D01*
X569743Y710323D01*
X568083Y711983D01*
X566051Y713157D01*
X563784Y713764D01*
D02*
G37*
G36*
Y688364D02*
X561436D01*
X559169Y687757D01*
X557137Y686583D01*
X555477Y684923D01*
X554304Y682891D01*
X553696Y680624D01*
Y678276D01*
X554304Y676009D01*
X555477Y673977D01*
X557137Y672317D01*
X559169Y671143D01*
X561436Y670536D01*
X563784D01*
X566051Y671143D01*
X568083Y672317D01*
X569743Y673977D01*
X570916Y676009D01*
X571524Y678276D01*
Y680624D01*
X570916Y682891D01*
X569743Y684923D01*
X568083Y686583D01*
X566051Y687757D01*
X563784Y688364D01*
D02*
G37*
G36*
X938404Y676784D02*
X920876D01*
Y659256D01*
X938404D01*
Y676784D01*
D02*
G37*
G36*
X760142Y656209D02*
X758778D01*
X757518Y655687D01*
X756553Y654722D01*
X756031Y653462D01*
Y652098D01*
X756553Y650838D01*
X757518Y649873D01*
X758778Y649351D01*
X760142D01*
X761402Y649873D01*
X762367Y650838D01*
X762889Y652098D01*
Y653462D01*
X762367Y654722D01*
X761402Y655687D01*
X760142Y656209D01*
D02*
G37*
G36*
X563784Y662964D02*
X561436D01*
X559169Y662356D01*
X557137Y661183D01*
X555477Y659523D01*
X554304Y657491D01*
X553696Y655224D01*
Y652876D01*
X554304Y650609D01*
X555477Y648577D01*
X557137Y646917D01*
X559169Y645743D01*
X561436Y645136D01*
X563784D01*
X566051Y645743D01*
X568083Y646917D01*
X569743Y648577D01*
X570916Y650609D01*
X571524Y652876D01*
Y655224D01*
X570916Y657491D01*
X569743Y659523D01*
X568083Y661183D01*
X566051Y662356D01*
X563784Y662964D01*
D02*
G37*
G36*
X930794Y651384D02*
X928486D01*
X926257Y650787D01*
X924259Y649633D01*
X922627Y648001D01*
X921473Y646003D01*
X920876Y643774D01*
Y641466D01*
X921473Y639237D01*
X922627Y637239D01*
X924259Y635607D01*
X926257Y634453D01*
X928486Y633856D01*
X930794D01*
X933023Y634453D01*
X935021Y635607D01*
X936653Y637239D01*
X937807Y639237D01*
X938404Y641466D01*
Y643774D01*
X937807Y646003D01*
X936653Y648001D01*
X935021Y649633D01*
X933023Y650787D01*
X930794Y651384D01*
D02*
G37*
G36*
X759598Y631928D02*
X758234D01*
X756974Y631406D01*
X756009Y630441D01*
X755487Y629181D01*
Y627817D01*
X756009Y626557D01*
X756974Y625592D01*
X758234Y625070D01*
X759598D01*
X760859Y625592D01*
X761823Y626557D01*
X762345Y627817D01*
Y629181D01*
X761823Y630441D01*
X760859Y631406D01*
X759598Y631928D01*
D02*
G37*
G36*
X1074452Y639809D02*
X1071848D01*
X1069333Y639135D01*
X1067078Y637833D01*
X1065237Y635992D01*
X1063935Y633737D01*
X1063261Y631222D01*
Y628618D01*
X1063935Y626103D01*
X1065237Y623848D01*
X1067078Y622007D01*
X1069333Y620705D01*
X1071848Y620031D01*
X1074452D01*
X1076967Y620705D01*
X1079222Y622007D01*
X1081063Y623848D01*
X1082365Y626103D01*
X1083039Y628618D01*
Y631222D01*
X1082365Y633737D01*
X1081063Y635992D01*
X1079222Y637833D01*
X1076967Y639135D01*
X1074452Y639809D01*
D02*
G37*
G36*
X563784Y637564D02*
X561436D01*
X559169Y636956D01*
X557137Y635783D01*
X555477Y634123D01*
X554304Y632091D01*
X553696Y629824D01*
Y627476D01*
X554304Y625209D01*
X555477Y623177D01*
X557137Y621517D01*
X559169Y620344D01*
X561436Y619736D01*
X563784D01*
X566051Y620344D01*
X568083Y621517D01*
X569743Y623177D01*
X570916Y625209D01*
X571524Y627476D01*
Y629824D01*
X570916Y632091D01*
X569743Y634123D01*
X568083Y635783D01*
X566051Y636956D01*
X563784Y637564D01*
D02*
G37*
G36*
X930794Y625984D02*
X928486D01*
X926257Y625387D01*
X924259Y624233D01*
X922627Y622601D01*
X921473Y620603D01*
X920876Y618374D01*
Y616066D01*
X921473Y613837D01*
X922627Y611839D01*
X924259Y610207D01*
X926257Y609053D01*
X928486Y608456D01*
X930794D01*
X933023Y609053D01*
X935021Y610207D01*
X936653Y611839D01*
X937807Y613837D01*
X938404Y616066D01*
Y618374D01*
X937807Y620603D01*
X936653Y622601D01*
X935021Y624233D01*
X933023Y625387D01*
X930794Y625984D01*
D02*
G37*
G36*
X760142Y611759D02*
X758778D01*
X757518Y611237D01*
X756553Y610272D01*
X756031Y609012D01*
Y607648D01*
X756553Y606388D01*
X757518Y605423D01*
X758778Y604901D01*
X760142D01*
X761402Y605423D01*
X762367Y606388D01*
X762889Y607648D01*
Y609012D01*
X762367Y610272D01*
X761402Y611237D01*
X760142Y611759D01*
D02*
G37*
G36*
X1074452Y614409D02*
X1071848D01*
X1069333Y613735D01*
X1067078Y612433D01*
X1065237Y610592D01*
X1063935Y608337D01*
X1063261Y605822D01*
Y603218D01*
X1063935Y600703D01*
X1065237Y598448D01*
X1067078Y596607D01*
X1069333Y595305D01*
X1071848Y594631D01*
X1074452D01*
X1076967Y595305D01*
X1079222Y596607D01*
X1081063Y598448D01*
X1082365Y600703D01*
X1083039Y603218D01*
Y605822D01*
X1082365Y608337D01*
X1081063Y610592D01*
X1079222Y612433D01*
X1076967Y613735D01*
X1074452Y614409D01*
D02*
G37*
G36*
Y589009D02*
X1071848D01*
X1069333Y588335D01*
X1067078Y587033D01*
X1065237Y585192D01*
X1063935Y582937D01*
X1063261Y580422D01*
Y577818D01*
X1063935Y575303D01*
X1065237Y573048D01*
X1067078Y571207D01*
X1069333Y569905D01*
X1071848Y569231D01*
X1074452D01*
X1076967Y569905D01*
X1079222Y571207D01*
X1081063Y573048D01*
X1082365Y575303D01*
X1083039Y577818D01*
Y580422D01*
X1082365Y582937D01*
X1081063Y585192D01*
X1079222Y587033D01*
X1076967Y588335D01*
X1074452Y589009D01*
D02*
G37*
G36*
X718232Y566039D02*
X716868D01*
X715608Y565517D01*
X714643Y564552D01*
X714121Y563292D01*
Y561928D01*
X714643Y560668D01*
X715608Y559703D01*
X716868Y559181D01*
X718232D01*
X719492Y559703D01*
X720457Y560668D01*
X720979Y561928D01*
Y563292D01*
X720457Y564552D01*
X719492Y565517D01*
X718232Y566039D01*
D02*
G37*
G36*
X699182D02*
X697818D01*
X696558Y565517D01*
X695593Y564552D01*
X695071Y563292D01*
Y561928D01*
X695593Y560668D01*
X696558Y559703D01*
X697818Y559181D01*
X699182D01*
X700442Y559703D01*
X701407Y560668D01*
X701929Y561928D01*
Y563292D01*
X701407Y564552D01*
X700442Y565517D01*
X699182Y566039D01*
D02*
G37*
G36*
X675052D02*
X673688D01*
X672428Y565517D01*
X671463Y564552D01*
X670941Y563292D01*
Y561928D01*
X671463Y560668D01*
X672428Y559703D01*
X673688Y559181D01*
X675052D01*
X676312Y559703D01*
X677277Y560668D01*
X677799Y561928D01*
Y563292D01*
X677277Y564552D01*
X676312Y565517D01*
X675052Y566039D01*
D02*
G37*
G36*
X652192Y560959D02*
X650828D01*
X649568Y560437D01*
X648603Y559472D01*
X648081Y558212D01*
Y556848D01*
X648603Y555588D01*
X649568Y554623D01*
X650828Y554101D01*
X652192D01*
X653452Y554623D01*
X654417Y555588D01*
X654939Y556848D01*
Y558212D01*
X654417Y559472D01*
X653452Y560437D01*
X652192Y560959D01*
D02*
G37*
G36*
X626792D02*
X625428D01*
X624168Y560437D01*
X623203Y559472D01*
X622681Y558212D01*
Y556848D01*
X623203Y555588D01*
X624168Y554623D01*
X625428Y554101D01*
X626792D01*
X628052Y554623D01*
X629017Y555588D01*
X629539Y556848D01*
Y558212D01*
X629017Y559472D01*
X628052Y560437D01*
X626792Y560959D01*
D02*
G37*
G36*
X601392Y559689D02*
X600028D01*
X598768Y559167D01*
X597803Y558202D01*
X597281Y556942D01*
Y555578D01*
X597803Y554318D01*
X598768Y553353D01*
X600028Y552831D01*
X601392D01*
X602652Y553353D01*
X603617Y554318D01*
X604139Y555578D01*
Y556942D01*
X603617Y558202D01*
X602652Y559167D01*
X601392Y559689D01*
D02*
G37*
G36*
X890952Y555879D02*
X889588D01*
X888328Y555357D01*
X887363Y554392D01*
X886841Y553132D01*
Y551768D01*
X887363Y550508D01*
X888328Y549543D01*
X889588Y549021D01*
X890952D01*
X892212Y549543D01*
X893177Y550508D01*
X893699Y551768D01*
Y553132D01*
X893177Y554392D01*
X892212Y555357D01*
X890952Y555879D01*
D02*
G37*
G36*
X866822D02*
X865458D01*
X864198Y555357D01*
X863233Y554392D01*
X862711Y553132D01*
Y551768D01*
X863233Y550508D01*
X864198Y549543D01*
X865458Y549021D01*
X866822D01*
X868082Y549543D01*
X869047Y550508D01*
X869569Y551768D01*
Y553132D01*
X869047Y554392D01*
X868082Y555357D01*
X866822Y555879D01*
D02*
G37*
G36*
X843962Y554609D02*
X842598D01*
X841338Y554087D01*
X840373Y553122D01*
X839851Y551862D01*
Y550498D01*
X840373Y549238D01*
X841338Y548273D01*
X842598Y547751D01*
X843962D01*
X845222Y548273D01*
X846187Y549238D01*
X846709Y550498D01*
Y551862D01*
X846187Y553122D01*
X845222Y554087D01*
X843962Y554609D01*
D02*
G37*
G36*
X769032Y552069D02*
X767668D01*
X766408Y551547D01*
X765443Y550582D01*
X764921Y549322D01*
Y547958D01*
X765443Y546698D01*
X766408Y545733D01*
X767668Y545211D01*
X769032D01*
X770292Y545733D01*
X771257Y546698D01*
X771779Y547958D01*
Y549322D01*
X771257Y550582D01*
X770292Y551547D01*
X769032Y552069D01*
D02*
G37*
G36*
X809672Y550799D02*
X808308D01*
X807048Y550277D01*
X806083Y549312D01*
X805561Y548052D01*
Y546688D01*
X806083Y545428D01*
X807048Y544463D01*
X808308Y543941D01*
X809672D01*
X810932Y544463D01*
X811897Y545428D01*
X812419Y546688D01*
Y548052D01*
X811897Y549312D01*
X810932Y550277D01*
X809672Y550799D01*
D02*
G37*
G36*
X788082D02*
X786718D01*
X785458Y550277D01*
X784493Y549312D01*
X783971Y548052D01*
Y546688D01*
X784493Y545428D01*
X785458Y544463D01*
X786718Y543941D01*
X788082D01*
X789342Y544463D01*
X790307Y545428D01*
X790829Y546688D01*
Y548052D01*
X790307Y549312D01*
X789342Y550277D01*
X788082Y550799D01*
D02*
G37*
G36*
X1074452Y563609D02*
X1071848D01*
X1069333Y562935D01*
X1067078Y561633D01*
X1065237Y559792D01*
X1063935Y557537D01*
X1063261Y555022D01*
Y552418D01*
X1063935Y549903D01*
X1065237Y547648D01*
X1067078Y545807D01*
X1069333Y544505D01*
X1071848Y543831D01*
X1074452D01*
X1076967Y544505D01*
X1079222Y545807D01*
X1081063Y547648D01*
X1082365Y549903D01*
X1083039Y552418D01*
Y555022D01*
X1082365Y557537D01*
X1081063Y559792D01*
X1079222Y561633D01*
X1076967Y562935D01*
X1074452Y563609D01*
D02*
G37*
G36*
X951912Y544449D02*
X950548D01*
X949288Y543927D01*
X948323Y542962D01*
X947801Y541702D01*
Y540338D01*
X948323Y539078D01*
X949288Y538113D01*
X950548Y537591D01*
X951912D01*
X953172Y538113D01*
X954137Y539078D01*
X954659Y540338D01*
Y541702D01*
X954137Y542962D01*
X953172Y543927D01*
X951912Y544449D01*
D02*
G37*
G36*
X923972Y543179D02*
X922608D01*
X921348Y542657D01*
X920383Y541692D01*
X919861Y540432D01*
Y539068D01*
X920383Y537808D01*
X921348Y536843D01*
X922608Y536321D01*
X923972D01*
X925232Y536843D01*
X926197Y537808D01*
X926719Y539068D01*
Y540432D01*
X926197Y541692D01*
X925232Y542657D01*
X923972Y543179D01*
D02*
G37*
G36*
X979852Y708279D02*
X978488D01*
X977228Y707757D01*
X976263Y706792D01*
X975741Y705532D01*
Y704168D01*
X976263Y702908D01*
X977228Y701943D01*
X978239Y701524D01*
Y536048D01*
X977533Y535342D01*
X977011Y534082D01*
Y532718D01*
X977533Y531458D01*
X978498Y530493D01*
X979758Y529971D01*
X981122D01*
X982382Y530493D01*
X983347Y531458D01*
X983869Y532718D01*
Y534082D01*
X983347Y535342D01*
X982641Y536048D01*
Y703456D01*
X982532Y704006D01*
X982599Y704168D01*
Y705532D01*
X982077Y706792D01*
X981112Y707757D01*
X979852Y708279D01*
D02*
G37*
G36*
X624252Y535559D02*
X622888D01*
X621628Y535037D01*
X620663Y534072D01*
X620141Y532812D01*
Y531448D01*
X620663Y530188D01*
X621628Y529223D01*
X622888Y528701D01*
X624252D01*
X625512Y529223D01*
X626477Y530188D01*
X626999Y531448D01*
Y532812D01*
X626477Y534072D01*
X625512Y535037D01*
X624252Y535559D01*
D02*
G37*
G36*
X601392D02*
X600028D01*
X598768Y535037D01*
X597803Y534072D01*
X597281Y532812D01*
Y531448D01*
X597803Y530188D01*
X598768Y529223D01*
X600028Y528701D01*
X601392D01*
X602652Y529223D01*
X603617Y530188D01*
X604139Y531448D01*
Y532812D01*
X603617Y534072D01*
X602652Y535037D01*
X601392Y535559D01*
D02*
G37*
G36*
X645842Y534289D02*
X644478D01*
X643218Y533767D01*
X642253Y532802D01*
X641731Y531542D01*
Y530178D01*
X642253Y528918D01*
X643218Y527953D01*
X644478Y527431D01*
X645842D01*
X647102Y527953D01*
X648067Y528918D01*
X648589Y530178D01*
Y531542D01*
X648067Y532802D01*
X647102Y533767D01*
X645842Y534289D01*
D02*
G37*
G36*
X571374Y544704D02*
X553846D01*
Y527176D01*
X571374D01*
Y544704D01*
D02*
G37*
G36*
X991282Y717169D02*
X989918D01*
X988658Y716647D01*
X987693Y715682D01*
X987171Y714422D01*
Y713058D01*
X987693Y711798D01*
X988399Y711092D01*
Y537210D01*
X988566Y536368D01*
X989044Y535653D01*
X997331Y527366D01*
Y526368D01*
X997853Y525108D01*
X998818Y524143D01*
X1000078Y523621D01*
X1001442D01*
X1002702Y524143D01*
X1003667Y525108D01*
X1004189Y526368D01*
Y527732D01*
X1003667Y528992D01*
X1002702Y529957D01*
X1001442Y530479D01*
X1000444D01*
X992801Y538122D01*
Y711092D01*
X993507Y711798D01*
X994029Y713058D01*
Y714422D01*
X993507Y715682D01*
X992542Y716647D01*
X991282Y717169D01*
D02*
G37*
G36*
X808402Y526669D02*
X807038D01*
X805778Y526147D01*
X804813Y525182D01*
X804291Y523922D01*
Y522558D01*
X804813Y521298D01*
X805778Y520333D01*
X807038Y519811D01*
X808402D01*
X809662Y520333D01*
X810627Y521298D01*
X811149Y522558D01*
Y523922D01*
X810627Y525182D01*
X809662Y526147D01*
X808402Y526669D01*
D02*
G37*
G36*
X786812D02*
X785448D01*
X784188Y526147D01*
X783223Y525182D01*
X782701Y523922D01*
Y522558D01*
X783223Y521298D01*
X784188Y520333D01*
X785448Y519811D01*
X786812D01*
X788072Y520333D01*
X789037Y521298D01*
X789559Y522558D01*
Y523922D01*
X789037Y525182D01*
X788072Y526147D01*
X786812Y526669D01*
D02*
G37*
G36*
X766492D02*
X765128D01*
X763868Y526147D01*
X762903Y525182D01*
X762381Y523922D01*
Y522558D01*
X762903Y521298D01*
X763868Y520333D01*
X765128Y519811D01*
X766492D01*
X767752Y520333D01*
X768717Y521298D01*
X769239Y522558D01*
Y523922D01*
X768717Y525182D01*
X767752Y526147D01*
X766492Y526669D01*
D02*
G37*
G36*
X1074452Y538209D02*
X1071848D01*
X1069333Y537535D01*
X1067078Y536233D01*
X1065237Y534392D01*
X1063935Y532137D01*
X1063261Y529622D01*
Y527018D01*
X1063935Y524503D01*
X1065237Y522248D01*
X1067078Y520407D01*
X1069333Y519105D01*
X1071848Y518431D01*
X1074452D01*
X1076967Y519105D01*
X1079222Y520407D01*
X1081063Y522248D01*
X1082365Y524503D01*
X1083039Y527018D01*
Y529622D01*
X1082365Y532137D01*
X1081063Y534392D01*
X1079222Y536233D01*
X1076967Y537535D01*
X1074452Y538209D01*
D02*
G37*
G36*
X620442Y511429D02*
X619078D01*
X617818Y510907D01*
X616853Y509942D01*
X616331Y508682D01*
Y507318D01*
X616853Y506058D01*
X617818Y505093D01*
X619078Y504571D01*
X620442D01*
X621702Y505093D01*
X622667Y506058D01*
X623189Y507318D01*
Y508682D01*
X622667Y509942D01*
X621702Y510907D01*
X620442Y511429D01*
D02*
G37*
G36*
X601392D02*
X600028D01*
X598768Y510907D01*
X597803Y509942D01*
X597281Y508682D01*
Y507318D01*
X597803Y506058D01*
X598768Y505093D01*
X600028Y504571D01*
X601392D01*
X602652Y505093D01*
X603617Y506058D01*
X604139Y507318D01*
Y508682D01*
X603617Y509942D01*
X602652Y510907D01*
X601392Y511429D01*
D02*
G37*
G36*
X943022Y510159D02*
X941658D01*
X940398Y509637D01*
X939433Y508672D01*
X938911Y507412D01*
Y506048D01*
X939433Y504788D01*
X940398Y503823D01*
X941658Y503301D01*
X943022D01*
X944282Y503823D01*
X945247Y504788D01*
X945769Y506048D01*
Y507412D01*
X945247Y508672D01*
X944282Y509637D01*
X943022Y510159D01*
D02*
G37*
G36*
X642032D02*
X640668D01*
X639408Y509637D01*
X638443Y508672D01*
X637921Y507412D01*
Y506048D01*
X638443Y504788D01*
X639408Y503823D01*
X640668Y503301D01*
X642032D01*
X643292Y503823D01*
X644257Y504788D01*
X644779Y506048D01*
Y507412D01*
X644257Y508672D01*
X643292Y509637D01*
X642032Y510159D01*
D02*
G37*
G36*
X808402Y507619D02*
X807038D01*
X805778Y507097D01*
X804813Y506132D01*
X804291Y504872D01*
Y503508D01*
X804813Y502248D01*
X805778Y501283D01*
X807038Y500761D01*
X808402D01*
X809662Y501283D01*
X810627Y502248D01*
X811149Y503508D01*
Y504872D01*
X810627Y506132D01*
X809662Y507097D01*
X808402Y507619D01*
D02*
G37*
G36*
X786812D02*
X785448D01*
X784188Y507097D01*
X783223Y506132D01*
X782701Y504872D01*
Y503508D01*
X783223Y502248D01*
X784188Y501283D01*
X785448Y500761D01*
X786812D01*
X788072Y501283D01*
X789037Y502248D01*
X789559Y503508D01*
Y504872D01*
X789037Y506132D01*
X788072Y507097D01*
X786812Y507619D01*
D02*
G37*
G36*
X766492D02*
X765128D01*
X763868Y507097D01*
X762903Y506132D01*
X762381Y504872D01*
Y503508D01*
X762903Y502248D01*
X763868Y501283D01*
X765128Y500761D01*
X766492D01*
X767752Y501283D01*
X768717Y502248D01*
X769239Y503508D01*
Y504872D01*
X768717Y506132D01*
X767752Y507097D01*
X766492Y507619D01*
D02*
G37*
G36*
X1074452Y512809D02*
X1071848D01*
X1069333Y512135D01*
X1067078Y510833D01*
X1065237Y508992D01*
X1063935Y506737D01*
X1063261Y504222D01*
Y501618D01*
X1063935Y499103D01*
X1065237Y496848D01*
X1067078Y495007D01*
X1069333Y493705D01*
X1071848Y493031D01*
X1074452D01*
X1076967Y493705D01*
X1079222Y495007D01*
X1081063Y496848D01*
X1082365Y499103D01*
X1083039Y501618D01*
Y504222D01*
X1082365Y506737D01*
X1081063Y508992D01*
X1079222Y510833D01*
X1076967Y512135D01*
X1074452Y512809D01*
D02*
G37*
G36*
Y487409D02*
X1071848D01*
X1069333Y486735D01*
X1067078Y485433D01*
X1065237Y483592D01*
X1063935Y481337D01*
X1063261Y478822D01*
Y476218D01*
X1063935Y473703D01*
X1065237Y471448D01*
X1067078Y469607D01*
X1069333Y468305D01*
X1071848Y467631D01*
X1074452D01*
X1076967Y468305D01*
X1079222Y469607D01*
X1081063Y471448D01*
X1082365Y473703D01*
X1083039Y476218D01*
Y478822D01*
X1082365Y481337D01*
X1081063Y483592D01*
X1079222Y485433D01*
X1076967Y486735D01*
X1074452Y487409D01*
D02*
G37*
G36*
X571374Y478664D02*
X553846D01*
Y461136D01*
X571374D01*
Y478664D01*
D02*
G37*
G36*
X984932Y450469D02*
X983568D01*
X982308Y449947D01*
X981343Y448982D01*
X980821Y447722D01*
Y446358D01*
X981343Y445098D01*
X982308Y444133D01*
X983568Y443611D01*
X984932D01*
X986192Y444133D01*
X987157Y445098D01*
X987679Y446358D01*
Y447722D01*
X987157Y448982D01*
X986192Y449947D01*
X984932Y450469D01*
D02*
G37*
G36*
X1074452Y462009D02*
X1071848D01*
X1069333Y461335D01*
X1067078Y460033D01*
X1065237Y458192D01*
X1063935Y455937D01*
X1063261Y453422D01*
Y450818D01*
X1063935Y448303D01*
X1065237Y446048D01*
X1067078Y444207D01*
X1069333Y442905D01*
X1071848Y442231D01*
X1074452D01*
X1076967Y442905D01*
X1079222Y444207D01*
X1081063Y446048D01*
X1082365Y448303D01*
X1083039Y450818D01*
Y453422D01*
X1082365Y455937D01*
X1081063Y458192D01*
X1079222Y460033D01*
X1076967Y461335D01*
X1074452Y462009D01*
D02*
G37*
G36*
X713152Y447929D02*
X711788D01*
X710528Y447407D01*
X709563Y446442D01*
X709041Y445182D01*
Y443818D01*
X709563Y442558D01*
X710528Y441593D01*
X711788Y441071D01*
X713152D01*
X714412Y441593D01*
X715377Y442558D01*
X715899Y443818D01*
Y445182D01*
X715377Y446442D01*
X714412Y447407D01*
X713152Y447929D01*
D02*
G37*
G36*
X696642D02*
X695278D01*
X694018Y447407D01*
X693053Y446442D01*
X692531Y445182D01*
Y443818D01*
X693053Y442558D01*
X694018Y441593D01*
X695278Y441071D01*
X696642D01*
X697902Y441593D01*
X698867Y442558D01*
X699389Y443818D01*
Y445182D01*
X698867Y446442D01*
X697902Y447407D01*
X696642Y447929D01*
D02*
G37*
G36*
X894762Y446659D02*
X893398D01*
X892138Y446137D01*
X891173Y445172D01*
X890651Y443912D01*
Y442548D01*
X891173Y441288D01*
X892138Y440323D01*
X893398Y439801D01*
X894762D01*
X896022Y440323D01*
X896987Y441288D01*
X897509Y442548D01*
Y443912D01*
X896987Y445172D01*
X896022Y446137D01*
X894762Y446659D01*
D02*
G37*
G36*
X882062D02*
X880698D01*
X879438Y446137D01*
X878473Y445172D01*
X877951Y443912D01*
Y442548D01*
X878473Y441288D01*
X879438Y440323D01*
X880698Y439801D01*
X882062D01*
X883322Y440323D01*
X884287Y441288D01*
X884809Y442548D01*
Y443912D01*
X884287Y445172D01*
X883322Y446137D01*
X882062Y446659D01*
D02*
G37*
G36*
X870632Y445389D02*
X869268D01*
X868008Y444867D01*
X867043Y443902D01*
X866521Y442642D01*
Y441278D01*
X867043Y440018D01*
X868008Y439053D01*
X869268Y438531D01*
X870632D01*
X871892Y439053D01*
X872857Y440018D01*
X873379Y441278D01*
Y442642D01*
X872857Y443902D01*
X871892Y444867D01*
X870632Y445389D01*
D02*
G37*
G36*
X988742Y436499D02*
X987378D01*
X986118Y435977D01*
X985153Y435012D01*
X984631Y433752D01*
Y432388D01*
X985153Y431128D01*
X986118Y430163D01*
X987378Y429641D01*
X988742D01*
X990002Y430163D01*
X990967Y431128D01*
X991489Y432388D01*
Y433752D01*
X990967Y435012D01*
X990002Y435977D01*
X988742Y436499D01*
D02*
G37*
G36*
X571374Y412624D02*
X553846D01*
Y395096D01*
X571374D01*
Y412624D01*
D02*
G37*
G36*
X1083039Y411209D02*
X1063261D01*
Y391431D01*
X1083039D01*
Y411209D01*
D02*
G37*
%LPD*%
D14*
X990600Y537210D02*
X1000760Y527050D01*
X836390Y834390D02*
X839870Y837870D01*
X831310Y850643D02*
X834390Y847563D01*
X839870Y842286D02*
X842010Y844426D01*
X839870Y837870D02*
Y842286D01*
X834390Y834390D02*
X836390D01*
X831310Y850643D02*
Y851331D01*
X834390Y834390D02*
Y847563D01*
X842010Y844426D02*
Y844550D01*
X890270Y840053D02*
Y840740D01*
X891630Y831520D02*
Y838693D01*
X890270Y840053D02*
X891630Y838693D01*
X858520Y834270D02*
X860520D01*
X868592Y842342D02*
Y844462D01*
X868680Y844550D01*
X860520Y834270D02*
X868592Y842342D01*
X858190Y834270D02*
X858520D01*
X887730Y814070D02*
X895110Y806690D01*
Y803910D02*
Y806690D01*
X897382Y806181D02*
Y815746D01*
X895110Y803910D02*
X897382Y806181D01*
X891630Y831520D02*
X895110Y828040D01*
X897890Y830820D01*
Y838200D02*
X901700Y842010D01*
X897890Y830820D02*
Y838200D01*
X912547Y833120D02*
X924800D01*
X908737Y836930D02*
X912547Y833120D01*
X908050Y836930D02*
X908737D01*
X845820Y791910D02*
Y797560D01*
X842340Y788430D02*
X845820Y791910D01*
X840010Y788430D02*
X842340D01*
X853440Y864330D02*
Y875030D01*
Y864330D02*
X858520Y859250D01*
X865871Y867345D02*
X866357Y867831D01*
X865871Y866601D02*
Y867345D01*
X858520Y859250D02*
X865871Y866601D01*
X901485Y791425D02*
X907136Y797075D01*
X913495D01*
X922140Y805720D01*
X916940Y777000D02*
X918210Y775730D01*
X916940Y777000D02*
Y784860D01*
X909320Y877570D02*
X914000Y872890D01*
X921080D01*
X924560Y869410D01*
Y865410D02*
Y869410D01*
X828040Y798830D02*
X828128Y798742D01*
X829698D02*
X840010Y788430D01*
X828128Y798742D02*
X829698D01*
X856068Y796622D02*
Y797472D01*
X855980Y797560D02*
X856068Y797472D01*
X864140Y788550D02*
X866140D01*
X856068Y796622D02*
X864140Y788550D01*
X866470D02*
X869950Y792030D01*
X866140Y788550D02*
X866470D01*
X869950Y792030D02*
Y797560D01*
X858520Y857250D02*
Y859250D01*
Y857250D02*
X878840D01*
X854710Y837750D02*
X858190Y834270D01*
X854710Y837750D02*
Y844550D01*
X921080Y861930D02*
X924560Y865410D01*
X914125Y861930D02*
X921080D01*
X913254Y861060D02*
X914125Y861930D01*
X913130Y861060D02*
X913254D01*
X917998Y824318D02*
X924800Y831120D01*
X914400Y824230D02*
X914488Y824318D01*
X924800Y831120D02*
Y833120D01*
X914488Y824318D02*
X917998D01*
X913218Y846702D02*
X924800Y835120D01*
X913218Y846702D02*
Y847002D01*
X913130Y847090D02*
X913218Y847002D01*
X924800Y833120D02*
Y835120D01*
X904245Y805180D02*
X906785Y807720D01*
X922140D01*
X904120Y805180D02*
X904245D01*
X909288Y819062D02*
X912798D01*
X909200Y819150D02*
X909288Y819062D01*
X922140Y807720D02*
Y809720D01*
X912798Y819062D02*
X922140Y809720D01*
Y805720D02*
Y807720D01*
X918210Y777240D02*
X928370Y787400D01*
X918210Y775730D02*
Y777240D01*
X941070Y792355D02*
Y792480D01*
X942340Y775850D02*
Y791086D01*
X941070Y792355D02*
X942340Y791086D01*
X952589Y786099D02*
Y786149D01*
X942340Y775850D02*
X952589Y786099D01*
X746760Y746760D02*
Y834390D01*
X875814Y748814D02*
X908190Y781190D01*
X867896Y748814D02*
X875814D01*
X908190Y781190D02*
Y787540D01*
X867410Y749300D02*
X867896Y748814D01*
X842010Y764625D02*
Y771010D01*
X831940Y803910D02*
X880110D01*
X814160Y821690D02*
X831940Y803910D01*
X798830Y821690D02*
X814160D01*
X834390Y810947D02*
Y819390D01*
X840958Y808990D02*
X847090D01*
X839470Y810478D02*
X840958Y808990D01*
X835705Y808945D02*
Y809632D01*
X834390Y810947D02*
X835705Y809632D01*
X834390Y819390D02*
X839230D01*
X839470Y819150D01*
Y810478D02*
Y819150D01*
Y819390D02*
X857120D01*
X876630Y831520D02*
X880110Y828040D01*
X876630Y831520D02*
Y834678D01*
X876300Y843280D02*
X880110Y847090D01*
X876300Y835008D02*
X876630Y834678D01*
X876300Y835008D02*
Y843280D01*
X883590Y844220D02*
X896620Y857250D01*
X883590Y831520D02*
Y844220D01*
X880110Y828040D02*
X883590Y831520D01*
X843280Y859490D02*
Y871220D01*
Y859490D02*
X843286Y859484D01*
X944340Y760850D02*
X950744Y754446D01*
Y752326D02*
X951230Y751840D01*
X950744Y752326D02*
Y754446D01*
X944340Y760850D02*
X947820Y764330D01*
X952873D02*
X954353Y765810D01*
X947820Y764330D02*
X952873D01*
X954353Y765810D02*
X955040D01*
X940620Y811200D02*
Y813200D01*
X949273Y815340D02*
X949960D01*
X940620Y813200D02*
X947133D01*
X949273Y815340D01*
X939800Y833120D02*
X944880D01*
X952500Y825500D01*
X944880Y833120D02*
X949836D01*
X831796Y861114D02*
Y861844D01*
X832336Y870434D02*
X843286Y859484D01*
X831850Y875030D02*
X832336Y874544D01*
X831310Y862330D02*
X831796Y861844D01*
X832336Y870434D02*
Y874544D01*
X831796Y861114D02*
X835660Y857250D01*
X843286Y859484D02*
X843520Y859250D01*
X939560Y867410D02*
X947330D01*
X951674Y871755D02*
X951965D01*
X947330Y867410D02*
X951674Y871755D01*
X908190Y787540D02*
X912658Y792008D01*
X922553D01*
X848994Y763658D02*
Y768446D01*
X844010Y773430D02*
X848994Y768446D01*
Y763658D02*
X849480Y763172D01*
X935206Y760850D02*
X944340D01*
X772160Y744220D02*
Y788670D01*
X759460Y744220D02*
Y840740D01*
X777240Y716280D02*
X935990D01*
X995680Y775970D02*
Y843280D01*
X935990Y716280D02*
X995680Y775970D01*
X772160Y788670D02*
X787400Y803910D01*
X746760Y834390D02*
X826770Y914400D01*
X937140Y807390D02*
X940620Y803910D01*
X937140Y805720D02*
Y807720D01*
X825500Y906780D02*
X938530D01*
X759460Y840740D02*
X825500Y906780D01*
X867410Y914400D02*
X868680Y913130D01*
X753110Y706120D02*
X925830D01*
X929640Y709930D01*
X557530Y901700D02*
X753110Y706120D01*
X557530Y901700D02*
Y922020D01*
X826770Y914400D02*
X867410D01*
X990600Y537210D02*
Y713740D01*
X980440Y533400D02*
Y703456D01*
X979170Y704725D02*
X980440Y703456D01*
X979170Y704725D02*
Y704850D01*
X871096Y812800D02*
X871220D01*
X858520Y819270D02*
X862000Y815790D01*
X868105D01*
X871096Y812800D01*
X858520Y810260D02*
Y819270D01*
X877570Y801370D02*
X880110Y803910D01*
X877570Y781050D02*
Y801370D01*
X880110Y793750D02*
X894080Y779780D01*
X880110Y793750D02*
Y803910D01*
Y828040D01*
X835660Y857250D02*
X843520D01*
X922553Y792008D02*
X930160Y799615D01*
Y800740D02*
X931660Y802240D01*
X930160Y799615D02*
Y800740D01*
X931660Y802240D02*
X933660D01*
X937140Y805720D01*
X865410Y771010D02*
X867410D01*
X837590D02*
X842010D01*
X843520Y857250D02*
Y859250D01*
X939560Y852055D02*
Y867410D01*
X938530Y851024D02*
X939560Y852055D01*
X938530Y850900D02*
Y851024D01*
X949836Y833120D02*
X952375Y835660D01*
X952500D01*
X951142Y846462D02*
Y848272D01*
X939800Y833120D02*
Y835120D01*
X951142Y846462D01*
Y848272D02*
X951230Y848360D01*
X940620Y803910D02*
X947300D01*
X929087Y754731D02*
X935206Y760850D01*
X918210Y750695D02*
Y760730D01*
Y750695D02*
X920750Y748155D01*
Y748030D02*
Y748155D01*
X826044Y766536D02*
X826388D01*
X829802Y769950D01*
X836530D01*
X837590Y771010D01*
X876050Y759192D02*
Y762370D01*
X867410Y771010D02*
X876050Y762370D01*
X861060Y759340D02*
X861930Y760210D01*
Y767530D02*
X865410Y771010D01*
X861930Y760210D02*
Y767530D01*
X857240Y819270D02*
X858520D01*
X857120Y819390D02*
X857240Y819270D01*
X844010Y773430D02*
X866020D01*
X842010D02*
X844010D01*
X842010Y771010D02*
Y773430D01*
X866020D02*
X866140Y773550D01*
X937140Y807720D02*
X940620Y811200D01*
D27*
X895110Y803910D02*
D03*
X880110D02*
D03*
X895110Y828040D02*
D03*
X880110D02*
D03*
X922140Y807720D02*
D03*
X937140D02*
D03*
X924560Y867410D02*
D03*
X939560D02*
D03*
X858520Y857250D02*
D03*
X843520D02*
D03*
X924800Y833120D02*
D03*
X939800D02*
D03*
D28*
X942340Y775850D02*
D03*
Y760850D02*
D03*
X918210Y775730D02*
D03*
Y760730D02*
D03*
X842010Y773430D02*
D03*
Y788430D02*
D03*
X866140Y773550D02*
D03*
Y788550D02*
D03*
X834390Y834390D02*
D03*
Y819390D02*
D03*
X858520Y834270D02*
D03*
Y819270D02*
D03*
D45*
X562610Y603250D02*
D03*
Y628650D02*
D03*
Y654050D02*
D03*
Y679450D02*
D03*
Y704850D02*
D03*
Y730250D02*
D03*
D46*
Y403860D02*
D03*
Y535940D02*
D03*
Y469900D02*
D03*
X929640Y668020D02*
D03*
D47*
X562610Y429260D02*
D03*
Y561340D02*
D03*
Y495300D02*
D03*
X929640Y642620D02*
D03*
Y617220D02*
D03*
Y591820D02*
D03*
D48*
X1073150Y629920D02*
D03*
Y604520D02*
D03*
Y579120D02*
D03*
Y553720D02*
D03*
Y528320D02*
D03*
Y502920D02*
D03*
Y477520D02*
D03*
Y452120D02*
D03*
Y426720D02*
D03*
X735330Y922020D02*
D03*
X709930D02*
D03*
X684530D02*
D03*
X659130D02*
D03*
X633730D02*
D03*
X608330D02*
D03*
X582930D02*
D03*
X557530D02*
D03*
X532130D02*
D03*
D49*
X1073150Y401320D02*
D03*
D50*
X506730Y922020D02*
D03*
D51*
X880110Y405130D02*
D03*
X728980Y443230D02*
D03*
X729360Y407654D02*
D03*
X632460Y445770D02*
D03*
X678180Y824230D02*
D03*
X777240Y826770D02*
D03*
X1000760Y527050D02*
D03*
X984250Y447040D02*
D03*
X941168Y472603D02*
D03*
X955040Y455930D02*
D03*
X970280Y454660D02*
D03*
X792568Y764150D02*
D03*
X953770Y480060D02*
D03*
X843997Y754714D02*
D03*
X842010Y844550D02*
D03*
X831310Y851331D02*
D03*
X890270Y840740D02*
D03*
X868680Y844550D02*
D03*
X887730Y814070D02*
D03*
X897382Y815746D02*
D03*
X901700Y842010D02*
D03*
X908050Y836930D02*
D03*
X845820Y797560D02*
D03*
X853440Y875030D02*
D03*
X866357Y867831D02*
D03*
X791210Y833120D02*
D03*
X779780Y768350D02*
D03*
X784860Y779780D02*
D03*
X795020Y786130D02*
D03*
X694690Y816610D02*
D03*
X684530Y803910D02*
D03*
X916940Y784860D02*
D03*
X909320Y877570D02*
D03*
X989330Y857250D02*
D03*
X996950Y866140D02*
D03*
X942340Y711200D02*
D03*
X1078230Y867410D02*
D03*
Y852170D02*
D03*
X1013460Y932180D02*
D03*
X996950Y914400D02*
D03*
X1057910Y918210D02*
D03*
X1052830Y934720D02*
D03*
X955040Y716280D02*
D03*
X1076960D02*
D03*
X1057910D02*
D03*
X1038860Y701040D02*
D03*
X1028491Y690775D02*
D03*
X810260Y443230D02*
D03*
X795020D02*
D03*
X775970Y436880D02*
D03*
X762000D02*
D03*
X774700Y463550D02*
D03*
X760730D02*
D03*
X607060D02*
D03*
X593090D02*
D03*
Y439420D02*
D03*
X607060D02*
D03*
X646430Y445770D02*
D03*
X607060Y403860D02*
D03*
X628650D02*
D03*
X652780Y405130D02*
D03*
Y419100D02*
D03*
X674370D02*
D03*
Y405130D02*
D03*
X694690Y407670D02*
D03*
X712470D02*
D03*
X821690Y417830D02*
D03*
X840740D02*
D03*
X896620Y405130D02*
D03*
X863600D02*
D03*
X840740Y403860D02*
D03*
X822960D02*
D03*
X795020Y401320D02*
D03*
X772160D02*
D03*
X828040Y798830D02*
D03*
X855980Y797560D02*
D03*
X869950D02*
D03*
X901485Y791425D02*
D03*
X878840Y857250D02*
D03*
X854710Y844550D02*
D03*
X913130Y861060D02*
D03*
X914400Y824230D02*
D03*
X913130Y847090D02*
D03*
X904120Y805180D02*
D03*
X909200Y819150D02*
D03*
X928370Y787400D02*
D03*
X941070Y792480D02*
D03*
X952589Y786149D02*
D03*
X829310Y749300D02*
D03*
X746760Y746760D02*
D03*
X698500Y443230D02*
D03*
X807720Y523240D02*
D03*
X786130D02*
D03*
X765810D02*
D03*
X807720Y504190D02*
D03*
X786130D02*
D03*
X765810D02*
D03*
X808990Y547370D02*
D03*
X787400D02*
D03*
X768350Y548640D02*
D03*
X890270Y552450D02*
D03*
X866140D02*
D03*
X843280Y551180D02*
D03*
X942340Y506730D02*
D03*
X717550Y562610D02*
D03*
X698500D02*
D03*
X674370D02*
D03*
X619760Y508000D02*
D03*
X645160Y530860D02*
D03*
X623570Y532130D02*
D03*
X600710D02*
D03*
X641350Y506730D02*
D03*
X867410Y749300D02*
D03*
X842010Y764625D02*
D03*
X798830Y821690D02*
D03*
X847090Y808990D02*
D03*
X835705Y808945D02*
D03*
X880110Y847090D02*
D03*
X896620Y857250D02*
D03*
X843280Y871220D02*
D03*
X951230Y751840D02*
D03*
X955040Y765810D02*
D03*
X949960Y815340D02*
D03*
X952500Y825500D02*
D03*
X831310Y862330D02*
D03*
X951965Y871755D02*
D03*
X849480Y763172D02*
D03*
X759460Y608330D02*
D03*
X772160Y744220D02*
D03*
X759460D02*
D03*
X787400Y803910D02*
D03*
X868680Y913130D02*
D03*
X758916Y628499D02*
D03*
X759460Y652780D02*
D03*
X995680Y843280D02*
D03*
X777240Y716280D02*
D03*
X938530Y906780D02*
D03*
X790520Y850320D02*
D03*
X1051560Y840740D02*
D03*
X1012190Y859790D02*
D03*
X1014730Y911860D02*
D03*
X1028700Y902970D02*
D03*
X1021080Y868680D02*
D03*
X1069340Y842010D02*
D03*
X990600Y713740D02*
D03*
X980440Y533400D02*
D03*
X979170Y704850D02*
D03*
X929640Y709930D02*
D03*
X988060Y433070D02*
D03*
X923290Y539750D02*
D03*
X951230Y541020D02*
D03*
X871220Y812800D02*
D03*
X858520Y810260D02*
D03*
X877570Y781050D02*
D03*
X894080Y779780D02*
D03*
X779780Y840740D02*
D03*
X831850Y875030D02*
D03*
X881380Y443230D02*
D03*
X869950Y441960D02*
D03*
X894080Y443230D02*
D03*
X938530Y850900D02*
D03*
X952500Y835660D02*
D03*
X951230Y848360D02*
D03*
X947300Y803910D02*
D03*
X929087Y754731D02*
D03*
X920750Y748030D02*
D03*
X826044Y766536D02*
D03*
X861060Y759340D02*
D03*
X876050Y759192D02*
D03*
X713740Y443230D02*
D03*
X600710Y508000D02*
D03*
Y556260D02*
D03*
X651510Y557530D02*
D03*
X626110D02*
D03*
M02*
