G04*
G04 #@! TF.GenerationSoftware,Altium Limited,Altium Designer,24.6.1 (21)*
G04*
G04 Layer_Physical_Order=2*
G04 Layer_Color=32768*
%FSLAX25Y25*%
%MOIN*%
G70*
G04*
G04 #@! TF.SameCoordinates,53350382-22CE-4EB4-8EAE-C997BD2E2089*
G04*
G04*
G04 #@! TF.FilePolarity,Negative*
G04*
G01*
G75*
%ADD52C,0.04000*%
%ADD53C,0.08213*%
%ADD54C,0.08134*%
%ADD55C,0.08724*%
%ADD56C,0.04800*%
D52*
X175500Y148500D02*
X432000D01*
Y377000D01*
X175500Y377000D02*
X432000Y377000D01*
X175500Y148500D02*
Y377000D01*
D53*
X221500Y247500D02*
D03*
Y257500D02*
D03*
Y267500D02*
D03*
Y277500D02*
D03*
Y287500D02*
D03*
D54*
Y159000D02*
D03*
Y211000D02*
D03*
Y185000D02*
D03*
X366000Y263000D02*
D03*
Y253000D02*
D03*
Y243000D02*
D03*
D55*
X422500Y248000D02*
D03*
Y238000D02*
D03*
Y228000D02*
D03*
Y218000D02*
D03*
Y208000D02*
D03*
Y198000D02*
D03*
Y188000D02*
D03*
Y178000D02*
D03*
Y158000D02*
D03*
X279500Y363000D02*
D03*
X269500D02*
D03*
X259500D02*
D03*
X249500D02*
D03*
X239500D02*
D03*
X229500D02*
D03*
X219500D02*
D03*
X209500D02*
D03*
X199500D02*
D03*
D56*
X287000Y174500D02*
D03*
X394000Y207500D02*
D03*
X387500Y176000D02*
D03*
X294000Y294000D02*
D03*
X275000Y174500D02*
D03*
X318000Y206000D02*
D03*
X309500D02*
D03*
X301500D02*
D03*
X318000Y198500D02*
D03*
X309500D02*
D03*
X301500D02*
D03*
X318500Y215500D02*
D03*
X310000D02*
D03*
X302500Y216000D02*
D03*
X350500Y217500D02*
D03*
X341000D02*
D03*
X332000Y217000D02*
D03*
X371000Y199500D02*
D03*
X282500Y221500D02*
D03*
X275000D02*
D03*
X265500D02*
D03*
X244000Y200000D02*
D03*
X254000Y209000D02*
D03*
X245500Y209500D02*
D03*
X236500D02*
D03*
X252500Y199500D02*
D03*
X341500Y295000D02*
D03*
X331500Y301033D02*
D03*
X314500Y323500D02*
D03*
X333500Y318500D02*
D03*
X329018Y318482D02*
D03*
X346500Y333500D02*
D03*
X353000Y337500D02*
D03*
X332000Y343000D02*
D03*
X374500Y296000D02*
D03*
X376000Y301500D02*
D03*
X374000Y321000D02*
D03*
X375000Y325000D02*
D03*
X327287Y339500D02*
D03*
X374790Y343211D02*
D03*
X334441Y300461D02*
D03*
X299000Y239500D02*
D03*
X304000Y293000D02*
D03*
X299000D02*
D03*
X310000Y316500D02*
D03*
X342000Y359500D02*
D03*
X298786Y247441D02*
D03*
X299000Y257000D02*
D03*
X392000Y332000D02*
D03*
X306000Y282000D02*
D03*
X369500Y357000D02*
D03*
X311228Y334772D02*
D03*
X414000Y331000D02*
D03*
X398500Y338500D02*
D03*
X399500Y359000D02*
D03*
X405000Y355500D02*
D03*
X402000Y342000D02*
D03*
X421000Y331500D02*
D03*
X390000Y281000D02*
D03*
X386000Y210000D02*
D03*
X385500Y277500D02*
D03*
X366000Y279500D02*
D03*
X389000Y170500D02*
D03*
X363500Y212500D02*
D03*
X374500Y213000D02*
D03*
X343000Y320000D02*
D03*
X338000Y319000D02*
D03*
X345500Y307500D02*
D03*
X352000Y307000D02*
D03*
X307000Y331000D02*
D03*
X327500Y344500D02*
D03*
X347000Y174500D02*
D03*
X342500Y174000D02*
D03*
X352000Y174500D02*
D03*
X369500Y335000D02*
D03*
X375000Y329000D02*
D03*
X374500Y334000D02*
D03*
X372953Y316500D02*
D03*
X365782Y297138D02*
D03*
X362500Y294500D02*
D03*
X325214Y301786D02*
D03*
X339000Y298953D02*
D03*
X344902Y298895D02*
D03*
X281000Y174500D02*
D03*
X236500Y200000D02*
D03*
Y219000D02*
D03*
X256500Y219500D02*
D03*
X246500D02*
D03*
M02*
