%TF.GenerationSoftware,Altium Limited,Altium Designer,24.6.1 (21)*%
G04 Layer_Color=16711935*
%FSLAX45Y45*%
%MOMM*%
%TF.SameCoordinates,D96B88A3-C1BF-4694-92A9-412EC26ABF2C*%
%TF.FilePolarity,Negative*%
%TF.FileFunction,Soldermask,Bot*%
%TF.Part,Single*%
G01*
G75*
%TA.AperFunction,SMDPad,CuDef*%
%ADD22R,0.95000X1.35000*%
%ADD23R,1.35000X0.95000*%
%TA.AperFunction,ComponentPad*%
%ADD50C,1.68100*%
%ADD51R,1.65100X1.65100*%
%ADD52C,1.65100*%
%ADD53C,1.87600*%
%ADD54R,1.87600X1.87600*%
%ADD55R,1.87600X1.87600*%
%TA.AperFunction,ViaPad*%
%ADD56C,0.58400*%
D22*
X8951100Y8039100D02*
D03*
X8801100D02*
D03*
X8951100Y8280400D02*
D03*
X8801100D02*
D03*
X9221400Y8077200D02*
D03*
X9371400D02*
D03*
X9245600Y8674100D02*
D03*
X9395600D02*
D03*
X8585200Y8572500D02*
D03*
X8435200D02*
D03*
X9248000Y8331200D02*
D03*
X9398000D02*
D03*
D23*
X9423400Y7758500D02*
D03*
Y7608500D02*
D03*
X9182100Y7757300D02*
D03*
Y7607300D02*
D03*
X8420100Y7734300D02*
D03*
Y7884300D02*
D03*
X8661400Y7735500D02*
D03*
Y7885500D02*
D03*
X8343900Y8343900D02*
D03*
Y8193900D02*
D03*
X8585200Y8342700D02*
D03*
Y8192700D02*
D03*
D50*
X5626100Y6032500D02*
D03*
Y6286500D02*
D03*
Y6540500D02*
D03*
Y6794500D02*
D03*
Y7048500D02*
D03*
Y7302500D02*
D03*
D51*
Y4038600D02*
D03*
Y5359400D02*
D03*
Y4699000D02*
D03*
X9296400Y6680200D02*
D03*
D52*
X5626100Y4292600D02*
D03*
Y5613400D02*
D03*
Y4953000D02*
D03*
X9296400Y6426200D02*
D03*
Y6172200D02*
D03*
Y5918200D02*
D03*
D53*
X10731500Y6299200D02*
D03*
Y6045200D02*
D03*
Y5791200D02*
D03*
Y5537200D02*
D03*
Y5283200D02*
D03*
Y5029200D02*
D03*
Y4775200D02*
D03*
Y4521200D02*
D03*
Y4267200D02*
D03*
X7353300Y9220200D02*
D03*
X7099300D02*
D03*
X6845300D02*
D03*
X6591300D02*
D03*
X6337300D02*
D03*
X6083300D02*
D03*
X5829300D02*
D03*
X5575300D02*
D03*
X5321300D02*
D03*
D54*
X10731500Y4013200D02*
D03*
D55*
X5067300Y9220200D02*
D03*
D56*
X8801100Y4051300D02*
D03*
X7289800Y4432300D02*
D03*
X7293596Y4076545D02*
D03*
X6324600Y4457700D02*
D03*
X6781800Y8242300D02*
D03*
X7772400Y8267700D02*
D03*
X10007600Y5270500D02*
D03*
X9842500Y4470400D02*
D03*
X9411675Y4726035D02*
D03*
X9550400Y4559300D02*
D03*
X9702800Y4546600D02*
D03*
X7925680Y7641500D02*
D03*
X9537700Y4800600D02*
D03*
X8439967Y7547140D02*
D03*
X8420100Y8445500D02*
D03*
X8313100Y8513308D02*
D03*
X8902700Y8407400D02*
D03*
X8686800Y8445500D02*
D03*
X8877300Y8140700D02*
D03*
X8973815Y8157459D02*
D03*
X9017000Y8420100D02*
D03*
X9080500Y8369300D02*
D03*
X8458200Y7975600D02*
D03*
X8534400Y8750300D02*
D03*
X8663570Y8678313D02*
D03*
X7912100Y8331200D02*
D03*
X7797800Y7683500D02*
D03*
X7848600Y7797800D02*
D03*
X7950200Y7861300D02*
D03*
X6946900Y8166100D02*
D03*
X6845300Y8039100D02*
D03*
X9169400Y7848600D02*
D03*
X9093200Y8775700D02*
D03*
X9893300Y8572500D02*
D03*
X9969500Y8661400D02*
D03*
X9423400Y7112000D02*
D03*
X10782300Y8674100D02*
D03*
Y8521700D02*
D03*
X10134600Y9321800D02*
D03*
X9969500Y9144000D02*
D03*
X10579100Y9182100D02*
D03*
X10528300Y9347200D02*
D03*
X9550400Y7162800D02*
D03*
X10769600D02*
D03*
X10579100D02*
D03*
X10388600Y7010400D02*
D03*
X10284912Y6907748D02*
D03*
X8102600Y4432300D02*
D03*
X7950200D02*
D03*
X7759700Y4368800D02*
D03*
X7620000D02*
D03*
X7747000Y4635500D02*
D03*
X7607300D02*
D03*
X6070600D02*
D03*
X5930900D02*
D03*
Y4394200D02*
D03*
X6070600D02*
D03*
X6464300Y4457700D02*
D03*
X6070600Y4038600D02*
D03*
X6286500D02*
D03*
X6527800Y4051300D02*
D03*
Y4191000D02*
D03*
X6743700D02*
D03*
Y4051300D02*
D03*
X6946900Y4076700D02*
D03*
X7124700D02*
D03*
X8216900Y4178300D02*
D03*
X8407400D02*
D03*
X8966200Y4051300D02*
D03*
X8636000D02*
D03*
X8407400Y4038600D02*
D03*
X8229600D02*
D03*
X7950200Y4013200D02*
D03*
X7721600D02*
D03*
X8280400Y7988300D02*
D03*
X8559800Y7975600D02*
D03*
X8699500D02*
D03*
X9014853Y7914247D02*
D03*
X8788400Y8572500D02*
D03*
X8547100Y8445500D02*
D03*
X9131300Y8610600D02*
D03*
X9144000Y8242300D02*
D03*
X9131300Y8470900D02*
D03*
X9041200Y8051800D02*
D03*
X9092000Y8191500D02*
D03*
X9283700Y7874000D02*
D03*
X9410700Y7924800D02*
D03*
X9525895Y7861494D02*
D03*
X8293100Y7493000D02*
D03*
X7467600Y7467600D02*
D03*
X6985000Y4432300D02*
D03*
X8077200Y5232400D02*
D03*
X7861300D02*
D03*
X7658100D02*
D03*
X8077200Y5041900D02*
D03*
X7861300D02*
D03*
X7658100D02*
D03*
X8089900Y5473700D02*
D03*
X7874000D02*
D03*
X7683500Y5486400D02*
D03*
X8902700Y5524500D02*
D03*
X8661400D02*
D03*
X8432800Y5511800D02*
D03*
X9423400Y5067300D02*
D03*
X7175500Y5626100D02*
D03*
X6985000D02*
D03*
X6743700D02*
D03*
X6197600Y5080000D02*
D03*
X6451600Y5308600D02*
D03*
X6235700Y5321300D02*
D03*
X6007100D02*
D03*
X6413500Y5067300D02*
D03*
X8674100Y7493000D02*
D03*
X8420100Y7646246D02*
D03*
X7988300Y8216900D02*
D03*
X8470900Y8089900D02*
D03*
X8357051Y8089449D02*
D03*
X8801100Y8470900D02*
D03*
X8966200Y8572500D02*
D03*
X8432800Y8712200D02*
D03*
X9512300Y7518400D02*
D03*
X9550400Y7658100D02*
D03*
X9499600Y8153400D02*
D03*
X9525000Y8255000D02*
D03*
X8313100Y8623300D02*
D03*
X9519654Y8717546D02*
D03*
X8494801Y7631720D02*
D03*
X7594600Y6083300D02*
D03*
X7721600Y7442200D02*
D03*
X7594600D02*
D03*
X7874000Y8039100D02*
D03*
X8686800Y9131300D02*
D03*
X7589161Y6284990D02*
D03*
X7594600Y6527800D02*
D03*
X9956800Y8432800D02*
D03*
X7772400Y7162800D02*
D03*
X9385300Y9067800D02*
D03*
X7905197Y8503203D02*
D03*
X10515600Y8407400D02*
D03*
X10121900Y8597900D02*
D03*
X10147300Y9118600D02*
D03*
X10287000Y9029700D02*
D03*
X10210800Y8686800D02*
D03*
X10693400Y8420100D02*
D03*
X9906000Y7137400D02*
D03*
X9804400Y5334000D02*
D03*
X9791700Y7048500D02*
D03*
X9296400Y7099300D02*
D03*
X9880600Y4330700D02*
D03*
X9232900Y5397500D02*
D03*
X9512300Y5410200D02*
D03*
X8712200Y8128000D02*
D03*
X8585200Y8102600D02*
D03*
X8775700Y7810500D02*
D03*
X8940800Y7797800D02*
D03*
X7797800Y8407400D02*
D03*
X8318500Y8750300D02*
D03*
X8813800Y4432300D02*
D03*
X8699500Y4419600D02*
D03*
X8940800Y4432300D02*
D03*
X9385300Y8509000D02*
D03*
X9525000Y8356600D02*
D03*
X9512300Y8483600D02*
D03*
X9473000Y8039100D02*
D03*
X9290874Y7547314D02*
D03*
X9207500Y7480300D02*
D03*
X8260440Y7665359D02*
D03*
X8610600Y7593400D02*
D03*
X8760504Y7591921D02*
D03*
X7137400Y4432300D02*
D03*
X6007100Y5080000D02*
D03*
Y5562600D02*
D03*
X6515100Y5575300D02*
D03*
X6261100D02*
D03*
%TF.MD5,3a7fe9b88a960df549fbd146899654b5*%
M02*
