%TF.GenerationSoftware,Altium Limited,Altium Designer,24.6.1 (21)*%
G04 Layer_Physical_Order=1*
G04 Layer_Color=255*
%FSLAX45Y45*%
%MOMM*%
%TF.SameCoordinates,D96B88A3-C1BF-4694-92A9-412EC26ABF2C*%
%TF.FilePolarity,Positive*%
%TF.FileFunction,Copper,L1,Top,Signal*%
%TF.Part,Single*%
G01*
G75*
%TA.AperFunction,Conductor*%
%ADD10C,0.25400*%
%TA.AperFunction,SMDPad,CuDef*%
%ADD11R,2.20000X1.60000*%
%ADD12R,0.80000X1.00000*%
%ADD13R,1.00000X0.80000*%
%ADD14R,1.47320X0.27940*%
%ADD15R,0.27940X1.47320*%
%ADD16R,0.70000X1.30000*%
%ADD17R,0.97790X0.55880*%
%ADD18R,1.55000X1.30000*%
%ADD19R,5.50000X2.00000*%
%ADD20R,0.62000X0.60000*%
%ADD21R,1.13000X2.44000*%
%ADD22R,0.95000X1.35000*%
%ADD23R,1.35000X0.95000*%
%TA.AperFunction,ComponentPad*%
%ADD24C,1.60500*%
%ADD25R,1.57500X1.57500*%
%ADD26C,1.57500*%
%ADD27C,1.80000*%
%ADD28R,1.80000X1.80000*%
%ADD29R,1.80000X1.80000*%
%TA.AperFunction,ViaPad*%
%ADD30C,0.50800*%
G36*
X10942214Y3802486D02*
X4488286D01*
Y7853762D01*
X4495721Y9545213D01*
X10942214Y9545214D01*
Y3802486D01*
D02*
G37*
%LPC*%
G36*
X10098855Y9378313D02*
X9927600D01*
X9919176Y9376637D01*
X9912035Y9371865D01*
X9907263Y9364724D01*
X9905587Y9356300D01*
Y9185900D01*
X9907263Y9177476D01*
X9912035Y9170335D01*
X9953935Y9128435D01*
X9961076Y9123663D01*
X9969500Y9121987D01*
X9977924Y9123663D01*
X9985065Y9128435D01*
X9989837Y9135576D01*
X9991513Y9144000D01*
X9989837Y9152424D01*
X9985065Y9159565D01*
X9949613Y9195018D01*
Y9334287D01*
X10089737D01*
X10117790Y9306235D01*
X10124931Y9301463D01*
X10133355Y9299787D01*
X10134600D01*
X10143024Y9301463D01*
X10150165Y9306235D01*
X10154937Y9313376D01*
X10156613Y9321800D01*
X10154937Y9330224D01*
X10150165Y9337365D01*
X10146414Y9339872D01*
X10114420Y9371865D01*
X10107279Y9376637D01*
X10098855Y9378313D01*
D02*
G37*
G36*
X10722600D02*
X10538645D01*
X10530221Y9376637D01*
X10523080Y9371865D01*
X10516486Y9365272D01*
X10512735Y9362765D01*
X10507963Y9355624D01*
X10506287Y9347200D01*
X10507963Y9338776D01*
X10512735Y9331635D01*
X10519876Y9326863D01*
X10528300Y9325187D01*
X10529545D01*
X10537969Y9326863D01*
X10545110Y9331635D01*
X10547763Y9334287D01*
X10645341D01*
X10648743Y9326074D01*
X10564414Y9241745D01*
X10559643Y9234604D01*
X10557967Y9226180D01*
Y9186523D01*
X10557087Y9182100D01*
X10558763Y9173676D01*
X10563535Y9166535D01*
X10570676Y9161763D01*
X10579100Y9160087D01*
X10587524Y9161763D01*
X10594665Y9166535D01*
X10595545Y9167414D01*
X10600317Y9174556D01*
X10601993Y9182980D01*
Y9217062D01*
X10719218Y9334287D01*
X10722600D01*
X10731024Y9335963D01*
X10738165Y9340735D01*
X10742937Y9347876D01*
X10744613Y9356300D01*
X10742937Y9364724D01*
X10738165Y9371865D01*
X10731024Y9376637D01*
X10722600Y9378313D01*
D02*
G37*
G36*
X7112319Y9319090D02*
X7086281D01*
X7061130Y9312351D01*
X7038580Y9299332D01*
X7020168Y9280920D01*
X7007149Y9258370D01*
X7000410Y9233219D01*
Y9207181D01*
X7007149Y9182030D01*
X7020168Y9159480D01*
X7038580Y9141068D01*
X7061130Y9128049D01*
X7086281Y9121310D01*
X7112319D01*
X7137470Y9128049D01*
X7160020Y9141068D01*
X7178432Y9159480D01*
X7191451Y9182030D01*
X7198190Y9207181D01*
Y9233219D01*
X7191451Y9258370D01*
X7178432Y9280920D01*
X7160020Y9299332D01*
X7137470Y9312351D01*
X7112319Y9319090D01*
D02*
G37*
G36*
X5588319D02*
X5562281D01*
X5537130Y9312351D01*
X5514580Y9299332D01*
X5496168Y9280920D01*
X5483149Y9258370D01*
X5476410Y9233219D01*
Y9207181D01*
X5483149Y9182030D01*
X5496168Y9159480D01*
X5514580Y9141068D01*
X5537130Y9128049D01*
X5562281Y9121310D01*
X5588319D01*
X5613470Y9128049D01*
X5636020Y9141068D01*
X5654432Y9159480D01*
X5667451Y9182030D01*
X5674190Y9207181D01*
Y9233219D01*
X5667451Y9258370D01*
X5654432Y9280920D01*
X5636020Y9299332D01*
X5613470Y9312351D01*
X5588319Y9319090D01*
D02*
G37*
G36*
X6858319D02*
X6832281D01*
X6807130Y9312351D01*
X6784580Y9299332D01*
X6766168Y9280920D01*
X6753149Y9258370D01*
X6746410Y9233219D01*
Y9207181D01*
X6753149Y9182030D01*
X6766168Y9159480D01*
X6784580Y9141068D01*
X6807130Y9128049D01*
X6832281Y9121310D01*
X6858319D01*
X6883470Y9128049D01*
X6897956Y9136413D01*
X7321935Y8712435D01*
X7327220Y8708903D01*
X7325435Y8700013D01*
X7142618D01*
X6675087Y9167544D01*
X6683451Y9182030D01*
X6690190Y9207181D01*
Y9233219D01*
X6683451Y9258370D01*
X6670432Y9280920D01*
X6652020Y9299332D01*
X6629470Y9312351D01*
X6604319Y9319090D01*
X6578281D01*
X6553130Y9312351D01*
X6530580Y9299332D01*
X6512168Y9280920D01*
X6499149Y9258370D01*
X6492410Y9233219D01*
Y9207181D01*
X6499149Y9182030D01*
X6512168Y9159480D01*
X6530580Y9141068D01*
X6553130Y9128049D01*
X6578281Y9121310D01*
X6604319D01*
X6629470Y9128049D01*
X6643956Y9136413D01*
X7117934Y8662435D01*
X7123220Y8658903D01*
X7121434Y8650013D01*
X6938618D01*
X6421087Y9167544D01*
X6429451Y9182030D01*
X6436190Y9207181D01*
Y9233219D01*
X6429451Y9258370D01*
X6416432Y9280920D01*
X6398020Y9299332D01*
X6375470Y9312351D01*
X6350319Y9319090D01*
X6324281D01*
X6299130Y9312351D01*
X6276580Y9299332D01*
X6258168Y9280920D01*
X6245149Y9258370D01*
X6238410Y9233219D01*
Y9207181D01*
X6245149Y9182030D01*
X6258168Y9159480D01*
X6276580Y9141068D01*
X6299130Y9128049D01*
X6324281Y9121310D01*
X6350319D01*
X6375470Y9128049D01*
X6389956Y9136413D01*
X6913934Y8612435D01*
X6919220Y8608903D01*
X6917433Y8600013D01*
X6798118D01*
X6273160Y9124970D01*
X6267742Y9131342D01*
X6267741Y9131343D01*
X6267741Y9131343D01*
X6256822Y9139722D01*
X6248443Y9150641D01*
X6248443D01*
X6242070Y9156060D01*
X6182190Y9215941D01*
Y9233219D01*
X6175451Y9258370D01*
X6162432Y9280920D01*
X6144020Y9299332D01*
X6121470Y9312351D01*
X6096319Y9319090D01*
X6070281D01*
X6045130Y9312351D01*
X6022580Y9299332D01*
X6004168Y9280920D01*
X5991149Y9258370D01*
X5984410Y9233219D01*
Y9207181D01*
X5991149Y9182030D01*
X6004168Y9159480D01*
X6022580Y9141068D01*
X6045130Y9128049D01*
X6070281Y9121310D01*
X6096319D01*
X6121470Y9128049D01*
X6144020Y9141068D01*
X6162432Y9159480D01*
X6163889Y9162005D01*
X6172703Y9163165D01*
X6214881Y9120987D01*
X6215686Y9120449D01*
X6225541Y9108441D01*
X6237550Y9098586D01*
X6238088Y9097781D01*
X6773434Y8562435D01*
X6780576Y8557663D01*
X6789000Y8555987D01*
X8053924D01*
X8060690Y8550860D01*
X8060690Y8546250D01*
Y8509750D01*
X8060690Y8505140D01*
X8053923Y8500013D01*
X7939518D01*
X7939487Y8500044D01*
Y8510023D01*
X7934267Y8522626D01*
X7924621Y8532272D01*
X7912018Y8537493D01*
X7898377D01*
X7885774Y8532272D01*
X7876128Y8522626D01*
X7870907Y8510023D01*
Y8496382D01*
X7876128Y8483779D01*
X7885774Y8474133D01*
X7898377Y8468913D01*
X7908356D01*
X7914835Y8462434D01*
X7921976Y8457663D01*
X7930400Y8455987D01*
X7994606D01*
X7998008Y8447774D01*
X7979648Y8429413D01*
X7824281D01*
X7817224Y8436470D01*
X7804621Y8441690D01*
X7790979D01*
X7778376Y8436470D01*
X7768730Y8426824D01*
X7763510Y8414221D01*
Y8400579D01*
X7768730Y8387976D01*
X7778376Y8378330D01*
X7790979Y8373110D01*
X7804621D01*
X7817224Y8378330D01*
X7824281Y8385387D01*
X7988766D01*
X7997189Y8387063D01*
X8004331Y8391835D01*
X8052477Y8439980D01*
X8060690Y8436578D01*
Y8409750D01*
X8060690Y8405140D01*
X8060690Y8396250D01*
Y8359750D01*
X8060690Y8355140D01*
X8060690Y8346250D01*
Y8308903D01*
X8060690Y8305140D01*
X8053924Y8300013D01*
X8030446D01*
X8029362Y8300737D01*
X8020938Y8302413D01*
X7972018D01*
X7927665Y8346765D01*
X7920524Y8351537D01*
X7912100Y8353213D01*
X7903676Y8351537D01*
X7896535Y8346765D01*
X7891763Y8339624D01*
X7890087Y8331200D01*
X7891763Y8322776D01*
X7896535Y8315635D01*
X7914243Y8297926D01*
X7910841Y8289713D01*
X7772400D01*
X7763976Y8288037D01*
X7756835Y8283265D01*
X7752063Y8276124D01*
X7750387Y8267700D01*
X7752063Y8259276D01*
X7756835Y8252135D01*
X7763976Y8247363D01*
X7772400Y8245687D01*
X7949298D01*
X7957721Y8247363D01*
X7963315Y8240408D01*
X7959230Y8236324D01*
X7954010Y8223721D01*
Y8210079D01*
X7959230Y8197476D01*
X7968876Y8187830D01*
X7977392Y8184303D01*
X7975624Y8175413D01*
X7743418D01*
X7457765Y8461065D01*
X7450624Y8465837D01*
X7442200Y8467513D01*
X6850462D01*
X6660710Y8657265D01*
X6653568Y8662037D01*
X6645144Y8663713D01*
X4964155D01*
X4955731Y8662037D01*
X4948590Y8657265D01*
X4915456Y8624131D01*
X4910684Y8616990D01*
X4909995Y8613525D01*
X4885559Y8589090D01*
X4836910D01*
Y8511310D01*
X4916690D01*
Y8557959D01*
X4946586Y8587856D01*
X4951358Y8594997D01*
X4952047Y8598461D01*
X4960597Y8607010D01*
X4968810Y8603608D01*
Y8480213D01*
X4916690D01*
Y8497090D01*
X4836910D01*
Y8419310D01*
X4916690D01*
Y8436187D01*
X4968810D01*
Y8400110D01*
X5536590D01*
Y8617890D01*
X5544736Y8619687D01*
X5910664D01*
X5918810Y8617890D01*
X5918810Y8610797D01*
Y8400110D01*
X6486590D01*
Y8528187D01*
X6617182D01*
X6639887Y8505482D01*
Y8456246D01*
X6600420D01*
Y8378467D01*
X6680200D01*
Y8405884D01*
X6682237Y8408933D01*
X6683913Y8417357D01*
Y8475026D01*
X6688624Y8475963D01*
X6695765Y8480735D01*
X6700537Y8487876D01*
X6702213Y8496300D01*
X6700537Y8504724D01*
X6695765Y8511865D01*
X6688624Y8516637D01*
X6683297Y8517697D01*
X6682237Y8523024D01*
X6677465Y8530165D01*
X6641866Y8565765D01*
X6634724Y8570537D01*
X6626300Y8572213D01*
X6486590D01*
X6486590Y8617890D01*
X6494736Y8619687D01*
X6636026D01*
X6825779Y8429934D01*
X6832920Y8425163D01*
X6841344Y8423487D01*
X7433082D01*
X7707233Y8149336D01*
X7703831Y8141123D01*
X7625308D01*
X7425509Y8340922D01*
X7418367Y8345694D01*
X7409944Y8347370D01*
X6680200D01*
Y8364247D01*
X6600420D01*
Y8317362D01*
X6596123Y8310931D01*
X6594447Y8302507D01*
X6596123Y8294083D01*
X6600420Y8287651D01*
Y8286467D01*
X6601605D01*
X6608036Y8282169D01*
X6616460Y8280494D01*
X6634207D01*
X6642631Y8282169D01*
X6649062Y8286467D01*
X6680200D01*
Y8303344D01*
X7400826D01*
X7600625Y8103545D01*
X7607766Y8098773D01*
X7616190Y8097097D01*
X7888294D01*
X7891976Y8088207D01*
X7877159Y8073390D01*
X7867179D01*
X7854576Y8068170D01*
X7847519Y8061113D01*
X7480025D01*
X7397572Y8143565D01*
X7390431Y8148337D01*
X7382007Y8150013D01*
X7319590D01*
Y8204390D01*
X7206810D01*
Y8051610D01*
X7319590D01*
Y8105987D01*
X7372889D01*
X7455341Y8023534D01*
X7462483Y8018763D01*
X7470907Y8017087D01*
X7847519D01*
X7854576Y8010030D01*
X7865337Y8005573D01*
X7863569Y7996683D01*
X4735697D01*
X4733713Y7998667D01*
Y8512582D01*
X5281529Y9060399D01*
X5288414Y9065242D01*
X5297013Y9064541D01*
X5321300Y9062149D01*
X5352134Y9065186D01*
X5381783Y9074180D01*
X5409108Y9088785D01*
X5433059Y9108441D01*
X5442101Y9119458D01*
X5446600Y9121228D01*
X5450046Y9121213D01*
X5454500Y9119459D01*
X5463542Y9108442D01*
X5487492Y9088786D01*
X5514817Y9074181D01*
X5544466Y9065187D01*
X5575300Y9062150D01*
X5606134Y9065187D01*
X5635783Y9074181D01*
X5663108Y9088786D01*
X5687058Y9108442D01*
X5706714Y9132392D01*
X5721319Y9159717D01*
X5728012Y9181781D01*
X5736298Y9182007D01*
X5737299Y9181770D01*
X5750168Y9159480D01*
X5768580Y9141068D01*
X5791130Y9128049D01*
X5816281Y9121310D01*
X5842319D01*
X5867470Y9128049D01*
X5890020Y9141068D01*
X5908432Y9159480D01*
X5921451Y9182030D01*
X5928190Y9207181D01*
Y9233219D01*
X5921451Y9258370D01*
X5908432Y9280920D01*
X5890020Y9299332D01*
X5867470Y9312351D01*
X5842319Y9319090D01*
X5816281D01*
X5791130Y9312351D01*
X5768580Y9299332D01*
X5750168Y9280920D01*
X5737149Y9258370D01*
X5732820Y9242213D01*
X5723863D01*
X5715440Y9240538D01*
X5708298Y9235766D01*
X5700859Y9228328D01*
X5700507Y9228680D01*
X5700506Y9228679D01*
X5700504Y9228676D01*
X5700856Y9228324D01*
X5694755Y9222223D01*
X5689984Y9215082D01*
X5688739Y9208823D01*
X5687629Y9208934D01*
X5685235Y9190743D01*
X5673865Y9163294D01*
X5655778Y9139722D01*
X5632206Y9121635D01*
X5604757Y9110265D01*
X5575300Y9106387D01*
X5545843Y9110265D01*
X5518394Y9121635D01*
X5494822Y9139722D01*
X5486307Y9150820D01*
X5486307Y9150820D01*
X5482179Y9154961D01*
X5482179Y9154962D01*
X5479583Y9156696D01*
X5466635Y9165347D01*
X5448301Y9168994D01*
X5429966Y9165347D01*
X5417094Y9156747D01*
X5414422Y9154962D01*
X5414422Y9154961D01*
X5410319Y9150852D01*
X5410319Y9150851D01*
X5401778Y9139722D01*
X5378207Y9121635D01*
X5350757Y9110264D01*
X5321300Y9106386D01*
X5297161Y9109564D01*
X5296117Y9109703D01*
X5292908Y9109994D01*
X5288418Y9110403D01*
X5288413Y9110404D01*
X5288411Y9110403D01*
X5279521Y9109905D01*
X5277892D01*
X5269468Y9108230D01*
X5262327Y9103458D01*
X4696135Y8537265D01*
X4691803Y8530783D01*
X4691159Y8530708D01*
X4682913Y8536146D01*
Y8550682D01*
X5268644Y9136413D01*
X5283130Y9128049D01*
X5308281Y9121310D01*
X5334319D01*
X5359470Y9128049D01*
X5382020Y9141068D01*
X5400432Y9159480D01*
X5413451Y9182030D01*
X5420190Y9207181D01*
Y9233219D01*
X5413451Y9258370D01*
X5400432Y9280920D01*
X5382020Y9299332D01*
X5359470Y9312351D01*
X5334319Y9319090D01*
X5308281D01*
X5283130Y9312351D01*
X5260580Y9299332D01*
X5242168Y9280920D01*
X5229149Y9258370D01*
X5222410Y9233219D01*
Y9207181D01*
X5229149Y9182030D01*
X5237513Y9167544D01*
X4645335Y8575365D01*
X4641003Y8568883D01*
X4640359Y8568808D01*
X4632113Y8574246D01*
Y8753882D01*
X4999541Y9121310D01*
X5166190D01*
Y9319090D01*
X4968410D01*
Y9152441D01*
X4594535Y8778565D01*
X4589763Y8771424D01*
X4588087Y8763000D01*
Y7592879D01*
X4589763Y7584455D01*
X4594535Y7577314D01*
X4609413Y7562435D01*
X4616555Y7557663D01*
X4624979Y7555987D01*
X8053924D01*
X8060690Y7550860D01*
X8060690Y7546250D01*
Y7505140D01*
X8225790D01*
Y7546250D01*
X8225790Y7550860D01*
X8225790Y7559750D01*
Y7596250D01*
X8225790Y7600860D01*
X8225790Y7609750D01*
Y7638944D01*
X8234680Y7642626D01*
X8241017Y7636290D01*
X8253620Y7631069D01*
X8267261D01*
X8279864Y7636290D01*
X8289510Y7645936D01*
X8294730Y7658539D01*
Y7672180D01*
X8289510Y7684783D01*
X8279864Y7694429D01*
X8267261Y7699649D01*
X8253620D01*
X8252325Y7699113D01*
X8247800Y7700013D01*
X8237535D01*
X8236659Y7708903D01*
X8236809Y7708933D01*
X8243950Y7713705D01*
X8372616Y7842371D01*
X8377388Y7849512D01*
X8379064Y7857937D01*
Y8062968D01*
X8386121Y8070025D01*
X8391341Y8082628D01*
Y8096269D01*
X8386121Y8108872D01*
X8376475Y8118518D01*
X8363872Y8123739D01*
X8350230D01*
X8341100Y8119957D01*
X8335480Y8127251D01*
X8338837Y8132276D01*
X8340513Y8140700D01*
Y8418105D01*
X8338837Y8426529D01*
X8334066Y8433671D01*
X8271613Y8496123D01*
Y8610624D01*
X8280503Y8612392D01*
X8284030Y8603876D01*
X8293676Y8594230D01*
X8306279Y8589010D01*
X8319921D01*
X8332524Y8594230D01*
X8342170Y8603876D01*
X8347390Y8616479D01*
Y8630121D01*
X8342170Y8642724D01*
X8332524Y8652370D01*
X8319921Y8657590D01*
X8306279D01*
X8293676Y8652370D01*
X8284030Y8642724D01*
X8280503Y8634208D01*
X8271613Y8635976D01*
Y8755515D01*
X8269937Y8763939D01*
X8265165Y8771080D01*
X8264313Y8771933D01*
Y9033282D01*
X8429218Y9198187D01*
X9415837D01*
X9782698Y8831326D01*
X9779296Y8823113D01*
X9550215D01*
X9547150Y8822503D01*
X9538366Y8828880D01*
X9538260Y8829109D01*
Y8982710D01*
X9536143D01*
Y8985304D01*
X9534467Y8993728D01*
X9529695Y9000870D01*
X9448080Y9082486D01*
X9440938Y9087257D01*
X9432514Y9088933D01*
X9412660D01*
X9404724Y9096870D01*
X9392121Y9102090D01*
X9378479D01*
X9365876Y9096870D01*
X9356230Y9087224D01*
X9351010Y9074621D01*
Y9060979D01*
X9356230Y9048376D01*
X9365876Y9038730D01*
X9378479Y9033510D01*
X9392121D01*
X9404724Y9038730D01*
X9410901Y9044907D01*
X9423396D01*
X9477380Y8990923D01*
X9473978Y8982710D01*
X9447150D01*
X9442540Y8982710D01*
X9433650Y8982710D01*
X9397150D01*
X9392540Y8982710D01*
X9383650Y8982710D01*
X9347150D01*
X9342540Y8982710D01*
X9333650Y8982710D01*
X9297150D01*
X9292540Y8982710D01*
X9283650Y8982710D01*
X9247150D01*
X9242540Y8982710D01*
X9233650Y8982710D01*
X9197150D01*
X9192540Y8982710D01*
X9183650Y8982710D01*
X9147150D01*
X9142540Y8982710D01*
X9133650Y8982710D01*
X9097150D01*
X9092540Y8982710D01*
X9083650Y8982710D01*
X9047150D01*
X9042540Y8982710D01*
X9033650Y8982710D01*
X8997150D01*
X8992540Y8982710D01*
X8983650Y8982710D01*
X8947150D01*
X8942540Y8982710D01*
X8933650Y8982710D01*
X8894000Y8982710D01*
X8891290Y8983605D01*
X8885683Y8987618D01*
X8884467Y8993729D01*
X8879695Y9000870D01*
X8734580Y9145986D01*
X8727438Y9150757D01*
X8719014Y9152433D01*
X8714160D01*
X8706224Y9160370D01*
X8693621Y9165590D01*
X8679979D01*
X8667376Y9160370D01*
X8657730Y9150724D01*
X8652510Y9138121D01*
Y9124479D01*
X8657730Y9111876D01*
X8667376Y9102230D01*
X8679979Y9097010D01*
X8693621D01*
X8706224Y9102230D01*
X8711148Y9107155D01*
X8827380Y8990923D01*
X8823978Y8982710D01*
X8797150D01*
X8792540Y8982710D01*
X8783650Y8982710D01*
X8747150D01*
X8742540Y8982710D01*
X8733650Y8982710D01*
X8697150D01*
X8692540Y8982710D01*
X8683650Y8982710D01*
X8642540D01*
Y8982711D01*
X8638260D01*
Y8982710D01*
X8597150D01*
X8592540Y8982710D01*
X8583650Y8982710D01*
X8547150D01*
X8542540Y8982710D01*
X8533650Y8982710D01*
X8497150D01*
X8492540Y8982710D01*
X8483650Y8982710D01*
X8447150D01*
X8442540Y8982710D01*
X8433650Y8982710D01*
X8392540D01*
Y8915036D01*
X8383650Y8912339D01*
X8382235Y8914455D01*
X8380965Y8915725D01*
X8373824Y8920497D01*
X8365400Y8922173D01*
X8356976Y8920497D01*
X8349835Y8915725D01*
X8347150Y8911708D01*
X8338260Y8914404D01*
Y8982710D01*
X8292540D01*
Y8817610D01*
X8293387D01*
Y8773680D01*
X8289430Y8769724D01*
X8284210Y8757121D01*
Y8743479D01*
X8289430Y8730876D01*
X8299076Y8721230D01*
X8311679Y8716010D01*
X8325321D01*
X8337924Y8721230D01*
X8347570Y8730876D01*
X8352790Y8743479D01*
Y8757121D01*
X8347570Y8769724D01*
X8337924Y8779370D01*
X8337413Y8779581D01*
Y8805866D01*
X8346303Y8806742D01*
X8346333Y8806591D01*
X8351105Y8799450D01*
X8390420Y8760135D01*
X8397562Y8755363D01*
X8405985Y8753687D01*
X8420124D01*
X8421892Y8744797D01*
X8413376Y8741270D01*
X8403730Y8731624D01*
X8398510Y8719021D01*
Y8705379D01*
X8403730Y8692776D01*
X8413376Y8683130D01*
X8425979Y8677910D01*
X8439621D01*
X8452224Y8683130D01*
X8461870Y8692776D01*
X8467090Y8705379D01*
Y8719021D01*
X8462584Y8729900D01*
X8467391Y8735512D01*
X8468752Y8736470D01*
X8471219Y8734823D01*
X8479643Y8733147D01*
X8521211D01*
X8525976Y8729963D01*
X8534400Y8728287D01*
X8542824Y8729963D01*
X8549965Y8734735D01*
X8554737Y8741876D01*
X8556413Y8750300D01*
X8554737Y8758724D01*
X8549965Y8765866D01*
X8545106Y8770725D01*
X8537964Y8775497D01*
X8529540Y8777173D01*
X8488761D01*
X8474668Y8791265D01*
X8467526Y8796037D01*
X8459102Y8797713D01*
X8415103D01*
X8403420Y8809397D01*
X8406822Y8817610D01*
X8433650D01*
X8438260Y8817610D01*
X8447150Y8817610D01*
X8483650D01*
X8488260Y8817610D01*
X8497150Y8817610D01*
X8533650D01*
X8538260Y8817610D01*
X8547150Y8817610D01*
X8586800Y8817610D01*
X8589510Y8816715D01*
X8595117Y8812702D01*
X8596333Y8806591D01*
X8601105Y8799450D01*
X8716620Y8683935D01*
X8723761Y8679163D01*
X8732185Y8677487D01*
X9411805D01*
X9420229Y8679163D01*
X9427371Y8683935D01*
X9481354Y8737918D01*
X9488891Y8732882D01*
X9485364Y8724367D01*
Y8710725D01*
X9490584Y8698122D01*
X9500230Y8688476D01*
X9512833Y8683256D01*
X9526474D01*
X9539077Y8688476D01*
X9548724Y8698122D01*
X9551981Y8705987D01*
X9605010D01*
Y8705140D01*
X9673316D01*
X9676012Y8696250D01*
X9671995Y8693565D01*
X9667223Y8686424D01*
X9665547Y8678000D01*
X9667223Y8669576D01*
X9671995Y8662435D01*
X9676012Y8659750D01*
X9673315Y8650860D01*
X9605010D01*
Y8648743D01*
X9591930D01*
X9583506Y8647067D01*
X9576365Y8642296D01*
X9496735Y8562665D01*
X9491963Y8555524D01*
X9490287Y8547100D01*
Y8510081D01*
X9483230Y8503024D01*
X9478010Y8490421D01*
Y8476779D01*
X9483230Y8464176D01*
X9492876Y8454530D01*
X9505479Y8449310D01*
X9519121D01*
X9531724Y8454530D01*
X9541370Y8464176D01*
X9546590Y8476779D01*
Y8490421D01*
X9541370Y8503024D01*
X9534313Y8510081D01*
Y8537982D01*
X9596120Y8599789D01*
X9605010Y8596107D01*
Y8555141D01*
X9605009D01*
Y8550859D01*
X9605010D01*
Y8509750D01*
X9605010Y8505140D01*
X9605010Y8496250D01*
Y8459750D01*
X9605010Y8455140D01*
X9605010Y8446250D01*
Y8409750D01*
X9605010Y8405140D01*
X9605009D01*
Y8400859D01*
X9605010D01*
Y8359750D01*
X9605010Y8355141D01*
X9605009D01*
Y8350860D01*
X9605010D01*
Y8309750D01*
X9605010Y8305140D01*
X9605010Y8296250D01*
Y8259750D01*
X9605010Y8255140D01*
X9605010Y8246250D01*
Y8209750D01*
X9605010Y8205140D01*
X9605010Y8196250D01*
Y8159750D01*
X9605010Y8155140D01*
X9605010Y8146250D01*
Y8109750D01*
X9605010Y8105140D01*
X9605010Y8096250D01*
Y8059750D01*
X9605010Y8055140D01*
X9605010Y8046250D01*
Y8009750D01*
X9605010Y8005140D01*
X9605010Y7996250D01*
Y7959750D01*
X9605010Y7955140D01*
X9605010Y7946250D01*
Y7909750D01*
X9605010Y7905140D01*
X9605010Y7896250D01*
Y7859750D01*
X9605010Y7855140D01*
X9605010Y7846250D01*
Y7809750D01*
X9605010Y7805140D01*
X9605010Y7796250D01*
Y7759750D01*
X9605010Y7755140D01*
X9605010Y7746250D01*
Y7709750D01*
X9605010Y7705140D01*
X9605010Y7696250D01*
Y7659750D01*
X9605010Y7655140D01*
X9605010Y7646250D01*
Y7609750D01*
X9605010Y7605140D01*
X9605009D01*
Y7600860D01*
X9605010D01*
Y7559750D01*
X9605010Y7555141D01*
X9605009D01*
Y7550859D01*
X9605010D01*
Y7505140D01*
X9770110D01*
X9771907Y7496994D01*
Y7077200D01*
X9762630Y7067924D01*
X9757410Y7055321D01*
Y7041679D01*
X9762630Y7029076D01*
X9772276Y7019430D01*
X9784879Y7014210D01*
X9798521D01*
X9811124Y7019430D01*
X9820770Y7029076D01*
X9825990Y7041679D01*
Y7055321D01*
X9820770Y7067924D01*
X9815933Y7072761D01*
Y7184721D01*
X9824146Y7188123D01*
X9871710Y7140559D01*
Y7130579D01*
X9876930Y7117976D01*
X9886576Y7108330D01*
X9899179Y7103110D01*
X9912821D01*
X9925424Y7108330D01*
X9935070Y7117976D01*
X9940290Y7130579D01*
Y7144221D01*
X9935070Y7156824D01*
X9925424Y7166470D01*
X9912821Y7171690D01*
X9902841D01*
X9851813Y7222718D01*
Y7569635D01*
X9850137Y7578059D01*
X9845365Y7585200D01*
X9788270Y7642295D01*
X9781129Y7647067D01*
X9775018Y7648283D01*
X9771005Y7653889D01*
X9770110Y7656600D01*
X9770110Y7659750D01*
Y7696250D01*
X9770110Y7700860D01*
X9770110Y7709750D01*
Y7746250D01*
X9770110Y7750860D01*
X9770110Y7759750D01*
Y7796250D01*
X9770110Y7800860D01*
X9770110Y7809750D01*
Y7846250D01*
X9770110Y7850860D01*
X9770110Y7859750D01*
Y7896250D01*
X9770110Y7900860D01*
X9770110Y7909750D01*
Y7946250D01*
X9770110Y7950860D01*
X9770110Y7959750D01*
Y7996250D01*
X9770110Y8000860D01*
X9770110Y8009750D01*
Y8046250D01*
X9770110Y8050860D01*
X9770110Y8059750D01*
Y8096250D01*
X9770110Y8100860D01*
X9770110Y8109750D01*
Y8146250D01*
X9770110Y8150860D01*
X9776877Y8155987D01*
X9834182D01*
X9960187Y8029982D01*
Y6032500D01*
X9961863Y6024076D01*
X9966635Y6016935D01*
X10647713Y5335856D01*
X10639349Y5321370D01*
X10632610Y5296219D01*
Y5270181D01*
X10639349Y5245030D01*
X10652368Y5222480D01*
X10670780Y5204068D01*
X10693330Y5191049D01*
X10718481Y5184310D01*
X10744519D01*
X10769670Y5191049D01*
X10792220Y5204068D01*
X10810632Y5222480D01*
X10823651Y5245030D01*
X10830390Y5270181D01*
Y5296219D01*
X10823651Y5321370D01*
X10810632Y5343920D01*
X10792220Y5362332D01*
X10769670Y5375351D01*
X10744519Y5382090D01*
X10718481D01*
X10693330Y5375351D01*
X10678844Y5366987D01*
X10004213Y6041618D01*
Y6221254D01*
X10012459Y6226692D01*
X10013103Y6226617D01*
X10017435Y6220135D01*
X10647713Y5589856D01*
X10639349Y5575370D01*
X10632610Y5550219D01*
Y5524181D01*
X10639349Y5499030D01*
X10652368Y5476480D01*
X10670780Y5458068D01*
X10693330Y5445049D01*
X10718481Y5438310D01*
X10744519D01*
X10769670Y5445049D01*
X10792220Y5458068D01*
X10810632Y5476480D01*
X10823651Y5499030D01*
X10830390Y5524181D01*
Y5550219D01*
X10823651Y5575370D01*
X10810632Y5597920D01*
X10792220Y5616332D01*
X10769670Y5629351D01*
X10744519Y5636090D01*
X10718481D01*
X10693330Y5629351D01*
X10678844Y5620987D01*
X10055013Y6244818D01*
Y6424454D01*
X10063259Y6429892D01*
X10063903Y6429817D01*
X10068235Y6423335D01*
X10647713Y5843856D01*
X10639349Y5829370D01*
X10632610Y5804219D01*
Y5778181D01*
X10639349Y5753030D01*
X10652368Y5730480D01*
X10670780Y5712068D01*
X10693330Y5699049D01*
X10718481Y5692310D01*
X10744519D01*
X10769670Y5699049D01*
X10792220Y5712068D01*
X10810632Y5730480D01*
X10823651Y5753030D01*
X10830390Y5778181D01*
Y5804219D01*
X10823651Y5829370D01*
X10810632Y5851920D01*
X10792220Y5870332D01*
X10769670Y5883351D01*
X10744519Y5890090D01*
X10718481D01*
X10693330Y5883351D01*
X10678844Y5874987D01*
X10105813Y6448018D01*
Y8050875D01*
X10114026Y8054278D01*
X10125287Y8043017D01*
Y6629400D01*
X10126963Y6620976D01*
X10131735Y6613835D01*
X10647713Y6097856D01*
X10639349Y6083370D01*
X10632610Y6058219D01*
Y6032181D01*
X10639349Y6007030D01*
X10652368Y5984480D01*
X10670780Y5966068D01*
X10693330Y5953049D01*
X10718481Y5946310D01*
X10744519D01*
X10769670Y5953049D01*
X10792220Y5966068D01*
X10810632Y5984480D01*
X10823651Y6007030D01*
X10830390Y6032181D01*
Y6058219D01*
X10823651Y6083370D01*
X10810632Y6105920D01*
X10792220Y6124332D01*
X10769670Y6137351D01*
X10744519Y6144090D01*
X10718481D01*
X10693330Y6137351D01*
X10678844Y6128987D01*
X10169313Y6638518D01*
Y8052135D01*
X10167637Y8060558D01*
X10162865Y8067700D01*
X9820835Y8409730D01*
X9823957Y8419181D01*
X9824855Y8419314D01*
X10188787Y8055382D01*
Y6819900D01*
X10190463Y6811476D01*
X10195235Y6804335D01*
X10647713Y6351856D01*
X10639349Y6337370D01*
X10632610Y6312219D01*
Y6286181D01*
X10639349Y6261030D01*
X10652368Y6238480D01*
X10670780Y6220068D01*
X10693330Y6207049D01*
X10718481Y6200310D01*
X10744519D01*
X10769670Y6207049D01*
X10792220Y6220068D01*
X10810632Y6238480D01*
X10823651Y6261030D01*
X10830390Y6286181D01*
Y6312219D01*
X10823651Y6337370D01*
X10810632Y6359920D01*
X10792220Y6378332D01*
X10769670Y6391351D01*
X10744519Y6398090D01*
X10718481D01*
X10693330Y6391351D01*
X10678844Y6382987D01*
X10232813Y6829018D01*
Y8064500D01*
X10231137Y8072924D01*
X10226365Y8080066D01*
X9849011Y8457420D01*
X9854678Y8464325D01*
X9859711Y8460963D01*
X9868134Y8459287D01*
X9899182D01*
X9922510Y8435959D01*
Y8425979D01*
X9927730Y8413376D01*
X9937376Y8403730D01*
X9949979Y8398510D01*
X9963621D01*
X9976224Y8403730D01*
X9985870Y8413376D01*
X9991090Y8425979D01*
Y8439621D01*
X9985870Y8452224D01*
X9976224Y8461870D01*
X9963621Y8467090D01*
X9953641D01*
X9923865Y8496865D01*
X9916724Y8501637D01*
X9908300Y8503313D01*
X9877253D01*
X9788270Y8592295D01*
X9781128Y8597067D01*
X9775018Y8598283D01*
X9771005Y8603890D01*
X9770110Y8606601D01*
X9770110Y8609750D01*
Y8636578D01*
X9778323Y8639980D01*
X9856509Y8561794D01*
X9863651Y8557023D01*
X9872075Y8555347D01*
X9880111D01*
X9884876Y8552163D01*
X9893300Y8550487D01*
X9901724Y8552163D01*
X9908865Y8556935D01*
X9913637Y8564076D01*
X9915313Y8572500D01*
X9913637Y8580924D01*
X9908865Y8588066D01*
X9904006Y8592925D01*
X9896864Y8597697D01*
X9888440Y8599373D01*
X9881193D01*
X9832792Y8647774D01*
X9836194Y8655987D01*
X9905682D01*
X9922737Y8638932D01*
X9929879Y8634160D01*
X9938303Y8632484D01*
X9961352D01*
X9969776Y8634160D01*
X9976918Y8638932D01*
X9981314Y8643328D01*
X9985065Y8645835D01*
X9989837Y8652976D01*
X9991513Y8661400D01*
X9989837Y8669824D01*
X9985065Y8676965D01*
X9977924Y8681737D01*
X9969500Y8683413D01*
X9968255D01*
X9959831Y8681737D01*
X9952690Y8676966D01*
X9944538Y8679393D01*
X9930365Y8693565D01*
X9925080Y8697097D01*
X9926865Y8705987D01*
X10010987D01*
Y8686800D01*
X10012663Y8678376D01*
X10017435Y8671235D01*
X10087610Y8601059D01*
Y8591079D01*
X10092830Y8578476D01*
X10102476Y8568830D01*
X10115079Y8563610D01*
X10128721D01*
X10141324Y8568830D01*
X10150970Y8578476D01*
X10156190Y8591079D01*
Y8604721D01*
X10150970Y8617324D01*
X10141324Y8626970D01*
X10128721Y8632190D01*
X10118741D01*
X10055013Y8695918D01*
Y8705987D01*
X10160482D01*
X10176510Y8689959D01*
Y8679979D01*
X10181730Y8667376D01*
X10191376Y8657730D01*
X10203979Y8652510D01*
X10217621D01*
X10230224Y8657730D01*
X10239870Y8667376D01*
X10245090Y8679979D01*
Y8693621D01*
X10239870Y8706224D01*
X10230224Y8715870D01*
X10217621Y8721090D01*
X10207641D01*
X10185324Y8743407D01*
X10185341Y8744088D01*
X10188100Y8752297D01*
X10307072D01*
X10448910Y8610459D01*
Y8552526D01*
X10448487Y8550400D01*
Y8511118D01*
X10338655Y8401286D01*
X10333884Y8394145D01*
X10332208Y8385721D01*
Y8371390D01*
X10259710D01*
Y8109610D01*
X10390490D01*
Y8371390D01*
X10383593D01*
X10379911Y8380280D01*
X10486065Y8486434D01*
X10490837Y8493576D01*
X10492513Y8502000D01*
Y8508810D01*
X10561690D01*
Y8661590D01*
X10460041D01*
X10331755Y8789875D01*
X10324614Y8794647D01*
X10316190Y8796323D01*
X10228797D01*
X10225395Y8804536D01*
X10305146Y8884287D01*
X10636210D01*
Y8832410D01*
X10808990D01*
Y8980190D01*
X10636210D01*
Y8928313D01*
X10296028D01*
X10287604Y8926637D01*
X10280462Y8921866D01*
X10189210Y8830613D01*
X10022136D01*
X10013990Y8832410D01*
Y8884287D01*
X10163600D01*
X10172024Y8885963D01*
X10179165Y8890735D01*
X10283841Y8995410D01*
X10293821D01*
X10306424Y9000630D01*
X10316070Y9010276D01*
X10321290Y9022879D01*
Y9036521D01*
X10316070Y9049124D01*
X10306424Y9058770D01*
X10293821Y9063990D01*
X10280179D01*
X10267576Y9058770D01*
X10257930Y9049124D01*
X10252710Y9036521D01*
Y9026541D01*
X10154482Y8928313D01*
X10013990D01*
Y8949059D01*
X10149241Y9084310D01*
X10154121D01*
X10166724Y9089530D01*
X10176370Y9099176D01*
X10181590Y9111779D01*
Y9125421D01*
X10176370Y9138024D01*
X10166724Y9147670D01*
X10154121Y9152890D01*
X10140479D01*
X10127876Y9147670D01*
X10118230Y9138024D01*
X10113010Y9125421D01*
Y9111779D01*
X10113431Y9110762D01*
X9982859Y8980190D01*
X9841210D01*
Y8846691D01*
X9832997Y8843289D01*
X9440521Y9235765D01*
X9433379Y9240537D01*
X9424955Y9242213D01*
X8420100D01*
X8411676Y9240537D01*
X8404534Y9235765D01*
X8226735Y9057965D01*
X8221963Y9050824D01*
X8220287Y9042400D01*
Y8762815D01*
X8220897Y8759750D01*
X8214444Y8750860D01*
X8060690D01*
Y8750013D01*
X7346618D01*
X6929087Y9167544D01*
X6937451Y9182030D01*
X6944190Y9207181D01*
Y9233219D01*
X6937451Y9258370D01*
X6924432Y9280920D01*
X6906020Y9299332D01*
X6883470Y9312351D01*
X6858319Y9319090D01*
D02*
G37*
G36*
X8973021Y8606790D02*
X8959379D01*
X8946776Y8601570D01*
X8937130Y8591924D01*
X8931910Y8579321D01*
Y8565679D01*
X8937130Y8553076D01*
X8946776Y8543430D01*
X8959379Y8538210D01*
X8973021D01*
X8985624Y8543430D01*
X8995270Y8553076D01*
X9000490Y8565679D01*
Y8579321D01*
X8995270Y8591924D01*
X8985624Y8601570D01*
X8973021Y8606790D01*
D02*
G37*
G36*
X10782300Y8696113D02*
X10781055D01*
X10772631Y8694437D01*
X10765490Y8689665D01*
X10737837Y8662013D01*
X10690100D01*
X10681676Y8660337D01*
X10674535Y8655566D01*
X10639735Y8620765D01*
X10634963Y8613624D01*
X10633287Y8605200D01*
Y8565200D01*
X10634963Y8556776D01*
X10639735Y8549635D01*
X10674535Y8514834D01*
X10681676Y8510063D01*
X10690100Y8508387D01*
X10763237D01*
X10765490Y8506134D01*
X10772631Y8501363D01*
X10781055Y8499687D01*
X10782300D01*
X10790724Y8501363D01*
X10797865Y8506135D01*
X10802637Y8513276D01*
X10804313Y8521700D01*
X10802637Y8530124D01*
X10797865Y8537265D01*
X10794114Y8539772D01*
X10787921Y8545965D01*
X10780779Y8550737D01*
X10772355Y8552413D01*
X10699218D01*
X10677313Y8574318D01*
Y8596082D01*
X10699218Y8617987D01*
X10746955D01*
X10755379Y8619663D01*
X10762521Y8624435D01*
X10794114Y8656028D01*
X10797865Y8658535D01*
X10802637Y8665676D01*
X10804313Y8674100D01*
X10802637Y8682524D01*
X10797865Y8689665D01*
X10790724Y8694437D01*
X10782300Y8696113D01*
D02*
G37*
G36*
X9392121Y8543290D02*
X9378479D01*
X9365876Y8538070D01*
X9356230Y8528424D01*
X9351010Y8515821D01*
Y8502179D01*
X9356230Y8489576D01*
X9365876Y8479930D01*
X9378479Y8474710D01*
X9392121D01*
X9404724Y8479930D01*
X9414370Y8489576D01*
X9419590Y8502179D01*
Y8515821D01*
X9414370Y8528424D01*
X9404724Y8538070D01*
X9392121Y8543290D01*
D02*
G37*
G36*
X8807921Y8505190D02*
X8794279D01*
X8781676Y8499970D01*
X8772030Y8490324D01*
X8766810Y8477721D01*
Y8464079D01*
X8772030Y8451476D01*
X8781676Y8441830D01*
X8794279Y8436610D01*
X8807921D01*
X8820524Y8441830D01*
X8830170Y8451476D01*
X8835390Y8464079D01*
Y8477721D01*
X8830170Y8490324D01*
X8820524Y8499970D01*
X8807921Y8505190D01*
D02*
G37*
G36*
X10700221Y8454390D02*
X10686579D01*
X10673976Y8449170D01*
X10664330Y8439524D01*
X10659110Y8426921D01*
Y8417141D01*
X10613359Y8371390D01*
X10557313D01*
Y8386455D01*
X10555637Y8394879D01*
X10550865Y8402021D01*
X10549890Y8402996D01*
Y8414221D01*
X10544670Y8426824D01*
X10535024Y8436470D01*
X10522421Y8441690D01*
X10508779D01*
X10496176Y8436470D01*
X10486530Y8426824D01*
X10481310Y8414221D01*
Y8400579D01*
X10486530Y8387976D01*
X10496176Y8378330D01*
X10508779Y8373110D01*
X10513287D01*
Y8284300D01*
X10513710Y8282174D01*
Y8109610D01*
X10644490D01*
Y8340259D01*
X10690041Y8385810D01*
X10700221D01*
X10712824Y8391030D01*
X10722470Y8400676D01*
X10727690Y8413279D01*
Y8426921D01*
X10722470Y8439524D01*
X10712824Y8449170D01*
X10700221Y8454390D01*
D02*
G37*
G36*
X9531821Y8390890D02*
X9518179D01*
X9505576Y8385670D01*
X9495930Y8376024D01*
X9490710Y8363421D01*
Y8349779D01*
X9495930Y8337176D01*
X9505576Y8327530D01*
X9518179Y8322310D01*
X9531821D01*
X9544424Y8327530D01*
X9554070Y8337176D01*
X9559290Y8349779D01*
Y8363421D01*
X9554070Y8376024D01*
X9544424Y8385670D01*
X9531821Y8390890D01*
D02*
G37*
G36*
Y8289290D02*
X9518179D01*
X9505576Y8284070D01*
X9495930Y8274424D01*
X9490710Y8261821D01*
Y8248179D01*
X9495930Y8235576D01*
X9505576Y8225930D01*
X9518179Y8220710D01*
X9531821D01*
X9544424Y8225930D01*
X9554070Y8235576D01*
X9559290Y8248179D01*
Y8261821D01*
X9554070Y8274424D01*
X9544424Y8284070D01*
X9531821Y8289290D01*
D02*
G37*
G36*
X6998900Y8264313D02*
X6781800D01*
X6773376Y8262637D01*
X6766235Y8257865D01*
X6761463Y8250724D01*
X6759787Y8242300D01*
X6761463Y8233876D01*
X6766235Y8226735D01*
X6773376Y8221963D01*
X6781800Y8220287D01*
X6989782D01*
X7051843Y8158226D01*
X7048441Y8150013D01*
X6998242D01*
X6966589Y8181665D01*
X6959448Y8186437D01*
X6951024Y8188113D01*
X6946900D01*
X6938476Y8186437D01*
X6931335Y8181665D01*
X6926563Y8174524D01*
X6924887Y8166100D01*
X6926563Y8157676D01*
X6931335Y8150535D01*
X6938476Y8145763D01*
X6940666Y8145327D01*
X6973559Y8112435D01*
X6980700Y8107663D01*
X6989124Y8105987D01*
X7059788D01*
X7064540Y8097097D01*
X7063281Y8095213D01*
X7058400D01*
X7049976Y8093537D01*
X7042835Y8088765D01*
X7015182Y8061113D01*
X6845300D01*
X6836876Y8059437D01*
X6829735Y8054665D01*
X6824963Y8047524D01*
X6823287Y8039100D01*
X6824963Y8030676D01*
X6829735Y8023535D01*
X6836876Y8018763D01*
X6845300Y8017087D01*
X7024300D01*
X7032724Y8018763D01*
X7039865Y8023535D01*
X7067518Y8051187D01*
X7078400D01*
X7086824Y8052863D01*
X7093965Y8057635D01*
X7128766Y8092435D01*
X7133537Y8099576D01*
X7135213Y8108000D01*
Y8128000D01*
X7133537Y8136424D01*
X7128765Y8143565D01*
X7014465Y8257865D01*
X7007324Y8262637D01*
X6998900Y8264313D01*
D02*
G37*
G36*
X9506421Y8187690D02*
X9492779D01*
X9480176Y8182470D01*
X9470530Y8172824D01*
X9465310Y8160221D01*
Y8146579D01*
X9470530Y8133976D01*
X9480176Y8124330D01*
X9492779Y8119110D01*
X9506421D01*
X9519024Y8124330D01*
X9528670Y8133976D01*
X9533890Y8146579D01*
Y8160221D01*
X9528670Y8172824D01*
X9519024Y8182470D01*
X9506421Y8187690D01*
D02*
G37*
G36*
X8719021Y8162290D02*
X8705379D01*
X8692776Y8157070D01*
X8683130Y8147424D01*
X8677910Y8134821D01*
Y8121179D01*
X8683130Y8108576D01*
X8692776Y8098930D01*
X8705379Y8093710D01*
X8719021D01*
X8731624Y8098930D01*
X8741270Y8108576D01*
X8746490Y8121179D01*
Y8134821D01*
X8741270Y8147424D01*
X8731624Y8157070D01*
X8719021Y8162290D01*
D02*
G37*
G36*
X8592021Y8136890D02*
X8578379D01*
X8565776Y8131670D01*
X8556130Y8122024D01*
X8550910Y8109421D01*
Y8095779D01*
X8556130Y8083176D01*
X8565776Y8073530D01*
X8578379Y8068310D01*
X8592021D01*
X8604624Y8073530D01*
X8614270Y8083176D01*
X8619490Y8095779D01*
Y8109421D01*
X8614270Y8122024D01*
X8604624Y8131670D01*
X8592021Y8136890D01*
D02*
G37*
G36*
X8477721Y8124190D02*
X8464079D01*
X8451476Y8118970D01*
X8441830Y8109324D01*
X8436610Y8096721D01*
Y8083079D01*
X8441830Y8070476D01*
X8451476Y8060830D01*
X8464079Y8055610D01*
X8477721D01*
X8490324Y8060830D01*
X8499970Y8070476D01*
X8505190Y8083079D01*
Y8096721D01*
X8499970Y8109324D01*
X8490324Y8118970D01*
X8477721Y8124190D01*
D02*
G37*
G36*
X9479821Y8073390D02*
X9466179D01*
X9453576Y8068170D01*
X9443930Y8058524D01*
X9438710Y8045921D01*
Y8032279D01*
X9443930Y8019676D01*
X9453576Y8010030D01*
X9466179Y8004810D01*
X9479821D01*
X9492424Y8010030D01*
X9502070Y8019676D01*
X9507290Y8032279D01*
Y8045921D01*
X9502070Y8058524D01*
X9492424Y8068170D01*
X9479821Y8073390D01*
D02*
G37*
G36*
X8782521Y7844790D02*
X8768879D01*
X8756276Y7839570D01*
X8746630Y7829924D01*
X8741410Y7817321D01*
Y7803679D01*
X8746630Y7791076D01*
X8756276Y7781430D01*
X8768879Y7776210D01*
X8782521D01*
X8795124Y7781430D01*
X8804770Y7791076D01*
X8809990Y7803679D01*
Y7817321D01*
X8804770Y7829924D01*
X8795124Y7839570D01*
X8782521Y7844790D01*
D02*
G37*
G36*
X8947621Y7832090D02*
X8933979D01*
X8921376Y7826870D01*
X8911730Y7817224D01*
X8906510Y7804621D01*
Y7790979D01*
X8911730Y7778376D01*
X8921376Y7768730D01*
X8933979Y7763510D01*
X8947621D01*
X8960224Y7768730D01*
X8969870Y7778376D01*
X8975090Y7790979D01*
Y7804621D01*
X8969870Y7817224D01*
X8960224Y7826870D01*
X8947621Y7832090D01*
D02*
G37*
G36*
X9557221Y7692390D02*
X9543579D01*
X9530976Y7687170D01*
X9521330Y7677524D01*
X9516110Y7664921D01*
Y7651279D01*
X9521330Y7638676D01*
X9530976Y7629030D01*
X9543579Y7623810D01*
X9557221D01*
X9569824Y7629030D01*
X9579470Y7638676D01*
X9584690Y7651279D01*
Y7664921D01*
X9579470Y7677524D01*
X9569824Y7687170D01*
X9557221Y7692390D01*
D02*
G37*
G36*
X8426921Y7680536D02*
X8413279D01*
X8400676Y7675315D01*
X8391030Y7665669D01*
X8385810Y7653066D01*
Y7639425D01*
X8391030Y7626822D01*
X8400676Y7617176D01*
X8413279Y7611956D01*
X8426921D01*
X8439524Y7617176D01*
X8449170Y7626822D01*
X8451621Y7632741D01*
X8460511Y7630972D01*
Y7624900D01*
X8465732Y7612297D01*
X8475378Y7602651D01*
X8487981Y7597430D01*
X8501622D01*
X8514225Y7602651D01*
X8523871Y7612297D01*
X8529091Y7624900D01*
Y7638541D01*
X8523871Y7651144D01*
X8514225Y7660790D01*
X8501622Y7666010D01*
X8487981D01*
X8475378Y7660790D01*
X8465732Y7651144D01*
X8463280Y7645225D01*
X8454390Y7646994D01*
Y7653066D01*
X8449170Y7665669D01*
X8439524Y7675315D01*
X8426921Y7680536D01*
D02*
G37*
G36*
X8617421Y7627690D02*
X8603779D01*
X8591176Y7622470D01*
X8581530Y7612824D01*
X8576310Y7600221D01*
Y7586579D01*
X8581530Y7573976D01*
X8591176Y7564330D01*
X8603779Y7559110D01*
X8617421D01*
X8630024Y7564330D01*
X8639670Y7573976D01*
X8644890Y7586579D01*
Y7600221D01*
X8639670Y7612824D01*
X8630024Y7622470D01*
X8617421Y7627690D01*
D02*
G37*
G36*
X8767324Y7626211D02*
X8753683D01*
X8741080Y7620991D01*
X8731434Y7611344D01*
X8726214Y7598741D01*
Y7585100D01*
X8731434Y7572497D01*
X8741080Y7562851D01*
X8753683Y7557631D01*
X8767324D01*
X8779927Y7562851D01*
X8789573Y7572497D01*
X8794794Y7585100D01*
Y7598741D01*
X8789573Y7611344D01*
X8779927Y7620991D01*
X8767324Y7626211D01*
D02*
G37*
G36*
X9297695Y7581604D02*
X9284053D01*
X9271450Y7576384D01*
X9261804Y7566738D01*
X9256584Y7554135D01*
Y7540494D01*
X9261804Y7527891D01*
X9271450Y7518245D01*
X9284053Y7513024D01*
X9297695D01*
X9310298Y7518245D01*
X9319944Y7527891D01*
X9325164Y7540494D01*
Y7554135D01*
X9319944Y7566738D01*
X9310298Y7576384D01*
X9297695Y7581604D01*
D02*
G37*
G36*
X8439967Y7569152D02*
X8431543Y7567477D01*
X8424402Y7562705D01*
X8378398Y7516700D01*
X8373626Y7509559D01*
X8371950Y7501135D01*
Y7478665D01*
X8364765Y7471480D01*
X8330110Y7506136D01*
X8322968Y7510908D01*
X8314544Y7512583D01*
X8302652D01*
X8301524Y7513337D01*
X8293100Y7515013D01*
X8284676Y7513337D01*
X8277535Y7508565D01*
X8272763Y7501424D01*
X8271087Y7493000D01*
X8272763Y7484576D01*
X8277535Y7477435D01*
X8279964Y7475005D01*
X8287106Y7470233D01*
X8295530Y7468557D01*
X8305426D01*
X8327380Y7446603D01*
X8323978Y7438390D01*
X8292540D01*
Y7273290D01*
X8338260D01*
Y7341596D01*
X8347150Y7344292D01*
X8349835Y7340275D01*
X8356976Y7335503D01*
X8365400Y7333827D01*
X8373824Y7335503D01*
X8380965Y7340275D01*
X8383650Y7344292D01*
X8392540Y7341595D01*
Y7273290D01*
X8433650D01*
X8438259Y7273290D01*
Y7273289D01*
X8442540D01*
Y7273290D01*
X8483650D01*
X8488260Y7273290D01*
X8493387Y7266524D01*
Y6051500D01*
X8495063Y6043076D01*
X8499835Y6035935D01*
X8912534Y5623235D01*
X8919676Y5618463D01*
X8928100Y5616787D01*
X9846082D01*
X10580141Y4882727D01*
Y4879921D01*
X10572183Y4871962D01*
X10567411Y4864821D01*
X10565735Y4856397D01*
Y4794638D01*
Y4727043D01*
X10567411Y4718619D01*
X10572183Y4711477D01*
X10619980Y4663680D01*
X10619980Y4663680D01*
X10619741Y4663441D01*
X10643692Y4643785D01*
X10671017Y4629180D01*
X10693079Y4622487D01*
X10693306Y4614206D01*
X10693069Y4613200D01*
X10670780Y4600332D01*
X10652368Y4581920D01*
X10639349Y4559370D01*
X10632610Y4534219D01*
Y4508181D01*
X10639349Y4483030D01*
X10652368Y4460480D01*
X10670780Y4442068D01*
X10693330Y4429049D01*
X10718481Y4422310D01*
X10744519D01*
X10769670Y4429049D01*
X10792220Y4442068D01*
X10810632Y4460480D01*
X10823651Y4483030D01*
X10830390Y4508181D01*
Y4534219D01*
X10823651Y4559370D01*
X10810632Y4581920D01*
X10792220Y4600332D01*
X10769670Y4613351D01*
X10753513Y4617680D01*
Y4626636D01*
X10751838Y4635059D01*
X10747066Y4642201D01*
X10739628Y4649640D01*
X10739664Y4649676D01*
X10739980Y4649992D01*
X10739979Y4649993D01*
X10739975Y4649995D01*
X10739661Y4649680D01*
X10733523Y4655744D01*
X10726382Y4660515D01*
X10720123Y4661760D01*
X10720234Y4662870D01*
X10702043Y4665264D01*
X10674593Y4676635D01*
X10657807Y4689515D01*
X10651111Y4694811D01*
X10644825Y4701097D01*
X10609761Y4736161D01*
Y4847279D01*
X10617720Y4855238D01*
X10622492Y4862379D01*
X10624167Y4870803D01*
Y4889629D01*
X10629559Y4892870D01*
X10632870Y4893499D01*
X10669745Y4856624D01*
X10670297Y4853849D01*
X10652368Y4835920D01*
X10639349Y4813370D01*
X10632610Y4788219D01*
Y4762181D01*
X10639349Y4737030D01*
X10652368Y4714480D01*
X10670780Y4696068D01*
X10693330Y4683049D01*
X10718481Y4676310D01*
X10744519D01*
X10769670Y4683049D01*
X10792220Y4696068D01*
X10810632Y4714480D01*
X10823651Y4737030D01*
X10830390Y4762181D01*
Y4788219D01*
X10823651Y4813370D01*
X10810632Y4835920D01*
X10792220Y4854332D01*
X10769670Y4867351D01*
X10744519Y4874090D01*
X10718481D01*
X10712057Y4874205D01*
X10707285Y4881346D01*
X10578526Y5010105D01*
X10579155Y5013415D01*
X10582395Y5018808D01*
X10632610D01*
Y5016181D01*
X10639349Y4991030D01*
X10652368Y4968480D01*
X10670780Y4950068D01*
X10693330Y4937049D01*
X10718481Y4930310D01*
X10744519D01*
X10769670Y4937049D01*
X10792220Y4950068D01*
X10810632Y4968480D01*
X10823651Y4991030D01*
X10830390Y5016181D01*
Y5042219D01*
X10823651Y5067370D01*
X10810632Y5089920D01*
X10792220Y5108332D01*
X10769670Y5121351D01*
X10744519Y5128090D01*
X10718481D01*
X10693330Y5121351D01*
X10670780Y5108332D01*
X10652368Y5089920D01*
X10639349Y5067370D01*
X10638134Y5062834D01*
X10589297D01*
X9921565Y5730565D01*
X9914424Y5735337D01*
X9906000Y5737013D01*
X9000718D01*
X8637413Y6100318D01*
Y7266523D01*
X8642540Y7273290D01*
X8647150Y7273290D01*
X8683650D01*
X8688260Y7273290D01*
X8697150Y7273290D01*
X8733650D01*
X8738260Y7273290D01*
X8747150Y7273290D01*
X8783650D01*
X8788260Y7273290D01*
X8797150Y7273290D01*
X8833650D01*
X8838260Y7273290D01*
X8847150Y7273290D01*
X8883650D01*
X8888260Y7273290D01*
X8897150Y7273290D01*
X8933650D01*
X8938260Y7273290D01*
X8947150Y7273290D01*
X8983650D01*
X8988260Y7273290D01*
X8993387Y7266524D01*
Y6453200D01*
X8995063Y6444776D01*
X8999835Y6437635D01*
X9220848Y6216621D01*
X9214733Y6206028D01*
X9208760Y6183738D01*
Y6160662D01*
X9214733Y6138372D01*
X9226271Y6118388D01*
X9242588Y6102071D01*
X9262572Y6090533D01*
X9284862Y6084560D01*
X9307938D01*
X9330228Y6090533D01*
X9350212Y6102071D01*
X9366529Y6118388D01*
X9378067Y6138372D01*
X9384040Y6160662D01*
Y6183738D01*
X9378067Y6206028D01*
X9366529Y6226012D01*
X9350212Y6242329D01*
X9330228Y6253867D01*
X9307938Y6259840D01*
X9284862D01*
X9262572Y6253867D01*
X9251979Y6247752D01*
X9037413Y6462318D01*
Y6645134D01*
X9046303Y6646920D01*
X9049835Y6641635D01*
X9220848Y6470621D01*
X9214733Y6460028D01*
X9208760Y6437738D01*
Y6414662D01*
X9214733Y6392372D01*
X9226271Y6372388D01*
X9242588Y6356071D01*
X9262572Y6344533D01*
X9284862Y6338560D01*
X9307938D01*
X9330228Y6344533D01*
X9350212Y6356071D01*
X9366529Y6372388D01*
X9378067Y6392372D01*
X9384040Y6414662D01*
Y6437738D01*
X9378067Y6460028D01*
X9366529Y6480012D01*
X9350212Y6496329D01*
X9330228Y6507867D01*
X9307938Y6513840D01*
X9284862D01*
X9262572Y6507867D01*
X9251979Y6501752D01*
X9087413Y6666318D01*
Y7266524D01*
X9092540Y7273290D01*
X9097150Y7273290D01*
X9133650D01*
X9138260Y7273290D01*
X9147150Y7273290D01*
X9183650D01*
X9188260Y7273290D01*
X9197150Y7273290D01*
X9233650D01*
X9238260Y7273290D01*
X9247150Y7273290D01*
X9283650D01*
X9288260Y7273290D01*
X9297150Y7273290D01*
X9333650D01*
X9338260Y7273290D01*
X9343387Y7266524D01*
Y7177418D01*
X9299559Y7133590D01*
X9289579D01*
X9276976Y7128370D01*
X9267330Y7118724D01*
X9262110Y7106121D01*
Y7092479D01*
X9267330Y7079876D01*
X9276976Y7070230D01*
X9289579Y7065010D01*
X9303221D01*
X9315824Y7070230D01*
X9325470Y7079876D01*
X9330690Y7092479D01*
Y7102459D01*
X9380966Y7152735D01*
X9385737Y7159876D01*
X9387413Y7168300D01*
Y7266523D01*
X9392540Y7273290D01*
X9423978D01*
X9427380Y7265077D01*
X9407835Y7245531D01*
X9403063Y7238389D01*
X9401387Y7229965D01*
Y7112000D01*
X9403063Y7103576D01*
X9407835Y7096435D01*
X9414976Y7091663D01*
X9423400Y7089987D01*
X9431824Y7091663D01*
X9438965Y7096435D01*
X9443737Y7103576D01*
X9445413Y7112000D01*
Y7220848D01*
X9464765Y7240200D01*
X9485447Y7219517D01*
Y7205740D01*
X9487123Y7197316D01*
X9491894Y7190175D01*
X9534834Y7147235D01*
X9541976Y7142463D01*
X9550400Y7140787D01*
X9558824Y7142463D01*
X9565965Y7147235D01*
X9570737Y7154376D01*
X9572413Y7162800D01*
X9570737Y7171224D01*
X9565965Y7178366D01*
X9529473Y7214858D01*
Y7228636D01*
X9527797Y7237059D01*
X9523025Y7244201D01*
X9502150Y7265077D01*
X9505552Y7273290D01*
X9538260D01*
Y7438390D01*
X9536143D01*
Y7493750D01*
X9541370Y7498976D01*
X9546590Y7511579D01*
Y7525221D01*
X9541370Y7537824D01*
X9531724Y7547470D01*
X9519121Y7552690D01*
X9505479D01*
X9492876Y7547470D01*
X9483230Y7537824D01*
X9478010Y7525221D01*
Y7511579D01*
X9483230Y7498976D01*
X9492117Y7490089D01*
Y7370717D01*
X9483227Y7368021D01*
X9480965Y7371405D01*
X9473824Y7376177D01*
X9465400Y7377853D01*
X9456976Y7376177D01*
X9449835Y7371405D01*
X9447150Y7367388D01*
X9438260Y7370085D01*
Y7438390D01*
X9436143D01*
Y7440983D01*
X9434467Y7449407D01*
X9429696Y7456549D01*
X9408480Y7477764D01*
X9401338Y7482536D01*
X9392914Y7484212D01*
X9382815D01*
X9382810Y7484213D01*
X9241790D01*
Y7487121D01*
X9236570Y7499724D01*
X9226924Y7509370D01*
X9214321Y7514590D01*
X9200679D01*
X9188076Y7509370D01*
X9178430Y7499724D01*
X9173210Y7487121D01*
Y7473479D01*
X9178430Y7460876D01*
X9188076Y7451230D01*
X9197613Y7447280D01*
X9195845Y7438390D01*
X9192540D01*
X9183650Y7438390D01*
X9147150D01*
X9142540Y7438390D01*
X9133650Y7438390D01*
X9097150D01*
X9092540Y7438390D01*
X9083650Y7438390D01*
X9047150D01*
X9042540Y7438390D01*
X9033650Y7438390D01*
X8997150D01*
X8992540Y7438390D01*
X8983650Y7438390D01*
X8947150D01*
X8942540Y7438390D01*
X8933650Y7438390D01*
X8897150D01*
X8892540Y7438390D01*
X8883650Y7438390D01*
X8847150D01*
X8842540Y7438390D01*
X8833650Y7438390D01*
X8797150D01*
X8792540Y7438390D01*
X8783650Y7438390D01*
X8747150D01*
X8742540Y7438390D01*
X8733650Y7438390D01*
X8697150D01*
X8692540Y7438390D01*
X8683650Y7438390D01*
X8647150D01*
X8642540Y7438390D01*
X8633650Y7438390D01*
X8592541D01*
Y7438391D01*
X8588259D01*
Y7438390D01*
X8542540D01*
Y7438391D01*
X8538260D01*
Y7438390D01*
X8497150D01*
X8492540Y7438390D01*
X8483650Y7438390D01*
X8456822D01*
X8453420Y7446603D01*
X8472944Y7466127D01*
X8652479D01*
X8654676Y7463930D01*
X8667279Y7458710D01*
X8680921D01*
X8693524Y7463930D01*
X8703170Y7473576D01*
X8708390Y7486179D01*
Y7499821D01*
X8703170Y7512424D01*
X8693524Y7522070D01*
X8680921Y7527290D01*
X8667279D01*
X8654676Y7522070D01*
X8645030Y7512424D01*
X8644090Y7510153D01*
X8463826D01*
X8455402Y7508477D01*
X8448260Y7503706D01*
X8424189Y7479635D01*
X8415976Y7483037D01*
Y7492017D01*
X8455533Y7531574D01*
X8460305Y7538715D01*
X8461980Y7547140D01*
X8460305Y7555564D01*
X8455533Y7562705D01*
X8448391Y7567477D01*
X8439967Y7569152D01*
D02*
G37*
G36*
X7474421Y7501890D02*
X7460779D01*
X7448176Y7496670D01*
X7438530Y7487024D01*
X7433310Y7474421D01*
Y7464441D01*
X7293383Y7324513D01*
X5712486D01*
X5709165Y7336907D01*
X5697430Y7357233D01*
X5680833Y7373830D01*
X5660507Y7385565D01*
X5637836Y7391640D01*
X5614364D01*
X5591693Y7385565D01*
X5571367Y7373830D01*
X5554770Y7357233D01*
X5543035Y7336907D01*
X5536960Y7314236D01*
Y7290764D01*
X5543035Y7268093D01*
X5554770Y7247767D01*
X5571367Y7231170D01*
X5591693Y7219435D01*
X5614364Y7213360D01*
X5637836D01*
X5660507Y7219435D01*
X5680833Y7231170D01*
X5697430Y7247767D01*
X5709165Y7268093D01*
X5712486Y7280488D01*
X7302501D01*
X7310924Y7282163D01*
X7318066Y7286935D01*
X7464441Y7433310D01*
X7474421D01*
X7487024Y7438530D01*
X7496670Y7448176D01*
X7501890Y7460779D01*
Y7474421D01*
X7496670Y7487024D01*
X7487024Y7496670D01*
X7474421Y7501890D01*
D02*
G37*
G36*
X10579100Y7402513D02*
X10570676Y7400837D01*
X10563535Y7396065D01*
X10558763Y7388924D01*
X10557087Y7380500D01*
Y7315000D01*
Y7162800D01*
X10558763Y7154376D01*
X10563535Y7147235D01*
X10570676Y7142463D01*
X10579100Y7140787D01*
X10587524Y7142463D01*
X10594665Y7147235D01*
X10599437Y7154376D01*
X10601113Y7162800D01*
Y7250241D01*
X10609326Y7253643D01*
X10714855Y7148114D01*
X10721996Y7143343D01*
X10730420Y7141667D01*
X10765177D01*
X10769600Y7140787D01*
X10778024Y7142463D01*
X10785166Y7147234D01*
X10789937Y7154376D01*
X10791613Y7162800D01*
X10789937Y7171224D01*
X10785166Y7178365D01*
X10784286Y7179245D01*
X10777144Y7184017D01*
X10768720Y7185693D01*
X10739538D01*
X10601113Y7324118D01*
Y7380500D01*
X10599437Y7388924D01*
X10594665Y7396065D01*
X10587524Y7400837D01*
X10579100Y7402513D01*
D02*
G37*
G36*
X7601421Y7476490D02*
X7587779D01*
X7575176Y7471270D01*
X7565530Y7461624D01*
X7560310Y7449021D01*
Y7439041D01*
X7153682Y7032413D01*
X5718579D01*
X5715240Y7036765D01*
Y7060236D01*
X5709165Y7082907D01*
X5697430Y7103233D01*
X5680833Y7119830D01*
X5660507Y7131565D01*
X5637836Y7137640D01*
X5614364D01*
X5591693Y7131565D01*
X5571367Y7119830D01*
X5554770Y7103233D01*
X5543035Y7082907D01*
X5536960Y7060236D01*
Y7036764D01*
X5543035Y7014093D01*
X5554770Y6993767D01*
X5571367Y6977170D01*
X5591693Y6965435D01*
X5614364Y6959360D01*
X5637836D01*
X5660507Y6965435D01*
X5680833Y6977170D01*
X5693495Y6989832D01*
X5700758Y6988387D01*
X7162800D01*
X7171224Y6990063D01*
X7178365Y6994835D01*
X7591441Y7407910D01*
X7601421D01*
X7614024Y7413130D01*
X7623670Y7422776D01*
X7628890Y7435379D01*
Y7449021D01*
X7623670Y7461624D01*
X7614024Y7471270D01*
X7601421Y7476490D01*
D02*
G37*
G36*
X10325100Y7402513D02*
X10316676Y7400837D01*
X10309535Y7396066D01*
X10269347Y7355878D01*
X10264575Y7348736D01*
X10262899Y7340312D01*
Y6907748D01*
X10264575Y6899325D01*
X10269347Y6892183D01*
X10276488Y6887411D01*
X10284912Y6885736D01*
X10293336Y6887411D01*
X10300477Y6892183D01*
X10305249Y6899325D01*
X10306925Y6907748D01*
Y7331194D01*
X10314350Y7338619D01*
X10346887Y7306082D01*
Y7031345D01*
X10348563Y7022921D01*
X10353335Y7015779D01*
X10370528Y6998586D01*
X10373035Y6994835D01*
X10380176Y6990063D01*
X10388600Y6988387D01*
X10397024Y6990063D01*
X10404165Y6994835D01*
X10408937Y7001976D01*
X10410613Y7010400D01*
Y7011645D01*
X10408937Y7020069D01*
X10404165Y7027210D01*
X10390913Y7040463D01*
Y7315200D01*
X10389237Y7323624D01*
X10384465Y7330766D01*
X10347113Y7368118D01*
Y7380500D01*
X10345437Y7388924D01*
X10340666Y7396066D01*
X10333524Y7400837D01*
X10325100Y7402513D01*
D02*
G37*
G36*
X7728421Y7476490D02*
X7714779D01*
X7702176Y7471270D01*
X7692530Y7461624D01*
X7687310Y7449021D01*
Y7439041D01*
X7064782Y6816513D01*
X5712486D01*
X5709165Y6828907D01*
X5697430Y6849233D01*
X5680833Y6865830D01*
X5660507Y6877565D01*
X5637836Y6883640D01*
X5614364D01*
X5591693Y6877565D01*
X5571367Y6865830D01*
X5554770Y6849233D01*
X5543035Y6828907D01*
X5536960Y6806236D01*
Y6782764D01*
X5543035Y6760093D01*
X5554770Y6739767D01*
X5571367Y6723170D01*
X5591693Y6711435D01*
X5614364Y6705360D01*
X5637836D01*
X5660507Y6711435D01*
X5680833Y6723170D01*
X5697430Y6739767D01*
X5709165Y6760093D01*
X5712486Y6772487D01*
X7073900D01*
X7082324Y6774163D01*
X7089466Y6778935D01*
X7718441Y7407910D01*
X7728421D01*
X7741024Y7413130D01*
X7750670Y7422776D01*
X7755890Y7435379D01*
Y7449021D01*
X7750670Y7461624D01*
X7741024Y7471270D01*
X7728421Y7476490D01*
D02*
G37*
G36*
X9384040Y6767840D02*
X9208760D01*
Y6592560D01*
X9384040D01*
Y6767840D01*
D02*
G37*
G36*
X7779221Y7197090D02*
X7765579D01*
X7752976Y7191870D01*
X7743330Y7182224D01*
X7738110Y7169621D01*
Y7159641D01*
X7166382Y6587913D01*
X5701656D01*
X5697430Y6595233D01*
X5680833Y6611830D01*
X5660507Y6623565D01*
X5637836Y6629640D01*
X5614364D01*
X5591693Y6623565D01*
X5571367Y6611830D01*
X5554770Y6595233D01*
X5543035Y6574907D01*
X5536960Y6552236D01*
Y6528764D01*
X5543035Y6506093D01*
X5554770Y6485767D01*
X5571367Y6469170D01*
X5591693Y6457435D01*
X5614364Y6451360D01*
X5637836D01*
X5660507Y6457435D01*
X5680833Y6469170D01*
X5697430Y6485767D01*
X5709165Y6506093D01*
X5715240Y6528764D01*
Y6543887D01*
X7175500D01*
X7183924Y6545563D01*
X7191065Y6550335D01*
X7769241Y7128510D01*
X7779221D01*
X7791824Y7133730D01*
X7801470Y7143376D01*
X7806690Y7155979D01*
Y7169621D01*
X7801470Y7182224D01*
X7791824Y7191870D01*
X7779221Y7197090D01*
D02*
G37*
G36*
X7601421Y6562090D02*
X7587779D01*
X7575176Y6556870D01*
X7565530Y6547224D01*
X7560310Y6534621D01*
Y6520979D01*
X7565530Y6508376D01*
X7572587Y6501319D01*
Y6486118D01*
X7394982Y6308513D01*
X5712486D01*
X5709165Y6320907D01*
X5697430Y6341233D01*
X5680833Y6357830D01*
X5660507Y6369565D01*
X5637836Y6375640D01*
X5614364D01*
X5591693Y6369565D01*
X5571367Y6357830D01*
X5554770Y6341233D01*
X5543035Y6320907D01*
X5536960Y6298236D01*
Y6274764D01*
X5543035Y6252093D01*
X5554770Y6231767D01*
X5571367Y6215170D01*
X5591693Y6203435D01*
X5614364Y6197360D01*
X5637836D01*
X5660507Y6203435D01*
X5680833Y6215170D01*
X5697430Y6231767D01*
X5709165Y6252093D01*
X5712486Y6264487D01*
X7397057D01*
X7401235Y6258235D01*
X7475373Y6184097D01*
Y6180514D01*
X7477048Y6172091D01*
X7481820Y6164949D01*
X7560310Y6086459D01*
Y6076479D01*
X7565530Y6063876D01*
X7575176Y6054230D01*
X7587779Y6049010D01*
X7601421D01*
X7614024Y6054230D01*
X7623670Y6063876D01*
X7628890Y6076479D01*
Y6090121D01*
X7623670Y6102724D01*
X7614024Y6112370D01*
X7601421Y6117590D01*
X7591441D01*
X7522166Y6186864D01*
X7586002Y6250700D01*
X7595982D01*
X7608585Y6255920D01*
X7618231Y6265567D01*
X7623451Y6278170D01*
Y6291811D01*
X7618231Y6304414D01*
X7608585Y6314060D01*
X7595982Y6319280D01*
X7582341D01*
X7569738Y6314060D01*
X7560092Y6304414D01*
X7554871Y6291811D01*
Y6281831D01*
X7497386Y6224345D01*
X7435231Y6286500D01*
X7610165Y6461434D01*
X7614937Y6468576D01*
X7616613Y6477000D01*
Y6501319D01*
X7623670Y6508376D01*
X7628890Y6520979D01*
Y6534621D01*
X7623670Y6547224D01*
X7614024Y6556870D01*
X7601421Y6562090D01*
D02*
G37*
G36*
X10014421Y5304790D02*
X10000779D01*
X9988176Y5299570D01*
X9978530Y5289924D01*
X9973310Y5277321D01*
Y5263679D01*
X9978530Y5251076D01*
X9988176Y5241430D01*
X10000779Y5236210D01*
X10004387D01*
Y5197690D01*
X9982510D01*
Y5049910D01*
X10070290D01*
Y5197690D01*
X10048413D01*
Y5250455D01*
X10046737Y5258879D01*
X10041965Y5266021D01*
X10041890Y5266096D01*
Y5277321D01*
X10036670Y5289924D01*
X10027024Y5299570D01*
X10014421Y5304790D01*
D02*
G37*
G36*
X9811221Y5368290D02*
X9797579D01*
X9784976Y5363070D01*
X9775330Y5353424D01*
X9770110Y5340821D01*
Y5327179D01*
X9775330Y5314576D01*
X9784976Y5304930D01*
X9797579Y5299710D01*
X9806314D01*
X9814387Y5291637D01*
Y5197690D01*
X9792510D01*
Y5049910D01*
X9880290D01*
Y5197690D01*
X9858413D01*
Y5300755D01*
X9856737Y5309179D01*
X9851965Y5316321D01*
X9838690Y5329596D01*
Y5340821D01*
X9833470Y5353424D01*
X9823824Y5363070D01*
X9811221Y5368290D01*
D02*
G37*
G36*
X9519121Y5444490D02*
X9505479D01*
X9492876Y5439270D01*
X9483230Y5429624D01*
X9478010Y5417021D01*
Y5403379D01*
X9483230Y5390776D01*
X9490287Y5383719D01*
Y5237900D01*
X9491963Y5229476D01*
X9496735Y5222334D01*
X9792510Y4926559D01*
Y4905813D01*
X9755718D01*
X9267190Y5394341D01*
Y5404321D01*
X9261970Y5416924D01*
X9252324Y5426570D01*
X9239721Y5431790D01*
X9226079D01*
X9213476Y5426570D01*
X9203830Y5416924D01*
X9198610Y5404321D01*
Y5390679D01*
X9203830Y5378076D01*
X9213476Y5368430D01*
X9226079Y5363210D01*
X9236059D01*
X9731034Y4868235D01*
X9737517Y4863903D01*
X9737592Y4863259D01*
X9732154Y4855013D01*
X9666818D01*
X9457690Y5064141D01*
Y5074121D01*
X9452470Y5086724D01*
X9442824Y5096370D01*
X9430221Y5101590D01*
X9416579D01*
X9403976Y5096370D01*
X9394330Y5086724D01*
X9389110Y5074121D01*
Y5060479D01*
X9394330Y5047876D01*
X9403976Y5038230D01*
X9416579Y5033010D01*
X9426559D01*
X9630633Y4828936D01*
X9627231Y4820723D01*
X9546445D01*
X9546124Y4820937D01*
X9537700Y4822613D01*
X9529276Y4820937D01*
X9522135Y4816165D01*
X9517363Y4809024D01*
X9515687Y4800600D01*
X9517363Y4792176D01*
X9522135Y4785035D01*
X9524024Y4783145D01*
X9531166Y4778373D01*
X9539590Y4776697D01*
X9647079D01*
X9664141Y4759635D01*
X9670624Y4755303D01*
X9670699Y4754660D01*
X9665260Y4746413D01*
X9411675D01*
X9403251Y4744737D01*
X9396110Y4739965D01*
X9391338Y4732824D01*
X9389662Y4724400D01*
X9391338Y4715976D01*
X9396110Y4708835D01*
X9403251Y4704063D01*
X9411675Y4702387D01*
X9653435D01*
X9655220Y4693497D01*
X9649934Y4689965D01*
X9534835Y4574865D01*
X9530063Y4567724D01*
X9528387Y4559300D01*
X9530063Y4550876D01*
X9534835Y4543735D01*
X9541976Y4538963D01*
X9550400Y4537287D01*
X9558824Y4538963D01*
X9565965Y4543735D01*
X9674618Y4652387D01*
X9765353D01*
X9770792Y4644140D01*
X9770717Y4643497D01*
X9764234Y4639165D01*
X9687235Y4562165D01*
X9682463Y4555024D01*
X9680787Y4546600D01*
X9682463Y4538176D01*
X9687235Y4531035D01*
X9694376Y4526263D01*
X9702800Y4524587D01*
X9711224Y4526263D01*
X9718365Y4531035D01*
X9788918Y4601587D01*
X10084300D01*
X10092724Y4603263D01*
X10099865Y4608034D01*
X10127165Y4635335D01*
X10131937Y4642476D01*
X10133613Y4650900D01*
Y4747400D01*
X10131937Y4755824D01*
X10129852Y4758944D01*
X10136758Y4764612D01*
X10212710Y4688659D01*
Y4602010D01*
X10239587D01*
Y4516590D01*
X10212710D01*
Y4398810D01*
X10310490D01*
Y4516590D01*
X10283613D01*
Y4602010D01*
X10310490D01*
Y4719790D01*
X10243841D01*
X10116565Y4847065D01*
X10109424Y4851837D01*
X10101000Y4853513D01*
X10070290D01*
Y4957690D01*
X9982510D01*
Y4875802D01*
X9974266Y4870468D01*
X9973620Y4870549D01*
X9969266Y4877065D01*
X9946965Y4899365D01*
X9939824Y4904137D01*
X9931400Y4905813D01*
X9922976Y4904137D01*
X9915834Y4899365D01*
X9893534Y4877065D01*
X9889180Y4870548D01*
X9888534Y4870467D01*
X9880290Y4875799D01*
Y4957690D01*
X9823641D01*
X9534313Y5247018D01*
Y5383719D01*
X9541370Y5390776D01*
X9546590Y5403379D01*
Y5417021D01*
X9541370Y5429624D01*
X9531724Y5439270D01*
X9519121Y5444490D01*
D02*
G37*
G36*
X7404100Y5711923D02*
X5892800D01*
X5885996Y5709104D01*
X5883177Y5702300D01*
Y4932237D01*
X5883859Y4930592D01*
X5883808Y4928812D01*
X5885213Y4927324D01*
X5885996Y4925433D01*
X5887882Y4919248D01*
X5886806Y4914637D01*
X5801035Y4828866D01*
X5801035Y4828866D01*
X5722630Y4750461D01*
X5713740Y4754143D01*
Y4786640D01*
X5538460D01*
Y4611360D01*
X5713740D01*
Y4702758D01*
X5728071D01*
X5736495Y4704434D01*
X5743636Y4709206D01*
X5786374Y4751943D01*
X5794587Y4748541D01*
Y4218579D01*
X5796263Y4210155D01*
X5801035Y4203014D01*
X5815913Y4188135D01*
X5823055Y4183363D01*
X5831479Y4181687D01*
X5859010D01*
Y4132110D01*
X5956790D01*
Y4249890D01*
X5859010D01*
Y4225713D01*
X5840597D01*
X5838613Y4227697D01*
Y4804182D01*
X5921820Y4887389D01*
X5930710Y4883707D01*
Y4882710D01*
X6083490D01*
Y4917977D01*
X7404100D01*
X7410904Y4920796D01*
X7413723Y4927600D01*
Y5702300D01*
X7410904Y5709104D01*
X7404100Y5711923D01*
D02*
G37*
G36*
Y5787813D02*
X5829300Y5787813D01*
X5820876Y5786137D01*
X5813735Y5781365D01*
X5808963Y5774224D01*
X5807287Y5765800D01*
Y5571718D01*
X5682609Y5447040D01*
X5538460D01*
Y5271760D01*
X5713740D01*
Y5415909D01*
X5844866Y5547035D01*
X5849637Y5554176D01*
X5851313Y5562600D01*
Y5743787D01*
X7394982Y5743787D01*
X7458287Y5680482D01*
Y5081730D01*
X7459963Y5073306D01*
X7464735Y5066165D01*
X7593140Y4937759D01*
Y4922513D01*
X7491730D01*
X7483306Y4920838D01*
X7476165Y4916066D01*
X7471393Y4908924D01*
X7469717Y4900500D01*
Y4180479D01*
X7471393Y4172055D01*
X7476165Y4164914D01*
X7491043Y4150035D01*
X7498185Y4145263D01*
X7506609Y4143587D01*
X7534140D01*
Y4106710D01*
X7631920D01*
Y4224490D01*
X7534140D01*
Y4187613D01*
X7515727D01*
X7513743Y4189597D01*
Y4878487D01*
X7593140D01*
Y4856110D01*
X7745920D01*
Y4892577D01*
X9080500D01*
X9087304Y4895396D01*
X9090123Y4902200D01*
Y5588000D01*
X9087304Y5594804D01*
X9080500Y5597623D01*
X7541497D01*
X7534693Y5594804D01*
X7531875Y5588000D01*
Y5072902D01*
X7523661Y5069500D01*
X7502313Y5090848D01*
Y5689600D01*
X7500637Y5698024D01*
X7495865Y5705165D01*
X7419665Y5781365D01*
X7412524Y5786137D01*
X7404100Y5787813D01*
D02*
G37*
G36*
X7103890Y4836190D02*
X6866110D01*
Y4797523D01*
X6718300D01*
X6711496Y4794704D01*
X6708677Y4787900D01*
Y4702723D01*
X6620423D01*
Y4709521D01*
X6618747Y4717945D01*
X6613975Y4725087D01*
X6599096Y4739965D01*
X6591955Y4744737D01*
X6583531Y4746413D01*
X6362890D01*
Y4780790D01*
X6210110D01*
Y4668010D01*
X6362890D01*
Y4702387D01*
X6574413D01*
X6576397Y4700403D01*
Y4693357D01*
X6578073Y4684933D01*
X6582845Y4677792D01*
X6595492Y4665144D01*
X6602633Y4660373D01*
X6611057Y4658697D01*
X6708677D01*
Y4521200D01*
X6711315Y4514832D01*
Y4509770D01*
X6826885D01*
Y4511577D01*
X7099300D01*
X7106104Y4514396D01*
X7108923Y4521200D01*
Y4787900D01*
X7106104Y4794704D01*
X7103890Y4795621D01*
Y4836190D01*
D02*
G37*
G36*
X8780290Y4823490D02*
X8542510D01*
Y4772123D01*
X8393430D01*
X8386626Y4769304D01*
X8383807Y4762500D01*
Y4673934D01*
X8383075Y4673333D01*
X8313265D01*
X8261732Y4724866D01*
X8254591Y4729637D01*
X8246167Y4731313D01*
X8026590D01*
Y4765690D01*
X7873810D01*
Y4652910D01*
X8026590D01*
Y4687287D01*
X8237049D01*
X8288582Y4635755D01*
X8295723Y4630983D01*
X8304147Y4629307D01*
X8373957D01*
X8389296Y4613969D01*
X8386626Y4605023D01*
X8385893Y4603254D01*
X8384540Y4601901D01*
Y4599987D01*
X8383807Y4598219D01*
Y4564130D01*
X8383270D01*
Y4490470D01*
X8383270D01*
X8385686Y4486802D01*
X8388307Y4478546D01*
X8386935Y4475233D01*
X8385491Y4471950D01*
X8385430Y4469130D01*
X8383270D01*
Y4395470D01*
X8386006D01*
X8386617Y4393899D01*
X8386669Y4393876D01*
X8386690Y4393824D01*
X8392908Y4387470D01*
X8392960Y4387448D01*
X8392981Y4387396D01*
X8396339Y4386005D01*
X8399681Y4384578D01*
X8399734Y4384599D01*
X8399786Y4384577D01*
X8541844D01*
X8558896Y4367526D01*
X8555493Y4359313D01*
X8498840D01*
Y4374130D01*
X8383270D01*
Y4300470D01*
X8498840D01*
Y4315287D01*
X8647240D01*
Y4261610D01*
X8800020D01*
Y4308377D01*
X8888540D01*
Y4261610D01*
X9041320D01*
Y4308377D01*
X9091930D01*
X9098734Y4311196D01*
X9101553Y4318000D01*
Y4470400D01*
X9098734Y4477204D01*
X9097393Y4478546D01*
X9090588Y4481364D01*
X8785218D01*
X8781755Y4490254D01*
X8784053Y4495800D01*
Y4762500D01*
X8781234Y4769304D01*
X8780290Y4769695D01*
Y4823490D01*
D02*
G37*
G36*
X6362890Y4630790D02*
X6210110D01*
Y4518010D01*
X6362890D01*
Y4524587D01*
X6438265D01*
Y4509770D01*
X6553835D01*
Y4583430D01*
X6438265D01*
Y4568613D01*
X6362890D01*
Y4630790D01*
D02*
G37*
G36*
X10160490Y4516590D02*
X10062710D01*
Y4492413D01*
X9868981D01*
X9861924Y4499470D01*
X9849321Y4504690D01*
X9835679D01*
X9823076Y4499470D01*
X9813430Y4489824D01*
X9808210Y4477221D01*
Y4463579D01*
X9813430Y4450976D01*
X9823076Y4441330D01*
X9835679Y4436110D01*
X9849321D01*
X9861924Y4441330D01*
X9868981Y4448387D01*
X10062710D01*
Y4438622D01*
X10058735Y4435965D01*
X9975482Y4352713D01*
X9907081D01*
X9900024Y4359770D01*
X9887421Y4364990D01*
X9873779D01*
X9861176Y4359770D01*
X9851530Y4350124D01*
X9846310Y4337521D01*
Y4323879D01*
X9851530Y4311276D01*
X9861176Y4301630D01*
X9873779Y4296410D01*
X9887421D01*
X9900024Y4301630D01*
X9907081Y4308687D01*
X9984600D01*
X9993024Y4310363D01*
X10000165Y4315135D01*
X10083418Y4398387D01*
X10084300D01*
X10086427Y4398810D01*
X10160490D01*
Y4516590D01*
D02*
G37*
G36*
X8026590Y4615690D02*
X7873810D01*
Y4502910D01*
X8026590D01*
Y4526987D01*
X8110220D01*
Y4490470D01*
X8225790D01*
Y4564130D01*
X8141351D01*
X8140916Y4564565D01*
X8133774Y4569337D01*
X8125350Y4571013D01*
X8026590D01*
Y4615690D01*
D02*
G37*
G36*
X7415458Y4494064D02*
X6719981D01*
X6716671Y4492693D01*
X6713326Y4491392D01*
X6713281Y4491289D01*
X6713177Y4491246D01*
X6712011Y4488430D01*
X6711315D01*
Y4486819D01*
X6710361Y4484650D01*
X6708817Y4413463D01*
X6708838Y4413410D01*
X6708816Y4413358D01*
X6710170Y4409985D01*
X6711487Y4406599D01*
X6711539Y4406576D01*
X6711560Y4406524D01*
X6715674Y4402320D01*
X6712647Y4393430D01*
X6711315D01*
Y4319770D01*
X6826885D01*
Y4334587D01*
X6972110D01*
Y4285810D01*
X7124890D01*
Y4321077D01*
X7213410D01*
Y4284610D01*
X7366190D01*
Y4321077D01*
X7416800D01*
X7423604Y4323896D01*
X7426423Y4330700D01*
Y4483100D01*
X7423604Y4489904D01*
X7422263Y4491246D01*
X7415458Y4494064D01*
D02*
G37*
G36*
X6553835Y4393430D02*
X6438265D01*
Y4350901D01*
X6325777Y4238413D01*
X6307290D01*
Y4252590D01*
X6189510D01*
Y4213013D01*
X6106790D01*
Y4249890D01*
X6009010D01*
Y4132110D01*
X6106790D01*
Y4168987D01*
X6189510D01*
Y4154810D01*
X6307290D01*
Y4194387D01*
X6334895D01*
X6343319Y4196063D01*
X6350461Y4200835D01*
X6469396Y4319770D01*
X6553835D01*
Y4393430D01*
D02*
G37*
G36*
X8225790Y4374130D02*
X8110220D01*
Y4331601D01*
X8025130Y4246511D01*
D01*
X8020419Y4241800D01*
X7993532Y4214913D01*
X7950830D01*
X7948703Y4214490D01*
X7864640D01*
Y4187613D01*
X7781920D01*
Y4224490D01*
X7684140D01*
Y4106710D01*
X7781920D01*
Y4143587D01*
X7864640D01*
Y4116710D01*
X7982420D01*
Y4170887D01*
X8002650D01*
X8011074Y4172563D01*
X8018216Y4177335D01*
X8141351Y4300470D01*
X8225790D01*
Y4374130D01*
D02*
G37*
G36*
X5713740Y4126240D02*
X5538460D01*
Y3950960D01*
X5713740D01*
Y4126240D01*
D02*
G37*
G36*
X10830390Y4112090D02*
X10632610D01*
Y3914310D01*
X10830390D01*
Y4112090D01*
D02*
G37*
%LPD*%
G36*
X9486096Y8816935D02*
X9490540Y8809365D01*
X9402688Y8721513D01*
X8741303D01*
X8653420Y8809397D01*
X8656822Y8817610D01*
X8683650D01*
X8688260Y8817610D01*
X8697150Y8817610D01*
X8733650D01*
X8738260Y8817610D01*
X8747150Y8817610D01*
X8783650D01*
X8788260Y8817610D01*
X8797150Y8817610D01*
X8838259D01*
Y8817609D01*
X8842541D01*
Y8817610D01*
X8883650D01*
X8888260Y8817610D01*
X8897150Y8817610D01*
X8933650D01*
X8938260Y8817610D01*
X8947150Y8817610D01*
X8983650D01*
X8988260Y8817610D01*
X8997150Y8817610D01*
X9033650D01*
X9038260Y8817610D01*
X9047150Y8817610D01*
X9083650D01*
X9088260Y8817610D01*
X9097150Y8817610D01*
X9133650D01*
X9138260Y8817610D01*
X9147150Y8817610D01*
X9183650D01*
X9188260Y8817610D01*
X9197150Y8817610D01*
X9233650D01*
X9238260Y8817610D01*
X9247150Y8817610D01*
X9283650D01*
X9288260Y8817610D01*
X9297150Y8817610D01*
X9333650D01*
X9338260Y8817610D01*
X9347150Y8817610D01*
X9383650D01*
X9388260Y8817610D01*
X9397150Y8817610D01*
X9433650D01*
X9438260Y8817610D01*
X9447150Y8817610D01*
X9485599D01*
X9486096Y8816935D01*
D02*
G37*
G36*
X8296487Y8408987D02*
Y8149818D01*
X8247952Y8101283D01*
X8233083D01*
X8225790Y8105140D01*
Y8150859D01*
X8225791D01*
Y8155141D01*
X8225790D01*
Y8196250D01*
X8225790Y8200860D01*
X8225790Y8209750D01*
Y8250860D01*
X8157485D01*
X8154788Y8259750D01*
X8158805Y8262435D01*
X8163577Y8269576D01*
X8165253Y8278000D01*
X8163577Y8286424D01*
X8158805Y8293565D01*
X8154788Y8296250D01*
X8157484Y8305140D01*
X8225790D01*
Y8346250D01*
X8225790Y8350860D01*
X8225790Y8359750D01*
Y8396250D01*
X8225790Y8400860D01*
X8225790Y8409750D01*
Y8450859D01*
X8225791Y8450860D01*
Y8455141D01*
X8225790D01*
X8225790Y8459750D01*
Y8467777D01*
X8231951Y8470514D01*
X8234680Y8470795D01*
X8296487Y8408987D01*
D02*
G37*
G36*
X4641003Y7933796D02*
X4645335Y7927314D01*
X4660213Y7912435D01*
X4667355Y7907663D01*
X4675779Y7905987D01*
X8053924D01*
X8060690Y7900860D01*
X8060690Y7896250D01*
Y7858903D01*
X8060690Y7855140D01*
X8053923Y7850013D01*
X7993863D01*
X7967010Y7876865D01*
X7959869Y7881637D01*
X7951445Y7883313D01*
X7950200D01*
X7941776Y7881637D01*
X7934635Y7876865D01*
X7929863Y7869724D01*
X7928187Y7861300D01*
X7929863Y7852876D01*
X7934635Y7845735D01*
X7938386Y7843228D01*
X7953588Y7828026D01*
X7950186Y7819813D01*
X7848600D01*
X7840176Y7818137D01*
X7833035Y7813365D01*
X7828263Y7806224D01*
X7826587Y7797800D01*
X7828263Y7789376D01*
X7833035Y7782235D01*
X7840176Y7777463D01*
X7848600Y7775787D01*
X7983500D01*
X7991147Y7777308D01*
X7991655Y7776906D01*
X7993640Y7767229D01*
X7931924Y7705513D01*
X7797800D01*
X7789376Y7703837D01*
X7782235Y7699065D01*
X7777463Y7691924D01*
X7775787Y7683500D01*
X7777463Y7675076D01*
X7782235Y7667935D01*
X7789376Y7663163D01*
X7797800Y7661487D01*
X7903917D01*
X7907129Y7652597D01*
X7905343Y7649924D01*
X7903667Y7641500D01*
X7905343Y7633076D01*
X7910114Y7625935D01*
X7917256Y7621163D01*
X7925680Y7619487D01*
X7934104Y7621163D01*
X7941245Y7625935D01*
X7946105Y7630794D01*
X7950877Y7637936D01*
X7952553Y7646360D01*
Y7663880D01*
X7956607Y7667934D01*
X7956608Y7667935D01*
X8043390Y7754717D01*
X8053397D01*
X8060690Y7750860D01*
X8060690Y7745827D01*
Y7709750D01*
X8060690Y7705140D01*
X8060690Y7696250D01*
Y7659750D01*
X8060690Y7655140D01*
X8060690Y7646250D01*
Y7609750D01*
X8060690Y7605140D01*
X8053923Y7600013D01*
X4634097D01*
X4632113Y7601997D01*
Y7928433D01*
X4640359Y7933872D01*
X4641003Y7933796D01*
D02*
G37*
G36*
X8326288Y8104785D02*
X8322761Y8096269D01*
Y8082628D01*
X8327981Y8070025D01*
X8335038Y8062968D01*
Y7867055D01*
X8219267Y7751283D01*
X8158748D01*
X8156052Y7760173D01*
X8157535Y7761165D01*
X8158805Y7762435D01*
X8163577Y7769576D01*
X8165253Y7778000D01*
X8163577Y7786424D01*
X8158805Y7793565D01*
X8151664Y7798337D01*
X8151007Y7798468D01*
Y7807532D01*
X8151664Y7807663D01*
X8158805Y7812435D01*
X8163577Y7819576D01*
X8165253Y7828000D01*
X8163577Y7836424D01*
X8158805Y7843565D01*
X8154788Y7846250D01*
X8157485Y7855140D01*
X8225790D01*
Y7896250D01*
X8225790Y7900860D01*
X8225790Y7909750D01*
Y7946250D01*
X8225790Y7950860D01*
X8225790Y7959750D01*
Y7996250D01*
X8225790Y8000860D01*
X8225790Y8009750D01*
Y8046250D01*
X8225790Y8050860D01*
X8231808Y8057257D01*
X8257070D01*
X8265494Y8058933D01*
X8272635Y8063705D01*
X8318752Y8109821D01*
X8326288Y8104785D01*
D02*
G37*
G36*
X7404100Y4927600D02*
X6023760D01*
X6017093Y4936490D01*
X6017613Y4939100D01*
X6015937Y4947524D01*
X6011165Y4954665D01*
X6004024Y4959437D01*
X5995600Y4961113D01*
X5987176Y4959437D01*
X5980035Y4954665D01*
X5960461Y4935092D01*
X5916379D01*
X5907955Y4933416D01*
X5901690Y4929230D01*
X5896806Y4930441D01*
X5892800Y4932237D01*
Y5702300D01*
X7404100D01*
Y4927600D01*
D02*
G37*
G36*
X9080500Y4902200D02*
X7679543D01*
Y4904500D01*
X7677867Y4912924D01*
X7673095Y4920066D01*
X7541497Y5051664D01*
Y5588000D01*
X9080500D01*
Y4902200D01*
D02*
G37*
G36*
X7099300Y4521200D02*
X6718300D01*
Y4658697D01*
X6918410D01*
X6926834Y4660373D01*
X6933975Y4665145D01*
X7000566Y4731735D01*
X7005337Y4738876D01*
X7007013Y4747300D01*
X7005337Y4755724D01*
X7000566Y4762866D01*
X6993424Y4767637D01*
X6985000Y4769313D01*
X6976576Y4767637D01*
X6969435Y4762866D01*
X6909292Y4702723D01*
X6718300D01*
Y4787900D01*
X7099300D01*
Y4521200D01*
D02*
G37*
G36*
X8774430Y4495800D02*
X8393430D01*
Y4598219D01*
X8401643Y4601621D01*
X8419042Y4584222D01*
Y4527300D01*
X8420718Y4518876D01*
X8425490Y4511735D01*
X8432631Y4506963D01*
X8441055Y4505287D01*
X8449479Y4506963D01*
X8456620Y4511735D01*
X8461392Y4518876D01*
X8463068Y4527300D01*
Y4593340D01*
X8461392Y4601764D01*
X8456621Y4608905D01*
X8398640Y4666886D01*
X8393430Y4670367D01*
Y4762500D01*
X8774430D01*
Y4495800D01*
D02*
G37*
G36*
X9091930Y4470400D02*
Y4318000D01*
X8745643D01*
X8743967Y4326424D01*
X8739196Y4333565D01*
X8719895Y4352865D01*
X8712754Y4357637D01*
X8704330Y4359313D01*
X8580717D01*
X8545830Y4394200D01*
X8399786D01*
X8393568Y4400554D01*
X8395111Y4471742D01*
X9090588D01*
X9091930Y4470400D01*
D02*
G37*
G36*
X7416800Y4483100D02*
Y4330700D01*
X7076660D01*
X7069994Y4339590D01*
X7070513Y4342200D01*
X7068837Y4350624D01*
X7064066Y4357765D01*
X7049666Y4372165D01*
X7042524Y4376937D01*
X7034100Y4378613D01*
X6898987D01*
X6870700Y4406900D01*
X6724656D01*
X6718438Y4413254D01*
X6719981Y4484442D01*
X7415458D01*
X7416800Y4483100D01*
D02*
G37*
D10*
X10635546Y4679246D02*
G03*
X10717958Y4640177I95954J95954D01*
G01*
X5716424Y9212761D02*
G03*
X5716423Y9212760I17960J-17961D01*
G01*
X5468281Y9136767D02*
G03*
X5428350Y9136805I-19980J-15683D01*
G01*
X5468281Y9136767D02*
G03*
X5710322Y9206658I107019J83433D01*
G01*
X5291147Y9087892D02*
G03*
X5428350Y9136805I30153J132308D01*
G01*
X5288416Y9087893D02*
G03*
X5288413Y9087893I-2J-25400D01*
G01*
X6230447Y9136553D02*
G03*
X6253653Y9113347I106853J83647D01*
G01*
X10724061Y4634075D02*
G03*
X10724060Y4634076I-17961J-17960D01*
G01*
X8420100Y9220200D02*
X9424955D01*
X9836555Y8808600D01*
X9506105Y8793800D02*
X9542915D01*
X9836555Y8808600D02*
X10198328D01*
X9550215Y8801100D02*
X9795562D01*
X9822352Y8774310D01*
X9542915Y8793800D02*
X9550215Y8801100D01*
X9822352Y8774310D02*
X10316190D01*
X4726579Y7974670D02*
X8070241D01*
X4711700Y7989549D02*
Y8521700D01*
X5277892Y9087892D01*
X4711700Y7989549D02*
X4726579Y7974670D01*
X4660900Y7942879D02*
X4675779Y7928000D01*
X4660900Y8559800D02*
X5321300Y9220200D01*
X4660900Y7942879D02*
Y8559800D01*
X6841344Y8445500D02*
X7442200D01*
X6645144Y8641700D02*
X6841344Y8445500D01*
X7442200D02*
X7734300Y8153400D01*
X7409944Y8325357D02*
X7616190Y8119110D01*
X6640310Y8325357D02*
X7409944D01*
X6781800Y8242300D02*
X6998900D01*
X6616460Y8302507D02*
X6634207D01*
X6661900Y8417357D02*
Y8514600D01*
X7616190Y8119110D02*
X8028806D01*
X7734300Y8153400D02*
X8014602D01*
X7772400Y8267700D02*
X7949298D01*
X9874045Y4775200D02*
X9909100Y4810255D01*
X9656197Y4798710D02*
X9679707Y4775200D01*
X9874045D01*
X9539590Y4798710D02*
X9656197D01*
X9537700Y4800600D02*
X9539590Y4798710D01*
X9909100Y4810255D02*
Y4861500D01*
X9772705Y8678000D02*
X9914800D01*
X9872075Y8577360D02*
X9888440D01*
X9893300Y8572500D01*
X9687560Y8678000D02*
X9772705D01*
Y8676730D02*
X9872075Y8577360D01*
X9856800Y8228000D02*
X10033000Y8051800D01*
X9687560Y8228000D02*
X9856800D01*
X10033000Y6235700D02*
Y8051800D01*
X8615400Y6091200D02*
X8991600Y5715000D01*
X9906000D02*
X10580179Y5040821D01*
X8991600Y5715000D02*
X9906000D01*
X10580179Y5040821D02*
X10719879D01*
X10602154Y4870803D02*
Y4891845D01*
X8928100Y5638800D02*
X9855200D01*
X10587748Y4727043D02*
X10635545Y4679245D01*
X10587748Y4727043D02*
Y4794638D01*
Y4856397D02*
X10602154Y4870803D01*
X9855200Y5638800D02*
X10602154Y4891845D01*
X10587748Y4794638D02*
Y4856397D01*
X10007600Y5269255D02*
Y5270500D01*
Y5269255D02*
X10026400Y5250455D01*
X4610100Y7592879D02*
Y8763000D01*
Y7592879D02*
X4624979Y7578000D01*
X8143240D01*
X7497386Y6180514D02*
X7594600Y6083300D01*
X7497386Y6180514D02*
Y6193214D01*
X7589161Y6284990D01*
X7594600Y6477000D02*
Y6527800D01*
X5626100Y6286500D02*
X7404100D01*
X7594600Y6477000D01*
X5626100Y7302500D02*
X5626101Y7302501D01*
X7302501D02*
X7467600Y7467600D01*
X5626101Y7302501D02*
X7302501D01*
X5626100Y7048500D02*
X5662658D01*
X5700758Y7010400D02*
X7162800D01*
X7594600Y7442200D01*
X5662658Y7048500D02*
X5700758Y7010400D01*
X5626100Y6794500D02*
X5626100Y6794500D01*
X7073900D02*
X7721600Y7442200D01*
X5626100Y6794500D02*
X7073900D01*
X5626100Y6540500D02*
X5651500Y6565900D01*
X7175500D02*
X7772400Y7162800D01*
X5651500Y6565900D02*
X7175500D01*
X5626100Y5359400D02*
X5829300Y5562600D01*
Y5765800D01*
X5816600Y4813300D02*
X5916379Y4913079D01*
X5969579D01*
X5651871Y4724771D02*
X5728071D01*
X5816600Y4813300D01*
Y4218579D02*
X5831479Y4203700D01*
X5969579Y4913079D02*
X5995600Y4939100D01*
X5816600Y4218579D02*
Y4813300D01*
X5626100Y4699000D02*
X5651871Y4724771D01*
X5831479Y4203700D02*
X5895200D01*
X9842500Y4470400D02*
X10088900D01*
X10111600Y4447700D01*
X9411675Y4724400D02*
X9916521D01*
X9931400Y4739279D01*
X9665500Y4674400D02*
X10098100D01*
X9550400Y4559300D02*
X9665500Y4674400D01*
X9779800Y4623600D02*
X10084300D01*
X9702800Y4546600D02*
X9779800Y4623600D01*
X10098100Y4674400D02*
X10111600Y4660900D01*
X10084300Y4623600D02*
X10111600Y4650900D01*
Y4660900D01*
X7930540Y7646360D02*
Y7672998D01*
X7941042Y7683500D01*
X7925680Y7641500D02*
X7930540Y7646360D01*
X7797800Y7683500D02*
X7941042D01*
X8393963Y7469547D02*
Y7501135D01*
X8439967Y7547140D01*
X8020938Y8280400D02*
X8023339Y8278000D01*
X7949298Y8267700D02*
X7961998Y8280400D01*
X7912100Y8331200D02*
X7962900Y8280400D01*
X8023339Y8278000D02*
X8143240D01*
X7961998Y8280400D02*
X8020938D01*
X8405985Y8775700D02*
X8459102D01*
X8479643Y8755160D02*
X8529540D01*
X8459102Y8775700D02*
X8479643Y8755160D01*
X8366670Y8815015D02*
X8405985Y8775700D01*
X8529540Y8755160D02*
X8534400Y8750300D01*
X8141970Y7776730D02*
X8143240Y7778000D01*
X8034272Y7776730D02*
X8141970D01*
X7941042Y7683500D02*
X8034272Y7776730D01*
X8013700Y7828000D02*
X8143240D01*
X7984745D02*
X8013700D01*
X7983500Y7797800D02*
X8013700Y7828000D01*
X7848600Y7797800D02*
X7983500D01*
X7951445Y7861300D02*
X7984745Y7828000D01*
X7950200Y7861300D02*
X7951445D01*
X6989124Y8128000D02*
X7113200D01*
X6951024Y8166100D02*
X6989124Y8128000D01*
X6946900Y8166100D02*
X6951024D01*
X6845300Y8039100D02*
X7024300D01*
X6998900Y8242300D02*
X7113200Y8128000D01*
X7024300Y8039100D02*
X7058400Y8073200D01*
X7078400D01*
X7113200Y8108000D01*
Y8128000D01*
X8365400Y7440984D02*
X8393963Y7469547D01*
X8365400Y7355840D02*
Y7440984D01*
X9961352Y8654497D02*
X9968255Y8661400D01*
X9938303Y8654497D02*
X9961352D01*
X9968255Y8661400D02*
X9969500D01*
X9914800Y8678000D02*
X9938303Y8654497D01*
X9423400Y7112000D02*
Y7229965D01*
X10781055Y8674100D02*
X10782300D01*
X10746955Y8640000D02*
X10781055Y8674100D01*
X10772355Y8530400D02*
X10781055Y8521700D01*
X10782300D01*
X10690100Y8530400D02*
X10772355D01*
X10690100Y8640000D02*
X10746955D01*
X10655300Y8585200D02*
Y8605200D01*
Y8565200D02*
Y8585200D01*
X9927600Y9356300D02*
X10098855D01*
X10133355Y9321800D01*
X10134600D01*
X9927600Y9185900D02*
X9969500Y9144000D01*
X9927600Y9185900D02*
Y9356300D01*
X10710100D02*
X10722600D01*
X10579100Y9182100D02*
X10579980Y9182980D01*
Y9226180D02*
X10710100Y9356300D01*
X10579980Y9182980D02*
Y9226180D01*
X10538645Y9356300D02*
X10722600D01*
X10529545Y9347200D02*
X10538645Y9356300D01*
X10528300Y9347200D02*
X10529545D01*
X9423400Y7229965D02*
X9464130Y7270695D01*
X9507460Y7205740D02*
X9550400Y7162800D01*
X9465400Y7270695D02*
X9507460Y7228636D01*
Y7205740D02*
Y7228636D01*
X9465400Y7270695D02*
Y7355840D01*
X10579100Y7315000D02*
X10730420Y7163680D01*
X10768720D02*
X10769600Y7162800D01*
X10730420Y7163680D02*
X10768720D01*
X10579100Y7162800D02*
Y7315000D01*
Y7380500D01*
X10368900Y7031345D02*
Y7315200D01*
Y7031345D02*
X10388600Y7011645D01*
Y7010400D02*
Y7011645D01*
X10325100Y7359000D02*
X10368900Y7315200D01*
X10325100Y7359000D02*
Y7380500D01*
X10284912Y7340312D02*
X10325100Y7380500D01*
X10284912Y6907748D02*
Y7340312D01*
X10655300Y8605200D02*
X10690100Y8640000D01*
X10655300Y8565200D02*
X10690100Y8530400D01*
X9953700Y4810255D02*
Y4861500D01*
Y4810255D02*
X9988755Y4775200D01*
X10083800D01*
X9931400Y4883800D02*
X9953700Y4861500D01*
X10083800Y4775200D02*
X10111600Y4747400D01*
Y4660900D02*
Y4747400D01*
X9931400Y4739279D02*
Y4883800D01*
X9909100Y4861500D02*
X9931400Y4883800D01*
X8365400Y8900160D02*
X8366670Y8898890D01*
Y8815015D02*
Y8898890D01*
X8295530Y7490570D02*
X8314544D01*
X8364130Y7440984D01*
X8293100Y7493000D02*
X8295530Y7490570D01*
X5710322Y9206658D02*
X5716423Y9212760D01*
X5288416Y9087892D02*
X5291147D01*
X5723863Y9220200D02*
X5829300D01*
X5716424Y9212761D02*
X5723863Y9220200D01*
X5277892Y9087892D02*
X5288413D01*
X7480300Y5081730D02*
X7657530Y4904500D01*
Y4900500D02*
Y4904500D01*
X7404100Y5765800D02*
X7480300Y5689600D01*
Y5081730D02*
Y5689600D01*
X5829300Y5765800D02*
X7404100Y5765800D01*
X7416800Y6273800D02*
X7497386Y6193214D01*
X7491730Y4900500D02*
X7657530D01*
X8304147Y4651320D02*
X8383075D01*
X7950200Y4709300D02*
X8246167D01*
X8304147Y4651320D01*
X8383075D02*
X8441055Y4593340D01*
Y4527300D02*
Y4593340D01*
X8515400Y6051500D02*
X8928100Y5638800D01*
X9880600Y5676900D02*
X10691720Y4865780D01*
X8565400Y6077700D02*
X8966200Y5676900D01*
X9880600D01*
X9814100Y4833000D02*
X9836400Y4855300D01*
X9423400Y5067300D02*
X9657700Y4833000D01*
X9814100D01*
X9836400Y4855300D02*
Y4883800D01*
X6583531Y4724400D02*
X6598410Y4709521D01*
Y4693357D02*
Y4709521D01*
X6611057Y4680710D02*
X6918410D01*
X6985000Y4747300D01*
X6598410Y4693357D02*
X6611057Y4680710D01*
X6286500Y4724400D02*
X6583531D01*
X8463826Y7488140D02*
X8669240D01*
X8674100Y7493000D01*
X8416670Y7440985D02*
X8463826Y7488140D01*
X6679200Y8496300D02*
X6680200D01*
X6243900Y8550200D02*
X6626300D01*
X6661900Y8514600D01*
X4964155Y8641700D02*
X6645144D01*
X6083300Y9220200D02*
X6146799D01*
X6789000Y8578000D02*
X8143240D01*
X6146799Y9220200D02*
X6230446Y9136553D01*
X6253653Y9113346D02*
X6789000Y8578000D01*
X8028806Y8119110D02*
X8037696Y8128000D01*
X8039203Y8178000D02*
X8143240D01*
X8014602Y8153400D02*
X8039203Y8178000D01*
X8037696Y8128000D02*
X8143240D01*
X7988300Y8216900D02*
X7995173D01*
X8006273Y8228000D02*
X8143240D01*
X7995173Y8216900D02*
X8006273Y8228000D01*
X9514130Y7357110D02*
X9515400Y7355840D01*
X9512300Y7518400D02*
X9514130Y7516570D01*
Y7357110D02*
Y7516570D01*
X8257070Y8079270D02*
X8318500Y8140700D01*
Y8418105D01*
X8144510Y8079270D02*
X8257070D01*
X8228385Y7729270D02*
X8357051Y7857937D01*
Y8089449D01*
X8732185Y8699500D02*
X9411805D01*
X8616670Y8815015D02*
X8732185Y8699500D01*
X9526527Y8717546D02*
X9536981Y8728000D01*
X10033000D01*
X9411805Y8699500D02*
X9506105Y8793800D01*
X9519654Y8717546D02*
X9526527D01*
X9214373Y7480300D02*
X9232473Y7462200D01*
X9382810D01*
X9382811Y7462199D02*
X9392914D01*
X9414130Y7440983D01*
Y7357110D02*
Y7440983D01*
X9382810Y7462200D02*
X9382811Y7462199D01*
X9207500Y7480300D02*
X9214373D01*
X4675779Y7928000D02*
X8143240D01*
X4610100Y8763000D02*
X5067300Y9220200D01*
X7263200Y8128000D02*
X7382007D01*
X7470907Y8039100D01*
X7874000D01*
X7912900Y8078000D01*
X8143240D01*
X5198800Y8562900D02*
X5252700Y8509000D01*
X8249600Y8487005D02*
X8318500Y8418105D01*
X8242300Y8762815D02*
X8249600Y8755515D01*
X8242300Y8762815D02*
Y9042400D01*
X8249600Y8487005D02*
Y8755515D01*
X10354221Y8269621D02*
Y8385721D01*
X10325100Y8240500D02*
X10354221Y8269621D01*
X10470500Y8550400D02*
X10505300Y8585200D01*
X10470500Y8502000D02*
Y8550400D01*
X10354221Y8385721D02*
X10470500Y8502000D01*
X8242300Y9042400D02*
X8420100Y9220200D01*
X10198328Y8808600D02*
X10296028Y8906300D01*
X10722600D01*
X8686800Y9131300D02*
X8687680Y9130420D01*
X8719014D01*
X8143240Y8078000D02*
X8144510Y8079270D01*
X9868134Y8481300D02*
X9908300D01*
X9772704Y8576730D02*
X9868134Y8481300D01*
X9908300D02*
X9956800Y8432800D01*
X9688830Y8576730D02*
X9772704D01*
X9687560Y8578000D02*
X9688830Y8576730D01*
X9789282Y8476730D02*
X9819002Y8447010D01*
X9828290D01*
X9688830Y8476730D02*
X9789282D01*
X9828290Y8447010D02*
X10210800Y8064500D01*
X9514130Y8901430D02*
Y8985304D01*
X9432514Y9066920D02*
X9514130Y8985304D01*
X9385300Y9067800D02*
X9386180Y9066920D01*
X9514130Y8901430D02*
X9515400Y8900160D01*
X9386180Y9066920D02*
X9432514D01*
X8719014Y9130420D02*
X8864130Y8985304D01*
X7905197Y8503203D02*
X7930400Y8478000D01*
X8864130Y8901430D02*
X8865400Y8900160D01*
X8864130Y8901430D02*
Y8985304D01*
X10515600Y8406155D02*
Y8407400D01*
Y8406155D02*
X10535300Y8386455D01*
Y8284300D02*
Y8386455D01*
X10033000Y8686800D02*
Y8728000D01*
Y8686800D02*
X10121900Y8597900D01*
X10033000Y8728000D02*
X10169600D01*
X10316190Y8774310D02*
X10505300Y8585200D01*
X9015400Y6453200D02*
Y7355840D01*
Y6453200D02*
X9296400Y6172200D01*
X9065400Y6657200D02*
X9296400Y6426200D01*
X9065400Y6657200D02*
Y7355840D01*
X10146420Y9112620D02*
Y9117720D01*
X10147300Y9118600D01*
X9927600Y8906300D02*
X9940100D01*
X10146420Y9112620D01*
X9927600Y8906300D02*
X10163600D01*
X10287000Y9029700D01*
X10169600Y8728000D02*
X10210800Y8686800D01*
X9365400Y7168300D02*
Y7355840D01*
X9414130Y7357110D02*
X9415400Y7355840D01*
X10579100Y8306000D02*
X10693200Y8420100D01*
X10579100Y8240500D02*
Y8306000D01*
X10693200Y8420100D02*
X10693400D01*
X10535300Y8284300D02*
X10579100Y8240500D01*
X8616670Y8815015D02*
Y8898890D01*
X8615400Y8900160D02*
X8616670Y8898890D01*
X10210800Y6819900D02*
X10731500Y6299200D01*
X10210800Y6819900D02*
Y8064500D01*
X10083800Y6438900D02*
Y8065635D01*
X9772705Y8376730D02*
X10083800Y8065635D01*
Y6438900D02*
X10731500Y5791200D01*
X10147300Y6629400D02*
X10731500Y6045200D01*
X10147300Y6629400D02*
Y8052135D01*
X9772705Y8426730D02*
X10147300Y8052135D01*
X10033000Y6235700D02*
X10731500Y5537200D01*
X9843300Y8178000D02*
X9982200Y8039100D01*
Y6032500D02*
X10731500Y5283200D01*
X9982200Y6032500D02*
Y8039100D01*
X9829800Y7213600D02*
X9906000Y7137400D01*
X10026400Y5123800D02*
Y5250455D01*
X9829800Y7213600D02*
Y7569635D01*
X9804400Y5332755D02*
X9836400Y5300755D01*
Y5123800D02*
Y5300755D01*
X9804400Y5332755D02*
Y5334000D01*
X9791700Y7048500D02*
Y7049745D01*
X9793920Y7051965D02*
Y7555514D01*
X9791700Y7049745D02*
X9793920Y7051965D01*
X8565400Y6077700D02*
Y7355840D01*
X8515400Y6051500D02*
Y7355840D01*
X9687560Y8178000D02*
X9843300D01*
X9688830Y8376730D02*
X9772705D01*
X9688830Y8426730D02*
X9772705D01*
X9687560Y8478000D02*
X9688830Y8476730D01*
X9687560Y8428000D02*
X9688830Y8426730D01*
X9687560Y8378000D02*
X9688830Y8376730D01*
X9772705Y7626730D02*
X9829800Y7569635D01*
X9687560Y7628000D02*
X9688830Y7626730D01*
X9772704Y7576730D02*
X9793920Y7555514D01*
X9688830Y7626730D02*
X9772705D01*
X9688830Y7576730D02*
X9772704D01*
X9687560Y7578000D02*
X9688830Y7576730D01*
X4931021Y8608566D02*
X4964155Y8641700D01*
X4931021Y8603421D02*
Y8608566D01*
X4877800Y8550200D02*
X4931021Y8603421D01*
X4876800Y8550200D02*
X4877800D01*
X5201900Y8458200D02*
X5252700Y8509000D01*
X4876800Y8458200D02*
X5201900D01*
X6202700Y8509000D02*
X6243900Y8550200D01*
X8070241Y7974670D02*
X8072301Y7976730D01*
X8141970D01*
X8143240Y7978000D01*
X9296400Y7099300D02*
X9365400Y7168300D01*
X10084300Y4420400D02*
X10111600Y4447700D01*
X10074300Y4420400D02*
X10084300D01*
X9984600Y4330700D02*
X10074300Y4420400D01*
X9880600Y4330700D02*
X9984600D01*
X10261600Y4457700D02*
Y4660900D01*
X10048700Y4831500D02*
X10101000D01*
X10261600Y4660900D02*
Y4670900D01*
X10026400Y4853800D02*
Y4883800D01*
Y4853800D02*
X10048700Y4831500D01*
X10101000D02*
X10261600Y4670900D01*
X9232900Y5397500D02*
X9746600Y4883800D01*
X9836400D01*
Y4913800D01*
X9512300Y5237900D02*
X9836400Y4913800D01*
X9512300Y5237900D02*
Y5410200D01*
X10724061Y4634075D02*
X10731500Y4626636D01*
Y4521200D02*
Y4626636D01*
X10717958Y4640177D02*
X10724060Y4634076D01*
X10691720Y4856815D02*
X10731500Y4817035D01*
X10691720Y4856815D02*
Y4865780D01*
X10731500Y4775200D02*
Y4817035D01*
X10719879Y5040821D02*
X10731500Y5029200D01*
X8615400Y6091200D02*
Y7355840D01*
X7930400Y8478000D02*
X8143240D01*
X7988766Y8407400D02*
X8058096Y8476730D01*
X7797800Y8407400D02*
X7988766D01*
X8315400Y8754645D02*
Y8900160D01*
X8318500Y8750300D02*
Y8751545D01*
X8315400Y8754645D02*
X8318500Y8751545D01*
X7491730Y4180479D02*
Y4900500D01*
X7923530Y4165600D02*
X7950830Y4192900D01*
X8002650D02*
X8147050Y4337300D01*
X7950830Y4192900D02*
X8002650D01*
X8147050Y4337300D02*
X8168005D01*
X8704330D02*
X8723630Y4318000D01*
X8441055Y4337300D02*
X8704330D01*
X7506609Y4165600D02*
X7583030D01*
X7491730Y4180479D02*
X7506609Y4165600D01*
X7733030D02*
X7923530D01*
X8147050Y4527300D02*
X8168005D01*
X8125350Y4549000D02*
X8147050Y4527300D01*
X7974330Y4549000D02*
X8125350D01*
X9512300Y8483600D02*
Y8547100D01*
X9591930Y8626730D02*
X9686290D01*
X9687560Y8628000D01*
X9512300Y8547100D02*
X9591930Y8626730D01*
X8416670Y7357110D02*
Y7440985D01*
X8415400Y7355840D02*
X8416670Y7357110D01*
X8247800Y7678000D02*
X8260441Y7665359D01*
X8144510Y7729270D02*
X8228385D01*
X8143240Y7728000D02*
X8144510Y7729270D01*
X8143240Y7678000D02*
X8247800D01*
X6929500Y8628000D02*
X8143240D01*
X6337300Y9220200D02*
X6929500Y8628000D01*
X6591300Y9220200D02*
X7133500Y8678000D01*
X8143240D01*
X7337500Y8728000D02*
X8143240D01*
X6845300Y9220200D02*
X7337500Y8728000D01*
X5895200Y4203700D02*
X5907900Y4191000D01*
X6235700D02*
X6248400Y4203700D01*
X6057900Y4191000D02*
X6235700D01*
X6248400Y4203700D02*
X6261100Y4216400D01*
X6334895D02*
X6475095Y4356600D01*
X6261100Y4216400D02*
X6334895D01*
X6475095Y4356600D02*
X6496050D01*
X6314300Y4546600D02*
X6496050D01*
X6286500Y4574400D02*
X6314300Y4546600D01*
X7034100Y4356600D02*
X7048500Y4342200D01*
X6769100Y4356600D02*
X7034100D01*
D11*
X8661400Y4734600D02*
D03*
Y5374600D02*
D03*
X6985000Y4747300D02*
D03*
Y5387300D02*
D03*
D12*
X10111600Y4457700D02*
D03*
X10261600D02*
D03*
X10111600Y4660900D02*
D03*
X10261600D02*
D03*
X5907900Y4191000D02*
D03*
X6057900D02*
D03*
X7583030Y4165600D02*
D03*
X7733030D02*
D03*
D13*
X6248400Y4203700D02*
D03*
Y4353700D02*
D03*
X7923530Y4165600D02*
D03*
Y4315600D02*
D03*
D14*
X8143240Y8728000D02*
D03*
Y8678000D02*
D03*
Y8628000D02*
D03*
Y8578000D02*
D03*
Y8528000D02*
D03*
Y8478000D02*
D03*
Y8428000D02*
D03*
Y8378000D02*
D03*
Y8328000D02*
D03*
Y8278000D02*
D03*
Y8228000D02*
D03*
Y8178000D02*
D03*
Y8128000D02*
D03*
Y8078000D02*
D03*
Y8028000D02*
D03*
Y7978000D02*
D03*
Y7928000D02*
D03*
Y7878000D02*
D03*
Y7828000D02*
D03*
Y7778000D02*
D03*
Y7728000D02*
D03*
Y7678000D02*
D03*
Y7628000D02*
D03*
Y7578000D02*
D03*
Y7528000D02*
D03*
X9687560D02*
D03*
Y7578000D02*
D03*
Y7628000D02*
D03*
Y7678000D02*
D03*
Y7728000D02*
D03*
Y7778000D02*
D03*
Y7828000D02*
D03*
Y7878000D02*
D03*
Y7928000D02*
D03*
Y7978000D02*
D03*
Y8028000D02*
D03*
Y8078000D02*
D03*
Y8128000D02*
D03*
Y8178000D02*
D03*
Y8228000D02*
D03*
Y8278000D02*
D03*
Y8328000D02*
D03*
Y8378000D02*
D03*
Y8428000D02*
D03*
Y8478000D02*
D03*
Y8528000D02*
D03*
Y8578000D02*
D03*
Y8628000D02*
D03*
Y8678000D02*
D03*
Y8728000D02*
D03*
D15*
X8315400Y7355840D02*
D03*
X8365400D02*
D03*
X8415400D02*
D03*
X8465400D02*
D03*
X8515400D02*
D03*
X8565400D02*
D03*
X8615400D02*
D03*
X8665400D02*
D03*
X8715400D02*
D03*
X8765400D02*
D03*
X8815400D02*
D03*
X8865400D02*
D03*
X8915400D02*
D03*
X8965400D02*
D03*
X9015400D02*
D03*
X9065400D02*
D03*
X9115400D02*
D03*
X9165400D02*
D03*
X9215400D02*
D03*
X9265400D02*
D03*
X9315400D02*
D03*
X9365400D02*
D03*
X9415400D02*
D03*
X9465400D02*
D03*
X9515400D02*
D03*
Y8900160D02*
D03*
X9465400D02*
D03*
X9415400D02*
D03*
X9365400D02*
D03*
X9315400D02*
D03*
X9265400D02*
D03*
X9215400D02*
D03*
X9165400D02*
D03*
X9115400D02*
D03*
X9065400D02*
D03*
X9015400D02*
D03*
X8965400D02*
D03*
X8915400D02*
D03*
X8865400D02*
D03*
X8815400D02*
D03*
X8765400D02*
D03*
X8715400D02*
D03*
X8665400D02*
D03*
X8615400D02*
D03*
X8565400D02*
D03*
X8515400D02*
D03*
X8465400D02*
D03*
X8415400D02*
D03*
X8365400D02*
D03*
X8315400D02*
D03*
D16*
X9836400Y5123800D02*
D03*
X10026400D02*
D03*
Y4883800D02*
D03*
X9931400D02*
D03*
X9836400D02*
D03*
D17*
X6496050Y4546600D02*
D03*
Y4451600D02*
D03*
Y4356600D02*
D03*
X6769100D02*
D03*
Y4451600D02*
D03*
Y4546600D02*
D03*
X8168005Y4527300D02*
D03*
Y4432300D02*
D03*
Y4337300D02*
D03*
X8441055D02*
D03*
Y4432300D02*
D03*
Y4527300D02*
D03*
D18*
X9927600Y9356300D02*
D03*
X10722600D02*
D03*
X9927600Y8906300D02*
D03*
X10722600D02*
D03*
D19*
X5252700Y8509000D02*
D03*
X6202700D02*
D03*
D20*
X4876800Y8550200D02*
D03*
Y8458200D02*
D03*
X6640310Y8325357D02*
D03*
Y8417357D02*
D03*
D21*
X10325100Y7380500D02*
D03*
X10579100D02*
D03*
X10325100Y8240500D02*
D03*
X10579100D02*
D03*
D22*
X7113200Y8128000D02*
D03*
X7263200D02*
D03*
X10505300Y8585200D02*
D03*
X10655300D02*
D03*
D23*
X6286500Y4574400D02*
D03*
Y4724400D02*
D03*
X7289800Y4341000D02*
D03*
Y4191000D02*
D03*
X7048500Y4342200D02*
D03*
Y4192200D02*
D03*
X6007100Y4939100D02*
D03*
Y4789100D02*
D03*
X7950200Y4559300D02*
D03*
Y4709300D02*
D03*
X8964930Y4318000D02*
D03*
Y4168000D02*
D03*
X8723630Y4318000D02*
D03*
Y4168000D02*
D03*
X7669530Y4912500D02*
D03*
Y4762500D02*
D03*
D24*
X5626100Y6032500D02*
D03*
Y6286500D02*
D03*
Y6540500D02*
D03*
Y6794500D02*
D03*
Y7048500D02*
D03*
Y7302500D02*
D03*
D25*
Y4038600D02*
D03*
Y5359400D02*
D03*
Y4699000D02*
D03*
X9296400Y6680200D02*
D03*
D26*
X5626100Y4292600D02*
D03*
Y5613400D02*
D03*
Y4953000D02*
D03*
X9296400Y6426200D02*
D03*
Y6172200D02*
D03*
Y5918200D02*
D03*
D27*
X10731500Y6299200D02*
D03*
Y6045200D02*
D03*
Y5791200D02*
D03*
Y5537200D02*
D03*
Y5283200D02*
D03*
Y5029200D02*
D03*
Y4775200D02*
D03*
Y4521200D02*
D03*
Y4267200D02*
D03*
X7353300Y9220200D02*
D03*
X7099300D02*
D03*
X6845300D02*
D03*
X6591300D02*
D03*
X6337300D02*
D03*
X6083300D02*
D03*
X5829300D02*
D03*
X5575300D02*
D03*
X5321300D02*
D03*
D28*
X10731500Y4013200D02*
D03*
D29*
X5067300Y9220200D02*
D03*
D30*
X8801100Y4051300D02*
D03*
X7289800Y4432300D02*
D03*
X7293596Y4076545D02*
D03*
X6324600Y4457700D02*
D03*
X6781800Y8242300D02*
D03*
X7772400Y8267700D02*
D03*
X10007600Y5270500D02*
D03*
X9842500Y4470400D02*
D03*
X9411675Y4726035D02*
D03*
X9550400Y4559300D02*
D03*
X9702800Y4546600D02*
D03*
X7925680Y7641500D02*
D03*
X9537700Y4800600D02*
D03*
X8439967Y7547140D02*
D03*
X8420100Y8445500D02*
D03*
X8313100Y8513308D02*
D03*
X8902700Y8407400D02*
D03*
X8686800Y8445500D02*
D03*
X8877300Y8140700D02*
D03*
X8973815Y8157459D02*
D03*
X9017000Y8420100D02*
D03*
X9080500Y8369300D02*
D03*
X8458200Y7975600D02*
D03*
X8534400Y8750300D02*
D03*
X8663570Y8678313D02*
D03*
X7912100Y8331200D02*
D03*
X7797800Y7683500D02*
D03*
X7848600Y7797800D02*
D03*
X7950200Y7861300D02*
D03*
X6946900Y8166100D02*
D03*
X6845300Y8039100D02*
D03*
X9169400Y7848600D02*
D03*
X9093200Y8775700D02*
D03*
X9893300Y8572500D02*
D03*
X9969500Y8661400D02*
D03*
X9423400Y7112000D02*
D03*
X10782300Y8674100D02*
D03*
Y8521700D02*
D03*
X10134600Y9321800D02*
D03*
X9969500Y9144000D02*
D03*
X10579100Y9182100D02*
D03*
X10528300Y9347200D02*
D03*
X9550400Y7162800D02*
D03*
X10769600D02*
D03*
X10579100D02*
D03*
X10388600Y7010400D02*
D03*
X10284912Y6907748D02*
D03*
X8102600Y4432300D02*
D03*
X7950200D02*
D03*
X7759700Y4368800D02*
D03*
X7620000D02*
D03*
X7747000Y4635500D02*
D03*
X7607300D02*
D03*
X6070600D02*
D03*
X5930900D02*
D03*
Y4394200D02*
D03*
X6070600D02*
D03*
X6464300Y4457700D02*
D03*
X6070600Y4038600D02*
D03*
X6286500D02*
D03*
X6527800Y4051300D02*
D03*
Y4191000D02*
D03*
X6743700D02*
D03*
Y4051300D02*
D03*
X6946900Y4076700D02*
D03*
X7124700D02*
D03*
X8216900Y4178300D02*
D03*
X8407400D02*
D03*
X8966200Y4051300D02*
D03*
X8636000D02*
D03*
X8407400Y4038600D02*
D03*
X8229600D02*
D03*
X7950200Y4013200D02*
D03*
X7721600D02*
D03*
X8280400Y7988300D02*
D03*
X8559800Y7975600D02*
D03*
X8699500D02*
D03*
X9014853Y7914247D02*
D03*
X8788400Y8572500D02*
D03*
X8547100Y8445500D02*
D03*
X9131300Y8610600D02*
D03*
X9144000Y8242300D02*
D03*
X9131300Y8470900D02*
D03*
X9041200Y8051800D02*
D03*
X9092000Y8191500D02*
D03*
X9283700Y7874000D02*
D03*
X9410700Y7924800D02*
D03*
X9525895Y7861494D02*
D03*
X8293100Y7493000D02*
D03*
X7467600Y7467600D02*
D03*
X6985000Y4432300D02*
D03*
X8077200Y5232400D02*
D03*
X7861300D02*
D03*
X7658100D02*
D03*
X8077200Y5041900D02*
D03*
X7861300D02*
D03*
X7658100D02*
D03*
X8089900Y5473700D02*
D03*
X7874000D02*
D03*
X7683500Y5486400D02*
D03*
X8902700Y5524500D02*
D03*
X8661400D02*
D03*
X8432800Y5511800D02*
D03*
X9423400Y5067300D02*
D03*
X7175500Y5626100D02*
D03*
X6985000D02*
D03*
X6743700D02*
D03*
X6197600Y5080000D02*
D03*
X6451600Y5308600D02*
D03*
X6235700Y5321300D02*
D03*
X6007100D02*
D03*
X6413500Y5067300D02*
D03*
X8674100Y7493000D02*
D03*
X8420100Y7646246D02*
D03*
X7988300Y8216900D02*
D03*
X8470900Y8089900D02*
D03*
X8357051Y8089449D02*
D03*
X8801100Y8470900D02*
D03*
X8966200Y8572500D02*
D03*
X8432800Y8712200D02*
D03*
X9512300Y7518400D02*
D03*
X9550400Y7658100D02*
D03*
X9499600Y8153400D02*
D03*
X9525000Y8255000D02*
D03*
X8313100Y8623300D02*
D03*
X9519654Y8717546D02*
D03*
X8494801Y7631720D02*
D03*
X7594600Y6083300D02*
D03*
X7721600Y7442200D02*
D03*
X7594600D02*
D03*
X7874000Y8039100D02*
D03*
X8686800Y9131300D02*
D03*
X7589161Y6284990D02*
D03*
X7594600Y6527800D02*
D03*
X9956800Y8432800D02*
D03*
X7772400Y7162800D02*
D03*
X9385300Y9067800D02*
D03*
X7905197Y8503203D02*
D03*
X10515600Y8407400D02*
D03*
X10121900Y8597900D02*
D03*
X10147300Y9118600D02*
D03*
X10287000Y9029700D02*
D03*
X10210800Y8686800D02*
D03*
X10693400Y8420100D02*
D03*
X9906000Y7137400D02*
D03*
X9804400Y5334000D02*
D03*
X9791700Y7048500D02*
D03*
X9296400Y7099300D02*
D03*
X9880600Y4330700D02*
D03*
X9232900Y5397500D02*
D03*
X9512300Y5410200D02*
D03*
X8712200Y8128000D02*
D03*
X8585200Y8102600D02*
D03*
X8775700Y7810500D02*
D03*
X8940800Y7797800D02*
D03*
X7797800Y8407400D02*
D03*
X8318500Y8750300D02*
D03*
X8813800Y4432300D02*
D03*
X8699500Y4419600D02*
D03*
X8940800Y4432300D02*
D03*
X9385300Y8509000D02*
D03*
X9525000Y8356600D02*
D03*
X9512300Y8483600D02*
D03*
X9473000Y8039100D02*
D03*
X9290874Y7547314D02*
D03*
X9207500Y7480300D02*
D03*
X8260440Y7665359D02*
D03*
X8610600Y7593400D02*
D03*
X8760504Y7591921D02*
D03*
X7137400Y4432300D02*
D03*
X6007100Y5080000D02*
D03*
Y5562600D02*
D03*
X6515100Y5575300D02*
D03*
X6261100D02*
D03*
%TF.MD5,ddc3517459726563f6c5609758a6dae4*%
M02*
