G04*
G04 #@! TF.GenerationSoftware,Altium Limited,Altium Designer,24.6.1 (21)*
G04*
G04 Layer_Color=2752767*
%FSLAX25Y25*%
%MOIN*%
G70*
G04*
G04 #@! TF.SameCoordinates,53350382-22CE-4EB4-8EAE-C997BD2E2089*
G04*
G04*
G04 #@! TF.FilePolarity,Positive*
G04*
G01*
G75*
%ADD61C,0.00500*%
%ADD62C,0.00667*%
D61*
X219500Y235500D02*
X220500Y237500D01*
X219500Y239500D01*
X221500Y238500D01*
X223500Y239500D01*
X222500Y237500D01*
X223500Y235500D01*
X221500Y236500D01*
X219500Y235500D01*
Y245500D02*
X220500Y247500D01*
X219500Y249500D01*
X221500Y248500D01*
X223500Y249500D01*
X222500Y247500D01*
X223500Y245500D01*
X221500Y246500D01*
X219500Y245500D01*
Y255500D02*
X220500Y257500D01*
X219500Y259500D01*
X221500Y258500D01*
X223500Y259500D01*
X222500Y257500D01*
X223500Y255500D01*
X221500Y256500D01*
X219500Y255500D01*
Y265500D02*
X220500Y267500D01*
X219500Y269500D01*
X221500Y268500D01*
X223500Y269500D01*
X222500Y267500D01*
X223500Y265500D01*
X221500Y266500D01*
X219500Y265500D01*
Y275500D02*
X220500Y277500D01*
X219500Y279500D01*
X221500Y278500D01*
X223500Y279500D01*
X222500Y277500D01*
X223500Y275500D01*
X221500Y276500D01*
X219500Y275500D01*
Y285500D02*
X220500Y287500D01*
X219500Y289500D01*
X221500Y288500D01*
X223500Y289500D01*
X222500Y287500D01*
X223500Y285500D01*
X221500Y286500D01*
X219500Y285500D01*
X420500Y246000D02*
Y250000D01*
X424500D01*
Y246000D01*
X420500D01*
Y236000D02*
Y240000D01*
X424500D01*
Y236000D01*
X420500D01*
Y226000D02*
Y230000D01*
X424500D01*
Y226000D01*
X420500D01*
Y216000D02*
Y220000D01*
X424500D01*
Y216000D01*
X420500D01*
Y206000D02*
Y210000D01*
X424500D01*
Y206000D01*
X420500D01*
Y196000D02*
Y200000D01*
X424500D01*
Y196000D01*
X420500D01*
Y186000D02*
Y190000D01*
X424500D01*
Y186000D01*
X420500D01*
Y176000D02*
Y180000D01*
X424500D01*
Y176000D01*
X420500D01*
Y166000D02*
Y170000D01*
X424500D01*
Y166000D01*
X420500D01*
Y156000D02*
Y160000D01*
X424500D01*
Y156000D01*
X420500D01*
X287500Y361000D02*
Y365000D01*
X291500D01*
Y361000D01*
X287500D01*
X277500D02*
Y365000D01*
X281500D01*
Y361000D01*
X277500D01*
X267500D02*
Y365000D01*
X271500D01*
Y361000D01*
X267500D01*
X257500D02*
Y365000D01*
X261500D01*
Y361000D01*
X257500D01*
X247500D02*
Y365000D01*
X251500D01*
Y361000D01*
X247500D01*
X237500D02*
Y365000D01*
X241500D01*
Y361000D01*
X237500D01*
X227500D02*
Y365000D01*
X231500D01*
Y361000D01*
X227500D01*
X217500D02*
Y365000D01*
X221500D01*
Y361000D01*
X217500D01*
X207500D02*
Y365000D01*
X211500D01*
Y361000D01*
X207500D01*
X197500D02*
Y365000D01*
X201500D01*
Y361000D01*
X197500D01*
X346500Y157500D02*
X347500Y158500D01*
X348500D01*
X347500Y159500D01*
X348500Y160500D01*
X347500D01*
X346500Y161500D01*
X345500Y160500D01*
X344500D01*
X345500Y159500D01*
X344500Y158500D01*
X345500D01*
X346500Y157500D01*
X287000Y172500D02*
X288000Y173500D01*
X289000D01*
X288000Y174500D01*
X289000Y175500D01*
X288000D01*
X287000Y176500D01*
X286000Y175500D01*
X285000D01*
X286000Y174500D01*
X285000Y173500D01*
X286000D01*
X287000Y172500D01*
X287150Y158494D02*
X288149Y159494D01*
X289149D01*
X288149Y160494D01*
X289149Y161494D01*
X288149D01*
X287150Y162494D01*
X286150Y161494D01*
X285150D01*
X286150Y160494D01*
X285150Y159494D01*
X286150D01*
X287150Y158494D01*
X249000Y173500D02*
X250000Y174500D01*
X251000D01*
X250000Y175500D01*
X251000Y176500D01*
X250000D01*
X249000Y177500D01*
X248000Y176500D01*
X247000D01*
X248000Y175500D01*
X247000Y174500D01*
X248000D01*
X249000Y173500D01*
X267000Y322500D02*
X268000Y323500D01*
X269000D01*
X268000Y324500D01*
X269000Y325500D01*
X268000D01*
X267000Y326500D01*
X266000Y325500D01*
X265000D01*
X266000Y324500D01*
X265000Y323500D01*
X266000D01*
X267000Y322500D01*
X306000Y323500D02*
X307000Y324500D01*
X308000D01*
X307000Y325500D01*
X308000Y326500D01*
X307000D01*
X306000Y327500D01*
X305000Y326500D01*
X304000D01*
X305000Y325500D01*
X304000Y324500D01*
X305000D01*
X306000Y323500D01*
X394000Y205500D02*
X395000Y206500D01*
X396000D01*
X395000Y207500D01*
X396000Y208500D01*
X395000D01*
X394000Y209500D01*
X393000Y208500D01*
X392000D01*
X393000Y207500D01*
X392000Y206500D01*
X393000D01*
X394000Y205500D01*
X387500Y174000D02*
X388500Y175000D01*
X389500D01*
X388500Y176000D01*
X389500Y177000D01*
X388500D01*
X387500Y178000D01*
X386500Y177000D01*
X385500D01*
X386500Y176000D01*
X385500Y175000D01*
X386500D01*
X387500Y174000D01*
X370538Y184064D02*
X371538Y185064D01*
X372538D01*
X371538Y186064D01*
X372538Y187064D01*
X371538D01*
X370538Y188064D01*
X369538Y187064D01*
X368538D01*
X369538Y186064D01*
X368538Y185064D01*
X369538D01*
X370538Y184064D01*
X376000Y177500D02*
X377000Y178500D01*
X378000D01*
X377000Y179500D01*
X378000Y180500D01*
X377000D01*
X376000Y181500D01*
X375000Y180500D01*
X374000D01*
X375000Y179500D01*
X374000Y178500D01*
X375000D01*
X376000Y177500D01*
X382000Y177000D02*
X383000Y178000D01*
X384000D01*
X383000Y179000D01*
X384000Y180000D01*
X383000D01*
X382000Y181000D01*
X381000Y180000D01*
X380000D01*
X381000Y179000D01*
X380000Y178000D01*
X381000D01*
X382000Y177000D01*
X312035Y298847D02*
X313035Y299847D01*
X314035D01*
X313035Y300847D01*
X314035Y301847D01*
X313035D01*
X312035Y302847D01*
X311035Y301847D01*
X310035D01*
X311035Y300847D01*
X310035Y299847D01*
X311035D01*
X312035Y298847D01*
X375500Y187000D02*
X376500Y188000D01*
X377500D01*
X376500Y189000D01*
X377500Y190000D01*
X376500D01*
X375500Y191000D01*
X374500Y190000D01*
X373500D01*
X374500Y189000D01*
X373500Y188000D01*
X374500D01*
X375500Y187000D01*
X332282Y295131D02*
X333282Y296131D01*
X334282D01*
X333282Y297131D01*
X334282Y298131D01*
X333282D01*
X332282Y299131D01*
X331282Y298131D01*
X330282D01*
X331282Y297131D01*
X330282Y296131D01*
X331282D01*
X332282Y295131D01*
X331500Y330500D02*
X332500Y331500D01*
X333500D01*
X332500Y332500D01*
X333500Y333500D01*
X332500D01*
X331500Y334500D01*
X330500Y333500D01*
X329500D01*
X330500Y332500D01*
X329500Y331500D01*
X330500D01*
X331500Y330500D01*
X327287Y333170D02*
X328287Y334170D01*
X329287D01*
X328287Y335170D01*
X329287Y336170D01*
X328287D01*
X327287Y337170D01*
X326287Y336170D01*
X325287D01*
X326287Y335170D01*
X325287Y334170D01*
X326287D01*
X327287Y333170D01*
X350500Y329000D02*
X351500Y330000D01*
X352500D01*
X351500Y331000D01*
X352500Y332000D01*
X351500D01*
X350500Y333000D01*
X349500Y332000D01*
X348500D01*
X349500Y331000D01*
X348500Y330000D01*
X349500D01*
X350500Y329000D01*
X342000Y330500D02*
X343000Y331500D01*
X344000D01*
X343000Y332500D01*
X344000Y333500D01*
X343000D01*
X342000Y334500D01*
X341000Y333500D01*
X340000D01*
X341000Y332500D01*
X340000Y331500D01*
X341000D01*
X342000Y330500D01*
X349500Y318500D02*
X350500Y319500D01*
X351500D01*
X350500Y320500D01*
X351500Y321500D01*
X350500D01*
X349500Y322500D01*
X348500Y321500D01*
X347500D01*
X348500Y320500D01*
X347500Y319500D01*
X348500D01*
X349500Y318500D01*
X353300Y319160D02*
X354300Y320160D01*
X355300D01*
X354300Y321160D01*
X355300Y322160D01*
X354300D01*
X353300Y323160D01*
X352300Y322160D01*
X351300D01*
X352300Y321160D01*
X351300Y320160D01*
X352300D01*
X353300Y319160D01*
X355000Y329500D02*
X356000Y330500D01*
X357000D01*
X356000Y331500D01*
X357000Y332500D01*
X356000D01*
X355000Y333500D01*
X354000Y332500D01*
X353000D01*
X354000Y331500D01*
X353000Y330500D01*
X354000D01*
X355000Y329500D01*
X357500Y327500D02*
X358500Y328500D01*
X359500D01*
X358500Y329500D01*
X359500Y330500D01*
X358500D01*
X357500Y331500D01*
X356500Y330500D01*
X355500D01*
X356500Y329500D01*
X355500Y328500D01*
X356500D01*
X357500Y327500D01*
X333000Y312000D02*
X334000Y313000D01*
X335000D01*
X334000Y314000D01*
X335000Y315000D01*
X334000D01*
X333000Y316000D01*
X332000Y315000D01*
X331000D01*
X332000Y314000D01*
X331000Y313000D01*
X332000D01*
X333000Y312000D01*
X336000Y342500D02*
X337000Y343500D01*
X338000D01*
X337000Y344500D01*
X338000Y345500D01*
X337000D01*
X336000Y346500D01*
X335000Y345500D01*
X334000D01*
X335000Y344500D01*
X334000Y343500D01*
X335000D01*
X336000Y342500D01*
X341085Y339666D02*
X342085Y340666D01*
X343085D01*
X342085Y341666D01*
X343085Y342666D01*
X342085D01*
X341085Y343666D01*
X340085Y342666D01*
X339085D01*
X340085Y341666D01*
X339085Y340666D01*
X340085D01*
X341085Y339666D01*
X311500Y326000D02*
X312500Y327000D01*
X313500D01*
X312500Y328000D01*
X313500Y329000D01*
X312500D01*
X311500Y330000D01*
X310500Y329000D01*
X309500D01*
X310500Y328000D01*
X309500Y327000D01*
X310500D01*
X311500Y326000D01*
X307000Y300500D02*
X308000Y301500D01*
X309000D01*
X308000Y302500D01*
X309000Y303500D01*
X308000D01*
X307000Y304500D01*
X306000Y303500D01*
X305000D01*
X306000Y302500D01*
X305000Y301500D01*
X306000D01*
X307000Y300500D01*
X309000Y305000D02*
X310000Y306000D01*
X311000D01*
X310000Y307000D01*
X311000Y308000D01*
X310000D01*
X309000Y309000D01*
X308000Y308000D01*
X307000D01*
X308000Y307000D01*
X307000Y306000D01*
X308000D01*
X309000Y305000D01*
X313000Y307500D02*
X314000Y308500D01*
X315000D01*
X314000Y309500D01*
X315000Y310500D01*
X314000D01*
X313000Y311500D01*
X312000Y310500D01*
X311000D01*
X312000Y309500D01*
X311000Y308500D01*
X312000D01*
X313000Y307500D01*
X273500Y319500D02*
X274500Y320500D01*
X275500D01*
X274500Y321500D01*
X275500Y322500D01*
X274500D01*
X273500Y323500D01*
X272500Y322500D01*
X271500D01*
X272500Y321500D01*
X271500Y320500D01*
X272500D01*
X273500Y319500D01*
X269500Y314500D02*
X270500Y315500D01*
X271500D01*
X270500Y316500D01*
X271500Y317500D01*
X270500D01*
X269500Y318500D01*
X268500Y317500D01*
X267500D01*
X268500Y316500D01*
X267500Y315500D01*
X268500D01*
X269500Y314500D01*
X361000Y307000D02*
X362000Y308000D01*
X363000D01*
X362000Y309000D01*
X363000Y310000D01*
X362000D01*
X361000Y311000D01*
X360000Y310000D01*
X359000D01*
X360000Y309000D01*
X359000Y308000D01*
X360000D01*
X361000Y307000D01*
X358000Y343500D02*
X359000Y344500D01*
X360000D01*
X359000Y345500D01*
X360000Y346500D01*
X359000D01*
X358000Y347500D01*
X357000Y346500D01*
X356000D01*
X357000Y345500D01*
X356000Y344500D01*
X357000D01*
X358000Y343500D01*
X389500Y335500D02*
X390500Y336500D01*
X391500D01*
X390500Y337500D01*
X391500Y338500D01*
X390500D01*
X389500Y339500D01*
X388500Y338500D01*
X387500D01*
X388500Y337500D01*
X387500Y336500D01*
X388500D01*
X389500Y335500D01*
X392500Y339000D02*
X393500Y340000D01*
X394500D01*
X393500Y341000D01*
X394500Y342000D01*
X393500D01*
X392500Y343000D01*
X391500Y342000D01*
X390500D01*
X391500Y341000D01*
X390500Y340000D01*
X391500D01*
X392500Y339000D01*
X371000Y278000D02*
X372000Y279000D01*
X373000D01*
X372000Y280000D01*
X373000Y281000D01*
X372000D01*
X371000Y282000D01*
X370000Y281000D01*
X369000D01*
X370000Y280000D01*
X369000Y279000D01*
X370000D01*
X371000Y278000D01*
X424500Y339500D02*
X425500Y340500D01*
X426500D01*
X425500Y341500D01*
X426500Y342500D01*
X425500D01*
X424500Y343500D01*
X423500Y342500D01*
X422500D01*
X423500Y341500D01*
X422500Y340500D01*
X423500D01*
X424500Y339500D01*
Y333500D02*
X425500Y334500D01*
X426500D01*
X425500Y335500D01*
X426500Y336500D01*
X425500D01*
X424500Y337500D01*
X423500Y336500D01*
X422500D01*
X423500Y335500D01*
X422500Y334500D01*
X423500D01*
X424500Y333500D01*
X399000Y365000D02*
X400000Y366000D01*
X401000D01*
X400000Y367000D01*
X401000Y368000D01*
X400000D01*
X399000Y369000D01*
X398000Y368000D01*
X397000D01*
X398000Y367000D01*
X397000Y366000D01*
X398000D01*
X399000Y365000D01*
X392500Y358000D02*
X393500Y359000D01*
X394500D01*
X393500Y360000D01*
X394500Y361000D01*
X393500D01*
X392500Y362000D01*
X391500Y361000D01*
X390500D01*
X391500Y360000D01*
X390500Y359000D01*
X391500D01*
X392500Y358000D01*
X416500Y359500D02*
X417500Y360500D01*
X418500D01*
X417500Y361500D01*
X418500Y362500D01*
X417500D01*
X416500Y363500D01*
X415500Y362500D01*
X414500D01*
X415500Y361500D01*
X414500Y360500D01*
X415500D01*
X416500Y359500D01*
X414500Y366000D02*
X415500Y367000D01*
X416500D01*
X415500Y368000D01*
X416500Y369000D01*
X415500D01*
X414500Y370000D01*
X413500Y369000D01*
X412500D01*
X413500Y368000D01*
X412500Y367000D01*
X413500D01*
X414500Y366000D01*
X376000Y280000D02*
X377000Y281000D01*
X378000D01*
X377000Y282000D01*
X378000Y283000D01*
X377000D01*
X376000Y284000D01*
X375000Y283000D01*
X374000D01*
X375000Y282000D01*
X374000Y281000D01*
X375000D01*
X376000Y280000D01*
X424000D02*
X425000Y281000D01*
X426000D01*
X425000Y282000D01*
X426000Y283000D01*
X425000D01*
X424000Y284000D01*
X423000Y283000D01*
X422000D01*
X423000Y282000D01*
X422000Y281000D01*
X423000D01*
X424000Y280000D01*
X416500D02*
X417500Y281000D01*
X418500D01*
X417500Y282000D01*
X418500Y283000D01*
X417500D01*
X416500Y284000D01*
X415500Y283000D01*
X414500D01*
X415500Y282000D01*
X414500Y281000D01*
X415500D01*
X416500Y280000D01*
X409000Y274000D02*
X410000Y275000D01*
X411000D01*
X410000Y276000D01*
X411000Y277000D01*
X410000D01*
X409000Y278000D01*
X408000Y277000D01*
X407000D01*
X408000Y276000D01*
X407000Y275000D01*
X408000D01*
X409000Y274000D01*
X404918Y269959D02*
X405918Y270959D01*
X406918D01*
X405918Y271959D01*
X406918Y272959D01*
X405918D01*
X404918Y273959D01*
X403918Y272959D01*
X402918D01*
X403918Y271959D01*
X402918Y270959D01*
X403918D01*
X404918Y269959D01*
X319000Y172500D02*
X320000Y173500D01*
X321000D01*
X320000Y174500D01*
X321000Y175500D01*
X320000D01*
X319000Y176500D01*
X318000Y175500D01*
X317000D01*
X318000Y174500D01*
X317000Y173500D01*
X318000D01*
X319000Y172500D01*
X313000D02*
X314000Y173500D01*
X315000D01*
X314000Y174500D01*
X315000Y175500D01*
X314000D01*
X313000Y176500D01*
X312000Y175500D01*
X311000D01*
X312000Y174500D01*
X311000Y173500D01*
X312000D01*
X313000Y172500D01*
X305500Y170000D02*
X306500Y171000D01*
X307500D01*
X306500Y172000D01*
X307500Y173000D01*
X306500D01*
X305500Y174000D01*
X304500Y173000D01*
X303500D01*
X304500Y172000D01*
X303500Y171000D01*
X304500D01*
X305500Y170000D01*
X300000D02*
X301000Y171000D01*
X302000D01*
X301000Y172000D01*
X302000Y173000D01*
X301000D01*
X300000Y174000D01*
X299000Y173000D01*
X298000D01*
X299000Y172000D01*
X298000Y171000D01*
X299000D01*
X300000Y170000D01*
X305000Y180500D02*
X306000Y181500D01*
X307000D01*
X306000Y182500D01*
X307000Y183500D01*
X306000D01*
X305000Y184500D01*
X304000Y183500D01*
X303000D01*
X304000Y182500D01*
X303000Y181500D01*
X304000D01*
X305000Y180500D01*
X299500D02*
X300500Y181500D01*
X301500D01*
X300500Y182500D01*
X301500Y183500D01*
X300500D01*
X299500Y184500D01*
X298500Y183500D01*
X297500D01*
X298500Y182500D01*
X297500Y181500D01*
X298500D01*
X299500Y180500D01*
X239000D02*
X240000Y181500D01*
X241000D01*
X240000Y182500D01*
X241000Y183500D01*
X240000D01*
X239000Y184500D01*
X238000Y183500D01*
X237000D01*
X238000Y182500D01*
X237000Y181500D01*
X238000D01*
X239000Y180500D01*
X233500D02*
X234500Y181500D01*
X235500D01*
X234500Y182500D01*
X235500Y183500D01*
X234500D01*
X233500Y184500D01*
X232500Y183500D01*
X231500D01*
X232500Y182500D01*
X231500Y181500D01*
X232500D01*
X233500Y180500D01*
Y171000D02*
X234500Y172000D01*
X235500D01*
X234500Y173000D01*
X235500Y174000D01*
X234500D01*
X233500Y175000D01*
X232500Y174000D01*
X231500D01*
X232500Y173000D01*
X231500Y172000D01*
X232500D01*
X233500Y171000D01*
X239000D02*
X240000Y172000D01*
X241000D01*
X240000Y173000D01*
X241000Y174000D01*
X240000D01*
X239000Y175000D01*
X238000Y174000D01*
X237000D01*
X238000Y173000D01*
X237000Y172000D01*
X238000D01*
X239000Y171000D01*
X254500Y173500D02*
X255500Y174500D01*
X256500D01*
X255500Y175500D01*
X256500Y176500D01*
X255500D01*
X254500Y177500D01*
X253500Y176500D01*
X252500D01*
X253500Y175500D01*
X252500Y174500D01*
X253500D01*
X254500Y173500D01*
X239000Y157000D02*
X240000Y158000D01*
X241000D01*
X240000Y159000D01*
X241000Y160000D01*
X240000D01*
X239000Y161000D01*
X238000Y160000D01*
X237000D01*
X238000Y159000D01*
X237000Y158000D01*
X238000D01*
X239000Y157000D01*
X247500D02*
X248500Y158000D01*
X249500D01*
X248500Y159000D01*
X249500Y160000D01*
X248500D01*
X247500Y161000D01*
X246500Y160000D01*
X245500D01*
X246500Y159000D01*
X245500Y158000D01*
X246500D01*
X247500Y157000D01*
X257000Y157500D02*
X258000Y158500D01*
X259000D01*
X258000Y159500D01*
X259000Y160500D01*
X258000D01*
X257000Y161500D01*
X256000Y160500D01*
X255000D01*
X256000Y159500D01*
X255000Y158500D01*
X256000D01*
X257000Y157500D01*
Y163000D02*
X258000Y164000D01*
X259000D01*
X258000Y165000D01*
X259000Y166000D01*
X258000D01*
X257000Y167000D01*
X256000Y166000D01*
X255000D01*
X256000Y165000D01*
X255000Y164000D01*
X256000D01*
X257000Y163000D01*
X265500D02*
X266500Y164000D01*
X267500D01*
X266500Y165000D01*
X267500Y166000D01*
X266500D01*
X265500Y167000D01*
X264500Y166000D01*
X263500D01*
X264500Y165000D01*
X263500Y164000D01*
X264500D01*
X265500Y163000D01*
Y157500D02*
X266500Y158500D01*
X267500D01*
X266500Y159500D01*
X267500Y160500D01*
X266500D01*
X265500Y161500D01*
X264500Y160500D01*
X263500D01*
X264500Y159500D01*
X263500Y158500D01*
X264500D01*
X265500Y157500D01*
X273500Y158500D02*
X274500Y159500D01*
X275500D01*
X274500Y160500D01*
X275500Y161500D01*
X274500D01*
X273500Y162500D01*
X272500Y161500D01*
X271500D01*
X272500Y160500D01*
X271500Y159500D01*
X272500D01*
X273500Y158500D01*
X280500D02*
X281500Y159500D01*
X282500D01*
X281500Y160500D01*
X282500Y161500D01*
X281500D01*
X280500Y162500D01*
X279500Y161500D01*
X278500D01*
X279500Y160500D01*
X278500Y159500D01*
X279500D01*
X280500Y158500D01*
X323500Y162500D02*
X324500Y163500D01*
X325500D01*
X324500Y164500D01*
X325500Y165500D01*
X324500D01*
X323500Y166500D01*
X322500Y165500D01*
X321500D01*
X322500Y164500D01*
X321500Y163500D01*
X322500D01*
X323500Y162500D01*
X331000D02*
X332000Y163500D01*
X333000D01*
X332000Y164500D01*
X333000Y165500D01*
X332000D01*
X331000Y166500D01*
X330000Y165500D01*
X329000D01*
X330000Y164500D01*
X329000Y163500D01*
X330000D01*
X331000Y162500D01*
X353000Y157500D02*
X354000Y158500D01*
X355000D01*
X354000Y159500D01*
X355000Y160500D01*
X354000D01*
X353000Y161500D01*
X352000Y160500D01*
X351000D01*
X352000Y159500D01*
X351000Y158500D01*
X352000D01*
X353000Y157500D01*
X340000D02*
X341000Y158500D01*
X342000D01*
X341000Y159500D01*
X342000Y160500D01*
X341000D01*
X340000Y161500D01*
X339000Y160500D01*
X338000D01*
X339000Y159500D01*
X338000Y158500D01*
X339000D01*
X340000Y157500D01*
X331000Y157000D02*
X332000Y158000D01*
X333000D01*
X332000Y159000D01*
X333000Y160000D01*
X332000D01*
X331000Y161000D01*
X330000Y160000D01*
X329000D01*
X330000Y159000D01*
X329000Y158000D01*
X330000D01*
X331000Y157000D01*
X324000D02*
X325000Y158000D01*
X326000D01*
X325000Y159000D01*
X326000Y160000D01*
X325000D01*
X324000Y161000D01*
X323000Y160000D01*
X322000D01*
X323000Y159000D01*
X322000Y158000D01*
X323000D01*
X324000Y157000D01*
X313000Y156000D02*
X314000Y157000D01*
X315000D01*
X314000Y158000D01*
X315000Y159000D01*
X314000D01*
X313000Y160000D01*
X312000Y159000D01*
X311000D01*
X312000Y158000D01*
X311000Y157000D01*
X312000D01*
X313000Y156000D01*
X304000D02*
X305000Y157000D01*
X306000D01*
X305000Y158000D01*
X306000Y159000D01*
X305000D01*
X304000Y160000D01*
X303000Y159000D01*
X302000D01*
X303000Y158000D01*
X302000Y157000D01*
X303000D01*
X304000Y156000D01*
X326000Y312500D02*
X327000Y313500D01*
X328000D01*
X327000Y314500D01*
X328000Y315500D01*
X327000D01*
X326000Y316500D01*
X325000Y315500D01*
X324000D01*
X325000Y314500D01*
X324000Y313500D01*
X325000D01*
X326000Y312500D01*
X337000Y312000D02*
X338000Y313000D01*
X339000D01*
X338000Y314000D01*
X339000Y315000D01*
X338000D01*
X337000Y316000D01*
X336000Y315000D01*
X335000D01*
X336000Y314000D01*
X335000Y313000D01*
X336000D01*
X337000Y312000D01*
X342500D02*
X343500Y313000D01*
X344500D01*
X343500Y314000D01*
X344500Y315000D01*
X343500D01*
X342500Y316000D01*
X341500Y315000D01*
X340500D01*
X341500Y314000D01*
X340500Y313000D01*
X341500D01*
X342500Y312000D01*
X354915Y309584D02*
X355915Y310584D01*
X356915D01*
X355915Y311584D01*
X356915Y312584D01*
X355915D01*
X354915Y313584D01*
X353916Y312584D01*
X352916D01*
X353916Y311584D01*
X352916Y310584D01*
X353916D01*
X354915Y309584D01*
X346000Y335500D02*
X347000Y336500D01*
X348000D01*
X347000Y337500D01*
X348000Y338500D01*
X347000D01*
X346000Y339500D01*
X345000Y338500D01*
X344000D01*
X345000Y337500D01*
X344000Y336500D01*
X345000D01*
X346000Y335500D01*
X336500Y330500D02*
X337500Y331500D01*
X338500D01*
X337500Y332500D01*
X338500Y333500D01*
X337500D01*
X336500Y334500D01*
X335500Y333500D01*
X334500D01*
X335500Y332500D01*
X334500Y331500D01*
X335500D01*
X336500Y330500D01*
X359500Y337000D02*
X360500Y338000D01*
X361500D01*
X360500Y339000D01*
X361500Y340000D01*
X360500D01*
X359500Y341000D01*
X358500Y340000D01*
X357500D01*
X358500Y339000D01*
X357500Y338000D01*
X358500D01*
X359500Y337000D01*
X360000Y322500D02*
X361000Y323500D01*
X362000D01*
X361000Y324500D01*
X362000Y325500D01*
X361000D01*
X360000Y326500D01*
X359000Y325500D01*
X358000D01*
X359000Y324500D01*
X358000Y323500D01*
X359000D01*
X360000Y322500D01*
X359500Y331500D02*
X360500Y332500D01*
X361500D01*
X360500Y333500D01*
X361500Y334500D01*
X360500D01*
X359500Y335500D01*
X358500Y334500D01*
X357500D01*
X358500Y333500D01*
X357500Y332500D01*
X358500D01*
X359500Y331500D01*
X355953Y315000D02*
X356953Y316000D01*
X357953D01*
X356953Y317000D01*
X357953Y318000D01*
X356953D01*
X355953Y319000D01*
X354953Y318000D01*
X353953D01*
X354953Y317000D01*
X353953Y316000D01*
X354953D01*
X355953Y315000D01*
X357953Y320500D02*
X358953Y321500D01*
X359953D01*
X358953Y322500D01*
X359953Y323500D01*
X358953D01*
X357953Y324500D01*
X356953Y323500D01*
X355953D01*
X356953Y322500D01*
X355953Y321500D01*
X356953D01*
X357953Y320500D01*
X365500Y308000D02*
X366500Y309000D01*
X367500D01*
X366500Y310000D01*
X367500Y311000D01*
X366500D01*
X365500Y312000D01*
X364500Y311000D01*
X363500D01*
X364500Y310000D01*
X363500Y309000D01*
X364500D01*
X365500Y308000D01*
X370500Y310000D02*
X371500Y311000D01*
X372500D01*
X371500Y312000D01*
X372500Y313000D01*
X371500D01*
X370500Y314000D01*
X369500Y313000D01*
X368500D01*
X369500Y312000D01*
X368500Y311000D01*
X369500D01*
X370500Y310000D01*
X375035Y307508D02*
X376035Y308508D01*
X377035D01*
X376035Y309508D01*
X377035Y310508D01*
X376035D01*
X375035Y311508D01*
X374035Y310508D01*
X373035D01*
X374035Y309508D01*
X373035Y308508D01*
X374035D01*
X375035Y307508D01*
X326500Y293000D02*
X327500Y294000D01*
X328500D01*
X327500Y295000D01*
X328500Y296000D01*
X327500D01*
X326500Y297000D01*
X325500Y296000D01*
X324500D01*
X325500Y295000D01*
X324500Y294000D01*
X325500D01*
X326500Y293000D01*
X294000Y292000D02*
X295000Y293000D01*
X296000D01*
X295000Y294000D01*
X296000Y295000D01*
X295000D01*
X294000Y296000D01*
X293000Y295000D01*
X292000D01*
X293000Y294000D01*
X292000Y293000D01*
X293000D01*
X294000Y292000D01*
X275000Y172500D02*
X276000Y173500D01*
X277000D01*
X276000Y174500D01*
X277000Y175500D01*
X276000D01*
X275000Y176500D01*
X274000Y175500D01*
X273000D01*
X274000Y174500D01*
X273000Y173500D01*
X274000D01*
X275000Y172500D01*
X318000Y204000D02*
X319000Y205000D01*
X320000D01*
X319000Y206000D01*
X320000Y207000D01*
X319000D01*
X318000Y208000D01*
X317000Y207000D01*
X316000D01*
X317000Y206000D01*
X316000Y205000D01*
X317000D01*
X318000Y204000D01*
X309500D02*
X310500Y205000D01*
X311500D01*
X310500Y206000D01*
X311500Y207000D01*
X310500D01*
X309500Y208000D01*
X308500Y207000D01*
X307500D01*
X308500Y206000D01*
X307500Y205000D01*
X308500D01*
X309500Y204000D01*
X301500D02*
X302500Y205000D01*
X303500D01*
X302500Y206000D01*
X303500Y207000D01*
X302500D01*
X301500Y208000D01*
X300500Y207000D01*
X299500D01*
X300500Y206000D01*
X299500Y205000D01*
X300500D01*
X301500Y204000D01*
X318000Y196500D02*
X319000Y197500D01*
X320000D01*
X319000Y198500D01*
X320000Y199500D01*
X319000D01*
X318000Y200500D01*
X317000Y199500D01*
X316000D01*
X317000Y198500D01*
X316000Y197500D01*
X317000D01*
X318000Y196500D01*
X309500D02*
X310500Y197500D01*
X311500D01*
X310500Y198500D01*
X311500Y199500D01*
X310500D01*
X309500Y200500D01*
X308500Y199500D01*
X307500D01*
X308500Y198500D01*
X307500Y197500D01*
X308500D01*
X309500Y196500D01*
X301500D02*
X302500Y197500D01*
X303500D01*
X302500Y198500D01*
X303500Y199500D01*
X302500D01*
X301500Y200500D01*
X300500Y199500D01*
X299500D01*
X300500Y198500D01*
X299500Y197500D01*
X300500D01*
X301500Y196500D01*
X318500Y213500D02*
X319500Y214500D01*
X320500D01*
X319500Y215500D01*
X320500Y216500D01*
X319500D01*
X318500Y217500D01*
X317500Y216500D01*
X316500D01*
X317500Y215500D01*
X316500Y214500D01*
X317500D01*
X318500Y213500D01*
X310000D02*
X311000Y214500D01*
X312000D01*
X311000Y215500D01*
X312000Y216500D01*
X311000D01*
X310000Y217500D01*
X309000Y216500D01*
X308000D01*
X309000Y215500D01*
X308000Y214500D01*
X309000D01*
X310000Y213500D01*
X302500Y214000D02*
X303500Y215000D01*
X304500D01*
X303500Y216000D01*
X304500Y217000D01*
X303500D01*
X302500Y218000D01*
X301500Y217000D01*
X300500D01*
X301500Y216000D01*
X300500Y215000D01*
X301500D01*
X302500Y214000D01*
X350500Y215500D02*
X351500Y216500D01*
X352500D01*
X351500Y217500D01*
X352500Y218500D01*
X351500D01*
X350500Y219500D01*
X349500Y218500D01*
X348500D01*
X349500Y217500D01*
X348500Y216500D01*
X349500D01*
X350500Y215500D01*
X341000D02*
X342000Y216500D01*
X343000D01*
X342000Y217500D01*
X343000Y218500D01*
X342000D01*
X341000Y219500D01*
X340000Y218500D01*
X339000D01*
X340000Y217500D01*
X339000Y216500D01*
X340000D01*
X341000Y215500D01*
X332000Y215000D02*
X333000Y216000D01*
X334000D01*
X333000Y217000D01*
X334000Y218000D01*
X333000D01*
X332000Y219000D01*
X331000Y218000D01*
X330000D01*
X331000Y217000D01*
X330000Y216000D01*
X331000D01*
X332000Y215000D01*
X371000Y197500D02*
X372000Y198500D01*
X373000D01*
X372000Y199500D01*
X373000Y200500D01*
X372000D01*
X371000Y201500D01*
X370000Y200500D01*
X369000D01*
X370000Y199500D01*
X369000Y198500D01*
X370000D01*
X371000Y197500D01*
X282500Y219500D02*
X283500Y220500D01*
X284500D01*
X283500Y221500D01*
X284500Y222500D01*
X283500D01*
X282500Y223500D01*
X281500Y222500D01*
X280500D01*
X281500Y221500D01*
X280500Y220500D01*
X281500D01*
X282500Y219500D01*
X275000D02*
X276000Y220500D01*
X277000D01*
X276000Y221500D01*
X277000Y222500D01*
X276000D01*
X275000Y223500D01*
X274000Y222500D01*
X273000D01*
X274000Y221500D01*
X273000Y220500D01*
X274000D01*
X275000Y219500D01*
X265500D02*
X266500Y220500D01*
X267500D01*
X266500Y221500D01*
X267500Y222500D01*
X266500D01*
X265500Y223500D01*
X264500Y222500D01*
X263500D01*
X264500Y221500D01*
X263500Y220500D01*
X264500D01*
X265500Y219500D01*
X244000Y198000D02*
X245000Y199000D01*
X246000D01*
X245000Y200000D01*
X246000Y201000D01*
X245000D01*
X244000Y202000D01*
X243000Y201000D01*
X242000D01*
X243000Y200000D01*
X242000Y199000D01*
X243000D01*
X244000Y198000D01*
X254000Y207000D02*
X255000Y208000D01*
X256000D01*
X255000Y209000D01*
X256000Y210000D01*
X255000D01*
X254000Y211000D01*
X253000Y210000D01*
X252000D01*
X253000Y209000D01*
X252000Y208000D01*
X253000D01*
X254000Y207000D01*
X245500Y207500D02*
X246500Y208500D01*
X247500D01*
X246500Y209500D01*
X247500Y210500D01*
X246500D01*
X245500Y211500D01*
X244500Y210500D01*
X243500D01*
X244500Y209500D01*
X243500Y208500D01*
X244500D01*
X245500Y207500D01*
X236500D02*
X237500Y208500D01*
X238500D01*
X237500Y209500D01*
X238500Y210500D01*
X237500D01*
X236500Y211500D01*
X235500Y210500D01*
X234500D01*
X235500Y209500D01*
X234500Y208500D01*
X235500D01*
X236500Y207500D01*
X252500Y197500D02*
X253500Y198500D01*
X254500D01*
X253500Y199500D01*
X254500Y200500D01*
X253500D01*
X252500Y201500D01*
X251500Y200500D01*
X250500D01*
X251500Y199500D01*
X250500Y198500D01*
X251500D01*
X252500Y197500D01*
X341500Y293000D02*
X342500Y294000D01*
X343500D01*
X342500Y295000D01*
X343500Y296000D01*
X342500D01*
X341500Y297000D01*
X340500Y296000D01*
X339500D01*
X340500Y295000D01*
X339500Y294000D01*
X340500D01*
X341500Y293000D01*
X331500Y299033D02*
X332500Y300033D01*
X333500D01*
X332500Y301033D01*
X333500Y302033D01*
X332500D01*
X331500Y303033D01*
X330500Y302033D01*
X329500D01*
X330500Y301033D01*
X329500Y300033D01*
X330500D01*
X331500Y299033D01*
X314500Y321500D02*
X315500Y322500D01*
X316500D01*
X315500Y323500D01*
X316500Y324500D01*
X315500D01*
X314500Y325500D01*
X313500Y324500D01*
X312500D01*
X313500Y323500D01*
X312500Y322500D01*
X313500D01*
X314500Y321500D01*
X333500Y316500D02*
X334500Y317500D01*
X335500D01*
X334500Y318500D01*
X335500Y319500D01*
X334500D01*
X333500Y320500D01*
X332500Y319500D01*
X331500D01*
X332500Y318500D01*
X331500Y317500D01*
X332500D01*
X333500Y316500D01*
X329018Y316482D02*
X330018Y317482D01*
X331018D01*
X330018Y318482D01*
X331018Y319482D01*
X330018D01*
X329018Y320482D01*
X328018Y319482D01*
X327018D01*
X328018Y318482D01*
X327018Y317482D01*
X328018D01*
X329018Y316482D01*
X346500Y331500D02*
X347500Y332500D01*
X348500D01*
X347500Y333500D01*
X348500Y334500D01*
X347500D01*
X346500Y335500D01*
X345500Y334500D01*
X344500D01*
X345500Y333500D01*
X344500Y332500D01*
X345500D01*
X346500Y331500D01*
X353000Y335500D02*
X354000Y336500D01*
X355000D01*
X354000Y337500D01*
X355000Y338500D01*
X354000D01*
X353000Y339500D01*
X352000Y338500D01*
X351000D01*
X352000Y337500D01*
X351000Y336500D01*
X352000D01*
X353000Y335500D01*
X332000Y341000D02*
X333000Y342000D01*
X334000D01*
X333000Y343000D01*
X334000Y344000D01*
X333000D01*
X332000Y345000D01*
X331000Y344000D01*
X330000D01*
X331000Y343000D01*
X330000Y342000D01*
X331000D01*
X332000Y341000D01*
X374500Y294000D02*
X375500Y295000D01*
X376500D01*
X375500Y296000D01*
X376500Y297000D01*
X375500D01*
X374500Y298000D01*
X373500Y297000D01*
X372500D01*
X373500Y296000D01*
X372500Y295000D01*
X373500D01*
X374500Y294000D01*
X376000Y299500D02*
X377000Y300500D01*
X378000D01*
X377000Y301500D01*
X378000Y302500D01*
X377000D01*
X376000Y303500D01*
X375000Y302500D01*
X374000D01*
X375000Y301500D01*
X374000Y300500D01*
X375000D01*
X376000Y299500D01*
X374000Y319000D02*
X375000Y320000D01*
X376000D01*
X375000Y321000D01*
X376000Y322000D01*
X375000D01*
X374000Y323000D01*
X373000Y322000D01*
X372000D01*
X373000Y321000D01*
X372000Y320000D01*
X373000D01*
X374000Y319000D01*
X375000Y323000D02*
X376000Y324000D01*
X377000D01*
X376000Y325000D01*
X377000Y326000D01*
X376000D01*
X375000Y327000D01*
X374000Y326000D01*
X373000D01*
X374000Y325000D01*
X373000Y324000D01*
X374000D01*
X375000Y323000D01*
X327287Y337500D02*
X328287Y338500D01*
X329287D01*
X328287Y339500D01*
X329287Y340500D01*
X328287D01*
X327287Y341500D01*
X326287Y340500D01*
X325287D01*
X326287Y339500D01*
X325287Y338500D01*
X326287D01*
X327287Y337500D01*
X374790Y341211D02*
X375789Y342211D01*
X376789D01*
X375789Y343211D01*
X376789Y344211D01*
X375789D01*
X374790Y345211D01*
X373790Y344211D01*
X372790D01*
X373790Y343211D01*
X372790Y342211D01*
X373790D01*
X374790Y341211D01*
X334441Y298461D02*
X335441Y299461D01*
X336441D01*
X335441Y300461D01*
X336441Y301461D01*
X335441D01*
X334441Y302461D01*
X333441Y301461D01*
X332441D01*
X333441Y300461D01*
X332441Y299461D01*
X333441D01*
X334441Y298461D01*
X299000Y237500D02*
X300000Y238500D01*
X301000D01*
X300000Y239500D01*
X301000Y240500D01*
X300000D01*
X299000Y241500D01*
X298000Y240500D01*
X297000D01*
X298000Y239500D01*
X297000Y238500D01*
X298000D01*
X299000Y237500D01*
X304000Y291000D02*
X305000Y292000D01*
X306000D01*
X305000Y293000D01*
X306000Y294000D01*
X305000D01*
X304000Y295000D01*
X303000Y294000D01*
X302000D01*
X303000Y293000D01*
X302000Y292000D01*
X303000D01*
X304000Y291000D01*
X299000D02*
X300000Y292000D01*
X301000D01*
X300000Y293000D01*
X301000Y294000D01*
X300000D01*
X299000Y295000D01*
X298000Y294000D01*
X297000D01*
X298000Y293000D01*
X297000Y292000D01*
X298000D01*
X299000Y291000D01*
X310000Y314500D02*
X311000Y315500D01*
X312000D01*
X311000Y316500D01*
X312000Y317500D01*
X311000D01*
X310000Y318500D01*
X309000Y317500D01*
X308000D01*
X309000Y316500D01*
X308000Y315500D01*
X309000D01*
X310000Y314500D01*
X342000Y357500D02*
X343000Y358500D01*
X344000D01*
X343000Y359500D01*
X344000Y360500D01*
X343000D01*
X342000Y361500D01*
X341000Y360500D01*
X340000D01*
X341000Y359500D01*
X340000Y358500D01*
X341000D01*
X342000Y357500D01*
X298786Y245441D02*
X299786Y246441D01*
X300786D01*
X299786Y247441D01*
X300786Y248441D01*
X299786D01*
X298786Y249441D01*
X297786Y248441D01*
X296786D01*
X297786Y247441D01*
X296786Y246441D01*
X297786D01*
X298786Y245441D01*
X299000Y255000D02*
X300000Y256000D01*
X301000D01*
X300000Y257000D01*
X301000Y258000D01*
X300000D01*
X299000Y259000D01*
X298000Y258000D01*
X297000D01*
X298000Y257000D01*
X297000Y256000D01*
X298000D01*
X299000Y255000D01*
X392000Y330000D02*
X393000Y331000D01*
X394000D01*
X393000Y332000D01*
X394000Y333000D01*
X393000D01*
X392000Y334000D01*
X391000Y333000D01*
X390000D01*
X391000Y332000D01*
X390000Y331000D01*
X391000D01*
X392000Y330000D01*
X306000Y280000D02*
X307000Y281000D01*
X308000D01*
X307000Y282000D01*
X308000Y283000D01*
X307000D01*
X306000Y284000D01*
X305000Y283000D01*
X304000D01*
X305000Y282000D01*
X304000Y281000D01*
X305000D01*
X306000Y280000D01*
X369500Y355000D02*
X370500Y356000D01*
X371500D01*
X370500Y357000D01*
X371500Y358000D01*
X370500D01*
X369500Y359000D01*
X368500Y358000D01*
X367500D01*
X368500Y357000D01*
X367500Y356000D01*
X368500D01*
X369500Y355000D01*
X311228Y332772D02*
X312228Y333772D01*
X313228D01*
X312228Y334772D01*
X313228Y335772D01*
X312228D01*
X311228Y336772D01*
X310228Y335772D01*
X309228D01*
X310228Y334772D01*
X309228Y333772D01*
X310228D01*
X311228Y332772D01*
X414000Y329000D02*
X415000Y330000D01*
X416000D01*
X415000Y331000D01*
X416000Y332000D01*
X415000D01*
X414000Y333000D01*
X413000Y332000D01*
X412000D01*
X413000Y331000D01*
X412000Y330000D01*
X413000D01*
X414000Y329000D01*
X398500Y336500D02*
X399500Y337500D01*
X400500D01*
X399500Y338500D01*
X400500Y339500D01*
X399500D01*
X398500Y340500D01*
X397500Y339500D01*
X396500D01*
X397500Y338500D01*
X396500Y337500D01*
X397500D01*
X398500Y336500D01*
X399500Y357000D02*
X400500Y358000D01*
X401500D01*
X400500Y359000D01*
X401500Y360000D01*
X400500D01*
X399500Y361000D01*
X398500Y360000D01*
X397500D01*
X398500Y359000D01*
X397500Y358000D01*
X398500D01*
X399500Y357000D01*
X405000Y353500D02*
X406000Y354500D01*
X407000D01*
X406000Y355500D01*
X407000Y356500D01*
X406000D01*
X405000Y357500D01*
X404000Y356500D01*
X403000D01*
X404000Y355500D01*
X403000Y354500D01*
X404000D01*
X405000Y353500D01*
X402000Y340000D02*
X403000Y341000D01*
X404000D01*
X403000Y342000D01*
X404000Y343000D01*
X403000D01*
X402000Y344000D01*
X401000Y343000D01*
X400000D01*
X401000Y342000D01*
X400000Y341000D01*
X401000D01*
X402000Y340000D01*
X421000Y329500D02*
X422000Y330500D01*
X423000D01*
X422000Y331500D01*
X423000Y332500D01*
X422000D01*
X421000Y333500D01*
X420000Y332500D01*
X419000D01*
X420000Y331500D01*
X419000Y330500D01*
X420000D01*
X421000Y329500D01*
X390000Y279000D02*
X391000Y280000D01*
X392000D01*
X391000Y281000D01*
X392000Y282000D01*
X391000D01*
X390000Y283000D01*
X389000Y282000D01*
X388000D01*
X389000Y281000D01*
X388000Y280000D01*
X389000D01*
X390000Y279000D01*
X386000Y208000D02*
X387000Y209000D01*
X388000D01*
X387000Y210000D01*
X388000Y211000D01*
X387000D01*
X386000Y212000D01*
X385000Y211000D01*
X384000D01*
X385000Y210000D01*
X384000Y209000D01*
X385000D01*
X386000Y208000D01*
X385500Y275500D02*
X386500Y276500D01*
X387500D01*
X386500Y277500D01*
X387500Y278500D01*
X386500D01*
X385500Y279500D01*
X384500Y278500D01*
X383500D01*
X384500Y277500D01*
X383500Y276500D01*
X384500D01*
X385500Y275500D01*
X366000Y277500D02*
X367000Y278500D01*
X368000D01*
X367000Y279500D01*
X368000Y280500D01*
X367000D01*
X366000Y281500D01*
X365000Y280500D01*
X364000D01*
X365000Y279500D01*
X364000Y278500D01*
X365000D01*
X366000Y277500D01*
X389000Y168500D02*
X390000Y169500D01*
X391000D01*
X390000Y170500D01*
X391000Y171500D01*
X390000D01*
X389000Y172500D01*
X388000Y171500D01*
X387000D01*
X388000Y170500D01*
X387000Y169500D01*
X388000D01*
X389000Y168500D01*
X363500Y210500D02*
X364500Y211500D01*
X365500D01*
X364500Y212500D01*
X365500Y213500D01*
X364500D01*
X363500Y214500D01*
X362500Y213500D01*
X361500D01*
X362500Y212500D01*
X361500Y211500D01*
X362500D01*
X363500Y210500D01*
X374500Y211000D02*
X375500Y212000D01*
X376500D01*
X375500Y213000D01*
X376500Y214000D01*
X375500D01*
X374500Y215000D01*
X373500Y214000D01*
X372500D01*
X373500Y213000D01*
X372500Y212000D01*
X373500D01*
X374500Y211000D01*
X343000Y318000D02*
X344000Y319000D01*
X345000D01*
X344000Y320000D01*
X345000Y321000D01*
X344000D01*
X343000Y322000D01*
X342000Y321000D01*
X341000D01*
X342000Y320000D01*
X341000Y319000D01*
X342000D01*
X343000Y318000D01*
X338000Y317000D02*
X339000Y318000D01*
X340000D01*
X339000Y319000D01*
X340000Y320000D01*
X339000D01*
X338000Y321000D01*
X337000Y320000D01*
X336000D01*
X337000Y319000D01*
X336000Y318000D01*
X337000D01*
X338000Y317000D01*
X345500Y305500D02*
X346500Y306500D01*
X347500D01*
X346500Y307500D01*
X347500Y308500D01*
X346500D01*
X345500Y309500D01*
X344500Y308500D01*
X343500D01*
X344500Y307500D01*
X343500Y306500D01*
X344500D01*
X345500Y305500D01*
X352000Y305000D02*
X353000Y306000D01*
X354000D01*
X353000Y307000D01*
X354000Y308000D01*
X353000D01*
X352000Y309000D01*
X351000Y308000D01*
X350000D01*
X351000Y307000D01*
X350000Y306000D01*
X351000D01*
X352000Y305000D01*
X307000Y329000D02*
X308000Y330000D01*
X309000D01*
X308000Y331000D01*
X309000Y332000D01*
X308000D01*
X307000Y333000D01*
X306000Y332000D01*
X305000D01*
X306000Y331000D01*
X305000Y330000D01*
X306000D01*
X307000Y329000D01*
X327500Y342500D02*
X328500Y343500D01*
X329500D01*
X328500Y344500D01*
X329500Y345500D01*
X328500D01*
X327500Y346500D01*
X326500Y345500D01*
X325500D01*
X326500Y344500D01*
X325500Y343500D01*
X326500D01*
X327500Y342500D01*
X347000Y172500D02*
X348000Y173500D01*
X349000D01*
X348000Y174500D01*
X349000Y175500D01*
X348000D01*
X347000Y176500D01*
X346000Y175500D01*
X345000D01*
X346000Y174500D01*
X345000Y173500D01*
X346000D01*
X347000Y172500D01*
X342500Y172000D02*
X343500Y173000D01*
X344500D01*
X343500Y174000D01*
X344500Y175000D01*
X343500D01*
X342500Y176000D01*
X341500Y175000D01*
X340500D01*
X341500Y174000D01*
X340500Y173000D01*
X341500D01*
X342500Y172000D01*
X352000Y172500D02*
X353000Y173500D01*
X354000D01*
X353000Y174500D01*
X354000Y175500D01*
X353000D01*
X352000Y176500D01*
X351000Y175500D01*
X350000D01*
X351000Y174500D01*
X350000Y173500D01*
X351000D01*
X352000Y172500D01*
X369500Y333000D02*
X370500Y334000D01*
X371500D01*
X370500Y335000D01*
X371500Y336000D01*
X370500D01*
X369500Y337000D01*
X368500Y336000D01*
X367500D01*
X368500Y335000D01*
X367500Y334000D01*
X368500D01*
X369500Y333000D01*
X375000Y327000D02*
X376000Y328000D01*
X377000D01*
X376000Y329000D01*
X377000Y330000D01*
X376000D01*
X375000Y331000D01*
X374000Y330000D01*
X373000D01*
X374000Y329000D01*
X373000Y328000D01*
X374000D01*
X375000Y327000D01*
X374500Y332000D02*
X375500Y333000D01*
X376500D01*
X375500Y334000D01*
X376500Y335000D01*
X375500D01*
X374500Y336000D01*
X373500Y335000D01*
X372500D01*
X373500Y334000D01*
X372500Y333000D01*
X373500D01*
X374500Y332000D01*
X372953Y314500D02*
X373953Y315500D01*
X374953D01*
X373953Y316500D01*
X374953Y317500D01*
X373953D01*
X372953Y318500D01*
X371953Y317500D01*
X370953D01*
X371953Y316500D01*
X370953Y315500D01*
X371953D01*
X372953Y314500D01*
X365782Y295138D02*
X366782Y296138D01*
X367782D01*
X366782Y297138D01*
X367782Y298138D01*
X366782D01*
X365782Y299138D01*
X364782Y298138D01*
X363782D01*
X364782Y297138D01*
X363782Y296138D01*
X364782D01*
X365782Y295138D01*
X362500Y292500D02*
X363500Y293500D01*
X364500D01*
X363500Y294500D01*
X364500Y295500D01*
X363500D01*
X362500Y296500D01*
X361500Y295500D01*
X360500D01*
X361500Y294500D01*
X360500Y293500D01*
X361500D01*
X362500Y292500D01*
X325214Y299786D02*
X326214Y300786D01*
X327214D01*
X326214Y301786D01*
X327214Y302786D01*
X326214D01*
X325214Y303786D01*
X324214Y302786D01*
X323214D01*
X324214Y301786D01*
X323214Y300786D01*
X324214D01*
X325214Y299786D01*
X339000Y296953D02*
X340000Y297953D01*
X341000D01*
X340000Y298953D01*
X341000Y299953D01*
X340000D01*
X339000Y300953D01*
X338000Y299953D01*
X337000D01*
X338000Y298953D01*
X337000Y297953D01*
X338000D01*
X339000Y296953D01*
X344902Y296895D02*
X345902Y297895D01*
X346902D01*
X345902Y298895D01*
X346902Y299894D01*
X345902D01*
X344902Y300894D01*
X343902Y299894D01*
X342902D01*
X343902Y298895D01*
X342902Y297895D01*
X343902D01*
X344902Y296895D01*
X281000Y172500D02*
X282000Y173500D01*
X283000D01*
X282000Y174500D01*
X283000Y175500D01*
X282000D01*
X281000Y176500D01*
X280000Y175500D01*
X279000D01*
X280000Y174500D01*
X279000Y173500D01*
X280000D01*
X281000Y172500D01*
X236500Y198000D02*
X237500Y199000D01*
X238500D01*
X237500Y200000D01*
X238500Y201000D01*
X237500D01*
X236500Y202000D01*
X235500Y201000D01*
X234500D01*
X235500Y200000D01*
X234500Y199000D01*
X235500D01*
X236500Y198000D01*
Y217000D02*
X237500Y218000D01*
X238500D01*
X237500Y219000D01*
X238500Y220000D01*
X237500D01*
X236500Y221000D01*
X235500Y220000D01*
X234500D01*
X235500Y219000D01*
X234500Y218000D01*
X235500D01*
X236500Y217000D01*
X256500Y217500D02*
X257500Y218500D01*
X258500D01*
X257500Y219500D01*
X258500Y220500D01*
X257500D01*
X256500Y221500D01*
X255500Y220500D01*
X254500D01*
X255500Y219500D01*
X254500Y218500D01*
X255500D01*
X256500Y217500D01*
X246500D02*
X247500Y218500D01*
X248500D01*
X247500Y219500D01*
X248500Y220500D01*
X247500D01*
X246500Y221500D01*
X245500Y220500D01*
X244500D01*
X245500Y219500D01*
X244500Y218500D01*
X245500D01*
X246500Y217500D01*
D62*
X223500Y159000D02*
G03*
X223500Y159000I-2000J0D01*
G01*
Y169000D02*
G03*
X223500Y169000I-2000J0D01*
G01*
Y211000D02*
G03*
X223500Y211000I-2000J0D01*
G01*
Y221000D02*
G03*
X223500Y221000I-2000J0D01*
G01*
Y185000D02*
G03*
X223500Y185000I-2000J0D01*
G01*
Y195000D02*
G03*
X223500Y195000I-2000J0D01*
G01*
X368000Y263000D02*
G03*
X368000Y263000I-2000J0D01*
G01*
Y253000D02*
G03*
X368000Y253000I-2000J0D01*
G01*
Y243000D02*
G03*
X368000Y243000I-2000J0D01*
G01*
Y233000D02*
G03*
X368000Y233000I-2000J0D01*
G01*
M02*
