G04*
G04 #@! TF.GenerationSoftware,Altium Limited,Altium Designer,24.6.1 (21)*
G04*
G04 Layer_Color=16711935*
%FSLAX25Y25*%
%MOIN*%
G70*
G04*
G04 #@! TF.SameCoordinates,53350382-22CE-4EB4-8EAE-C997BD2E2089*
G04*
G04*
G04 #@! TF.FilePolarity,Positive*
G04*
G01*
G75*
%ADD13C,0.00600*%
%ADD14C,0.01000*%
D13*
X141099Y238157D02*
Y234159D01*
X137100Y238157D01*
X136101D01*
X135101Y237158D01*
Y235158D01*
X136101Y234159D01*
X141099Y244156D02*
Y240157D01*
X137100Y244156D01*
X136101D01*
X135101Y243156D01*
Y241157D01*
X136101Y240157D01*
X135101Y246155D02*
Y250154D01*
X136101D01*
X140099Y246155D01*
X141099D01*
X135101Y256152D02*
Y252153D01*
X138100D01*
X137100Y254152D01*
Y255152D01*
X138100Y256152D01*
X140099D01*
X141099Y255152D01*
Y253153D01*
X140099Y252153D01*
X141099Y258151D02*
X140099D01*
Y259151D01*
X141099D01*
Y258151D01*
X136101Y263149D02*
X135101Y264149D01*
Y266148D01*
X136101Y267148D01*
X140099D01*
X141099Y266148D01*
Y264149D01*
X140099Y263149D01*
X136101D01*
Y269147D02*
X135101Y270147D01*
Y272146D01*
X136101Y273146D01*
X140099D01*
X141099Y272146D01*
Y270147D01*
X140099Y269147D01*
X136101D01*
X141099Y275146D02*
X137100D01*
Y276145D01*
X138100Y277145D01*
X141099D01*
X138100D01*
X137100Y278145D01*
X138100Y279144D01*
X141099D01*
Y281143D02*
Y283143D01*
Y282143D01*
X137100D01*
Y281143D01*
X141099Y286142D02*
Y288141D01*
Y287142D01*
X135101D01*
Y286142D01*
X279657Y392401D02*
X275659D01*
X279657Y396400D01*
Y397399D01*
X278658Y398399D01*
X276658D01*
X275659Y397399D01*
X285655Y398399D02*
X281657D01*
Y395400D01*
X283656Y396400D01*
X284656D01*
X285655Y395400D01*
Y393401D01*
X284656Y392401D01*
X282657D01*
X281657Y393401D01*
X290654Y392401D02*
Y398399D01*
X287655Y395400D01*
X291654D01*
X297652Y398399D02*
X293653D01*
Y395400D01*
X295652Y396400D01*
X296652D01*
X297652Y395400D01*
Y393401D01*
X296652Y392401D01*
X294653D01*
X293653Y393401D01*
X299651Y392401D02*
Y393401D01*
X300651D01*
Y392401D01*
X299651D01*
X304649Y397399D02*
X305649Y398399D01*
X307648D01*
X308648Y397399D01*
Y393401D01*
X307648Y392401D01*
X305649D01*
X304649Y393401D01*
Y397399D01*
X310647D02*
X311647Y398399D01*
X313646D01*
X314646Y397399D01*
Y393401D01*
X313646Y392401D01*
X311647D01*
X310647Y393401D01*
Y397399D01*
X316646Y392401D02*
Y396400D01*
X317645D01*
X318645Y395400D01*
Y392401D01*
Y395400D01*
X319644Y396400D01*
X320644Y395400D01*
Y392401D01*
X322643D02*
X324643D01*
X323643D01*
Y396400D01*
X322643D01*
X327642Y392401D02*
X329641D01*
X328642D01*
Y398399D01*
X327642D01*
D14*
X178500Y151500D02*
X313500D01*
X178500Y373500D02*
X313500D01*
Y151500D02*
Y373500D01*
X178500Y151500D02*
Y373500D01*
X319000Y151500D02*
X429000D01*
X319000Y281500D02*
X429000D01*
Y151500D02*
Y281500D01*
X319000Y151500D02*
Y281500D01*
X137500Y376500D02*
X139500Y370500D01*
X135500D02*
X137500Y376500D01*
X135500Y155000D02*
X137500Y149000D01*
X139500Y155000D01*
X137500Y289741D02*
Y376500D01*
Y149000D02*
Y232559D01*
X136500Y376500D02*
X176000D01*
X136500Y149000D02*
X175000D01*
X177000Y396000D02*
X183000Y398000D01*
X177000Y396000D02*
X183000Y394000D01*
X425500D02*
X431500Y396000D01*
X425500Y398000D02*
X431500Y396000D01*
X177000D02*
X274059D01*
X331241D02*
X431500D01*
X177000Y377500D02*
Y397000D01*
X431500Y378000D02*
Y397000D01*
M02*
