%TF.GenerationSoftware,Altium Limited,Altium Designer,24.6.1 (21)*%
G04 Layer_Physical_Order=4*
G04 Layer_Color=16711680*
%FSLAX45Y45*%
%MOMM*%
%TF.SameCoordinates,D96B88A3-C1BF-4694-92A9-412EC26ABF2C*%
%TF.FilePolarity,Positive*%
%TF.FileFunction,Copper,L4,Bot,Signal*%
%TF.Part,Single*%
G01*
G75*
%TA.AperFunction,Conductor*%
%ADD10C,0.25400*%
%TA.AperFunction,SMDPad,CuDef*%
%ADD22R,0.95000X1.35000*%
%ADD23R,1.35000X0.95000*%
%TA.AperFunction,ComponentPad*%
%ADD24C,1.60500*%
%ADD25R,1.57500X1.57500*%
%ADD26C,1.57500*%
%ADD27C,1.80000*%
%ADD28R,1.80000X1.80000*%
%ADD29R,1.80000X1.80000*%
%TA.AperFunction,ViaPad*%
%ADD30C,0.50800*%
G36*
X10942214Y3802486D02*
X4488286D01*
Y9545213D01*
X10942214Y9545214D01*
Y3802486D01*
D02*
G37*
%LPC*%
G36*
X7112319Y9319090D02*
X7086281D01*
X7061130Y9312351D01*
X7038580Y9299332D01*
X7020168Y9280920D01*
X7007149Y9258370D01*
X7000410Y9233219D01*
Y9207181D01*
X7007149Y9182030D01*
X7020168Y9159480D01*
X7038580Y9141068D01*
X7061130Y9128049D01*
X7086281Y9121310D01*
X7112319D01*
X7137470Y9128049D01*
X7160020Y9141068D01*
X7178432Y9159480D01*
X7191451Y9182030D01*
X7198190Y9207181D01*
Y9233219D01*
X7191451Y9258370D01*
X7178432Y9280920D01*
X7160020Y9299332D01*
X7137470Y9312351D01*
X7112319Y9319090D01*
D02*
G37*
G36*
X6858319D02*
X6832281D01*
X6807130Y9312351D01*
X6784580Y9299332D01*
X6766168Y9280920D01*
X6753149Y9258370D01*
X6746410Y9233219D01*
Y9207181D01*
X6753149Y9182030D01*
X6766168Y9159480D01*
X6784580Y9141068D01*
X6807130Y9128049D01*
X6832281Y9121310D01*
X6858319D01*
X6883470Y9128049D01*
X6906020Y9141068D01*
X6924432Y9159480D01*
X6937451Y9182030D01*
X6944190Y9207181D01*
Y9233219D01*
X6937451Y9258370D01*
X6924432Y9280920D01*
X6906020Y9299332D01*
X6883470Y9312351D01*
X6858319Y9319090D01*
D02*
G37*
G36*
X6604319D02*
X6578281D01*
X6553130Y9312351D01*
X6530580Y9299332D01*
X6512168Y9280920D01*
X6499149Y9258370D01*
X6492410Y9233219D01*
Y9207181D01*
X6499149Y9182030D01*
X6512168Y9159480D01*
X6530580Y9141068D01*
X6553130Y9128049D01*
X6578281Y9121310D01*
X6604319D01*
X6629470Y9128049D01*
X6652020Y9141068D01*
X6670432Y9159480D01*
X6683451Y9182030D01*
X6690190Y9207181D01*
Y9233219D01*
X6683451Y9258370D01*
X6670432Y9280920D01*
X6652020Y9299332D01*
X6629470Y9312351D01*
X6604319Y9319090D01*
D02*
G37*
G36*
X6350319D02*
X6324281D01*
X6299130Y9312351D01*
X6276580Y9299332D01*
X6258168Y9280920D01*
X6245149Y9258370D01*
X6238410Y9233219D01*
Y9207181D01*
X6245149Y9182030D01*
X6258168Y9159480D01*
X6276580Y9141068D01*
X6299130Y9128049D01*
X6324281Y9121310D01*
X6350319D01*
X6375470Y9128049D01*
X6398020Y9141068D01*
X6416432Y9159480D01*
X6429451Y9182030D01*
X6436190Y9207181D01*
Y9233219D01*
X6429451Y9258370D01*
X6416432Y9280920D01*
X6398020Y9299332D01*
X6375470Y9312351D01*
X6350319Y9319090D01*
D02*
G37*
G36*
X6096319D02*
X6070281D01*
X6045130Y9312351D01*
X6022580Y9299332D01*
X6004168Y9280920D01*
X5991149Y9258370D01*
X5984410Y9233219D01*
Y9207181D01*
X5991149Y9182030D01*
X6004168Y9159480D01*
X6022580Y9141068D01*
X6045130Y9128049D01*
X6070281Y9121310D01*
X6096319D01*
X6121470Y9128049D01*
X6144020Y9141068D01*
X6162432Y9159480D01*
X6175451Y9182030D01*
X6182190Y9207181D01*
Y9233219D01*
X6175451Y9258370D01*
X6162432Y9280920D01*
X6144020Y9299332D01*
X6121470Y9312351D01*
X6096319Y9319090D01*
D02*
G37*
G36*
X5842319D02*
X5816281D01*
X5791130Y9312351D01*
X5768580Y9299332D01*
X5750168Y9280920D01*
X5737149Y9258370D01*
X5730410Y9233219D01*
Y9207181D01*
X5737149Y9182030D01*
X5750168Y9159480D01*
X5768580Y9141068D01*
X5791130Y9128049D01*
X5816281Y9121310D01*
X5842319D01*
X5867470Y9128049D01*
X5890020Y9141068D01*
X5908432Y9159480D01*
X5921451Y9182030D01*
X5928190Y9207181D01*
Y9233219D01*
X5921451Y9258370D01*
X5908432Y9280920D01*
X5890020Y9299332D01*
X5867470Y9312351D01*
X5842319Y9319090D01*
D02*
G37*
G36*
X5334319D02*
X5308281D01*
X5283130Y9312351D01*
X5260580Y9299332D01*
X5242168Y9280920D01*
X5229149Y9258370D01*
X5222410Y9233219D01*
Y9207181D01*
X5229149Y9182030D01*
X5242168Y9159480D01*
X5260580Y9141068D01*
X5283130Y9128049D01*
X5308281Y9121310D01*
X5334319D01*
X5359470Y9128049D01*
X5382020Y9141068D01*
X5400432Y9159480D01*
X5413451Y9182030D01*
X5420190Y9207181D01*
Y9233219D01*
X5413451Y9258370D01*
X5400432Y9280920D01*
X5382020Y9299332D01*
X5359470Y9312351D01*
X5334319Y9319090D01*
D02*
G37*
G36*
X5166190D02*
X4968410D01*
Y9121310D01*
X5166190D01*
Y9319090D01*
D02*
G37*
G36*
X10154121Y9152890D02*
X10140479D01*
X10127876Y9147670D01*
X10118230Y9138024D01*
X10113010Y9125421D01*
Y9111779D01*
X10118230Y9099176D01*
X10127876Y9089530D01*
X10140479Y9084310D01*
X10154121D01*
X10166724Y9089530D01*
X10176370Y9099176D01*
X10181590Y9111779D01*
Y9125421D01*
X10176370Y9138024D01*
X10166724Y9147670D01*
X10154121Y9152890D01*
D02*
G37*
G36*
X8674100Y9166013D02*
X8267700D01*
X8259276Y9164337D01*
X8252135Y9159566D01*
X7452035Y8359465D01*
X7447263Y8352324D01*
X7445587Y8343900D01*
Y7494081D01*
X7438530Y7487024D01*
X7433310Y7474421D01*
Y7460779D01*
X7438530Y7448176D01*
X7448176Y7438530D01*
X7460779Y7433310D01*
X7474421D01*
X7487024Y7438530D01*
X7496670Y7448176D01*
X7501890Y7460779D01*
Y7474421D01*
X7496670Y7487024D01*
X7489613Y7494081D01*
Y8334782D01*
X7563884Y8409053D01*
X7567195Y8408424D01*
X7572587Y8405184D01*
Y7468681D01*
X7565530Y7461624D01*
X7560310Y7449021D01*
Y7435379D01*
X7565530Y7422776D01*
X7575176Y7413130D01*
X7587779Y7407910D01*
X7601421D01*
X7614024Y7413130D01*
X7623670Y7422776D01*
X7628890Y7435379D01*
Y7449021D01*
X7623670Y7461624D01*
X7616613Y7468681D01*
Y8398282D01*
X8264118Y9045787D01*
X9358819D01*
X9365876Y9038730D01*
X9378479Y9033510D01*
X9392121D01*
X9404724Y9038730D01*
X9414370Y9048376D01*
X9419590Y9060979D01*
Y9074621D01*
X9414370Y9087224D01*
X9404724Y9096870D01*
X9392121Y9102090D01*
X9378479D01*
X9365876Y9096870D01*
X9358819Y9089813D01*
X8699476D01*
X8697708Y9098703D01*
X8706224Y9102230D01*
X8715870Y9111876D01*
X8721090Y9124479D01*
Y9138121D01*
X8715870Y9150724D01*
X8706224Y9160370D01*
X8693621Y9165590D01*
X8679979D01*
X8678762Y9165086D01*
X8674100Y9166013D01*
D02*
G37*
G36*
X10293821Y9063990D02*
X10280179D01*
X10267576Y9058770D01*
X10257930Y9049124D01*
X10252710Y9036521D01*
Y9022879D01*
X10257930Y9010276D01*
X10267576Y9000630D01*
X10280179Y8995410D01*
X10293821D01*
X10306424Y9000630D01*
X10316070Y9010276D01*
X10321290Y9022879D01*
Y9036521D01*
X10316070Y9049124D01*
X10306424Y9058770D01*
X10293821Y9063990D01*
D02*
G37*
G36*
X9526474Y8751836D02*
X9512833D01*
X9500230Y8746616D01*
X9490584Y8736970D01*
X9485364Y8724367D01*
Y8717297D01*
X9464180Y8696113D01*
X9451990D01*
Y8750490D01*
X9339210D01*
Y8597710D01*
X9373587D01*
Y8541264D01*
X9365876Y8538070D01*
X9356230Y8528424D01*
X9351010Y8515821D01*
Y8502179D01*
X9356230Y8489576D01*
X9365876Y8479930D01*
X9378479Y8474710D01*
X9392121D01*
X9404724Y8479930D01*
X9414370Y8489576D01*
X9419590Y8502179D01*
Y8515821D01*
X9417613Y8520593D01*
Y8597710D01*
X9451990D01*
Y8652087D01*
X9473298D01*
X9481721Y8653763D01*
X9488863Y8658535D01*
X9513584Y8683256D01*
X9526474D01*
X9539077Y8688476D01*
X9548724Y8698122D01*
X9553944Y8710725D01*
Y8724367D01*
X9548724Y8736970D01*
X9539077Y8746616D01*
X9526474Y8751836D01*
D02*
G37*
G36*
X10217621Y8721090D02*
X10203979D01*
X10191376Y8715870D01*
X10181730Y8706224D01*
X10176510Y8693621D01*
Y8679979D01*
X10181730Y8667376D01*
X10191376Y8657730D01*
X10203979Y8652510D01*
X10217621D01*
X10230224Y8657730D01*
X10239870Y8667376D01*
X10245090Y8679979D01*
Y8693621D01*
X10239870Y8706224D01*
X10230224Y8715870D01*
X10217621Y8721090D01*
D02*
G37*
G36*
X8325321Y8784590D02*
X8311679D01*
X8299076Y8779370D01*
X8289430Y8769724D01*
X8284210Y8757121D01*
Y8743479D01*
X8289430Y8730876D01*
X8299076Y8721230D01*
X8301347Y8720290D01*
Y8704340D01*
X8303023Y8695916D01*
X8307794Y8688775D01*
X8337279Y8659290D01*
X8332523Y8652370D01*
X8319921Y8657590D01*
X8306279D01*
X8293676Y8652370D01*
X8284030Y8642724D01*
X8278810Y8630121D01*
Y8616479D01*
X8284030Y8603876D01*
X8293676Y8594230D01*
X8306279Y8589010D01*
X8308959D01*
X8341035Y8556935D01*
X8348176Y8552163D01*
X8356600Y8550487D01*
X8378810D01*
Y8496110D01*
X8491590D01*
Y8648890D01*
X8454813D01*
Y8685719D01*
X8461870Y8692776D01*
X8467090Y8705379D01*
Y8719021D01*
X8461870Y8731624D01*
X8452224Y8741270D01*
X8439621Y8746490D01*
X8425979D01*
X8413376Y8741270D01*
X8403730Y8731624D01*
X8398510Y8719021D01*
Y8705379D01*
X8403730Y8692776D01*
X8410787Y8685719D01*
Y8660616D01*
X8401897Y8656934D01*
X8345373Y8713458D01*
Y8728679D01*
X8347570Y8730876D01*
X8352790Y8743479D01*
Y8757121D01*
X8347570Y8769724D01*
X8337924Y8779370D01*
X8325321Y8784590D01*
D02*
G37*
G36*
X9093200Y8797713D02*
X9084776Y8796037D01*
X9077635Y8791265D01*
X9072863Y8784124D01*
X9071187Y8775700D01*
X9072863Y8767276D01*
X9077635Y8760135D01*
X9124435Y8713334D01*
X9131576Y8708563D01*
X9140000Y8706887D01*
X9201682D01*
X9223587Y8684982D01*
Y8663218D01*
X9201682Y8641313D01*
X9141245D01*
X9132821Y8639637D01*
X9125679Y8634866D01*
X9119486Y8628672D01*
X9115735Y8626165D01*
X9110963Y8619024D01*
X9109287Y8610600D01*
X9110963Y8602176D01*
X9115735Y8595035D01*
X9122876Y8590263D01*
X9131300Y8588587D01*
X9132545D01*
X9140969Y8590263D01*
X9148110Y8595035D01*
X9150363Y8597287D01*
X9210800D01*
X9219224Y8598963D01*
X9226365Y8603735D01*
X9261166Y8638535D01*
X9265937Y8645676D01*
X9267613Y8654100D01*
Y8694100D01*
X9265937Y8702524D01*
X9261166Y8709665D01*
X9226365Y8744465D01*
X9219224Y8749237D01*
X9210800Y8750913D01*
X9149118D01*
X9108765Y8791265D01*
X9101624Y8796037D01*
X9093200Y8797713D01*
D02*
G37*
G36*
X10128721Y8632190D02*
X10115079D01*
X10102476Y8626970D01*
X10092830Y8617324D01*
X10087610Y8604721D01*
Y8591079D01*
X10092830Y8578476D01*
X10102476Y8568830D01*
X10115079Y8563610D01*
X10128721D01*
X10141324Y8568830D01*
X10150970Y8578476D01*
X10156190Y8591079D01*
Y8604721D01*
X10150970Y8617324D01*
X10141324Y8626970D01*
X10128721Y8632190D01*
D02*
G37*
G36*
X8534400Y8772313D02*
X8525976Y8770637D01*
X8518835Y8765865D01*
X8514063Y8758724D01*
X8512387Y8750300D01*
Y8643300D01*
X8514063Y8634876D01*
X8518835Y8627735D01*
X8563187Y8583382D01*
Y8572500D01*
X8564863Y8564076D01*
X8569635Y8556935D01*
X8576776Y8552163D01*
X8585200Y8550487D01*
X8788400D01*
X8796824Y8552163D01*
X8803965Y8556935D01*
X8808737Y8564076D01*
X8810413Y8572500D01*
X8808737Y8580924D01*
X8803965Y8588065D01*
X8796824Y8592837D01*
X8788400Y8594513D01*
X8629959D01*
X8626557Y8602726D01*
X8674276Y8650445D01*
X8679047Y8657586D01*
X8680472Y8664748D01*
X8683907Y8669889D01*
X8685583Y8678313D01*
X8683907Y8686737D01*
X8679135Y8693878D01*
X8671994Y8698650D01*
X8663570Y8700326D01*
X8655146Y8698650D01*
X8648004Y8693878D01*
X8643145Y8689019D01*
X8638373Y8681877D01*
X8637113Y8675544D01*
X8585200Y8623631D01*
X8556413Y8652418D01*
Y8750300D01*
X8554737Y8758724D01*
X8549965Y8765865D01*
X8542824Y8770637D01*
X8534400Y8772313D01*
D02*
G37*
G36*
X8973021Y8606790D02*
X8959379D01*
X8946776Y8601570D01*
X8937130Y8591924D01*
X8931910Y8579321D01*
Y8569341D01*
X8843603Y8481034D01*
X8833143Y8483146D01*
X8830170Y8490324D01*
X8820524Y8499970D01*
X8807921Y8505190D01*
X8794279D01*
X8781676Y8499970D01*
X8772030Y8490324D01*
X8766810Y8477721D01*
Y8467741D01*
X8747435Y8448365D01*
X8742663Y8441224D01*
X8740987Y8432800D01*
Y8350079D01*
X8742663Y8341655D01*
X8744287Y8339224D01*
Y8315200D01*
X8744710Y8313074D01*
Y8204010D01*
X8779087D01*
Y8115490D01*
X8753756D01*
X8746490Y8121179D01*
X8746490Y8123643D01*
Y8134821D01*
X8741270Y8147424D01*
X8731624Y8157070D01*
X8719021Y8162290D01*
X8707796D01*
X8696621Y8173465D01*
X8689479Y8178237D01*
X8681055Y8179913D01*
X8661590D01*
Y8249090D01*
X8508810D01*
Y8215913D01*
X8420290D01*
Y8250290D01*
X8267510D01*
Y8137510D01*
X8321887D01*
Y8109473D01*
X8323563Y8101049D01*
X8324290Y8099961D01*
X8322761Y8096269D01*
Y8082628D01*
X8325012Y8077194D01*
X8317475Y8072158D01*
X8157168Y8232465D01*
X8150026Y8237237D01*
X8141602Y8238913D01*
X8014781D01*
X8007724Y8245970D01*
X7995121Y8251190D01*
X7981479D01*
X7968876Y8245970D01*
X7959230Y8236324D01*
X7954010Y8223721D01*
Y8210079D01*
X7959230Y8197476D01*
X7968876Y8187830D01*
X7981479Y8182610D01*
X7995121D01*
X8007724Y8187830D01*
X8014781Y8194887D01*
X8132485D01*
X8303837Y8023535D01*
X8310979Y8018763D01*
X8319402Y8017087D01*
X8744710D01*
Y7962710D01*
X8753687D01*
Y7836981D01*
X8746630Y7829924D01*
X8741410Y7817321D01*
Y7803679D01*
X8743609Y7798370D01*
X8736671Y7791890D01*
X8730019Y7791890D01*
X8585010D01*
Y7756313D01*
X8496490D01*
Y7790690D01*
X8343710D01*
Y7721513D01*
X8298018D01*
X8289594Y7719837D01*
X8282452Y7715065D01*
X8267036Y7699649D01*
X8253620D01*
X8241017Y7694429D01*
X8231371Y7684783D01*
X8226150Y7672180D01*
Y7658539D01*
X8231371Y7645936D01*
X8241017Y7636290D01*
X8253620Y7631069D01*
X8267261D01*
X8279864Y7636290D01*
X8289510Y7645936D01*
X8294730Y7658539D01*
Y7665082D01*
X8307136Y7677487D01*
X8365300D01*
X8367426Y7677910D01*
X8390698D01*
X8394381Y7669020D01*
X8391030Y7665669D01*
X8385810Y7653066D01*
Y7639425D01*
X8391030Y7626822D01*
X8400676Y7617176D01*
X8413279Y7611956D01*
X8426921D01*
X8439524Y7617176D01*
X8449170Y7626822D01*
X8451621Y7632741D01*
X8460511Y7630972D01*
Y7624900D01*
X8465732Y7612297D01*
X8475378Y7602651D01*
X8487981Y7597430D01*
X8501622D01*
X8514225Y7602651D01*
X8523871Y7612297D01*
X8529091Y7624900D01*
Y7638541D01*
X8523871Y7651144D01*
X8514225Y7660790D01*
X8511955Y7661731D01*
Y7684458D01*
X8510279Y7692882D01*
X8505507Y7700024D01*
X8502134Y7703397D01*
X8505816Y7712287D01*
X8585010D01*
Y7679110D01*
X8594160D01*
X8597287Y7675300D01*
Y7625001D01*
X8591176Y7622470D01*
X8581530Y7612824D01*
X8576310Y7600221D01*
Y7586579D01*
X8581530Y7573976D01*
X8591176Y7564330D01*
X8603779Y7559110D01*
X8617421D01*
X8630024Y7564330D01*
X8639670Y7573976D01*
X8644890Y7586579D01*
Y7600221D01*
X8641313Y7608857D01*
Y7666182D01*
X8654241Y7679110D01*
X8673959D01*
X8736579Y7616490D01*
X8731434Y7611344D01*
X8726214Y7598741D01*
Y7585100D01*
X8731434Y7572497D01*
X8741080Y7562851D01*
X8753683Y7557631D01*
X8767324D01*
X8779927Y7562851D01*
X8789573Y7572497D01*
X8794794Y7585100D01*
Y7598741D01*
X8789573Y7611344D01*
X8782517Y7618401D01*
Y7623696D01*
X8780841Y7632120D01*
X8776069Y7639262D01*
X8742767Y7672563D01*
X8737790Y7679110D01*
X8737790D01*
X8737790Y7679110D01*
Y7783463D01*
X8737790Y7783538D01*
X8737790Y7783539D01*
X8737790Y7789187D01*
X8746386Y7791024D01*
X8746679Y7791026D01*
X8747690Y7790017D01*
X8756276Y7781430D01*
X8768879Y7776210D01*
X8782521D01*
X8795124Y7781430D01*
X8804770Y7791076D01*
X8809990Y7803679D01*
Y7817321D01*
X8804770Y7829924D01*
X8797713Y7836981D01*
Y7898141D01*
X8805926Y7901543D01*
X8906510Y7800959D01*
Y7790979D01*
X8911730Y7778376D01*
X8921376Y7768730D01*
X8933979Y7763510D01*
X8947621D01*
X8960224Y7768730D01*
X8969870Y7778376D01*
X8975090Y7790979D01*
Y7804621D01*
X8969870Y7817224D01*
X8960224Y7826870D01*
X8947621Y7832090D01*
X8937641D01*
X8823113Y7946618D01*
Y7962710D01*
X8857490D01*
Y8115490D01*
X8823113D01*
Y8204010D01*
X8857490D01*
Y8313074D01*
X8857913Y8315200D01*
Y8433082D01*
X8963041Y8538210D01*
X8973021D01*
X8985624Y8543430D01*
X8995270Y8553076D01*
X9000490Y8565679D01*
Y8579321D01*
X8995270Y8591924D01*
X8985624Y8601570D01*
X8973021Y8606790D01*
D02*
G37*
G36*
X7912018Y8537493D02*
X7898377D01*
X7885774Y8532272D01*
X7876128Y8522626D01*
X7870907Y8510023D01*
Y8496382D01*
X7876128Y8483779D01*
X7885774Y8474133D01*
X7898377Y8468913D01*
X7912018D01*
X7924621Y8474133D01*
X7934267Y8483779D01*
X7939487Y8496382D01*
Y8510023D01*
X7934267Y8522626D01*
X7924621Y8532272D01*
X7912018Y8537493D01*
D02*
G37*
G36*
X10700221Y8454390D02*
X10686579D01*
X10673976Y8449170D01*
X10664330Y8439524D01*
X10659110Y8426921D01*
Y8413279D01*
X10664330Y8400676D01*
X10673976Y8391030D01*
X10686579Y8385810D01*
X10700221D01*
X10712824Y8391030D01*
X10722470Y8400676D01*
X10727690Y8413279D01*
Y8426921D01*
X10722470Y8439524D01*
X10712824Y8449170D01*
X10700221Y8454390D01*
D02*
G37*
G36*
X10522421Y8441690D02*
X10508779D01*
X10496176Y8436470D01*
X10486530Y8426824D01*
X10481310Y8414221D01*
Y8400579D01*
X10486530Y8387976D01*
X10496176Y8378330D01*
X10508779Y8373110D01*
X10522421D01*
X10535024Y8378330D01*
X10544670Y8387976D01*
X10549890Y8400579D01*
Y8414221D01*
X10544670Y8426824D01*
X10535024Y8436470D01*
X10522421Y8441690D01*
D02*
G37*
G36*
X7804621D02*
X7790979D01*
X7778376Y8436470D01*
X7768730Y8426824D01*
X7763510Y8414221D01*
Y8400579D01*
X7768730Y8387976D01*
X7778376Y8378330D01*
X7790979Y8373110D01*
X7804621D01*
X7817224Y8378330D01*
X7826870Y8387976D01*
X7832090Y8400579D01*
Y8414221D01*
X7826870Y8426824D01*
X7817224Y8436470D01*
X7804621Y8441690D01*
D02*
G37*
G36*
X8686800Y8467513D02*
X8678376Y8465837D01*
X8671235Y8461066D01*
X8670355Y8460186D01*
X8665583Y8453044D01*
X8663907Y8444620D01*
Y8432538D01*
X8596082Y8364713D01*
X8591018D01*
X8569113Y8386618D01*
Y8445500D01*
X8567437Y8453924D01*
X8562665Y8461065D01*
X8555524Y8465837D01*
X8547100Y8467513D01*
X8538676Y8465837D01*
X8531535Y8461065D01*
X8526763Y8453924D01*
X8525087Y8445500D01*
Y8377500D01*
X8526763Y8369076D01*
X8531535Y8361935D01*
X8566335Y8327134D01*
X8573476Y8322363D01*
X8581900Y8320687D01*
X8605200D01*
X8613624Y8322363D01*
X8620765Y8327135D01*
X8701486Y8407855D01*
X8706257Y8414996D01*
X8707933Y8423420D01*
Y8441077D01*
X8708813Y8445500D01*
X8707137Y8453924D01*
X8702366Y8461066D01*
X8695224Y8465837D01*
X8686800Y8467513D01*
D02*
G37*
G36*
X9131300Y8492913D02*
X9122876Y8491237D01*
X9115735Y8486465D01*
X9110963Y8479324D01*
X9109287Y8470900D01*
X9110963Y8462476D01*
X9111117Y8462246D01*
X9111843Y8458596D01*
X9116614Y8451455D01*
X9206642Y8361426D01*
X9203240Y8353213D01*
X9134591D01*
X9102939Y8384865D01*
X9095797Y8389637D01*
X9087373Y8391313D01*
X9080500D01*
X9072076Y8389637D01*
X9064935Y8384865D01*
X9060163Y8377724D01*
X9058487Y8369300D01*
X9060163Y8360876D01*
X9064935Y8353735D01*
X9072076Y8348963D01*
X9077698Y8347844D01*
X9109908Y8315635D01*
X9117049Y8310863D01*
X9125473Y8309187D01*
X9203240D01*
X9206642Y8300974D01*
X9170862Y8265193D01*
X9144880D01*
X9136456Y8263517D01*
X9129314Y8258745D01*
X9128435Y8257865D01*
X9123663Y8250724D01*
X9121987Y8242300D01*
X9123663Y8233876D01*
X9128435Y8226735D01*
X9135576Y8221963D01*
X9144000Y8220287D01*
X9148423Y8221167D01*
X9179980D01*
X9188404Y8222843D01*
X9195545Y8227614D01*
X9263565Y8295635D01*
X9268337Y8302776D01*
X9270013Y8311200D01*
Y8351200D01*
X9268337Y8359624D01*
X9263565Y8366765D01*
X9152674Y8477657D01*
X9152517Y8478444D01*
X9147745Y8485586D01*
X9146865Y8486465D01*
X9139724Y8491237D01*
X9131300Y8492913D01*
D02*
G37*
G36*
X8313100Y8535321D02*
X8304676Y8533645D01*
X8297535Y8528873D01*
X8292763Y8521732D01*
X8291087Y8513308D01*
Y8506435D01*
X8292763Y8498011D01*
X8297535Y8490869D01*
X8321887Y8466516D01*
Y8343900D01*
X8323563Y8335476D01*
X8328335Y8328335D01*
X8335476Y8323563D01*
X8343900Y8321887D01*
X8363900D01*
X8372324Y8323563D01*
X8379465Y8328335D01*
X8414266Y8363135D01*
X8419037Y8370276D01*
X8420713Y8378700D01*
Y8413737D01*
X8435665Y8428690D01*
X8440437Y8435831D01*
X8442113Y8444255D01*
Y8445500D01*
X8440437Y8453924D01*
X8435665Y8461065D01*
X8428524Y8465837D01*
X8420100Y8467513D01*
X8411676Y8465837D01*
X8404535Y8461065D01*
X8402028Y8457314D01*
X8383135Y8438421D01*
X8378363Y8431279D01*
X8376687Y8422855D01*
Y8393819D01*
X8374803Y8392560D01*
X8365913Y8397312D01*
Y8475635D01*
X8364237Y8484058D01*
X8359466Y8491200D01*
X8334556Y8516110D01*
X8333437Y8521732D01*
X8328665Y8528873D01*
X8321524Y8533645D01*
X8313100Y8535321D01*
D02*
G37*
G36*
X9017000Y8442113D02*
X9008576Y8440437D01*
X9001435Y8435665D01*
X8963335Y8397565D01*
X8958563Y8390424D01*
X8956887Y8382000D01*
Y8318317D01*
X8949895Y8312736D01*
X8938313Y8324318D01*
Y8386927D01*
X8936637Y8395350D01*
X8931866Y8402492D01*
X8924156Y8410202D01*
X8923037Y8415824D01*
X8918265Y8422965D01*
X8911124Y8427737D01*
X8902700Y8429413D01*
X8894276Y8427737D01*
X8887135Y8422965D01*
X8882363Y8415824D01*
X8880687Y8407400D01*
Y8400527D01*
X8882363Y8392103D01*
X8887135Y8384961D01*
X8894287Y8377808D01*
Y8315200D01*
X8895963Y8306776D01*
X8900735Y8299635D01*
X8935535Y8264834D01*
X8942676Y8260063D01*
X8951100Y8258387D01*
X8959524Y8260063D01*
X8966666Y8264834D01*
X8966667Y8264836D01*
X8994466Y8292634D01*
X8999237Y8299776D01*
X9000913Y8308200D01*
Y8372882D01*
X9032565Y8404535D01*
X9037337Y8411676D01*
X9039013Y8420100D01*
X9037337Y8428524D01*
X9032565Y8435665D01*
X9025424Y8440437D01*
X9017000Y8442113D01*
D02*
G37*
G36*
X9519121Y8517890D02*
X9505479D01*
X9492876Y8512670D01*
X9483230Y8503024D01*
X9478010Y8490421D01*
Y8476779D01*
X9482239Y8466570D01*
X9423259Y8407590D01*
X9341610D01*
Y8254810D01*
X9454390D01*
Y8282864D01*
X9462603Y8286266D01*
X9490710Y8258159D01*
Y8248179D01*
X9495930Y8235576D01*
X9505576Y8225930D01*
X9518179Y8220710D01*
X9531821D01*
X9544424Y8225930D01*
X9554070Y8235576D01*
X9559290Y8248179D01*
Y8261821D01*
X9554070Y8274424D01*
X9544424Y8284070D01*
X9531821Y8289290D01*
X9521841D01*
X9508333Y8302797D01*
X9510413Y8313291D01*
X9513921Y8315635D01*
X9520596Y8322310D01*
X9531821D01*
X9544424Y8327530D01*
X9554070Y8337176D01*
X9559290Y8349779D01*
Y8363421D01*
X9554070Y8376024D01*
X9544424Y8385670D01*
X9531821Y8390890D01*
X9518179D01*
X9505576Y8385670D01*
X9495930Y8376024D01*
X9490710Y8363421D01*
Y8354686D01*
X9489237Y8353213D01*
X9454390D01*
Y8376459D01*
X9526986Y8449054D01*
X9530231Y8453912D01*
X9531724Y8454530D01*
X9541370Y8464176D01*
X9546590Y8476779D01*
Y8490421D01*
X9541370Y8503024D01*
X9531724Y8512670D01*
X9519121Y8517890D01*
D02*
G37*
G36*
X9092000Y8213513D02*
X9083576Y8211837D01*
X9076435Y8207065D01*
X9071663Y8199924D01*
X9069987Y8191500D01*
X9071663Y8183076D01*
X9076435Y8175935D01*
X9077315Y8175055D01*
X9084456Y8170283D01*
X9092880Y8168607D01*
X9118862D01*
X9180043Y8107426D01*
X9176641Y8099213D01*
X9067845D01*
X9059421Y8097537D01*
X9052279Y8092765D01*
X9029386Y8069872D01*
X9025635Y8067365D01*
X9020863Y8060224D01*
X9019187Y8051800D01*
X9020863Y8043376D01*
X9025635Y8036235D01*
X9032776Y8031463D01*
X9041200Y8029787D01*
X9042445D01*
X9050869Y8031463D01*
X9058010Y8036235D01*
X9076963Y8055187D01*
X9176641D01*
X9180043Y8046974D01*
X9125835Y7992766D01*
X9071359D01*
X9062935Y7991091D01*
X9055793Y7986319D01*
X8999287Y7929813D01*
X8994515Y7922671D01*
X8992840Y7914247D01*
X8994515Y7905823D01*
X8999287Y7898682D01*
X9006429Y7893910D01*
X9014853Y7892235D01*
X9023277Y7893910D01*
X9030418Y7898682D01*
X9080477Y7948741D01*
X9111282D01*
X9112380Y7947245D01*
X9111017Y7935648D01*
X9066335Y7890965D01*
X9061563Y7883824D01*
X9059887Y7875400D01*
Y7821018D01*
X8749022Y7510153D01*
X8704110D01*
X8703170Y7512424D01*
X8693524Y7522070D01*
X8680921Y7527290D01*
X8667279D01*
X8654676Y7522070D01*
X8645030Y7512424D01*
X8639810Y7499821D01*
Y7486179D01*
X8645030Y7473576D01*
X8654676Y7463930D01*
X8667279Y7458710D01*
X8680921D01*
X8693524Y7463930D01*
X8695721Y7466127D01*
X8758140D01*
X8766564Y7467803D01*
X8773706Y7472575D01*
X9097465Y7796334D01*
X9102237Y7803476D01*
X9103913Y7811900D01*
Y7866282D01*
X9135701Y7898070D01*
X9225527D01*
X9233951Y7899745D01*
X9241092Y7904517D01*
X9317165Y7980590D01*
X9321937Y7987732D01*
X9323613Y7996155D01*
Y7998282D01*
X9325718Y8000387D01*
X9336600D01*
X9338726Y8000810D01*
X9427790D01*
Y8017087D01*
X9446520D01*
X9453576Y8010030D01*
X9466179Y8004810D01*
X9479821D01*
X9492424Y8010030D01*
X9502070Y8019676D01*
X9507290Y8032279D01*
Y8045921D01*
X9502070Y8058524D01*
X9492424Y8068170D01*
X9479821Y8073390D01*
X9466179D01*
X9453576Y8068170D01*
X9446520Y8061113D01*
X9427790D01*
Y8109874D01*
X9427813Y8109987D01*
X9471327D01*
X9479751Y8111663D01*
X9486892Y8116435D01*
X9490508Y8120051D01*
X9492779Y8119110D01*
X9506421D01*
X9519024Y8124330D01*
X9528670Y8133976D01*
X9533890Y8146579D01*
Y8160221D01*
X9528670Y8172824D01*
X9519024Y8182470D01*
X9506421Y8187690D01*
X9492779D01*
X9480176Y8182470D01*
X9470530Y8172824D01*
X9465310Y8160221D01*
Y8157114D01*
X9462209Y8154013D01*
X9406200D01*
X9404074Y8153590D01*
X9315010D01*
Y8044097D01*
X9308176Y8042737D01*
X9301035Y8037966D01*
X9286035Y8022965D01*
X9281263Y8015824D01*
X9279587Y8007400D01*
Y8005273D01*
X9216409Y7942095D01*
X9150253D01*
X9149155Y7943591D01*
X9150519Y7955188D01*
X9236966Y8041635D01*
X9241737Y8048776D01*
X9243413Y8057200D01*
Y8097200D01*
X9241737Y8105624D01*
X9236965Y8112765D01*
X9143545Y8206186D01*
X9136404Y8210957D01*
X9127980Y8212633D01*
X9096423D01*
X9092000Y8213513D01*
D02*
G37*
G36*
X8973815Y8179472D02*
X8965391Y8177796D01*
X8958250Y8173024D01*
X8953478Y8165883D01*
X8951802Y8157459D01*
Y8108944D01*
X8943589Y8105542D01*
X8892865Y8156265D01*
X8885724Y8161037D01*
X8877300Y8162713D01*
X8868876Y8161037D01*
X8861735Y8156265D01*
X8856963Y8149124D01*
X8855287Y8140700D01*
X8856963Y8132276D01*
X8861735Y8125135D01*
X8929087Y8057782D01*
Y8039100D01*
X8930763Y8030676D01*
X8935535Y8023535D01*
X8942676Y8018763D01*
X8951100Y8017087D01*
X8959524Y8018763D01*
X8966666Y8023535D01*
X8989380Y8046249D01*
X8994152Y8053391D01*
X8995828Y8061815D01*
Y8157459D01*
X8994152Y8165883D01*
X8989380Y8173024D01*
X8982239Y8177796D01*
X8973815Y8179472D01*
D02*
G37*
G36*
X8699500Y7997613D02*
X8691076Y7995937D01*
X8683935Y7991165D01*
X8679163Y7984024D01*
X8677487Y7975600D01*
Y7929418D01*
X8658287Y7910219D01*
X8647813D01*
X8582539Y7975492D01*
X8581017Y7983144D01*
X8576245Y7990286D01*
X8575365Y7991165D01*
X8568224Y7995937D01*
X8559800Y7997613D01*
X8551376Y7995937D01*
X8544235Y7991165D01*
X8539463Y7984024D01*
X8537787Y7975600D01*
X8538667Y7971177D01*
Y7966220D01*
X8540343Y7957796D01*
X8545114Y7950655D01*
X8625834Y7869935D01*
X8632976Y7865163D01*
X8641400Y7863487D01*
X8664700D01*
X8673124Y7865163D01*
X8680265Y7869935D01*
X8715066Y7904735D01*
X8719837Y7911876D01*
X8721513Y7920300D01*
Y7975600D01*
X8719837Y7984024D01*
X8715065Y7991165D01*
X8707924Y7995937D01*
X8699500Y7997613D01*
D02*
G37*
G36*
X8280400Y8010313D02*
X8271976Y8008637D01*
X8264835Y8003865D01*
X8260063Y7996724D01*
X8258387Y7988300D01*
X8260063Y7979876D01*
X8264835Y7972735D01*
X8265714Y7971855D01*
X8272856Y7967083D01*
X8281280Y7965407D01*
X8287862D01*
X8384535Y7868735D01*
X8391676Y7863963D01*
X8400100Y7862287D01*
X8423400D01*
X8431824Y7863963D01*
X8438965Y7868735D01*
X8473766Y7903535D01*
X8478537Y7910676D01*
X8480213Y7919100D01*
Y7975600D01*
X8478537Y7984024D01*
X8473765Y7991165D01*
X8466624Y7995937D01*
X8458200Y7997613D01*
X8449776Y7995937D01*
X8442635Y7991165D01*
X8437863Y7984024D01*
X8436187Y7975600D01*
Y7928218D01*
X8416987Y7909018D01*
X8406513D01*
X8312545Y8002986D01*
X8305404Y8007757D01*
X8296980Y8009433D01*
X8284823D01*
X8280400Y8010313D01*
D02*
G37*
G36*
X9283700Y7896013D02*
X9275276Y7894337D01*
X9268134Y7889565D01*
X9199626Y7821057D01*
X9191413Y7824459D01*
Y7848600D01*
X9189737Y7857024D01*
X9184965Y7864165D01*
X9177824Y7868937D01*
X9169400Y7870613D01*
X9160976Y7868937D01*
X9153835Y7864165D01*
X9149063Y7857024D01*
X9147387Y7848600D01*
Y7770000D01*
X9149063Y7761576D01*
X9153835Y7754435D01*
X9166535Y7741735D01*
X9173676Y7736963D01*
X9182100Y7735287D01*
X9190524Y7736963D01*
X9197666Y7741735D01*
X9202437Y7748876D01*
X9204113Y7757300D01*
Y7763282D01*
X9299265Y7858434D01*
X9304037Y7865576D01*
X9305713Y7874000D01*
X9304037Y7882424D01*
X9299265Y7889565D01*
X9292124Y7894337D01*
X9283700Y7896013D01*
D02*
G37*
G36*
X9410700Y7946813D02*
X9402276Y7945137D01*
X9395135Y7940365D01*
X9390363Y7933224D01*
X9388687Y7924800D01*
Y7923555D01*
X9390363Y7915131D01*
X9395135Y7907990D01*
X9401387Y7901737D01*
Y7758500D01*
X9403063Y7750076D01*
X9407835Y7742935D01*
X9414976Y7738163D01*
X9423400Y7736487D01*
X9431824Y7738163D01*
X9438965Y7742935D01*
X9541460Y7845430D01*
X9546232Y7852571D01*
X9547908Y7860995D01*
Y7861494D01*
X9546232Y7869918D01*
X9541460Y7877059D01*
X9534319Y7881831D01*
X9525895Y7883507D01*
X9517471Y7881831D01*
X9510330Y7877059D01*
X9509325Y7875556D01*
X9453626Y7819857D01*
X9445413Y7823259D01*
Y7910855D01*
X9443737Y7919279D01*
X9438966Y7926421D01*
X9428772Y7936614D01*
X9426265Y7940365D01*
X9419124Y7945137D01*
X9410700Y7946813D01*
D02*
G37*
G36*
X9557221Y7692390D02*
X9543579D01*
X9530976Y7687170D01*
X9521330Y7677524D01*
X9516273Y7665313D01*
X9478200D01*
X9476074Y7664890D01*
X9347010D01*
Y7629508D01*
X9343636Y7628837D01*
X9336494Y7624065D01*
X9294033Y7581604D01*
X9284053D01*
X9271450Y7576384D01*
X9267380Y7572314D01*
X9258490Y7575996D01*
Y7663690D01*
X9105710D01*
Y7550910D01*
X9160087D01*
Y7506945D01*
X9161763Y7498521D01*
X9166535Y7491379D01*
X9173210Y7484704D01*
Y7473479D01*
X9178430Y7460876D01*
X9188076Y7451230D01*
X9200679Y7446010D01*
X9214321D01*
X9226924Y7451230D01*
X9236570Y7460876D01*
X9241790Y7473479D01*
Y7487121D01*
X9236570Y7499724D01*
X9226924Y7509370D01*
X9214321Y7514590D01*
X9205586D01*
X9204113Y7516063D01*
Y7550910D01*
X9254701D01*
Y7550910D01*
X9256584Y7542555D01*
Y7540494D01*
X9261804Y7527891D01*
X9271450Y7518245D01*
X9284053Y7513024D01*
X9297695D01*
X9310298Y7518245D01*
X9319944Y7527891D01*
X9325164Y7540494D01*
Y7550474D01*
X9338797Y7564106D01*
X9347010Y7560704D01*
Y7552110D01*
X9468659D01*
X9483147Y7537622D01*
X9478010Y7525221D01*
Y7511579D01*
X9483230Y7498976D01*
X9492876Y7489330D01*
X9505479Y7484110D01*
X9519121D01*
X9531724Y7489330D01*
X9541370Y7498976D01*
X9546590Y7511579D01*
Y7525221D01*
X9541370Y7537824D01*
X9531724Y7547470D01*
X9528597Y7548765D01*
X9527777Y7552884D01*
X9523006Y7560025D01*
X9499790Y7583241D01*
Y7621287D01*
X9528727D01*
X9537151Y7622963D01*
X9540393Y7625130D01*
X9543579Y7623810D01*
X9557221D01*
X9569824Y7629030D01*
X9579470Y7638676D01*
X9584690Y7651279D01*
Y7664921D01*
X9579470Y7677524D01*
X9569824Y7687170D01*
X9557221Y7692390D01*
D02*
G37*
G36*
X7880821Y8073390D02*
X7867179D01*
X7854576Y8068170D01*
X7844930Y8058524D01*
X7839710Y8045921D01*
Y8035941D01*
X7706035Y7902265D01*
X7701263Y7895124D01*
X7699587Y7886700D01*
Y7468681D01*
X7692530Y7461624D01*
X7687310Y7449021D01*
Y7435379D01*
X7692530Y7422776D01*
X7702176Y7413130D01*
X7714779Y7407910D01*
X7728421D01*
X7741024Y7413130D01*
X7750670Y7422776D01*
X7755890Y7435379D01*
Y7449021D01*
X7750670Y7461624D01*
X7743613Y7468681D01*
Y7877582D01*
X7870841Y8004810D01*
X7880821D01*
X7893424Y8010030D01*
X7903070Y8019676D01*
X7908290Y8032279D01*
Y8045921D01*
X7903070Y8058524D01*
X7893424Y8068170D01*
X7880821Y8073390D01*
D02*
G37*
G36*
X5637836Y7391640D02*
X5614364D01*
X5591693Y7385565D01*
X5571367Y7373830D01*
X5554770Y7357233D01*
X5543035Y7336907D01*
X5536960Y7314236D01*
Y7290764D01*
X5543035Y7268093D01*
X5554770Y7247767D01*
X5571367Y7231170D01*
X5591693Y7219435D01*
X5614364Y7213360D01*
X5637836D01*
X5660507Y7219435D01*
X5680833Y7231170D01*
X5697430Y7247767D01*
X5709165Y7268093D01*
X5715240Y7290764D01*
Y7314236D01*
X5709165Y7336907D01*
X5697430Y7357233D01*
X5680833Y7373830D01*
X5660507Y7385565D01*
X5637836Y7391640D01*
D02*
G37*
G36*
X5588319Y9319090D02*
X5562281D01*
X5537130Y9312351D01*
X5514580Y9299332D01*
X5496168Y9280920D01*
X5483149Y9258370D01*
X5476410Y9233219D01*
Y9207181D01*
X5483149Y9182030D01*
X5496168Y9159480D01*
X5514580Y9141068D01*
X5537130Y9128049D01*
X5553287Y9123720D01*
Y9017000D01*
X5554963Y9008576D01*
X5559735Y9001435D01*
X7515534Y7045635D01*
X7522676Y7040863D01*
X7531100Y7039187D01*
X9258300D01*
X9266724Y7040863D01*
X9273865Y7045635D01*
X9293241Y7065010D01*
X9303221D01*
X9315824Y7070230D01*
X9325470Y7079876D01*
X9330690Y7092479D01*
Y7106121D01*
X9325470Y7118724D01*
X9315824Y7128370D01*
X9307308Y7131897D01*
X9309076Y7140787D01*
X9359900D01*
X9368324Y7142463D01*
X9375465Y7147235D01*
X9972366Y7744135D01*
X9977137Y7751276D01*
X9978813Y7759700D01*
Y8406319D01*
X9985870Y8413376D01*
X9991090Y8425979D01*
Y8439621D01*
X9985870Y8452224D01*
X9976224Y8461870D01*
X9963621Y8467090D01*
X9949979D01*
X9937376Y8461870D01*
X9927730Y8452224D01*
X9922510Y8439621D01*
Y8425979D01*
X9927730Y8413376D01*
X9934787Y8406319D01*
Y7768818D01*
X9350782Y7184813D01*
X7798881D01*
X7791824Y7191870D01*
X7779221Y7197090D01*
X7765579D01*
X7752976Y7191870D01*
X7743330Y7182224D01*
X7738110Y7169621D01*
Y7155979D01*
X7743330Y7143376D01*
X7752976Y7133730D01*
X7765579Y7128510D01*
X7779221D01*
X7791824Y7133730D01*
X7798881Y7140787D01*
X9283724D01*
X9285492Y7131897D01*
X9276976Y7128370D01*
X9267330Y7118724D01*
X9262110Y7106121D01*
Y7096141D01*
X9249182Y7083213D01*
X7540218D01*
X5597313Y9026118D01*
Y9123720D01*
X5613470Y9128049D01*
X5636020Y9141068D01*
X5654432Y9159480D01*
X5667451Y9182030D01*
X5674190Y9207181D01*
Y9233219D01*
X5667451Y9258370D01*
X5654432Y9280920D01*
X5636020Y9299332D01*
X5613470Y9312351D01*
X5588319Y9319090D01*
D02*
G37*
G36*
X5637836Y7137640D02*
X5614364D01*
X5591693Y7131565D01*
X5571367Y7119830D01*
X5554770Y7103233D01*
X5543035Y7082907D01*
X5536960Y7060236D01*
Y7036764D01*
X5543035Y7014093D01*
X5554770Y6993767D01*
X5571367Y6977170D01*
X5591693Y6965435D01*
X5614364Y6959360D01*
X5637836D01*
X5660507Y6965435D01*
X5680833Y6977170D01*
X5697430Y6993767D01*
X5709165Y7014093D01*
X5715240Y7036764D01*
Y7060236D01*
X5709165Y7082907D01*
X5697430Y7103233D01*
X5680833Y7119830D01*
X5660507Y7131565D01*
X5637836Y7137640D01*
D02*
G37*
G36*
Y6883640D02*
X5614364D01*
X5591693Y6877565D01*
X5571367Y6865830D01*
X5554770Y6849233D01*
X5543035Y6828907D01*
X5536960Y6806236D01*
Y6782764D01*
X5543035Y6760093D01*
X5554770Y6739767D01*
X5571367Y6723170D01*
X5591693Y6711435D01*
X5614364Y6705360D01*
X5637836D01*
X5660507Y6711435D01*
X5680833Y6723170D01*
X5697430Y6739767D01*
X5709165Y6760093D01*
X5715240Y6782764D01*
Y6806236D01*
X5709165Y6828907D01*
X5697430Y6849233D01*
X5680833Y6865830D01*
X5660507Y6877565D01*
X5637836Y6883640D01*
D02*
G37*
G36*
X9384040Y6767840D02*
X9208760D01*
Y6592560D01*
X9384040D01*
Y6767840D01*
D02*
G37*
G36*
X7601421Y6562090D02*
X7587779D01*
X7575176Y6556870D01*
X7565530Y6547224D01*
X7560310Y6534621D01*
Y6520979D01*
X7565530Y6508376D01*
X7575176Y6498730D01*
X7587779Y6493510D01*
X7601421D01*
X7614024Y6498730D01*
X7623670Y6508376D01*
X7628890Y6520979D01*
Y6534621D01*
X7623670Y6547224D01*
X7614024Y6556870D01*
X7601421Y6562090D01*
D02*
G37*
G36*
X5637836Y6629640D02*
X5614364D01*
X5591693Y6623565D01*
X5571367Y6611830D01*
X5554770Y6595233D01*
X5543035Y6574907D01*
X5536960Y6552236D01*
Y6528764D01*
X5543035Y6506093D01*
X5554770Y6485767D01*
X5571367Y6469170D01*
X5591693Y6457435D01*
X5614364Y6451360D01*
X5637836D01*
X5660507Y6457435D01*
X5680833Y6469170D01*
X5697430Y6485767D01*
X5709165Y6506093D01*
X5715240Y6528764D01*
Y6552236D01*
X5709165Y6574907D01*
X5697430Y6595233D01*
X5680833Y6611830D01*
X5660507Y6623565D01*
X5637836Y6629640D01*
D02*
G37*
G36*
X9307938Y6513840D02*
X9284862D01*
X9262572Y6507867D01*
X9242588Y6496329D01*
X9226271Y6480012D01*
X9214733Y6460028D01*
X9208760Y6437738D01*
Y6414662D01*
X9214733Y6392372D01*
X9226271Y6372388D01*
X9242588Y6356071D01*
X9262572Y6344533D01*
X9284862Y6338560D01*
X9307938D01*
X9330228Y6344533D01*
X9350212Y6356071D01*
X9366529Y6372388D01*
X9378067Y6392372D01*
X9384040Y6414662D01*
Y6437738D01*
X9378067Y6460028D01*
X9366529Y6480012D01*
X9350212Y6496329D01*
X9330228Y6507867D01*
X9307938Y6513840D01*
D02*
G37*
G36*
X7595982Y6319280D02*
X7582341D01*
X7569738Y6314060D01*
X7560092Y6304414D01*
X7554871Y6291811D01*
Y6278170D01*
X7560092Y6265567D01*
X7569738Y6255920D01*
X7582341Y6250700D01*
X7595982D01*
X7608585Y6255920D01*
X7618231Y6265567D01*
X7623451Y6278170D01*
Y6291811D01*
X7618231Y6304414D01*
X7608585Y6314060D01*
X7595982Y6319280D01*
D02*
G37*
G36*
X10744519Y6398090D02*
X10718481D01*
X10693330Y6391351D01*
X10670780Y6378332D01*
X10652368Y6359920D01*
X10639349Y6337370D01*
X10632610Y6312219D01*
Y6286181D01*
X10639349Y6261030D01*
X10652368Y6238480D01*
X10670780Y6220068D01*
X10693330Y6207049D01*
X10718481Y6200310D01*
X10744519D01*
X10769670Y6207049D01*
X10792220Y6220068D01*
X10810632Y6238480D01*
X10823651Y6261030D01*
X10830390Y6286181D01*
Y6312219D01*
X10823651Y6337370D01*
X10810632Y6359920D01*
X10792220Y6378332D01*
X10769670Y6391351D01*
X10744519Y6398090D01*
D02*
G37*
G36*
X5637836Y6375640D02*
X5614364D01*
X5591693Y6369565D01*
X5571367Y6357830D01*
X5554770Y6341233D01*
X5543035Y6320907D01*
X5536960Y6298236D01*
Y6274764D01*
X5543035Y6252093D01*
X5554770Y6231767D01*
X5571367Y6215170D01*
X5591693Y6203435D01*
X5614364Y6197360D01*
X5637836D01*
X5660507Y6203435D01*
X5680833Y6215170D01*
X5697430Y6231767D01*
X5709165Y6252093D01*
X5715240Y6274764D01*
Y6298236D01*
X5709165Y6320907D01*
X5697430Y6341233D01*
X5680833Y6357830D01*
X5660507Y6369565D01*
X5637836Y6375640D01*
D02*
G37*
G36*
X9307938Y6259840D02*
X9284862D01*
X9262572Y6253867D01*
X9242588Y6242329D01*
X9226271Y6226012D01*
X9214733Y6206028D01*
X9208760Y6183738D01*
Y6160662D01*
X9214733Y6138372D01*
X9226271Y6118388D01*
X9242588Y6102071D01*
X9262572Y6090533D01*
X9284862Y6084560D01*
X9307938D01*
X9330228Y6090533D01*
X9350212Y6102071D01*
X9366529Y6118388D01*
X9378067Y6138372D01*
X9384040Y6160662D01*
Y6183738D01*
X9378067Y6206028D01*
X9366529Y6226012D01*
X9350212Y6242329D01*
X9330228Y6253867D01*
X9307938Y6259840D01*
D02*
G37*
G36*
X7601421Y6117590D02*
X7587779D01*
X7575176Y6112370D01*
X7565530Y6102724D01*
X7560310Y6090121D01*
Y6076479D01*
X7565530Y6063876D01*
X7575176Y6054230D01*
X7587779Y6049010D01*
X7601421D01*
X7614024Y6054230D01*
X7623670Y6063876D01*
X7628890Y6076479D01*
Y6090121D01*
X7623670Y6102724D01*
X7614024Y6112370D01*
X7601421Y6117590D01*
D02*
G37*
G36*
X10744519Y6144090D02*
X10718481D01*
X10693330Y6137351D01*
X10670780Y6124332D01*
X10652368Y6105920D01*
X10639349Y6083370D01*
X10632610Y6058219D01*
Y6032181D01*
X10639349Y6007030D01*
X10652368Y5984480D01*
X10670780Y5966068D01*
X10693330Y5953049D01*
X10718481Y5946310D01*
X10744519D01*
X10769670Y5953049D01*
X10792220Y5966068D01*
X10810632Y5984480D01*
X10823651Y6007030D01*
X10830390Y6032181D01*
Y6058219D01*
X10823651Y6083370D01*
X10810632Y6105920D01*
X10792220Y6124332D01*
X10769670Y6137351D01*
X10744519Y6144090D01*
D02*
G37*
G36*
Y5890090D02*
X10718481D01*
X10693330Y5883351D01*
X10670780Y5870332D01*
X10652368Y5851920D01*
X10639349Y5829370D01*
X10632610Y5804219D01*
Y5778181D01*
X10639349Y5753030D01*
X10652368Y5730480D01*
X10670780Y5712068D01*
X10693330Y5699049D01*
X10718481Y5692310D01*
X10744519D01*
X10769670Y5699049D01*
X10792220Y5712068D01*
X10810632Y5730480D01*
X10823651Y5753030D01*
X10830390Y5778181D01*
Y5804219D01*
X10823651Y5829370D01*
X10810632Y5851920D01*
X10792220Y5870332D01*
X10769670Y5883351D01*
X10744519Y5890090D01*
D02*
G37*
G36*
X7182321Y5660390D02*
X7168679D01*
X7156076Y5655170D01*
X7146430Y5645524D01*
X7141210Y5632921D01*
Y5619279D01*
X7146430Y5606676D01*
X7156076Y5597030D01*
X7168679Y5591810D01*
X7182321D01*
X7194924Y5597030D01*
X7204570Y5606676D01*
X7209790Y5619279D01*
Y5632921D01*
X7204570Y5645524D01*
X7194924Y5655170D01*
X7182321Y5660390D01*
D02*
G37*
G36*
X6991821D02*
X6978179D01*
X6965576Y5655170D01*
X6955930Y5645524D01*
X6950710Y5632921D01*
Y5619279D01*
X6955930Y5606676D01*
X6965576Y5597030D01*
X6978179Y5591810D01*
X6991821D01*
X7004424Y5597030D01*
X7014070Y5606676D01*
X7019290Y5619279D01*
Y5632921D01*
X7014070Y5645524D01*
X7004424Y5655170D01*
X6991821Y5660390D01*
D02*
G37*
G36*
X6750521D02*
X6736879D01*
X6724276Y5655170D01*
X6714630Y5645524D01*
X6709410Y5632921D01*
Y5619279D01*
X6714630Y5606676D01*
X6724276Y5597030D01*
X6736879Y5591810D01*
X6750521D01*
X6763124Y5597030D01*
X6772770Y5606676D01*
X6777990Y5619279D01*
Y5632921D01*
X6772770Y5645524D01*
X6763124Y5655170D01*
X6750521Y5660390D01*
D02*
G37*
G36*
X6521921Y5609590D02*
X6508279D01*
X6495676Y5604370D01*
X6486030Y5594724D01*
X6480810Y5582121D01*
Y5568479D01*
X6486030Y5555876D01*
X6495676Y5546230D01*
X6508279Y5541010D01*
X6521921D01*
X6534524Y5546230D01*
X6544170Y5555876D01*
X6549390Y5568479D01*
Y5582121D01*
X6544170Y5594724D01*
X6534524Y5604370D01*
X6521921Y5609590D01*
D02*
G37*
G36*
X6267921D02*
X6254279D01*
X6241676Y5604370D01*
X6232030Y5594724D01*
X6226810Y5582121D01*
Y5568479D01*
X6232030Y5555876D01*
X6241676Y5546230D01*
X6254279Y5541010D01*
X6267921D01*
X6280524Y5546230D01*
X6290170Y5555876D01*
X6295390Y5568479D01*
Y5582121D01*
X6290170Y5594724D01*
X6280524Y5604370D01*
X6267921Y5609590D01*
D02*
G37*
G36*
X6013921Y5596890D02*
X6000279D01*
X5987676Y5591670D01*
X5978030Y5582024D01*
X5972810Y5569421D01*
Y5555779D01*
X5978030Y5543176D01*
X5987676Y5533530D01*
X6000279Y5528310D01*
X6013921D01*
X6026524Y5533530D01*
X6036170Y5543176D01*
X6041390Y5555779D01*
Y5569421D01*
X6036170Y5582024D01*
X6026524Y5591670D01*
X6013921Y5596890D01*
D02*
G37*
G36*
X8909521Y5558790D02*
X8895879D01*
X8883276Y5553570D01*
X8873630Y5543924D01*
X8868410Y5531321D01*
Y5517679D01*
X8873630Y5505076D01*
X8883276Y5495430D01*
X8895879Y5490210D01*
X8909521D01*
X8922124Y5495430D01*
X8931770Y5505076D01*
X8936990Y5517679D01*
Y5531321D01*
X8931770Y5543924D01*
X8922124Y5553570D01*
X8909521Y5558790D01*
D02*
G37*
G36*
X8668221D02*
X8654579D01*
X8641976Y5553570D01*
X8632330Y5543924D01*
X8627110Y5531321D01*
Y5517679D01*
X8632330Y5505076D01*
X8641976Y5495430D01*
X8654579Y5490210D01*
X8668221D01*
X8680824Y5495430D01*
X8690470Y5505076D01*
X8695690Y5517679D01*
Y5531321D01*
X8690470Y5543924D01*
X8680824Y5553570D01*
X8668221Y5558790D01*
D02*
G37*
G36*
X8439621Y5546090D02*
X8425979D01*
X8413376Y5540870D01*
X8403730Y5531224D01*
X8398510Y5518621D01*
Y5504979D01*
X8403730Y5492376D01*
X8413376Y5482730D01*
X8425979Y5477510D01*
X8439621D01*
X8452224Y5482730D01*
X8461870Y5492376D01*
X8467090Y5504979D01*
Y5518621D01*
X8461870Y5531224D01*
X8452224Y5540870D01*
X8439621Y5546090D01*
D02*
G37*
G36*
X7690321Y5520690D02*
X7676679D01*
X7664076Y5515470D01*
X7654430Y5505824D01*
X7649210Y5493221D01*
Y5479579D01*
X7654430Y5466976D01*
X7664076Y5457330D01*
X7676679Y5452110D01*
X7690321D01*
X7702924Y5457330D01*
X7712570Y5466976D01*
X7717790Y5479579D01*
Y5493221D01*
X7712570Y5505824D01*
X7702924Y5515470D01*
X7690321Y5520690D01*
D02*
G37*
G36*
X8096721Y5507990D02*
X8083079D01*
X8070476Y5502770D01*
X8060830Y5493124D01*
X8055610Y5480521D01*
Y5466879D01*
X8060830Y5454276D01*
X8070476Y5444630D01*
X8083079Y5439410D01*
X8096721D01*
X8109324Y5444630D01*
X8118970Y5454276D01*
X8124190Y5466879D01*
Y5480521D01*
X8118970Y5493124D01*
X8109324Y5502770D01*
X8096721Y5507990D01*
D02*
G37*
G36*
X7880821D02*
X7867179D01*
X7854576Y5502770D01*
X7844930Y5493124D01*
X7839710Y5480521D01*
Y5466879D01*
X7844930Y5454276D01*
X7854576Y5444630D01*
X7867179Y5439410D01*
X7880821D01*
X7893424Y5444630D01*
X7903070Y5454276D01*
X7908290Y5466879D01*
Y5480521D01*
X7903070Y5493124D01*
X7893424Y5502770D01*
X7880821Y5507990D01*
D02*
G37*
G36*
X10744519Y5636090D02*
X10718481D01*
X10693330Y5629351D01*
X10670780Y5616332D01*
X10652368Y5597920D01*
X10639349Y5575370D01*
X10632610Y5550219D01*
Y5524181D01*
X10639349Y5499030D01*
X10652368Y5476480D01*
X10670780Y5458068D01*
X10693330Y5445049D01*
X10718481Y5438310D01*
X10744519D01*
X10769670Y5445049D01*
X10792220Y5458068D01*
X10810632Y5476480D01*
X10823651Y5499030D01*
X10830390Y5524181D01*
Y5550219D01*
X10823651Y5575370D01*
X10810632Y5597920D01*
X10792220Y5616332D01*
X10769670Y5629351D01*
X10744519Y5636090D01*
D02*
G37*
G36*
X9519121Y5444490D02*
X9505479D01*
X9492876Y5439270D01*
X9483230Y5429624D01*
X9478010Y5417021D01*
Y5403379D01*
X9483230Y5390776D01*
X9492876Y5381130D01*
X9505479Y5375910D01*
X9519121D01*
X9531724Y5381130D01*
X9541370Y5390776D01*
X9546590Y5403379D01*
Y5417021D01*
X9541370Y5429624D01*
X9531724Y5439270D01*
X9519121Y5444490D01*
D02*
G37*
G36*
X9239721Y5431790D02*
X9226079D01*
X9213476Y5426570D01*
X9203830Y5416924D01*
X9198610Y5404321D01*
Y5390679D01*
X9203830Y5378076D01*
X9213476Y5368430D01*
X9226079Y5363210D01*
X9239721D01*
X9252324Y5368430D01*
X9261970Y5378076D01*
X9267190Y5390679D01*
Y5404321D01*
X9261970Y5416924D01*
X9252324Y5426570D01*
X9239721Y5431790D01*
D02*
G37*
G36*
X9798521Y7082790D02*
X9784879D01*
X9772276Y7077570D01*
X9762630Y7067924D01*
X9757410Y7055321D01*
Y7041679D01*
X9762630Y7029076D01*
X9772276Y7019430D01*
X9782387Y7015242D01*
Y5360481D01*
X9775330Y5353424D01*
X9770110Y5340821D01*
Y5327179D01*
X9775330Y5314576D01*
X9784976Y5304930D01*
X9797579Y5299710D01*
X9811221D01*
X9823824Y5304930D01*
X9833470Y5314576D01*
X9838690Y5327179D01*
Y5340821D01*
X9833470Y5353424D01*
X9826413Y5360481D01*
Y7034555D01*
X9825318Y7040058D01*
X9825990Y7041679D01*
Y7055321D01*
X9820770Y7067924D01*
X9811124Y7077570D01*
X9798521Y7082790D01*
D02*
G37*
G36*
X6242521Y5355590D02*
X6228879D01*
X6216276Y5350370D01*
X6206630Y5340724D01*
X6201410Y5328121D01*
Y5314479D01*
X6206630Y5301876D01*
X6216276Y5292230D01*
X6228879Y5287010D01*
X6242521D01*
X6255124Y5292230D01*
X6264770Y5301876D01*
X6269990Y5314479D01*
Y5328121D01*
X6264770Y5340724D01*
X6255124Y5350370D01*
X6242521Y5355590D01*
D02*
G37*
G36*
X6013921D02*
X6000279D01*
X5987676Y5350370D01*
X5978030Y5340724D01*
X5972810Y5328121D01*
Y5314479D01*
X5978030Y5301876D01*
X5987676Y5292230D01*
X6000279Y5287010D01*
X6013921D01*
X6026524Y5292230D01*
X6036170Y5301876D01*
X6041390Y5314479D01*
Y5328121D01*
X6036170Y5340724D01*
X6026524Y5350370D01*
X6013921Y5355590D01*
D02*
G37*
G36*
X6458421Y5342890D02*
X6444779D01*
X6432176Y5337670D01*
X6422530Y5328024D01*
X6417310Y5315421D01*
Y5301779D01*
X6422530Y5289176D01*
X6432176Y5279530D01*
X6444779Y5274310D01*
X6458421D01*
X6471024Y5279530D01*
X6480670Y5289176D01*
X6485890Y5301779D01*
Y5315421D01*
X6480670Y5328024D01*
X6471024Y5337670D01*
X6458421Y5342890D01*
D02*
G37*
G36*
X5713740Y5447040D02*
X5538460D01*
Y5271760D01*
X5713740D01*
Y5447040D01*
D02*
G37*
G36*
X9912821Y7171690D02*
X9899179D01*
X9886576Y7166470D01*
X9876930Y7156824D01*
X9871710Y7144221D01*
Y7130579D01*
X9876930Y7117976D01*
X9883987Y7110919D01*
Y5372100D01*
X9885663Y5363676D01*
X9890435Y5356535D01*
X9973310Y5273659D01*
Y5263679D01*
X9978530Y5251076D01*
X9988176Y5241430D01*
X10000779Y5236210D01*
X10014421D01*
X10027024Y5241430D01*
X10036670Y5251076D01*
X10041890Y5263679D01*
Y5277321D01*
X10036670Y5289924D01*
X10027024Y5299570D01*
X10014421Y5304790D01*
X10004441D01*
X9928013Y5381218D01*
Y7110919D01*
X9935070Y7117976D01*
X9940290Y7130579D01*
Y7144221D01*
X9935070Y7156824D01*
X9925424Y7166470D01*
X9912821Y7171690D01*
D02*
G37*
G36*
X8084021Y5266690D02*
X8070379D01*
X8057776Y5261470D01*
X8048130Y5251824D01*
X8042910Y5239221D01*
Y5225579D01*
X8048130Y5212976D01*
X8057776Y5203330D01*
X8070379Y5198110D01*
X8084021D01*
X8096624Y5203330D01*
X8106270Y5212976D01*
X8111490Y5225579D01*
Y5239221D01*
X8106270Y5251824D01*
X8096624Y5261470D01*
X8084021Y5266690D01*
D02*
G37*
G36*
X7868121D02*
X7854479D01*
X7841876Y5261470D01*
X7832230Y5251824D01*
X7827010Y5239221D01*
Y5225579D01*
X7832230Y5212976D01*
X7841876Y5203330D01*
X7854479Y5198110D01*
X7868121D01*
X7880724Y5203330D01*
X7890370Y5212976D01*
X7895590Y5225579D01*
Y5239221D01*
X7890370Y5251824D01*
X7880724Y5261470D01*
X7868121Y5266690D01*
D02*
G37*
G36*
X7664921D02*
X7651279D01*
X7638676Y5261470D01*
X7629030Y5251824D01*
X7623810Y5239221D01*
Y5225579D01*
X7629030Y5212976D01*
X7638676Y5203330D01*
X7651279Y5198110D01*
X7664921D01*
X7677524Y5203330D01*
X7687170Y5212976D01*
X7692390Y5225579D01*
Y5239221D01*
X7687170Y5251824D01*
X7677524Y5261470D01*
X7664921Y5266690D01*
D02*
G37*
G36*
X10744519Y5382090D02*
X10718481D01*
X10693330Y5375351D01*
X10670780Y5362332D01*
X10652368Y5343920D01*
X10639349Y5321370D01*
X10632610Y5296219D01*
Y5270181D01*
X10639349Y5245030D01*
X10652368Y5222480D01*
X10670780Y5204068D01*
X10693330Y5191049D01*
X10718481Y5184310D01*
X10744519D01*
X10769670Y5191049D01*
X10792220Y5204068D01*
X10810632Y5222480D01*
X10823651Y5245030D01*
X10830390Y5270181D01*
Y5296219D01*
X10823651Y5321370D01*
X10810632Y5343920D01*
X10792220Y5362332D01*
X10769670Y5375351D01*
X10744519Y5382090D01*
D02*
G37*
G36*
X6204421Y5114290D02*
X6190779D01*
X6178176Y5109070D01*
X6168530Y5099424D01*
X6163310Y5086821D01*
Y5073179D01*
X6168530Y5060576D01*
X6178176Y5050930D01*
X6190779Y5045710D01*
X6204421D01*
X6217024Y5050930D01*
X6226670Y5060576D01*
X6231890Y5073179D01*
Y5086821D01*
X6226670Y5099424D01*
X6217024Y5109070D01*
X6204421Y5114290D01*
D02*
G37*
G36*
X6013921D02*
X6000279D01*
X5987676Y5109070D01*
X5978030Y5099424D01*
X5972810Y5086821D01*
Y5073179D01*
X5978030Y5060576D01*
X5987676Y5050930D01*
X6000279Y5045710D01*
X6013921D01*
X6026524Y5050930D01*
X6036170Y5060576D01*
X6041390Y5073179D01*
Y5086821D01*
X6036170Y5099424D01*
X6026524Y5109070D01*
X6013921Y5114290D01*
D02*
G37*
G36*
X9430221Y5101590D02*
X9416579D01*
X9403976Y5096370D01*
X9394330Y5086724D01*
X9389110Y5074121D01*
Y5060479D01*
X9394330Y5047876D01*
X9403976Y5038230D01*
X9416579Y5033010D01*
X9430221D01*
X9442824Y5038230D01*
X9452470Y5047876D01*
X9457690Y5060479D01*
Y5074121D01*
X9452470Y5086724D01*
X9442824Y5096370D01*
X9430221Y5101590D01*
D02*
G37*
G36*
X6420321D02*
X6406679D01*
X6394076Y5096370D01*
X6384430Y5086724D01*
X6379210Y5074121D01*
Y5060479D01*
X6384430Y5047876D01*
X6394076Y5038230D01*
X6406679Y5033010D01*
X6420321D01*
X6432924Y5038230D01*
X6442570Y5047876D01*
X6447790Y5060479D01*
Y5074121D01*
X6442570Y5086724D01*
X6432924Y5096370D01*
X6420321Y5101590D01*
D02*
G37*
G36*
X8084021Y5076190D02*
X8070379D01*
X8057776Y5070970D01*
X8048130Y5061324D01*
X8042910Y5048721D01*
Y5035079D01*
X8048130Y5022476D01*
X8057776Y5012830D01*
X8070379Y5007610D01*
X8084021D01*
X8096624Y5012830D01*
X8106270Y5022476D01*
X8111490Y5035079D01*
Y5048721D01*
X8106270Y5061324D01*
X8096624Y5070970D01*
X8084021Y5076190D01*
D02*
G37*
G36*
X7868121D02*
X7854479D01*
X7841876Y5070970D01*
X7832230Y5061324D01*
X7827010Y5048721D01*
Y5035079D01*
X7832230Y5022476D01*
X7841876Y5012830D01*
X7854479Y5007610D01*
X7868121D01*
X7880724Y5012830D01*
X7890370Y5022476D01*
X7895590Y5035079D01*
Y5048721D01*
X7890370Y5061324D01*
X7880724Y5070970D01*
X7868121Y5076190D01*
D02*
G37*
G36*
X7664921D02*
X7651279D01*
X7638676Y5070970D01*
X7629030Y5061324D01*
X7623810Y5048721D01*
Y5035079D01*
X7629030Y5022476D01*
X7638676Y5012830D01*
X7651279Y5007610D01*
X7664921D01*
X7677524Y5012830D01*
X7687170Y5022476D01*
X7692390Y5035079D01*
Y5048721D01*
X7687170Y5061324D01*
X7677524Y5070970D01*
X7664921Y5076190D01*
D02*
G37*
G36*
X10744519Y5128090D02*
X10718481D01*
X10693330Y5121351D01*
X10670780Y5108332D01*
X10652368Y5089920D01*
X10639349Y5067370D01*
X10632610Y5042219D01*
Y5016181D01*
X10639349Y4991030D01*
X10652368Y4968480D01*
X10670780Y4950068D01*
X10693330Y4937049D01*
X10718481Y4930310D01*
X10744519D01*
X10769670Y4937049D01*
X10792220Y4950068D01*
X10810632Y4968480D01*
X10823651Y4991030D01*
X10830390Y5016181D01*
Y5042219D01*
X10823651Y5067370D01*
X10810632Y5089920D01*
X10792220Y5108332D01*
X10769670Y5121351D01*
X10744519Y5128090D01*
D02*
G37*
G36*
Y4874090D02*
X10718481D01*
X10693330Y4867351D01*
X10670780Y4854332D01*
X10652368Y4835920D01*
X10639349Y4813370D01*
X10632610Y4788219D01*
Y4762181D01*
X10639349Y4737030D01*
X10652368Y4714480D01*
X10670780Y4696068D01*
X10693330Y4683049D01*
X10718481Y4676310D01*
X10744519D01*
X10769670Y4683049D01*
X10792220Y4696068D01*
X10810632Y4714480D01*
X10823651Y4737030D01*
X10830390Y4762181D01*
Y4788219D01*
X10823651Y4813370D01*
X10810632Y4835920D01*
X10792220Y4854332D01*
X10769670Y4867351D01*
X10744519Y4874090D01*
D02*
G37*
G36*
X5713740Y4786640D02*
X5538460D01*
Y4611360D01*
X5713740D01*
Y4786640D01*
D02*
G37*
G36*
X9849321Y4504690D02*
X9835679D01*
X9823076Y4499470D01*
X9813430Y4489824D01*
X9808210Y4477221D01*
Y4463579D01*
X9813430Y4450976D01*
X9823076Y4441330D01*
X9835679Y4436110D01*
X9849321D01*
X9861924Y4441330D01*
X9871570Y4450976D01*
X9876790Y4463579D01*
Y4477221D01*
X9871570Y4489824D01*
X9861924Y4499470D01*
X9849321Y4504690D01*
D02*
G37*
G36*
X10744519Y4620090D02*
X10718481D01*
X10693330Y4613351D01*
X10670780Y4600332D01*
X10652368Y4581920D01*
X10639349Y4559370D01*
X10632610Y4534219D01*
Y4508181D01*
X10639349Y4483030D01*
X10652368Y4460480D01*
X10670780Y4442068D01*
X10693330Y4429049D01*
X10718481Y4422310D01*
X10744519D01*
X10769670Y4429049D01*
X10792220Y4442068D01*
X10810632Y4460480D01*
X10823651Y4483030D01*
X10830390Y4508181D01*
Y4534219D01*
X10823651Y4559370D01*
X10810632Y4581920D01*
X10792220Y4600332D01*
X10769670Y4613351D01*
X10744519Y4620090D01*
D02*
G37*
G36*
X7131521Y4479290D02*
X7117879D01*
X7105276Y4474070D01*
X7095630Y4464424D01*
X7090410Y4451821D01*
Y4438179D01*
X7095630Y4425576D01*
X7105276Y4415930D01*
X7117879Y4410710D01*
X7131521D01*
X7144124Y4415930D01*
X7153770Y4425576D01*
X7158990Y4438179D01*
Y4451821D01*
X7153770Y4464424D01*
X7144124Y4474070D01*
X7131521Y4479290D01*
D02*
G37*
G36*
X6966421D02*
X6952779D01*
X6940176Y4474070D01*
X6930530Y4464424D01*
X6925310Y4451821D01*
Y4438179D01*
X6930530Y4425576D01*
X6940176Y4415930D01*
X6952779Y4410710D01*
X6966421D01*
X6979024Y4415930D01*
X6988670Y4425576D01*
X6993890Y4438179D01*
Y4451821D01*
X6988670Y4464424D01*
X6979024Y4474070D01*
X6966421Y4479290D01*
D02*
G37*
G36*
X8947621Y4466590D02*
X8933979D01*
X8921376Y4461370D01*
X8911730Y4451724D01*
X8906510Y4439121D01*
Y4425479D01*
X8911730Y4412876D01*
X8921376Y4403230D01*
X8933979Y4398010D01*
X8947621D01*
X8960224Y4403230D01*
X8969870Y4412876D01*
X8975090Y4425479D01*
Y4439121D01*
X8969870Y4451724D01*
X8960224Y4461370D01*
X8947621Y4466590D01*
D02*
G37*
G36*
X8820621D02*
X8806979D01*
X8794376Y4461370D01*
X8784730Y4451724D01*
X8779510Y4439121D01*
Y4425479D01*
X8784730Y4412876D01*
X8794376Y4403230D01*
X8806979Y4398010D01*
X8820621D01*
X8833224Y4403230D01*
X8842870Y4412876D01*
X8848090Y4425479D01*
Y4439121D01*
X8842870Y4451724D01*
X8833224Y4461370D01*
X8820621Y4466590D01*
D02*
G37*
G36*
X8706321Y4453890D02*
X8692679D01*
X8680076Y4448670D01*
X8670430Y4439024D01*
X8665210Y4426421D01*
Y4412779D01*
X8670430Y4400176D01*
X8680076Y4390530D01*
X8692679Y4385310D01*
X8706321D01*
X8718924Y4390530D01*
X8728570Y4400176D01*
X8733790Y4412779D01*
Y4426421D01*
X8728570Y4439024D01*
X8718924Y4448670D01*
X8706321Y4453890D01*
D02*
G37*
G36*
X9887421Y4364990D02*
X9873779D01*
X9861176Y4359770D01*
X9851530Y4350124D01*
X9846310Y4337521D01*
Y4323879D01*
X9851530Y4311276D01*
X9861176Y4301630D01*
X9873779Y4296410D01*
X9887421D01*
X9900024Y4301630D01*
X9909670Y4311276D01*
X9914890Y4323879D01*
Y4337521D01*
X9909670Y4350124D01*
X9900024Y4359770D01*
X9887421Y4364990D01*
D02*
G37*
G36*
X5713740Y4126240D02*
X5538460D01*
Y3950960D01*
X5713740D01*
Y4126240D01*
D02*
G37*
G36*
X10830390Y4112090D02*
X10632610D01*
Y3914310D01*
X10830390D01*
Y4112090D01*
D02*
G37*
%LPD*%
D10*
X9906000Y5372100D02*
X10007600Y5270500D01*
X8363900Y8343900D02*
X8398700Y8378700D01*
X8313100Y8506435D02*
X8343900Y8475635D01*
X8398700Y8422855D02*
X8420100Y8444255D01*
X8398700Y8378700D02*
Y8422855D01*
X8343900Y8343900D02*
X8363900D01*
X8313100Y8506435D02*
Y8513308D01*
X8343900Y8343900D02*
Y8475635D01*
X8420100Y8444255D02*
Y8445500D01*
X8902700Y8400527D02*
Y8407400D01*
X8916300Y8315200D02*
Y8386927D01*
X8902700Y8400527D02*
X8916300Y8386927D01*
X8585200Y8342700D02*
X8605200D01*
X8685920Y8423420D02*
Y8444620D01*
X8686800Y8445500D01*
X8605200Y8342700D02*
X8685920Y8423420D01*
X8581900Y8342700D02*
X8585200D01*
X8877300Y8140700D02*
X8951100Y8066900D01*
Y8039100D02*
Y8066900D01*
X8973815Y8061815D02*
Y8157459D01*
X8951100Y8039100D02*
X8973815Y8061815D01*
X8916300Y8315200D02*
X8951100Y8280400D01*
X8978900Y8308200D01*
Y8382000D02*
X9017000Y8420100D01*
X8978900Y8308200D02*
Y8382000D01*
X9125473Y8331200D02*
X9248000D01*
X9087373Y8369300D02*
X9125473Y8331200D01*
X9080500Y8369300D02*
X9087373D01*
X8458200Y7919100D02*
Y7975600D01*
X8423400Y7884300D02*
X8458200Y7919100D01*
X8400100Y7884300D02*
X8423400D01*
X8534400Y8643300D02*
Y8750300D01*
Y8643300D02*
X8585200Y8592500D01*
X8658710Y8673453D02*
X8663570Y8678313D01*
X8658710Y8666010D02*
Y8673453D01*
X8585200Y8592500D02*
X8658710Y8666010D01*
X9014853Y7914247D02*
X9071359Y7970753D01*
X9134953D01*
X9221400Y8057200D01*
X9169400Y7770000D02*
X9182100Y7757300D01*
X9169400Y7770000D02*
Y7848600D01*
X9093200Y8775700D02*
X9140000Y8728900D01*
X9210800D01*
X9245600Y8694100D01*
Y8654100D02*
Y8694100D01*
X8280400Y7988300D02*
X8281280Y7987420D01*
X8296980D02*
X8400100Y7884300D01*
X8281280Y7987420D02*
X8296980D01*
X8560680Y7966220D02*
Y7974720D01*
X8559800Y7975600D02*
X8560680Y7974720D01*
X8641400Y7885500D02*
X8661400D01*
X8560680Y7966220D02*
X8641400Y7885500D01*
X8664700D02*
X8699500Y7920300D01*
X8661400Y7885500D02*
X8664700D01*
X8699500Y7920300D02*
Y7975600D01*
X8585200Y8572500D02*
Y8592500D01*
Y8572500D02*
X8788400D01*
X8547100Y8377500D02*
X8581900Y8342700D01*
X8547100Y8377500D02*
Y8445500D01*
X9210800Y8619300D02*
X9245600Y8654100D01*
X9141245Y8619300D02*
X9210800D01*
X9132545Y8610600D02*
X9141245Y8619300D01*
X9131300Y8610600D02*
X9132545D01*
X9179980Y8243180D02*
X9248000Y8311200D01*
X9144000Y8242300D02*
X9144880Y8243180D01*
X9248000Y8311200D02*
Y8331200D01*
X9144880Y8243180D02*
X9179980D01*
X9132180Y8467020D02*
X9248000Y8351200D01*
X9132180Y8467020D02*
Y8470020D01*
X9131300Y8470900D02*
X9132180Y8470020D01*
X9248000Y8331200D02*
Y8351200D01*
X9042445Y8051800D02*
X9067845Y8077200D01*
X9221400D01*
X9041200Y8051800D02*
X9042445D01*
X9092880Y8190620D02*
X9127980D01*
X9092000Y8191500D02*
X9092880Y8190620D01*
X9221400Y8077200D02*
Y8097200D01*
X9127980Y8190620D02*
X9221400Y8097200D01*
Y8057200D02*
Y8077200D01*
X9182100Y7772400D02*
X9283700Y7874000D01*
X9182100Y7757300D02*
Y7772400D01*
X9410700Y7923555D02*
Y7924800D01*
X9423400Y7758500D02*
Y7910855D01*
X9410700Y7923555D02*
X9423400Y7910855D01*
X9525895Y7860995D02*
Y7861494D01*
X9423400Y7758500D02*
X9525895Y7860995D01*
X7467600Y7467600D02*
Y8343900D01*
X8758140Y7488140D02*
X9081900Y7811900D01*
X8678960Y7488140D02*
X8758140D01*
X9081900Y7811900D02*
Y7875400D01*
X8674100Y7493000D02*
X8678960Y7488140D01*
X8420100Y7646246D02*
Y7710100D01*
X8319402Y8039100D02*
X8801100D01*
X8141602Y8216900D02*
X8319402Y8039100D01*
X7988300Y8216900D02*
X8141602D01*
X8343900Y8109473D02*
Y8193900D01*
X8409579Y8089900D02*
X8470900D01*
X8394700Y8104779D02*
X8409579Y8089900D01*
X8357051Y8089449D02*
Y8096322D01*
X8343900Y8109473D02*
X8357051Y8096322D01*
X8343900Y8193900D02*
X8392300D01*
X8394700Y8191500D01*
Y8104779D02*
Y8191500D01*
Y8193900D02*
X8571200D01*
X8766300Y8315200D02*
X8801100Y8280400D01*
X8766300Y8315200D02*
Y8346779D01*
X8763000Y8432800D02*
X8801100Y8470900D01*
X8763000Y8350079D02*
X8766300Y8346779D01*
X8763000Y8350079D02*
Y8432800D01*
X8835900Y8442200D02*
X8966200Y8572500D01*
X8835900Y8315200D02*
Y8442200D01*
X8801100Y8280400D02*
X8835900Y8315200D01*
X8432800Y8594900D02*
Y8712200D01*
Y8594900D02*
X8432861Y8594838D01*
X9443400Y7608500D02*
X9507440Y7544460D01*
Y7523260D02*
X9512300Y7518400D01*
X9507440Y7523260D02*
Y7544460D01*
X9443400Y7608500D02*
X9478200Y7643300D01*
X9528727D02*
X9543527Y7658100D01*
X9478200Y7643300D02*
X9528727D01*
X9543527Y7658100D02*
X9550400D01*
X9406200Y8112000D02*
Y8132000D01*
X9492727Y8153400D02*
X9499600D01*
X9406200Y8132000D02*
X9471327D01*
X9492727Y8153400D01*
X9398000Y8331200D02*
X9448800D01*
X9525000Y8255000D01*
X9448800Y8331200D02*
X9498355D01*
X8317960Y8611140D02*
Y8618440D01*
X8323360Y8704340D02*
X8432861Y8594838D01*
X8318500Y8750300D02*
X8323360Y8745440D01*
X8313100Y8623300D02*
X8317960Y8618440D01*
X8323360Y8704340D02*
Y8745440D01*
X8317960Y8611140D02*
X8356600Y8572500D01*
X8432861Y8594838D02*
X8435200Y8592500D01*
X9395600Y8674100D02*
X9473298D01*
X9516743Y8717546D02*
X9519654D01*
X9473298Y8674100D02*
X9516743Y8717546D01*
X9081900Y7875400D02*
X9126582Y7920082D01*
X9225527D01*
X8489942Y7636580D02*
Y7684458D01*
X8440100Y7734300D02*
X8489942Y7684458D01*
Y7636580D02*
X8494801Y7631720D01*
X9352060Y7608500D02*
X9443400D01*
X7721600Y7442200D02*
Y7886700D01*
X7594600Y7442200D02*
Y8407400D01*
X7772400Y7162800D02*
X9359900D01*
X9956800Y7759700D02*
Y8432800D01*
X9359900Y7162800D02*
X9956800Y7759700D01*
X7721600Y7886700D02*
X7874000Y8039100D01*
X7467600Y8343900D02*
X8267700Y9144000D01*
X9371400Y8073900D02*
X9406200Y8039100D01*
X9371400Y8057200D02*
Y8077200D01*
X8255000Y9067800D02*
X9385300D01*
X7594600Y8407400D02*
X8255000Y9067800D01*
X8674100Y9144000D02*
X8686800Y9131300D01*
X7531100Y7061200D02*
X9258300D01*
X9296400Y7099300D01*
X5575300Y9017000D02*
X7531100Y7061200D01*
X5575300Y9017000D02*
Y9220200D01*
X8267700Y9144000D02*
X8674100D01*
X9906000Y5372100D02*
Y7137400D01*
X9804400Y5334000D02*
Y7034555D01*
X9791700Y7047255D02*
X9804400Y7034555D01*
X9791700Y7047255D02*
Y7048500D01*
X8710955Y8128000D02*
X8712200D01*
X8585200Y8192700D02*
X8620000Y8157900D01*
X8681055D01*
X8710955Y8128000D01*
X8585200Y8102600D02*
Y8192700D01*
X8775700Y8013700D02*
X8801100Y8039100D01*
X8775700Y7810500D02*
Y8013700D01*
X8801100Y7937500D02*
X8940800Y7797800D01*
X8801100Y7937500D02*
Y8039100D01*
Y8280400D01*
X8356600Y8572500D02*
X8435200D01*
X9225527Y7920082D02*
X9301600Y7996155D01*
Y8007400D02*
X9316600Y8022400D01*
X9301600Y7996155D02*
Y8007400D01*
X9316600Y8022400D02*
X9336600D01*
X9371400Y8057200D01*
X8654100Y7710100D02*
X8674100D01*
X8375900D02*
X8420100D01*
X8435200Y8572500D02*
Y8592500D01*
X9395600Y8520545D02*
Y8674100D01*
X9385300Y8510245D02*
X9395600Y8520545D01*
X9385300Y8509000D02*
Y8510245D01*
X9498355Y8331200D02*
X9523755Y8356600D01*
X9525000D01*
X9511420Y8464620D02*
Y8482720D01*
X9398000Y8331200D02*
Y8351200D01*
X9511420Y8464620D01*
Y8482720D02*
X9512300Y8483600D01*
X9406200Y8039100D02*
X9473000D01*
X9290874Y7547314D02*
X9352060Y7608500D01*
X9182100Y7506945D02*
Y7607300D01*
Y7506945D02*
X9207500Y7481545D01*
Y7480300D02*
Y7481545D01*
X8260440Y7665359D02*
X8263877D01*
X8298018Y7699500D01*
X8365300D01*
X8375900Y7710100D01*
X8760504Y7591921D02*
Y7623696D01*
X8674100Y7710100D02*
X8760504Y7623696D01*
X8610600Y7593400D02*
X8619300Y7602100D01*
Y7675300D02*
X8654100Y7710100D01*
X8619300Y7602100D02*
Y7675300D01*
X8572400Y8192700D02*
X8585200D01*
X8571200Y8193900D02*
X8572400Y8192700D01*
X8440100Y7734300D02*
X8660200D01*
X8420100D02*
X8440100D01*
X8420100Y7710100D02*
Y7734300D01*
X8660200D02*
X8661400Y7735500D01*
X9371400Y8077200D02*
X9406200Y8112000D01*
D22*
X8951100Y8039100D02*
D03*
X8801100D02*
D03*
X8951100Y8280400D02*
D03*
X8801100D02*
D03*
X9221400Y8077200D02*
D03*
X9371400D02*
D03*
X9245600Y8674100D02*
D03*
X9395600D02*
D03*
X8585200Y8572500D02*
D03*
X8435200D02*
D03*
X9248000Y8331200D02*
D03*
X9398000D02*
D03*
D23*
X9423400Y7758500D02*
D03*
Y7608500D02*
D03*
X9182100Y7757300D02*
D03*
Y7607300D02*
D03*
X8420100Y7734300D02*
D03*
Y7884300D02*
D03*
X8661400Y7735500D02*
D03*
Y7885500D02*
D03*
X8343900Y8343900D02*
D03*
Y8193900D02*
D03*
X8585200Y8342700D02*
D03*
Y8192700D02*
D03*
D24*
X5626100Y6032500D02*
D03*
Y6286500D02*
D03*
Y6540500D02*
D03*
Y6794500D02*
D03*
Y7048500D02*
D03*
Y7302500D02*
D03*
D25*
Y4038600D02*
D03*
Y5359400D02*
D03*
Y4699000D02*
D03*
X9296400Y6680200D02*
D03*
D26*
X5626100Y4292600D02*
D03*
Y5613400D02*
D03*
Y4953000D02*
D03*
X9296400Y6426200D02*
D03*
Y6172200D02*
D03*
Y5918200D02*
D03*
D27*
X10731500Y6299200D02*
D03*
Y6045200D02*
D03*
Y5791200D02*
D03*
Y5537200D02*
D03*
Y5283200D02*
D03*
Y5029200D02*
D03*
Y4775200D02*
D03*
Y4521200D02*
D03*
Y4267200D02*
D03*
X7353300Y9220200D02*
D03*
X7099300D02*
D03*
X6845300D02*
D03*
X6591300D02*
D03*
X6337300D02*
D03*
X6083300D02*
D03*
X5829300D02*
D03*
X5575300D02*
D03*
X5321300D02*
D03*
D28*
X10731500Y4013200D02*
D03*
D29*
X5067300Y9220200D02*
D03*
D30*
X8801100Y4051300D02*
D03*
X7289800Y4432300D02*
D03*
X7293596Y4076545D02*
D03*
X6324600Y4457700D02*
D03*
X6781800Y8242300D02*
D03*
X7772400Y8267700D02*
D03*
X10007600Y5270500D02*
D03*
X9842500Y4470400D02*
D03*
X9411675Y4726035D02*
D03*
X9550400Y4559300D02*
D03*
X9702800Y4546600D02*
D03*
X7925680Y7641500D02*
D03*
X9537700Y4800600D02*
D03*
X8439967Y7547140D02*
D03*
X8420100Y8445500D02*
D03*
X8313100Y8513308D02*
D03*
X8902700Y8407400D02*
D03*
X8686800Y8445500D02*
D03*
X8877300Y8140700D02*
D03*
X8973815Y8157459D02*
D03*
X9017000Y8420100D02*
D03*
X9080500Y8369300D02*
D03*
X8458200Y7975600D02*
D03*
X8534400Y8750300D02*
D03*
X8663570Y8678313D02*
D03*
X7912100Y8331200D02*
D03*
X7797800Y7683500D02*
D03*
X7848600Y7797800D02*
D03*
X7950200Y7861300D02*
D03*
X6946900Y8166100D02*
D03*
X6845300Y8039100D02*
D03*
X9169400Y7848600D02*
D03*
X9093200Y8775700D02*
D03*
X9893300Y8572500D02*
D03*
X9969500Y8661400D02*
D03*
X9423400Y7112000D02*
D03*
X10782300Y8674100D02*
D03*
Y8521700D02*
D03*
X10134600Y9321800D02*
D03*
X9969500Y9144000D02*
D03*
X10579100Y9182100D02*
D03*
X10528300Y9347200D02*
D03*
X9550400Y7162800D02*
D03*
X10769600D02*
D03*
X10579100D02*
D03*
X10388600Y7010400D02*
D03*
X10284912Y6907748D02*
D03*
X8102600Y4432300D02*
D03*
X7950200D02*
D03*
X7759700Y4368800D02*
D03*
X7620000D02*
D03*
X7747000Y4635500D02*
D03*
X7607300D02*
D03*
X6070600D02*
D03*
X5930900D02*
D03*
Y4394200D02*
D03*
X6070600D02*
D03*
X6464300Y4457700D02*
D03*
X6070600Y4038600D02*
D03*
X6286500D02*
D03*
X6527800Y4051300D02*
D03*
Y4191000D02*
D03*
X6743700D02*
D03*
Y4051300D02*
D03*
X6946900Y4076700D02*
D03*
X7124700D02*
D03*
X8216900Y4178300D02*
D03*
X8407400D02*
D03*
X8966200Y4051300D02*
D03*
X8636000D02*
D03*
X8407400Y4038600D02*
D03*
X8229600D02*
D03*
X7950200Y4013200D02*
D03*
X7721600D02*
D03*
X8280400Y7988300D02*
D03*
X8559800Y7975600D02*
D03*
X8699500D02*
D03*
X9014853Y7914247D02*
D03*
X8788400Y8572500D02*
D03*
X8547100Y8445500D02*
D03*
X9131300Y8610600D02*
D03*
X9144000Y8242300D02*
D03*
X9131300Y8470900D02*
D03*
X9041200Y8051800D02*
D03*
X9092000Y8191500D02*
D03*
X9283700Y7874000D02*
D03*
X9410700Y7924800D02*
D03*
X9525895Y7861494D02*
D03*
X8293100Y7493000D02*
D03*
X7467600Y7467600D02*
D03*
X6985000Y4432300D02*
D03*
X8077200Y5232400D02*
D03*
X7861300D02*
D03*
X7658100D02*
D03*
X8077200Y5041900D02*
D03*
X7861300D02*
D03*
X7658100D02*
D03*
X8089900Y5473700D02*
D03*
X7874000D02*
D03*
X7683500Y5486400D02*
D03*
X8902700Y5524500D02*
D03*
X8661400D02*
D03*
X8432800Y5511800D02*
D03*
X9423400Y5067300D02*
D03*
X7175500Y5626100D02*
D03*
X6985000D02*
D03*
X6743700D02*
D03*
X6197600Y5080000D02*
D03*
X6451600Y5308600D02*
D03*
X6235700Y5321300D02*
D03*
X6007100D02*
D03*
X6413500Y5067300D02*
D03*
X8674100Y7493000D02*
D03*
X8420100Y7646246D02*
D03*
X7988300Y8216900D02*
D03*
X8470900Y8089900D02*
D03*
X8357051Y8089449D02*
D03*
X8801100Y8470900D02*
D03*
X8966200Y8572500D02*
D03*
X8432800Y8712200D02*
D03*
X9512300Y7518400D02*
D03*
X9550400Y7658100D02*
D03*
X9499600Y8153400D02*
D03*
X9525000Y8255000D02*
D03*
X8313100Y8623300D02*
D03*
X9519654Y8717546D02*
D03*
X8494801Y7631720D02*
D03*
X7594600Y6083300D02*
D03*
X7721600Y7442200D02*
D03*
X7594600D02*
D03*
X7874000Y8039100D02*
D03*
X8686800Y9131300D02*
D03*
X7589161Y6284990D02*
D03*
X7594600Y6527800D02*
D03*
X9956800Y8432800D02*
D03*
X7772400Y7162800D02*
D03*
X9385300Y9067800D02*
D03*
X7905197Y8503203D02*
D03*
X10515600Y8407400D02*
D03*
X10121900Y8597900D02*
D03*
X10147300Y9118600D02*
D03*
X10287000Y9029700D02*
D03*
X10210800Y8686800D02*
D03*
X10693400Y8420100D02*
D03*
X9906000Y7137400D02*
D03*
X9804400Y5334000D02*
D03*
X9791700Y7048500D02*
D03*
X9296400Y7099300D02*
D03*
X9880600Y4330700D02*
D03*
X9232900Y5397500D02*
D03*
X9512300Y5410200D02*
D03*
X8712200Y8128000D02*
D03*
X8585200Y8102600D02*
D03*
X8775700Y7810500D02*
D03*
X8940800Y7797800D02*
D03*
X7797800Y8407400D02*
D03*
X8318500Y8750300D02*
D03*
X8813800Y4432300D02*
D03*
X8699500Y4419600D02*
D03*
X8940800Y4432300D02*
D03*
X9385300Y8509000D02*
D03*
X9525000Y8356600D02*
D03*
X9512300Y8483600D02*
D03*
X9473000Y8039100D02*
D03*
X9290874Y7547314D02*
D03*
X9207500Y7480300D02*
D03*
X8260440Y7665359D02*
D03*
X8610600Y7593400D02*
D03*
X8760504Y7591921D02*
D03*
X7137400Y4432300D02*
D03*
X6007100Y5080000D02*
D03*
Y5562600D02*
D03*
X6515100Y5575300D02*
D03*
X6261100D02*
D03*
%TF.MD5,a1a1d3df2aa8345a9669ea5612c2ed74*%
M02*
