%TF.GenerationSoftware,Altium Limited,Altium Designer,24.6.1 (21)*%
G04 Layer_Color=65535*
%FSLAX45Y45*%
%MOMM*%
%TF.SameCoordinates,D96B88A3-C1BF-4694-92A9-412EC26ABF2C*%
%TF.FilePolarity,Positive*%
%TF.FileFunction,Legend,Top*%
%TF.Part,Single*%
G01*
G75*
%TA.AperFunction,NonConductor*%
%ADD36C,0.25400*%
%ADD37C,0.20000*%
%ADD38C,0.25000*%
%ADD39C,0.10000*%
%ADD40C,0.15240*%
%ADD41C,0.07620*%
G36*
X8534450Y7256780D02*
X8496350D01*
Y7231380D01*
X8534450D01*
Y7256780D01*
D02*
G37*
G36*
X8044180Y7797050D02*
X8018780D01*
Y7758950D01*
X8044180D01*
Y7797050D01*
D02*
G37*
G36*
Y8297050D02*
X8018780D01*
Y8258950D01*
X8044180D01*
Y8297050D01*
D02*
G37*
G36*
X8334450Y8999220D02*
X8296350D01*
Y9024620D01*
X8334450D01*
Y8999220D01*
D02*
G37*
G36*
X8834450D02*
X8796350D01*
Y9024620D01*
X8834450D01*
Y8999220D01*
D02*
G37*
G36*
X9034450Y7256780D02*
X8996350D01*
Y7231380D01*
X9034450D01*
Y7256780D01*
D02*
G37*
G36*
X9534450D02*
X9496350D01*
Y7231380D01*
X9534450D01*
Y7256780D01*
D02*
G37*
G36*
X9786620Y7997050D02*
X9812020D01*
Y7958950D01*
X9786620D01*
Y7997050D01*
D02*
G37*
G36*
Y8497050D02*
X9812020D01*
Y8458950D01*
X9786620D01*
Y8497050D01*
D02*
G37*
G36*
X9334450Y8999220D02*
X9296350D01*
Y9024620D01*
X9334450D01*
Y8999220D01*
D02*
G37*
D36*
X6095967Y6083259D02*
X6070575Y6108651D01*
X6019792D01*
X5994400Y6083259D01*
Y6057867D01*
X6019792Y6032475D01*
X6070575D01*
X6095967Y6007083D01*
Y5981692D01*
X6070575Y5956300D01*
X6019792D01*
X5994400Y5981692D01*
X6222926Y5956300D02*
X6172143D01*
X6146751Y5981692D01*
Y6032475D01*
X6172143Y6057867D01*
X6222926D01*
X6248318Y6032475D01*
Y6007083D01*
X6146751D01*
X6299101Y5956300D02*
Y6057867D01*
X6375277D01*
X6400669Y6032475D01*
Y5956300D01*
X6451452D02*
X6527628D01*
X6553019Y5981692D01*
X6527628Y6007083D01*
X6476844D01*
X6451452Y6032475D01*
X6476844Y6057867D01*
X6553019D01*
X6629195Y5956300D02*
X6679978D01*
X6705370Y5981692D01*
Y6032475D01*
X6679978Y6057867D01*
X6629195D01*
X6603803Y6032475D01*
Y5981692D01*
X6629195Y5956300D01*
X6756154Y6057867D02*
Y5956300D01*
Y6007083D01*
X6781545Y6032475D01*
X6806937Y6057867D01*
X6832329D01*
X7060855Y6108651D02*
Y6007083D01*
X7111639Y5956300D01*
X7162422Y6007083D01*
Y6108651D01*
X7213206Y5956300D02*
X7263989D01*
X7238598D01*
Y6108651D01*
X7213206Y6083259D01*
X5029204Y4190988D02*
X5003812D01*
X5016508D01*
Y4127508D01*
X5003812Y4114812D01*
X4991117D01*
X4978421Y4127508D01*
X5105379Y4190988D02*
X5054596D01*
Y4152900D01*
X5079988Y4165596D01*
X5092684D01*
X5105379Y4152900D01*
Y4127508D01*
X5092684Y4114812D01*
X5067292D01*
X5054596Y4127508D01*
X5003804Y5524488D02*
X4978412D01*
X4991108D01*
Y5461008D01*
X4978412Y5448312D01*
X4965717D01*
X4953021Y5461008D01*
X5079979Y5524488D02*
X5054588Y5511792D01*
X5029196Y5486400D01*
Y5461008D01*
X5041892Y5448312D01*
X5067284D01*
X5079979Y5461008D01*
Y5473704D01*
X5067284Y5486400D01*
X5029196D01*
X5041904Y4864088D02*
X5016512D01*
X5029208D01*
Y4800608D01*
X5016512Y4787912D01*
X5003817D01*
X4991121Y4800608D01*
X5105384Y4787912D02*
Y4864088D01*
X5067296Y4826000D01*
X5118079D01*
X7240183Y8102608D02*
X7252879Y8089912D01*
X7278271D01*
X7290967Y8102608D01*
Y8153392D01*
X7278271Y8166088D01*
X7252879D01*
X7240183Y8153392D01*
X7164008Y8166088D02*
X7214792D01*
X7164008Y8115304D01*
Y8102608D01*
X7176704Y8089912D01*
X7202096D01*
X7214792Y8102608D01*
X7087833Y8089912D02*
X7138616D01*
Y8128000D01*
X7113224Y8115304D01*
X7100528D01*
X7087833Y8128000D01*
Y8153392D01*
X7100528Y8166088D01*
X7125920D01*
X7138616Y8153392D01*
X10490192Y7835896D02*
X10502888Y7848591D01*
Y7873983D01*
X10490192Y7886679D01*
X10477496D01*
X10464800Y7873983D01*
Y7848591D01*
X10452104Y7835896D01*
X10439408D01*
X10426712Y7848591D01*
Y7873983D01*
X10439408Y7886679D01*
X10426712Y7759720D02*
Y7810504D01*
X10477496Y7759720D01*
X10490192D01*
X10502888Y7772416D01*
Y7797808D01*
X10490192Y7810504D01*
X6614918Y8320573D02*
X6602222Y8307877D01*
Y8282486D01*
X6614918Y8269790D01*
X6665702D01*
X6678398Y8282486D01*
Y8307877D01*
X6665702Y8320573D01*
X6678398Y8396749D02*
Y8345965D01*
X6627614Y8396749D01*
X6614918D01*
X6602222Y8384053D01*
Y8358661D01*
X6614918Y8345965D01*
X6678398Y8460228D02*
X6602222D01*
X6640310Y8422140D01*
Y8472924D01*
X4851408Y8445517D02*
X4838712Y8432821D01*
Y8407429D01*
X4851408Y8394733D01*
X4902192D01*
X4914888Y8407429D01*
Y8432821D01*
X4902192Y8445517D01*
X4914888Y8521692D02*
Y8470908D01*
X4864104Y8521692D01*
X4851408D01*
X4838712Y8508996D01*
Y8483604D01*
X4851408Y8470908D01*
Y8547084D02*
X4838712Y8559780D01*
Y8585172D01*
X4851408Y8597867D01*
X4864104D01*
X4876800Y8585172D01*
Y8572476D01*
Y8585172D01*
X4889496Y8597867D01*
X4902192D01*
X4914888Y8585172D01*
Y8559780D01*
X4902192Y8547084D01*
X5651517Y8534388D02*
Y8521692D01*
X5676908Y8496300D01*
X5702300Y8521692D01*
Y8534388D01*
X5676908Y8496300D02*
Y8458212D01*
X5727692D02*
X5753084D01*
X5740388D01*
Y8534388D01*
X5727692Y8521692D01*
X10337800Y9105908D02*
X10350496Y9093212D01*
X10375888D01*
X10388583Y9105908D01*
Y9118604D01*
X10375888Y9131300D01*
X10350496D01*
X10337800Y9143996D01*
Y9156692D01*
X10350496Y9169388D01*
X10375888D01*
X10388583Y9156692D01*
X10312408Y9169388D02*
X10287016D01*
X10299712D01*
Y9093212D01*
X10312408Y9105908D01*
X8241051Y4470388D02*
Y4406908D01*
X8253747Y4394212D01*
X8279138D01*
X8291834Y4406908D01*
Y4470388D01*
X8355314Y4394212D02*
Y4470388D01*
X8317226Y4432300D01*
X8368009D01*
X6569096Y4502388D02*
Y4438908D01*
X6581792Y4426212D01*
X6607183D01*
X6619879Y4438908D01*
Y4502388D01*
X6645271Y4489692D02*
X6657967Y4502388D01*
X6683359D01*
X6696054Y4489692D01*
Y4476996D01*
X6683359Y4464300D01*
X6670663D01*
X6683359D01*
X6696054Y4451604D01*
Y4438908D01*
X6683359Y4426212D01*
X6657967D01*
X6645271Y4438908D01*
X9867921Y5181588D02*
Y5118108D01*
X9880617Y5105412D01*
X9906008D01*
X9918704Y5118108D01*
Y5181588D01*
X9994879Y5105412D02*
X9944096D01*
X9994879Y5156196D01*
Y5168892D01*
X9982184Y5181588D01*
X9956792D01*
X9944096Y5168892D01*
X8902717Y8178788D02*
Y8115308D01*
X8915412Y8102612D01*
X8940804D01*
X8953500Y8115308D01*
Y8178788D01*
X8978892Y8102612D02*
X9004284D01*
X8991588D01*
Y8178788D01*
X8978892Y8166092D01*
X7885442Y4304079D02*
X7961618D01*
Y4265991D01*
X7948922Y4253296D01*
X7923530D01*
X7910834Y4265991D01*
Y4304079D01*
Y4278687D02*
X7885442Y4253296D01*
X7961618Y4177120D02*
X7948922Y4202512D01*
X7923530Y4227904D01*
X7898138D01*
X7885442Y4215208D01*
Y4189816D01*
X7898138Y4177120D01*
X7910834D01*
X7923530Y4189816D01*
Y4227904D01*
X7721509Y4203688D02*
Y4127512D01*
X7683421D01*
X7670725Y4140208D01*
Y4165600D01*
X7683421Y4178296D01*
X7721509D01*
X7696117D02*
X7670725Y4203688D01*
X7594550Y4127512D02*
X7645333D01*
Y4165600D01*
X7619942Y4152904D01*
X7607246D01*
X7594550Y4165600D01*
Y4190992D01*
X7607246Y4203688D01*
X7632638D01*
X7645333Y4190992D01*
X6210312Y4329479D02*
X6286488D01*
Y4291391D01*
X6273792Y4278696D01*
X6248400D01*
X6235704Y4291391D01*
Y4329479D01*
Y4304087D02*
X6210312Y4278696D01*
Y4215216D02*
X6286488D01*
X6248400Y4253304D01*
Y4202520D01*
X6046379Y4229088D02*
Y4152912D01*
X6008291D01*
X5995595Y4165608D01*
Y4191000D01*
X6008291Y4203696D01*
X6046379D01*
X6020987D02*
X5995595Y4229088D01*
X5970203Y4165608D02*
X5957508Y4152912D01*
X5932116D01*
X5919420Y4165608D01*
Y4178304D01*
X5932116Y4191000D01*
X5944812D01*
X5932116D01*
X5919420Y4203696D01*
Y4216392D01*
X5932116Y4229088D01*
X5957508D01*
X5970203Y4216392D01*
X10250079Y4698988D02*
Y4622812D01*
X10211991D01*
X10199295Y4635508D01*
Y4660900D01*
X10211991Y4673596D01*
X10250079D01*
X10224687D02*
X10199295Y4698988D01*
X10123120D02*
X10173903D01*
X10123120Y4648204D01*
Y4635508D01*
X10135816Y4622812D01*
X10161208D01*
X10173903Y4635508D01*
X10224683Y4495788D02*
Y4419612D01*
X10186596D01*
X10173900Y4432308D01*
Y4457700D01*
X10186596Y4470396D01*
X10224683D01*
X10199292D02*
X10173900Y4495788D01*
X10148508D02*
X10123116D01*
X10135812D01*
Y4419612D01*
X10148508Y4432308D01*
X6946912Y5000229D02*
X7023087D01*
Y5051013D01*
Y5127188D02*
Y5076404D01*
X6972304Y5127188D01*
X6959608D01*
X6946912Y5114492D01*
Y5089100D01*
X6959608Y5076404D01*
X8623312Y5003817D02*
X8699488D01*
Y5054600D01*
Y5079992D02*
Y5105384D01*
Y5092688D01*
X8623312D01*
X8636008Y5079992D01*
X5041904Y6692888D02*
X5016512D01*
X5029208D01*
Y6629408D01*
X5016512Y6616712D01*
X5003817D01*
X4991121Y6629408D01*
X5067296Y6692888D02*
X5118079D01*
Y6680192D01*
X5067296Y6629408D01*
Y6616712D01*
X6248388Y9232896D02*
Y9258288D01*
Y9245592D01*
X6184908D01*
X6172212Y9258288D01*
Y9270983D01*
X6184908Y9283679D01*
X6235692Y9207504D02*
X6248388Y9194808D01*
Y9169416D01*
X6235692Y9156721D01*
X6222996D01*
X6210300Y9169416D01*
Y9182112D01*
Y9169416D01*
X6197604Y9156721D01*
X6184908D01*
X6172212Y9169416D01*
Y9194808D01*
X6184908Y9207504D01*
X10706104Y5194288D02*
X10680712D01*
X10693408D01*
Y5130808D01*
X10680712Y5118112D01*
X10668017D01*
X10655321Y5130808D01*
X10782279Y5118112D02*
X10731496D01*
X10782279Y5168896D01*
Y5181592D01*
X10769584Y5194288D01*
X10744192D01*
X10731496Y5181592D01*
X7707622Y4850196D02*
X7720318Y4862891D01*
Y4888283D01*
X7707622Y4900979D01*
X7656838D01*
X7644142Y4888283D01*
Y4862891D01*
X7656838Y4850196D01*
Y4824804D02*
X7644142Y4812108D01*
Y4786716D01*
X7656838Y4774020D01*
X7707622D01*
X7720318Y4786716D01*
Y4812108D01*
X7707622Y4824804D01*
X7694926D01*
X7682230Y4812108D01*
Y4774020D01*
X8749022Y4255696D02*
X8761718Y4268391D01*
Y4293783D01*
X8749022Y4306479D01*
X8698238D01*
X8685542Y4293783D01*
Y4268391D01*
X8698238Y4255696D01*
X8749022Y4230304D02*
X8761718Y4217608D01*
Y4192216D01*
X8749022Y4179520D01*
X8736326D01*
X8723630Y4192216D01*
X8710934Y4179520D01*
X8698238D01*
X8685542Y4192216D01*
Y4217608D01*
X8698238Y4230304D01*
X8710934D01*
X8723630Y4217608D01*
X8736326Y4230304D01*
X8749022D01*
X8723630Y4217608D02*
Y4192216D01*
X8990322Y4242996D02*
X9003018Y4255692D01*
Y4281083D01*
X8990322Y4293779D01*
X8939538D01*
X8926842Y4281083D01*
Y4255692D01*
X8939538Y4242996D01*
X9003018Y4217604D02*
Y4166820D01*
X8990322D01*
X8939538Y4217604D01*
X8926842D01*
X7924808Y4620404D02*
X7912112Y4607709D01*
Y4582317D01*
X7924808Y4569621D01*
X7975592D01*
X7988288Y4582317D01*
Y4607709D01*
X7975592Y4620404D01*
X7912112Y4696580D02*
X7924808Y4671188D01*
X7950200Y4645796D01*
X7975592D01*
X7988288Y4658492D01*
Y4683884D01*
X7975592Y4696580D01*
X7962896D01*
X7950200Y4683884D01*
Y4645796D01*
X6032492Y4875596D02*
X6045188Y4888292D01*
Y4913684D01*
X6032492Y4926380D01*
X5981708D01*
X5969012Y4913684D01*
Y4888292D01*
X5981708Y4875596D01*
X6045188Y4799421D02*
Y4850204D01*
X6007100D01*
X6019796Y4824812D01*
Y4812116D01*
X6007100Y4799421D01*
X5981708D01*
X5969012Y4812116D01*
Y4837508D01*
X5981708Y4850204D01*
X7073892Y4279896D02*
X7086588Y4292591D01*
Y4317983D01*
X7073892Y4330679D01*
X7023108D01*
X7010412Y4317983D01*
Y4292591D01*
X7023108Y4279896D01*
X7010412Y4216416D02*
X7086588D01*
X7048500Y4254504D01*
Y4203720D01*
X10567604Y8610592D02*
X10554908Y8623288D01*
X10529516D01*
X10516820Y8610592D01*
Y8559808D01*
X10529516Y8547112D01*
X10554908D01*
X10567604Y8559808D01*
X10592996Y8610592D02*
X10605692Y8623288D01*
X10631084D01*
X10643779Y8610592D01*
Y8597896D01*
X10631084Y8585200D01*
X10618388D01*
X10631084D01*
X10643779Y8572504D01*
Y8559808D01*
X10631084Y8547112D01*
X10605692D01*
X10592996Y8559808D01*
X7315192Y4278696D02*
X7327888Y4291392D01*
Y4316784D01*
X7315192Y4329480D01*
X7264408D01*
X7251712Y4316784D01*
Y4291392D01*
X7264408Y4278696D01*
X7251712Y4202521D02*
Y4253304D01*
X7302496Y4202521D01*
X7315192D01*
X7327888Y4215216D01*
Y4240608D01*
X7315192Y4253304D01*
X6261108Y4649400D02*
X6248412Y4636704D01*
Y4611312D01*
X6261108Y4598616D01*
X6311892D01*
X6324588Y4611312D01*
Y4636704D01*
X6311892Y4649400D01*
X6324588Y4674792D02*
Y4700184D01*
Y4687488D01*
X6248412D01*
X6261108Y4674792D01*
D37*
X8286400Y4789600D02*
G03*
X8396400Y4679600I110000J0D01*
G01*
Y5429600D02*
G03*
X8286400Y5319600I0J-110000D01*
G01*
X9036400D02*
G03*
X8926400Y5429600I-110000J0D01*
G01*
Y4679600D02*
G03*
X9036400Y4789600I0J110000D01*
G01*
X6610000Y4802300D02*
G03*
X6720000Y4692300I110000J0D01*
G01*
Y5442300D02*
G03*
X6610000Y5332300I0J-110000D01*
G01*
X7360000D02*
G03*
X7250000Y5442300I-110000J0D01*
G01*
Y4692300D02*
G03*
X7360000Y4802300I0J110000D01*
G01*
X6557700Y8489000D02*
G03*
X6557700Y8509000I0J10000D01*
G01*
D02*
G03*
X6557700Y8489000I0J-10000D01*
G01*
X4581100Y3886600D02*
X5626100D01*
X4581100D02*
Y4479600D01*
X5446100D01*
X4581100Y5207400D02*
X5626100D01*
X4581100D02*
Y5800400D01*
X5446100D01*
X4581100Y4547000D02*
X5626100D01*
X4581100D02*
Y5140000D01*
X5446100D01*
X10606500Y3866200D02*
X10731500D01*
X10606500D02*
Y6481200D01*
X10856500D01*
Y4013200D02*
Y6481200D01*
X4920300Y9220200D02*
Y9345200D01*
X7535300D01*
Y9095200D02*
Y9345200D01*
X5067300Y9095200D02*
X7535300D01*
X8286400Y4789600D02*
Y5319600D01*
X8396400Y4679600D02*
X8516400D01*
X9036400Y4789600D02*
Y5319600D01*
X8396400Y5429600D02*
X8516400D01*
X8806400D02*
X8926400D01*
X8806400Y4679600D02*
X8926400D01*
X6610000Y4802300D02*
Y5332300D01*
X6720000Y4692300D02*
X6840000D01*
X7360000Y4802300D02*
Y5332300D01*
X6720000Y5442300D02*
X6840000D01*
X7130000D02*
X7250000D01*
X7130000Y4692300D02*
X7250000D01*
X9776400Y5018800D02*
X10086400D01*
X9776400Y4988800D02*
X10086400D01*
Y5018800D01*
X9776400Y4988800D02*
Y5018800D01*
X10025100Y9011300D02*
Y9251300D01*
X10065100Y9431300D02*
X10605100D01*
X10625100Y9011300D02*
Y9251300D01*
X10045100Y8831300D02*
X10605100D01*
X10089100Y7321500D02*
X10232100D01*
X10089100D02*
Y8299500D01*
X10232100D01*
X10672100D02*
X10812100D01*
X10815100Y7321500D01*
X10672100D02*
X10815100D01*
X7078200Y8235500D02*
X7298200D01*
X7078200Y8020500D02*
X7298200D01*
X6179000Y4539400D02*
Y4759400D01*
X6394000Y4539400D02*
Y4759400D01*
X7397300Y4156000D02*
Y4376000D01*
X7182300Y4156000D02*
Y4376000D01*
X10470300Y8692700D02*
X10690300D01*
X10470300Y8477700D02*
X10690300D01*
X7156000Y4157200D02*
Y4377200D01*
X6941000Y4157200D02*
Y4377200D01*
X6114600Y4754100D02*
Y4974100D01*
X5899600Y4754100D02*
Y4974100D01*
X7842700Y4524300D02*
Y4744300D01*
X8057700Y4524300D02*
Y4744300D01*
X9072430Y4133000D02*
Y4353000D01*
X8857430Y4133000D02*
Y4353000D01*
X8831130Y4133000D02*
Y4353000D01*
X8616130Y4133000D02*
Y4353000D01*
X7777030Y4727500D02*
Y4947500D01*
X7562030Y4727500D02*
Y4947500D01*
D38*
X8673900Y4604600D02*
G03*
X8673900Y4604600I-12500J0D01*
G01*
X6997500Y4617300D02*
G03*
X6997500Y4617300I-12500J0D01*
G01*
X9758900Y4883800D02*
G03*
X9758900Y4883800I-12500J0D01*
G01*
D39*
X10835100Y8911300D02*
G03*
X10845100Y8911300I5000J0D01*
G01*
D02*
G03*
X10835100Y8911300I-5000J0D01*
G01*
X10325100Y7210500D02*
G03*
X10325100Y7220500I0J5000D01*
G01*
D02*
G03*
X10325100Y7210500I0J-5000D01*
G01*
X4616100Y5880500D02*
Y7454500D01*
X5466100D01*
Y5880500D02*
Y7454500D01*
X4616100Y5880500D02*
X5466100D01*
X5157700Y8749000D02*
X6297700D01*
X5157700Y8269000D02*
X6297700D01*
D40*
X8248093Y8753553D02*
X8289847Y8795307D01*
X8205470Y7418070D02*
X8268156D01*
X9625330D02*
Y7480756D01*
X9562644Y8837930D02*
X9625330D01*
X8205470Y8775244D02*
Y8837930D01*
Y7418070D02*
Y7480756D01*
X9562644Y7418070D02*
X9625330D01*
Y8775244D02*
Y8837930D01*
X8205470D02*
X8268156D01*
X6532245Y4286500D02*
X6732905D01*
X6532245Y4616700D02*
X6732905D01*
X8204200Y4267200D02*
X8404860D01*
X8204200Y4597400D02*
X8404860D01*
D41*
X7974330Y8791079D02*
X8025113Y8740296D01*
X7974330D02*
X8025113Y8791079D01*
X7974330Y8765688D02*
X8025113D01*
X7999722Y8740296D02*
Y8791079D01*
X6438900Y4653259D02*
X6489683Y4602476D01*
X6438900D02*
X6489683Y4653259D01*
X6438900Y4627868D02*
X6489683D01*
X6464292Y4602476D02*
Y4653259D01*
X8110855Y4633959D02*
X8161638Y4583176D01*
X8110855D02*
X8161638Y4633959D01*
X8110855Y4608568D02*
X8161638D01*
X8136247Y4583176D02*
Y4633959D01*
%TF.MD5,2e38d6bb2b2416cbab183e3b15959441*%
M02*
