G04*
G04 #@! TF.GenerationSoftware,Altium Limited,Altium Designer,24.7.2 (38)*
G04*
G04 Layer_Color=2752767*
%FSLAX25Y25*%
%MOIN*%
G70*
G04*
G04 #@! TF.SameCoordinates,17647D21-3567-4D15-9BF9-88849ECC23B8*
G04*
G04*
G04 #@! TF.FilePolarity,Positive*
G04*
G01*
G75*
%ADD69C,0.00667*%
%ADD70C,0.00500*%
D69*
X368000Y233000D02*
G03*
X368000Y233000I-2000J0D01*
G01*
Y243000D02*
G03*
X368000Y243000I-2000J0D01*
G01*
Y253000D02*
G03*
X368000Y253000I-2000J0D01*
G01*
Y263000D02*
G03*
X368000Y263000I-2000J0D01*
G01*
X223500Y169000D02*
G03*
X223500Y169000I-2000J0D01*
G01*
Y159000D02*
G03*
X223500Y159000I-2000J0D01*
G01*
Y211000D02*
G03*
X223500Y211000I-2000J0D01*
G01*
Y221000D02*
G03*
X223500Y221000I-2000J0D01*
G01*
Y185000D02*
G03*
X223500Y185000I-2000J0D01*
G01*
Y195000D02*
G03*
X223500Y195000I-2000J0D01*
G01*
D70*
X219500Y235500D02*
X220500Y237500D01*
X219500Y239500D01*
X221500Y238500D01*
X223500Y239500D01*
X222500Y237500D01*
X223500Y235500D01*
X221500Y236500D01*
X219500Y235500D01*
Y245500D02*
X220500Y247500D01*
X219500Y249500D01*
X221500Y248500D01*
X223500Y249500D01*
X222500Y247500D01*
X223500Y245500D01*
X221500Y246500D01*
X219500Y245500D01*
Y255500D02*
X220500Y257500D01*
X219500Y259500D01*
X221500Y258500D01*
X223500Y259500D01*
X222500Y257500D01*
X223500Y255500D01*
X221500Y256500D01*
X219500Y255500D01*
Y265500D02*
X220500Y267500D01*
X219500Y269500D01*
X221500Y268500D01*
X223500Y269500D01*
X222500Y267500D01*
X223500Y265500D01*
X221500Y266500D01*
X219500Y265500D01*
Y275500D02*
X220500Y277500D01*
X219500Y279500D01*
X221500Y278500D01*
X223500Y279500D01*
X222500Y277500D01*
X223500Y275500D01*
X221500Y276500D01*
X219500Y275500D01*
Y285500D02*
X220500Y287500D01*
X219500Y289500D01*
X221500Y288500D01*
X223500Y289500D01*
X222500Y287500D01*
X223500Y285500D01*
X221500Y286500D01*
X219500Y285500D01*
X420500Y246000D02*
Y250000D01*
X424500D01*
Y246000D01*
X420500D01*
Y236000D02*
Y240000D01*
X424500D01*
Y236000D01*
X420500D01*
Y226000D02*
Y230000D01*
X424500D01*
Y226000D01*
X420500D01*
Y216000D02*
Y220000D01*
X424500D01*
Y216000D01*
X420500D01*
Y206000D02*
Y210000D01*
X424500D01*
Y206000D01*
X420500D01*
Y196000D02*
Y200000D01*
X424500D01*
Y196000D01*
X420500D01*
Y186000D02*
Y190000D01*
X424500D01*
Y186000D01*
X420500D01*
Y176000D02*
Y180000D01*
X424500D01*
Y176000D01*
X420500D01*
Y166000D02*
Y170000D01*
X424500D01*
Y166000D01*
X420500D01*
Y156000D02*
Y160000D01*
X424500D01*
Y156000D01*
X420500D01*
X287500Y361000D02*
Y365000D01*
X291500D01*
Y361000D01*
X287500D01*
X277500D02*
Y365000D01*
X281500D01*
Y361000D01*
X277500D01*
X267500D02*
Y365000D01*
X271500D01*
Y361000D01*
X267500D01*
X257500D02*
Y365000D01*
X261500D01*
Y361000D01*
X257500D01*
X247500D02*
Y365000D01*
X251500D01*
Y361000D01*
X247500D01*
X237500D02*
Y365000D01*
X241500D01*
Y361000D01*
X237500D01*
X227500D02*
Y365000D01*
X231500D01*
Y361000D01*
X227500D01*
X217500D02*
Y365000D01*
X221500D01*
Y361000D01*
X217500D01*
X207500D02*
Y365000D01*
X211500D01*
Y361000D01*
X207500D01*
X197500D02*
Y365000D01*
X201500D01*
Y361000D01*
X197500D01*
X334500Y295000D02*
X332500Y299000D01*
X336500D01*
X334500Y295000D01*
X328000Y294500D02*
X326000Y298500D01*
X330000D01*
X328000Y294500D01*
X348000Y293000D02*
X349000Y294000D01*
X350000D01*
X349000Y295000D01*
X350000Y296000D01*
X349000D01*
X348000Y297000D01*
X347000Y296000D01*
X346000D01*
X347000Y295000D01*
X346000Y294000D01*
X347000D01*
X348000Y293000D01*
X341500Y295500D02*
X342500Y296500D01*
X343500D01*
X342500Y297500D01*
X343500Y298500D01*
X342500D01*
X341500Y299500D01*
X340500Y298500D01*
X339500D01*
X340500Y297500D01*
X339500Y296500D01*
X340500D01*
X341500Y295500D01*
X327500Y306000D02*
X325500Y310000D01*
X329500D01*
X327500Y306000D01*
X357000Y334500D02*
X358000Y335500D01*
X359000D01*
X358000Y336500D01*
X359000Y337500D01*
X358000D01*
X357000Y338500D01*
X356000Y337500D01*
X355000D01*
X356000Y336500D01*
X355000Y335500D01*
X356000D01*
X357000Y334500D01*
X360500Y293000D02*
X361500Y294000D01*
X362500D01*
X361500Y295000D01*
X362500Y296000D01*
X361500D01*
X360500Y297000D01*
X359500Y296000D01*
X358500D01*
X359500Y295000D01*
X358500Y294000D01*
X359500D01*
X360500Y293000D01*
X367828Y295745D02*
X365828Y299745D01*
X369828D01*
X367828Y295745D01*
X313500Y320500D02*
X311500Y324500D01*
X315500D01*
X313500Y320500D01*
X291500Y313500D02*
X292500Y314500D01*
X293500D01*
X292500Y315500D01*
X293500Y316500D01*
X292500D01*
X291500Y317500D01*
X290500Y316500D01*
X289500D01*
X290500Y315500D01*
X289500Y314500D01*
X290500D01*
X291500Y313500D01*
X328500Y337000D02*
X329500Y338000D01*
X330500D01*
X329500Y339000D01*
X330500Y340000D01*
X329500D01*
X328500Y341000D01*
X327500Y340000D01*
X326500D01*
X327500Y339000D01*
X326500Y338000D01*
X327500D01*
X328500Y337000D01*
X425500Y331500D02*
X426500Y332500D01*
X427500D01*
X426500Y333500D01*
X427500Y334500D01*
X426500D01*
X425500Y335500D01*
X424500Y334500D01*
X423500D01*
X424500Y333500D01*
X423500Y332500D01*
X424500D01*
X425500Y331500D01*
X422500Y324000D02*
X423500Y325000D01*
X424500D01*
X423500Y326000D01*
X424500Y327000D01*
X423500D01*
X422500Y328000D01*
X421500Y327000D01*
X420500D01*
X421500Y326000D01*
X420500Y325000D01*
X421500D01*
X422500Y324000D01*
X421000Y338000D02*
X422000Y339000D01*
X423000D01*
X422000Y340000D01*
X423000Y341000D01*
X422000D01*
X421000Y342000D01*
X420000Y341000D01*
X419000D01*
X420000Y340000D01*
X419000Y339000D01*
X420000D01*
X421000Y338000D01*
X250500Y154000D02*
X251500Y155000D01*
X252500D01*
X251500Y156000D01*
X252500Y157000D01*
X251500D01*
X250500Y158000D01*
X249500Y157000D01*
X248500D01*
X249500Y156000D01*
X248500Y155000D01*
X249500D01*
X250500Y154000D01*
X243000D02*
X244000Y155000D01*
X245000D01*
X244000Y156000D01*
X245000Y157000D01*
X244000D01*
X243000Y158000D01*
X242000Y157000D01*
X241000D01*
X242000Y156000D01*
X241000Y155000D01*
X242000D01*
X243000Y154000D01*
X365500Y341000D02*
X366500Y342000D01*
X367500D01*
X366500Y343000D01*
X367500Y344000D01*
X366500D01*
X365500Y345000D01*
X364500Y344000D01*
X363500D01*
X364500Y343000D01*
X363500Y342000D01*
X364500D01*
X365500Y341000D01*
X356000D02*
X357000Y342000D01*
X358000D01*
X357000Y343000D01*
X358000Y344000D01*
X357000D01*
X356000Y345000D01*
X355000Y344000D01*
X354000D01*
X355000Y343000D01*
X354000Y342000D01*
X355000D01*
X356000Y341000D01*
X371000Y357500D02*
X372000Y358500D01*
X373000D01*
X372000Y359500D01*
X373000Y360500D01*
X372000D01*
X371000Y361500D01*
X370000Y360500D01*
X369000D01*
X370000Y359500D01*
X369000Y358500D01*
X370000D01*
X371000Y357500D01*
X341500Y360000D02*
X342500Y361000D01*
X343500D01*
X342500Y362000D01*
X343500Y363000D01*
X342500D01*
X341500Y364000D01*
X340500Y363000D01*
X339500D01*
X340500Y362000D01*
X339500Y361000D01*
X340500D01*
X341500Y360000D01*
X329500Y354500D02*
X330500Y355500D01*
X331500D01*
X330500Y356500D01*
X331500Y357500D01*
X330500D01*
X329500Y358500D01*
X328500Y357500D01*
X327500D01*
X328500Y356500D01*
X327500Y355500D01*
X328500D01*
X329500Y354500D01*
X311000Y326000D02*
X312000Y327000D01*
X313000D01*
X312000Y328000D01*
X313000Y329000D01*
X312000D01*
X311000Y330000D01*
X310000Y329000D01*
X309000D01*
X310000Y328000D01*
X309000Y327000D01*
X310000D01*
X311000Y326000D01*
X373500Y341213D02*
X371500Y345213D01*
X375500D01*
X373500Y341213D01*
X329000Y342000D02*
X327000Y346000D01*
X331000D01*
X329000Y342000D01*
X335000Y342500D02*
X333000Y346500D01*
X337000D01*
X335000Y342500D01*
X341000Y341500D02*
X342000Y342500D01*
X343000D01*
X342000Y343500D01*
X343000Y344500D01*
X342000D01*
X341000Y345500D01*
X340000Y344500D01*
X339000D01*
X340000Y343500D01*
X339000Y342500D01*
X340000D01*
X341000Y341500D01*
X348500Y340000D02*
X349500Y341000D01*
X350500D01*
X349500Y342000D01*
X350500Y343000D01*
X349500D01*
X348500Y344000D01*
X347500Y343000D01*
X346500D01*
X347500Y342000D01*
X346500Y341000D01*
X347500D01*
X348500Y340000D01*
X351000Y334500D02*
X352000Y335500D01*
X353000D01*
X352000Y336500D01*
X353000Y337500D01*
X352000D01*
X351000Y338500D01*
X350000Y337500D01*
X349000D01*
X350000Y336500D01*
X349000Y335500D01*
X350000D01*
X351000Y334500D01*
X328500Y318500D02*
X326500Y322500D01*
X330500D01*
X328500Y318500D01*
X391000Y360500D02*
X392000Y361500D01*
X393000D01*
X392000Y362500D01*
X393000Y363500D01*
X392000D01*
X391000Y364500D01*
X390000Y363500D01*
X389000D01*
X390000Y362500D01*
X389000Y361500D01*
X390000D01*
X391000Y360500D01*
X397500Y366000D02*
X398500Y367000D01*
X399500D01*
X398500Y368000D01*
X399500Y369000D01*
X398500D01*
X397500Y370000D01*
X396500Y369000D01*
X395500D01*
X396500Y368000D01*
X395500Y367000D01*
X396500D01*
X397500Y366000D01*
X416000Y366500D02*
X417000Y367500D01*
X418000D01*
X417000Y368500D01*
X418000Y369500D01*
X417000D01*
X416000Y370500D01*
X415000Y369500D01*
X414000D01*
X415000Y368500D01*
X414000Y367500D01*
X415000D01*
X416000Y366500D01*
X422000Y361000D02*
X423000Y362000D01*
X424000D01*
X423000Y363000D01*
X424000Y364000D01*
X423000D01*
X422000Y365000D01*
X421000Y364000D01*
X420000D01*
X421000Y363000D01*
X420000Y362000D01*
X421000D01*
X422000Y361000D01*
X397500Y350000D02*
X395500Y354000D01*
X399500D01*
X397500Y350000D01*
X405000Y345500D02*
X406000Y346500D01*
X407000D01*
X406000Y347500D01*
X407000Y348500D01*
X406000D01*
X405000Y349500D01*
X404000Y348500D01*
X403000D01*
X404000Y347500D01*
X403000Y346500D01*
X404000D01*
X405000Y345500D01*
X423500Y278500D02*
X424500Y279500D01*
X425500D01*
X424500Y280500D01*
X425500Y281500D01*
X424500D01*
X423500Y282500D01*
X422500Y281500D01*
X421500D01*
X422500Y280500D01*
X421500Y279500D01*
X422500D01*
X423500Y278500D01*
X416500D02*
X417500Y279500D01*
X418500D01*
X417500Y280500D01*
X418500Y281500D01*
X417500D01*
X416500Y282500D01*
X415500Y281500D01*
X414500D01*
X415500Y280500D01*
X414500Y279500D01*
X415500D01*
X416500Y278500D01*
X402500D02*
X403500Y279500D01*
X404500D01*
X403500Y280500D01*
X404500Y281500D01*
X403500D01*
X402500Y282500D01*
X401500Y281500D01*
X400500D01*
X401500Y280500D01*
X400500Y279500D01*
X401500D01*
X402500Y278500D01*
X409500D02*
X410500Y279500D01*
X411500D01*
X410500Y280500D01*
X411500Y281500D01*
X410500D01*
X409500Y282500D01*
X408500Y281500D01*
X407500D01*
X408500Y280500D01*
X407500Y279500D01*
X408500D01*
X409500Y278500D01*
X300000Y225000D02*
X298000Y229000D01*
X302000D01*
X300000Y225000D01*
X249500Y173500D02*
X250500Y174500D01*
X251500D01*
X250500Y175500D01*
X251500Y176500D01*
X250500D01*
X249500Y177500D01*
X248500Y176500D01*
X247500D01*
X248500Y175500D01*
X247500Y174500D01*
X248500D01*
X249500Y173500D01*
X355500Y173000D02*
X353500Y177000D01*
X357500D01*
X355500Y173000D01*
X338000Y172500D02*
X336000Y176500D01*
X340000D01*
X338000Y172500D01*
X316500D02*
X317500Y173500D01*
X318500D01*
X317500Y174500D01*
X318500Y175500D01*
X317500D01*
X316500Y176500D01*
X315500Y175500D01*
X314500D01*
X315500Y174500D01*
X314500Y173500D01*
X315500D01*
X316500Y172500D01*
X391000Y183000D02*
X392000Y184000D01*
X393000D01*
X392000Y185000D01*
X393000Y186000D01*
X392000D01*
X391000Y187000D01*
X390000Y186000D01*
X389000D01*
X390000Y185000D01*
X389000Y184000D01*
X390000D01*
X391000Y183000D01*
X382000Y183500D02*
X383000Y184500D01*
X384000D01*
X383000Y185500D01*
X384000Y186500D01*
X383000D01*
X382000Y187500D01*
X381000Y186500D01*
X380000D01*
X381000Y185500D01*
X380000Y184500D01*
X381000D01*
X382000Y183500D01*
X381000Y190000D02*
X379000Y194000D01*
X383000D01*
X381000Y190000D01*
X393000Y177500D02*
X394000Y178500D01*
X395000D01*
X394000Y179500D01*
X395000Y180500D01*
X394000D01*
X393000Y181500D01*
X392000Y180500D01*
X391000D01*
X392000Y179500D01*
X391000Y178500D01*
X392000D01*
X393000Y177500D01*
X400000Y176500D02*
X401000Y177500D01*
X402000D01*
X401000Y178500D01*
X402000Y179500D01*
X401000D01*
X400000Y180500D01*
X399000Y179500D01*
X398000D01*
X399000Y178500D01*
X398000Y177500D01*
X399000D01*
X400000Y176500D01*
X390094Y165000D02*
X388094Y169000D01*
X392094D01*
X390094Y165000D01*
Y171000D02*
X388094Y175000D01*
X392094D01*
X390094Y171000D01*
X359500Y311500D02*
X360500Y312500D01*
X361500D01*
X360500Y313500D01*
X361500Y314500D01*
X360500D01*
X359500Y315500D01*
X358500Y314500D01*
X357500D01*
X358500Y313500D01*
X357500Y312500D01*
X358500D01*
X359500Y311500D01*
X354000Y306000D02*
X355000Y307000D01*
X356000D01*
X355000Y308000D01*
X356000Y309000D01*
X355000D01*
X354000Y310000D01*
X353000Y309000D01*
X352000D01*
X353000Y308000D01*
X352000Y307000D01*
X353000D01*
X354000Y306000D01*
X354500Y298500D02*
X352500Y302500D01*
X356500D01*
X354500Y298500D01*
X369000Y301000D02*
X367000Y305000D01*
X371000D01*
X369000Y301000D01*
X346000Y330500D02*
X347000Y331500D01*
X348000D01*
X347000Y332500D01*
X348000Y333500D01*
X347000D01*
X346000Y334500D01*
X345000Y333500D01*
X344000D01*
X345000Y332500D01*
X344000Y331500D01*
X345000D01*
X346000Y330500D01*
X335000D02*
X336000Y331500D01*
X337000D01*
X336000Y332500D01*
X337000Y333500D01*
X336000D01*
X335000Y334500D01*
X334000Y333500D01*
X333000D01*
X334000Y332500D01*
X333000Y331500D01*
X334000D01*
X335000Y330500D01*
X341500Y326500D02*
X342500Y327500D01*
X343500D01*
X342500Y328500D01*
X343500Y329500D01*
X342500D01*
X341500Y330500D01*
X340500Y329500D01*
X339500D01*
X340500Y328500D01*
X339500Y327500D01*
X340500D01*
X341500Y326500D01*
X335500Y316500D02*
X333500Y320500D01*
X337500D01*
X335500Y316500D01*
X343000Y319500D02*
X344000Y320500D01*
X345000D01*
X344000Y321500D01*
X345000Y322500D01*
X344000D01*
X343000Y323500D01*
X342000Y322500D01*
X341000D01*
X342000Y321500D01*
X341000Y320500D01*
X342000D01*
X343000Y319500D01*
X346500Y313500D02*
X347500Y314500D01*
X348500D01*
X347500Y315500D01*
X348500Y316500D01*
X347500D01*
X346500Y317500D01*
X345500Y316500D01*
X344500D01*
X345500Y315500D01*
X344500Y314500D01*
X345500D01*
X346500Y313500D01*
X336000Y323000D02*
X337000Y324000D01*
X338000D01*
X337000Y325000D01*
X338000Y326000D01*
X337000D01*
X336000Y327000D01*
X335000Y326000D01*
X334000D01*
X335000Y325000D01*
X334000Y324000D01*
X335000D01*
X336000Y323000D01*
X313500Y331500D02*
X311500Y335500D01*
X315500D01*
X313500Y331500D01*
X309000Y307000D02*
X310000Y308000D01*
X311000D01*
X310000Y309000D01*
X311000Y310000D01*
X310000D01*
X309000Y311000D01*
X308000Y310000D01*
X307000D01*
X308000Y309000D01*
X307000Y308000D01*
X308000D01*
X309000Y307000D01*
X313500Y302000D02*
X314500Y303000D01*
X315500D01*
X314500Y304000D01*
X315500Y305000D01*
X314500D01*
X313500Y306000D01*
X312500Y305000D01*
X311500D01*
X312500Y304000D01*
X311500Y303000D01*
X312500D01*
X313500Y302000D01*
X345000Y306500D02*
X346000Y307500D01*
X347000D01*
X346000Y308500D01*
X347000Y309500D01*
X346000D01*
X345000Y310500D01*
X344000Y309500D01*
X343000D01*
X344000Y308500D01*
X343000Y307500D01*
X344000D01*
X345000Y306500D01*
X348500Y300500D02*
X349500Y301500D01*
X350500D01*
X349500Y302500D01*
X350500Y303500D01*
X349500D01*
X348500Y304500D01*
X347500Y303500D01*
X346500D01*
X347500Y302500D01*
X346500Y301500D01*
X347500D01*
X348500Y300500D01*
X368500Y314500D02*
X369500Y315500D01*
X370500D01*
X369500Y316500D01*
X370500Y317500D01*
X369500D01*
X368500Y318500D01*
X367500Y317500D01*
X366500D01*
X367500Y316500D01*
X366500Y315500D01*
X367500D01*
X368500Y314500D01*
X367000Y307500D02*
X368000Y308500D01*
X369000D01*
X368000Y309500D01*
X369000Y310500D01*
X368000D01*
X367000Y311500D01*
X366000Y310500D01*
X365000D01*
X366000Y309500D01*
X365000Y308500D01*
X366000D01*
X367000Y307500D01*
X322000Y287500D02*
X323000Y288500D01*
X324000D01*
X323000Y289500D01*
X324000Y290500D01*
X323000D01*
X322000Y291500D01*
X321000Y290500D01*
X320000D01*
X321000Y289500D01*
X320000Y288500D01*
X321000D01*
X322000Y287500D01*
X368500Y279000D02*
X369500Y280000D01*
X370500D01*
X369500Y281000D01*
X370500Y282000D01*
X369500D01*
X368500Y283000D01*
X367500Y282000D01*
X366500D01*
X367500Y281000D01*
X366500Y280000D01*
X367500D01*
X368500Y279000D01*
X377000Y281500D02*
X378000Y282500D01*
X379000D01*
X378000Y283500D01*
X379000Y284500D01*
X378000D01*
X377000Y285500D01*
X376000Y284500D01*
X375000D01*
X376000Y283500D01*
X375000Y282500D01*
X376000D01*
X377000Y281500D01*
X372020Y327500D02*
X370020Y331500D01*
X374020D01*
X372020Y327500D01*
X361020Y328000D02*
X362020Y329000D01*
X363020D01*
X362020Y330000D01*
X363020Y331000D01*
X362020D01*
X361020Y332000D01*
X360020Y331000D01*
X359020D01*
X360020Y330000D01*
X359020Y329000D01*
X360020D01*
X361020Y328000D01*
X375020Y335000D02*
X373020Y339000D01*
X377020D01*
X375020Y335000D01*
X388000Y339500D02*
X389000Y340500D01*
X390000D01*
X389000Y341500D01*
X390000Y342500D01*
X389000D01*
X388000Y343500D01*
X387000Y342500D01*
X386000D01*
X387000Y341500D01*
X386000Y340500D01*
X387000D01*
X388000Y339500D01*
X380000Y289000D02*
X381000Y290000D01*
X382000D01*
X381000Y291000D01*
X382000Y292000D01*
X381000D01*
X380000Y293000D01*
X379000Y292000D01*
X378000D01*
X379000Y291000D01*
X378000Y290000D01*
X379000D01*
X380000Y289000D01*
X287500Y284000D02*
X288500Y285000D01*
X289500D01*
X288500Y286000D01*
X289500Y287000D01*
X288500D01*
X287500Y288000D01*
X286500Y287000D01*
X285500D01*
X286500Y286000D01*
X285500Y285000D01*
X286500D01*
X287500Y284000D01*
X291500Y293000D02*
X292500Y294000D01*
X293500D01*
X292500Y295000D01*
X293500Y296000D01*
X292500D01*
X291500Y297000D01*
X290500Y296000D01*
X289500D01*
X290500Y295000D01*
X289500Y294000D01*
X290500D01*
X291500Y293000D01*
X271000Y173500D02*
X269000Y177500D01*
X273000D01*
X271000Y173500D01*
X286500D02*
X284500Y177500D01*
X288500D01*
X286500Y173500D01*
X348500Y172500D02*
X346500Y176500D01*
X350500D01*
X348500Y172500D01*
X416500Y314500D02*
X414500Y318500D01*
X418500D01*
X416500Y314500D01*
X398500Y343000D02*
X399500Y344000D01*
X400500D01*
X399500Y345000D01*
X400500Y346000D01*
X399500D01*
X398500Y347000D01*
X397500Y346000D01*
X396500D01*
X397500Y345000D01*
X396500Y344000D01*
X397500D01*
X398500Y343000D01*
X391435Y329435D02*
X392435Y330435D01*
X393435D01*
X392435Y331435D01*
X393435Y332435D01*
X392435D01*
X391435Y333435D01*
X390435Y332435D01*
X389435D01*
X390435Y331435D01*
X389435Y330435D01*
X390435D01*
X391435Y329435D01*
X375500Y314500D02*
X376500Y315500D01*
X377500D01*
X376500Y316500D01*
X377500Y317500D01*
X376500D01*
X375500Y318500D01*
X374500Y317500D01*
X373500D01*
X374500Y316500D01*
X373500Y315500D01*
X374500D01*
X375500Y314500D01*
X374500Y294500D02*
X372500Y298500D01*
X376500D01*
X374500Y294500D01*
X282000Y291500D02*
X283000Y292500D01*
X284000D01*
X283000Y293500D01*
X284000Y294500D01*
X283000D01*
X282000Y295500D01*
X281000Y294500D01*
X280000D01*
X281000Y293500D01*
X280000Y292500D01*
X281000D01*
X282000Y291500D01*
X277500Y270000D02*
X278500Y271000D01*
X279500D01*
X278500Y272000D01*
X279500Y273000D01*
X278500D01*
X277500Y274000D01*
X276500Y273000D01*
X275500D01*
X276500Y272000D01*
X275500Y271000D01*
X276500D01*
X277500Y270000D01*
X390018Y273982D02*
X391018Y274982D01*
X392018D01*
X391018Y275982D01*
X392018Y276982D01*
X391018D01*
X390018Y277982D01*
X389018Y276982D01*
X388018D01*
X389018Y275982D01*
X388018Y274982D01*
X389018D01*
X390018Y273982D01*
X387000Y269500D02*
X388000Y270500D01*
X389000D01*
X388000Y271500D01*
X389000Y272500D01*
X388000D01*
X387000Y273500D01*
X386000Y272500D01*
X385000D01*
X386000Y271500D01*
X385000Y270500D01*
X386000D01*
X387000Y269500D01*
X363000Y281500D02*
X364000Y282500D01*
X365000D01*
X364000Y283500D01*
X365000Y284500D01*
X364000D01*
X363000Y285500D01*
X362000Y284500D01*
X361000D01*
X362000Y283500D01*
X361000Y282500D01*
X362000D01*
X363000Y281500D01*
X381000Y213000D02*
X379000Y217000D01*
X383000D01*
X381000Y213000D01*
X387000Y212000D02*
X388000Y213000D01*
X389000D01*
X388000Y214000D01*
X389000Y215000D01*
X388000D01*
X387000Y216000D01*
X386000Y215000D01*
X385000D01*
X386000Y214000D01*
X385000Y213000D01*
X386000D01*
X387000Y212000D01*
X390000Y216500D02*
X391000Y217500D01*
X392000D01*
X391000Y218500D01*
X392000Y219500D01*
X391000D01*
X390000Y220500D01*
X389000Y219500D01*
X388000D01*
X389000Y218500D01*
X388000Y217500D01*
X389000D01*
X390000Y216500D01*
X394500Y209500D02*
X392500Y213500D01*
X396500D01*
X394500Y209500D01*
X316500Y153500D02*
X317500Y154500D01*
X318500D01*
X317500Y155500D01*
X318500Y156500D01*
X317500D01*
X316500Y157500D01*
X315500Y156500D01*
X314500D01*
X315500Y155500D01*
X314500Y154500D01*
X315500D01*
X316500Y153500D01*
X338500D02*
X339500Y154500D01*
X340500D01*
X339500Y155500D01*
X340500Y156500D01*
X339500D01*
X338500Y157500D01*
X337500Y156500D01*
X336500D01*
X337500Y155500D01*
X336500Y154500D01*
X337500D01*
X338500Y153500D01*
X346500D02*
X347500Y154500D01*
X348500D01*
X347500Y155500D01*
X348500Y156500D01*
X347500D01*
X346500Y157500D01*
X345500Y156500D01*
X344500D01*
X345500Y155500D01*
X344500Y154500D01*
X345500D01*
X346500Y153500D01*
X353500D02*
X354500Y154500D01*
X355500D01*
X354500Y155500D01*
X355500Y156500D01*
X354500D01*
X353500Y157500D01*
X352500Y156500D01*
X351500D01*
X352500Y155500D01*
X351500Y154500D01*
X352500D01*
X353500Y153500D01*
X280500Y173500D02*
X278500Y177500D01*
X282500D01*
X280500Y173500D01*
X281000Y154000D02*
X282000Y155000D01*
X283000D01*
X282000Y156000D01*
X283000Y157000D01*
X282000D01*
X281000Y158000D01*
X280000Y157000D01*
X279000D01*
X280000Y156000D01*
X279000Y155000D01*
X280000D01*
X281000Y154000D01*
X288000D02*
X289000Y155000D01*
X290000D01*
X289000Y156000D01*
X290000Y157000D01*
X289000D01*
X288000Y158000D01*
X287000Y157000D01*
X286000D01*
X287000Y156000D01*
X286000Y155000D01*
X287000D01*
X288000Y154000D01*
X244000Y173500D02*
X245000Y174500D01*
X246000D01*
X245000Y175500D01*
X246000Y176500D01*
X245000D01*
X244000Y177500D01*
X243000Y176500D01*
X242000D01*
X243000Y175500D01*
X242000Y174500D01*
X243000D01*
X244000Y173500D01*
X310500Y172500D02*
X311500Y173500D01*
X312500D01*
X311500Y174500D01*
X312500Y175500D01*
X311500D01*
X310500Y176500D01*
X309500Y175500D01*
X308500D01*
X309500Y174500D01*
X308500Y173500D01*
X309500D01*
X310500Y172500D01*
X305000Y170000D02*
X306000Y171000D01*
X307000D01*
X306000Y172000D01*
X307000Y173000D01*
X306000D01*
X305000Y174000D01*
X304000Y173000D01*
X303000D01*
X304000Y172000D01*
X303000Y171000D01*
X304000D01*
X305000Y170000D01*
X299500D02*
X300500Y171000D01*
X301500D01*
X300500Y172000D01*
X301500Y173000D01*
X300500D01*
X299500Y174000D01*
X298500Y173000D01*
X297500D01*
X298500Y172000D01*
X297500Y171000D01*
X298500D01*
X299500Y170000D01*
X305000Y177500D02*
X306000Y178500D01*
X307000D01*
X306000Y179500D01*
X307000Y180500D01*
X306000D01*
X305000Y181500D01*
X304000Y180500D01*
X303000D01*
X304000Y179500D01*
X303000Y178500D01*
X304000D01*
X305000Y177500D01*
X299500D02*
X300500Y178500D01*
X301500D01*
X300500Y179500D01*
X301500Y180500D01*
X300500D01*
X299500Y181500D01*
X298500Y180500D01*
X297500D01*
X298500Y179500D01*
X297500Y178500D01*
X298500D01*
X299500Y177500D01*
X239000Y178500D02*
X240000Y179500D01*
X241000D01*
X240000Y180500D01*
X241000Y181500D01*
X240000D01*
X239000Y182500D01*
X238000Y181500D01*
X237000D01*
X238000Y180500D01*
X237000Y179500D01*
X238000D01*
X239000Y178500D01*
X233500D02*
X234500Y179500D01*
X235500D01*
X234500Y180500D01*
X235500Y181500D01*
X234500D01*
X233500Y182500D01*
X232500Y181500D01*
X231500D01*
X232500Y180500D01*
X231500Y179500D01*
X232500D01*
X233500Y178500D01*
Y171000D02*
X234500Y172000D01*
X235500D01*
X234500Y173000D01*
X235500Y174000D01*
X234500D01*
X233500Y175000D01*
X232500Y174000D01*
X231500D01*
X232500Y173000D01*
X231500Y172000D01*
X232500D01*
X233500Y171000D01*
X239000D02*
X240000Y172000D01*
X241000D01*
X240000Y173000D01*
X241000Y174000D01*
X240000D01*
X239000Y175000D01*
X238000Y174000D01*
X237000D01*
X238000Y173000D01*
X237000Y172000D01*
X238000D01*
X239000Y171000D01*
X236000Y154000D02*
X237000Y155000D01*
X238000D01*
X237000Y156000D01*
X238000Y157000D01*
X237000D01*
X236000Y158000D01*
X235000Y157000D01*
X234000D01*
X235000Y156000D01*
X234000Y155000D01*
X235000D01*
X236000Y154000D01*
X258000D02*
X259000Y155000D01*
X260000D01*
X259000Y156000D01*
X260000Y157000D01*
X259000D01*
X258000Y158000D01*
X257000Y157000D01*
X256000D01*
X257000Y156000D01*
X256000Y155000D01*
X257000D01*
X258000Y154000D01*
Y161000D02*
X259000Y162000D01*
X260000D01*
X259000Y163000D01*
X260000Y164000D01*
X259000D01*
X258000Y165000D01*
X257000Y164000D01*
X256000D01*
X257000Y163000D01*
X256000Y162000D01*
X257000D01*
X258000Y161000D01*
X265000D02*
X266000Y162000D01*
X267000D01*
X266000Y163000D01*
X267000Y164000D01*
X266000D01*
X265000Y165000D01*
X264000Y164000D01*
X263000D01*
X264000Y163000D01*
X263000Y162000D01*
X264000D01*
X265000Y161000D01*
Y154000D02*
X266000Y155000D01*
X267000D01*
X266000Y156000D01*
X267000Y157000D01*
X266000D01*
X265000Y158000D01*
X264000Y157000D01*
X263000D01*
X264000Y156000D01*
X263000Y155000D01*
X264000D01*
X265000Y154000D01*
X273000D02*
X274000Y155000D01*
X275000D01*
X274000Y156000D01*
X275000Y157000D01*
X274000D01*
X273000Y158000D01*
X272000Y157000D01*
X271000D01*
X272000Y156000D01*
X271000Y155000D01*
X272000D01*
X273000Y154000D01*
X324000Y161000D02*
X325000Y162000D01*
X326000D01*
X325000Y163000D01*
X326000Y164000D01*
X325000D01*
X324000Y165000D01*
X323000Y164000D01*
X322000D01*
X323000Y163000D01*
X322000Y162000D01*
X323000D01*
X324000Y161000D01*
X331500D02*
X332500Y162000D01*
X333500D01*
X332500Y163000D01*
X333500Y164000D01*
X332500D01*
X331500Y165000D01*
X330500Y164000D01*
X329500D01*
X330500Y163000D01*
X329500Y162000D01*
X330500D01*
X331500Y161000D01*
Y153500D02*
X332500Y154500D01*
X333500D01*
X332500Y155500D01*
X333500Y156500D01*
X332500D01*
X331500Y157500D01*
X330500Y156500D01*
X329500D01*
X330500Y155500D01*
X329500Y154500D01*
X330500D01*
X331500Y153500D01*
X324000D02*
X325000Y154500D01*
X326000D01*
X325000Y155500D01*
X326000Y156500D01*
X325000D01*
X324000Y157500D01*
X323000Y156500D01*
X322000D01*
X323000Y155500D01*
X322000Y154500D01*
X323000D01*
X324000Y153500D01*
X308500D02*
X309500Y154500D01*
X310500D01*
X309500Y155500D01*
X310500Y156500D01*
X309500D01*
X308500Y157500D01*
X307500Y156500D01*
X306500D01*
X307500Y155500D01*
X306500Y154500D01*
X307500D01*
X308500Y153500D01*
X301000D02*
X302000Y154500D01*
X303000D01*
X302000Y155500D01*
X303000Y156500D01*
X302000D01*
X301000Y157500D01*
X300000Y156500D01*
X299000D01*
X300000Y155500D01*
X299000Y154500D01*
X300000D01*
X301000Y153500D01*
X318000Y204000D02*
X316000Y208000D01*
X320000D01*
X318000Y204000D01*
X309500D02*
X307500Y208000D01*
X311500D01*
X309500Y204000D01*
X301500D02*
X299500Y208000D01*
X303500D01*
X301500Y204000D01*
X318000Y196500D02*
X316000Y200500D01*
X320000D01*
X318000Y196500D01*
X309500D02*
X307500Y200500D01*
X311500D01*
X309500Y196500D01*
X301500D02*
X299500Y200500D01*
X303500D01*
X301500Y196500D01*
X318500Y213500D02*
X316500Y217500D01*
X320500D01*
X318500Y213500D01*
X309500D02*
X307500Y217500D01*
X311500D01*
X309500Y213500D01*
X301500D02*
X299500Y217500D01*
X303500D01*
X301500Y213500D01*
X351000Y216500D02*
X349000Y220500D01*
X353000D01*
X351000Y216500D01*
X341000D02*
X339000Y220500D01*
X343000D01*
X341000Y216500D01*
X331500D02*
X329500Y220500D01*
X333500D01*
X331500Y216500D01*
X285000Y218000D02*
X283000Y222000D01*
X287000D01*
X285000Y218000D01*
X274500D02*
X272500Y222000D01*
X276500D01*
X274500Y218000D01*
X264500D02*
X262500Y222000D01*
X266500D01*
X264500Y218000D01*
X245500Y198000D02*
X243500Y202000D01*
X247500D01*
X245500Y198000D01*
X254000Y207000D02*
X252000Y211000D01*
X256000D01*
X254000Y207000D01*
X245500Y207500D02*
X243500Y211500D01*
X247500D01*
X245500Y207500D01*
X236500D02*
X234500Y211500D01*
X238500D01*
X236500Y207500D01*
X254000Y198000D02*
X252000Y202000D01*
X256000D01*
X254000Y198000D01*
X236500D02*
X234500Y202000D01*
X238500D01*
X236500Y198000D01*
Y217000D02*
X234500Y221000D01*
X238500D01*
X236500Y217000D01*
X254000D02*
X252000Y221000D01*
X256000D01*
X254000Y217000D01*
X245500D02*
X243500Y221000D01*
X247500D01*
X245500Y217000D01*
M02*
