G04*
G04 #@! TF.GenerationSoftware,Altium Limited,Altium Designer,24.6.1 (21)*
G04*
G04 Layer_Color=65535*
%FSLAX44Y44*%
%MOMM*%
G71*
G04*
G04 #@! TF.SameCoordinates,687BAC2B-120B-4896-92E6-0E63200D37F7*
G04*
G04*
G04 #@! TF.FilePolarity,Positive*
G04*
G01*
G75*
%ADD10C,0.2000*%
%ADD11C,0.2500*%
%ADD12C,0.1000*%
%ADD13C,0.1524*%
%ADD14C,0.2540*%
%ADD15C,0.0762*%
G36*
X853445Y725678D02*
X849635D01*
Y723138D01*
X853445D01*
Y725678D01*
D02*
G37*
G36*
X804418Y779705D02*
X801878D01*
Y775895D01*
X804418D01*
Y779705D01*
D02*
G37*
G36*
Y829705D02*
X801878D01*
Y825895D01*
X804418D01*
Y829705D01*
D02*
G37*
G36*
X833445Y899922D02*
X829635D01*
Y902462D01*
X833445D01*
Y899922D01*
D02*
G37*
G36*
X883445D02*
X879635D01*
Y902462D01*
X883445D01*
Y899922D01*
D02*
G37*
G36*
X903445Y725678D02*
X899635D01*
Y723138D01*
X903445D01*
Y725678D01*
D02*
G37*
G36*
X953445D02*
X949635D01*
Y723138D01*
X953445D01*
Y725678D01*
D02*
G37*
G36*
X978662Y799705D02*
X981202D01*
Y795895D01*
X978662D01*
Y799705D01*
D02*
G37*
G36*
Y849705D02*
X981202D01*
Y845895D01*
X978662D01*
Y849705D01*
D02*
G37*
G36*
X933445Y899922D02*
X929635D01*
Y902462D01*
X933445D01*
Y899922D01*
D02*
G37*
D10*
X828640Y478960D02*
G03*
X839640Y467960I11000J0D01*
G01*
Y542960D02*
G03*
X828640Y531960I0J-11000D01*
G01*
X903640D02*
G03*
X892640Y542960I-11000J0D01*
G01*
Y467960D02*
G03*
X903640Y478960I0J11000D01*
G01*
X661000Y480230D02*
G03*
X672000Y469230I11000J0D01*
G01*
Y544230D02*
G03*
X661000Y533230I0J-11000D01*
G01*
X736000D02*
G03*
X725000Y544230I-11000J0D01*
G01*
Y469230D02*
G03*
X736000Y480230I0J11000D01*
G01*
X655770Y848900D02*
G03*
X655770Y850900I0J1000D01*
G01*
D02*
G03*
X655770Y848900I0J-1000D01*
G01*
X458110Y388660D02*
X562610D01*
X458110D02*
Y447960D01*
X544610D01*
X458110Y520740D02*
X562610D01*
X458110D02*
Y580040D01*
X544610D01*
X458110Y454700D02*
X562610D01*
X458110D02*
Y514000D01*
X544610D01*
X1060650Y386620D02*
X1073150D01*
X1060650D02*
Y648120D01*
X1085650D01*
Y401320D02*
Y648120D01*
X492030Y922020D02*
Y934520D01*
X753530D01*
Y909520D02*
Y934520D01*
X506730Y909520D02*
X753530D01*
X828640Y478960D02*
Y531960D01*
X839640Y467960D02*
X851640D01*
X903640Y478960D02*
Y531960D01*
X839640Y542960D02*
X851640D01*
X880640D02*
X892640D01*
X880640Y467960D02*
X892640D01*
X661000Y480230D02*
Y533230D01*
X672000Y469230D02*
X684000D01*
X736000Y480230D02*
Y533230D01*
X672000Y544230D02*
X684000D01*
X713000D02*
X725000D01*
X713000Y469230D02*
X725000D01*
X977640Y501880D02*
X1008640D01*
X977640Y498880D02*
X1008640D01*
Y501880D01*
X977640Y498880D02*
Y501880D01*
X1002510Y901130D02*
Y925130D01*
X1006510Y943130D02*
X1060510D01*
X1062510Y901130D02*
Y925130D01*
X1004510Y883130D02*
X1060510D01*
X1008910Y732150D02*
X1023210D01*
X1008910D02*
Y829950D01*
X1023210D01*
X1067210D02*
X1081210D01*
X1081510Y732150D01*
X1067210D02*
X1081510D01*
X707820Y823550D02*
X729820D01*
X707820Y802050D02*
X729820D01*
X617900Y453940D02*
Y475940D01*
X639400Y453940D02*
Y475940D01*
X739730Y415600D02*
Y437600D01*
X718230Y415600D02*
Y437600D01*
X1047030Y869270D02*
X1069030D01*
X1047030Y847770D02*
X1069030D01*
X715600Y415720D02*
Y437720D01*
X694100Y415720D02*
Y437720D01*
X611460Y475410D02*
Y497410D01*
X589960Y475410D02*
Y497410D01*
X784270Y452430D02*
Y474430D01*
X805770Y452430D02*
Y474430D01*
X907243Y413300D02*
Y435300D01*
X885743Y413300D02*
Y435300D01*
X883113Y413300D02*
Y435300D01*
X861613Y413300D02*
Y435300D01*
X777703Y472750D02*
Y494750D01*
X756203Y472750D02*
Y494750D01*
D11*
X867390Y460460D02*
G03*
X867390Y460460I-1250J0D01*
G01*
X699750Y461730D02*
G03*
X699750Y461730I-1250J0D01*
G01*
X975890Y488380D02*
G03*
X975890Y488380I-1250J0D01*
G01*
D12*
X1083510Y891130D02*
G03*
X1084510Y891130I500J0D01*
G01*
D02*
G03*
X1083510Y891130I-500J0D01*
G01*
X1032510Y721050D02*
G03*
X1032510Y722050I0J500D01*
G01*
D02*
G03*
X1032510Y721050I0J-500D01*
G01*
X461610Y588050D02*
Y745450D01*
X546610D01*
Y588050D02*
Y745450D01*
X461610Y588050D02*
X546610D01*
X515770Y874900D02*
X629770D01*
X515770Y826900D02*
X629770D01*
D13*
X824809Y875355D02*
X828985Y879531D01*
X820547Y741807D02*
X826816D01*
X962533D02*
Y748076D01*
X956264Y883793D02*
X962533D01*
X820547Y877524D02*
Y883793D01*
Y741807D02*
Y748076D01*
X956264Y741807D02*
X962533D01*
Y877524D02*
Y883793D01*
X820547D02*
X826816D01*
X653224Y428650D02*
X673290D01*
X653224Y461670D02*
X673290D01*
X820420Y426720D02*
X840486D01*
X820420Y459740D02*
X840486D01*
D14*
X609597Y608326D02*
X607057Y610865D01*
X601979D01*
X599440Y608326D01*
Y605787D01*
X601979Y603247D01*
X607057D01*
X609597Y600708D01*
Y598169D01*
X607057Y595630D01*
X601979D01*
X599440Y598169D01*
X622293Y595630D02*
X617214D01*
X614675Y598169D01*
Y603247D01*
X617214Y605787D01*
X622293D01*
X624832Y603247D01*
Y600708D01*
X614675D01*
X629910Y595630D02*
Y605787D01*
X637528D01*
X640067Y603247D01*
Y595630D01*
X645145D02*
X652763D01*
X655302Y598169D01*
X652763Y600708D01*
X647684D01*
X645145Y603247D01*
X647684Y605787D01*
X655302D01*
X662919Y595630D02*
X667998D01*
X670537Y598169D01*
Y603247D01*
X667998Y605787D01*
X662919D01*
X660380Y603247D01*
Y598169D01*
X662919Y595630D01*
X675615Y605787D02*
Y595630D01*
Y600708D01*
X678155Y603247D01*
X680694Y605787D01*
X683233D01*
X706086Y610865D02*
Y600708D01*
X711164Y595630D01*
X716242Y600708D01*
Y610865D01*
X721321Y595630D02*
X726399D01*
X723860D01*
Y610865D01*
X721321Y608326D01*
X502920Y419099D02*
X500381D01*
X501651D01*
Y412751D01*
X500381Y411481D01*
X499112D01*
X497842Y412751D01*
X510538Y419099D02*
X505460D01*
Y415290D01*
X507999Y416560D01*
X509268D01*
X510538Y415290D01*
Y412751D01*
X509268Y411481D01*
X506729D01*
X505460Y412751D01*
X500380Y552449D02*
X497841D01*
X499111D01*
Y546101D01*
X497841Y544831D01*
X496572D01*
X495302Y546101D01*
X507998Y552449D02*
X505459Y551179D01*
X502920Y548640D01*
Y546101D01*
X504189Y544831D01*
X506728D01*
X507998Y546101D01*
Y547370D01*
X506728Y548640D01*
X502920D01*
X504190Y486409D02*
X501651D01*
X502921D01*
Y480061D01*
X501651Y478791D01*
X500382D01*
X499112Y480061D01*
X510538Y478791D02*
Y486409D01*
X506730Y482600D01*
X511808D01*
X724018Y810261D02*
X725288Y808991D01*
X727827D01*
X729097Y810261D01*
Y815339D01*
X727827Y816609D01*
X725288D01*
X724018Y815339D01*
X716401Y816609D02*
X721479D01*
X716401Y811530D01*
Y810261D01*
X717670Y808991D01*
X720210D01*
X721479Y810261D01*
X708783Y808991D02*
X713862D01*
Y812800D01*
X711322Y811530D01*
X710053D01*
X708783Y812800D01*
Y815339D01*
X710053Y816609D01*
X712592D01*
X713862Y815339D01*
X1049019Y783590D02*
X1050289Y784859D01*
Y787398D01*
X1049019Y788668D01*
X1047750D01*
X1046480Y787398D01*
Y784859D01*
X1045210Y783590D01*
X1043941D01*
X1042671Y784859D01*
Y787398D01*
X1043941Y788668D01*
X1042671Y775972D02*
Y781050D01*
X1047750Y775972D01*
X1049019D01*
X1050289Y777242D01*
Y779781D01*
X1049019Y781050D01*
X661492Y832057D02*
X660222Y830788D01*
Y828249D01*
X661492Y826979D01*
X666570D01*
X667840Y828249D01*
Y830788D01*
X666570Y832057D01*
X667840Y839675D02*
Y834596D01*
X662761Y839675D01*
X661492D01*
X660222Y838405D01*
Y835866D01*
X661492Y834596D01*
X667840Y846023D02*
X660222D01*
X664031Y842214D01*
Y847292D01*
X485141Y844552D02*
X483871Y843282D01*
Y840743D01*
X485141Y839473D01*
X490219D01*
X491489Y840743D01*
Y843282D01*
X490219Y844552D01*
X491489Y852169D02*
Y847091D01*
X486410Y852169D01*
X485141D01*
X483871Y850900D01*
Y848360D01*
X485141Y847091D01*
Y854708D02*
X483871Y855978D01*
Y858517D01*
X485141Y859787D01*
X486410D01*
X487680Y858517D01*
Y857248D01*
Y858517D01*
X488950Y859787D01*
X490219D01*
X491489Y858517D01*
Y855978D01*
X490219Y854708D01*
X565152Y853439D02*
Y852169D01*
X567691Y849630D01*
X570230Y852169D01*
Y853439D01*
X567691Y849630D02*
Y845821D01*
X572769D02*
X575308D01*
X574039D01*
Y853439D01*
X572769Y852169D01*
X1033780Y910591D02*
X1035050Y909321D01*
X1037589D01*
X1038858Y910591D01*
Y911860D01*
X1037589Y913130D01*
X1035050D01*
X1033780Y914400D01*
Y915669D01*
X1035050Y916939D01*
X1037589D01*
X1038858Y915669D01*
X1031241Y916939D02*
X1028702D01*
X1029971D01*
Y909321D01*
X1031241Y910591D01*
X824105Y447039D02*
Y440691D01*
X825375Y439421D01*
X827914D01*
X829183Y440691D01*
Y447039D01*
X835531Y439421D02*
Y447039D01*
X831723Y443230D01*
X836801D01*
X656910Y450239D02*
Y443891D01*
X658179Y442621D01*
X660718D01*
X661988Y443891D01*
Y450239D01*
X664527Y448969D02*
X665797Y450239D01*
X668336D01*
X669605Y448969D01*
Y447700D01*
X668336Y446430D01*
X667066D01*
X668336D01*
X669605Y445160D01*
Y443891D01*
X668336Y442621D01*
X665797D01*
X664527Y443891D01*
X986792Y518159D02*
Y511811D01*
X988062Y510541D01*
X990601D01*
X991870Y511811D01*
Y518159D01*
X999488Y510541D02*
X994410D01*
X999488Y515620D01*
Y516889D01*
X998218Y518159D01*
X995679D01*
X994410Y516889D01*
X890272Y817879D02*
Y811531D01*
X891541Y810261D01*
X894080D01*
X895350Y811531D01*
Y817879D01*
X897889Y810261D02*
X900428D01*
X899159D01*
Y817879D01*
X897889Y816609D01*
X788544Y430408D02*
X796162D01*
Y426599D01*
X794892Y425330D01*
X792353D01*
X791083Y426599D01*
Y430408D01*
Y427869D02*
X788544Y425330D01*
X796162Y417712D02*
X794892Y420251D01*
X792353Y422790D01*
X789814D01*
X788544Y421521D01*
Y418982D01*
X789814Y417712D01*
X791083D01*
X792353Y418982D01*
Y422790D01*
X772151Y420369D02*
Y412751D01*
X768342D01*
X767073Y414021D01*
Y416560D01*
X768342Y417830D01*
X772151D01*
X769612D02*
X767073Y420369D01*
X759455Y412751D02*
X764533D01*
Y416560D01*
X761994Y415290D01*
X760725D01*
X759455Y416560D01*
Y419099D01*
X760725Y420369D01*
X763264D01*
X764533Y419099D01*
X621031Y432948D02*
X628649D01*
Y429139D01*
X627379Y427870D01*
X624840D01*
X623570Y429139D01*
Y432948D01*
Y430409D02*
X621031Y427870D01*
Y421522D02*
X628649D01*
X624840Y425330D01*
Y420252D01*
X604638Y422909D02*
Y415291D01*
X600829D01*
X599560Y416561D01*
Y419100D01*
X600829Y420370D01*
X604638D01*
X602099D02*
X599560Y422909D01*
X597020Y416561D02*
X595751Y415291D01*
X593212D01*
X591942Y416561D01*
Y417830D01*
X593212Y419100D01*
X594481D01*
X593212D01*
X591942Y420370D01*
Y421639D01*
X593212Y422909D01*
X595751D01*
X597020Y421639D01*
X1025008Y469899D02*
Y462281D01*
X1021199D01*
X1019930Y463551D01*
Y466090D01*
X1021199Y467360D01*
X1025008D01*
X1022469D02*
X1019930Y469899D01*
X1012312D02*
X1017390D01*
X1012312Y464820D01*
Y463551D01*
X1013582Y462281D01*
X1016121D01*
X1017390Y463551D01*
X1022468Y449579D02*
Y441961D01*
X1018660D01*
X1017390Y443231D01*
Y445770D01*
X1018660Y447040D01*
X1022468D01*
X1019929D02*
X1017390Y449579D01*
X1014851D02*
X1012312D01*
X1013581D01*
Y441961D01*
X1014851Y443231D01*
X694691Y500023D02*
X702309D01*
Y505101D01*
Y512719D02*
Y507640D01*
X697230Y512719D01*
X695961D01*
X694691Y511449D01*
Y508910D01*
X695961Y507640D01*
X862331Y500382D02*
X869949D01*
Y505460D01*
Y507999D02*
Y510538D01*
Y509269D01*
X862331D01*
X863601Y507999D01*
X504190Y669289D02*
X501651D01*
X502921D01*
Y662941D01*
X501651Y661671D01*
X500382D01*
X499112Y662941D01*
X506730Y669289D02*
X511808D01*
Y668019D01*
X506730Y662941D01*
Y661671D01*
X624839Y923290D02*
Y925829D01*
Y924559D01*
X618491D01*
X617221Y925829D01*
Y927098D01*
X618491Y928368D01*
X623569Y920750D02*
X624839Y919481D01*
Y916942D01*
X623569Y915672D01*
X622300D01*
X621030Y916942D01*
Y918211D01*
Y916942D01*
X619760Y915672D01*
X618491D01*
X617221Y916942D01*
Y919481D01*
X618491Y920750D01*
X1070610Y519429D02*
X1068071D01*
X1069341D01*
Y513081D01*
X1068071Y511811D01*
X1066802D01*
X1065532Y513081D01*
X1078228Y511811D02*
X1073150D01*
X1078228Y516890D01*
Y518159D01*
X1076958Y519429D01*
X1074419D01*
X1073150Y518159D01*
X770762Y485020D02*
X772032Y486289D01*
Y488828D01*
X770762Y490098D01*
X765684D01*
X764414Y488828D01*
Y486289D01*
X765684Y485020D01*
Y482480D02*
X764414Y481211D01*
Y478672D01*
X765684Y477402D01*
X770762D01*
X772032Y478672D01*
Y481211D01*
X770762Y482480D01*
X769493D01*
X768223Y481211D01*
Y477402D01*
X874902Y425570D02*
X876172Y426839D01*
Y429378D01*
X874902Y430648D01*
X869824D01*
X868554Y429378D01*
Y426839D01*
X869824Y425570D01*
X874902Y423030D02*
X876172Y421761D01*
Y419222D01*
X874902Y417952D01*
X873633D01*
X872363Y419222D01*
X871093Y417952D01*
X869824D01*
X868554Y419222D01*
Y421761D01*
X869824Y423030D01*
X871093D01*
X872363Y421761D01*
X873633Y423030D01*
X874902D01*
X872363Y421761D02*
Y419222D01*
X899032Y424300D02*
X900302Y425569D01*
Y428108D01*
X899032Y429378D01*
X893954D01*
X892684Y428108D01*
Y425569D01*
X893954Y424300D01*
X900302Y421760D02*
Y416682D01*
X899032D01*
X893954Y421760D01*
X892684D01*
X792481Y462040D02*
X791211Y460771D01*
Y458232D01*
X792481Y456962D01*
X797559D01*
X798829Y458232D01*
Y460771D01*
X797559Y462040D01*
X791211Y469658D02*
X792481Y467119D01*
X795020Y464580D01*
X797559D01*
X798829Y465849D01*
Y468388D01*
X797559Y469658D01*
X796290D01*
X795020Y468388D01*
Y464580D01*
X603249Y487560D02*
X604519Y488829D01*
Y491368D01*
X603249Y492638D01*
X598171D01*
X596901Y491368D01*
Y488829D01*
X598171Y487560D01*
X604519Y479942D02*
Y485020D01*
X600710D01*
X601980Y482481D01*
Y481212D01*
X600710Y479942D01*
X598171D01*
X596901Y481212D01*
Y483751D01*
X598171Y485020D01*
X707389Y427990D02*
X708659Y429259D01*
Y431798D01*
X707389Y433068D01*
X702311D01*
X701041Y431798D01*
Y429259D01*
X702311Y427990D01*
X701041Y421642D02*
X708659D01*
X704850Y425450D01*
Y420372D01*
X1056760Y861059D02*
X1055491Y862329D01*
X1052952D01*
X1051682Y861059D01*
Y855981D01*
X1052952Y854711D01*
X1055491D01*
X1056760Y855981D01*
X1059300Y861059D02*
X1060569Y862329D01*
X1063108D01*
X1064378Y861059D01*
Y859790D01*
X1063108Y858520D01*
X1061839D01*
X1063108D01*
X1064378Y857250D01*
Y855981D01*
X1063108Y854711D01*
X1060569D01*
X1059300Y855981D01*
X731519Y427870D02*
X732789Y429139D01*
Y431678D01*
X731519Y432948D01*
X726441D01*
X725171Y431678D01*
Y429139D01*
X726441Y427870D01*
X725171Y420252D02*
Y425330D01*
X730250Y420252D01*
X731519D01*
X732789Y421522D01*
Y424061D01*
X731519Y425330D01*
X626111Y464940D02*
X624841Y463670D01*
Y461131D01*
X626111Y459862D01*
X631189D01*
X632459Y461131D01*
Y463670D01*
X631189Y464940D01*
X632459Y467479D02*
Y470018D01*
Y468749D01*
X624841D01*
X626111Y467479D01*
D15*
X797433Y879108D02*
X802511Y874030D01*
X797433D02*
X802511Y879108D01*
X797433Y876569D02*
X802511D01*
X799972Y874030D02*
Y879108D01*
X643890Y465326D02*
X648968Y460248D01*
X643890D02*
X648968Y465326D01*
X643890Y462787D02*
X648968D01*
X646429Y460248D02*
Y465326D01*
X811086Y463396D02*
X816164Y458318D01*
X811086D02*
X816164Y463396D01*
X811086Y460857D02*
X816164D01*
X813625Y458318D02*
Y463396D01*
M02*
