G04*
G04 #@! TF.GenerationSoftware,Altium Limited,Altium Designer,24.7.2 (38)*
G04*
G04 Layer_Color=8421504*
%FSLAX25Y25*%
%MOIN*%
G70*
G04*
G04 #@! TF.SameCoordinates,17647D21-3567-4D15-9BF9-88849ECC23B8*
G04*
G04*
G04 #@! TF.FilePolarity,Positive*
G04*
G01*
G75*
%ADD15R,0.05800X0.01100*%
%ADD16R,0.01100X0.05800*%
%ADD17R,0.08661X0.06299*%
%ADD18R,0.06102X0.05118*%
%ADD19R,0.05906X0.05512*%
%ADD20R,0.03150X0.03937*%
%ADD21R,0.04449X0.09606*%
%ADD22R,0.05512X0.05906*%
%ADD23R,0.03937X0.03150*%
%ADD24R,0.21654X0.07874*%
%ADD25R,0.02756X0.05118*%
%ADD26R,0.03850X0.02200*%
%ADD27R,0.02441X0.02362*%
D15*
X320600Y343622D02*
D03*
Y341653D02*
D03*
Y339685D02*
D03*
Y337717D02*
D03*
Y335748D02*
D03*
Y333780D02*
D03*
Y331811D02*
D03*
Y329842D02*
D03*
Y327874D02*
D03*
Y325905D02*
D03*
Y323937D02*
D03*
Y321969D02*
D03*
Y320000D02*
D03*
Y318032D02*
D03*
Y316063D02*
D03*
Y314094D02*
D03*
Y312126D02*
D03*
Y310157D02*
D03*
Y308189D02*
D03*
Y306221D02*
D03*
Y304252D02*
D03*
Y302284D02*
D03*
Y300315D02*
D03*
Y298346D02*
D03*
Y296378D02*
D03*
X381400D02*
D03*
Y298346D02*
D03*
Y300315D02*
D03*
Y302284D02*
D03*
Y304252D02*
D03*
Y306221D02*
D03*
Y308189D02*
D03*
Y310157D02*
D03*
Y312126D02*
D03*
Y314094D02*
D03*
Y316063D02*
D03*
Y318032D02*
D03*
Y320000D02*
D03*
Y321969D02*
D03*
Y323937D02*
D03*
Y325905D02*
D03*
Y327874D02*
D03*
Y329842D02*
D03*
Y331811D02*
D03*
Y333780D02*
D03*
Y335748D02*
D03*
Y337717D02*
D03*
Y339685D02*
D03*
Y341653D02*
D03*
Y343622D02*
D03*
D16*
X327378Y289600D02*
D03*
X329346D02*
D03*
X331315D02*
D03*
X333283D02*
D03*
X335252D02*
D03*
X337221D02*
D03*
X339189D02*
D03*
X341158D02*
D03*
X343126D02*
D03*
X345094D02*
D03*
X347063D02*
D03*
X349031D02*
D03*
X351000D02*
D03*
X352969D02*
D03*
X354937D02*
D03*
X356906D02*
D03*
X358874D02*
D03*
X360842D02*
D03*
X362811D02*
D03*
X364779D02*
D03*
X366748D02*
D03*
X368717D02*
D03*
X370685D02*
D03*
X372654D02*
D03*
X374622D02*
D03*
Y350400D02*
D03*
X372654D02*
D03*
X370685D02*
D03*
X368717D02*
D03*
X366748D02*
D03*
X364779D02*
D03*
X362811D02*
D03*
X360842D02*
D03*
X358874D02*
D03*
X356906D02*
D03*
X354937D02*
D03*
X352969D02*
D03*
X351000D02*
D03*
X349031D02*
D03*
X347063D02*
D03*
X345094D02*
D03*
X343126D02*
D03*
X341158D02*
D03*
X339189D02*
D03*
X337221D02*
D03*
X335252D02*
D03*
X333283D02*
D03*
X331315D02*
D03*
X329346D02*
D03*
X327378D02*
D03*
D17*
X275000Y212098D02*
D03*
Y186902D02*
D03*
X341000Y186402D02*
D03*
Y211598D02*
D03*
D18*
X390850Y368358D02*
D03*
X422150D02*
D03*
X390850Y350642D02*
D03*
X422150D02*
D03*
D19*
X353500Y170000D02*
D03*
Y162520D02*
D03*
X236500Y194500D02*
D03*
Y187020D02*
D03*
X247000Y188500D02*
D03*
Y181020D02*
D03*
X302000Y186520D02*
D03*
Y194000D02*
D03*
X343500Y162520D02*
D03*
Y170000D02*
D03*
X285500Y162760D02*
D03*
Y170240D02*
D03*
X276000Y162760D02*
D03*
Y170240D02*
D03*
X312000Y187480D02*
D03*
Y180000D02*
D03*
D20*
X304450Y164000D02*
D03*
X298545D02*
D03*
X238500Y165000D02*
D03*
X232594D02*
D03*
X395094Y173000D02*
D03*
X401000D02*
D03*
X398095Y183500D02*
D03*
X404000D02*
D03*
D21*
X416500Y324429D02*
D03*
X406500D02*
D03*
X416500Y290571D02*
D03*
X406500D02*
D03*
D22*
X419480Y333500D02*
D03*
X412000D02*
D03*
X404000Y341000D02*
D03*
X411480D02*
D03*
D23*
X381000Y210405D02*
D03*
Y204500D02*
D03*
X399500Y210000D02*
D03*
Y204095D02*
D03*
X246000Y165500D02*
D03*
Y171405D02*
D03*
X311950Y164000D02*
D03*
Y169905D02*
D03*
D24*
X244201Y335000D02*
D03*
X206799D02*
D03*
D25*
X387260Y201724D02*
D03*
X394740D02*
D03*
Y192276D02*
D03*
X391000D02*
D03*
X387260D02*
D03*
D26*
X255750Y179000D02*
D03*
Y175260D02*
D03*
Y171520D02*
D03*
X266500D02*
D03*
Y175260D02*
D03*
Y179000D02*
D03*
X321575Y178240D02*
D03*
Y174500D02*
D03*
Y170760D02*
D03*
X332325D02*
D03*
Y174500D02*
D03*
Y178240D02*
D03*
D27*
X192000Y336622D02*
D03*
Y333000D02*
D03*
X261430Y330378D02*
D03*
Y334000D02*
D03*
M02*
