G04*
G04 #@! TF.GenerationSoftware,Altium Limited,Altium Designer,24.6.1 (21)*
G04*
G04 Layer_Color=255*
%FSLAX25Y25*%
%MOIN*%
G70*
G04*
G04 #@! TF.SameCoordinates,53350382-22CE-4EB4-8EAE-C997BD2E2089*
G04*
G04*
G04 #@! TF.FilePolarity,Positive*
G04*
G01*
G75*
%ADD16R,0.08661X0.06299*%
%ADD17R,0.03150X0.03937*%
%ADD18R,0.03937X0.03150*%
%ADD19R,0.05800X0.01100*%
%ADD20R,0.01100X0.05800*%
%ADD21R,0.02756X0.05118*%
%ADD22R,0.03850X0.02200*%
%ADD23R,0.06102X0.05118*%
%ADD24R,0.21654X0.07874*%
%ADD25R,0.02441X0.02362*%
%ADD26R,0.04449X0.09606*%
%ADD27R,0.03740X0.05315*%
%ADD28R,0.05315X0.03740*%
%ADD45C,0.06319*%
%ADD46R,0.06201X0.06201*%
%ADD47C,0.06201*%
%ADD48C,0.07087*%
%ADD49R,0.07087X0.07087*%
%ADD50R,0.07087X0.07087*%
D16*
X341000Y186402D02*
D03*
Y211598D02*
D03*
X275000Y186902D02*
D03*
Y212098D02*
D03*
D17*
X398095Y175500D02*
D03*
X404000D02*
D03*
X398095Y183500D02*
D03*
X404000D02*
D03*
X232594Y165000D02*
D03*
X238500D02*
D03*
X298545Y164000D02*
D03*
X304450D02*
D03*
D18*
X246000Y165500D02*
D03*
Y171405D02*
D03*
X311950Y164000D02*
D03*
Y169905D02*
D03*
D19*
X320600Y343622D02*
D03*
Y341653D02*
D03*
Y339685D02*
D03*
Y337717D02*
D03*
Y335748D02*
D03*
Y333780D02*
D03*
Y331811D02*
D03*
Y329842D02*
D03*
Y327874D02*
D03*
Y325905D02*
D03*
Y323937D02*
D03*
Y321969D02*
D03*
Y320000D02*
D03*
Y318032D02*
D03*
Y316063D02*
D03*
Y314094D02*
D03*
Y312126D02*
D03*
Y310157D02*
D03*
Y308189D02*
D03*
Y306221D02*
D03*
Y304252D02*
D03*
Y302284D02*
D03*
Y300315D02*
D03*
Y298346D02*
D03*
Y296378D02*
D03*
X381400D02*
D03*
Y298346D02*
D03*
Y300315D02*
D03*
Y302284D02*
D03*
Y304252D02*
D03*
Y306221D02*
D03*
Y308189D02*
D03*
Y310157D02*
D03*
Y312126D02*
D03*
Y314094D02*
D03*
Y316063D02*
D03*
Y318032D02*
D03*
Y320000D02*
D03*
Y321969D02*
D03*
Y323937D02*
D03*
Y325905D02*
D03*
Y327874D02*
D03*
Y329842D02*
D03*
Y331811D02*
D03*
Y333780D02*
D03*
Y335748D02*
D03*
Y337717D02*
D03*
Y339685D02*
D03*
Y341653D02*
D03*
Y343622D02*
D03*
D20*
X327378Y289600D02*
D03*
X329346D02*
D03*
X331315D02*
D03*
X333283D02*
D03*
X335252D02*
D03*
X337221D02*
D03*
X339189D02*
D03*
X341158D02*
D03*
X343126D02*
D03*
X345094D02*
D03*
X347063D02*
D03*
X349031D02*
D03*
X351000D02*
D03*
X352969D02*
D03*
X354937D02*
D03*
X356906D02*
D03*
X358874D02*
D03*
X360842D02*
D03*
X362811D02*
D03*
X364779D02*
D03*
X366748D02*
D03*
X368717D02*
D03*
X370685D02*
D03*
X372654D02*
D03*
X374622D02*
D03*
Y350400D02*
D03*
X372654D02*
D03*
X370685D02*
D03*
X368717D02*
D03*
X366748D02*
D03*
X364779D02*
D03*
X362811D02*
D03*
X360842D02*
D03*
X358874D02*
D03*
X356906D02*
D03*
X354937D02*
D03*
X352969D02*
D03*
X351000D02*
D03*
X349031D02*
D03*
X347063D02*
D03*
X345094D02*
D03*
X343126D02*
D03*
X341158D02*
D03*
X339189D02*
D03*
X337221D02*
D03*
X335252D02*
D03*
X333283D02*
D03*
X331315D02*
D03*
X329346D02*
D03*
X327378D02*
D03*
D21*
X387260Y201724D02*
D03*
X394740D02*
D03*
Y192276D02*
D03*
X391000D02*
D03*
X387260D02*
D03*
D22*
X255750Y179000D02*
D03*
Y175260D02*
D03*
Y171520D02*
D03*
X266500D02*
D03*
Y175260D02*
D03*
Y179000D02*
D03*
X321575Y178240D02*
D03*
Y174500D02*
D03*
Y170760D02*
D03*
X332325D02*
D03*
Y174500D02*
D03*
Y178240D02*
D03*
D23*
X390850Y368358D02*
D03*
X422150D02*
D03*
X390850Y350642D02*
D03*
X422150D02*
D03*
D24*
X206799Y335000D02*
D03*
X244201D02*
D03*
D25*
X192000Y336622D02*
D03*
Y333000D02*
D03*
X261430Y327770D02*
D03*
Y331392D02*
D03*
D26*
X406500Y290571D02*
D03*
X416500D02*
D03*
X406500Y324429D02*
D03*
X416500D02*
D03*
D27*
X280047Y320000D02*
D03*
X285953D02*
D03*
X413594Y338000D02*
D03*
X419500D02*
D03*
D28*
X247500Y180095D02*
D03*
Y186000D02*
D03*
X287000Y170905D02*
D03*
Y165000D02*
D03*
X277500Y170953D02*
D03*
Y165047D02*
D03*
X236500Y194453D02*
D03*
Y188547D02*
D03*
X313000Y179500D02*
D03*
Y185406D02*
D03*
X352950Y170000D02*
D03*
Y164094D02*
D03*
X343450Y170000D02*
D03*
Y164094D02*
D03*
X301950Y193405D02*
D03*
Y187500D02*
D03*
D45*
X221500Y237500D02*
D03*
Y247500D02*
D03*
Y257500D02*
D03*
Y267500D02*
D03*
Y277500D02*
D03*
Y287500D02*
D03*
D46*
Y159000D02*
D03*
Y211000D02*
D03*
Y185000D02*
D03*
X366000Y263000D02*
D03*
D47*
X221500Y169000D02*
D03*
Y221000D02*
D03*
Y195000D02*
D03*
X366000Y253000D02*
D03*
Y243000D02*
D03*
Y233000D02*
D03*
D48*
X422500Y248000D02*
D03*
Y238000D02*
D03*
Y228000D02*
D03*
Y218000D02*
D03*
Y208000D02*
D03*
Y198000D02*
D03*
Y188000D02*
D03*
Y178000D02*
D03*
Y168000D02*
D03*
X289500Y363000D02*
D03*
X279500D02*
D03*
X269500D02*
D03*
X259500D02*
D03*
X249500D02*
D03*
X239500D02*
D03*
X229500D02*
D03*
X219500D02*
D03*
X209500D02*
D03*
D49*
X422500Y158000D02*
D03*
D50*
X199500Y363000D02*
D03*
M02*
