G04*
G04 #@! TF.GenerationSoftware,Altium Limited,Altium Designer,24.6.1 (21)*
G04*
G04 Layer_Physical_Order=3*
G04 Layer_Color=128*
%FSLAX44Y44*%
%MOMM*%
G71*
G04*
G04 #@! TF.SameCoordinates,687BAC2B-120B-4896-92E6-0E63200D37F7*
G04*
G04*
G04 #@! TF.FilePolarity,Negative*
G04*
G01*
G75*
%ADD14C,0.2540*%
%ADD52C,1.0160*%
%ADD53C,2.0860*%
%ADD54C,2.0660*%
%ADD55C,2.2160*%
%ADD56C,1.2192*%
D14*
X751840Y494030D02*
X967740D01*
X751840Y687070D02*
X967740D01*
Y494030D02*
Y687070D01*
X751840Y494030D02*
Y687070D01*
X452120Y383540D02*
X998220D01*
X452120Y455930D02*
X998220D01*
Y383540D02*
Y455930D01*
X452120Y383540D02*
Y455930D01*
D52*
X445770Y377190D02*
X1097280D01*
Y957580D01*
X445770Y957580D02*
X1097280Y957580D01*
X445770Y377190D02*
Y957580D01*
D53*
X562610Y603250D02*
D03*
Y628650D02*
D03*
Y654050D02*
D03*
Y679450D02*
D03*
Y704850D02*
D03*
Y730250D02*
D03*
D54*
Y429260D02*
D03*
Y535940D02*
D03*
Y561340D02*
D03*
Y495300D02*
D03*
X929640Y642620D02*
D03*
Y617220D02*
D03*
Y591820D02*
D03*
D55*
X1073150Y629920D02*
D03*
Y604520D02*
D03*
Y579120D02*
D03*
Y553720D02*
D03*
Y528320D02*
D03*
Y502920D02*
D03*
Y477520D02*
D03*
Y452120D02*
D03*
Y426720D02*
D03*
X735330Y922020D02*
D03*
X684530D02*
D03*
X659130D02*
D03*
X633730D02*
D03*
X608330D02*
D03*
X582930D02*
D03*
X557530D02*
D03*
X532130D02*
D03*
X506730D02*
D03*
D56*
X880110Y405130D02*
D03*
X729360Y407654D02*
D03*
X632460Y445770D02*
D03*
X678180Y824230D02*
D03*
X777240Y826770D02*
D03*
X1000760Y527050D02*
D03*
X941168Y472603D02*
D03*
X955040Y455930D02*
D03*
X970280Y454660D02*
D03*
X792568Y764150D02*
D03*
X953770Y480060D02*
D03*
X843997Y754714D02*
D03*
X842010Y844550D02*
D03*
X831310Y851331D02*
D03*
X890270Y840740D02*
D03*
X868680Y844550D02*
D03*
X887730Y814070D02*
D03*
X897382Y815746D02*
D03*
X901700Y842010D02*
D03*
X908050Y836930D02*
D03*
X845820Y797560D02*
D03*
X853440Y875030D02*
D03*
X866357Y867831D02*
D03*
X791210Y833120D02*
D03*
X779780Y768350D02*
D03*
X784860Y779780D02*
D03*
X795020Y786130D02*
D03*
X694690Y816610D02*
D03*
X684530Y803910D02*
D03*
X916940Y784860D02*
D03*
X909320Y877570D02*
D03*
X989330Y857250D02*
D03*
X996950Y866140D02*
D03*
X942340Y711200D02*
D03*
X1078230Y867410D02*
D03*
Y852170D02*
D03*
X1013460Y932180D02*
D03*
X996950Y914400D02*
D03*
X1057910Y918210D02*
D03*
X1052830Y934720D02*
D03*
X955040Y716280D02*
D03*
X1076960D02*
D03*
X1057910D02*
D03*
X1038860Y701040D02*
D03*
X1028491Y690775D02*
D03*
X810260Y443230D02*
D03*
X795020D02*
D03*
X775970Y436880D02*
D03*
X762000D02*
D03*
X774700Y463550D02*
D03*
X760730D02*
D03*
X607060D02*
D03*
X593090D02*
D03*
Y439420D02*
D03*
X607060D02*
D03*
X646430Y445770D02*
D03*
X607060Y403860D02*
D03*
X628650D02*
D03*
X652780Y405130D02*
D03*
Y419100D02*
D03*
X674370D02*
D03*
Y405130D02*
D03*
X694690Y407670D02*
D03*
X712470D02*
D03*
X821690Y417830D02*
D03*
X840740D02*
D03*
X896620Y405130D02*
D03*
X863600D02*
D03*
X840740Y403860D02*
D03*
X822960D02*
D03*
X795020Y401320D02*
D03*
X772160D02*
D03*
X828040Y798830D02*
D03*
X855980Y797560D02*
D03*
X869950D02*
D03*
X901485Y791425D02*
D03*
X878840Y857250D02*
D03*
X854710Y844550D02*
D03*
X913130Y861060D02*
D03*
X914400Y824230D02*
D03*
X913130Y847090D02*
D03*
X904120Y805180D02*
D03*
X909200Y819150D02*
D03*
X928370Y787400D02*
D03*
X941070Y792480D02*
D03*
X952589Y786149D02*
D03*
X829310Y749300D02*
D03*
X746760Y746760D02*
D03*
X772160Y744220D02*
D03*
X759460D02*
D03*
X787400Y803910D02*
D03*
X868680Y913130D02*
D03*
X995680Y843280D02*
D03*
X777240Y716280D02*
D03*
X938530Y906780D02*
D03*
X990600Y713740D02*
D03*
X980440Y533400D02*
D03*
X979170Y704850D02*
D03*
X929640Y709930D02*
D03*
X920750Y748030D02*
D03*
M02*
