G04*
G04 #@! TF.GenerationSoftware,Altium Limited,Altium Designer,24.7.2 (38)*
G04*
G04 Layer_Color=16711935*
%FSLAX25Y25*%
%MOIN*%
G70*
G04*
G04 #@! TF.SameCoordinates,17647D21-3567-4D15-9BF9-88849ECC23B8*
G04*
G04*
G04 #@! TF.FilePolarity,Positive*
G04*
G01*
G75*
%ADD14C,0.01000*%
D14*
X178500Y151500D02*
X313500D01*
X178500Y373500D02*
X313500D01*
Y151500D02*
Y373500D01*
X178500Y151500D02*
Y373500D01*
X319000Y151500D02*
X429000D01*
X319000Y281500D02*
X429000D01*
Y151500D02*
Y281500D01*
X319000Y151500D02*
Y281500D01*
X432000Y378500D02*
Y400500D01*
X175500Y378000D02*
Y400500D01*
X323244Y399500D02*
X432000D01*
X175500D02*
X280256D01*
X430000Y400167D02*
X432000Y399500D01*
X430000Y398833D02*
X432000Y399500D01*
X175500D02*
X177500Y398833D01*
X175500Y399500D02*
X177500Y400167D01*
X134000Y378000D02*
X175500D01*
X134000Y150000D02*
X177500D01*
X135000Y283494D02*
Y378000D01*
Y150000D02*
Y240506D01*
X134333Y376000D02*
X135000Y378000D01*
X135667Y376000D01*
X135000Y150000D02*
X135667Y152000D01*
X134333D02*
X135000Y150000D01*
X286255Y395501D02*
X282256D01*
X286255Y399500D01*
Y400499D01*
X285255Y401499D01*
X283256D01*
X282256Y400499D01*
X292253Y401499D02*
X288254D01*
Y398500D01*
X290254Y399500D01*
X291253D01*
X292253Y398500D01*
Y396501D01*
X291253Y395501D01*
X289254D01*
X288254Y396501D01*
X298251Y401499D02*
X296252Y400499D01*
X294252Y398500D01*
Y396501D01*
X295252Y395501D01*
X297252D01*
X298251Y396501D01*
Y397500D01*
X297252Y398500D01*
X294252D01*
X304249Y401499D02*
X300251D01*
Y398500D01*
X302250Y399500D01*
X303250D01*
X304249Y398500D01*
Y396501D01*
X303250Y395501D01*
X301250D01*
X300251Y396501D01*
X306248Y395501D02*
Y396501D01*
X307248D01*
Y395501D01*
X306248D01*
X311247Y400499D02*
X312247Y401499D01*
X314246D01*
X315246Y400499D01*
Y396501D01*
X314246Y395501D01*
X312247D01*
X311247Y396501D01*
Y400499D01*
X317245D02*
X318245Y401499D01*
X320244D01*
X321244Y400499D01*
Y396501D01*
X320244Y395501D01*
X318245D01*
X317245Y396501D01*
Y400499D01*
X138999Y246505D02*
Y242506D01*
X135000Y246505D01*
X134001D01*
X133001Y245505D01*
Y243506D01*
X134001Y242506D01*
X138999Y252503D02*
Y248504D01*
X135000Y252503D01*
X134001D01*
X133001Y251503D01*
Y249504D01*
X134001Y248504D01*
Y254502D02*
X133001Y255502D01*
Y257502D01*
X134001Y258501D01*
X135000D01*
X136000Y257502D01*
X137000Y258501D01*
X137999D01*
X138999Y257502D01*
Y255502D01*
X137999Y254502D01*
X137000D01*
X136000Y255502D01*
X135000Y254502D01*
X134001D01*
X136000Y255502D02*
Y257502D01*
X134001Y260501D02*
X133001Y261500D01*
Y263499D01*
X134001Y264499D01*
X137999D01*
X138999Y263499D01*
Y261500D01*
X137999Y260501D01*
X134001D01*
X138999Y266498D02*
X137999D01*
Y267498D01*
X138999D01*
Y266498D01*
X134001Y271497D02*
X133001Y272497D01*
Y274496D01*
X134001Y275496D01*
X137999D01*
X138999Y274496D01*
Y272497D01*
X137999Y271497D01*
X134001D01*
Y277495D02*
X133001Y278495D01*
Y280494D01*
X134001Y281494D01*
X137999D01*
X138999Y280494D01*
Y278495D01*
X137999Y277495D01*
X134001D01*
M02*
