M48
;Layer_Color=9474304
;FILE_FORMAT=2:4
INCH,TZ
;TYPE=PLATED
T01F00S00C0.0080
T02F00S00C0.0413
T03F00S00C0.0421
T04F00S00C0.0472
%
T01
X31300Y15800
X32400Y15900
X32350Y16450
X33100
Y15900
X34000Y15950
X34650
X35300
X35200Y17450
X34700
X34250Y17400
X31900Y17450
X31300
X31800Y19850
Y20600
X31850Y21550
X33200Y21700
X34100Y21750
X35050
X36350Y21250
X37450Y21300
X38600Y21000
X39400Y20750
X37100Y19950
X37054Y18606
X37550Y18900
X37600Y17950
X38200Y17900
X38750Y17600
X38900Y17050
X38550Y27750
X39000Y28100
X37600Y28200
X37100Y28000
X36600Y27950
X36578Y29714
X36250Y29450
X37450Y29600
X37600Y30150
X37504Y30951
X37050Y31200
X36550Y31000
X36100Y30900
X35492Y31158
X35200Y30700
X34550Y30750
X34490Y29889
X33900Y29895
X33444Y30046
X33150Y30103
X33228Y29713
X32650Y29500
X32521Y30179
X31300Y30950
X34150Y29500
X40492Y27196
X40900Y27600
X41650Y28200
X42400
X30600
X30400Y29300
X29900
X29400Y29400
X30700Y30250
X30900Y30700
X31203Y30085
X29900Y25700
X29879Y24744
X29900Y23950
X30250Y21600
X31000Y21550
X30950Y20600
Y19850
X30150
Y20600
X29950Y18250
X30500
X30550Y17200
X30000
X28700Y17450
X28100
X27500
X27350Y16050
X28050
X28715Y16049
X30400Y15800
X26550Y15950
Y16500
X25700
Y15950
X24750Y15900
X23900
Y17300
X23350
Y18250
X23900
X24900Y17550
X25450
X25250Y19950
X24400Y20000
X23650
Y20950
X24550
X25400Y20900
X25650Y21950
X24650
X23650Y21900
X26550Y22150
X27500
X28250
X26950Y31650
X27350Y32150
X26700Y32450
X30600Y32550
X30700Y33100
X31150Y32800
X31123Y33477
X31000Y31650
X31450Y32350
X32902Y31848
X33350Y31850
X33300Y31400
X33700
X34250
X34300Y32000
X33800Y31900
X34950Y32050
X35330Y32116
X35795Y32250
X36000Y32450
X35750Y32950
X35500Y33150
X35050Y33100
X34650Y33350
X34600Y33750
X35300
X35950Y33900
Y33350
X36950Y33500
X37450Y33400
X37500Y32900
Y32500
X37400Y32100
X37295Y31650
X35595Y31700
X34200Y33250
X33650
X33150
X32729Y33517
Y33950
X32750Y34450
X33200Y34300
X33600Y34450
X34109Y34167
X34200Y35950
X35800Y34550
X37479Y34321
X36950Y35700
X39250Y36000
X39950Y35900
X39900Y36700
X41450Y36800
X41650Y36150
X40500Y35550
X40200Y34200
X39850Y33850
X39250Y34100
X38950Y33750
X39200Y33200
X41400Y33100
X42100Y33150
X42450Y33550
Y34150
X32600Y31450
T02
X36600Y23300
Y24300
Y25300
Y26300
X22150Y22100
Y21100
Y19500
Y18500
Y16900
Y15900
T03
X22150Y23750
Y24750
Y25750
Y26750
Y27750
Y28750
T04
X42250Y15800
Y16800
Y17800
Y18800
Y19800
Y20800
Y21800
Y22800
Y23800
Y24800
X28950Y36300
X27950
X26950
X25950
X24950
X23950
X22950
X21950
X20950
X19950
M30
