G04*
G04 #@! TF.GenerationSoftware,Altium Limited,Altium Designer,24.7.2 (38)*
G04*
G04 Layer_Color=32768*
%FSLAX25Y25*%
%MOIN*%
G70*
G04*
G04 #@! TF.SameCoordinates,17647D21-3567-4D15-9BF9-88849ECC23B8*
G04*
G04*
G04 #@! TF.FilePolarity,Positive*
G04*
G01*
G75*
%ADD12C,0.00394*%
D12*
X358913Y225638D02*
Y268984D01*
X324858Y225638D02*
X358913D01*
X324858D02*
Y268984D01*
X358913D01*
X343874Y335842D02*
Y341158D01*
X335606Y335842D02*
Y341158D01*
X343874D01*
X335606Y335842D02*
X343874D01*
X333626Y292657D02*
X341894D01*
X333626Y287343D02*
X341894D01*
Y292657D01*
X333626Y287343D02*
Y292657D01*
X358343Y307394D02*
X363657D01*
X358343Y299126D02*
X363657D01*
X358343D02*
Y307394D01*
X363657Y299126D02*
Y307394D01*
X333106Y353157D02*
X341374D01*
X333106Y347843D02*
X341374D01*
Y353157D01*
X333106Y347843D02*
Y353157D01*
X361626Y332842D02*
Y338158D01*
X369894Y332842D02*
Y338158D01*
X361626Y332842D02*
X369894D01*
X361626Y338158D02*
X369894D01*
X329634Y330842D02*
Y336157D01*
X321366Y330842D02*
Y336157D01*
X329634D01*
X321366Y330842D02*
X329634D01*
X329394Y323843D02*
Y329157D01*
X321126Y323843D02*
Y329157D01*
X329394D01*
X321126Y323843D02*
X329394D01*
X339374Y301343D02*
Y306658D01*
X331106Y301343D02*
Y306658D01*
X339374D01*
X331106Y301343D02*
X339374D01*
Y309343D02*
Y314657D01*
X331106Y309343D02*
Y314657D01*
X339374D01*
X331106Y309343D02*
X339374D01*
X370894Y347843D02*
Y353157D01*
X362626Y347843D02*
Y353157D01*
X370894D01*
X362626Y347843D02*
X370894D01*
X370843Y301606D02*
X376157D01*
X370843Y309874D02*
X376157D01*
Y301606D02*
Y309874D01*
X370843Y301606D02*
Y309874D01*
M02*
