G04*
G04 #@! TF.GenerationSoftware,Altium Limited,Altium Designer,24.6.1 (21)*
G04*
G04 Layer_Color=32768*
%FSLAX25Y25*%
%MOIN*%
G70*
G04*
G04 #@! TF.SameCoordinates,53350382-22CE-4EB4-8EAE-C997BD2E2089*
G04*
G04*
G04 #@! TF.FilePolarity,Positive*
G04*
G01*
G75*
%ADD10C,0.00787*%
%ADD12C,0.00394*%
%ADD13C,0.00600*%
%ADD60C,0.00197*%
G36*
X385300Y285700D02*
X316700D01*
Y354300D01*
X385300D01*
Y285700D01*
D02*
G37*
G36*
X265575Y181100D02*
X269425D01*
Y169420D01*
X265575D01*
Y168260D01*
X256675D01*
Y169420D01*
X252825D01*
Y181100D01*
X256675D01*
Y182260D01*
X265575D01*
Y181100D01*
D02*
G37*
G36*
X331400Y180340D02*
X335250D01*
Y168660D01*
X331400D01*
Y167500D01*
X322500D01*
Y168660D01*
X318650D01*
Y180340D01*
X322500D01*
Y181500D01*
X331400D01*
Y180340D01*
D02*
G37*
D10*
X288512Y316653D02*
Y323346D01*
X277488D02*
X288512D01*
X277488Y316653D02*
Y323346D01*
Y316653D02*
X288512D01*
X244153Y177535D02*
Y188559D01*
X250847D01*
Y177535D02*
Y188559D01*
X244153Y177535D02*
X250847D01*
X290347Y162441D02*
Y173465D01*
X283653Y162441D02*
X290347D01*
X283653D02*
Y173465D01*
X290347D01*
X411035Y341347D02*
X422059D01*
Y334653D02*
Y341347D01*
X411035Y334653D02*
X422059D01*
X411035D02*
Y341347D01*
X280847Y162488D02*
Y173512D01*
X274153Y162488D02*
X280847D01*
X274153D02*
Y173512D01*
X280847D01*
X239846Y185988D02*
Y197012D01*
X233154Y185988D02*
X239846D01*
X233154D02*
Y197012D01*
X239846D01*
X309653Y176941D02*
Y187965D01*
X316347D01*
Y176941D02*
Y187965D01*
X309653Y176941D02*
X316347D01*
X356296Y161535D02*
Y172559D01*
X349604Y161535D02*
X356296D01*
X349604D02*
Y172559D01*
X356296D01*
X346796Y161535D02*
Y172559D01*
X340104Y161535D02*
X346796D01*
X340104D02*
Y172559D01*
X346796D01*
X305296Y184941D02*
Y195965D01*
X298604Y184941D02*
X305296D01*
X298604D02*
Y195965D01*
X305296D01*
D12*
X177799Y227579D02*
Y297421D01*
X228594D01*
Y227579D02*
Y297421D01*
X177799Y227579D02*
X228594D01*
X401047Y173728D02*
Y177272D01*
X399276Y175500D02*
X402819D01*
X401047Y181728D02*
Y185272D01*
X399276Y183500D02*
X402819D01*
X235547Y163228D02*
Y166772D01*
X233776Y165000D02*
X237319D01*
X244228Y168453D02*
X247772D01*
X246000Y166681D02*
Y170224D01*
X301497Y162228D02*
Y165772D01*
X299726Y164000D02*
X303269D01*
X310178Y166953D02*
X313722D01*
X311950Y165181D02*
Y168724D01*
X389032Y197000D02*
X392969D01*
X391000Y195031D02*
Y198969D01*
X429138Y343752D02*
Y375248D01*
X383862D02*
X429138D01*
X383862Y343752D02*
Y375248D01*
Y343752D02*
X429138D01*
X260539Y323583D02*
Y346417D01*
X194004D02*
X260539D01*
X194004Y323583D02*
Y346417D01*
Y323583D02*
X260539D01*
X393272Y333169D02*
X429728D01*
Y281831D02*
Y333169D01*
X393272Y281831D02*
X429728D01*
X393272D02*
Y333169D01*
D13*
X316700Y285700D02*
Y354300D01*
X385300D01*
Y285700D02*
Y354300D01*
X316700Y285700D02*
X385300D01*
X252825Y169420D02*
Y181100D01*
X256675D01*
Y182260D01*
X265575D01*
Y181100D02*
Y182260D01*
Y181100D02*
X269425D01*
Y169420D02*
Y181100D01*
X265575Y169420D02*
X269425D01*
X265575Y168260D02*
Y169420D01*
X256675Y168260D02*
X265575D01*
X256675D02*
Y169420D01*
X252825D02*
X256675D01*
X318650Y168660D02*
Y180340D01*
X322500D01*
Y181500D01*
X331400D01*
Y180340D02*
Y181500D01*
Y180340D02*
X335250D01*
Y168660D02*
Y180340D01*
X331400Y168660D02*
X335250D01*
X331400Y167500D02*
Y168660D01*
X322500Y167500D02*
X331400D01*
X322500D02*
Y168660D01*
X318650D02*
X322500D01*
D60*
X226571Y152032D02*
Y177347D01*
X179374D02*
X226571D01*
X179374Y152032D02*
Y177347D01*
Y152032D02*
X226571D01*
Y204031D02*
Y229346D01*
X179374D02*
X226571D01*
X179374Y204031D02*
Y229346D01*
Y204031D02*
X226571D01*
Y178032D02*
Y203346D01*
X179374D02*
X226571D01*
X179374Y178032D02*
Y203346D01*
Y178032D02*
X226571D01*
X428406Y151228D02*
Y256150D01*
X416595D02*
X428406D01*
X416595Y151228D02*
Y256150D01*
Y151228D02*
X428406D01*
X192728Y357095D02*
X297650D01*
Y368905D01*
X192728D02*
X297650D01*
X192728Y357095D02*
Y368905D01*
X339032Y199000D02*
X342969D01*
X341000Y197031D02*
Y200969D01*
X325449Y215535D02*
X356551D01*
Y182465D02*
Y215535D01*
X325449Y182465D02*
X356551D01*
X325449D02*
Y215535D01*
X273031Y199500D02*
X276969D01*
X275000Y197531D02*
Y201468D01*
X259449Y216035D02*
X290551D01*
Y182965D02*
Y216035D01*
X259449Y182965D02*
X290551D01*
X259449D02*
Y216035D01*
X394551Y179437D02*
X407543D01*
X394551Y171563D02*
X407543D01*
X394551D02*
Y179437D01*
X407543Y171563D02*
Y179437D01*
X394551Y187437D02*
X407543D01*
X394551Y179563D02*
X407543D01*
X394551D02*
Y187437D01*
X407543Y179563D02*
Y187437D01*
X229051Y168937D02*
X242043D01*
X229051Y161063D02*
X242043D01*
X229051D02*
Y168937D01*
X242043Y161063D02*
Y168937D01*
X242063Y161957D02*
Y174949D01*
X249937Y161957D02*
Y174949D01*
X242063Y161957D02*
X249937D01*
X242063Y174949D02*
X249937D01*
X295001Y167937D02*
X307993D01*
X295001Y160063D02*
X307993D01*
X295001D02*
Y167937D01*
X307993Y160063D02*
Y167937D01*
X308013Y160457D02*
Y173449D01*
X315887Y160457D02*
Y173449D01*
X308013Y160457D02*
X315887D01*
X308013Y173449D02*
X315887D01*
X399071Y187748D02*
Y206252D01*
X382929Y187748D02*
Y206252D01*
X399071D01*
X382929Y187748D02*
X399071D01*
X193811Y331228D02*
Y338394D01*
X190189Y331228D02*
X193811D01*
X190189D02*
Y338394D01*
X193811D01*
X259618Y325998D02*
Y333164D01*
X263241D01*
Y325998D02*
Y333164D01*
X259618Y325998D02*
X263241D01*
M02*
