G04*
G04 #@! TF.GenerationSoftware,Altium Limited,Altium Designer,24.7.2 (38)*
G04*
G04 Layer_Physical_Order=1*
G04 Layer_Color=255*
%FSLAX25Y25*%
%MOIN*%
G70*
G04*
G04 #@! TF.SameCoordinates,17647D21-3567-4D15-9BF9-88849ECC23B8*
G04*
G04*
G04 #@! TF.FilePolarity,Positive*
G04*
G01*
G75*
%ADD14C,0.01000*%
%ADD15R,0.05800X0.01100*%
%ADD16R,0.01100X0.05800*%
%ADD17R,0.08661X0.06299*%
%ADD18R,0.06102X0.05118*%
%ADD19R,0.05906X0.05512*%
%ADD20R,0.03150X0.03937*%
%ADD21R,0.04449X0.09606*%
%ADD22R,0.05512X0.05906*%
%ADD23R,0.03937X0.03150*%
%ADD24R,0.21654X0.07874*%
%ADD25R,0.02756X0.05118*%
%ADD26R,0.03850X0.02200*%
%ADD27R,0.02441X0.02362*%
%ADD46C,0.01000*%
%ADD47C,0.06201*%
%ADD48R,0.06201X0.06201*%
%ADD49C,0.06319*%
%ADD50C,0.07087*%
%ADD51R,0.07087X0.07087*%
%ADD52R,0.07087X0.07087*%
%ADD53C,0.03000*%
%ADD54C,0.02000*%
G36*
X430796Y149704D02*
X176704D01*
Y375796D01*
X430796Y375796D01*
Y149704D01*
D02*
G37*
%LPC*%
G36*
X421650Y371917D02*
X418098D01*
Y369575D01*
X417748Y369505D01*
X417696Y369633D01*
X417133Y370196D01*
X416500Y370458D01*
Y368500D01*
Y366542D01*
X417133Y366805D01*
X417696Y367367D01*
X417748Y367495D01*
X418098Y367425D01*
Y364799D01*
X420476D01*
X420621Y364449D01*
X420304Y364133D01*
X420042Y363500D01*
X423958D01*
X423696Y364133D01*
X423379Y364449D01*
X423524Y364799D01*
X426201D01*
Y367858D01*
X422150D01*
Y368358D01*
X421650D01*
Y371917D01*
D02*
G37*
G36*
X415500Y370458D02*
X414867Y370196D01*
X414304Y369633D01*
X414042Y369000D01*
X415500D01*
Y370458D01*
D02*
G37*
G36*
X426201Y371917D02*
X422650D01*
Y368858D01*
X426201D01*
Y371917D01*
D02*
G37*
G36*
X398000Y369958D02*
Y368500D01*
X399458D01*
X399196Y369133D01*
X398633Y369695D01*
X398000Y369958D01*
D02*
G37*
G36*
X415500Y368000D02*
X414042D01*
X414304Y367367D01*
X414867Y366805D01*
X415500Y366542D01*
Y368000D01*
D02*
G37*
G36*
X399458Y367500D02*
X398000D01*
Y366042D01*
X398633Y366304D01*
X399196Y366867D01*
X399458Y367500D01*
D02*
G37*
G36*
X290098Y367543D02*
X290000D01*
Y363500D01*
X294043D01*
Y363598D01*
X293734Y364754D01*
X293135Y365790D01*
X292290Y366635D01*
X291254Y367234D01*
X290098Y367543D01*
D02*
G37*
G36*
X289000D02*
X288902D01*
X287746Y367234D01*
X286710Y366635D01*
X285864Y365790D01*
X285266Y364754D01*
X284957Y363598D01*
Y363500D01*
X289000D01*
Y367543D01*
D02*
G37*
G36*
X423958Y362500D02*
X422500D01*
Y361042D01*
X423133Y361304D01*
X423696Y361867D01*
X423958Y362500D01*
D02*
G37*
G36*
X421500D02*
X420042D01*
X420304Y361867D01*
X420867Y361304D01*
X421500Y361042D01*
Y362500D01*
D02*
G37*
G36*
X392958Y362000D02*
X391500D01*
Y360542D01*
X392133Y360805D01*
X392695Y361367D01*
X392958Y362000D01*
D02*
G37*
G36*
X390500D02*
X389042D01*
X389304Y361367D01*
X389867Y360805D01*
X390500Y360542D01*
Y362000D01*
D02*
G37*
G36*
X280013Y366893D02*
X278987D01*
X277997Y366628D01*
X277110Y366115D01*
X276385Y365390D01*
X275872Y364503D01*
X275607Y363513D01*
Y362487D01*
X275872Y361497D01*
X276385Y360610D01*
X277110Y359885D01*
X277997Y359372D01*
X278987Y359107D01*
X280013D01*
X281003Y359372D01*
X281891Y359885D01*
X282615Y360610D01*
X283128Y361497D01*
X283393Y362487D01*
Y363513D01*
X283128Y364503D01*
X282615Y365390D01*
X281891Y366115D01*
X281003Y366628D01*
X280013Y366893D01*
D02*
G37*
G36*
X220013D02*
X218987D01*
X217997Y366628D01*
X217109Y366115D01*
X216385Y365390D01*
X215872Y364503D01*
X215607Y363513D01*
Y362487D01*
X215872Y361497D01*
X216385Y360610D01*
X217109Y359885D01*
X217997Y359372D01*
X218987Y359107D01*
X220013D01*
X221003Y359372D01*
X221890Y359885D01*
X222615Y360610D01*
X223128Y361497D01*
X223393Y362487D01*
Y363513D01*
X223128Y364503D01*
X222615Y365390D01*
X221890Y366115D01*
X221003Y366628D01*
X220013Y366893D01*
D02*
G37*
G36*
X294043Y362500D02*
X290000D01*
Y358457D01*
X290098D01*
X291254Y358766D01*
X292290Y359365D01*
X293135Y360210D01*
X293734Y361246D01*
X294043Y362402D01*
Y362500D01*
D02*
G37*
G36*
X289000D02*
X284957D01*
Y362402D01*
X285266Y361246D01*
X285864Y360210D01*
X286710Y359365D01*
X287746Y358766D01*
X288902Y358457D01*
X289000D01*
Y362500D01*
D02*
G37*
G36*
X330000Y358458D02*
Y357000D01*
X331458D01*
X331195Y357633D01*
X330633Y358195D01*
X330000Y358458D01*
D02*
G37*
G36*
X329000D02*
X328367Y358195D01*
X327804Y357633D01*
X327542Y357000D01*
X329000D01*
Y358458D01*
D02*
G37*
G36*
X397868Y353850D02*
X397132D01*
X396452Y353568D01*
X395932Y353048D01*
X395650Y352368D01*
Y351646D01*
X395512Y351508D01*
X394252D01*
Y353551D01*
X387449D01*
Y347733D01*
X394252D01*
Y349775D01*
X395871D01*
X396203Y349841D01*
X396484Y350029D01*
X396759Y350304D01*
X397132Y350150D01*
X397868D01*
X398548Y350432D01*
X399068Y350952D01*
X399350Y351632D01*
Y352368D01*
X399068Y353048D01*
X398548Y353568D01*
X397868Y353850D01*
D02*
G37*
G36*
X405500Y349458D02*
Y348000D01*
X406958D01*
X406696Y348633D01*
X406133Y349196D01*
X405500Y349458D01*
D02*
G37*
G36*
X404500D02*
X403867Y349196D01*
X403304Y348633D01*
X403042Y348000D01*
X404500D01*
Y349458D01*
D02*
G37*
G36*
X398000Y346958D02*
X397367Y346695D01*
X396804Y346133D01*
X396542Y345500D01*
X398000D01*
Y346958D01*
D02*
G37*
G36*
X406958Y347000D02*
X403042D01*
X403215Y346584D01*
X403199Y346561D01*
X403133Y346229D01*
Y344953D01*
X401470D01*
X400844Y345578D01*
X400563Y345766D01*
X400328Y345813D01*
X400196Y346133D01*
X399633Y346695D01*
X399000Y346958D01*
Y345000D01*
Y343042D01*
X399633Y343304D01*
X399894Y343566D01*
X400244Y343421D01*
Y341500D01*
X404000D01*
X407756D01*
Y344953D01*
X404867D01*
Y345500D01*
X405398D01*
X406133Y345805D01*
X406696Y346367D01*
X406958Y347000D01*
D02*
G37*
G36*
X398000Y344500D02*
X396542D01*
X396804Y343867D01*
X397367Y343304D01*
X398000Y343042D01*
Y344500D01*
D02*
G37*
G36*
X349000Y343958D02*
Y342500D01*
X350458D01*
X350196Y343133D01*
X349633Y343695D01*
X349000Y343958D01*
D02*
G37*
G36*
X348000D02*
X347367Y343695D01*
X346804Y343133D01*
X346542Y342500D01*
X348000D01*
Y343958D01*
D02*
G37*
G36*
X388500Y343458D02*
Y342000D01*
X389958D01*
X389696Y342633D01*
X389133Y343196D01*
X388500Y343458D01*
D02*
G37*
G36*
X342958Y343000D02*
X341500D01*
Y341542D01*
X342133Y341805D01*
X342695Y342367D01*
X342958Y343000D01*
D02*
G37*
G36*
X340500D02*
X339042D01*
X339304Y342367D01*
X339867Y341805D01*
X340500Y341542D01*
Y343000D01*
D02*
G37*
G36*
X367458Y342500D02*
X366000D01*
Y341042D01*
X366633Y341304D01*
X367196Y341867D01*
X367458Y342500D01*
D02*
G37*
G36*
X365000D02*
X363542D01*
X363805Y341867D01*
X364367Y341304D01*
X365000Y341042D01*
Y342500D01*
D02*
G37*
G36*
X357958D02*
X356500D01*
Y341042D01*
X357133Y341304D01*
X357696Y341867D01*
X357958Y342500D01*
D02*
G37*
G36*
X355500D02*
X354042D01*
X354305Y341867D01*
X354867Y341304D01*
X355500Y341042D01*
Y342500D01*
D02*
G37*
G36*
X421500Y341958D02*
Y340500D01*
X422958D01*
X422695Y341133D01*
X422133Y341695D01*
X421500Y341958D01*
D02*
G37*
G36*
X420500D02*
X419867Y341695D01*
X419305Y341133D01*
X419042Y340500D01*
X420500D01*
Y341958D01*
D02*
G37*
G36*
X350458Y341500D02*
X349000D01*
Y340042D01*
X349633Y340304D01*
X350196Y340867D01*
X350458Y341500D01*
D02*
G37*
G36*
X348000D02*
X346542D01*
X346804Y340867D01*
X347367Y340304D01*
X348000Y340042D01*
Y341500D01*
D02*
G37*
G36*
X389958Y341000D02*
X388500D01*
Y339542D01*
X389133Y339805D01*
X389696Y340367D01*
X389958Y341000D01*
D02*
G37*
G36*
X329000Y340958D02*
Y339500D01*
X330458D01*
X330195Y340133D01*
X329633Y340696D01*
X329000Y340958D01*
D02*
G37*
G36*
X328000D02*
X327367Y340696D01*
X326804Y340133D01*
X326542Y339500D01*
X328000D01*
Y340958D01*
D02*
G37*
G36*
X399299Y373867D02*
X325600D01*
X325269Y373801D01*
X324987Y373613D01*
X324402Y373027D01*
X324214Y372746D01*
X324148Y372414D01*
Y344648D01*
X323850Y344522D01*
X323798Y344522D01*
X317350D01*
Y344489D01*
X289237D01*
X272799Y360927D01*
X273128Y361497D01*
X273393Y362487D01*
Y363513D01*
X273128Y364503D01*
X272615Y365390D01*
X271890Y366115D01*
X271003Y366628D01*
X270013Y366893D01*
X268987D01*
X267997Y366628D01*
X267109Y366115D01*
X266385Y365390D01*
X265872Y364503D01*
X265607Y363513D01*
Y362487D01*
X265872Y361497D01*
X266385Y360610D01*
X267109Y359885D01*
X267997Y359372D01*
X268987Y359107D01*
X270013D01*
X271003Y359372D01*
X271573Y359701D01*
X288265Y343009D01*
X288473Y342870D01*
X288403Y342520D01*
X281205D01*
X262799Y360927D01*
X263128Y361497D01*
X263393Y362487D01*
Y363513D01*
X263128Y364503D01*
X262615Y365390D01*
X261891Y366115D01*
X261003Y366628D01*
X260013Y366893D01*
X258987D01*
X257997Y366628D01*
X257109Y366115D01*
X256385Y365390D01*
X255872Y364503D01*
X255607Y363513D01*
Y362487D01*
X255872Y361497D01*
X256385Y360610D01*
X257109Y359885D01*
X257997Y359372D01*
X258987Y359107D01*
X260013D01*
X261003Y359372D01*
X261573Y359701D01*
X280234Y341041D01*
X280442Y340902D01*
X280371Y340552D01*
X273174D01*
X252799Y360927D01*
X253128Y361497D01*
X253393Y362487D01*
Y363513D01*
X253128Y364503D01*
X252615Y365390D01*
X251890Y366115D01*
X251003Y366628D01*
X250013Y366893D01*
X248987D01*
X247997Y366628D01*
X247110Y366115D01*
X246385Y365390D01*
X245872Y364503D01*
X245607Y363513D01*
Y362487D01*
X245872Y361497D01*
X246385Y360610D01*
X247110Y359885D01*
X247997Y359372D01*
X248987Y359107D01*
X250013D01*
X251003Y359372D01*
X251573Y359701D01*
X272202Y339072D01*
X272410Y338933D01*
X272340Y338583D01*
X267642D01*
X246975Y359251D01*
X246761Y359502D01*
X246761Y359502D01*
X246761Y359502D01*
X246332Y359832D01*
X246002Y360262D01*
X246002D01*
X245751Y360475D01*
X243393Y362832D01*
Y363513D01*
X243128Y364503D01*
X242615Y365390D01*
X241891Y366115D01*
X241003Y366628D01*
X240013Y366893D01*
X238987D01*
X237997Y366628D01*
X237109Y366115D01*
X236385Y365390D01*
X235872Y364503D01*
X235607Y363513D01*
Y362487D01*
X235872Y361497D01*
X236385Y360610D01*
X237109Y359885D01*
X237997Y359372D01*
X238987Y359107D01*
X240013D01*
X241003Y359372D01*
X241891Y359885D01*
X242615Y360610D01*
X242673Y360709D01*
X243020Y360754D01*
X244680Y359094D01*
X244712Y359073D01*
X245100Y358600D01*
X245573Y358212D01*
X245594Y358180D01*
X266671Y337104D01*
X266952Y336916D01*
X267283Y336850D01*
X317084D01*
X317350Y336648D01*
X317350Y336467D01*
Y335030D01*
X317350Y334848D01*
X317084Y334646D01*
X314970D01*
X314548Y335068D01*
X313868Y335350D01*
X313132D01*
X312452Y335068D01*
X311932Y334548D01*
X311650Y333868D01*
Y333132D01*
X311932Y332452D01*
X312452Y331932D01*
X313132Y331650D01*
X313868D01*
X314548Y331932D01*
X315068Y332452D01*
X315259Y332913D01*
X317084D01*
X317350Y332711D01*
X317350Y332529D01*
Y331093D01*
X317350Y330911D01*
X317350Y330561D01*
Y329124D01*
X317350Y328942D01*
X317350Y328592D01*
Y327455D01*
X316700D01*
Y326772D01*
X313001D01*
X312775Y327059D01*
X312958Y327500D01*
X311500D01*
Y325749D01*
X311956Y325293D01*
X312238Y325105D01*
X312569Y325039D01*
X314511D01*
X314581Y324689D01*
X314373Y324550D01*
X314084Y324261D01*
X313868Y324350D01*
X313132D01*
X312452Y324068D01*
X311932Y323548D01*
X311650Y322868D01*
Y322132D01*
X311932Y321452D01*
X312452Y320932D01*
X312971Y320717D01*
X312901Y320367D01*
X282703D01*
X262233Y340837D01*
X261951Y341025D01*
X261620Y341091D01*
X195439D01*
X195107Y341025D01*
X194826Y340837D01*
X193522Y339533D01*
X193334Y339252D01*
X193307Y339115D01*
X192345Y338153D01*
X190429D01*
Y335091D01*
X193570D01*
Y336928D01*
X194747Y338105D01*
X194935Y338386D01*
X194963Y338522D01*
X195299Y338859D01*
X195622Y338725D01*
Y333867D01*
X193570D01*
Y334531D01*
X190429D01*
Y331469D01*
X193570D01*
Y332133D01*
X195622D01*
Y330713D01*
X217976D01*
Y339287D01*
X218297Y339358D01*
X232703D01*
X233024Y339287D01*
X233024Y339008D01*
Y330713D01*
X255378D01*
Y335170D01*
X259859D01*
Y332469D01*
X263000D01*
Y335531D01*
X262280D01*
X262230Y335782D01*
X262042Y336063D01*
X261457Y336649D01*
X261175Y336837D01*
X260844Y336903D01*
X255378D01*
X255378Y339287D01*
X255698Y339358D01*
X261261D01*
X281402Y319217D01*
X281257Y318867D01*
X271558D01*
X262215Y328210D01*
Y328847D01*
X263000D01*
Y331909D01*
X259859D01*
Y328847D01*
X260481D01*
Y327852D01*
X260547Y327520D01*
X260735Y327239D01*
X270587Y317387D01*
X270868Y317199D01*
X271199Y317133D01*
X291001D01*
X291071Y316783D01*
X290735Y316645D01*
X290355Y316265D01*
X290150Y315769D01*
Y315231D01*
X290355Y314735D01*
X290735Y314355D01*
X291071Y314217D01*
X291001Y313867D01*
X185408D01*
X184367Y314908D01*
Y333141D01*
X207934Y356709D01*
X208205Y356899D01*
X208544Y356872D01*
X209500Y356778D01*
X210714Y356897D01*
X211881Y357251D01*
X212957Y357826D01*
X213900Y358600D01*
X214256Y359034D01*
X214433Y359103D01*
X214569Y359103D01*
X214744Y359034D01*
X215100Y358600D01*
X216043Y357826D01*
X217119Y357251D01*
X218286Y356897D01*
X219500Y356778D01*
X220714Y356897D01*
X221881Y357251D01*
X222957Y357826D01*
X223900Y358600D01*
X224674Y359543D01*
X225249Y360619D01*
X225512Y361487D01*
X225838Y361496D01*
X225878Y361487D01*
X226385Y360610D01*
X227110Y359885D01*
X227997Y359372D01*
X228987Y359107D01*
X230013D01*
X231003Y359372D01*
X231891Y359885D01*
X232615Y360610D01*
X233128Y361497D01*
X233393Y362487D01*
Y363513D01*
X233128Y364503D01*
X232615Y365390D01*
X231891Y366115D01*
X231003Y366628D01*
X230013Y366893D01*
X228987D01*
X227997Y366628D01*
X227110Y366115D01*
X226385Y365390D01*
X225872Y364503D01*
X225702Y363867D01*
X225349D01*
X225017Y363801D01*
X224736Y363613D01*
X224443Y363320D01*
X224429Y363334D01*
X224429Y363334D01*
X224429Y363334D01*
X224443Y363320D01*
X224203Y363080D01*
X224015Y362799D01*
X223966Y362552D01*
X223922Y362557D01*
X223828Y361840D01*
X223380Y360760D01*
X222668Y359832D01*
X221740Y359120D01*
X220660Y358672D01*
X219500Y358519D01*
X218340Y358672D01*
X217260Y359120D01*
X216332Y359832D01*
X215996Y360268D01*
X215996Y360268D01*
X215834Y360432D01*
X215834Y360432D01*
X215732Y360500D01*
X215222Y360841D01*
X214500Y360984D01*
X213778Y360841D01*
X213271Y360502D01*
X213166Y360432D01*
X213166Y360432D01*
X213005Y360270D01*
X213005Y360270D01*
X212668Y359832D01*
X211740Y359120D01*
X210660Y358672D01*
X209500Y358519D01*
X208550Y358644D01*
X208509Y358650D01*
X208382Y358661D01*
X208205Y358677D01*
X208205Y358677D01*
X208205Y358677D01*
X207855Y358658D01*
X207791D01*
X207459Y358592D01*
X207178Y358404D01*
X183217Y334442D01*
X182867Y334587D01*
Y335141D01*
X207427Y359701D01*
X207997Y359372D01*
X208987Y359107D01*
X210013D01*
X211003Y359372D01*
X211891Y359885D01*
X212615Y360610D01*
X213128Y361497D01*
X213393Y362487D01*
Y363513D01*
X213128Y364503D01*
X212615Y365390D01*
X211891Y366115D01*
X211003Y366628D01*
X210013Y366893D01*
X208987D01*
X207997Y366628D01*
X207109Y366115D01*
X206385Y365390D01*
X205872Y364503D01*
X205607Y363513D01*
Y362487D01*
X205872Y361497D01*
X206201Y360927D01*
X181717Y336442D01*
X181367Y336587D01*
Y343641D01*
X196832Y359107D01*
X203393D01*
Y366893D01*
X195607D01*
Y360332D01*
X179887Y344613D01*
X179699Y344332D01*
X179633Y344000D01*
Y300901D01*
X179699Y300569D01*
X179887Y300288D01*
X180473Y299702D01*
X180754Y299514D01*
X181086Y299448D01*
X317084D01*
X317350Y299247D01*
X317350Y299065D01*
Y297628D01*
X317350Y297446D01*
X317350Y297096D01*
Y295478D01*
X323850D01*
Y297096D01*
X323850Y297278D01*
X323850Y297628D01*
Y299065D01*
X323850Y299247D01*
X323850Y299597D01*
Y301033D01*
X323850Y301215D01*
X323850Y301565D01*
X323850Y303126D01*
X323885Y303233D01*
X324043Y303453D01*
X324284Y303501D01*
X324565Y303689D01*
X325400Y304524D01*
X325588Y304806D01*
X325602Y304877D01*
X326951Y306225D01*
X327132Y306150D01*
X327868D01*
X328548Y306432D01*
X329068Y306952D01*
X329350Y307632D01*
Y308368D01*
X329068Y309048D01*
X328548Y309568D01*
X327868Y309850D01*
X327132D01*
X326452Y309568D01*
X325932Y309048D01*
X325650Y308368D01*
Y307632D01*
X325725Y307451D01*
X324805Y306531D01*
X324500Y306721D01*
Y307689D01*
X320600D01*
Y308689D01*
X324500D01*
Y309739D01*
X323850D01*
Y310876D01*
X323850Y311057D01*
X323850Y311407D01*
Y313026D01*
X323850D01*
Y313194D01*
X323850D01*
Y314813D01*
X323850Y314995D01*
X323850Y315345D01*
Y316963D01*
X324043Y317233D01*
X324284Y317281D01*
X324565Y317469D01*
X325627Y318531D01*
X325815Y318812D01*
X325881Y319144D01*
Y372055D01*
X325959Y372133D01*
X386539D01*
X386799Y371917D01*
X386799Y371783D01*
Y368858D01*
X390850D01*
Y367858D01*
X386799D01*
Y364799D01*
X390133D01*
Y364306D01*
X389867Y364195D01*
X389304Y363633D01*
X389042Y363000D01*
X392958D01*
X392695Y363633D01*
X392133Y364195D01*
X391867Y364306D01*
Y364799D01*
X394902D01*
Y367492D01*
X395546D01*
X395805Y366867D01*
X396367Y366304D01*
X397000Y366042D01*
Y368000D01*
Y369958D01*
X396367Y369695D01*
X395897Y369225D01*
X394902D01*
Y371783D01*
X394902Y371917D01*
X395162Y372133D01*
X398940D01*
X418748Y352325D01*
Y348958D01*
X414911Y345121D01*
X414723Y344840D01*
X414678Y344615D01*
X414644Y344498D01*
X414382Y344303D01*
X408374D01*
Y338923D01*
X408079Y338628D01*
X407756Y338762D01*
Y340500D01*
X404500D01*
Y337047D01*
X406041D01*
X406175Y336724D01*
X405887Y336436D01*
X405699Y336155D01*
X405633Y335823D01*
Y330587D01*
X405283Y330442D01*
X388900Y346825D01*
X388619Y347013D01*
X388287Y347079D01*
X375843D01*
X375522Y347150D01*
X375522Y347429D01*
Y353650D01*
X375489D01*
Y355878D01*
X375423Y356210D01*
X375235Y356491D01*
X372350Y359376D01*
Y359769D01*
X372145Y360265D01*
X371765Y360645D01*
X371269Y360850D01*
X370731D01*
X370235Y360645D01*
X369855Y360265D01*
X369650Y359769D01*
Y359231D01*
X369855Y358735D01*
X370235Y358355D01*
X370731Y358150D01*
X371124D01*
X373755Y355519D01*
Y353916D01*
X373553Y353650D01*
X373372Y353650D01*
X371935D01*
X371754Y353650D01*
X371404Y353650D01*
X369967D01*
X369785Y353650D01*
X369435Y353650D01*
X367998D01*
X367816Y353650D01*
X367466Y353650D01*
X366030D01*
X365848Y353650D01*
X365498Y353650D01*
X364061D01*
X363879Y353650D01*
X363529Y353650D01*
X362092D01*
X361911Y353650D01*
X361561Y353650D01*
X360124D01*
X359943Y353650D01*
X359593Y353650D01*
X358155D01*
X357974Y353650D01*
X357624Y353650D01*
X356187D01*
X356006Y353650D01*
X355656Y353650D01*
X354219D01*
X354037Y353650D01*
X353687Y353650D01*
X352250D01*
X352068Y353650D01*
X351718Y353650D01*
X350157Y353650D01*
X350051Y353685D01*
X349830Y353843D01*
X349782Y354084D01*
X349594Y354365D01*
X342668Y361292D01*
X342850Y361732D01*
Y362268D01*
X342645Y362765D01*
X342265Y363144D01*
X341769Y363350D01*
X341231D01*
X340735Y363144D01*
X340355Y362765D01*
X340150Y362268D01*
Y361732D01*
X340355Y361235D01*
X340735Y360856D01*
X340873Y360798D01*
X340891Y360711D01*
X341078Y360430D01*
X347535Y353973D01*
X347401Y353650D01*
X346344D01*
X346163Y353650D01*
X345813Y353650D01*
X344376D01*
X344195Y353650D01*
X343845Y353650D01*
X342407D01*
X342226Y353650D01*
X341876Y353650D01*
X340258D01*
Y353650D01*
X340089D01*
Y353650D01*
X338471D01*
X338289Y353650D01*
X337939Y353650D01*
X336502D01*
X336320Y353650D01*
X335970Y353650D01*
X334534D01*
X334352Y353650D01*
X334002Y353650D01*
X332565D01*
X332383Y353650D01*
X332033Y353650D01*
X330896D01*
Y354300D01*
X330213D01*
Y354631D01*
X330633Y354804D01*
X331195Y355367D01*
X331458Y356000D01*
X327542D01*
X327804Y355367D01*
X328367Y354804D01*
X328480Y354758D01*
Y354300D01*
X327797D01*
Y353650D01*
X326478D01*
Y347150D01*
X326511D01*
Y346000D01*
X326577Y345668D01*
X326765Y345387D01*
X327336Y344816D01*
X327150Y344368D01*
Y343632D01*
X327432Y342952D01*
X327952Y342432D01*
X328632Y342150D01*
X329368D01*
X330048Y342432D01*
X330568Y342952D01*
X330850Y343632D01*
Y344368D01*
X330568Y345048D01*
X330048Y345568D01*
X329368Y345850D01*
X328754D01*
X328454Y346150D01*
X328598Y346500D01*
X328847D01*
Y350400D01*
X329847D01*
Y346500D01*
X330448D01*
Y346185D01*
X330514Y345853D01*
X330702Y345572D01*
X332004Y344270D01*
X332286Y344082D01*
X332617Y344016D01*
X333198D01*
X333432Y343452D01*
X333952Y342932D01*
X334632Y342650D01*
X335368D01*
X336048Y342932D01*
X336568Y343452D01*
X336850Y344132D01*
Y344868D01*
X336568Y345548D01*
X336048Y346068D01*
X335368Y346350D01*
X334632D01*
X333952Y346068D01*
X333633Y345749D01*
X332976D01*
X332182Y346544D01*
Y346884D01*
X332383Y347150D01*
X332565Y347150D01*
X334002D01*
X334184Y347150D01*
X334534Y347150D01*
X335970D01*
X336152Y347150D01*
X336502Y347150D01*
X338063Y347150D01*
X338170Y347115D01*
X338390Y346957D01*
X338438Y346716D01*
X338626Y346435D01*
X339461Y345600D01*
X339667Y345463D01*
X339733Y345164D01*
X339729Y345058D01*
X339304Y344633D01*
X339042Y344000D01*
X342958D01*
X342695Y344633D01*
X342333Y344996D01*
X342477Y345346D01*
X355592D01*
X355602Y345000D01*
X354867Y344695D01*
X354305Y344133D01*
X354042Y343500D01*
X357958D01*
X357696Y344133D01*
X357133Y344695D01*
X356398Y345000D01*
X356408Y345346D01*
X365092D01*
X365102Y345000D01*
X364367Y344695D01*
X363805Y344133D01*
X363542Y343500D01*
X367458D01*
X367196Y344133D01*
X366633Y344695D01*
X365898Y345000D01*
X365908Y345346D01*
X372902D01*
X372971Y344996D01*
X372452Y344781D01*
X371932Y344261D01*
X371650Y343581D01*
Y342845D01*
X371932Y342165D01*
X372452Y341644D01*
X373132Y341363D01*
X373868D01*
X374548Y341644D01*
X375068Y342165D01*
X375313Y342755D01*
X377500D01*
Y342154D01*
X381400D01*
Y341154D01*
X377500D01*
Y340475D01*
X377303Y340436D01*
X377022Y340248D01*
X375555Y338781D01*
X375388Y338850D01*
X374652D01*
X373972Y338568D01*
X373451Y338048D01*
X373170Y337368D01*
Y336632D01*
X373451Y335952D01*
X373972Y335432D01*
X374652Y335150D01*
X375388D01*
X376068Y335432D01*
X376588Y335952D01*
X376870Y336632D01*
Y337368D01*
X376789Y337563D01*
X377800Y338574D01*
X378150Y338429D01*
Y336998D01*
X378150Y336817D01*
X378150Y336467D01*
Y335030D01*
X378150Y334848D01*
X378150Y334498D01*
Y333061D01*
X378150Y332880D01*
X378150D01*
Y332711D01*
X378150D01*
Y331093D01*
X378150Y330911D01*
X378150D01*
Y330743D01*
X378150D01*
Y329124D01*
X378150Y328942D01*
X378150Y328592D01*
Y327155D01*
X378150Y326974D01*
X378150Y326624D01*
Y325187D01*
X378150Y325006D01*
X378150Y324656D01*
Y323037D01*
X378150D01*
Y322868D01*
X378150D01*
Y321250D01*
X378150Y321069D01*
X378150Y320719D01*
Y319282D01*
X378150Y319100D01*
X378150Y318750D01*
Y317313D01*
X378150Y317131D01*
X378150Y316781D01*
Y315345D01*
X378150Y315163D01*
X378150Y314813D01*
Y313376D01*
X378150Y313194D01*
X378150Y312844D01*
Y311407D01*
X378150Y311226D01*
X378150Y310876D01*
Y309439D01*
X378150Y309258D01*
X378150Y308908D01*
Y307470D01*
X378150Y307289D01*
X378150Y306939D01*
Y305502D01*
X378150Y305321D01*
X378150Y304971D01*
Y303534D01*
X378150Y303352D01*
X378150Y303002D01*
Y301565D01*
X378150Y301383D01*
X378150Y301033D01*
Y299597D01*
X378150Y299415D01*
X378150D01*
Y299246D01*
X378150D01*
Y297446D01*
X377884Y297245D01*
X376194D01*
X376068Y297548D01*
X375548Y298068D01*
X374868Y298350D01*
X374132D01*
X373452Y298068D01*
X372932Y297548D01*
X372650Y296868D01*
Y296132D01*
X372932Y295452D01*
X373452Y294932D01*
X374132Y294650D01*
X374868D01*
X375548Y294932D01*
X376068Y295452D01*
X376093Y295511D01*
X378150D01*
Y295478D01*
X384650D01*
Y296716D01*
X384973Y296850D01*
X386133Y295690D01*
Y280500D01*
Y272543D01*
X385856Y272265D01*
X385650Y271768D01*
Y271232D01*
X385856Y270735D01*
X386235Y270356D01*
X386732Y270150D01*
X387268D01*
X387765Y270356D01*
X388144Y270735D01*
X388350Y271232D01*
Y271768D01*
X388144Y272265D01*
X387867Y272543D01*
Y280500D01*
Y295467D01*
X388190Y295602D01*
X389133Y294658D01*
Y277007D01*
X388873Y276747D01*
X388668Y276251D01*
Y275714D01*
X388873Y275218D01*
X389253Y274838D01*
X389749Y274632D01*
X390286D01*
X390782Y274838D01*
X391162Y275218D01*
X391368Y275714D01*
Y276251D01*
X391162Y276747D01*
X390867Y277043D01*
Y295017D01*
X390801Y295349D01*
X390613Y295630D01*
X385365Y300878D01*
X385084Y301066D01*
X384843Y301114D01*
X384685Y301334D01*
X384650Y301441D01*
X384650Y301565D01*
Y303002D01*
X384650Y303184D01*
X384650Y303534D01*
Y304971D01*
X384650Y305152D01*
X384650Y305502D01*
Y306939D01*
X384650Y307120D01*
X384650Y307470D01*
Y308908D01*
X384650Y309089D01*
X384650Y309439D01*
Y310876D01*
X384650Y311057D01*
X384650Y311407D01*
Y312844D01*
X384650Y313026D01*
X384650Y313376D01*
Y314813D01*
X384650Y314995D01*
X384650Y315345D01*
Y316781D01*
X384650Y316963D01*
X384650Y317313D01*
Y318750D01*
X384650Y318932D01*
X384650Y319282D01*
Y320719D01*
X384650Y320900D01*
X384916Y321102D01*
X389173D01*
X392133Y318141D01*
Y237500D01*
X392199Y237168D01*
X392387Y236887D01*
X419201Y210073D01*
X418872Y209503D01*
X418607Y208513D01*
Y207487D01*
X418872Y206497D01*
X419385Y205609D01*
X420110Y204885D01*
X420997Y204372D01*
X421987Y204107D01*
X423013D01*
X424003Y204372D01*
X424891Y204885D01*
X425615Y205609D01*
X426128Y206497D01*
X426393Y207487D01*
Y208513D01*
X426128Y209503D01*
X425615Y210390D01*
X424891Y211115D01*
X424003Y211628D01*
X423013Y211893D01*
X421987D01*
X420997Y211628D01*
X420427Y211299D01*
X393867Y237859D01*
Y244913D01*
X394217Y245058D01*
X419201Y220073D01*
X418872Y219503D01*
X418607Y218513D01*
Y217487D01*
X418872Y216497D01*
X419385Y215610D01*
X420110Y214885D01*
X420997Y214372D01*
X421987Y214107D01*
X423013D01*
X424003Y214372D01*
X424891Y214885D01*
X425615Y215610D01*
X426128Y216497D01*
X426393Y217487D01*
Y218513D01*
X426128Y219503D01*
X425615Y220391D01*
X424891Y221115D01*
X424003Y221628D01*
X423013Y221893D01*
X421987D01*
X420997Y221628D01*
X420427Y221299D01*
X395367Y246359D01*
Y253413D01*
X395717Y253558D01*
X419201Y230073D01*
X418872Y229503D01*
X418607Y228513D01*
Y227487D01*
X418872Y226497D01*
X419385Y225609D01*
X420110Y224885D01*
X420997Y224372D01*
X421987Y224107D01*
X423013D01*
X424003Y224372D01*
X424891Y224885D01*
X425615Y225609D01*
X426128Y226497D01*
X426393Y227487D01*
Y228513D01*
X426128Y229503D01*
X425615Y230391D01*
X424891Y231115D01*
X424003Y231628D01*
X423013Y231893D01*
X421987D01*
X420997Y231628D01*
X420427Y231299D01*
X396867Y254859D01*
Y261913D01*
X397217Y262058D01*
X419201Y240073D01*
X418872Y239503D01*
X418607Y238513D01*
Y237487D01*
X418872Y236497D01*
X419385Y235610D01*
X420110Y234885D01*
X420997Y234372D01*
X421987Y234107D01*
X423013D01*
X424003Y234372D01*
X424891Y234885D01*
X425615Y235610D01*
X426128Y236497D01*
X426393Y237487D01*
Y238513D01*
X426128Y239503D01*
X425615Y240390D01*
X424891Y241115D01*
X424003Y241628D01*
X423013Y241893D01*
X421987D01*
X420997Y241628D01*
X420427Y241299D01*
X398367Y263359D01*
Y270413D01*
X398717Y270558D01*
X419201Y250073D01*
X418872Y249503D01*
X418607Y248513D01*
Y247487D01*
X418872Y246497D01*
X419385Y245609D01*
X420110Y244885D01*
X420997Y244372D01*
X421987Y244107D01*
X423013D01*
X424003Y244372D01*
X424891Y244885D01*
X425615Y245609D01*
X426128Y246497D01*
X426393Y247487D01*
Y248513D01*
X426128Y249503D01*
X425615Y250391D01*
X424891Y251115D01*
X424003Y251628D01*
X423013Y251893D01*
X421987D01*
X420997Y251628D01*
X420427Y251299D01*
X399867Y271859D01*
Y320335D01*
X399801Y320666D01*
X399613Y320947D01*
X390633Y329927D01*
X390831Y330224D01*
X391167Y330085D01*
X391704D01*
X392200Y330291D01*
X392580Y330670D01*
X392785Y331167D01*
Y331704D01*
X392580Y332200D01*
X392200Y332580D01*
X392184Y332586D01*
Y332683D01*
X392118Y333014D01*
X391930Y333296D01*
X386946Y338279D01*
X386665Y338467D01*
X386333Y338533D01*
X384887D01*
X384650Y338785D01*
X384650Y338967D01*
Y340104D01*
X385300D01*
Y340787D01*
X386131D01*
X386304Y340367D01*
X386867Y339805D01*
X387500Y339542D01*
Y341500D01*
Y343458D01*
X386867Y343196D01*
X386304Y342633D01*
X386258Y342520D01*
X385300D01*
Y343203D01*
X384650D01*
Y344522D01*
X378150D01*
Y344489D01*
X374840D01*
X374548Y344781D01*
X374029Y344996D01*
X374098Y345346D01*
X387928D01*
X403909Y329365D01*
Y326153D01*
X403926Y326070D01*
Y319276D01*
X409074D01*
Y329582D01*
X407367D01*
Y335464D01*
X408544Y336641D01*
X408894Y336496D01*
Y330197D01*
X415106D01*
Y335089D01*
X415401Y335270D01*
X415724Y335148D01*
Y334000D01*
X418980D01*
Y337453D01*
X416440D01*
X416390Y337514D01*
Y344149D01*
X419974Y347733D01*
X425551D01*
Y353551D01*
X419974D01*
X399912Y373613D01*
X399631Y373801D01*
X399299Y373867D01*
D02*
G37*
G36*
X403500Y340500D02*
X400244D01*
Y337047D01*
X403500D01*
Y340500D01*
D02*
G37*
G36*
X330458Y338500D02*
X329000D01*
Y337042D01*
X329633Y337304D01*
X330195Y337867D01*
X330458Y338500D01*
D02*
G37*
G36*
X328000D02*
X326542D01*
X326804Y337867D01*
X327367Y337304D01*
X328000Y337042D01*
Y338500D01*
D02*
G37*
G36*
X357500Y338458D02*
Y337000D01*
X358958D01*
X358696Y337633D01*
X358133Y338195D01*
X357500Y338458D01*
D02*
G37*
G36*
X356500D02*
X355867Y338195D01*
X355305Y337633D01*
X355042Y337000D01*
X356500D01*
Y338458D01*
D02*
G37*
G36*
X351500D02*
Y337000D01*
X352958D01*
X352695Y337633D01*
X352133Y338195D01*
X351500Y338458D01*
D02*
G37*
G36*
X350500D02*
X349867Y338195D01*
X349305Y337633D01*
X349042Y337000D01*
X350500D01*
Y338458D01*
D02*
G37*
G36*
X358958Y336000D02*
X357500D01*
Y334542D01*
X358133Y334805D01*
X358696Y335367D01*
X358958Y336000D01*
D02*
G37*
G36*
X356500D02*
X355042D01*
X355305Y335367D01*
X355867Y334805D01*
X356500Y334542D01*
Y336000D01*
D02*
G37*
G36*
X352958D02*
X351500D01*
Y334542D01*
X352133Y334805D01*
X352695Y335367D01*
X352958Y336000D01*
D02*
G37*
G36*
X350500D02*
X349042D01*
X349305Y335367D01*
X349867Y334805D01*
X350500Y334542D01*
Y336000D01*
D02*
G37*
G36*
X426000Y335458D02*
Y334000D01*
X427458D01*
X427196Y334633D01*
X426633Y335195D01*
X426000Y335458D01*
D02*
G37*
G36*
X346500Y334458D02*
Y333000D01*
X347958D01*
X347695Y333633D01*
X347133Y334195D01*
X346500Y334458D01*
D02*
G37*
G36*
X345500D02*
X344867Y334195D01*
X344304Y333633D01*
X344042Y333000D01*
X345500D01*
Y334458D01*
D02*
G37*
G36*
X335500D02*
Y333000D01*
X336958D01*
X336696Y333633D01*
X336133Y334195D01*
X335500Y334458D01*
D02*
G37*
G36*
X334500D02*
X333867Y334195D01*
X333305Y333633D01*
X333042Y333000D01*
X334500D01*
Y334458D01*
D02*
G37*
G36*
X427458Y333000D02*
X426000D01*
Y331542D01*
X426633Y331804D01*
X427196Y332367D01*
X427458Y333000D01*
D02*
G37*
G36*
X422958Y339500D02*
X419042D01*
X419305Y338867D01*
X419867Y338304D01*
X420133Y338194D01*
Y337453D01*
X419980D01*
Y333500D01*
X419480D01*
Y333000D01*
X415724D01*
Y329582D01*
X413926D01*
Y319276D01*
X415633D01*
Y318143D01*
X415452Y318068D01*
X414932Y317548D01*
X414650Y316868D01*
Y316132D01*
X414932Y315452D01*
X415452Y314932D01*
X416132Y314650D01*
X416868D01*
X417548Y314932D01*
X418068Y315452D01*
X418350Y316132D01*
Y316868D01*
X418068Y317548D01*
X417548Y318068D01*
X417367Y318143D01*
Y319276D01*
X419074D01*
Y329547D01*
X420870D01*
Y327198D01*
X420805Y327133D01*
X420542Y326500D01*
X424458D01*
X424195Y327133D01*
X423633Y327695D01*
X422898Y328000D01*
X422603D01*
Y329547D01*
X423236D01*
Y332633D01*
X423694D01*
X423805Y332367D01*
X424367Y331804D01*
X425000Y331542D01*
Y333500D01*
Y335458D01*
X424367Y335195D01*
X423805Y334633D01*
X423694Y334367D01*
X423236D01*
Y337453D01*
X421867D01*
Y338194D01*
X422133Y338304D01*
X422695Y338867D01*
X422958Y339500D01*
D02*
G37*
G36*
X347958Y332000D02*
X346500D01*
Y330542D01*
X347133Y330804D01*
X347695Y331367D01*
X347958Y332000D01*
D02*
G37*
G36*
X345500D02*
X344042D01*
X344304Y331367D01*
X344867Y330804D01*
X345500Y330542D01*
Y332000D01*
D02*
G37*
G36*
X336958D02*
X335500D01*
Y330542D01*
X336133Y330804D01*
X336696Y331367D01*
X336958Y332000D01*
D02*
G37*
G36*
X334500D02*
X333042D01*
X333305Y331367D01*
X333867Y330804D01*
X334500Y330542D01*
Y332000D01*
D02*
G37*
G36*
X361520Y331958D02*
Y330500D01*
X362977D01*
X362715Y331133D01*
X362153Y331696D01*
X361520Y331958D01*
D02*
G37*
G36*
X360520D02*
X359887Y331696D01*
X359324Y331133D01*
X359062Y330500D01*
X360520D01*
Y331958D01*
D02*
G37*
G36*
X342000Y330458D02*
Y329000D01*
X343458D01*
X343196Y329633D01*
X342633Y330195D01*
X342000Y330458D01*
D02*
G37*
G36*
X341000D02*
X340367Y330195D01*
X339805Y329633D01*
X339542Y329000D01*
X341000D01*
Y330458D01*
D02*
G37*
G36*
X311500Y329958D02*
Y328500D01*
X312958D01*
X312696Y329133D01*
X312133Y329696D01*
X311500Y329958D01*
D02*
G37*
G36*
X310500D02*
X309867Y329696D01*
X309304Y329133D01*
X309042Y328500D01*
X310500D01*
Y329958D01*
D02*
G37*
G36*
X362977Y329500D02*
X361520D01*
Y328042D01*
X362153Y328305D01*
X362715Y328867D01*
X362977Y329500D01*
D02*
G37*
G36*
X360520D02*
X359062D01*
X359324Y328867D01*
X359887Y328305D01*
X360520Y328042D01*
Y329500D01*
D02*
G37*
G36*
X372388Y331350D02*
X371652D01*
X370972Y331068D01*
X370451Y330548D01*
X370170Y329868D01*
Y329132D01*
X370451Y328452D01*
X370972Y327932D01*
X371652Y327650D01*
X372388D01*
X373068Y327932D01*
X373588Y328452D01*
X373870Y329132D01*
Y329868D01*
X373588Y330548D01*
X373068Y331068D01*
X372388Y331350D01*
D02*
G37*
G36*
X343458Y328000D02*
X342000D01*
Y326542D01*
X342633Y326804D01*
X343196Y327367D01*
X343458Y328000D01*
D02*
G37*
G36*
X341000D02*
X339542D01*
X339805Y327367D01*
X340367Y326804D01*
X341000Y326542D01*
Y328000D01*
D02*
G37*
G36*
X310500Y327500D02*
X309042D01*
X309304Y326867D01*
X309867Y326305D01*
X310500Y326042D01*
Y327500D01*
D02*
G37*
G36*
X336500Y326958D02*
Y325500D01*
X337958D01*
X337696Y326133D01*
X337133Y326695D01*
X336500Y326958D01*
D02*
G37*
G36*
X335500D02*
X334867Y326695D01*
X334304Y326133D01*
X334042Y325500D01*
X335500D01*
Y326958D01*
D02*
G37*
G36*
X424458Y325500D02*
X423000D01*
Y324042D01*
X423633Y324305D01*
X424195Y324867D01*
X424458Y325500D01*
D02*
G37*
G36*
X422000D02*
X420542D01*
X420805Y324867D01*
X421367Y324305D01*
X422000Y324042D01*
Y325500D01*
D02*
G37*
G36*
X335500Y324500D02*
X334042D01*
X334304Y323867D01*
X334867Y323305D01*
X335500Y323042D01*
Y324500D01*
D02*
G37*
G36*
X337958D02*
X336500D01*
Y323042D01*
X337133Y323305D01*
X337696Y323867D01*
X337958Y324500D01*
D02*
G37*
G36*
X343500Y323458D02*
Y322000D01*
X344958D01*
X344695Y322633D01*
X344133Y323196D01*
X343500Y323458D01*
D02*
G37*
G36*
X342500D02*
X341867Y323196D01*
X341304Y322633D01*
X341042Y322000D01*
X342500D01*
Y323458D01*
D02*
G37*
G36*
X344958Y321000D02*
X343500D01*
Y319542D01*
X344133Y319805D01*
X344695Y320367D01*
X344958Y321000D01*
D02*
G37*
G36*
X342500D02*
X341042D01*
X341304Y320367D01*
X341867Y319805D01*
X342500Y319542D01*
Y321000D01*
D02*
G37*
G36*
X328868Y322350D02*
X328132D01*
X327452Y322068D01*
X326932Y321548D01*
X326650Y320868D01*
Y320132D01*
X326932Y319452D01*
X327452Y318932D01*
X328132Y318650D01*
X328868D01*
X329548Y318932D01*
X330068Y319452D01*
X330350Y320132D01*
Y320868D01*
X330068Y321548D01*
X329548Y322068D01*
X328868Y322350D01*
D02*
G37*
G36*
X376000Y318458D02*
Y317000D01*
X377458D01*
X377196Y317633D01*
X376633Y318196D01*
X376000Y318458D01*
D02*
G37*
G36*
X375000D02*
X374367Y318196D01*
X373804Y317633D01*
X373542Y317000D01*
X375000D01*
Y318458D01*
D02*
G37*
G36*
X369000D02*
Y317000D01*
X370458D01*
X370196Y317633D01*
X369633Y318196D01*
X369000Y318458D01*
D02*
G37*
G36*
X368000D02*
X367367Y318196D01*
X366805Y317633D01*
X366542Y317000D01*
X368000D01*
Y318458D01*
D02*
G37*
G36*
X335868Y320350D02*
X335132D01*
X334452Y320068D01*
X333932Y319548D01*
X333650Y318868D01*
Y318132D01*
X333932Y317452D01*
X334452Y316932D01*
X335132Y316650D01*
X335868D01*
X336548Y316932D01*
X337068Y317452D01*
X337350Y318132D01*
Y318868D01*
X337068Y319548D01*
X336548Y320068D01*
X335868Y320350D01*
D02*
G37*
G36*
X347000Y317458D02*
Y316000D01*
X348458D01*
X348196Y316633D01*
X347633Y317196D01*
X347000Y317458D01*
D02*
G37*
G36*
X346000D02*
X345367Y317196D01*
X344805Y316633D01*
X344542Y316000D01*
X346000D01*
Y317458D01*
D02*
G37*
G36*
X377458Y316000D02*
X376000D01*
Y314542D01*
X376633Y314805D01*
X377196Y315367D01*
X377458Y316000D01*
D02*
G37*
G36*
X375000D02*
X373542D01*
X373804Y315367D01*
X374367Y314805D01*
X375000Y314542D01*
Y316000D01*
D02*
G37*
G36*
X370458D02*
X369000D01*
Y314542D01*
X369633Y314805D01*
X370196Y315367D01*
X370458Y316000D01*
D02*
G37*
G36*
X368000D02*
X366542D01*
X366805Y315367D01*
X367367Y314805D01*
X368000Y314542D01*
Y316000D01*
D02*
G37*
G36*
X360000Y315458D02*
Y314000D01*
X361458D01*
X361195Y314633D01*
X360633Y315195D01*
X360000Y315458D01*
D02*
G37*
G36*
X359000D02*
X358367Y315195D01*
X357804Y314633D01*
X357542Y314000D01*
X359000D01*
Y315458D01*
D02*
G37*
G36*
X348458Y315000D02*
X347000D01*
Y313542D01*
X347633Y313805D01*
X348196Y314367D01*
X348458Y315000D01*
D02*
G37*
G36*
X346000D02*
X344542D01*
X344805Y314367D01*
X345367Y313805D01*
X346000Y313542D01*
Y315000D01*
D02*
G37*
G36*
X361458Y313000D02*
X360000D01*
Y311542D01*
X360633Y311805D01*
X361195Y312367D01*
X361458Y313000D01*
D02*
G37*
G36*
X359000D02*
X357542D01*
X357804Y312367D01*
X358367Y311805D01*
X359000Y311542D01*
Y313000D01*
D02*
G37*
G36*
X367500Y311458D02*
Y310000D01*
X368958D01*
X368695Y310633D01*
X368133Y311195D01*
X367500Y311458D01*
D02*
G37*
G36*
X366500D02*
X365867Y311195D01*
X365304Y310633D01*
X365042Y310000D01*
X366500D01*
Y311458D01*
D02*
G37*
G36*
X345500Y310458D02*
Y309000D01*
X346958D01*
X346695Y309633D01*
X346133Y310195D01*
X345500Y310458D01*
D02*
G37*
G36*
X344500D02*
X343867Y310195D01*
X343304Y309633D01*
X343042Y309000D01*
X344500D01*
Y310458D01*
D02*
G37*
G36*
X354500Y309958D02*
Y308500D01*
X355958D01*
X355696Y309133D01*
X355133Y309696D01*
X354500Y309958D01*
D02*
G37*
G36*
X353500D02*
X352867Y309696D01*
X352305Y309133D01*
X352042Y308500D01*
X353500D01*
Y309958D01*
D02*
G37*
G36*
X368958Y309000D02*
X367500D01*
Y307542D01*
X368133Y307804D01*
X368695Y308367D01*
X368958Y309000D01*
D02*
G37*
G36*
X366500D02*
X365042D01*
X365304Y308367D01*
X365867Y307804D01*
X366500Y307542D01*
Y309000D01*
D02*
G37*
G36*
X346958Y308000D02*
X345500D01*
Y306542D01*
X346133Y306804D01*
X346695Y307367D01*
X346958Y308000D01*
D02*
G37*
G36*
X344500D02*
X343042D01*
X343304Y307367D01*
X343867Y306804D01*
X344500Y306542D01*
Y308000D01*
D02*
G37*
G36*
X355958Y307500D02*
X354500D01*
Y306042D01*
X355133Y306305D01*
X355696Y306867D01*
X355958Y307500D01*
D02*
G37*
G36*
X353500D02*
X352042D01*
X352305Y306867D01*
X352867Y306305D01*
X353500Y306042D01*
Y307500D01*
D02*
G37*
G36*
X349000Y304458D02*
Y303000D01*
X350458D01*
X350196Y303633D01*
X349633Y304195D01*
X349000Y304458D01*
D02*
G37*
G36*
X348000D02*
X347367Y304195D01*
X346804Y303633D01*
X346542Y303000D01*
X348000D01*
Y304458D01*
D02*
G37*
G36*
X369368Y304850D02*
X368632D01*
X367952Y304568D01*
X367432Y304048D01*
X367150Y303368D01*
Y302632D01*
X367432Y301952D01*
X367952Y301432D01*
X368632Y301150D01*
X369368D01*
X370048Y301432D01*
X370568Y301952D01*
X370850Y302632D01*
Y303368D01*
X370568Y304048D01*
X370048Y304568D01*
X369368Y304850D01*
D02*
G37*
G36*
X350458Y302000D02*
X349000D01*
Y300542D01*
X349633Y300804D01*
X350196Y301367D01*
X350458Y302000D01*
D02*
G37*
G36*
X348000D02*
X346542D01*
X346804Y301367D01*
X347367Y300804D01*
X348000Y300542D01*
Y302000D01*
D02*
G37*
G36*
X354868Y302350D02*
X354132D01*
X353452Y302068D01*
X352932Y301548D01*
X352650Y300868D01*
Y300132D01*
X352932Y299452D01*
X353452Y298932D01*
X354132Y298650D01*
X354868D01*
X355548Y298932D01*
X356068Y299452D01*
X356350Y300132D01*
Y300868D01*
X356068Y301548D01*
X355548Y302068D01*
X354868Y302350D01*
D02*
G37*
G36*
X342000Y299458D02*
Y298000D01*
X343458D01*
X343196Y298633D01*
X342633Y299196D01*
X342000Y299458D01*
D02*
G37*
G36*
X341000D02*
X340367Y299196D01*
X339805Y298633D01*
X339542Y298000D01*
X341000D01*
Y299458D01*
D02*
G37*
G36*
X343458Y297000D02*
X342000D01*
Y295542D01*
X342633Y295805D01*
X343196Y296367D01*
X343458Y297000D01*
D02*
G37*
G36*
X341000D02*
X339542D01*
X339805Y296367D01*
X340367Y295805D01*
X341000Y295542D01*
Y297000D01*
D02*
G37*
G36*
X360000Y296958D02*
X359367Y296695D01*
X358804Y296133D01*
X358542Y295500D01*
X360000D01*
Y296958D01*
D02*
G37*
G36*
X348500D02*
Y295500D01*
X349958D01*
X349695Y296133D01*
X349133Y296695D01*
X348500Y296958D01*
D02*
G37*
G36*
X347500D02*
X346867Y296695D01*
X346304Y296133D01*
X346042Y295500D01*
X347500D01*
Y296958D01*
D02*
G37*
G36*
X334868Y298850D02*
X334132D01*
X333452Y298568D01*
X332932Y298048D01*
X332650Y297368D01*
Y296632D01*
X332932Y295952D01*
X333452Y295432D01*
X334132Y295150D01*
X334868D01*
X335548Y295432D01*
X336068Y295952D01*
X336350Y296632D01*
Y297368D01*
X336068Y298048D01*
X335548Y298568D01*
X334868Y298850D01*
D02*
G37*
G36*
X380500Y292958D02*
Y291500D01*
X381958D01*
X381696Y292133D01*
X381133Y292695D01*
X380500Y292958D01*
D02*
G37*
G36*
X419724Y296374D02*
X417000D01*
Y291071D01*
X419724D01*
Y296374D01*
D02*
G37*
G36*
X409724D02*
X407000D01*
Y291071D01*
X409724D01*
Y296374D01*
D02*
G37*
G36*
X416000D02*
X413276D01*
Y291071D01*
X416000D01*
Y296374D01*
D02*
G37*
G36*
X406000D02*
X403276D01*
Y291071D01*
X406000D01*
Y296374D01*
D02*
G37*
G36*
X326878Y293500D02*
X325828D01*
Y290467D01*
X323764D01*
X323695Y290633D01*
X323133Y291196D01*
X322500Y291458D01*
Y289500D01*
Y287542D01*
X323133Y287805D01*
X323695Y288367D01*
X323847Y288733D01*
X325828D01*
Y285700D01*
X326878D01*
Y289600D01*
Y293500D01*
D02*
G37*
G36*
X321500Y291458D02*
X320867Y291196D01*
X320304Y290633D01*
X320042Y290000D01*
X321500D01*
Y291458D01*
D02*
G37*
G36*
X381958Y290500D02*
X380500D01*
Y289042D01*
X381133Y289304D01*
X381696Y289867D01*
X381958Y290500D01*
D02*
G37*
G36*
X376172Y293500D02*
X375122D01*
Y289600D01*
Y285700D01*
X376172D01*
Y289133D01*
X378951D01*
X379173Y289178D01*
X379500Y289042D01*
Y291000D01*
Y292958D01*
X378867Y292695D01*
X378305Y292133D01*
X378000Y291398D01*
Y290867D01*
X376172D01*
Y293500D01*
D02*
G37*
G36*
X282269Y294850D02*
X281732D01*
X281235Y294644D01*
X280855Y294265D01*
X280650Y293769D01*
Y293376D01*
X275641Y288367D01*
X224901D01*
X224770Y288855D01*
X224308Y289655D01*
X223655Y290308D01*
X222855Y290770D01*
X221962Y291009D01*
X221038D01*
X220145Y290770D01*
X219345Y290308D01*
X218692Y289655D01*
X218230Y288855D01*
X217990Y287962D01*
Y287038D01*
X218230Y286145D01*
X218692Y285345D01*
X219345Y284692D01*
X220145Y284230D01*
X221038Y283991D01*
X221962D01*
X222855Y284230D01*
X223655Y284692D01*
X224308Y285345D01*
X224770Y286145D01*
X224901Y286633D01*
X276000D01*
X276332Y286699D01*
X276613Y286887D01*
X281876Y292150D01*
X282269D01*
X282765Y292355D01*
X283144Y292735D01*
X283350Y293232D01*
Y293769D01*
X283144Y294265D01*
X282765Y294644D01*
X282269Y294850D01*
D02*
G37*
G36*
X321500Y289000D02*
X320042D01*
X320304Y288367D01*
X320867Y287805D01*
X321500Y287542D01*
Y289000D01*
D02*
G37*
G36*
X368196Y299595D02*
X367460D01*
X366780Y299314D01*
X366260Y298793D01*
X365978Y298113D01*
Y297377D01*
X366260Y296697D01*
X366780Y296177D01*
X367460Y295895D01*
X368196D01*
X368365Y295965D01*
X370507Y293823D01*
X370373Y293500D01*
X369217D01*
Y289600D01*
Y285700D01*
X369818D01*
Y284315D01*
X369884Y283983D01*
X370072Y283702D01*
X370887Y282887D01*
X371168Y282699D01*
X371500Y282633D01*
X375194D01*
X375305Y282367D01*
X375867Y281804D01*
X376500Y281542D01*
Y283500D01*
Y285458D01*
X375867Y285195D01*
X375305Y284633D01*
X375194Y284367D01*
X371859D01*
X371552Y284674D01*
Y285700D01*
X372235D01*
Y286350D01*
X373072D01*
Y285700D01*
X374122D01*
Y289600D01*
Y293500D01*
X373260D01*
X373216Y293565D01*
X369598Y297183D01*
X369678Y297377D01*
Y298113D01*
X369397Y298793D01*
X368876Y299314D01*
X368196Y299595D01*
D02*
G37*
G36*
X377500Y285458D02*
Y284000D01*
X378958D01*
X378696Y284633D01*
X378133Y285195D01*
X377500Y285458D01*
D02*
G37*
G36*
X406000Y290071D02*
X403276D01*
Y284768D01*
X403909D01*
Y283135D01*
X403164Y282390D01*
X403000Y282458D01*
Y281000D01*
X404458D01*
X404390Y281164D01*
X405388Y282163D01*
X405576Y282444D01*
X405642Y282776D01*
Y284768D01*
X406000D01*
Y290071D01*
D02*
G37*
G36*
X378958Y283000D02*
X377500D01*
Y281542D01*
X378133Y281804D01*
X378696Y282367D01*
X378958Y283000D01*
D02*
G37*
G36*
X369000Y282958D02*
Y281500D01*
X370458D01*
X370196Y282133D01*
X369633Y282696D01*
X369000Y282958D01*
D02*
G37*
G36*
X328368Y298350D02*
X327632D01*
X326952Y298068D01*
X326432Y297548D01*
X326150Y296868D01*
Y296132D01*
X326432Y295452D01*
X326952Y294932D01*
X327632Y294650D01*
X328368D01*
X328480Y294575D01*
Y293500D01*
X327878D01*
Y289600D01*
Y285700D01*
X328928D01*
Y286350D01*
X330065D01*
X330246Y286350D01*
X330596Y286350D01*
X332033D01*
X332215Y286350D01*
X332417Y286084D01*
Y254969D01*
X332483Y254637D01*
X332671Y254356D01*
X364140Y222887D01*
X364421Y222699D01*
X364753Y222633D01*
X393141D01*
X415108Y200667D01*
X415298Y200396D01*
X415245Y200068D01*
X415067Y199479D01*
X414921Y198000D01*
X415067Y196521D01*
X415498Y195100D01*
X416198Y193789D01*
X417141Y192641D01*
X417447Y192390D01*
X417645Y192179D01*
X417647Y191955D01*
X417613Y191806D01*
X417326Y191457D01*
X416751Y190381D01*
X416397Y189214D01*
X416278Y188000D01*
X416397Y186786D01*
X416751Y185619D01*
X417326Y184543D01*
X418100Y183600D01*
X419043Y182826D01*
X419735Y182456D01*
X420010Y182276D01*
Y182276D01*
X420010D01*
X420067Y181950D01*
Y181213D01*
X420090Y181096D01*
X419385Y180391D01*
X418872Y179503D01*
X418607Y178513D01*
Y177487D01*
X418872Y176497D01*
X419385Y175609D01*
X420110Y174885D01*
X420997Y174372D01*
X421987Y174107D01*
X423013D01*
X424003Y174372D01*
X424891Y174885D01*
X425615Y175609D01*
X426128Y176497D01*
X426393Y177487D01*
Y178513D01*
X426128Y179503D01*
X425615Y180391D01*
X424891Y181115D01*
X424003Y181628D01*
X423013Y181893D01*
X421987D01*
X421801Y182037D01*
Y182614D01*
X421735Y182946D01*
X421547Y183227D01*
X421254Y183520D01*
X421254Y183520D01*
X421268Y183534D01*
X421268Y183534D01*
X421268Y183534D01*
X421186Y183600D01*
X421116Y183658D01*
X421015Y183725D01*
X421014Y183726D01*
X420995Y183739D01*
X420835Y183845D01*
X420840Y183879D01*
X420260Y184119D01*
X419332Y184832D01*
X418619Y185760D01*
X418172Y186840D01*
X418019Y188000D01*
X418172Y189160D01*
X418619Y190240D01*
X419082Y190843D01*
X419082Y190844D01*
X419056Y190870D01*
X419364Y191331D01*
X419507Y192053D01*
X419470Y192239D01*
X419751Y192448D01*
X420119Y192251D01*
X420987Y191988D01*
X420996Y191662D01*
X420987Y191622D01*
X420110Y191115D01*
X419385Y190391D01*
X418872Y189503D01*
X418607Y188513D01*
Y187487D01*
X418872Y186497D01*
X419385Y185609D01*
X420110Y184885D01*
X420997Y184372D01*
X421987Y184107D01*
X423013D01*
X424003Y184372D01*
X424891Y184885D01*
X425615Y185609D01*
X426128Y186497D01*
X426393Y187487D01*
Y188513D01*
X426128Y189503D01*
X425615Y190391D01*
X424891Y191115D01*
X424003Y191628D01*
X423367Y191798D01*
Y192151D01*
X423301Y192483D01*
X423113Y192764D01*
X422820Y193057D01*
X422821Y193058D01*
X422834Y193070D01*
X422834Y193071D01*
X422834Y193071D01*
X422821Y193058D01*
X422580Y193297D01*
X422298Y193485D01*
X422052Y193534D01*
X422056Y193578D01*
X421340Y193672D01*
X420260Y194120D01*
X419332Y194832D01*
X418619Y195760D01*
X418172Y196840D01*
X418019Y198000D01*
X418172Y199160D01*
X418549Y200071D01*
X418719Y200370D01*
X418774Y200506D01*
X418826Y200768D01*
X418840Y200838D01*
X418849Y200967D01*
X418860Y201112D01*
X418860Y201112D01*
X418860Y201112D01*
X418866Y201454D01*
X419053Y201567D01*
X419183Y201591D01*
X419884Y200890D01*
X419385Y200391D01*
X418872Y199503D01*
X418607Y198513D01*
Y197487D01*
X418872Y196497D01*
X419385Y195609D01*
X420110Y194885D01*
X420997Y194372D01*
X421987Y194107D01*
X423013D01*
X424003Y194372D01*
X424891Y194885D01*
X425615Y195609D01*
X426128Y196497D01*
X426393Y197487D01*
Y198513D01*
X426128Y199503D01*
X425615Y200391D01*
X424891Y201115D01*
X424003Y201628D01*
X423013Y201893D01*
X421987D01*
X421471Y201755D01*
X395995Y227231D01*
X395714Y227418D01*
X395382Y227484D01*
X365812D01*
X364503Y228794D01*
X364684Y229108D01*
X365460Y228900D01*
X365500D01*
Y232500D01*
X361900D01*
Y232460D01*
X362108Y231684D01*
X361794Y231503D01*
X338087Y255209D01*
Y286084D01*
X338289Y286350D01*
X338471Y286350D01*
X339908D01*
X340089Y286350D01*
X340439Y286350D01*
X341876D01*
X342057Y286350D01*
X342407Y286350D01*
X343845D01*
X344026Y286350D01*
X344376Y286350D01*
X345813D01*
X345994Y286350D01*
X346344Y286350D01*
X347781D01*
X347963Y286350D01*
X348165Y286084D01*
Y259968D01*
X348231Y259637D01*
X348419Y259356D01*
X363025Y244749D01*
X362785Y244332D01*
X362550Y243454D01*
Y242546D01*
X362785Y241668D01*
X363239Y240881D01*
X363881Y240239D01*
X364668Y239785D01*
X365546Y239550D01*
X366454D01*
X367332Y239785D01*
X368119Y240239D01*
X368761Y240881D01*
X369215Y241668D01*
X369450Y242546D01*
Y243454D01*
X369215Y244332D01*
X368761Y245119D01*
X368119Y245761D01*
X367332Y246215D01*
X366454Y246450D01*
X365546D01*
X364668Y246215D01*
X364251Y245974D01*
X349898Y260328D01*
Y267525D01*
X350248Y267595D01*
X350387Y267387D01*
X363025Y254749D01*
X362785Y254332D01*
X362550Y253454D01*
Y252546D01*
X362785Y251668D01*
X363239Y250881D01*
X363881Y250239D01*
X364668Y249785D01*
X365546Y249550D01*
X366454D01*
X367332Y249785D01*
X368119Y250239D01*
X368761Y250881D01*
X369215Y251668D01*
X369450Y252546D01*
Y253454D01*
X369215Y254332D01*
X368761Y255119D01*
X368119Y255761D01*
X367332Y256215D01*
X366454Y256450D01*
X365546D01*
X364668Y256215D01*
X364251Y255975D01*
X351867Y268359D01*
Y286084D01*
X352068Y286350D01*
X352250Y286350D01*
X353687D01*
X353869Y286350D01*
X354219Y286350D01*
X355656D01*
X355837Y286350D01*
X356187Y286350D01*
X357624D01*
X357805Y286350D01*
X358155Y286350D01*
X359593D01*
X359774Y286350D01*
X360124Y286350D01*
X361561D01*
X361742Y286350D01*
X361994Y286113D01*
Y284404D01*
X361856Y284265D01*
X361650Y283769D01*
Y283231D01*
X361856Y282735D01*
X362235Y282355D01*
X362732Y282150D01*
X363268D01*
X363765Y282355D01*
X364144Y282735D01*
X364350Y283231D01*
Y283769D01*
X364144Y284265D01*
X363765Y284645D01*
X363728Y284660D01*
Y286063D01*
X363879Y286350D01*
X364078Y286350D01*
X365198D01*
Y285700D01*
X365881D01*
Y282752D01*
X365947Y282420D01*
X366135Y282139D01*
X366610Y281664D01*
X366542Y281500D01*
X368000D01*
Y282958D01*
X367881Y282908D01*
X367615Y283126D01*
Y285700D01*
X368217D01*
Y289600D01*
Y293676D01*
X366279Y295613D01*
X365998Y295801D01*
X365667Y295867D01*
X362306D01*
X362195Y296133D01*
X361633Y296695D01*
X361000Y296958D01*
Y295000D01*
X360500D01*
Y294500D01*
X358542D01*
X358804Y293867D01*
X359367Y293304D01*
X359619Y293200D01*
X359550Y292850D01*
X358155D01*
X357974Y292850D01*
X357624Y292850D01*
X356187D01*
X356006Y292850D01*
X355656Y292850D01*
X354219D01*
X354037Y292850D01*
X353687Y292850D01*
X352250D01*
X352068Y292850D01*
X351718Y292850D01*
X350282D01*
X350100Y292850D01*
X349750Y292850D01*
X348950D01*
X348881Y293200D01*
X349133Y293304D01*
X349695Y293867D01*
X349958Y294500D01*
X346042D01*
X346304Y293867D01*
X346867Y293304D01*
X347119Y293200D01*
X347050Y292850D01*
X346163Y292850D01*
X345813Y292850D01*
X344376D01*
X344195Y292850D01*
X343845Y292850D01*
X342407D01*
X342226Y292850D01*
X341876Y292850D01*
X340439D01*
X340258Y292850D01*
X339908Y292850D01*
X338471D01*
X338289Y292850D01*
X337939Y292850D01*
X336320D01*
Y292850D01*
X336152D01*
Y292850D01*
X334352D01*
Y292850D01*
X334183D01*
Y292850D01*
X332565D01*
X332383Y292850D01*
X332033Y292850D01*
X330596D01*
X330415Y292850D01*
X330213Y293116D01*
Y295105D01*
X330147Y295436D01*
X329959Y295717D01*
X329761Y295916D01*
X329850Y296132D01*
Y296868D01*
X329568Y297548D01*
X329048Y298068D01*
X328368Y298350D01*
D02*
G37*
G36*
X424000Y282458D02*
Y281000D01*
X425458D01*
X425196Y281633D01*
X424633Y282195D01*
X424000Y282458D01*
D02*
G37*
G36*
X419724Y290071D02*
X416500D01*
X413276D01*
Y284768D01*
X415633D01*
Y282306D01*
X415367Y282195D01*
X414805Y281633D01*
X414542Y281000D01*
X418458D01*
X418195Y281633D01*
X417633Y282195D01*
X417367Y282306D01*
Y284768D01*
X418499D01*
X421754Y281512D01*
X421542Y281000D01*
X423000D01*
Y282718D01*
X419724Y285993D01*
Y290071D01*
D02*
G37*
G36*
X409724D02*
X407000D01*
Y284768D01*
X407358D01*
Y282046D01*
X407424Y281715D01*
X407612Y281433D01*
X407690Y281355D01*
X407542Y281000D01*
X411458D01*
X411196Y281633D01*
X410633Y282195D01*
X409898Y282500D01*
X409102D01*
X409091Y282507D01*
Y284768D01*
X409724D01*
Y290071D01*
D02*
G37*
G36*
X402000Y282458D02*
X401367Y282195D01*
X400805Y281633D01*
X400542Y281000D01*
X402000D01*
Y282458D01*
D02*
G37*
G36*
X291769Y296350D02*
X291231D01*
X290735Y296145D01*
X290355Y295765D01*
X290150Y295269D01*
Y294876D01*
X279641Y284367D01*
X227500D01*
X227168Y284301D01*
X226887Y284113D01*
X223292Y280518D01*
X222855Y280770D01*
X221962Y281010D01*
X221038D01*
X220145Y280770D01*
X219345Y280308D01*
X218692Y279655D01*
X218230Y278855D01*
X217990Y277962D01*
Y277038D01*
X218230Y276145D01*
X218692Y275345D01*
X219345Y274692D01*
X220145Y274230D01*
X221038Y273991D01*
X221962D01*
X222855Y274230D01*
X223655Y274692D01*
X224308Y275345D01*
X224770Y276145D01*
X225009Y277038D01*
Y277962D01*
X224770Y278855D01*
X224518Y279292D01*
X227859Y282633D01*
X280000D01*
X280332Y282699D01*
X280613Y282887D01*
X291376Y293650D01*
X291769D01*
X292265Y293856D01*
X292645Y294235D01*
X292850Y294731D01*
Y295269D01*
X292645Y295765D01*
X292265Y296145D01*
X291769Y296350D01*
D02*
G37*
G36*
X370458Y280500D02*
X369000D01*
Y279042D01*
X369633Y279305D01*
X370196Y279867D01*
X370458Y280500D01*
D02*
G37*
G36*
X368000D02*
X366542D01*
X366805Y279867D01*
X367367Y279305D01*
X368000Y279042D01*
Y280500D01*
D02*
G37*
G36*
X425458Y280000D02*
X424000D01*
Y278542D01*
X424633Y278804D01*
X425196Y279367D01*
X425458Y280000D01*
D02*
G37*
G36*
X423000D02*
X421542D01*
X421805Y279367D01*
X422367Y278804D01*
X423000Y278542D01*
Y280000D01*
D02*
G37*
G36*
X418458D02*
X417000D01*
Y278542D01*
X417633Y278804D01*
X418195Y279367D01*
X418458Y280000D01*
D02*
G37*
G36*
X416000D02*
X414542D01*
X414805Y279367D01*
X415367Y278804D01*
X416000Y278542D01*
Y280000D01*
D02*
G37*
G36*
X411458D02*
X410000D01*
Y278542D01*
X410633Y278804D01*
X411196Y279367D01*
X411458Y280000D01*
D02*
G37*
G36*
X409000D02*
X407542D01*
X407804Y279367D01*
X408367Y278804D01*
X409000Y278542D01*
Y280000D01*
D02*
G37*
G36*
X404458D02*
X403000D01*
Y278542D01*
X403633Y278804D01*
X404195Y279367D01*
X404458Y280000D01*
D02*
G37*
G36*
X402000D02*
X400542D01*
X400805Y279367D01*
X401367Y278804D01*
X402000Y278542D01*
Y280000D01*
D02*
G37*
G36*
X277768Y273350D02*
X277232D01*
X276735Y273145D01*
X276458Y272867D01*
X226000D01*
X225668Y272801D01*
X225387Y272613D01*
X223292Y270518D01*
X222855Y270770D01*
X221962Y271009D01*
X221038D01*
X220145Y270770D01*
X219345Y270308D01*
X218692Y269655D01*
X218230Y268855D01*
X217990Y267962D01*
Y267038D01*
X218230Y266145D01*
X218692Y265345D01*
X219345Y264692D01*
X220145Y264230D01*
X221038Y263990D01*
X221962D01*
X222855Y264230D01*
X223655Y264692D01*
X224308Y265345D01*
X224770Y266145D01*
X225009Y267038D01*
Y267962D01*
X224770Y268855D01*
X224518Y269292D01*
X226359Y271133D01*
X276458D01*
X276735Y270855D01*
X277232Y270650D01*
X277768D01*
X278265Y270855D01*
X278644Y271235D01*
X278850Y271731D01*
Y272269D01*
X278644Y272765D01*
X278265Y273145D01*
X277768Y273350D01*
D02*
G37*
G36*
X369450Y266450D02*
X362550D01*
Y259550D01*
X369450D01*
Y266450D01*
D02*
G37*
G36*
X222048Y261660D02*
X222000D01*
Y258000D01*
X225659D01*
Y258048D01*
X225376Y259105D01*
X224828Y260054D01*
X224054Y260828D01*
X223106Y261376D01*
X222048Y261660D01*
D02*
G37*
G36*
X221000D02*
X220952D01*
X219895Y261376D01*
X218946Y260828D01*
X218172Y260054D01*
X217624Y259105D01*
X217340Y258048D01*
Y258000D01*
X221000D01*
Y261660D01*
D02*
G37*
G36*
X225659Y257000D02*
X222000D01*
Y253341D01*
X222048D01*
X223106Y253624D01*
X224054Y254172D01*
X224828Y254946D01*
X225376Y255894D01*
X225659Y256952D01*
Y257000D01*
D02*
G37*
G36*
X221000D02*
X217340D01*
Y256952D01*
X217624Y255894D01*
X218172Y254946D01*
X218946Y254172D01*
X219895Y253624D01*
X220952Y253341D01*
X221000D01*
Y257000D01*
D02*
G37*
G36*
X287769Y287350D02*
X287231D01*
X286735Y287144D01*
X286355Y286765D01*
X286150Y286268D01*
Y285732D01*
X286355Y285235D01*
X286633Y284958D01*
Y259823D01*
X275177Y248367D01*
X224901D01*
X224770Y248855D01*
X224308Y249655D01*
X223655Y250308D01*
X222855Y250770D01*
X221962Y251009D01*
X221038D01*
X220145Y250770D01*
X219345Y250308D01*
X218692Y249655D01*
X218230Y248855D01*
X217990Y247962D01*
Y247038D01*
X218230Y246145D01*
X218692Y245345D01*
X219345Y244692D01*
X220145Y244230D01*
X221038Y243990D01*
X221962D01*
X222855Y244230D01*
X223655Y244692D01*
X224308Y245345D01*
X224770Y246145D01*
X224901Y246633D01*
X275535D01*
X275867Y246699D01*
X276148Y246887D01*
X288113Y258852D01*
X288301Y259133D01*
X288367Y259465D01*
Y284958D01*
X288645Y285235D01*
X288850Y285732D01*
Y286268D01*
X288645Y286765D01*
X288265Y287144D01*
X287769Y287350D01*
D02*
G37*
G36*
X366540Y237100D02*
X366500D01*
Y233500D01*
X370100D01*
Y233540D01*
X369821Y234583D01*
X369281Y235518D01*
X368518Y236281D01*
X367583Y236821D01*
X366540Y237100D01*
D02*
G37*
G36*
X365500D02*
X365460D01*
X364417Y236821D01*
X363482Y236281D01*
X362719Y235518D01*
X362179Y234583D01*
X361900Y233540D01*
Y233500D01*
X365500D01*
Y237100D01*
D02*
G37*
G36*
X370100Y232500D02*
X366500D01*
Y228900D01*
X366540D01*
X367583Y229179D01*
X368518Y229719D01*
X369281Y230482D01*
X369821Y231417D01*
X370100Y232460D01*
Y232500D01*
D02*
G37*
G36*
X221962Y241009D02*
X221038D01*
X220145Y240770D01*
X219345Y240308D01*
X218692Y239655D01*
X218230Y238855D01*
X217990Y237962D01*
Y237038D01*
X218230Y236145D01*
X218692Y235345D01*
X219345Y234692D01*
X220145Y234230D01*
X220633Y234099D01*
Y224340D01*
X220168Y224215D01*
X219381Y223761D01*
X218739Y223119D01*
X218285Y222332D01*
X218050Y221454D01*
Y220546D01*
X218285Y219668D01*
X218739Y218881D01*
X219381Y218239D01*
X220168Y217785D01*
X221046Y217550D01*
X221954D01*
X222832Y217785D01*
X223619Y218239D01*
X224261Y218881D01*
X224715Y219668D01*
X224950Y220546D01*
Y221454D01*
X224788Y222062D01*
X228859Y226133D01*
X229500D01*
X229500Y226133D01*
X291141D01*
X294083Y223191D01*
Y164586D01*
X294149Y164254D01*
X294337Y163973D01*
X294923Y163387D01*
X295204Y163199D01*
X295536Y163133D01*
X296620D01*
Y161681D01*
X300469D01*
Y166319D01*
X296620D01*
Y164867D01*
X295895D01*
X295817Y164945D01*
Y222683D01*
X296228D01*
X296531Y222500D01*
Y193000D01*
X296641Y192732D01*
X296909Y192621D01*
X298047D01*
X298315Y192732D01*
X298347Y192810D01*
X298697Y192740D01*
Y190894D01*
X305303D01*
Y192740D01*
X305653Y192810D01*
X305685Y192732D01*
X305953Y192621D01*
X357500D01*
X357768Y192732D01*
X357879Y193000D01*
Y222500D01*
X357768Y222768D01*
X357500Y222879D01*
X297599D01*
X297455Y223229D01*
X299451Y225225D01*
X299632Y225150D01*
X300368D01*
X301048Y225432D01*
X301568Y225952D01*
X301850Y226632D01*
Y227368D01*
X301568Y228048D01*
X301048Y228568D01*
X300368Y228850D01*
X299632D01*
X298952Y228568D01*
X298432Y228048D01*
X298150Y227368D01*
Y226632D01*
X298225Y226451D01*
X296191Y224417D01*
X295309D01*
X292113Y227613D01*
X291832Y227801D01*
X291500Y227867D01*
X229500D01*
X229500Y227867D01*
X228500D01*
X228168Y227801D01*
X227887Y227613D01*
X223827Y223553D01*
X223619Y223761D01*
X222832Y224215D01*
X222367Y224340D01*
Y234099D01*
X222855Y234230D01*
X223655Y234692D01*
X224308Y235345D01*
X224770Y236145D01*
X225009Y237038D01*
Y237962D01*
X224770Y238855D01*
X224308Y239655D01*
X223655Y240308D01*
X222855Y240770D01*
X221962Y241009D01*
D02*
G37*
G36*
X225600Y215100D02*
X222000D01*
Y211500D01*
X225600D01*
Y215100D01*
D02*
G37*
G36*
X221000D02*
X217400D01*
Y211500D01*
X221000D01*
Y215100D01*
D02*
G37*
G36*
X381368Y216850D02*
X380632D01*
X379952Y216568D01*
X379432Y216048D01*
X379150Y215368D01*
Y214632D01*
X379432Y213952D01*
X379952Y213432D01*
X380133Y213357D01*
Y212330D01*
X378681D01*
Y208481D01*
X383318D01*
Y212330D01*
X381867D01*
Y213357D01*
X382048Y213432D01*
X382568Y213952D01*
X382850Y214632D01*
Y215368D01*
X382568Y216048D01*
X382048Y216568D01*
X381368Y216850D01*
D02*
G37*
G36*
X394868Y213350D02*
X394132D01*
X393452Y213068D01*
X392932Y212548D01*
X392650Y211868D01*
Y211132D01*
X392932Y210452D01*
X393452Y209932D01*
X394132Y209650D01*
X394868D01*
X395072Y209734D01*
X395419Y209387D01*
X395700Y209199D01*
X396031Y209133D01*
X397182D01*
Y208075D01*
X401819D01*
Y211925D01*
X397182D01*
Y210867D01*
X396619D01*
X396350Y211132D01*
Y211868D01*
X396068Y212548D01*
X395548Y213068D01*
X394868Y213350D01*
D02*
G37*
G36*
X225600Y210500D02*
X222000D01*
Y206900D01*
X225600D01*
Y210500D01*
D02*
G37*
G36*
X221000D02*
X217400D01*
Y206900D01*
X221000D01*
Y210500D01*
D02*
G37*
G36*
X387268Y215350D02*
X386732D01*
X386235Y215144D01*
X385856Y214765D01*
X385650Y214268D01*
Y213732D01*
X385856Y213235D01*
X386133Y212958D01*
Y204633D01*
X385532D01*
Y202591D01*
X384528D01*
X383318Y203801D01*
Y206425D01*
X378681D01*
Y202575D01*
X382093D01*
X383557Y201112D01*
X383838Y200924D01*
X384169Y200858D01*
X385532D01*
Y198815D01*
X388988D01*
Y204633D01*
X387867D01*
Y212958D01*
X388144Y213235D01*
X388350Y213732D01*
Y214268D01*
X388144Y214765D01*
X387765Y215144D01*
X387268Y215350D01*
D02*
G37*
G36*
X390268Y219850D02*
X389732D01*
X389235Y219644D01*
X388856Y219265D01*
X388650Y218769D01*
Y218232D01*
X388856Y217735D01*
X389133Y217458D01*
Y207646D01*
X389199Y207314D01*
X389387Y207033D01*
X393012Y203408D01*
Y198815D01*
X396468D01*
Y202519D01*
X396485Y202602D01*
X396703Y202917D01*
X397182D01*
Y202170D01*
X401819D01*
Y206019D01*
X397182D01*
Y204650D01*
X395618D01*
X395534Y204633D01*
X394238D01*
X390867Y208005D01*
Y217458D01*
X391144Y217735D01*
X391350Y218232D01*
Y218769D01*
X391144Y219265D01*
X390765Y219644D01*
X390268Y219850D01*
D02*
G37*
G36*
X291500Y224879D02*
X232000D01*
X231732Y224768D01*
X231621Y224500D01*
Y195867D01*
X224840D01*
X224715Y196332D01*
X224261Y197119D01*
X223619Y197761D01*
X222832Y198215D01*
X221954Y198450D01*
X221046D01*
X220168Y198215D01*
X219381Y197761D01*
X218739Y197119D01*
X218285Y196332D01*
X218050Y195454D01*
Y194546D01*
X218285Y193668D01*
X218739Y192881D01*
X219381Y192239D01*
X220168Y191785D01*
X221046Y191550D01*
X221954D01*
X222832Y191785D01*
X223619Y192239D01*
X224261Y192881D01*
X224715Y193668D01*
X224840Y194133D01*
X231950D01*
X232084Y193810D01*
X228387Y190113D01*
X228199Y189832D01*
X228133Y189500D01*
Y166086D01*
X228199Y165754D01*
X228387Y165473D01*
X228973Y164887D01*
X229254Y164699D01*
X229586Y164633D01*
X230670D01*
Y162681D01*
X234519D01*
Y167318D01*
X230670D01*
Y166367D01*
X229945D01*
X229867Y166445D01*
Y189141D01*
X232874Y192148D01*
X233197Y192014D01*
Y191394D01*
X239803D01*
Y193621D01*
X291500D01*
X291768Y193732D01*
X291879Y194000D01*
Y224500D01*
X291768Y224768D01*
X291500Y224879D01*
D02*
G37*
G36*
X393378Y195835D02*
X391500D01*
Y192276D01*
X390500D01*
Y195835D01*
X388622D01*
Y195185D01*
X385532D01*
Y192867D01*
X382643D01*
X382568Y193048D01*
X382048Y193568D01*
X381368Y193850D01*
X380632D01*
X379952Y193568D01*
X379432Y193048D01*
X379150Y192368D01*
Y191632D01*
X379432Y190952D01*
X379952Y190432D01*
X380632Y190150D01*
X381368D01*
X382048Y190432D01*
X382568Y190952D01*
X382643Y191133D01*
X385532D01*
Y189366D01*
X388407D01*
X388533Y189016D01*
X385574Y186058D01*
X384871D01*
X384794Y186109D01*
X384462Y186175D01*
X383885D01*
X383696Y186633D01*
X383133Y187196D01*
X382500Y187458D01*
Y185500D01*
Y183542D01*
X383133Y183805D01*
X383696Y184367D01*
X383727Y184442D01*
X384171D01*
X384248Y184391D01*
X384579Y184325D01*
X385933D01*
X386265Y184391D01*
X386546Y184579D01*
X389810Y187842D01*
X390133Y187708D01*
Y186806D01*
X389867Y186696D01*
X389304Y186133D01*
X389042Y185500D01*
X392958D01*
X392695Y186133D01*
X392133Y186696D01*
X391867Y186806D01*
Y187708D01*
X392190Y187842D01*
X392645Y187387D01*
X392926Y187199D01*
X393258Y187133D01*
X396641D01*
X396956Y186819D01*
X396811Y186469D01*
X395520D01*
Y184000D01*
X398095D01*
X400669D01*
Y185541D01*
X400993Y185675D01*
X402075Y184593D01*
Y181182D01*
X403133D01*
Y176359D01*
X402093Y175319D01*
X399075D01*
Y170682D01*
X402925D01*
Y173699D01*
X404613Y175387D01*
X404801Y175668D01*
X404867Y176000D01*
Y181182D01*
X405925D01*
Y185819D01*
X403301D01*
X398290Y190829D01*
X398009Y191017D01*
X397677Y191083D01*
X396468D01*
Y195185D01*
X393378D01*
Y195835D01*
D02*
G37*
G36*
X240453Y190776D02*
X237000D01*
Y187520D01*
X240453D01*
Y188500D01*
Y190776D01*
D02*
G37*
G36*
X236000D02*
X232547D01*
Y187520D01*
X236000D01*
Y190776D01*
D02*
G37*
G36*
X305953Y190276D02*
X302500D01*
Y187020D01*
X305953D01*
Y187500D01*
Y190276D01*
D02*
G37*
G36*
X301500D02*
X298047D01*
Y187500D01*
Y187020D01*
X301500D01*
Y190276D01*
D02*
G37*
G36*
X381500Y187458D02*
X380867Y187196D01*
X380305Y186633D01*
X380042Y186000D01*
X381500D01*
Y187458D01*
D02*
G37*
G36*
X225600Y189100D02*
X222000D01*
Y185500D01*
X225600D01*
Y189100D01*
D02*
G37*
G36*
X221000D02*
X217400D01*
Y185500D01*
X221000D01*
Y189100D01*
D02*
G37*
G36*
X381500Y185000D02*
X380042D01*
X380305Y184367D01*
X380867Y183805D01*
X381500Y183542D01*
Y185000D01*
D02*
G37*
G36*
X240453Y186520D02*
X237000D01*
Y183264D01*
X240453D01*
Y186520D01*
D02*
G37*
G36*
X236000D02*
X232547D01*
Y183264D01*
X236000D01*
Y186520D01*
D02*
G37*
G36*
X392958Y184500D02*
X391500D01*
Y183042D01*
X392133Y183305D01*
X392695Y183867D01*
X392958Y184500D01*
D02*
G37*
G36*
X390500D02*
X389042D01*
X389304Y183867D01*
X389867Y183305D01*
X390500Y183042D01*
Y184500D01*
D02*
G37*
G36*
X305953Y186020D02*
X302500D01*
Y182764D01*
X305953D01*
Y186020D01*
D02*
G37*
G36*
X301500D02*
X298047D01*
Y182764D01*
X301500D01*
Y186020D01*
D02*
G37*
G36*
X400669Y183000D02*
X398095D01*
X395520D01*
Y182896D01*
X395200Y182832D01*
X394919Y182644D01*
X393664Y181390D01*
X393500Y181458D01*
Y180000D01*
X394958D01*
X394890Y180164D01*
X395180Y180455D01*
X395520Y180532D01*
Y180532D01*
X395520Y180532D01*
X397133D01*
Y180500D01*
X397199Y180168D01*
X397387Y179887D01*
X398110Y179164D01*
X398042Y179000D01*
X401958D01*
X401695Y179633D01*
X401133Y180195D01*
X400917Y180285D01*
X400669Y180532D01*
Y183000D01*
D02*
G37*
G36*
X225600Y184500D02*
X222000D01*
Y180900D01*
X225600D01*
Y184500D01*
D02*
G37*
G36*
X221000D02*
X217400D01*
Y180900D01*
X221000D01*
Y184500D01*
D02*
G37*
G36*
X392500Y181458D02*
X391867Y181195D01*
X391304Y180633D01*
X391042Y180000D01*
X392500D01*
Y181458D01*
D02*
G37*
G36*
X394958Y179000D02*
X393500D01*
Y177542D01*
X394133Y177805D01*
X394695Y178367D01*
X394958Y179000D01*
D02*
G37*
G36*
X392500D02*
X391042D01*
X391304Y178367D01*
X391867Y177805D01*
X392500Y177542D01*
Y179000D01*
D02*
G37*
G36*
X401958Y178000D02*
X400500D01*
Y176542D01*
X401133Y176804D01*
X401695Y177367D01*
X401958Y178000D01*
D02*
G37*
G36*
X399500D02*
X398042D01*
X398305Y177367D01*
X398867Y176804D01*
X399500Y176542D01*
Y178000D01*
D02*
G37*
G36*
X250303Y184126D02*
X243697D01*
Y177914D01*
X250303D01*
Y178133D01*
X253227D01*
X253475Y177886D01*
X253475Y177550D01*
X253204Y177360D01*
X252825D01*
Y175760D01*
X258675D01*
Y177360D01*
X258296D01*
X258025Y177550D01*
X258025Y177710D01*
Y180450D01*
X253475D01*
Y179867D01*
X250303D01*
Y184126D01*
D02*
G37*
G36*
X315303Y183106D02*
X308697D01*
Y176894D01*
X315303D01*
Y177374D01*
X319053D01*
X319300Y177126D01*
X319300Y176790D01*
X319029Y176600D01*
X318650D01*
Y176500D01*
Y175000D01*
X324500D01*
Y176500D01*
Y176600D01*
X324121D01*
X323850Y176790D01*
X323850Y176950D01*
Y179690D01*
X319300D01*
Y179107D01*
X315303D01*
Y183106D01*
D02*
G37*
G36*
X397019Y175319D02*
X393170D01*
Y173867D01*
X391738D01*
X391663Y174048D01*
X391142Y174568D01*
X390462Y174850D01*
X389726D01*
X389047Y174568D01*
X388526Y174048D01*
X388245Y173368D01*
Y172632D01*
X388526Y171952D01*
X389047Y171432D01*
X389726Y171150D01*
X390462D01*
X391142Y171432D01*
X391663Y171952D01*
X391738Y172133D01*
X393170D01*
Y170682D01*
X394162D01*
X394200Y170332D01*
X391927Y168058D01*
X391653D01*
X391142Y168568D01*
X390462Y168850D01*
X389726D01*
X389047Y168568D01*
X388526Y168048D01*
X388245Y167368D01*
Y166632D01*
X388526Y165952D01*
X389047Y165432D01*
X389726Y165150D01*
X390462D01*
X391142Y165432D01*
X391663Y165952D01*
X391817Y166325D01*
X392286D01*
X392618Y166391D01*
X392899Y166578D01*
X395707Y169387D01*
X395895Y169668D01*
X395961Y170000D01*
Y170682D01*
X397019D01*
Y175319D01*
D02*
G37*
G36*
X250303Y191606D02*
X243697D01*
Y185394D01*
X250303D01*
Y187633D01*
X255699D01*
X259665Y183667D01*
X259946Y183479D01*
X260278Y183413D01*
X264121D01*
Y181100D01*
X264232Y180832D01*
X264310Y180800D01*
X264240Y180450D01*
X264225D01*
Y177550D01*
X268775D01*
Y177550D01*
X269118Y177622D01*
X269157Y177268D01*
X269046Y177000D01*
Y176900D01*
X268775Y176710D01*
X264225D01*
Y173810D01*
X268775D01*
X269046Y173619D01*
Y173500D01*
X269157Y173232D01*
X269425Y173121D01*
X270343D01*
X270755Y172710D01*
X270621Y172386D01*
X268775D01*
Y172970D01*
X264225D01*
Y170070D01*
X268775D01*
Y170653D01*
X272697D01*
Y167134D01*
X279303D01*
Y170240D01*
X279653Y170310D01*
X279685Y170232D01*
X279953Y170121D01*
X281547D01*
X281815Y170232D01*
X281847Y170310D01*
X282197Y170240D01*
Y167134D01*
X288803D01*
Y170240D01*
X289153Y170310D01*
X289185Y170232D01*
X289453Y170121D01*
X292500D01*
X292768Y170232D01*
X292879Y170500D01*
Y176000D01*
X292768Y176268D01*
X291768Y177268D01*
X291500Y177379D01*
X279830D01*
X279760Y177729D01*
X279768Y177732D01*
X279879Y178000D01*
Y182752D01*
X279768Y183020D01*
X279685Y183054D01*
X279681Y183402D01*
X279681Y183402D01*
X279681Y183402D01*
Y190401D01*
X270319D01*
Y185147D01*
X260637D01*
X256671Y189113D01*
X256389Y189301D01*
X256058Y189367D01*
X250303D01*
Y191606D01*
D02*
G37*
G36*
X248969Y173980D02*
X246500D01*
Y171906D01*
X248969D01*
Y173980D01*
D02*
G37*
G36*
X245500D02*
X243032D01*
Y171906D01*
X245500D01*
Y173980D01*
D02*
G37*
G36*
X315303Y190586D02*
X308697D01*
Y184374D01*
X315303D01*
Y186633D01*
X321169D01*
X321888Y185914D01*
X321945Y185829D01*
X324607Y183167D01*
X324888Y182979D01*
X325220Y182913D01*
X330071D01*
Y180340D01*
X330182Y180072D01*
X330260Y180040D01*
X330190Y179690D01*
X330050D01*
Y176790D01*
X334600D01*
X334600Y176790D01*
Y176790D01*
X334860Y176636D01*
X334982Y176321D01*
X334889Y176097D01*
X334600Y175950D01*
X330050D01*
Y173050D01*
X334600D01*
Y173050D01*
X334900Y172930D01*
X334982Y172732D01*
X335250Y172621D01*
X336293D01*
X336964Y171950D01*
X336830Y171626D01*
X334600D01*
Y172210D01*
X330050D01*
Y169310D01*
X334600D01*
Y169893D01*
X340197D01*
Y166894D01*
X346803D01*
Y169740D01*
X347153Y169810D01*
X347185Y169732D01*
X347453Y169621D01*
X349547D01*
X349815Y169732D01*
X349847Y169810D01*
X350197Y169740D01*
Y166894D01*
X356803D01*
Y169740D01*
X357153Y169810D01*
X357185Y169732D01*
X357453Y169621D01*
X357950D01*
X358218Y169732D01*
X358329Y170000D01*
Y176000D01*
X358218Y176268D01*
X358165Y176321D01*
X357897Y176432D01*
X356685D01*
X356548Y176568D01*
X355868Y176850D01*
X355132D01*
X354452Y176568D01*
X354315Y176432D01*
X345875D01*
X345738Y176782D01*
X345829Y177000D01*
Y182252D01*
X345718Y182520D01*
X345640Y182552D01*
X345681Y182902D01*
X345681D01*
Y189901D01*
X336319D01*
Y184647D01*
X325579D01*
X323227Y186999D01*
X323171Y187083D01*
X322141Y188113D01*
X321860Y188301D01*
X321528Y188367D01*
X315303D01*
Y190586D01*
D02*
G37*
G36*
X314918Y172480D02*
X312450D01*
Y170405D01*
X314918D01*
Y172480D01*
D02*
G37*
G36*
X311450D02*
X308981D01*
Y170405D01*
X311450D01*
Y172480D01*
D02*
G37*
G36*
X248969Y170905D02*
X246500D01*
Y168831D01*
X248969D01*
Y170905D01*
D02*
G37*
G36*
X245500D02*
X243032D01*
Y168831D01*
X245500D01*
Y170905D01*
D02*
G37*
G36*
X423098Y172543D02*
X423000D01*
Y168500D01*
X427043D01*
Y168598D01*
X426734Y169754D01*
X426135Y170790D01*
X425290Y171635D01*
X424254Y172234D01*
X423098Y172543D01*
D02*
G37*
G36*
X422000D02*
X421902D01*
X420746Y172234D01*
X419710Y171635D01*
X418864Y170790D01*
X418266Y169754D01*
X417957Y168598D01*
Y168500D01*
X422000D01*
Y172543D01*
D02*
G37*
G36*
X314918Y169405D02*
X312450D01*
Y167331D01*
X314918D01*
Y167350D01*
Y169405D01*
D02*
G37*
G36*
X311450D02*
X308981D01*
Y167331D01*
X311450D01*
Y169405D01*
D02*
G37*
G36*
X258675Y174760D02*
X252825D01*
Y173500D01*
Y173160D01*
X253204D01*
X253475Y172970D01*
X253475Y172810D01*
Y171295D01*
X249046Y166867D01*
X248319D01*
Y167425D01*
X243682D01*
Y165867D01*
X240425D01*
Y167318D01*
X236575D01*
Y162681D01*
X240425D01*
Y164133D01*
X243682D01*
Y163575D01*
X248319D01*
Y165133D01*
X249405D01*
X249737Y165199D01*
X250018Y165387D01*
X254701Y170070D01*
X258025D01*
Y172810D01*
X258025Y172970D01*
X258296Y173160D01*
X258675D01*
Y174760D01*
D02*
G37*
G36*
X221954Y172450D02*
X221046D01*
X220168Y172215D01*
X219381Y171761D01*
X218739Y171119D01*
X218285Y170332D01*
X218050Y169454D01*
Y168546D01*
X218285Y167668D01*
X218739Y166881D01*
X219381Y166239D01*
X220168Y165785D01*
X221046Y165550D01*
X221954D01*
X222832Y165785D01*
X223619Y166239D01*
X224261Y166881D01*
X224715Y167668D01*
X224950Y168546D01*
Y169454D01*
X224715Y170332D01*
X224261Y171119D01*
X223619Y171761D01*
X222832Y172215D01*
X221954Y172450D01*
D02*
G37*
G36*
X324500Y174000D02*
X318650D01*
Y172500D01*
Y172400D01*
X319029D01*
X319300Y172210D01*
X319300Y172050D01*
Y170536D01*
X315950Y167185D01*
X315764Y167000D01*
X314706Y165942D01*
X313025D01*
X312941Y165925D01*
X309631D01*
Y164867D01*
X306375D01*
Y166319D01*
X302525D01*
Y161681D01*
X306375D01*
Y163133D01*
X309631D01*
Y162075D01*
X314268D01*
Y164208D01*
X315065D01*
X315397Y164274D01*
X315678Y164462D01*
X320526Y169310D01*
X323850D01*
Y172050D01*
X323850Y172210D01*
X324121Y172400D01*
X324500D01*
Y172500D01*
Y174000D01*
D02*
G37*
G36*
X427043Y167500D02*
X423000D01*
Y163457D01*
X423098D01*
X424254Y163766D01*
X425290Y164365D01*
X426135Y165210D01*
X426734Y166246D01*
X427043Y167402D01*
Y167500D01*
D02*
G37*
G36*
X422000D02*
X417957D01*
Y167402D01*
X418266Y166246D01*
X418864Y165210D01*
X419710Y164365D01*
X420746Y163766D01*
X421902Y163457D01*
X422000D01*
Y167500D01*
D02*
G37*
G36*
X289453Y166516D02*
X286000D01*
Y163260D01*
X289453D01*
Y166516D01*
D02*
G37*
G36*
X279953D02*
X276500D01*
Y163260D01*
X279953D01*
Y166516D01*
D02*
G37*
G36*
X275500D02*
X272047D01*
Y163260D01*
X275500D01*
Y166516D01*
D02*
G37*
G36*
X285000D02*
X281547D01*
Y163260D01*
X285000D01*
Y166516D01*
D02*
G37*
G36*
X357453Y166276D02*
X354000D01*
Y163020D01*
X357453D01*
Y166276D01*
D02*
G37*
G36*
X347453D02*
X344000D01*
Y163020D01*
X347453D01*
Y166276D01*
D02*
G37*
G36*
X353000D02*
X349547D01*
Y164000D01*
Y163020D01*
X353000D01*
Y166276D01*
D02*
G37*
G36*
X343000D02*
X339547D01*
Y164000D01*
Y163020D01*
X343000D01*
Y166276D01*
D02*
G37*
G36*
X225600Y163100D02*
X222000D01*
Y159500D01*
X225600D01*
Y163100D01*
D02*
G37*
G36*
X221000D02*
X217400D01*
Y159500D01*
X221000D01*
Y163100D01*
D02*
G37*
G36*
X289453Y162260D02*
X286000D01*
Y159004D01*
X289453D01*
Y162260D01*
D02*
G37*
G36*
X285000D02*
X281547D01*
Y159004D01*
X285000D01*
Y162260D01*
D02*
G37*
G36*
X279953D02*
X276500D01*
Y159004D01*
X279953D01*
Y162260D01*
D02*
G37*
G36*
X275500D02*
X272047D01*
Y159004D01*
X275500D01*
Y162260D01*
D02*
G37*
G36*
X357453Y162020D02*
X354000D01*
Y158764D01*
X357453D01*
Y162020D01*
D02*
G37*
G36*
X353000D02*
X349547D01*
Y158764D01*
X353000D01*
Y162020D01*
D02*
G37*
G36*
X347453D02*
X344000D01*
Y158764D01*
X347453D01*
Y162020D01*
D02*
G37*
G36*
X343000D02*
X339547D01*
Y158764D01*
X343000D01*
Y162020D01*
D02*
G37*
G36*
X225600Y158500D02*
X222000D01*
Y154900D01*
X225600D01*
Y158500D01*
D02*
G37*
G36*
X221000D02*
X217400D01*
Y154900D01*
X221000D01*
Y158500D01*
D02*
G37*
G36*
X426393Y161893D02*
X418607D01*
Y154107D01*
X426393D01*
Y161893D01*
D02*
G37*
%LPD*%
G36*
X182449Y311037D02*
X182730Y310849D01*
X183062Y310783D01*
X303815D01*
X304146Y310849D01*
X304428Y311037D01*
X304650Y311259D01*
X308314D01*
X308383Y310909D01*
X307867Y310696D01*
X307305Y310133D01*
X307042Y309500D01*
X309000D01*
Y309000D01*
X309500D01*
Y307042D01*
X310133Y307305D01*
X310151Y307322D01*
X315246D01*
X315316Y306972D01*
X315108Y306833D01*
X314164Y305890D01*
X314000Y305958D01*
Y304500D01*
X315458D01*
X315390Y304664D01*
X316079Y305354D01*
X316700D01*
Y304671D01*
X317350D01*
Y303534D01*
X317350Y303352D01*
X317350Y303002D01*
Y301565D01*
X317350Y301383D01*
X317084Y301182D01*
X181445D01*
X181367Y301260D01*
Y311625D01*
X181717Y311770D01*
X182449Y311037D01*
D02*
G37*
%LPC*%
G36*
X308500Y308500D02*
X307042D01*
X307305Y307867D01*
X307867Y307305D01*
X308500Y307042D01*
Y308500D01*
D02*
G37*
G36*
X313000Y305958D02*
X312367Y305696D01*
X311805Y305133D01*
X311542Y304500D01*
X313000D01*
Y305958D01*
D02*
G37*
G36*
X315458Y303500D02*
X314000D01*
Y302042D01*
X314633Y302305D01*
X315195Y302867D01*
X315458Y303500D01*
D02*
G37*
G36*
X313000D02*
X311542D01*
X311805Y302867D01*
X312367Y302305D01*
X313000Y302042D01*
Y303500D01*
D02*
G37*
%LPD*%
G36*
X357500Y193000D02*
X305953D01*
Y193500D01*
X302000D01*
X298047D01*
Y193000D01*
X296909D01*
Y222500D01*
X357500D01*
Y193000D01*
D02*
G37*
%LPC*%
G36*
X346331Y215748D02*
X341500D01*
Y212098D01*
X346331D01*
Y215748D01*
D02*
G37*
G36*
X340500D02*
X335669D01*
Y212098D01*
X340500D01*
Y215748D01*
D02*
G37*
G36*
X346331Y211098D02*
X341500D01*
Y207449D01*
X346331D01*
Y211098D01*
D02*
G37*
G36*
X340500D02*
X335669D01*
Y207449D01*
X340500D01*
Y211098D01*
D02*
G37*
G36*
X305953Y197756D02*
X302500D01*
Y194500D01*
X305953D01*
Y197756D01*
D02*
G37*
G36*
X301500D02*
X298047D01*
Y194500D01*
X301500D01*
Y197756D01*
D02*
G37*
%LPD*%
G36*
X291500Y194000D02*
X240453D01*
D01*
X236500D01*
Y194500D01*
X236000D01*
Y198256D01*
X232547D01*
Y195867D01*
X232000D01*
Y224500D01*
X291500D01*
Y194000D01*
D02*
G37*
%LPC*%
G36*
X280331Y216248D02*
X275500D01*
Y212598D01*
X280331D01*
Y216248D01*
D02*
G37*
G36*
X274500D02*
X269669D01*
Y212598D01*
X274500D01*
Y216248D01*
D02*
G37*
G36*
X280331Y211598D02*
X275500D01*
Y207949D01*
X280331D01*
Y211598D01*
D02*
G37*
G36*
X274500D02*
X269669D01*
Y207949D01*
X274500D01*
Y211598D01*
D02*
G37*
G36*
X240453Y198256D02*
X237000D01*
Y195000D01*
X240453D01*
Y198256D01*
D02*
G37*
%LPD*%
G36*
X275500Y182752D02*
X279500D01*
Y178000D01*
X269425D01*
Y178500D01*
X266500D01*
Y179000D01*
X266000D01*
Y181100D01*
X264500D01*
Y183413D01*
X269669D01*
Y182752D01*
X274500D01*
Y186902D01*
X275500D01*
Y182752D01*
D02*
G37*
G36*
X292500Y176000D02*
Y170500D01*
X289453D01*
Y173996D01*
X286000D01*
Y170240D01*
X285000D01*
Y173996D01*
X281547D01*
Y170500D01*
X279953D01*
Y173996D01*
X276500D01*
Y170240D01*
X275500D01*
Y173996D01*
X272047D01*
Y172386D01*
X271614D01*
X270500Y173500D01*
X269425D01*
Y174760D01*
X266500D01*
Y175760D01*
X269425D01*
Y177000D01*
X291500D01*
X292500Y176000D01*
D02*
G37*
%LPC*%
G36*
X269425Y181100D02*
X267000D01*
Y179500D01*
X269425D01*
Y181100D01*
D02*
G37*
%LPD*%
G36*
X341500Y182252D02*
X345450D01*
Y177000D01*
X335250D01*
Y177740D01*
X332325D01*
Y178240D01*
X331825D01*
Y180340D01*
X330450D01*
Y182913D01*
X335669D01*
Y182252D01*
X340500D01*
Y186402D01*
X341500D01*
Y182252D01*
D02*
G37*
G36*
X357950Y176000D02*
Y170000D01*
X357453D01*
Y173756D01*
X354000D01*
Y170000D01*
X353000D01*
Y173756D01*
X349547D01*
Y170000D01*
X347453D01*
Y173756D01*
X344000D01*
Y170000D01*
X343000D01*
Y173756D01*
X339547D01*
Y171626D01*
X337824D01*
X336450Y173000D01*
X335250D01*
Y174000D01*
X332325D01*
Y175000D01*
X335250D01*
Y176053D01*
X357897D01*
X357950Y176000D01*
D02*
G37*
%LPC*%
G36*
X335250Y180340D02*
X332825D01*
Y178740D01*
X335250D01*
Y180340D01*
D02*
G37*
%LPD*%
D14*
X208313Y357791D02*
G03*
X213715Y359717I1187J5209D01*
G01*
X215287Y359715D02*
G03*
X213715Y359717I-787J-618D01*
G01*
X215287Y359715D02*
G03*
X224816Y362467I4213J3285D01*
G01*
X418393Y191417D02*
G03*
X418257Y192824I-772J636D01*
G01*
X418393Y191417D02*
G03*
X420503Y183045I4107J-3417D01*
G01*
X416190Y200230D02*
G03*
X418257Y192824I6310J-2230D01*
G01*
X417974Y200838D02*
G03*
X421967Y192684I4526J-2838D01*
G01*
X245293Y359707D02*
G03*
X246207Y358793I4207J3293D01*
G01*
X320650Y304302D02*
X323952D01*
X324787Y305137D01*
Y305287D02*
X327500Y308000D01*
X324787Y305137D02*
Y305287D01*
X375010Y337010D02*
X377635Y339635D01*
X381350D01*
X360500Y295000D02*
X365667D01*
X368667Y292000D01*
X367828Y297727D02*
X372604Y292952D01*
X368667Y289650D02*
Y292000D01*
Y289650D02*
X368717Y289600D01*
X367828Y297727D02*
Y297745D01*
X320600Y304252D02*
X320650Y304302D01*
X293500Y315500D02*
X294000Y316000D01*
X315266D01*
X291500Y315500D02*
X293500D01*
X314986Y323937D02*
X320600D01*
X261620Y340224D02*
X282344Y319500D01*
X314889D01*
X315357Y318000D02*
X316413Y319055D01*
X314889Y319500D02*
X316413Y321024D01*
X313549Y322500D02*
X314986Y323937D01*
X315266Y316000D02*
X317248Y317982D01*
X313500Y322500D02*
X313549D01*
X271199Y318000D02*
X315357D01*
X261348Y327852D02*
X271199Y318000D01*
X316413Y319055D02*
Y319115D01*
X317248Y319950D01*
X419480Y333500D02*
X425500D01*
X421736Y327034D02*
X422500Y326271D01*
X421736Y327034D02*
Y331047D01*
X422500Y326000D02*
Y326271D01*
X419480Y333303D02*
X421736Y331047D01*
X419480Y333500D02*
X421000Y335020D01*
Y340000D01*
X415437Y337427D02*
X415524Y337514D01*
Y344508D01*
X414851Y335953D02*
X415437Y336539D01*
X413500Y335197D02*
X414256Y335953D01*
X415524Y344508D02*
X421658Y350642D01*
X415437Y336539D02*
Y337427D01*
X414256Y335953D02*
X414851D01*
X413500Y333000D02*
Y335197D01*
X406500Y324429D02*
Y335823D01*
X411480Y340803D01*
X340074Y346213D02*
X388287D01*
X404776Y329724D01*
X339239Y347048D02*
X340074Y346213D01*
X374622Y350400D02*
Y355878D01*
X371000Y359500D02*
X374622Y355878D01*
X341691Y361042D02*
X348981Y353752D01*
X341500Y362000D02*
X341691Y361809D01*
Y361042D02*
Y361809D01*
X348981Y350450D02*
Y353752D01*
X329346Y350400D02*
Y356347D01*
X329500Y356500D01*
X312569Y325905D02*
X320600D01*
X311000Y327951D02*
Y328000D01*
Y327951D02*
X311862Y327089D01*
Y326613D02*
X312569Y325905D01*
X311862Y326613D02*
Y327089D01*
X317248Y317982D02*
X320550D01*
X320600Y318032D01*
X317248Y319950D02*
X320550D01*
X316413Y321083D02*
X317248Y321919D01*
X320550D01*
X316413Y321024D02*
Y321083D01*
X320550Y321919D02*
X320600Y321969D01*
X183062Y311650D02*
X303815D01*
X304291Y312126D01*
X320600D01*
X183500Y314549D02*
X185049Y313000D01*
X304350Y314094D02*
X320600D01*
X185049Y313000D02*
X303256D01*
X182000Y312712D02*
X183062Y311650D01*
X320550Y319950D02*
X320600Y320000D01*
X303256Y313000D02*
X304350Y314094D01*
X374451Y343622D02*
X381400D01*
X374041Y343213D02*
X374451Y343622D01*
X373500Y343213D02*
X374041D01*
X339239Y347048D02*
Y350350D01*
X339189Y350400D02*
X339239Y350350D01*
X327378Y346000D02*
Y350400D01*
X329000Y344000D02*
Y344378D01*
X327378Y346000D02*
X329000Y344378D01*
X332617Y344883D02*
X334617D01*
X331315Y346185D02*
X332617Y344883D01*
X334617D02*
X335000Y344500D01*
X331315Y346185D02*
Y350400D01*
X323952Y318081D02*
X325014Y319144D01*
Y372414D02*
X325600Y373000D01*
X325014Y319144D02*
Y372414D01*
X275535Y247500D02*
X287500Y259465D01*
X221500Y247500D02*
X275535D01*
X287500Y259465D02*
Y286000D01*
X261348Y330262D02*
X261446Y330361D01*
X261348Y327852D02*
Y330262D01*
X416500Y316500D02*
Y324429D01*
X390850Y368358D02*
X391000Y368209D01*
Y362500D02*
Y368209D01*
X390850Y368358D02*
X396871D01*
X397229Y368000D02*
X397500D01*
X396871Y368358D02*
X397229Y368000D01*
X422008Y368500D02*
X422150Y368358D01*
X416000Y368500D02*
X422008D01*
X422000Y368209D02*
X422150Y368358D01*
X422000Y363000D02*
Y368209D01*
X397229Y352000D02*
X397500D01*
X390850Y350642D02*
X395871D01*
X397229Y352000D01*
X404000Y341000D02*
Y346229D01*
X405000Y347229D02*
Y347500D01*
X404000Y346229D02*
X405000Y347229D01*
X404776Y326153D02*
Y329724D01*
Y326153D02*
X406500Y324429D01*
X417000Y287492D02*
X423309Y281184D01*
Y280691D02*
Y281184D01*
Y280691D02*
X423500Y280500D01*
X416500Y287992D02*
X417000Y287492D01*
X416500Y280500D02*
Y286992D01*
X417000Y287492D01*
X404776Y282776D02*
Y288846D01*
X406500Y290571D01*
X402500Y280500D02*
X404776Y282776D01*
X408224Y282046D02*
X409500Y280771D01*
X408224Y282046D02*
Y288000D01*
X409500Y280500D02*
Y280771D01*
X294950Y223550D02*
X296550D01*
X300000Y227000D01*
X394531Y211500D02*
X396031Y210000D01*
X394500Y211500D02*
X394531D01*
X396031Y210000D02*
X399500D01*
X381000Y210405D02*
Y215000D01*
X391000Y185000D02*
Y192276D01*
X384462Y185309D02*
X384579Y185191D01*
X385933D01*
X382000Y185500D02*
X382191Y185309D01*
X384462D01*
X385933Y185191D02*
X390122Y189380D01*
X381000Y192000D02*
X386984D01*
X387260Y192276D01*
X397020Y182032D02*
X398095Y183106D01*
X395532Y182032D02*
X397020D01*
X393000Y179500D02*
X395532Y182032D01*
X398095Y183106D02*
Y183500D01*
X398000Y180500D02*
X400000Y178500D01*
X398000Y180500D02*
Y183405D01*
X398095Y183500D01*
X401000Y173000D02*
X404000Y176000D01*
X392286Y167191D02*
X395094Y170000D01*
X390286Y167191D02*
X392286D01*
X390094Y167000D02*
X390286Y167191D01*
X390094Y173000D02*
X394701D01*
X395094Y170000D02*
Y172606D01*
X372604Y289650D02*
X372654Y289600D01*
X372604Y289650D02*
Y292952D01*
X329346Y289600D02*
Y295105D01*
X328000Y296451D02*
X329346Y295105D01*
X328000Y296451D02*
Y296500D01*
X313771Y333500D02*
X314050Y333780D01*
X320600D01*
X313500Y333500D02*
X313771D01*
X309860Y308189D02*
X320600D01*
X309049Y309000D02*
X309860Y308189D01*
X309000Y309000D02*
X309049D01*
X313500Y304000D02*
X315721Y306221D01*
X320600D01*
X322149Y289600D02*
X327378D01*
X322049Y289500D02*
X322149Y289600D01*
X322000Y289500D02*
X322049D01*
X366748Y282752D02*
Y289600D01*
Y282752D02*
X368500Y281000D01*
X370685Y284315D02*
X371500Y283500D01*
X377000D01*
X370685Y284315D02*
Y289600D01*
X387797Y341653D02*
X387951Y341500D01*
X381400Y341653D02*
X387797D01*
X387951Y341500D02*
X388000D01*
X374672Y289650D02*
Y290000D01*
X378951D02*
X379951Y291000D01*
X374672Y290000D02*
X378951D01*
X374622Y289600D02*
X374672Y289650D01*
X379951Y291000D02*
X380000D01*
X404000Y176000D02*
Y183500D01*
X394701Y173000D02*
X395094Y172606D01*
X222000Y220500D02*
X228500Y227000D01*
X221500Y221000D02*
Y237500D01*
X327378Y289600D02*
Y291950D01*
X227500Y283500D02*
X280000D01*
X291500Y295000D01*
X221500Y277500D02*
X227500Y283500D01*
X404000Y341000D02*
Y341197D01*
X421658Y350642D02*
X422150D01*
X411480Y340803D02*
Y341000D01*
X398500Y345000D02*
X398535Y344965D01*
X400232D02*
X404000Y341197D01*
X398535Y344965D02*
X400232D01*
X391317Y331553D02*
Y332683D01*
X397500Y263000D02*
Y319925D01*
X399000Y271500D02*
Y320335D01*
X381450Y331761D02*
X385664D01*
X391317Y331553D02*
X391435Y331435D01*
X385605Y333730D02*
X399000Y320335D01*
X381450Y333730D02*
X385605D01*
X385664Y331761D02*
X397500Y319925D01*
X386333Y337667D02*
X391317Y332683D01*
X399299Y373000D02*
X421658Y350642D01*
X325600Y373000D02*
X399299D01*
X374549Y296500D02*
X374671Y296378D01*
X374500Y296500D02*
X374549D01*
X374671Y296378D02*
X381400D01*
X381350Y339635D02*
X381400Y339685D01*
X320650Y318081D02*
X323952D01*
X225056Y362707D02*
X225349Y363000D01*
X208205Y357791D02*
X208313D01*
X225349Y363000D02*
X229500D01*
X224816Y362467D02*
X225056Y362707D01*
X183500Y333500D02*
X207791Y357791D01*
X208205D01*
X183500Y314549D02*
Y333500D01*
X181086Y300315D02*
X320600D01*
X180500Y300901D02*
X181086Y300315D01*
X276000Y287500D02*
X282000Y293500D01*
X221500Y287500D02*
X276000D01*
X267283Y337717D02*
X320600D01*
X246207Y358793D02*
X267283Y337717D01*
X248414Y336622D02*
X249000Y336036D01*
X261430Y334000D02*
Y335451D01*
X249000Y336036D02*
X260844D01*
X245823Y336622D02*
X248414D01*
X260844Y336036D02*
X261430Y335451D01*
X244201Y335000D02*
X245823Y336622D01*
X182000Y312712D02*
Y335500D01*
X209500Y363000D01*
X180500Y300901D02*
Y344000D01*
X199500Y363000D01*
X226000Y272000D02*
X277500D01*
X221500Y267500D02*
X226000Y272000D01*
X390000Y276000D02*
Y295017D01*
Y276000D02*
X390018Y275982D01*
X272815Y339685D02*
X320600D01*
X249500Y363000D02*
X272815Y339685D01*
X387000Y271500D02*
Y280500D01*
X362811Y289600D02*
X362861Y289550D01*
Y283639D02*
Y289550D01*
Y283639D02*
X363000Y283500D01*
X384752Y300265D02*
X390000Y295017D01*
X387000Y280500D02*
Y296049D01*
X399000Y271500D02*
X422500Y248000D01*
X396000Y254500D02*
X422500Y228000D01*
X397500Y263000D02*
X422500Y238000D01*
X396000Y254500D02*
Y319500D01*
X394500Y246000D02*
X422500Y218000D01*
X389563Y323937D02*
X394500Y319000D01*
X385707Y329792D02*
X396000Y319500D01*
X394500Y246000D02*
Y319000D01*
X393000Y237500D02*
Y318500D01*
X381400Y321969D02*
X389531D01*
X393000Y318500D01*
X381400Y323937D02*
X389563D01*
X381450Y329792D02*
X385707D01*
X229000Y189500D02*
X234500Y195000D01*
X398095Y183500D02*
Y186906D01*
X397000Y188000D02*
X398095Y186906D01*
X393258Y188000D02*
X397000D01*
X391878Y189380D02*
X393258Y188000D01*
X381000Y204500D02*
X381394D01*
X384169Y201724D02*
X387260D01*
X381394Y204500D02*
X384169Y201724D01*
X387000Y201984D02*
X387260Y201724D01*
X387000Y201984D02*
Y214000D01*
X394740Y202876D02*
Y202906D01*
Y201724D02*
X395618Y202602D01*
X390000Y207646D02*
Y218500D01*
X394500Y225000D02*
X417974Y201526D01*
X335252Y254910D02*
X365162Y225000D01*
X394500D01*
X393500Y223500D02*
X416190Y200810D01*
X365453Y226618D02*
X395382D01*
X333283Y254969D02*
X364753Y223500D01*
X337221Y254850D02*
X365453Y226618D01*
X364753Y223500D02*
X393500D01*
X395382Y226618D02*
X422500Y199500D01*
X390000Y207646D02*
X394740Y202906D01*
X384752Y298296D02*
X387000Y296049D01*
X394740Y202876D02*
Y202906D01*
Y201724D02*
Y202876D01*
Y202906D02*
X395618Y203783D01*
X399189D01*
X399500Y204095D01*
X416190Y200396D02*
Y200810D01*
X420641Y182907D02*
X420934Y182614D01*
X420503Y183045D02*
X420641Y182907D01*
X416190Y200230D02*
Y200396D01*
X420934Y181213D02*
Y182614D01*
Y181213D02*
X422500Y179647D01*
X422207Y192444D02*
X422500Y192151D01*
X421967Y192684D02*
X422207Y192444D01*
X417974Y201112D02*
Y201526D01*
X422500Y188000D02*
Y192151D01*
X417974Y200838D02*
Y201112D01*
X422500Y178000D02*
Y179647D01*
Y198000D02*
Y199500D01*
X349031Y259968D02*
Y289600D01*
Y259968D02*
X366000Y243000D01*
X351000Y268000D02*
X366000Y253000D01*
X351000Y268000D02*
Y289600D01*
X337221Y254850D02*
Y289600D01*
X335252Y254910D02*
Y289600D01*
X333283Y254969D02*
Y289600D01*
X342740Y170760D02*
X343500Y170000D01*
X332325Y170760D02*
X342740D01*
X204677Y337122D02*
X206799Y335000D01*
X312000Y187500D02*
X321528D01*
X322558Y186470D01*
Y186442D02*
Y186470D01*
Y186442D02*
X325220Y183780D01*
X339280D01*
X341500Y186000D01*
X313760Y178240D02*
X321575D01*
X312000Y180000D02*
X313760Y178240D01*
X294950Y164586D02*
Y223550D01*
X291500Y227000D02*
X294950Y223550D01*
X249020Y179000D02*
X255750D01*
X247000Y181020D02*
X249020Y179000D01*
X256058Y188500D02*
X260278Y184280D01*
X247000Y188500D02*
X256058D01*
X381450Y337667D02*
X386333D01*
X221500Y195000D02*
X234500D01*
X229500Y227000D02*
X229500Y227000D01*
X228500Y227000D02*
X229500D01*
X229500Y227000D02*
X291500D01*
X390122Y189380D02*
Y191398D01*
X229000Y166086D02*
X229586Y165500D01*
X229000Y166086D02*
Y189500D01*
X229586Y165500D02*
X232095D01*
X416500Y287992D02*
Y290571D01*
X406500Y289724D02*
X408224Y288000D01*
X406500Y289724D02*
Y290571D01*
X391878Y189380D02*
Y191398D01*
X391000Y192276D02*
X391878Y191398D01*
X390122D02*
X391000Y192276D01*
X260278Y184280D02*
X272378D01*
X275000Y186902D01*
X195439Y340224D02*
X261620D01*
X239500Y363000D02*
X242000D01*
X245293Y359707D01*
X381400Y337717D02*
X381450Y337667D01*
X348981Y350450D02*
X349031Y350400D01*
X393000Y237500D02*
X422500Y208000D01*
X381400Y333780D02*
X381450Y333730D01*
X381400Y331811D02*
X381450Y331761D01*
X381400Y329842D02*
X381450Y329792D01*
X381400Y300315D02*
X381450Y300265D01*
X384752D01*
X381450Y298296D02*
X384752D01*
X381400Y298346D02*
X381450Y298296D01*
X194135Y338920D02*
X195439Y340224D01*
X194135Y338717D02*
Y338920D01*
X192039Y336622D02*
X194135Y338717D01*
X192000Y336622D02*
X192039D01*
X204799Y333000D02*
X206799Y335000D01*
X192000Y333000D02*
X204799D01*
X395618Y190217D02*
X397677D01*
X404000Y183500D02*
Y183894D01*
X394740Y191095D02*
Y192276D01*
Y191095D02*
X395618Y190217D01*
X397677D02*
X404000Y183894D01*
X311950Y164000D02*
X313025Y165075D01*
X315065D02*
X320750Y170760D01*
X313025Y165075D02*
X315065D01*
X320750Y170760D02*
X321575D01*
X295536Y164000D02*
X298545D01*
X294950Y164586D02*
X295536Y164000D01*
X304450D02*
X311950D01*
X259500Y363000D02*
X280847Y341653D01*
X320600D01*
X288878Y343622D02*
X320600D01*
X269500Y363000D02*
X288878Y343622D01*
X232095Y165500D02*
X232594Y165000D01*
X245500D02*
X246000Y165500D01*
X238500Y165000D02*
X245500D01*
X246000Y165500D02*
X246500Y166000D01*
X249405D02*
X254925Y171520D01*
X246500Y166000D02*
X249405D01*
X254925Y171520D02*
X255750D01*
X276933D02*
X277500Y170953D01*
X266500Y171520D02*
X276933D01*
D15*
X320600Y343622D02*
D03*
Y341653D02*
D03*
Y339685D02*
D03*
Y337717D02*
D03*
Y335748D02*
D03*
Y333780D02*
D03*
Y331811D02*
D03*
Y329842D02*
D03*
Y327874D02*
D03*
Y325905D02*
D03*
Y323937D02*
D03*
Y321969D02*
D03*
Y320000D02*
D03*
Y318032D02*
D03*
Y316063D02*
D03*
Y314094D02*
D03*
Y312126D02*
D03*
Y310157D02*
D03*
Y308189D02*
D03*
Y306221D02*
D03*
Y304252D02*
D03*
Y302284D02*
D03*
Y300315D02*
D03*
Y298346D02*
D03*
Y296378D02*
D03*
X381400D02*
D03*
Y298346D02*
D03*
Y300315D02*
D03*
Y302284D02*
D03*
Y304252D02*
D03*
Y306221D02*
D03*
Y308189D02*
D03*
Y310157D02*
D03*
Y312126D02*
D03*
Y314094D02*
D03*
Y316063D02*
D03*
Y318032D02*
D03*
Y320000D02*
D03*
Y321969D02*
D03*
Y323937D02*
D03*
Y325905D02*
D03*
Y327874D02*
D03*
Y329842D02*
D03*
Y331811D02*
D03*
Y333780D02*
D03*
Y335748D02*
D03*
Y337717D02*
D03*
Y339685D02*
D03*
Y341653D02*
D03*
Y343622D02*
D03*
D16*
X327378Y289600D02*
D03*
X329346D02*
D03*
X331315D02*
D03*
X333283D02*
D03*
X335252D02*
D03*
X337221D02*
D03*
X339189D02*
D03*
X341158D02*
D03*
X343126D02*
D03*
X345094D02*
D03*
X347063D02*
D03*
X349031D02*
D03*
X351000D02*
D03*
X352969D02*
D03*
X354937D02*
D03*
X356906D02*
D03*
X358874D02*
D03*
X360842D02*
D03*
X362811D02*
D03*
X364779D02*
D03*
X366748D02*
D03*
X368717D02*
D03*
X370685D02*
D03*
X372654D02*
D03*
X374622D02*
D03*
Y350400D02*
D03*
X372654D02*
D03*
X370685D02*
D03*
X368717D02*
D03*
X366748D02*
D03*
X364779D02*
D03*
X362811D02*
D03*
X360842D02*
D03*
X358874D02*
D03*
X356906D02*
D03*
X354937D02*
D03*
X352969D02*
D03*
X351000D02*
D03*
X349031D02*
D03*
X347063D02*
D03*
X345094D02*
D03*
X343126D02*
D03*
X341158D02*
D03*
X339189D02*
D03*
X337221D02*
D03*
X335252D02*
D03*
X333283D02*
D03*
X331315D02*
D03*
X329346D02*
D03*
X327378D02*
D03*
D17*
X275000Y212098D02*
D03*
Y186902D02*
D03*
X341000Y186402D02*
D03*
Y211598D02*
D03*
D18*
X390850Y368358D02*
D03*
X422150D02*
D03*
X390850Y350642D02*
D03*
X422150D02*
D03*
D19*
X353500Y170000D02*
D03*
Y162520D02*
D03*
X236500Y194500D02*
D03*
Y187020D02*
D03*
X247000Y188500D02*
D03*
Y181020D02*
D03*
X302000Y186520D02*
D03*
Y194000D02*
D03*
X343500Y162520D02*
D03*
Y170000D02*
D03*
X285500Y162760D02*
D03*
Y170240D02*
D03*
X276000Y162760D02*
D03*
Y170240D02*
D03*
X312000Y187480D02*
D03*
Y180000D02*
D03*
D20*
X304450Y164000D02*
D03*
X298545D02*
D03*
X238500Y165000D02*
D03*
X232594D02*
D03*
X395094Y173000D02*
D03*
X401000D02*
D03*
X398095Y183500D02*
D03*
X404000D02*
D03*
D21*
X416500Y324429D02*
D03*
X406500D02*
D03*
X416500Y290571D02*
D03*
X406500D02*
D03*
D22*
X419480Y333500D02*
D03*
X412000D02*
D03*
X404000Y341000D02*
D03*
X411480D02*
D03*
D23*
X381000Y210405D02*
D03*
Y204500D02*
D03*
X399500Y210000D02*
D03*
Y204095D02*
D03*
X246000Y165500D02*
D03*
Y171405D02*
D03*
X311950Y164000D02*
D03*
Y169905D02*
D03*
D24*
X244201Y335000D02*
D03*
X206799D02*
D03*
D25*
X387260Y201724D02*
D03*
X394740D02*
D03*
Y192276D02*
D03*
X391000D02*
D03*
X387260D02*
D03*
D26*
X255750Y179000D02*
D03*
Y175260D02*
D03*
Y171520D02*
D03*
X266500D02*
D03*
Y175260D02*
D03*
Y179000D02*
D03*
X321575Y178240D02*
D03*
Y174500D02*
D03*
Y170760D02*
D03*
X332325D02*
D03*
Y174500D02*
D03*
Y178240D02*
D03*
D27*
X192000Y336622D02*
D03*
Y333000D02*
D03*
X261430Y330378D02*
D03*
Y334000D02*
D03*
D46*
X208205Y357791D02*
D03*
X225056Y362707D02*
D03*
X416190Y200396D02*
D03*
X420641Y182907D02*
D03*
X422207Y192444D02*
D03*
X417974Y201112D02*
D03*
D47*
X366000Y233000D02*
D03*
Y243000D02*
D03*
Y253000D02*
D03*
X221500Y169000D02*
D03*
Y221000D02*
D03*
Y195000D02*
D03*
D48*
X366000Y263000D02*
D03*
X221500Y159000D02*
D03*
Y211000D02*
D03*
Y185000D02*
D03*
D49*
Y237500D02*
D03*
Y247500D02*
D03*
Y257500D02*
D03*
Y267500D02*
D03*
Y277500D02*
D03*
Y287500D02*
D03*
D50*
X422500Y248000D02*
D03*
Y238000D02*
D03*
Y228000D02*
D03*
Y218000D02*
D03*
Y208000D02*
D03*
Y198000D02*
D03*
Y188000D02*
D03*
Y178000D02*
D03*
Y168000D02*
D03*
X289500Y363000D02*
D03*
X279500D02*
D03*
X269500D02*
D03*
X259500D02*
D03*
X249500D02*
D03*
X239500D02*
D03*
X229500D02*
D03*
X219500D02*
D03*
X209500D02*
D03*
D51*
X422500Y158000D02*
D03*
D52*
X199500Y363000D02*
D03*
D53*
X334500Y297000D02*
D03*
X328000Y296500D02*
D03*
X327500Y308000D02*
D03*
X367828Y297745D02*
D03*
X313500Y322500D02*
D03*
X373500Y343213D02*
D03*
X329000Y344000D02*
D03*
X335000Y344500D02*
D03*
X328500Y320500D02*
D03*
X397500Y352000D02*
D03*
X300000Y227000D02*
D03*
X355500Y175000D02*
D03*
X338000Y174500D02*
D03*
X381000Y192000D02*
D03*
X390094Y167000D02*
D03*
Y173000D02*
D03*
X354500Y300500D02*
D03*
X369000Y303000D02*
D03*
X335500Y318500D02*
D03*
X313500Y333500D02*
D03*
X372020Y329500D02*
D03*
X375020Y337000D02*
D03*
X271000Y175500D02*
D03*
X286500D02*
D03*
X348500Y174500D02*
D03*
X416500Y316500D02*
D03*
X374500Y296500D02*
D03*
X381000Y215000D02*
D03*
X394500Y211500D02*
D03*
X280500Y175500D02*
D03*
X318000Y206000D02*
D03*
X309500D02*
D03*
X301500D02*
D03*
X318000Y198500D02*
D03*
X309500D02*
D03*
X301500D02*
D03*
X318500Y215500D02*
D03*
X309500D02*
D03*
X301500D02*
D03*
X351000Y218500D02*
D03*
X341000D02*
D03*
X331500D02*
D03*
X285000Y220000D02*
D03*
X274500D02*
D03*
X264500D02*
D03*
X245500Y200000D02*
D03*
X254000Y209000D02*
D03*
X245500Y209500D02*
D03*
X236500D02*
D03*
X254000Y200000D02*
D03*
X236500D02*
D03*
Y219000D02*
D03*
X254000D02*
D03*
X245500D02*
D03*
D54*
X348000Y295000D02*
D03*
X341500Y297500D02*
D03*
X357000Y336500D02*
D03*
X360500Y295000D02*
D03*
X291500Y315500D02*
D03*
X328500Y339000D02*
D03*
X425500Y333500D02*
D03*
X422500Y326000D02*
D03*
X421000Y340000D02*
D03*
X250500Y156000D02*
D03*
X243000D02*
D03*
X365500Y343000D02*
D03*
X356000D02*
D03*
X371000Y359500D02*
D03*
X341500Y362000D02*
D03*
X329500Y356500D02*
D03*
X311000Y328000D02*
D03*
X341000Y343500D02*
D03*
X348500Y342000D02*
D03*
X351000Y336500D02*
D03*
X391000Y362500D02*
D03*
X397500Y368000D02*
D03*
X416000Y368500D02*
D03*
X422000Y363000D02*
D03*
X405000Y347500D02*
D03*
X423500Y280500D02*
D03*
X416500D02*
D03*
X402500D02*
D03*
X409500D02*
D03*
X249500Y175500D02*
D03*
X316500Y174500D02*
D03*
X391000Y185000D02*
D03*
X382000Y185500D02*
D03*
X393000Y179500D02*
D03*
X400000Y178500D02*
D03*
X359500Y313500D02*
D03*
X354000Y308000D02*
D03*
X346000Y332500D02*
D03*
X335000D02*
D03*
X341500Y328500D02*
D03*
X343000Y321500D02*
D03*
X346500Y315500D02*
D03*
X336000Y325000D02*
D03*
X309000Y309000D02*
D03*
X313500Y304000D02*
D03*
X345000Y308500D02*
D03*
X348500Y302500D02*
D03*
X368500Y316500D02*
D03*
X367000Y309500D02*
D03*
X322000Y289500D02*
D03*
X368500Y281000D02*
D03*
X377000Y283500D02*
D03*
X361020Y330000D02*
D03*
X388000Y341500D02*
D03*
X380000Y291000D02*
D03*
X287500Y286000D02*
D03*
X291500Y295000D02*
D03*
X398500Y345000D02*
D03*
X391435Y331435D02*
D03*
X375500Y316500D02*
D03*
X282000Y293500D02*
D03*
X277500Y272000D02*
D03*
X390018Y275982D02*
D03*
X387000Y271500D02*
D03*
X363000Y283500D02*
D03*
X387000Y214000D02*
D03*
X390000Y218500D02*
D03*
X316500Y155500D02*
D03*
X338500D02*
D03*
X346500D02*
D03*
X353500D02*
D03*
X281000Y156000D02*
D03*
X288000D02*
D03*
X244000Y175500D02*
D03*
X310500Y174500D02*
D03*
X305000Y172000D02*
D03*
X299500D02*
D03*
X305000Y179500D02*
D03*
X299500D02*
D03*
X239000Y180500D02*
D03*
X233500D02*
D03*
Y173000D02*
D03*
X239000D02*
D03*
X236000Y156000D02*
D03*
X258000D02*
D03*
Y163000D02*
D03*
X265000D02*
D03*
Y156000D02*
D03*
X273000D02*
D03*
X324000Y163000D02*
D03*
X331500D02*
D03*
Y155500D02*
D03*
X324000D02*
D03*
X308500D02*
D03*
X301000D02*
D03*
M02*
