G04*
G04 #@! TF.GenerationSoftware,Altium Limited,Altium Designer,24.6.1 (21)*
G04*
G04 Layer_Color=8421504*
%FSLAX44Y44*%
%MOMM*%
G71*
G04*
G04 #@! TF.SameCoordinates,687BAC2B-120B-4896-92E6-0E63200D37F7*
G04*
G04*
G04 #@! TF.FilePolarity,Positive*
G04*
G01*
G75*
%ADD16R,2.2000X1.6000*%
%ADD17R,0.8000X1.0000*%
%ADD18R,1.0000X0.8000*%
%ADD19R,1.4732X0.2794*%
%ADD20R,0.2794X1.4732*%
%ADD21R,0.7000X1.3000*%
%ADD22R,0.9779X0.5588*%
%ADD23R,1.5500X1.3000*%
%ADD24R,5.5000X2.0000*%
%ADD25R,0.6200X0.6000*%
%ADD26R,1.1300X2.4400*%
%ADD27R,0.9500X1.3500*%
%ADD28R,1.3500X0.9500*%
D16*
X866140Y473460D02*
D03*
Y537460D02*
D03*
X698500Y474730D02*
D03*
Y538730D02*
D03*
D17*
X1011160Y445770D02*
D03*
X1026160D02*
D03*
X1011160Y466090D02*
D03*
X1026160D02*
D03*
X590790Y419100D02*
D03*
X605790D02*
D03*
X758303Y416560D02*
D03*
X773303D02*
D03*
D18*
X624840Y420370D02*
D03*
Y435370D02*
D03*
X792353Y416560D02*
D03*
Y431560D02*
D03*
D19*
X814324Y872800D02*
D03*
Y867800D02*
D03*
Y862800D02*
D03*
Y857800D02*
D03*
Y852800D02*
D03*
Y847800D02*
D03*
Y842800D02*
D03*
Y837800D02*
D03*
Y832800D02*
D03*
Y827800D02*
D03*
Y822800D02*
D03*
Y817800D02*
D03*
Y812800D02*
D03*
Y807800D02*
D03*
Y802800D02*
D03*
Y797800D02*
D03*
Y792800D02*
D03*
Y787800D02*
D03*
Y782800D02*
D03*
Y777800D02*
D03*
Y772800D02*
D03*
Y767800D02*
D03*
Y762800D02*
D03*
Y757800D02*
D03*
Y752800D02*
D03*
X968756D02*
D03*
Y757800D02*
D03*
Y762800D02*
D03*
Y767800D02*
D03*
Y772800D02*
D03*
Y777800D02*
D03*
Y782800D02*
D03*
Y787800D02*
D03*
Y792800D02*
D03*
Y797800D02*
D03*
Y802800D02*
D03*
Y807800D02*
D03*
Y812800D02*
D03*
Y817800D02*
D03*
Y822800D02*
D03*
Y827800D02*
D03*
Y832800D02*
D03*
Y837800D02*
D03*
Y842800D02*
D03*
Y847800D02*
D03*
Y852800D02*
D03*
Y857800D02*
D03*
Y862800D02*
D03*
Y867800D02*
D03*
Y872800D02*
D03*
D20*
X831540Y735584D02*
D03*
X836540D02*
D03*
X841540D02*
D03*
X846540D02*
D03*
X851540D02*
D03*
X856540D02*
D03*
X861540D02*
D03*
X866540D02*
D03*
X871540D02*
D03*
X876540D02*
D03*
X881540D02*
D03*
X886540D02*
D03*
X891540D02*
D03*
X896540D02*
D03*
X901540D02*
D03*
X906540D02*
D03*
X911540D02*
D03*
X916540D02*
D03*
X921540D02*
D03*
X926540D02*
D03*
X931540D02*
D03*
X936540D02*
D03*
X941540D02*
D03*
X946540D02*
D03*
X951540D02*
D03*
Y890016D02*
D03*
X946540D02*
D03*
X941540D02*
D03*
X936540D02*
D03*
X931540D02*
D03*
X926540D02*
D03*
X921540D02*
D03*
X916540D02*
D03*
X911540D02*
D03*
X906540D02*
D03*
X901540D02*
D03*
X896540D02*
D03*
X891540D02*
D03*
X886540D02*
D03*
X881540D02*
D03*
X876540D02*
D03*
X871540D02*
D03*
X866540D02*
D03*
X861540D02*
D03*
X856540D02*
D03*
X851540D02*
D03*
X846540D02*
D03*
X841540D02*
D03*
X836540D02*
D03*
X831540D02*
D03*
D21*
X983640Y512380D02*
D03*
X1002640D02*
D03*
Y488380D02*
D03*
X993140D02*
D03*
X983640D02*
D03*
D22*
X649605Y454660D02*
D03*
Y445160D02*
D03*
Y435660D02*
D03*
X676910D02*
D03*
Y445160D02*
D03*
Y454660D02*
D03*
X816801Y452730D02*
D03*
Y443230D02*
D03*
Y433730D02*
D03*
X844106D02*
D03*
Y443230D02*
D03*
Y452730D02*
D03*
D23*
X992760Y935630D02*
D03*
X1072260D02*
D03*
X992760Y890630D02*
D03*
X1072260D02*
D03*
D24*
X525270Y850900D02*
D03*
X620270D02*
D03*
D25*
X487680Y855020D02*
D03*
Y845820D02*
D03*
X664031Y832536D02*
D03*
Y841736D02*
D03*
D26*
X1032510Y738050D02*
D03*
X1057910D02*
D03*
X1032510Y824050D02*
D03*
X1057910D02*
D03*
D27*
X711320Y812800D02*
D03*
X726320D02*
D03*
X1050530Y858520D02*
D03*
X1065530D02*
D03*
D28*
X628650Y457440D02*
D03*
Y472440D02*
D03*
X728980Y434100D02*
D03*
Y419100D02*
D03*
X704850Y434220D02*
D03*
Y419220D02*
D03*
X600710Y493910D02*
D03*
Y478910D02*
D03*
X795020Y455930D02*
D03*
Y470930D02*
D03*
X896493Y431800D02*
D03*
Y416800D02*
D03*
X872363Y431800D02*
D03*
Y416800D02*
D03*
X766953Y491250D02*
D03*
Y476250D02*
D03*
M02*
