G04*
G04 #@! TF.GenerationSoftware,Altium Limited,Altium Designer,24.7.2 (38)*
G04*
G04 Layer_Color=16711935*
%FSLAX25Y25*%
%MOIN*%
G70*
G04*
G04 #@! TF.SameCoordinates,17647D21-3567-4D15-9BF9-88849ECC23B8*
G04*
G04*
G04 #@! TF.FilePolarity,Positive*
G04*
G01*
G75*
%ADD12C,0.00394*%
%ADD68C,0.00197*%
D12*
X337772Y338500D02*
X341709D01*
X339740Y336531D02*
Y340469D01*
X337760Y288032D02*
Y291968D01*
X335791Y290000D02*
X339728D01*
X361000Y301291D02*
Y305228D01*
X359032Y303260D02*
X362968D01*
X337240Y348532D02*
Y352468D01*
X335272Y350500D02*
X339209D01*
X363791Y335500D02*
X367728D01*
X365760Y333531D02*
Y337469D01*
X323532Y333500D02*
X327468D01*
X325500Y331532D02*
Y335469D01*
X323291Y326500D02*
X327228D01*
X325260Y324532D02*
Y328468D01*
X333272Y304000D02*
X337209D01*
X335240Y302031D02*
Y305968D01*
X333272Y312000D02*
X337209D01*
X335240Y310032D02*
Y313968D01*
X364791Y350500D02*
X368728D01*
X366760Y348532D02*
Y352468D01*
X373500Y303772D02*
Y307709D01*
X371532Y305740D02*
X375468D01*
D68*
X323874Y269969D02*
X371071D01*
X323874Y224654D02*
Y269969D01*
Y224654D02*
X371071D01*
Y269969D01*
X348205Y333579D02*
Y343421D01*
X331276Y333579D02*
Y343421D01*
X348205D01*
X331276Y333579D02*
X348205D01*
X329295Y294921D02*
X346224D01*
X329295Y285079D02*
X346224D01*
Y294921D01*
X329295Y285079D02*
Y294921D01*
X356079Y311724D02*
X365921D01*
X356079Y294795D02*
X365921D01*
X356079D02*
Y311724D01*
X365921Y294795D02*
Y311724D01*
X328776Y355421D02*
X345705D01*
X328776Y345579D02*
X345705D01*
Y355421D01*
X328776Y345579D02*
Y355421D01*
X357295Y330579D02*
Y340421D01*
X374224Y330579D02*
Y340421D01*
X357295Y330579D02*
X374224D01*
X357295Y340421D02*
X374224D01*
X333965Y328579D02*
Y338421D01*
X317035Y328579D02*
Y338421D01*
X333965D01*
X317035Y328579D02*
X333965D01*
X333724Y321579D02*
Y331421D01*
X316795Y321579D02*
Y331421D01*
X333724D01*
X316795Y321579D02*
X333724D01*
X343705Y299079D02*
Y308921D01*
X326776Y299079D02*
Y308921D01*
X343705D01*
X326776Y299079D02*
X343705D01*
Y307079D02*
Y316921D01*
X326776Y307079D02*
Y316921D01*
X343705D01*
X326776Y307079D02*
X343705D01*
X375224Y345579D02*
Y355421D01*
X358295Y345579D02*
Y355421D01*
X375224D01*
X358295Y345579D02*
X375224D01*
X368579Y297276D02*
X378421D01*
X368579Y314205D02*
X378421D01*
Y297276D02*
Y314205D01*
X368579Y297276D02*
Y314205D01*
M02*
